<svg width="60" height="60" viewBox="0 0 60 60" fill="none" xmlns="http://www.w3.org/2000/svg">
<g clip-path="url(#clip0_1234_106031)">
<path d="M29.7985 58.1935C45.288 58.1935 57.8608 46.5294 58.1355 32.044H58.1414V30.8365H57.627C55.1078 18.5576 43.6104 9.28125 29.7985 9.28125C15.9865 9.28125 4.48916 18.5631 1.96992 30.842H1.44971V32.0495H1.4614C1.73027 46.5294 14.3089 58.199 29.7985 58.199V58.1935Z" fill="url(#paint0_linear_1234_106031)"/>
<path d="M29.7985 55.5256C45.288 55.5256 57.8608 43.8615 58.1355 29.3761H58.1414V28.1685H57.627C55.1078 15.8897 43.6104 6.61328 29.7985 6.61328C15.9865 6.61328 4.48916 15.8951 1.96992 28.174H1.44971V29.3816H1.4614C1.73027 43.8615 14.3089 55.531 29.7985 55.531V55.5256Z" fill="#FFCE81"/>
<path d="M57.7799 32.7221C60.2885 18.2094 49.7939 4.53477 34.3396 2.17902C18.8853 -0.176725 4.32349 9.67844 1.81491 24.1912C-0.693683 38.7039 9.8009 52.3785 25.2552 54.7342C40.7095 57.09 55.2713 47.2348 57.7799 32.7221Z" fill="url(#paint1_linear_1234_106031)"/>
<path d="M37.9083 47.9893C49.3945 43.7839 55.0755 31.6306 50.5972 20.8442C46.1189 10.0578 33.1772 4.72291 21.6909 8.92835C10.2047 13.1338 4.52368 25.2871 9.00197 36.0735C13.4803 46.8598 26.422 52.1948 37.9083 47.9893Z" fill="#BD6217"/>
<path d="M51.8168 28.4621C51.8168 39.8792 41.9561 49.1391 29.7983 49.1391C17.6405 49.1391 7.77393 39.8792 7.77393 28.4621C7.77393 17.0451 17.6346 7.78516 29.7983 7.78516C41.9619 7.78516 51.8168 17.0451 51.8168 28.4621Z" fill="url(#paint2_linear_1234_106031)"/>
<path d="M29.7983 9.06176C41.7281 9.06176 51.4369 17.9759 51.7993 29.0965C51.8051 28.8825 51.8168 28.6684 51.8168 28.4543C51.8168 17.0372 41.9561 7.77734 29.7983 7.77734C17.6405 7.77734 7.77393 17.0372 7.77393 28.4598C7.77393 28.6739 7.78562 28.8879 7.79146 29.102C8.15386 17.9813 17.8626 9.06725 29.7924 9.06725L29.7983 9.06176Z" fill="url(#paint3_linear_1234_106031)"/>
<path d="M29.7984 11.0234L36.3917 20.1351L47.6611 22.7534V23.2145L40.4716 31.92L40.8398 42.9363L29.7984 39.2038L18.7512 42.9363L19.1194 31.92L11.9299 23.2145V22.7534L23.1993 20.1351L29.7984 11.0234Z" fill="url(#paint4_linear_1234_106031)"/>
<path d="M29.7984 10.5625L36.3917 19.6742L47.6611 22.7535L40.4716 31.459L40.8398 42.4754L29.7984 38.7429L18.7512 42.4754L19.1194 31.459L11.9299 22.7535L23.1993 19.6742L29.7984 10.5625Z" fill="url(#paint5_linear_1234_106031)"/>
<path d="M29.7985 38.5547L18.7571 42.2817L18.7512 42.4738L29.7985 38.7413L40.8399 42.4738L40.834 42.2817L29.7985 38.5547Z" fill="#FFCE81"/>
<path d="M19.1194 31.2722L12.0585 22.7148L11.9299 22.7533L19.1136 31.4533L19.1194 31.2722Z" fill="#FFCE81"/>
<path d="M40.4717 31.2722L40.4775 31.4533L47.6612 22.7533L47.5384 22.7148L40.4717 31.2722Z" fill="#FFCE81"/>
</g>
<defs>
<linearGradient id="paint0_linear_1234_106031" x1="1.44971" y1="33.7401" x2="58.1414" y2="33.7401" gradientUnits="userSpaceOnUse">
<stop stop-color="#FF8726"/>
<stop offset="0.53" stop-color="#FD8525"/>
<stop offset="0.74" stop-color="#F68122"/>
<stop offset="0.88" stop-color="#EA791C"/>
<stop offset="1" stop-color="#DA6F16"/>
</linearGradient>
<linearGradient id="paint1_linear_1234_106031" x1="1.45371" y1="28.4584" x2="58.1512" y2="28.4584" gradientUnits="userSpaceOnUse">
<stop stop-color="#FFAF30"/>
<stop offset="1" stop-color="#FF971A"/>
</linearGradient>
<linearGradient id="paint2_linear_1234_106031" x1="29.7983" y1="12.1873" x2="29.7983" y2="55.1715" gradientUnits="userSpaceOnUse">
<stop stop-color="#FFEBD1"/>
<stop offset="1" stop-color="#FFDAAB"/>
</linearGradient>
<linearGradient id="paint3_linear_1234_106031" x1="29.7983" y1="10.0553" x2="29.7983" y2="32.2088" gradientUnits="userSpaceOnUse">
<stop stop-color="#E8CBA4"/>
<stop offset="1" stop-color="#C7AA86"/>
</linearGradient>
<linearGradient id="paint4_linear_1234_106031" x1="11.9299" y1="26.9799" x2="47.6611" y2="26.9799" gradientUnits="userSpaceOnUse">
<stop stop-color="#FF8726"/>
<stop offset="0.53" stop-color="#FD8525"/>
<stop offset="0.74" stop-color="#F68122"/>
<stop offset="0.88" stop-color="#EA791C"/>
<stop offset="1" stop-color="#DA6F16"/>
</linearGradient>
<linearGradient id="paint5_linear_1234_106031" x1="11.9299" y1="26.519" x2="47.6611" y2="26.519" gradientUnits="userSpaceOnUse">
<stop stop-color="#FFAF30"/>
<stop offset="1" stop-color="#FF971A"/>
</linearGradient>
<clipPath id="clip0_1234_106031">
<rect width="60" height="60" fill="white"/>
</clipPath>
</defs>
</svg>
