<svg width="24" height="24" viewBox="0 0 24 24" fill="none" xmlns="http://www.w3.org/2000/svg">
<path d="M7.72018 14.8799H3.46018C2.89132 14.8799 2.43018 15.341 2.43018 15.9099V20.2099C2.43018 20.7787 2.89132 21.2399 3.46018 21.2399H7.72018C8.28903 21.2399 8.75018 20.7787 8.75018 20.2099V15.9099C8.75018 15.341 8.28903 14.8799 7.72018 14.8799Z" fill="currentColor"/>
<path d="M5.55977 7.72012C6.83002 7.72012 7.85977 6.69037 7.85977 5.42012C7.85977 4.14986 6.83002 3.12012 5.55977 3.12012C4.28951 3.12012 3.25977 4.14986 3.25977 5.42012C3.25977 6.69037 4.28951 7.72012 5.55977 7.72012Z" stroke="currentColor" stroke-width="1.45" stroke-miterlimit="10"/>
<path d="M6.11 7.22998H5V12.31H6.11V7.22998Z" fill="currentColor"/>
<path d="M21.3302 18.7402L18.8702 21.2002C18.5502 21.5202 18.0202 21.5202 17.6902 21.2002L15.2202 18.7302C14.8902 18.4002 14.8902 17.8702 15.2202 17.5502L17.6802 15.0902C17.6802 15.0902 17.7102 15.0602 17.7202 15.0602V11.1802H18.8402V15.0802C18.8402 15.0802 18.8502 15.0802 18.8602 15.1002L21.3302 17.5702C21.6602 17.9002 21.6602 18.4202 21.3302 18.7502V18.7402Z" fill="currentColor"/>
<path d="M21.43 5.4398C21.43 7.0298 20.14 8.3298 18.54 8.3298C17.14 8.3298 15.97 7.3298 15.71 5.9998H11.71V4.8798H15.71C15.97 3.5498 17.14 2.5498 18.54 2.5498C20.13 2.5498 21.43 3.8398 21.43 5.4298V5.4398Z" fill="currentColor"/>
</svg>
