<svg width="24" height="16" viewBox="0 0 24 16" fill="none" xmlns="http://www.w3.org/2000/svg">
<path d="M21.2246 9.60549C20.8967 9.60549 20.5822 9.663 20.29 9.76783L18.9199 7.59039C19.7371 6.78576 20.245 5.66786 20.245 4.4331C20.245 1.98867 18.2564 0 15.8119 0C13.3675 0 11.3788 1.98867 11.3788 4.4331C11.3788 5.4003 11.6911 6.29536 12.2187 7.02491L9.5494 9.71102C9.19831 9.52084 8.79667 9.4127 8.3701 9.4127C7.949 9.4127 7.55218 9.51839 7.20434 9.70414L5.6442 8.06751C6.11333 7.51081 6.39686 6.7928 6.39686 6.00953C6.39686 4.24593 4.96203 2.8111 3.19843 2.8111C1.43482 2.8111 0 4.24593 0 6.00953C0 7.77314 1.43474 9.20796 3.19835 9.20796C3.66146 9.20796 4.10147 9.1082 4.49924 8.93036L6.19117 10.7053C5.99688 11.0592 5.88612 11.4652 5.88612 11.8967C5.88612 13.2663 7.00039 14.3806 8.37003 14.3806C9.73966 14.3806 10.8539 13.2663 10.8539 11.8967C10.8539 11.4704 10.7459 11.069 10.556 10.7182L13.2264 8.03088C13.9548 8.55578 14.8475 8.86621 15.8118 8.86621C16.5091 8.86621 17.1691 8.70387 17.7566 8.41575L19.1171 10.5778C18.7011 11.0632 18.4489 11.693 18.4489 12.3809C18.4489 13.9113 19.694 15.1564 21.2244 15.1564C22.7548 15.1564 23.9998 13.9113 23.9998 12.3809C23.9998 10.8505 22.755 9.60549 21.2246 9.60549ZM12.8027 4.4331C12.8027 2.77384 14.1526 1.42398 15.8118 1.42398C17.4711 1.42398 18.821 2.77384 18.821 4.4331C18.821 6.09236 17.4711 7.44222 15.8118 7.44222C14.1526 7.44222 12.8027 6.09228 12.8027 4.4331ZM8.37003 12.9566C7.78556 12.9566 7.31011 12.4811 7.31011 11.8967C7.31011 11.3123 7.78564 10.8368 8.37003 10.8368C8.95441 10.8368 9.42994 11.3123 9.42994 11.8967C9.42994 12.4811 8.95449 12.9566 8.37003 12.9566ZM1.42398 6.00953C1.42398 5.0311 2.21999 4.23509 3.19835 4.23509C4.17671 4.23509 4.97279 5.0311 4.97279 6.00953C4.97279 6.98797 4.17678 7.78398 3.19835 7.78398C2.21991 7.78398 1.42398 6.98797 1.42398 6.00953ZM21.2246 13.7324C20.4794 13.7324 19.8731 13.1261 19.8731 12.3809C19.8731 11.6357 20.4794 11.0294 21.2246 11.0294C21.9698 11.0294 22.576 11.6357 22.576 12.3809C22.576 13.1261 21.9697 13.7324 21.2246 13.7324Z" fill="currentColor"/>
</svg>
