<svg xmlns="http://www.w3.org/2000/svg" width="24" height="24" viewBox="0 0 24 24" fill="none">
<path d="M11.1902 14.1796C8.55023 12.4496 5.92024 10.7196 3.28024 8.97957C2.54024 8.49957 2.56024 7.40957 3.31024 6.94957C6.00024 5.30957 8.69024 3.66957 11.3802 2.02957C11.7702 1.78957 12.2702 1.79957 12.6502 2.03957C15.2602 3.70957 17.8602 5.37957 20.4702 7.03957C21.2102 7.50957 21.2102 8.58957 20.4702 9.05957L12.4902 14.1696C12.0902 14.4296 11.5802 14.4196 11.1802 14.1696L11.1902 14.1796Z" fill="currentColor"/>
<path d="M21.6495 11.8798C18.5595 13.9798 15.4795 16.0798 12.3895 18.1798C12.3095 18.2398 12.1895 18.3098 12.0495 18.3198C11.8795 18.3298 11.7395 18.2698 11.7095 18.2498C8.58951 16.1898 5.46951 14.1198 2.34951 12.0598C2.12951 11.9098 2.06951 11.5998 2.21951 11.3798L2.40951 11.0798C2.54951 10.8498 2.84951 10.7898 3.06951 10.9398L11.8695 16.9098L20.9295 10.7698C21.1495 10.6198 21.4395 10.6798 21.5895 10.9098L21.7795 11.2198C21.9295 11.4498 21.8595 11.7498 21.6495 11.8998V11.8798Z" fill="currentColor"/>
<path d="M21.6495 15.7001C18.5595 17.8001 15.4795 19.9001 12.3895 22.0001C12.3095 22.0601 12.1895 22.1301 12.0495 22.1401C11.8795 22.1501 11.7395 22.0901 11.7095 22.0701C8.58951 20.0101 5.46951 17.9401 2.34951 15.8801C2.12951 15.7301 2.06951 15.4201 2.21951 15.2001L2.40951 14.9001C2.54951 14.6701 2.84951 14.6101 3.06951 14.7601L11.8695 20.7301L20.9295 14.5901C21.1495 14.4401 21.4395 14.5001 21.5895 14.7301L21.7795 15.0401C21.9295 15.2701 21.8595 15.5701 21.6495 15.7201V15.7001Z" fill="currentColor"/>
</svg>