<svg width="30" height="24" viewBox="0 0 30 24" fill="none" xmlns="http://www.w3.org/2000/svg">
<path d="M24.9839 22.1116C24.9839 23.4742 20.2366 23.9988 14.3804 23.9988C8.52416 23.9988 3.77686 23.4742 3.77686 22.1116C3.77686 20.7491 8.52416 19.6445 14.3804 19.6445C20.2366 19.6445 24.9839 20.7491 24.9839 22.1116Z" fill="#D37A2A"/>
<path d="M22.189 11.4072C22.1711 11.5308 22.0854 11.538 21.984 11.5355C20.7173 11.5046 19.5864 11.0738 18.6421 10.2622C18.5042 10.1436 18.3409 9.89552 18.1641 9.79327C18.3 9.71268 18.603 9.80141 18.707 9.69282C19.5771 9.22049 20.1478 8.45348 20.6997 7.66807C20.7538 7.59122 20.7653 7.52724 20.6745 7.45902C20.2136 7.11304 20.0954 6.64968 20.2544 6.11483C20.4203 5.55704 20.8324 5.25111 21.3773 5.12249C22.1131 4.94893 22.936 5.41343 23.1295 6.09302C23.3337 6.81005 22.9423 7.52887 22.1558 7.76853C21.8648 7.85726 21.8081 8.00998 21.8127 8.25176C21.8322 9.27439 21.8995 10.2918 22.1649 11.2861C22.1755 11.3257 22.181 11.3667 22.189 11.4072Z" fill="#FDAD5B"/>
<path d="M7.00739 11.4072C7.02529 11.5308 7.11093 11.538 7.21237 11.5355C8.47905 11.5046 9.60995 11.0738 10.5544 10.2622C10.6923 10.1436 10.8556 9.89552 11.0325 9.79327C10.8965 9.71268 10.5935 9.80141 10.4895 9.69282C9.6194 9.22049 9.04874 8.45348 8.4968 7.66807C8.44275 7.59122 8.43119 7.52724 8.52204 7.45902C8.98296 7.11304 9.10116 6.64968 8.94209 6.11483C8.77619 5.55704 8.36411 5.25111 7.81917 5.12249C7.08342 4.94893 6.26056 5.41343 6.06698 6.09302C5.86281 6.81005 6.25421 7.52887 7.04076 7.76853C7.33171 7.85726 7.38837 8.00998 7.38381 8.25176C7.36427 9.27439 7.29703 10.2918 7.03164 11.2861C7.0209 11.3257 7.01536 11.3667 7.00739 11.4072Z" fill="#FDAD5B"/>
<path d="M15.4478 3.07517C15.5614 3.59552 15.6778 4.11506 15.7882 4.63606C16.1563 6.37165 16.8131 7.97536 17.9342 9.36969C18.1355 9.6201 18.5616 10.0691 18.6995 10.1875C19.6438 10.999 20.7154 11.5058 21.9821 11.5367C22.0835 11.5392 22.7402 11.4465 22.9902 11.3738C24.8978 10.8189 26.1035 9.48073 26.9495 7.75751C27.0163 7.6214 27.1034 7.48822 27.1092 7.32752C27.3583 7.47796 27.6089 7.617 27.9194 7.57337C28.0352 7.55709 28.1553 7.56588 28.1276 7.74156C27.9702 8.927 27.6623 10.0765 27.3484 11.2287C26.9264 12.7782 26.4204 14.2928 25.7178 15.7368C25.4284 16.3317 25.0935 16.9047 24.7794 17.4877C24.6641 17.3905 24.5599 17.2907 24.4165 17.2173C24.1537 17.0826 23.8764 16.9661 23.6288 16.8143C22.9609 16.405 22.2323 16.1305 21.5002 15.9042C20.7576 15.6746 19.9907 15.5035 19.2196 15.3557C18.485 15.2148 17.7426 15.1186 17.0069 15.0392C16.1627 14.948 15.3032 14.9275 14.4505 14.9016C13.5778 14.8752 10.7749 15.1185 10.3126 15.2481C9.8237 15.3851 9.29227 15.3793 8.811 15.534C8.21624 15.7251 7.61025 15.8822 7.02461 16.1088C6.11595 16.4605 4.70648 17.178 3.91798 17.7775C4.05653 16.7432 2.40235 13.6211 1.89177 12.0512C1.61157 11.1895 1.36165 10.3202 1.20274 9.42977C1.10001 8.85422 0.980664 8.27249 1.06109 7.67887C1.07835 7.49945 1.13941 7.39997 1.35627 7.43889C1.54595 7.47292 1.73823 7.44442 1.92449 7.35406C2.01371 7.31075 2.15113 7.2269 2.25028 7.37246C2.89502 8.49913 3.68825 9.50499 4.72113 10.299C5.71413 11.0623 6.83852 11.463 8.09853 11.274C9.02656 11.1346 9.79309 10.6447 10.4709 9.99847C11.5591 8.96119 12.2447 7.67399 12.8004 6.30668C13.1913 5.34462 13.5023 4.35521 13.7027 3.33355C13.7162 3.26452 13.7569 3.2007 13.7846 3.13492C13.803 2.96478 13.7942 2.83779 14.0648 2.93678C14.4261 3.06898 14.8276 3.12108 15.198 2.93157C15.3878 2.83502 15.4266 2.91984 15.4478 3.07517ZM2.91407 9.43709C2.91977 9.50954 2.91211 9.55269 2.92726 9.58509C3.33006 10.4438 3.92807 11.1457 4.67196 11.7249C5.03764 12.0097 5.45379 12.2127 5.88655 12.3702C6.08323 12.4418 6.34861 12.5104 6.4546 12.2468C6.5588 11.9874 6.36017 11.8615 6.13386 11.7826C5.87385 11.6919 5.60993 11.6066 5.36213 11.4884C4.51648 11.0853 3.82534 10.4916 3.25809 9.74758C3.17555 9.63931 3.11384 9.49733 2.91407 9.43709ZM25.9173 13.089C26.1781 13.0843 26.2598 12.8881 26.3286 12.6909C26.5641 12.0143 26.8828 11.3659 27.0397 10.6628C27.1244 10.2831 27.1837 9.89769 27.2519 9.51443C27.2631 9.45158 27.255 9.37571 27.1858 9.35845C27.1042 9.33827 27.0961 9.41804 27.0796 9.47552C27.0184 9.69108 26.9723 9.91234 26.8929 10.1209C26.6596 10.7337 26.4582 11.3596 26.0772 11.9088C25.9087 12.1515 25.7914 12.4317 25.6644 12.7012C25.5588 12.9254 25.678 13.0976 25.9173 13.089ZM7.48505 12.4708C7.47805 12.3093 7.39371 12.1758 7.21608 12.1813C7.05327 12.1864 6.91764 12.3195 6.90641 12.4723C6.89469 12.6312 7.00801 12.764 7.1928 12.7691C7.37808 12.7743 7.4704 12.6668 7.48505 12.4708ZM25.5852 14.0034C25.5801 13.8619 25.5197 13.7821 25.3787 13.779C25.2152 13.7754 25.198 13.9058 25.1964 14.0125C25.1949 14.1175 25.2038 14.2617 25.3683 14.2479C25.5096 14.2362 25.5822 14.1396 25.5852 14.0034Z" fill="#FDDF49"/>
<path d="M3.7605 21.0924C3.80869 20.4322 3.87691 19.7718 3.75659 19.1119C3.79078 19.0748 3.8183 19.0253 3.8603 19.0023C4.72859 18.5285 5.60485 18.0663 6.52425 17.7023C7.20579 17.4323 7.90328 17.1819 8.61559 17.0175C9.11868 16.9012 9.6348 16.8079 10.1493 16.7239C11.2178 16.5499 12.2937 16.4771 13.3686 16.4519C14.7221 16.42 16.0715 16.5035 17.4169 16.7269C18.1706 16.8519 18.914 17.0134 19.6607 17.1642C20.2893 17.2912 20.8867 17.5333 21.4992 17.7143C22.5337 18.0202 23.4902 18.4919 24.4671 18.9265C24.7131 19.0359 24.9311 19.2259 25.2196 19.2335C25.1289 19.8035 25.218 20.3674 25.2784 20.9317C25.2667 20.9747 25.3178 21.066 25.1932 21.0084C24.4602 20.6695 23.6809 20.4584 22.9088 20.2413C22.1442 20.0266 21.3583 19.8762 20.5732 19.7518C20.2914 19.7072 20.0207 19.5955 19.7308 19.6021C19.2882 19.6122 18.8552 19.504 18.4257 19.4366C17.7134 19.3249 16.991 19.2742 16.2841 19.255C14.4013 19.2041 12.5127 19.1477 10.6322 19.3535C10.1537 19.4059 9.67355 19.4491 9.19764 19.5189C8.60012 19.6065 8.00634 19.7161 7.41321 19.8341C6.69081 19.9777 5.98811 20.171 5.2968 20.4164C4.76831 20.6039 4.31781 20.9698 3.7605 21.0924Z" fill="#FDDF49"/>
<path d="M3.76598 21.0921C4.32329 20.9695 4.77379 20.6036 5.30228 20.4161C5.99342 20.1709 6.69629 19.9775 7.41869 19.8339C8.01198 19.716 8.6056 19.6064 9.20312 19.5187C9.67919 19.4488 10.1592 19.4057 10.6377 19.3532C12.5182 19.1474 14.4068 19.2038 16.2896 19.2547C16.9965 19.2739 17.7189 19.3246 18.4312 19.4363C18.8607 19.5037 19.2936 19.6119 19.7363 19.6019C20.0261 19.5952 20.2969 19.7069 20.5787 19.7515C21.3638 19.8759 22.1497 20.0261 22.9143 20.2411C23.6863 20.4579 24.4657 20.6693 25.1987 21.0081C25.3233 21.0657 25.7993 21.3847 25.7441 21.9066C25.7583 22.2814 25.2848 23.0825 24.6875 22.8021C24.0476 22.4615 23.5974 22.3602 22.8972 22.1867C21.9524 21.9525 20.998 21.7989 20.032 21.6745C18.9363 21.5333 17.8397 21.4897 16.7406 21.4242C15.8951 21.3739 15.0507 21.3173 14.2067 21.3532C12.8693 21.4102 11.5309 21.4801 10.1987 21.6059C9.55838 21.6665 8.90876 21.7165 8.279 21.8496C7.57304 21.9991 6.85959 22.1105 6.15803 22.291C5.55904 22.4452 4.96721 22.6123 4.37913 22.8028C3.93009 22.9481 3.56507 22.7933 3.34445 22.4211C3.17171 22.1297 3.25491 21.6701 3.53039 21.3721C3.61326 21.2832 3.68766 21.1859 3.76598 21.0921Z" fill="#FDAD5B"/>
<path d="M25.2193 19.2316C24.9306 19.2239 24.7126 19.0339 24.4668 18.9245C23.4899 18.49 22.5334 18.0183 21.4989 17.7124C20.8863 17.5313 20.2892 17.2892 19.6604 17.1622C18.9137 17.0115 18.1703 16.8499 17.4166 16.7249C16.0711 16.5017 14.7218 16.4182 13.3683 16.4499C12.2934 16.4751 11.2175 16.5479 10.149 16.722C9.63449 16.8058 9.11838 16.8993 8.61528 17.0155C7.90298 17.18 7.20548 17.4305 6.52395 17.7003C5.60454 18.0644 4.72828 18.5266 3.86 19.0004C3.81799 19.0233 3.79048 19.0728 3.75629 19.11C3.67407 19.109 3.59152 19.1111 3.50946 19.1064C3.23903 19.0907 3.12506 18.9002 3.21363 18.6463C3.3447 18.2705 3.65274 18.0395 3.91666 17.7763C4.06498 17.6287 4.19995 17.4561 4.39973 17.3646C5.18823 16.7651 6.11464 16.4594 7.0233 16.1077C7.60894 15.881 8.21493 15.7239 8.80968 15.5328C9.29096 15.3781 9.82222 15.384 10.3113 15.2469C10.7735 15.1173 13.5765 14.874 14.4492 14.9004C15.3019 14.9261 16.1613 14.9468 17.0055 15.038C17.7411 15.1174 18.4837 15.2137 19.2183 15.3545C19.9894 15.5023 20.7563 15.6735 21.4989 15.903C22.231 16.1293 22.9596 16.404 23.6275 16.8131C23.8751 16.9649 24.1524 17.0815 24.4152 17.2161C24.5586 17.2895 24.6628 17.3895 24.7781 17.4865C25.1315 17.7037 25.4153 17.9981 25.6467 18.3351C25.8819 18.6785 25.6377 19.1678 25.2193 19.2316Z" fill="#FDAD5B"/>
<path d="M15.4427 3.07473C15.4215 2.91957 15.3827 2.83458 15.1932 2.93162C14.8228 3.12113 14.4213 3.06903 14.0601 2.93683C13.7896 2.83784 13.7984 2.96483 13.7799 3.13497C13.7732 2.93031 13.7069 2.75317 13.5412 2.62422C12.9617 2.17356 13.0242 0.771573 13.8385 0.366983C14.1172 0.228429 14.3473 0.022633 14.6893 0.00309542C15.457 -0.0405385 15.9467 0.383916 16.155 0.847933C16.451 1.50716 16.1882 2.20759 15.716 2.62341C15.5734 2.74894 15.4409 2.86763 15.4427 3.07473ZM15.0086 1.36763C15.308 1.37007 15.6545 1.10111 15.6476 0.871378C15.6416 0.667047 15.2424 0.416153 14.9182 0.412896C14.6815 0.410617 14.4352 0.615761 14.429 0.820255C14.4202 1.11869 14.6809 1.36486 15.0086 1.36763Z" fill="#FDDF49"/>
<path d="M2.24901 7.37321C2.15002 7.22766 2.0126 7.31151 1.92322 7.35482C1.73696 7.44518 1.54468 7.47367 1.355 7.43964C1.13814 7.40073 1.07708 7.50021 1.05982 7.67963C1.06601 7.47269 0.978414 7.38477 0.772293 7.28937C0.247709 7.04645 -0.0088829 6.69998 0.000234633 6.12639C0.00804966 5.63225 0.349957 5.2516 0.885449 5.08797C0.961809 5.06469 1.03019 5.01617 1.10394 4.98279C1.61127 4.75371 2.05233 4.91718 2.46946 5.2161C2.92876 5.54515 2.96262 6.01552 2.87307 6.50933C2.83009 6.74671 2.64171 6.90952 2.46864 7.06957C2.37551 7.15586 2.2355 7.20926 2.24901 7.37321ZM2.14627 5.72099C2.14058 5.44974 1.89261 5.27537 1.52303 5.28286C1.2552 5.28823 1.02938 5.47856 1.04094 5.68956C1.05331 5.91604 1.35468 6.13763 1.65246 6.13909C1.94569 6.14023 2.15132 5.96618 2.14627 5.72099Z" fill="#FDDF49"/>
<path d="M28.1324 7.74133C28.1599 7.56565 28.0398 7.55686 27.9242 7.57314C27.6137 7.61678 27.3631 7.47757 27.114 7.3273C26.6619 6.80385 26.5819 6.29229 26.8441 5.79832C27.0386 5.43182 27.799 5.17556 28.1544 5.22994C28.5619 5.29229 29.0048 5.75094 29.0547 6.16123C29.1285 6.76657 28.9206 7.15716 28.4203 7.43394C28.2775 7.5129 28.1982 7.61075 28.1324 7.74133ZM28.2646 6.45315C28.401 6.44908 28.5525 6.34993 28.5632 6.11189C28.5722 5.91245 28.215 5.60604 27.9828 5.59757C27.8263 5.59187 27.5899 5.82876 27.5834 5.9976C27.5746 6.22766 27.8657 6.45169 28.2646 6.45315Z" fill="#FDDF49"/>
<path d="M13.0824 9.29806C13.2628 8.98953 13.715 8.78178 14.0679 8.65446C14.9742 8.32753 15.9386 8.95192 16.2641 9.85098C16.5224 10.5651 16.6335 11.245 16.4225 11.9985C16.0824 13.2131 15.2816 13.9617 13.9117 13.7398C13.5936 13.6883 13.0301 13.237 12.8717 12.9312C12.5436 12.2979 12.1421 10.8334 13.0824 9.29806ZM15.7216 11.1252C15.7012 10.5058 15.5283 10.0302 15.1651 9.6346C14.9233 9.37117 14.4388 9.26159 14.2147 9.44069C13.4926 10.0185 13.0055 11.4908 13.8012 12.4003C14.1851 12.8392 14.6883 12.8583 15.1146 12.4648C15.5309 12.0805 15.6301 11.5634 15.7216 11.1252Z" fill="#FDAD5B"/>
<path d="M2.91284 9.4375C3.11261 9.49774 3.17432 9.63971 3.25687 9.74815C3.82411 10.4922 4.51509 11.0858 5.3609 11.4889C5.6087 11.607 5.87279 11.6925 6.13263 11.7831C6.35895 11.8621 6.55774 11.988 6.45338 12.2473C6.34739 12.5109 6.082 12.4424 5.88532 12.3707C5.45256 12.2133 5.03641 12.0103 4.67074 11.7255C3.92684 11.1462 3.32883 10.4445 2.92603 9.58566C2.91089 9.5531 2.91854 9.50995 2.91284 9.4375Z" fill="#FFF7D7"/>
<path d="M16.1333 7.01562C16.4246 7.50455 16.4928 8.01953 16.695 8.48453C16.8244 8.78215 16.9021 9.09426 17.1154 9.35899C17.429 9.74795 17.6655 10.1976 18.0836 10.5016C18.2425 10.6171 18.2899 10.7865 18.1437 10.9568C17.9877 11.1387 17.8267 11.0589 17.6828 10.942C17.484 10.7805 17.3158 10.5954 17.1777 10.3714C16.6904 9.58026 16.3614 8.73461 16.2 7.81894C16.1566 7.57163 16.025 7.33816 16.1333 7.01562Z" fill="#FFF7D7"/>
<path d="M25.9085 13.0892C25.669 13.0977 25.55 12.9254 25.6557 12.7014C25.7827 12.4319 25.8999 12.1519 26.0684 11.909C26.4496 11.3598 26.6508 10.7339 26.8841 10.1211C26.9636 9.91256 27.0096 9.69113 27.0709 9.47573C27.0871 9.41826 27.0954 9.33848 27.177 9.35867C27.2462 9.37576 27.2542 9.4518 27.2431 9.51464C27.1749 9.8979 27.1158 10.2833 27.031 10.663C26.874 11.3662 26.5554 12.0145 26.3198 12.6911C26.2511 12.8881 26.1694 13.0842 25.9085 13.0892Z" fill="#FFF7D7"/>
<path d="M7.49009 12.4692C7.47544 12.6654 7.38312 12.7727 7.19784 12.7676C7.01305 12.7626 6.89989 12.6296 6.91145 12.4708C6.92269 12.3181 7.05831 12.1849 7.22113 12.1799C7.39875 12.1742 7.48293 12.3075 7.49009 12.4692Z" fill="#FFF7D7"/>
<path d="M18.9279 11.5258C18.9224 11.6415 18.8288 11.6941 18.6873 11.6927C18.5313 11.6912 18.4315 11.6269 18.4389 11.4584C18.4459 11.2959 18.5722 11.262 18.6959 11.2659C18.8242 11.27 18.9336 11.3258 18.9279 11.5258Z" fill="#FFF7D7"/>
<path d="M25.5874 14.0016C25.5845 14.1379 25.512 14.2344 25.3705 14.2463C25.2061 14.26 25.1971 14.1159 25.1986 14.0109C25.2002 13.9042 25.2175 13.774 25.381 13.7774C25.5218 13.7803 25.5824 13.8601 25.5874 14.0016Z" fill="#FFF7D7"/>
<path d="M15.0103 1.36866C14.6826 1.36605 14.4218 1.11972 14.4309 0.821442C14.4371 0.616786 14.6834 0.411642 14.9201 0.414084C15.2443 0.41734 15.6435 0.668236 15.6496 0.872566C15.6562 1.10213 15.3098 1.3711 15.0103 1.36866Z" fill="#FFF7D7"/>
<path d="M2.14702 5.71977C2.15223 5.96496 1.9466 6.13901 1.65321 6.13771C1.35559 6.13624 1.05406 5.91482 1.04168 5.68818C1.03013 5.47717 1.25595 5.28685 1.52377 5.28147C1.89336 5.27415 2.14133 5.44852 2.14702 5.71977Z" fill="#FFF7D7"/>
<path d="M28.2571 6.45335C27.8582 6.45188 27.5672 6.22785 27.5759 5.99779C27.5824 5.82896 27.8188 5.5919 27.9753 5.59776C28.2073 5.60639 28.5646 5.91264 28.5557 6.11209C28.5448 6.35012 28.3935 6.44928 28.2571 6.45335Z" fill="#FFF7D7"/>
<path d="M15.7323 11.1261C15.6408 11.5644 15.5417 12.0815 15.1254 12.4658C14.6991 12.8591 14.196 12.8401 13.812 12.4013C13.0163 11.492 13.4025 9.70331 14.2255 9.44167C14.4495 9.26241 15.0052 9.33731 15.247 9.60074C15.6102 9.99637 15.712 10.5068 15.7323 11.1261ZM14.1745 10.4257C14.2001 10.7396 14.3375 10.9579 14.6558 10.9676C14.9801 10.9773 15.142 10.7538 15.149 10.4609C15.1565 10.1515 14.9637 9.96837 14.6504 9.96397C14.3434 9.95974 14.2117 10.1602 14.1745 10.4257Z" fill="#FB3871"/>
<path d="M14.1663 10.4227C14.2034 10.1572 14.3351 9.95677 14.6422 9.961C14.9554 9.9654 15.1482 10.1486 15.1407 10.4579C15.1335 10.7508 14.9719 10.9744 14.6475 10.9646C14.3292 10.955 14.192 10.7366 14.1663 10.4227Z" fill="#F9EFED"/>
</svg>
