<svg width="146" height="115" viewBox="0 0 146 115" fill="none" xmlns="http://www.w3.org/2000/svg">
<g filter="url(#filter0_d_1234_106055)">
<path d="M96.0973 74.3485C98.5894 63.6293 101.082 52.91 103.574 42.1907C104.043 40.172 103.96 37.9398 103.035 36.3018C96.3011 27.4063 89.673 19.1049 79.3361 14.4512C77.7243 13.585 75.7286 13.15 73.8889 13.2641C62.4896 13.18 52.8268 17.9311 42.8056 23.1758C41.2447 24.2719 40.1818 26.2544 39.7125 28.2732C37.2203 38.9924 34.7282 49.7117 32.236 60.431C31.7666 62.4497 31.8496 64.6819 32.7748 66.3199C39.5085 75.2161 46.1368 83.5168 56.4736 88.1705C58.0854 89.0367 60.0812 89.4717 61.9209 89.3576C73.3201 89.4417 82.9829 84.6906 93.0042 79.4459C94.5644 78.3496 95.6281 76.3666 96.0973 74.3485Z" fill="url(#paint0_linear_1234_106055)"/>
<path d="M98.78 43.4156L92.3081 71.2526C92.2592 71.4629 92.2007 71.671 92.1421 71.8792C91.6763 73.4079 90.8241 74.8311 89.6283 75.6644C80.9554 80.2 72.59 84.3189 62.7242 84.2408C61.1355 84.3471 59.4091 83.9708 58.011 83.2136C49.0622 79.1914 43.3265 71.9994 37.4974 64.3033C36.6938 62.8872 36.6213 60.9571 37.0285 59.2053L43.5005 31.3683C43.9054 29.6268 44.8275 27.9027 46.1802 26.9566C54.8531 22.421 63.2162 18.3123 73.0843 18.3801C74.6797 18.286 76.4068 18.6624 77.7976 19.4073C86.744 23.4398 92.4821 30.6216 98.3112 38.3177C99.1147 39.7337 99.1849 41.6741 98.78 43.4156Z" fill="url(#paint1_linear_1234_106055)"/>
<path d="M39.9187 26.3609C39.9187 26.3609 42.4094 28.4845 43.448 28.563C44.4866 28.6416 65.6185 16.5979 75.1394 18.5729C84.6603 20.5479 96.4876 37.7663 97.7785 38.8286C99.0694 39.8909 102.887 37.2526 102.887 37.2526C102.887 37.2526 88.2284 15.6592 76.4453 13.2149C64.6615 10.7705 40.6612 24.8167 39.9187 26.3609Z" fill="url(#paint2_linear_1234_106055)"/>
<path d="M92.9549 70.9458C92.4505 72.555 91.5576 74.0613 90.33 74.957C81.4594 79.874 72.9089 84.3489 62.9323 84.4602C61.3231 84.6025 59.5852 84.2424 58.1876 83.4772C49.2244 79.442 43.5798 72.0263 37.8517 64.0847C37.0699 62.6182 37.0385 60.5993 37.4885 58.7578C37.4885 58.7578 45.088 79.4894 60.3782 82.6571C75.6779 85.8276 92.9549 70.9458 92.9549 70.9458Z" fill="#FFE58C"/>
<path opacity="0.3" d="M60.3543 89.6049C57.9885 88.0771 59.7364 85.9439 62.9785 85.0999C66.2206 84.2559 71.5025 84.1869 77.7066 81.4045C83.9108 78.6213 89.5447 75.1603 90.9365 75.6512C92.3286 76.1413 91.6828 80.1012 91.6828 80.1012C91.6828 80.1012 75.2101 90.7183 60.3543 89.6049Z" fill="#BE2F55"/>
<path d="M121.821 55.5398C115.9 58.2445 99.3005 55.4303 99.3005 55.4303L102.976 40.4431C102.976 40.4431 133.575 32.3234 134.458 33.2865C135.348 34.2618 127.731 52.844 121.821 55.5398Z" fill="url(#paint3_linear_1234_106055)"/>
<path opacity="0.5" d="M121.822 55.5386C115.9 58.2435 99.3006 55.4292 99.3006 55.4292L100.063 52.3214C100.063 52.3214 116.617 51.9857 120.212 49.079C123.794 46.1808 134.459 33.2848 134.459 33.2848C135.349 34.2602 127.732 52.8428 121.822 55.5386Z" fill="#BE2F55"/>
<path d="M114.787 70.0569C111.123 70.2509 96.9232 66.3722 96.9232 66.3722L99.9937 53.8519C99.9937 53.8519 127.171 51.5699 128.832 53.8007C128.888 53.8554 128.911 53.925 128.915 53.9905C129.058 55.5638 119.764 69.7993 114.787 70.0569Z" fill="url(#paint4_linear_1234_106055)"/>
<path opacity="0.5" d="M114.793 70.0572C111.128 70.2512 96.9233 66.371 96.9233 66.371L97.5844 63.6748C97.5844 63.6748 106.694 65.7391 113.213 64.9033C118.403 64.2356 126.67 55.9698 128.842 53.7946C128.898 53.8493 128.921 53.9189 128.925 53.9845C129.068 55.5584 119.771 69.7995 114.793 70.0572Z" fill="#BE2F55"/>
<path d="M93.9334 76.0938C93.9334 76.0938 94.4729 74.6661 95.1341 72.7037C95.8586 70.6039 96.7314 67.8993 97.2669 65.7169C97.2669 65.7169 110.326 68.0219 110.776 68.5022C111.226 68.9824 104.128 79.67 93.9334 76.0938Z" fill="url(#paint5_linear_1234_106055)"/>
<path opacity="0.5" d="M93.9334 76.0895C93.9334 76.0895 94.473 74.6613 95.1344 72.6981L95.6436 72.3297C95.6436 72.3297 105.361 73.6439 110.782 68.4957C111.232 68.9754 104.132 79.6672 93.9334 76.0895Z" fill="#BE2F55"/>
<path opacity="0.5" d="M99.5275 54.0868L99.8754 52.3762C99.8754 52.3762 115.831 50.5765 118.875 50.2699C121.919 49.9633 125.165 52.9482 125.165 52.9482C125.165 52.9482 116.3 52.3562 99.5275 54.0868Z" fill="#BE2F55"/>
<path opacity="0.5" d="M96.9231 65.9832L97.5956 63.1851C97.5956 63.1851 109.393 64.931 111.807 65.3344C114.221 65.7377 115.072 69.8124 115.072 69.8124L110.846 69.3316L110.677 68.885L96.9231 65.9832Z" fill="#BE2F55"/>
<path opacity="0.5" d="M108.802 53.2336C104.495 53.5757 108.699 62.7628 112.63 63.9839C116.56 65.2049 125.921 56.4389 127.026 54.989C128.132 53.5378 114.621 52.7705 108.802 53.2336Z" fill="white"/>
<path opacity="0.5" d="M113.375 37.7744C111.531 38.4674 103.508 48.8022 103.117 50.62C102.725 52.4385 115.907 51.936 120.828 48.5727C125.748 45.2093 131.944 34.9083 131.944 34.9083C131.944 34.9083 122.29 34.4236 113.375 37.7744Z" fill="white"/>
<path opacity="0.5" d="M102.227 66.9279C96.887 67.2633 96.49 71.4918 96.489 72.1004C96.4881 72.709 102.11 72.9091 105.148 71.6687C108.185 70.4283 110.391 68.9091 110.391 68.9091C110.391 68.9091 103.917 66.8224 102.227 66.9279Z" fill="white"/>
<path opacity="0.5" d="M127.206 58.1268C127.759 57.0487 122.454 61.0932 121.439 63.016C120.424 64.9389 120.781 66.5639 120.781 66.5639C120.781 66.5639 125.481 61.4847 127.206 58.1268Z" fill="white"/>
<path opacity="0.5" d="M133.919 36.9889C133.231 36.4247 127.465 50.5372 127.465 50.5372C127.465 50.5372 131.607 44.2618 133.919 36.9889Z" fill="white"/>
<path d="M101.937 52.2334C101.937 52.2334 115.711 50.3842 119.293 48.6177C122.875 46.8514 129.655 38.9892 129.655 38.9892C129.655 38.9892 122.461 48.2677 118.908 49.8011C115.355 51.3345 101.937 52.2334 101.937 52.2334Z" fill="#FFD134"/>
<path d="M97.472 63.6377C97.472 63.6377 108.52 64.5939 112.736 64.2254C116.951 63.857 124.501 57.8944 124.501 57.8944C124.501 57.8944 117.067 64.5537 113.211 65.3076C109.356 66.0616 97.472 63.6377 97.472 63.6377Z" fill="#FFAB34"/>
<path d="M95.3836 71.6176C95.3836 71.6176 99.2534 72.0564 102.867 71.7336C106.48 71.4108 108.688 70.0809 108.688 70.0809C108.688 70.0809 102.269 73.9525 95.1893 72.4182L95.3843 71.6177L95.3836 71.6176Z" fill="#FFAB34"/>
<path d="M116.479 49.9614C114.786 49.7636 116.526 45.9497 120.004 45.5198C123.482 45.0897 120.548 50.4355 116.479 49.9614Z" fill="#FFF9C7"/>
<path d="M16.1653 32.0826C20.2526 36.8517 36.5646 40.8233 36.5646 40.8233L40.2425 25.834C40.2425 25.834 16.3872 6.48442 15.1405 7.00855C13.8804 7.54077 12.0849 27.3265 16.1653 32.0826Z" fill="url(#paint6_linear_1234_106055)"/>
<path opacity="0.5" d="M16.1656 32.0815C20.253 36.8507 36.5654 40.8223 36.5654 40.8223L37.3281 37.7141C37.3281 37.7141 22.5272 30.9129 20.6371 26.8748C18.7534 22.8489 15.1401 7.00672 15.1401 7.00672C13.8806 7.53908 12.0851 27.3253 16.1656 32.0815Z" fill="#BE2F55"/>
<path d="M16.6015 48.1625C19.8211 49.7761 34.463 51.845 34.463 51.845L37.5358 39.3225C37.5358 39.3225 14.0452 26.5901 11.5033 27.9547C11.4265 27.9819 11.3734 28.0358 11.339 28.0936C10.475 29.4594 12.2247 45.9757 16.6015 48.1625Z" fill="url(#paint7_linear_1234_106055)"/>
<path opacity="0.5" d="M16.6046 48.1582C19.8252 49.7724 34.4717 51.8422 34.4717 51.8422L35.1334 49.1455C35.1334 49.1455 25.9385 47.4349 20.4383 44.1196C16.0614 41.4787 12.4515 30.7613 11.5049 27.9423C11.428 27.9695 11.375 28.0235 11.3406 28.0813C10.4763 29.4476 12.2265 45.9706 16.6046 48.1582Z" fill="#BE2F55"/>
<path d="M33.3103 62.2188C33.3103 62.2188 33.4899 60.7166 33.8093 58.6833C34.1357 56.501 34.6105 53.7138 35.1463 51.5311C35.1463 51.5311 22.2702 48.4901 21.6389 48.7475C21.0082 49.0051 22.4273 61.4505 33.3103 62.2188Z" fill="url(#paint8_linear_1234_106055)"/>
<path opacity="0.5" d="M33.3155 62.2196C33.3155 62.2196 33.4951 60.7168 33.8146 58.6827L33.5266 58.1499C33.5266 58.1499 24.1325 55.5244 21.6398 48.7437C21.0091 49.0007 22.4286 61.451 33.3155 62.2196Z" fill="#BE2F55"/>
<path opacity="0.5" d="M37.4573 39.7758L37.9329 38.0913C37.9329 38.0913 24.3487 30.1209 21.7401 28.6335C19.1315 27.1461 14.8201 28.5534 14.8201 28.5534C14.8201 28.5534 23.1035 31.5431 37.4573 39.7758Z" fill="#BE2F55"/>
<path opacity="0.5" d="M34.9914 51.8318L35.6644 49.0326C35.6644 49.0326 24.208 45.8729 21.8426 45.2681C19.4772 44.6632 16.8431 48.0041 16.8431 48.0041L20.8812 49.2668L21.2381 48.931L34.9914 51.8318Z" fill="#BE2F55"/>
<path opacity="0.5" d="M29.7599 35.1831C33.4913 37.1841 25.4049 43.8369 21.2834 43.3966C17.1625 42.9564 12.796 31.3553 12.4739 29.6105C12.152 27.8643 24.7179 32.4784 29.7599 35.1831Z" fill="white"/>
<path opacity="0.5" d="M32.0219 19.3179C33.3641 20.6677 35.7847 33.1571 35.2893 34.9539C34.7938 36.7513 23.1184 31.125 20.2434 26.1541C17.3685 21.1832 16.5833 9.44141 16.5833 9.44141C16.5833 9.44141 25.5317 12.7909 32.0219 19.3179Z" fill="white"/>
<path opacity="0.5" d="M29.9872 50.6393C34.6559 53.0456 33.0452 57.0242 32.7626 57.5747C32.48 58.1251 27.3076 56.0919 25.1405 53.7743C22.9734 51.4566 21.688 49.2147 21.688 49.2147C21.688 49.2147 28.5091 49.8784 29.9872 50.6393Z" fill="white"/>
<path opacity="0.5" d="M10.9999 32.1089C10.9973 30.9146 13.923 36.6777 13.9531 38.8189C13.9826 40.96 12.91 42.2867 12.91 42.2867C12.91 42.2867 11.008 35.8289 10.9999 32.1089Z" fill="white"/>
<path opacity="0.5" d="M13.6995 10.0275C14.5746 9.79862 13.4365 24.9048 13.4365 24.9048C13.4365 24.9048 12.5175 17.5433 13.6995 10.0275Z" fill="white"/>
<path d="M35.7448 36.9452C35.7448 36.9452 24.1635 29.8692 21.7523 26.8669C19.3403 23.8645 16.8877 14.0977 16.8877 14.0977C16.8877 14.0977 19.0528 25.3072 21.5468 28.0874C24.0415 30.8678 35.7448 36.9452 35.7448 36.9452Z" fill="#FFD134"/>
<path d="M35.2888 49.2548C35.2888 49.2548 24.8621 45.7582 21.2247 43.7612C17.5873 41.7643 13.5371 33.3945 13.5371 33.3945C13.5371 33.3945 17.1584 42.3482 20.2919 44.5516C23.4254 46.755 35.2888 49.2548 35.2888 49.2548Z" fill="#FFAB34"/>
<path d="M34.0364 57.6396C34.0364 57.6396 30.3365 56.5057 27.2216 54.7847C24.1068 53.0637 22.729 50.9883 22.729 50.9883C22.729 50.9883 26.7317 57.0266 33.8406 58.4402L34.0358 57.6395L34.0364 57.6396Z" fill="#FFAB34"/>
<path d="M23.7729 29.0857C25.3952 29.5718 25.6037 25.4414 22.6618 23.6871C19.7205 21.933 19.876 27.917 23.7729 29.0857Z" fill="#FFF9C7"/>
<path d="M50.2449 29.0293C49.3253 33.1432 54.5675 30.7063 55.6987 27.6327C56.8871 24.4052 51.1993 24.7618 50.2449 29.0293Z" fill="#FFF9C7"/>
<path d="M69.3852 99.8785C69.3216 99.8972 69.2141 99.8542 69.0562 99.7793C69.0467 99.7773 69.0398 99.7651 69.031 99.7633C67.3477 98.9056 59.1695 92.6058 59.1695 92.6058L61.0029 85.1589C62.8812 85.5446 72.9312 85.4757 72.9312 85.4757L72.658 86.7845C72.6575 86.8269 72.645 86.8776 72.6255 86.9168C71.8811 90.538 69.9216 99.733 69.3852 99.8785Z" fill="url(#paint9_linear_1234_106055)"/>
<path opacity="0.5" d="M69.0646 99.7482C67.376 98.8887 59.3329 92.6089 59.3329 92.6089L61.0107 85.1133L62.8856 85.4978C62.8856 85.4978 63.562 95.3818 69.0646 99.7482Z" fill="#BE2F55"/>
<path opacity="0.5" d="M63.8975 90.5943C63.0177 85.866 69.7486 87.2489 70.262 90.1715C70.7754 93.0942 68.6186 99.3134 68.6186 99.3134C68.6186 99.3134 64.7617 95.2383 63.8975 90.5943Z" fill="white"/>
<path opacity="0.5" d="M63.439 88.625C63.439 88.625 62.6401 92.7945 63.1733 94.6538C63.7066 96.5131 68.3505 99.2407 68.3505 99.2407C68.3505 99.2407 64.4491 94.9037 63.439 88.625Z" fill="#BE2F55"/>
<path opacity="0.78" d="M72.8169 85.9683C68.0779 86.7302 62.5247 85.7112 62.5247 85.7112C64.4657 86.1193 72.9207 85.643 72.9207 85.643L72.8169 85.9683Z" fill="#BE2F55"/>
<path d="M63.2217 87.5469C63.2217 87.5469 65.7084 95.6058 68.6204 99.3102C68.6204 99.3102 63.6524 94.1146 63.2217 87.5469Z" fill="#FFAB34"/>
<path d="M60.5068 84.8252L58.6751 92.2682C58.6751 92.2682 48.6199 94.8206 46.6981 94.9376C46.6887 94.9357 46.6767 94.944 46.6678 94.9422C46.4895 94.948 46.3728 94.9456 46.3242 94.9033C45.9079 94.5622 48.4445 85.4909 49.4684 81.9283C49.4689 81.8859 49.4813 81.8352 49.5009 81.796L49.8671 80.5071C49.8671 80.5071 58.6299 84.4396 60.5068 84.8252Z" fill="url(#paint10_linear_1234_106055)"/>
<path opacity="0.5" d="M46.726 94.9409C48.6548 94.8235 58.9057 92.2978 58.9057 92.2978L60.5827 84.8042L58.992 84.4778C58.992 84.4778 53.7456 93.1441 46.726 94.9409Z" fill="#BE2F55"/>
<path opacity="0.5" d="M55.7211 88.6383C58.7245 84.7104 51.9953 83.3191 50.1663 85.7589C48.3373 88.1987 47.3819 94.6654 47.3819 94.6654C47.3819 94.6654 52.771 92.496 55.7211 88.6383Z" fill="white"/>
<path opacity="0.5" d="M57.1053 87.0653C57.1053 87.0653 55.874 91.1459 54.521 92.6176C53.168 94.0893 47.6931 94.7378 47.6931 94.7378C47.6931 94.7378 53.2503 92.3443 57.1053 87.0653Z" fill="#BE2F55"/>
<path opacity="0.78" d="M58.833 84.7342C58.833 84.7342 53.2667 83.6272 49.325 81.0406L49.0496 82.0123L49.0931 81.8746L49.4723 80.5122C49.4723 80.5122 56.8919 84.3261 58.833 84.7342Z" fill="#BE2F55"/>
<path d="M57.7795 86.1691C57.7795 86.1691 51.7569 92.4793 47.3898 94.688C47.3898 94.688 54.313 91.9358 57.7795 86.1691Z" fill="#FFAB34"/>
</g>
<defs>
<filter id="filter0_d_1234_106055" x="0" y="0" width="145.53" height="114.883" filterUnits="userSpaceOnUse" color-interpolation-filters="sRGB">
<feFlood flood-opacity="0" result="BackgroundImageFix"/>
<feColorMatrix in="SourceAlpha" type="matrix" values="0 0 0 0 0 0 0 0 0 0 0 0 0 0 0 0 0 0 127 0" result="hardAlpha"/>
<feOffset dy="4"/>
<feGaussianBlur stdDeviation="5.5"/>
<feComposite in2="hardAlpha" operator="out"/>
<feColorMatrix type="matrix" values="0 0 0 0 0 0 0 0 0 0 0 0 0 0 0 0 0 0 0.2 0"/>
<feBlend mode="normal" in2="BackgroundImageFix" result="effect1_dropShadow_1234_106055"/>
<feBlend mode="normal" in="SourceGraphic" in2="effect1_dropShadow_1234_106055" result="shape"/>
</filter>
<linearGradient id="paint0_linear_1234_106055" x1="59.1118" y1="89.131" x2="75.6464" y2="13.2614" gradientUnits="userSpaceOnUse">
<stop stop-color="#CC4300"/>
<stop offset="0.0656" stop-color="#C94100"/>
<stop offset="0.1093" stop-color="#C03B00"/>
<stop offset="0.1465" stop-color="#B13100"/>
<stop offset="0.1799" stop-color="#9C2200"/>
<stop offset="0.1983" stop-color="#8D1800"/>
<stop offset="0.2911" stop-color="#921D00"/>
<stop offset="0.3987" stop-color="#A02A00"/>
<stop offset="0.5139" stop-color="#B74100"/>
<stop offset="0.6333" stop-color="#D76100"/>
<stop offset="0.7514" stop-color="#FF8700"/>
<stop offset="1" stop-color="#FFF200"/>
</linearGradient>
<linearGradient id="paint1_linear_1234_106055" x1="60.2927" y1="84.0491" x2="74.6042" y2="18.3805" gradientUnits="userSpaceOnUse">
<stop stop-color="#D95C00"/>
<stop offset="0.1369" stop-color="#C74E00"/>
<stop offset="0.2534" stop-color="#D96500"/>
<stop offset="0.4034" stop-color="#E97C00"/>
<stop offset="0.5665" stop-color="#F68C00"/>
<stop offset="0.7506" stop-color="#FD9500"/>
<stop offset="1" stop-color="#FF9800"/>
</linearGradient>
<linearGradient id="paint2_linear_1234_106055" x1="73.396" y1="25.7231" x2="75.4158" y2="13.0281" gradientUnits="userSpaceOnUse">
<stop stop-color="#D95C00"/>
<stop offset="0.4034" stop-color="#E97C00"/>
<stop offset="0.5665" stop-color="#F68C00"/>
<stop offset="0.7506" stop-color="#FD9500"/>
<stop offset="1" stop-color="#FF9800"/>
</linearGradient>
<linearGradient id="paint3_linear_1234_106055" x1="113.559" y1="58.3716" x2="119.38" y2="30.147" gradientUnits="userSpaceOnUse">
<stop stop-color="#B93E00"/>
<stop offset="1" stop-color="#FFA900"/>
</linearGradient>
<linearGradient id="paint4_linear_1234_106055" x1="110.621" y1="69.6197" x2="114.552" y2="50.5636" gradientUnits="userSpaceOnUse">
<stop stop-color="#B93E00"/>
<stop offset="1" stop-color="#FFA900"/>
</linearGradient>
<linearGradient id="paint5_linear_1234_106055" x1="101.056" y1="77.6863" x2="103.303" y2="66.7893" gradientUnits="userSpaceOnUse">
<stop stop-color="#B93E00"/>
<stop offset="1" stop-color="#FFA900"/>
</linearGradient>
<linearGradient id="paint6_linear_1234_106055" x1="22.3076" y1="37.885" x2="28.1266" y2="9.65542" gradientUnits="userSpaceOnUse">
<stop stop-color="#B93E00"/>
<stop offset="1" stop-color="#FFA900"/>
</linearGradient>
<linearGradient id="paint7_linear_1234_106055" x1="20.5697" y1="49.4028" x2="24.4993" y2="30.3425" gradientUnits="userSpaceOnUse">
<stop stop-color="#B93E00"/>
<stop offset="1" stop-color="#FFA900"/>
</linearGradient>
<linearGradient id="paint8_linear_1234_106055" x1="26.1303" y1="60.8631" x2="28.3764" y2="49.9638" gradientUnits="userSpaceOnUse">
<stop stop-color="#B93E00"/>
<stop offset="1" stop-color="#FFA900"/>
</linearGradient>
<linearGradient id="paint9_linear_1234_106055" x1="63.7988" y1="98.7469" x2="66.7834" y2="84.2128" gradientUnits="userSpaceOnUse">
<stop stop-color="#B93E00"/>
<stop offset="1" stop-color="#FFA900"/>
</linearGradient>
<linearGradient id="paint10_linear_1234_106055" x1="51.7587" y1="96.0352" x2="54.7429" y2="81.509" gradientUnits="userSpaceOnUse">
<stop stop-color="#B93E00"/>
<stop offset="1" stop-color="#FFA900"/>
</linearGradient>
</defs>
</svg>
