<svg width="24" height="24" viewBox="0 0 24 24" fill="none" xmlns="http://www.w3.org/2000/svg">
<path d="M17.25 9.04053C17.25 9.23944 17.171 9.43021 17.0303 9.57086C16.8897 9.71151 16.6989 9.79053 16.5 9.79053C16.3011 9.79053 16.1103 9.71151 15.9697 9.57086C15.829 9.43021 15.75 9.23944 15.75 9.04053C15.75 8.84162 15.829 8.65085 15.9697 8.5102C16.1103 8.36955 16.3011 8.29053 16.5 8.29053C16.6989 8.29053 16.8897 8.36955 17.0303 8.5102C17.171 8.65085 17.25 8.84162 17.25 9.04053ZM15 11.2905C15.1989 11.2905 15.3897 11.2115 15.5303 11.0709C15.671 10.9302 15.75 10.7394 15.75 10.5405C15.75 10.3416 15.671 10.1508 15.5303 10.0102C15.3897 9.86955 15.1989 9.79053 15 9.79053C14.8011 9.79053 14.6103 9.86955 14.4697 10.0102C14.329 10.1508 14.25 10.3416 14.25 10.5405C14.25 10.7394 14.329 10.9302 14.4697 11.0709C14.6103 11.2115 14.8011 11.2905 15 11.2905ZM18.75 10.5405C18.75 10.7394 18.671 10.9302 18.5303 11.0709C18.3897 11.2115 18.1989 11.2905 18 11.2905C17.8011 11.2905 17.6103 11.2115 17.4697 11.0709C17.329 10.9302 17.25 10.7394 17.25 10.5405C17.25 10.3416 17.329 10.1508 17.4697 10.0102C17.6103 9.86955 17.8011 9.79053 18 9.79053C18.1989 9.79053 18.3897 9.86955 18.5303 10.0102C18.671 10.1508 18.75 10.3416 18.75 10.5405ZM16.5 12.7905C16.6989 12.7905 16.8897 12.7115 17.0303 12.5709C17.171 12.4302 17.25 12.2394 17.25 12.0405C17.25 11.8416 17.171 11.6509 17.0303 11.5102C16.8897 11.3695 16.6989 11.2905 16.5 11.2905C16.3011 11.2905 16.1103 11.3695 15.9697 11.5102C15.829 11.6509 15.75 11.8416 15.75 12.0405C15.75 12.2394 15.829 12.4302 15.9697 12.5709C16.1103 12.7115 16.3011 12.7905 16.5 12.7905ZM6.75 8.29053H8.25V9.79053H9.75V11.2905H8.25V12.7905H6.75V11.2905H5.25V9.79053H6.75V8.29053Z" fill="currentColor"/>
<path d="M4.5764 4.88991C4.55078 4.79466 4.54419 4.6953 4.55702 4.59751C4.56985 4.49972 4.60185 4.40542 4.65117 4.32001C4.70049 4.2346 4.76618 4.15976 4.84446 4.09977C4.92275 4.03978 5.0121 3.99582 5.1074 3.97041L8.0054 3.19341C8.10502 3.16686 8.20906 3.16113 8.31099 3.17659C8.41293 3.19206 8.51059 3.22837 8.59786 3.28327C8.68514 3.33817 8.76015 3.41047 8.81823 3.49566C8.8763 3.58085 8.91619 3.67711 8.9354 3.77841C9.9179 3.65991 10.9604 3.60291 11.9999 3.60291C13.0799 3.60291 14.1644 3.66441 15.1799 3.79191C15.1974 3.68907 15.2362 3.59102 15.2938 3.50403C15.3514 3.41704 15.4265 3.34302 15.5143 3.28669C15.6021 3.23036 15.7007 3.19297 15.8037 3.17691C15.9068 3.16085 16.0121 3.16647 16.1129 3.19341L19.0109 3.97041C19.1215 4.00001 19.2238 4.05453 19.3101 4.12979C19.3963 4.20506 19.4642 4.29907 19.5085 4.40462C19.5528 4.51017 19.5724 4.62446 19.5657 4.73874C19.559 4.85302 19.5262 4.96425 19.4699 5.06391C19.6799 5.19891 19.8689 5.34891 20.0294 5.50941C20.6414 6.12141 21.1994 7.08441 21.6719 8.16741C22.1519 9.26691 22.5704 10.5539 22.8794 11.8664C23.1884 13.1789 23.3894 14.5364 23.4254 15.7754C23.4614 16.9994 23.3369 18.1784 22.9334 19.0904C22.7494 19.4999 22.4407 19.8407 22.0515 20.0643C21.6622 20.2879 21.2123 20.3828 20.7659 20.3354C19.8119 20.2349 19.0934 19.7444 18.4964 19.1759C18.1289 18.8279 17.7524 18.3869 17.3879 17.9639C17.1989 17.7419 17.0129 17.5259 16.8359 17.3294C15.7439 16.1234 14.4404 15.0389 11.9999 15.0389C9.5594 15.0389 8.2559 16.1234 7.1639 17.3294C6.9854 17.5259 6.8009 17.7419 6.6119 17.9639C6.2474 18.3869 5.8709 18.8264 5.5034 19.1759C4.9064 19.7459 4.1879 20.2349 3.2339 20.3354C2.78751 20.3828 2.33757 20.2879 1.94832 20.0643C1.55907 19.8407 1.2504 19.4999 1.0664 19.0904C0.661397 18.1784 0.538397 16.9979 0.572897 15.7754C0.608897 14.5364 0.812897 13.1804 1.1204 11.8664C1.4294 10.5539 1.8494 9.26691 2.3279 8.16741C2.8004 7.08441 3.3584 6.12141 3.9689 5.50941C4.16499 5.31707 4.38298 5.14842 4.6184 5.00691C4.60113 4.96864 4.58708 4.9305 4.5764 4.88991ZM7.6304 5.50791C6.3149 5.78541 5.4269 6.17241 5.0309 6.56991C4.6169 6.98391 4.1504 7.74441 3.7034 8.76741C3.22919 9.87979 2.85374 11.0317 2.5814 12.2099C2.29369 13.3933 2.12337 14.6021 2.0729 15.8189C2.0399 16.9514 2.1659 17.8709 2.4374 18.4829C2.493 18.6021 2.58451 18.7009 2.69911 18.7655C2.81371 18.83 2.94564 18.8571 3.0764 18.8429C3.5669 18.7919 3.9914 18.5444 4.4699 18.0899C4.7879 17.7869 5.0699 17.4554 5.3924 17.0789C5.5919 16.8449 5.8064 16.5944 6.0524 16.3229C7.2914 14.9534 8.9669 13.5404 11.9999 13.5404C15.0329 13.5404 16.7084 14.9534 17.9474 16.3229C18.1934 16.5944 18.4079 16.8449 18.6074 17.0789C18.9284 17.4554 19.2119 17.7869 19.5299 18.0899C20.0069 18.5444 20.4314 18.7919 20.9234 18.8444C21.0543 18.8585 21.1864 18.8312 21.301 18.7664C21.4156 18.7015 21.507 18.6024 21.5624 18.4829C21.8324 17.8709 21.9599 16.9529 21.9269 15.8189C21.8764 14.6021 21.7061 13.3933 21.4184 12.2099C21.146 11.0317 20.7706 9.8798 20.2964 8.76741C19.8494 7.74441 19.3814 6.98241 18.9689 6.56991C18.5729 6.17241 17.6849 5.78541 16.3694 5.50791C15.0944 5.23941 13.5539 5.10291 11.9999 5.10291C10.4459 5.10291 8.9054 5.23941 7.6304 5.50791Z" fill="currentColor"/>
</svg>
