<svg width="40" height="40" viewBox="0 0 40 40" fill="none" xmlns="http://www.w3.org/2000/svg">
<path d="M9.75 38.3333C8.43056 38.3333 7.30903 37.8715 6.38542 36.9479C5.46181 36.0243 5 34.9028 5 33.5833C5 32.2639 5.46181 31.1424 6.38542 30.2187C7.30903 29.2951 8.43056 28.8333 9.75 28.8333C10.1389 28.8333 10.4792 28.8681 10.7708 28.9375C11.0625 29.0069 11.3611 29.1111 11.6667 29.25L15.2083 24.8333C14.6806 24.1944 14.2778 23.4653 14 22.6458C13.7222 21.8264 13.6528 20.9722 13.7917 20.0833L8.75 18.375C8.33333 19.0694 7.78472 19.6111 7.10417 20C6.42361 20.3889 5.63889 20.5833 4.75 20.5833C3.43056 20.5833 2.30903 20.1215 1.38542 19.1979C0.461806 18.2743 0 17.1528 0 15.8333C0 14.5139 0.461806 13.3924 1.38542 12.4687C2.30903 11.5451 3.43056 11.0833 4.75 11.0833C6.06944 11.0833 7.19097 11.5451 8.11458 12.4687C9.03819 13.3924 9.5 14.5139 9.5 15.8333V16L14.5833 17.75C15.0833 16.8611 15.6875 16.1806 16.3958 15.7083C17.1042 15.2361 17.8889 14.9028 18.75 14.7083V9.33333C17.6667 9.02778 16.8125 8.43056 16.1875 7.54167C15.5625 6.65278 15.25 5.72222 15.25 4.75C15.25 3.43056 15.7118 2.30903 16.6354 1.38542C17.559 0.461806 18.6806 0 20 0C21.3194 0 22.441 0.461806 23.3646 1.38542C24.2882 2.30903 24.75 3.43056 24.75 4.75C24.75 5.72222 24.4306 6.65278 23.7917 7.54167C23.1528 8.43056 22.3056 9.02778 21.25 9.33333V14.7083C22.1111 14.9028 22.9028 15.2361 23.625 15.7083C24.3472 16.1806 24.9583 16.8611 25.4583 17.75L30.5 16V15.8333C30.5 14.5139 30.9618 13.3924 31.8854 12.4687C32.809 11.5451 33.9306 11.0833 35.25 11.0833C36.5694 11.0833 37.691 11.5451 38.6146 12.4687C39.5382 13.3924 40 14.5139 40 15.8333C40 17.1528 39.5382 18.2743 38.6146 19.1979C37.691 20.1215 36.5694 20.5833 35.25 20.5833C34.3611 20.5833 33.5694 20.3889 32.875 20C32.1806 19.6111 31.6389 19.0694 31.25 18.375L26.2083 20.0833C26.3472 20.9722 26.2847 21.8264 26.0208 22.6458C25.7569 23.4653 25.3472 24.1944 24.7917 24.8333L28.3333 29.25C28.6389 29.1111 28.9375 29.0069 29.2292 28.9375C29.5208 28.8681 29.855 28.8333 30.2318 28.8333C31.5773 28.8333 32.7083 29.2951 33.625 30.2187C34.5417 31.1424 35 32.2639 35 33.5833C35 34.9028 34.5382 36.0243 33.6146 36.9479C32.691 37.8715 31.5694 38.3333 30.25 38.3333C28.9306 38.3333 27.809 37.8715 26.8854 36.9479C25.9618 36.0243 25.5 34.9028 25.5 33.5833C25.5 33.0278 25.5764 32.5278 25.7292 32.0833C25.8819 31.6389 26.0972 31.2083 26.375 30.7917L22.8333 26.375C21.9409 26.8472 20.9887 27.0833 19.9765 27.0833C18.9644 27.0833 18.0139 26.8472 17.125 26.375L13.625 30.8333C13.9028 31.25 14.1181 31.6736 14.2708 32.1042C14.4236 32.5347 14.5 33.0278 14.5 33.5833C14.5 34.9028 14.0382 36.0243 13.1146 36.9479C12.191 37.8715 11.0694 38.3333 9.75 38.3333ZM4.75146 18.0833C5.38938 18.0833 5.92361 17.8676 6.35417 17.436C6.78472 17.0045 7 16.4698 7 15.8319C7 15.194 6.78424 14.6597 6.35271 14.2292C5.92118 13.7986 5.38646 13.5833 4.74854 13.5833C4.11062 13.5833 3.57639 13.7991 3.14583 14.2306C2.71528 14.6622 2.5 15.1969 2.5 15.8348C2.5 16.4727 2.71576 17.0069 3.14729 17.4375C3.57882 17.8681 4.11354 18.0833 4.75146 18.0833ZM9.75146 35.8333C10.3894 35.8333 10.9236 35.6176 11.3542 35.186C11.7847 34.7545 12 34.2198 12 33.5819C12 32.944 11.7842 32.4097 11.3527 31.9792C10.9212 31.5486 10.3865 31.3333 9.74854 31.3333C9.11063 31.3333 8.57639 31.5491 8.14583 31.9806C7.71528 32.4122 7.5 32.9469 7.5 33.5848C7.5 34.2227 7.71576 34.7569 8.14729 35.1875C8.57882 35.6181 9.11354 35.8333 9.75146 35.8333ZM20.0015 7C20.6394 7 21.1736 6.78424 21.6042 6.35271C22.0347 5.92118 22.25 5.38646 22.25 4.74854C22.25 4.11063 22.0342 3.57639 21.6027 3.14583C21.1712 2.71528 20.6365 2.5 19.9985 2.5C19.3606 2.5 18.8264 2.71576 18.3958 3.14729C17.9653 3.57882 17.75 4.11354 17.75 4.75146C17.75 5.38937 17.9658 5.92361 18.3973 6.35417C18.8288 6.78472 19.3635 7 20.0015 7ZM20.0208 24.5833C21.0625 24.5833 21.9444 24.2153 22.6667 23.4792C23.3889 22.7431 23.75 21.8542 23.75 20.8125C23.75 19.7708 23.3875 18.8889 22.6625 18.1667C21.9375 17.4444 21.05 17.0833 20 17.0833C18.9722 17.0833 18.0903 17.4458 17.3542 18.1708C16.6181 18.8958 16.25 19.7833 16.25 20.8333C16.25 21.8611 16.6181 22.7431 17.3542 23.4792C18.0903 24.2153 18.9792 24.5833 20.0208 24.5833ZM30.2515 35.8333C30.8894 35.8333 31.4236 35.6176 31.8542 35.186C32.2847 34.7545 32.5 34.2198 32.5 33.5819C32.5 32.944 32.2842 32.4097 31.8527 31.9792C31.4212 31.5486 30.8865 31.3333 30.2485 31.3333C29.6106 31.3333 29.0764 31.5491 28.6458 31.9806C28.2153 32.4122 28 32.9469 28 33.5848C28 34.2227 28.2158 34.7569 28.6473 35.1875C29.0788 35.6181 29.6135 35.8333 30.2515 35.8333ZM35.2515 18.0833C35.8894 18.0833 36.4236 17.8676 36.8542 17.436C37.2847 17.0045 37.5 16.4698 37.5 15.8319C37.5 15.194 37.2842 14.6597 36.8527 14.2292C36.4212 13.7986 35.8865 13.5833 35.2485 13.5833C34.6106 13.5833 34.0764 13.7991 33.6458 14.2306C33.2153 14.6622 33 15.1969 33 15.8348C33 16.4727 33.2158 17.0069 33.6473 17.4375C34.0788 17.8681 34.6135 18.0833 35.2515 18.0833Z" fill="#A7A4FF"/>
</svg>
