<svg width="40" height="40" viewBox="0 0 40 40" fill="none" xmlns="http://www.w3.org/2000/svg">
<path d="M4.57999 33.75C3.77688 33.75 3.0906 33.464 2.52116 32.8921C1.95171 32.3202 1.66699 31.6327 1.66699 30.8296C1.66699 30.0265 1.95163 29.3403 2.52091 28.7708C3.09019 28.2014 3.77453 27.9167 4.57395 27.9167C4.71931 27.9167 4.86144 27.9236 5.00033 27.9375C5.13921 27.9514 5.31977 27.9861 5.54199 28.0417L13.8753 19.7083C13.8198 19.4861 13.785 19.3056 13.7712 19.1667C13.7573 19.0278 13.7503 18.8857 13.7503 18.7403C13.7503 17.9409 14.0363 17.2565 14.6082 16.6873C15.1801 16.118 15.8676 15.8333 16.6707 15.8333C17.4738 15.8333 18.16 16.1199 18.7295 16.6931C19.2989 17.2662 19.5837 17.9553 19.5837 18.7602C19.5837 18.8089 19.542 19.125 19.4587 19.7083L24.042 24.2917C24.2642 24.2361 24.4448 24.2014 24.5837 24.1875C24.7225 24.1736 24.8614 24.1667 25.0003 24.1667C25.1392 24.1667 25.2781 24.1736 25.417 24.1875C25.5559 24.2014 25.7364 24.2361 25.9587 24.2917L32.6253 17.625C32.5698 17.4028 32.535 17.2222 32.5212 17.0833C32.5073 16.9444 32.5003 16.8023 32.5003 16.657C32.5003 15.8575 32.7863 15.1732 33.3582 14.6039C33.9301 14.0346 34.6176 13.75 35.4207 13.75C36.2238 13.75 36.91 14.036 37.4795 14.6079C38.0489 15.1798 38.3337 15.8673 38.3337 16.6704C38.3337 17.4735 38.049 18.1597 37.4797 18.7292C36.9105 19.2986 36.2261 19.5833 35.4267 19.5833C35.2813 19.5833 35.1392 19.5764 35.0003 19.5625C34.8614 19.5486 34.6809 19.5139 34.4587 19.4583L27.792 26.125C27.8475 26.3472 27.8823 26.5278 27.8962 26.6667C27.91 26.8056 27.917 26.9477 27.917 27.093C27.917 27.8925 27.631 28.5768 27.0591 29.1461C26.4872 29.7154 25.7997 30 24.9966 30C24.1935 30 23.5073 29.7154 22.9378 29.1461C22.3684 28.5768 22.0837 27.8925 22.0837 27.093C22.0837 26.9477 22.0906 26.8056 22.1045 26.6667C22.1184 26.5278 22.1531 26.3472 22.2087 26.125L17.6253 21.5417C17.4031 21.5972 17.2225 21.6319 17.0837 21.6458C16.9448 21.6597 16.8024 21.6667 16.6566 21.6667C16.608 21.6667 16.292 21.625 15.7087 21.5417L7.37533 29.875C7.43088 30.0972 7.4656 30.2778 7.47949 30.4167C7.49338 30.5556 7.50033 30.6977 7.50033 30.843C7.50033 31.6425 7.21437 32.3268 6.64245 32.8961C6.07056 33.4654 5.38308 33.75 4.57999 33.75ZM6.66699 15.3333L5.82312 13.5105L4.00033 12.6667L5.82312 11.8228L6.66699 10L7.51087 11.8228L9.33366 12.6667L7.51087 13.5105L6.66699 15.3333ZM25.0003 13.2083L23.7204 10.4465L20.9587 9.16667L23.7204 7.88679L25.0003 5.125L26.2802 7.88679L29.042 9.16667L26.2802 10.4465L25.0003 13.2083Z" fill="#A7A4FF"/>
</svg>
