<svg width="24" height="24" viewBox="0 0 24 24" fill="none" xmlns="http://www.w3.org/2000/svg">
<g clip-path="url(#clip0_55_64833)">
<path d="M6.2 20.7502C5.44422 20.7764 4.70897 20.5015 4.15581 19.9858C3.60265 19.4701 3.27685 18.756 3.25 18.0002L3.25 6.00021C3.27711 5.24455 3.60299 4.53053 4.15609 4.01493C4.70919 3.49933 5.44429 3.22429 6.2 3.25021H15C15.1989 3.25021 15.3897 3.32923 15.5303 3.46988C15.671 3.61054 15.75 3.8013 15.75 4.00021C15.75 4.19913 15.671 4.38989 15.5303 4.53054C15.3897 4.6712 15.1989 4.75021 15 4.75021H6.2C5.84247 4.72591 5.48976 4.8435 5.21834 5.07749C4.94691 5.31147 4.77864 5.643 4.75 6.00021V18.0002C4.7789 18.3573 4.94724 18.6887 5.2186 18.9226C5.48997 19.1566 5.84253 19.2743 6.2 19.2502H15C15.1989 19.2502 15.3897 19.3292 15.5303 19.4699C15.671 19.6105 15.75 19.8013 15.75 20.0002C15.75 20.1991 15.671 20.3899 15.5303 20.5305C15.3897 20.6712 15.1989 20.7502 15 20.7502H6.2ZM15.469 16.5312C15.3285 16.3904 15.2496 16.1996 15.2496 16.0007C15.2496 15.8018 15.3285 15.611 15.469 15.4702L18.189 12.7502H9C8.80109 12.7502 8.61032 12.6712 8.46967 12.5305C8.32902 12.3899 8.25 12.1991 8.25 12.0002C8.25 11.8013 8.32902 11.6105 8.46967 11.4699C8.61032 11.3292 8.80109 11.2502 9 11.2502H18.19L15.469 8.53021C15.3974 8.461 15.3403 8.37821 15.301 8.28669C15.2618 8.19517 15.2411 8.09674 15.2403 7.99716C15.2395 7.89757 15.2585 7.79882 15.2963 7.70667C15.334 7.61452 15.3898 7.5308 15.4602 7.46042C15.5307 7.39003 15.6144 7.33438 15.7066 7.29671C15.7988 7.25905 15.8976 7.24012 15.9972 7.24103C16.0967 7.24194 16.1951 7.26268 16.2866 7.30203C16.3781 7.34137 16.4608 7.39855 16.53 7.47021L20.53 11.4702C20.5997 11.5398 20.6549 11.6224 20.6926 11.7133C20.7303 11.8043 20.7498 11.9018 20.7498 12.0002C20.7498 12.0987 20.7303 12.1961 20.6926 12.2871C20.6549 12.378 20.5997 12.4606 20.53 12.5302L16.53 16.5302C16.3892 16.6707 16.1984 16.7496 15.9995 16.7496C15.8006 16.7496 15.6098 16.6707 15.469 16.5302V16.5312Z" fill="currentColor"/>
</g>
<defs>
<clipPath id="clip0_55_64833">
<rect width="24" height="24" fill="white"/>
</clipPath>
</defs>
</svg>
