<svg width="19" height="19" viewBox="0 0 19 19" fill="none" xmlns="http://www.w3.org/2000/svg">
<g clip-path="url(#clip0_5241_105196)">
<path d="M18.7998 9.80078C18.7998 4.83022 14.7704 0.800781 9.7998 0.800781C4.82924 0.800781 0.799805 4.83022 0.799805 9.80078C0.799805 14.7713 4.82924 18.8008 9.7998 18.8008C14.7704 18.8008 18.7998 14.7713 18.7998 9.80078Z" fill="#E8EEFF"/>
<path d="M9.80173 6.51452L12.6617 8.14752V11.4265L9.80973 13.0705L6.94473 11.4405V8.16052L9.80173 6.51452ZM9.80173 4.10352L8.75273 4.70852L5.89373 6.35552L4.84473 6.96052V12.6485L5.89373 13.2485L8.75373 14.8815L9.80273 15.4815L10.8517 14.8765L13.7047 13.2295L14.7537 12.6295V6.93652L13.7047 6.33652L10.8447 4.70352L9.79573 4.10352H9.80173Z" fill="#375BD2"/>
</g>
<defs>
<clipPath id="clip0_5241_105196">
<rect width="18" height="18" fill="white" transform="translate(0.799805 0.800781)"/>
</clipPath>
</defs>
</svg>
