<svg width="24" height="24" viewBox="0 0 24 24" fill="none" xmlns="http://www.w3.org/2000/svg">
<g clip-path="url(#clip0_1535_3843)">
<path d="M9.25002 19.2498V18.7498H5.50002C4.90353 18.749 4.33169 18.5117 3.90991 18.0899C3.48812 17.6681 3.25082 17.0963 3.25002 16.4998V16.1178C3.24806 15.6421 3.37964 15.1754 3.62978 14.7707C3.87993 14.3661 4.2386 14.0397 4.66502 13.8288C4.85571 13.7334 5.01878 13.5908 5.1387 13.4145C5.25861 13.2383 5.33137 13.0342 5.35002 12.8218L5.79602 7.9118C5.9352 6.36356 6.64861 4.92341 7.79595 3.87458C8.94329 2.82575 10.4415 2.24414 11.996 2.24414C13.5505 2.24414 15.0488 2.82575 16.1961 3.87458C17.3434 4.92341 18.0568 6.36356 18.196 7.9118L18.642 12.8218C18.6622 13.0336 18.7357 13.2369 18.8557 13.4126C18.9756 13.5883 19.1381 13.7308 19.328 13.8268C19.7548 14.0378 20.1139 14.3643 20.3645 14.769C20.6151 15.1738 20.7473 15.6407 20.746 16.1168V16.4988C20.7455 17.0954 20.5083 17.6674 20.0864 18.0892C19.6646 18.5111 19.0926 18.7483 18.496 18.7488H14.75V19.2498C14.75 19.9791 14.4603 20.6786 13.9446 21.1943C13.4288 21.7101 12.7294 21.9998 12 21.9998C11.2707 21.9998 10.5712 21.7101 10.0555 21.1943C9.53975 20.6786 9.25002 19.9791 9.25002 19.2498ZM10.75 19.2498C10.75 19.5813 10.8817 19.8993 11.1161 20.1337C11.3506 20.3681 11.6685 20.4998 12 20.4998C12.3315 20.4998 12.6495 20.3681 12.8839 20.1337C13.1183 19.8993 13.25 19.5813 13.25 19.2498V18.7498H10.75V19.2498ZM7.29502 8.0498L6.85002 12.9578C6.80874 13.4251 6.6481 13.8739 6.38351 14.2612C6.11893 14.6485 5.75927 14.9614 5.33902 15.1698C5.16187 15.257 5.01276 15.3922 4.90863 15.56C4.80451 15.7277 4.74955 15.9214 4.75002 16.1188V16.5008C4.75055 16.6995 4.82977 16.8898 4.97034 17.0302C5.1109 17.1706 5.30136 17.2495 5.50002 17.2498H18.5C18.6989 17.2495 18.8895 17.1704 19.0301 17.0298C19.1707 16.8892 19.2498 16.6986 19.25 16.4998V16.1178C19.2507 15.9208 19.1961 15.7276 19.0926 15.56C18.989 15.3925 18.8405 15.2573 18.664 15.1698C18.2433 14.9617 17.8831 14.649 17.6179 14.2617C17.3528 13.8743 17.1917 13.4253 17.15 12.9578L16.706 8.0498C16.599 6.87576 16.057 5.78412 15.1864 4.98923C14.3158 4.19434 13.1794 3.75363 12.0005 3.75363C10.8216 3.75363 9.68528 4.19434 8.81466 4.98923C7.94404 5.78412 7.40202 6.87576 7.29502 8.0498Z" fill="currentColor"/>
</g>
<defs>
<clipPath id="clip0_1535_3843">
<rect width="24" height="24" fill="white"/>
</clipPath>
</defs>
</svg>
