<svg width="18" height="18" viewBox="0 0 18 18" fill="none" xmlns="http://www.w3.org/2000/svg">
<path d="M3.123 6.94362C3.24503 7.05501 3.39262 7.13463 3.55273 7.17545C3.71284 7.21626 3.88053 7.21701 4.041 7.17762C4.19973 7.13955 4.3457 7.0605 4.46432 6.94838C4.58294 6.83625 4.67006 6.69496 4.717 6.53862C4.75985 6.38493 4.75986 6.22245 4.71703 6.06876C4.6742 5.91506 4.59016 5.776 4.474 5.66662L3.232 4.50662H14.594C14.9841 4.49709 15.3624 4.64067 15.648 4.90662C15.7842 5.03223 15.8941 5.18362 15.9713 5.35202C16.0486 5.52041 16.0916 5.70246 16.098 5.88762V8.10362C16.1116 8.34518 16.2172 8.57236 16.393 8.73855C16.5688 8.90475 16.8016 8.99734 17.0435 8.99734C17.2854 8.99734 17.5182 8.90475 17.694 8.73855C17.8698 8.57236 17.9754 8.34518 17.989 8.10362V5.88262C17.9829 5.45747 17.8903 5.03801 17.7168 4.64981C17.5433 4.26161 17.2926 3.91279 16.98 3.62462C16.3284 3.0245 15.4718 2.69672 14.586 2.70862H3.232L4.467 1.54662C4.55487 1.46509 4.62497 1.3663 4.6729 1.25644C4.72084 1.14657 4.74558 1.02799 4.74558 0.908123C4.74558 0.788254 4.72084 0.669674 4.6729 0.559807C4.62497 0.44994 4.55487 0.351152 4.467 0.269623C4.2847 0.0965157 4.0429 0 3.7915 0C3.5401 0 3.2983 0.0965157 3.116 0.269623L0.27 2.96962C0.099677 3.13856 0.00268625 3.36774 0 3.60762C1.8372e-06 3.72745 0.0247898 3.84599 0.0728035 3.95579C0.120817 4.06558 0.191018 4.16426 0.278999 4.24562L3.125 6.94562L3.123 6.94362Z" fill="currentColor"/>
<path d="M3.40184 15.2996H14.7658L13.5318 16.4586C13.4445 16.5405 13.3749 16.6394 13.3273 16.7492C13.2797 16.859 13.2551 16.9774 13.2551 17.0971C13.2551 17.2168 13.2797 17.3352 13.3273 17.4451C13.3749 17.5549 13.4445 17.6538 13.5318 17.7356C13.7143 17.9048 13.954 17.9988 14.2028 17.9988C14.4517 17.9988 14.6913 17.9048 14.8738 17.7356L17.7198 15.0356C17.8079 14.9541 17.8781 14.8552 17.9261 14.7452C17.9742 14.6353 17.999 14.5166 17.999 14.3966C17.999 14.2766 17.9742 14.1579 17.9261 14.048C17.8781 13.938 17.8079 13.8392 17.7198 13.7576L14.8718 11.0636C14.6897 10.8903 14.4478 10.7936 14.1963 10.7936C13.9449 10.7936 13.703 10.8903 13.5208 11.0636C13.4331 11.1451 13.3632 11.2439 13.3153 11.3536C13.2675 11.4634 13.2428 11.5819 13.2428 11.7016C13.2428 11.8213 13.2675 11.9398 13.3153 12.0496C13.3632 12.1594 13.4331 12.2581 13.5208 12.3396L14.7548 13.5006H3.40184C3.01171 13.5102 2.63334 13.3667 2.34784 13.1006C2.21129 12.9755 2.10113 12.8244 2.02385 12.6561C1.94657 12.4878 1.90373 12.3057 1.89784 12.1206V9.89862C1.88423 9.65707 1.77868 9.42986 1.60286 9.26367C1.42704 9.09748 1.19428 9.00488 0.952339 9.00488C0.710403 9.00488 0.47764 9.09748 0.301819 9.26367C0.125997 9.42986 0.0204477 9.65707 0.00683594 9.89862V12.1196C0.013076 12.5446 0.105751 12.9638 0.279217 13.3519C0.452682 13.7399 0.703312 14.0886 1.01584 14.3766C1.66404 14.9772 2.5183 15.3055 3.40184 15.2936V15.2996Z" fill="currentColor"/>
</svg>
