<svg width="24" height="24" viewBox="0 0 24 24" fill="none" xmlns="http://www.w3.org/2000/svg">
<path d="M15.3333 7.44444V5.22222C15.3333 4.63285 15.0992 4.06762 14.6825 3.65087C14.2657 3.23413 13.7005 3 13.1111 3H10.8889C10.2995 3 9.73429 3.23413 9.31754 3.65087C8.90079 4.06762 8.66667 4.63285 8.66667 5.22222V7.44444M15.3333 7.44444H19.7778C20.3671 7.44444 20.9324 7.67857 21.3491 8.09532C21.7659 8.51207 22 9.0773 22 9.66667V18.5556C22 19.1449 21.7659 19.7102 21.3491 20.1269C20.9324 20.5436 20.3671 20.7778 19.7778 20.7778H6.44444M15.3333 7.44444H8.66667M8.66667 7.44444H6.44444M6.44444 20.7778H4.22222C3.63285 20.7778 3.06762 20.5436 2.65087 20.1269C2.23413 19.7102 2 19.1449 2 18.5556V9.66667C2 9.0773 2.23413 8.51207 2.65087 8.09532C3.06762 7.67857 3.63285 7.44444 4.22222 7.44444H6.44444M6.44444 20.7778V7.44444M17.5556 7.44444V20.7778" stroke="currentColor" stroke-width="1.5" stroke-linecap="round" stroke-linejoin="round"/>
</svg>
