<svg width="22" height="16" viewBox="0 0 22 16" fill="none" xmlns="http://www.w3.org/2000/svg">
<path d="M14.9875 14.3967C15.4078 14.2264 15.8292 14.085 16.2206 13.8857C16.6126 13.6783 16.9897 13.444 17.3495 13.1842C17.7109 12.9257 18.0262 12.6073 18.2817 12.2428C16.1087 13.5872 13.6057 14.2957 11.0544 14.2883C8.5063 14.2678 6.01136 13.5541 3.83386 12.2227C4.20615 12.7473 4.68107 13.1894 5.22983 13.5221C5.78429 13.8718 6.38297 14.1447 7.00986 14.3336C6.99308 14.3678 6.97392 14.4008 6.95228 14.4322C6.57594 14.9053 6.19998 15.3783 5.81235 15.8477C5.79213 15.8702 5.76745 15.8885 5.74007 15.9013C5.7127 15.9141 5.68265 15.9212 5.65248 15.9222C4.69648 15.9138 3.75209 15.715 2.87279 15.3375C1.99349 14.9601 1.19668 14.4115 0.529231 13.723C0.367844 13.5476 0.218682 13.3611 0.0826923 13.1651C0.0292914 13.0871 0.000546029 12.9949 0 12.9002C0.0685465 9.19521 0.951529 5.55136 2.58551 2.23018C2.66208 2.06923 2.7793 1.93143 2.92547 1.83032C4.17429 0.927416 5.61399 0.327643 7.13175 0.0777633C7.37512 0.038647 7.62343 0.0360198 7.8668 0.00321261C8.05246 -0.0232855 8.10508 0.119167 8.2092 0.245348C6.49678 0.711014 4.88849 1.50069 3.47001 2.57213C5.7476 1.39358 8.27387 0.783853 10.8351 0.794312C13.3945 0.755597 15.9219 1.36992 18.1813 2.57983L18.2039 2.54687C17.9807 2.38788 17.7621 2.22384 17.5338 2.07369C17.3055 1.92353 17.0611 1.7747 16.819 1.63717C16.5769 1.49963 16.3171 1.36712 16.0662 1.24346C15.8153 1.11981 15.5646 1.00754 15.3024 0.900285C15.0402 0.793031 14.7842 0.69336 14.5232 0.597462C14.2623 0.501564 13.9986 0.417 13.7226 0.322363C13.8581 0.136876 13.9625 -0.0195001 14.2347 0.00321261C15.2613 0.0924166 16.2663 0.351108 17.2092 0.769051C17.89 1.06391 18.5345 1.43665 19.1307 1.87961C19.2323 1.95524 19.3162 2.05243 19.3757 2.16457C20.1607 3.74908 20.7769 5.41268 21.2146 7.12742C21.5662 8.45614 21.8025 9.8129 21.9208 11.1827C21.9685 11.7455 21.9823 12.3184 21.9998 12.8786C22 12.9869 21.9669 13.0929 21.9055 13.1817C21.2576 14.0642 20.3931 14.7624 19.3966 15.2082C18.4482 15.6404 17.4262 15.885 16.3859 15.9287C16.3346 15.9352 16.2826 15.9273 16.2353 15.9062C16.188 15.8851 16.1473 15.8512 16.1177 15.8086C15.7739 15.3732 15.4202 14.9444 15.0714 14.5116C15.0376 14.4725 15.0126 14.4346 14.9875 14.3967ZM9.38343 9.01645C9.37066 8.75754 9.30974 8.50333 9.20396 8.26694C9.09009 7.97552 8.90465 7.71781 8.66493 7.51804C8.42521 7.31828 8.13957 7.18269 7.83372 7.12434C7.52787 7.06599 7.21193 7.08681 6.91614 7.18441C6.62035 7.28201 6.35395 7.45331 6.1419 7.68255C5.76697 8.09958 5.56377 8.64434 5.57285 9.20653C5.58193 9.76871 5.8027 10.3065 6.1909 10.7111C6.35783 10.8859 6.55844 11.0249 6.78016 11.1199C7.00187 11.2149 7.2399 11.2641 7.4809 11.2641C7.7219 11.2641 7.96054 11.2149 8.18225 11.1199C8.40397 11.0249 8.60457 10.8859 8.77151 10.7111C8.98309 10.4868 9.14643 10.2209 9.25113 9.93016C9.35582 9.63943 9.39943 9.32996 9.37976 9.02138L9.38343 9.01645ZM12.4418 9.26875C12.453 9.67638 12.5843 10.0714 12.8185 10.4043C12.9786 10.6584 13.1983 10.8689 13.4586 11.017C13.7189 11.1651 14.0117 11.246 14.3107 11.253C14.6096 11.26 14.9056 11.1928 15.1725 11.057C15.4394 10.9213 15.6686 10.7215 15.8402 10.4751C16.1121 10.0931 16.2585 9.63503 16.2585 9.16524C16.2585 8.69546 16.1121 8.23734 15.8402 7.85537C15.6781 7.62371 15.4646 7.43326 15.2166 7.29901C14.9687 7.16477 14.6932 7.09059 14.4117 7.08214C14.1303 7.07369 13.8507 7.13121 13.5952 7.25034C13.3398 7.36947 13.1153 7.54697 12.9398 7.7685C12.5935 8.19076 12.4149 8.7268 12.4381 9.27368L12.4418 9.26875Z" fill="white"/>
</svg>
