<svg width="153" height="51" viewBox="0 0 153 51" fill="none" xmlns="http://www.w3.org/2000/svg">
<path d="M140.816 0.00016575H12.1908C11.722 0.00016575 11.2588 0.00016575 10.7911 0.00271575C10.3997 0.00526575 10.0114 0.0126735 9.61619 0.0189082C8.75765 0.028983 7.90112 0.104303 7.05405 0.244213C6.20817 0.38717 5.38879 0.656683 4.62362 1.04364C3.85939 1.43387 3.16109 1.94093 2.55405 2.54643C1.94383 3.15023 1.43516 3.84814 1.0476 4.61332C0.65898 5.37698 0.389507 6.19531 0.248492 7.04005C0.106136 7.88373 0.0295331 8.73713 0.0193705 9.5926C0.00750526 9.98352 0.00625225 10.3757 0 10.7667V40.2374C0.00625225 40.6333 0.00750526 41.0168 0.0193705 41.4128C0.0295362 42.2682 0.106139 43.1216 0.248492 43.9652C0.389118 44.8105 0.658607 45.6293 1.0476 46.3932C1.43498 47.1559 1.94372 47.851 2.55405 48.4514C3.15879 49.0596 3.85754 49.567 4.62362 49.9543C5.38879 50.3423 6.20808 50.6134 7.05405 50.7586C7.90126 50.8973 8.7577 50.9727 9.61619 50.984C10.0114 50.9926 10.3997 50.9976 10.7911 50.9976C11.2587 51.0002 11.722 51.0002 12.1908 51.0002H140.816C141.276 51.0002 141.742 51.0002 142.202 50.9976C142.592 50.9976 142.991 50.9926 143.381 50.984C144.238 50.9733 145.092 50.8979 145.938 50.7586C146.787 50.6124 147.609 50.3413 148.378 49.9543C149.143 49.5668 149.841 49.0594 150.445 48.4514C151.054 47.8486 151.564 47.1541 151.956 46.3932C152.342 45.6287 152.609 44.81 152.748 43.9652C152.89 43.1215 152.97 42.2683 152.985 41.4128C152.99 41.0168 152.99 40.6333 152.99 40.2374C153 39.7742 153 39.3135 153 38.8428V12.1587C153 11.6918 153 11.2286 152.99 10.7667C152.99 10.3757 152.99 9.98352 152.985 9.59255C152.97 8.737 152.89 7.88379 152.748 7.04C152.609 6.19575 152.342 5.37748 151.956 4.61327C151.167 3.07954 149.915 1.8311 148.378 1.04352C147.609 0.657514 146.786 0.388072 145.938 0.244099C145.093 0.103572 144.238 0.0282256 143.381 0.0187298C142.991 0.0125077 142.592 0.00503625 142.202 0.00255C141.742 0 141.276 0.00016575 140.816 0.00016575Z" fill="#A6A6A6"/>
<path d="M10.7974 49.884C10.4078 49.884 10.0277 49.879 9.64118 49.8703C8.84051 49.8599 8.04171 49.7904 7.25133 49.6624C6.51435 49.5358 5.80041 49.3004 5.13306 48.9638C4.47183 48.6301 3.86874 48.1924 3.34688 47.6677C2.81748 47.1491 2.37672 46.5476 2.04208 45.8871C1.70376 45.2223 1.46961 44.5097 1.34781 43.7742C1.21628 42.9838 1.14511 42.1847 1.13493 41.3836C1.12682 41.1147 1.11621 40.2194 1.11621 40.2194V10.7661C1.11621 10.7661 1.12751 9.88459 1.13499 9.6256C1.14474 8.82577 1.2155 8.02784 1.34664 7.23872C1.46866 6.50115 1.70299 5.78651 2.04149 5.11954C2.3749 4.45949 2.81321 3.85758 3.33943 3.33715C3.86506 2.81178 4.47008 2.37188 5.13243 2.0335C5.79825 1.69803 6.51084 1.46424 7.24633 1.33998C8.03931 1.21065 8.84088 1.14073 9.64432 1.1308L10.798 1.11523H142.196L143.363 1.13143C144.159 1.14086 144.954 1.21016 145.739 1.33873C146.482 1.46455 147.202 1.69997 147.876 2.03724C149.203 2.71917 150.282 3.79804 150.963 5.12265C151.297 5.78502 151.527 6.49383 151.648 7.22502C151.78 8.02062 151.855 8.82483 151.87 9.63121C151.874 9.99229 151.874 10.3801 151.874 10.7661C151.884 11.2443 151.884 11.6994 151.884 12.1582V38.8422C151.884 39.3054 151.884 39.7574 151.874 40.2131C151.874 40.6277 151.874 41.0076 151.869 41.3985C151.854 42.1905 151.781 42.9803 151.65 43.7617C151.531 44.5025 151.298 45.2207 150.96 45.8909C150.623 46.5443 150.185 47.1405 149.661 47.6577C149.139 48.1853 148.535 48.6255 147.872 48.9614C147.2 49.3005 146.481 49.5368 145.739 49.6624C144.949 49.7911 144.15 49.8606 143.349 49.8703C142.975 49.879 142.583 49.884 142.202 49.884L140.816 49.8865L10.7974 49.884Z" fill="black"/>
<path d="M31.6686 25.8832C31.6823 24.819 31.9658 23.7756 32.4926 22.85C33.0194 21.9244 33.7724 21.1467 34.6816 20.5893C34.104 19.7668 33.3421 19.0898 32.4562 18.6123C31.5704 18.1347 30.5851 17.8697 29.5786 17.8383C27.4316 17.6136 25.3501 19.1195 24.256 19.1195C23.1407 19.1195 21.4562 17.8606 19.6422 17.8978C18.4689 17.9356 17.3254 18.2759 16.3232 18.8854C15.3209 19.4949 14.4941 20.3529 13.9233 21.3759C11.4505 25.6451 13.295 31.9194 15.6637 35.3704C16.8488 37.0602 18.2338 38.9478 20.0462 38.8808C21.8196 38.8075 22.482 37.7531 24.6227 37.7531C26.7436 37.7531 27.365 38.8808 29.2141 38.8383C31.1171 38.8075 32.3161 37.1409 33.4596 35.4351C34.3111 34.231 34.9664 32.9003 35.401 31.4922C34.2954 31.0259 33.352 30.2453 32.6882 29.2479C32.0245 28.2505 31.6699 27.0803 31.6686 25.8832Z" fill="white"/>
<path d="M28.1764 15.5687C29.214 14.3266 29.7252 12.7301 29.6014 11.1182C28.0161 11.2842 26.5518 12.0397 25.5002 13.2342C24.9861 13.8177 24.5923 14.4965 24.3413 15.2319C24.0904 15.9673 23.9873 16.7448 24.0379 17.5199C24.8308 17.5281 25.6152 17.3567 26.3321 17.0187C27.0489 16.6807 27.6795 16.1849 28.1764 15.5687Z" fill="white"/>
<path d="M54.0864 34.6023H48.0344L46.581 38.8818H44.0176L49.75 23.0488H52.4132L58.1456 38.8818H55.5385L54.0864 34.6023ZM48.6612 32.6275H53.4584L51.0935 25.6823H51.0273L48.6612 32.6275Z" fill="white"/>
<path d="M70.5253 33.1111C70.5253 36.6983 68.5999 39.003 65.6944 39.003C64.9584 39.0414 64.2264 38.8723 63.5822 38.5151C62.9381 38.158 62.4078 37.6271 62.0522 36.9834H61.9972V42.701H59.6211V27.3387H61.9211V29.2587H61.9648C62.3368 28.6181 62.876 28.09 63.525 27.7306C64.1741 27.3713 64.9087 27.1941 65.6507 27.2179C68.5886 27.218 70.5253 29.5339 70.5253 33.1111ZM68.083 33.1111C68.083 30.774 66.8718 29.2375 65.0239 29.2375C63.2084 29.2375 61.9872 30.8064 61.9872 33.1111C61.9872 35.437 63.2084 36.9946 65.0239 36.9946C66.8718 36.9946 68.083 35.4694 68.083 33.1111Z" fill="white"/>
<path d="M83.2665 33.1111C83.2665 36.6983 81.3411 39.003 78.4356 39.003C77.6996 39.0414 76.9676 38.8723 76.3235 38.5151C75.6793 38.158 75.1491 37.6271 74.7934 36.9834H74.7384V42.701H72.3623V27.3387H74.6622V29.2587H74.7059C75.078 28.618 75.6172 28.09 76.2662 27.7306C76.9153 27.3713 77.6499 27.1941 78.3919 27.2179C81.3299 27.2179 83.2665 29.5339 83.2665 33.1111ZM80.8242 33.1111C80.8242 30.774 79.613 29.2375 77.7651 29.2375C75.9496 29.2375 74.7285 30.8064 74.7285 33.1111C74.7285 35.437 75.9496 36.9946 77.7651 36.9946C79.613 36.9946 80.8242 35.4693 80.8242 33.1111Z" fill="white"/>
<path d="M91.6872 34.4706C91.8633 36.0407 93.3928 37.0716 95.483 37.0716C97.4858 37.0716 98.9267 36.0407 98.9267 34.625C98.9267 33.3961 98.0576 32.6602 95.9999 32.1559L93.9422 31.6616C91.0267 30.9594 89.6732 29.5997 89.6732 27.3933C89.6732 24.6615 92.0606 22.7852 95.4505 22.7852C98.8055 22.7852 101.105 24.6615 101.183 27.3933H98.7843C98.6407 25.8133 97.3309 24.8595 95.4168 24.8595C93.5027 24.8595 92.1929 25.8245 92.1929 27.229C92.1929 28.3484 93.0295 29.007 95.0759 29.5112L96.8252 29.9396C100.083 30.7078 101.436 32.0127 101.436 34.3286C101.436 37.2907 99.0702 39.146 95.3069 39.146C91.7858 39.146 89.4085 37.3343 89.2549 34.4705L91.6872 34.4706Z" fill="white"/>
<path d="M106.565 24.6064V27.3382H108.766V29.2146H106.565V35.5784C106.565 36.567 107.005 37.0277 107.973 37.0277C108.234 37.0232 108.495 37.0049 108.755 36.9729V38.8381C108.32 38.9192 107.877 38.9559 107.435 38.9477C105.091 38.9477 104.177 38.0699 104.177 35.8311V29.2146H102.494V27.3382H104.177V24.6064H106.565Z" fill="white"/>
<path d="M110.04 33.1106C110.04 29.4786 112.185 27.1963 115.53 27.1963C118.886 27.1963 121.022 29.4785 121.022 33.1106C121.022 36.7526 118.898 39.0249 115.53 39.0249C112.164 39.0249 110.04 36.7526 110.04 33.1106ZM118.601 33.1106C118.601 30.6191 117.456 29.1486 115.53 29.1486C113.605 29.1486 112.461 30.6303 112.461 33.1106C112.461 35.612 113.605 37.0713 115.53 37.0713C117.456 37.0713 118.601 35.612 118.601 33.1106Z" fill="white"/>
<path d="M122.981 27.3386H125.248V29.3034H125.303C125.456 28.6898 125.816 28.1475 126.324 27.7677C126.831 27.3879 127.453 27.1937 128.087 27.2178C128.361 27.2169 128.634 27.2465 128.901 27.3062V29.5225C128.555 29.4172 128.195 29.3688 127.834 29.3794C127.488 29.3654 127.144 29.4261 126.825 29.5573C126.505 29.6884 126.218 29.887 125.983 30.1393C125.748 30.3916 125.57 30.6917 125.462 31.019C125.354 31.3462 125.318 31.6929 125.358 32.0352V38.8821H122.981L122.981 27.3386Z" fill="white"/>
<path d="M139.856 35.4913C139.537 37.5868 137.49 39.0249 134.872 39.0249C131.504 39.0249 129.414 36.775 129.414 33.1654C129.414 29.5446 131.515 27.1963 134.772 27.1963C137.975 27.1963 139.989 29.3902 139.989 32.8902V33.702H131.813V33.8452C131.775 34.27 131.828 34.698 131.969 35.1007C132.11 35.5034 132.335 35.8716 132.63 36.1809C132.924 36.4901 133.281 36.7333 133.677 36.8944C134.073 37.0554 134.499 37.1306 134.927 37.1149C135.488 37.1673 136.052 37.0377 136.533 36.7451C137.015 36.4526 137.389 36.0128 137.6 35.4912L139.856 35.4913ZM131.824 32.046H137.611C137.633 31.664 137.574 31.2818 137.441 30.9232C137.307 30.5647 137.1 30.2376 136.833 29.9625C136.567 29.6874 136.246 29.4702 135.891 29.3246C135.537 29.179 135.155 29.108 134.772 29.1163C134.385 29.114 134.001 29.1881 133.643 29.3344C133.285 29.4807 132.96 29.6962 132.686 29.9686C132.412 30.241 132.194 30.5648 132.046 30.9214C131.899 31.2779 131.823 31.6602 131.824 32.046Z" fill="white"/>
<path d="M48.3641 11.1317C48.8622 11.096 49.3621 11.1711 49.8277 11.3514C50.2932 11.5317 50.7128 11.8128 51.0562 12.1745C51.3996 12.5361 51.6583 12.9692 51.8135 13.4426C51.9687 13.9159 52.0167 14.4178 51.9538 14.9119C51.9538 17.3423 50.6366 18.7394 48.3641 18.7394H45.6084V11.1317H48.3641ZM46.7933 17.6635H48.2317C48.5877 17.6847 48.9439 17.6265 49.2745 17.4931C49.605 17.3598 49.9016 17.1545 50.1426 16.8924C50.3836 16.6304 50.563 16.318 50.6677 15.978C50.7723 15.6381 50.7997 15.2792 50.7477 14.9274C50.7959 14.5769 50.7658 14.2202 50.6595 13.8828C50.5532 13.5453 50.3734 13.2355 50.133 12.9755C49.8925 12.7155 49.5974 12.5117 49.2687 12.3788C48.94 12.2459 48.5859 12.1872 48.2317 12.2068H46.7933V17.6635Z" fill="white"/>
<path d="M53.2921 15.8666C53.2559 15.4893 53.2992 15.1086 53.4192 14.749C53.5392 14.3893 53.7332 14.0587 53.9889 13.7782C54.2445 13.4977 54.5561 13.2736 54.9037 13.1203C55.2513 12.9669 55.6272 12.8877 56.0072 12.8877C56.3873 12.8877 56.7632 12.9669 57.1108 13.1203C57.4584 13.2736 57.77 13.4977 58.0256 13.7782C58.2813 14.0587 58.4753 14.3893 58.5953 14.749C58.7153 15.1086 58.7586 15.4893 58.7224 15.8666C58.7592 16.2443 58.7165 16.6255 58.5968 16.9857C58.4771 17.3459 58.2832 17.6772 58.0275 17.9582C57.7718 18.2392 57.46 18.4638 57.112 18.6175C56.7641 18.7712 56.3878 18.8506 56.0072 18.8506C55.6267 18.8506 55.2504 18.7712 54.9025 18.6175C54.5545 18.4638 54.2427 18.2392 53.987 17.9582C53.7313 17.6772 53.5374 17.3459 53.4177 16.9857C53.298 16.6255 53.2553 16.2443 53.2921 15.8666ZM57.5536 15.8666C57.5536 14.6221 56.993 13.8943 56.0091 13.8943C55.0215 13.8943 54.4659 14.6221 54.4659 15.8666C54.4659 17.1211 55.0215 17.8432 56.0091 17.8432C56.993 17.8432 57.5536 17.1161 57.5536 15.8666Z" fill="white"/>
<path d="M65.9409 18.7393H64.7622L63.5722 14.5109H63.4824L62.2974 18.7393H61.13L59.543 12.998H60.6954L61.7268 17.3789H61.8117L62.9954 12.998H64.0854L65.2691 17.3789H65.359L66.3854 12.998H67.5216L65.9409 18.7393Z" fill="white"/>
<path d="M68.8565 12.9983H69.9502V13.9104H70.0351C70.1792 13.5828 70.4221 13.3082 70.7301 13.1248C71.0381 12.9415 71.3957 12.8585 71.7532 12.8875C72.0334 12.8665 72.3147 12.9086 72.5762 13.0107C72.8378 13.1128 73.073 13.2724 73.2644 13.4774C73.4558 13.6825 73.5985 13.9279 73.6818 14.1954C73.7652 14.4629 73.7871 14.7457 73.746 15.0229V18.7395H72.6098V15.3074C72.6098 14.3848 72.2077 13.9259 71.3674 13.9259C71.1772 13.9171 70.9873 13.9494 70.8108 14.0206C70.6343 14.0917 70.4753 14.2001 70.3447 14.3383C70.2142 14.4765 70.1151 14.6412 70.0543 14.8212C69.9936 15.0011 69.9725 15.192 69.9927 15.3808V18.7395H68.8564L68.8565 12.9983Z" fill="white"/>
<path d="M75.5566 10.7568H76.6929V18.7393H75.5566V10.7568Z" fill="white"/>
<path d="M78.2726 15.8657C78.2364 15.4884 78.2797 15.1077 78.3997 14.748C78.5197 14.3884 78.7138 14.0577 78.9695 13.7772C79.2251 13.4967 79.5368 13.2726 79.8844 13.1193C80.232 12.9659 80.6079 12.8867 80.988 12.8867C81.3681 12.8867 81.744 12.9659 82.0916 13.1193C82.4392 13.2726 82.7509 13.4967 83.0065 13.7772C83.2622 14.0577 83.4563 14.3884 83.5763 14.748C83.6963 15.1077 83.7396 15.4884 83.7034 15.8657C83.7403 16.2434 83.6974 16.6246 83.5777 16.9848C83.458 17.345 83.2641 17.6763 83.0084 17.9573C82.7526 18.2383 82.4408 18.4629 82.0928 18.6166C81.7449 18.7703 81.3685 18.8496 80.988 18.8496C80.6075 18.8496 80.2311 18.7703 79.8832 18.6166C79.5352 18.4629 79.2234 18.2383 78.9676 17.9573C78.7119 17.6763 78.518 17.345 78.3983 16.9848C78.2786 16.6246 78.2357 16.2434 78.2726 15.8657ZM82.5341 15.8657C82.5341 14.6212 81.9735 13.8934 80.9896 13.8934C80.0019 13.8934 79.4463 14.6212 79.4463 15.8657C79.4463 17.1202 80.0019 17.8423 80.9896 17.8423C81.9735 17.8423 82.5341 17.1152 82.5341 15.8657Z" fill="white"/>
<path d="M84.8994 17.1161C84.8994 16.0827 85.6711 15.4869 87.0408 15.4022L88.6003 15.3126V14.817C88.6003 14.2106 88.1982 13.8682 87.4216 13.8682C86.7873 13.8682 86.3478 14.1004 86.2217 14.5063H85.1217C85.2378 13.5202 86.168 12.8877 87.4741 12.8877C88.9175 12.8877 89.7315 13.6042 89.7315 14.817V18.7397H88.6378V17.9329H88.5479C88.3654 18.2223 88.1092 18.4583 87.8053 18.6166C87.5015 18.775 87.161 18.8501 86.8185 18.8343C86.5768 18.8594 86.3326 18.8337 86.1014 18.7588C85.8703 18.684 85.6575 18.5617 85.4767 18.3998C85.2959 18.2379 85.1511 18.0401 85.0517 17.819C84.9522 17.5978 84.9004 17.3584 84.8994 17.1161ZM88.6003 16.6255V16.1455L87.1944 16.2352C86.4015 16.2881 86.0419 16.557 86.0419 17.0632C86.0419 17.5799 86.4914 17.8806 87.1095 17.8806C87.2906 17.8989 87.4735 17.8806 87.6474 17.827C87.8213 17.7733 87.9826 17.6853 88.1217 17.5682C88.2608 17.4511 88.3749 17.3073 88.4571 17.1454C88.5393 16.9834 88.588 16.8066 88.6003 16.6255Z" fill="white"/>
<path d="M91.2246 15.8662C91.2246 14.0521 92.1598 12.9028 93.6145 12.9028C93.9743 12.8863 94.3314 12.9722 94.644 13.1506C94.9567 13.329 95.2119 13.5924 95.38 13.9101H95.4649V10.7568H96.6011V18.7393H95.5124V17.8322H95.4225C95.2414 18.1478 94.9772 18.4079 94.6585 18.5845C94.3398 18.761 93.9788 18.8473 93.6145 18.8339C92.1498 18.834 91.2246 17.6847 91.2246 15.8662ZM92.3983 15.8662C92.3983 17.0839 92.974 17.8167 93.9366 17.8167C94.8943 17.8167 95.4862 17.0734 95.4862 15.8712C95.4862 14.6746 94.8881 13.9207 93.9366 13.9207C92.9802 13.9207 92.3983 14.6584 92.3983 15.8662Z" fill="white"/>
<path d="M101.302 15.8666C101.266 15.4893 101.309 15.1086 101.429 14.749C101.549 14.3893 101.743 14.0587 101.999 13.7782C102.254 13.4977 102.566 13.2736 102.913 13.1203C103.261 12.9669 103.637 12.8877 104.017 12.8877C104.397 12.8877 104.773 12.9669 105.121 13.1203C105.468 13.2736 105.78 13.4977 106.035 13.7782C106.291 14.0587 106.485 14.3893 106.605 14.749C106.725 15.1086 106.768 15.4893 106.732 15.8666C106.769 16.2443 106.726 16.6255 106.607 16.9857C106.487 17.3459 106.293 17.6772 106.037 17.9582C105.782 18.2392 105.47 18.4638 105.122 18.6175C104.774 18.7712 104.398 18.8506 104.017 18.8506C103.636 18.8506 103.26 18.7712 102.912 18.6175C102.564 18.4638 102.252 18.2392 101.997 17.9582C101.741 17.6772 101.547 17.3459 101.427 16.9857C101.308 16.6255 101.265 16.2443 101.302 15.8666ZM105.563 15.8666C105.563 14.6221 105.003 13.8943 104.019 13.8943C103.031 13.8943 102.476 14.6221 102.476 15.8666C102.476 17.1211 103.031 17.8432 104.019 17.8432C105.003 17.8432 105.563 17.1161 105.563 15.8666Z" fill="white"/>
<path d="M108.257 12.9983H109.351V13.9104H109.436C109.58 13.5828 109.823 13.3082 110.13 13.1248C110.438 12.9415 110.796 12.8585 111.154 12.8875C111.434 12.8665 111.715 12.9086 111.977 13.0107C112.238 13.1128 112.473 13.2724 112.665 13.4774C112.856 13.6825 112.999 13.9279 113.082 14.1954C113.166 14.4629 113.188 14.7457 113.146 15.0229V18.7395H112.01V15.3074C112.01 14.3848 111.608 13.9259 110.768 13.9259C110.578 13.9171 110.388 13.9494 110.211 14.0206C110.035 14.0917 109.876 14.2001 109.745 14.3383C109.615 14.4765 109.515 14.6412 109.455 14.8212C109.394 15.0011 109.373 15.192 109.393 15.3808V18.7395H108.257V12.9983Z" fill="white"/>
<path d="M119.567 11.5684V13.0239H120.814V13.9783H119.567V16.9305C119.567 17.5319 119.816 17.7952 120.381 17.7952C120.526 17.7947 120.671 17.786 120.814 17.769V18.7128C120.61 18.7492 120.404 18.7686 120.196 18.7707C118.933 18.7707 118.43 18.3275 118.43 17.2206V13.9782H117.516V13.0238H118.43V11.5684H119.567Z" fill="white"/>
<path d="M122.366 10.7568H123.492V13.9207H123.582C123.733 13.5901 123.983 13.3139 124.297 13.1299C124.611 12.9458 124.975 12.8628 125.338 12.8922C125.617 12.8771 125.895 12.9235 126.154 13.0281C126.412 13.1327 126.645 13.2929 126.834 13.4974C127.023 13.7018 127.165 13.9454 127.249 14.2108C127.333 14.4761 127.358 14.7567 127.321 15.0326V18.7393H126.183V15.3121C126.183 14.3951 125.755 13.9306 124.952 13.9306C124.757 13.9147 124.56 13.9414 124.377 14.0091C124.193 14.0767 124.026 14.1836 123.888 14.3222C123.75 14.4609 123.644 14.6279 123.577 14.8117C123.511 14.9955 123.485 15.1915 123.502 15.3862V18.7393H122.366L122.366 10.7568Z" fill="white"/>
<path d="M133.945 17.1887C133.791 17.7134 133.457 18.1673 133.001 18.4709C132.544 18.7746 131.996 18.9086 131.451 18.8497C131.071 18.8597 130.694 18.7872 130.346 18.6374C129.998 18.4875 129.686 18.2639 129.433 17.9819C129.18 17.6999 128.992 17.3665 128.881 17.0046C128.77 16.6427 128.739 16.2611 128.791 15.8863C128.741 15.5103 128.772 15.1279 128.882 14.765C128.993 14.402 129.18 14.067 129.432 13.7825C129.684 13.4981 129.994 13.271 130.341 13.1164C130.689 12.9619 131.065 12.8836 131.446 12.8868C133.048 12.8868 134.014 13.9782 134.014 15.7811V16.1764H129.949V16.2399C129.931 16.4506 129.957 16.6627 130.027 16.8625C130.096 17.0624 130.206 17.2456 130.35 17.4005C130.495 17.5553 130.67 17.6784 130.865 17.7618C131.06 17.8452 131.27 17.887 131.482 17.8847C131.754 17.9172 132.029 17.8684 132.273 17.7445C132.517 17.6205 132.718 17.4271 132.852 17.1887L133.945 17.1887ZM129.949 15.3384H132.857C132.871 15.1458 132.845 14.9522 132.78 14.7703C132.714 14.5883 132.612 14.4219 132.478 14.2819C132.345 14.1418 132.183 14.0311 132.005 13.9569C131.826 13.8828 131.633 13.8467 131.439 13.8512C131.243 13.8487 131.048 13.8855 130.866 13.9594C130.684 14.0333 130.518 14.1427 130.38 14.2813C130.241 14.4199 130.131 14.5849 130.057 14.7664C129.983 14.948 129.946 15.1425 129.949 15.3384Z" fill="white"/>
</svg>
