<svg width="17" height="17" viewBox="0 0 17 17" fill="none" xmlns="http://www.w3.org/2000/svg">
<path d="M11.2418 9.94603C11.4493 9.94603 11.6174 9.77785 11.6174 9.57034L11.6174 5.75998C11.6174 5.74703 11.6168 5.73408 11.6155 5.72113C11.6151 5.71715 11.6143 5.71333 11.6138 5.70918C11.6126 5.70104 11.6116 5.69307 11.6101 5.68494C11.609 5.67913 11.6073 5.67348 11.606 5.66784C11.6045 5.6617 11.603 5.65555 11.6012 5.64941C11.5994 5.64327 11.5972 5.63746 11.5949 5.63148C11.5929 5.62584 11.5911 5.62036 11.5889 5.61488C11.5864 5.60874 11.5834 5.60309 11.5806 5.59728C11.5781 5.59214 11.5758 5.58682 11.5731 5.58184C11.5698 5.57554 11.566 5.56973 11.5625 5.56391C11.5597 5.55943 11.5572 5.55495 11.5544 5.55047C11.5494 5.54283 11.5439 5.53569 11.5383 5.52872C11.5363 5.52606 11.5344 5.52357 11.5324 5.52092C11.5165 5.50133 11.4986 5.4834 11.479 5.46746C11.4778 5.46663 11.4767 5.4658 11.4755 5.46497C11.467 5.45816 11.4582 5.45169 11.4493 5.44571C11.4466 5.44405 11.4438 5.44256 11.4411 5.4409C11.4333 5.43608 11.4255 5.43127 11.4176 5.42695C11.4147 5.42546 11.4118 5.42413 11.4086 5.42264C11.4006 5.41865 11.3923 5.41467 11.3839 5.41118C11.3812 5.41019 11.3787 5.40936 11.3761 5.40836C11.3671 5.40504 11.3581 5.40172 11.349 5.3989C11.3472 5.3984 11.3452 5.39807 11.3434 5.39757C11.3336 5.39475 11.3234 5.39226 11.3133 5.3901C11.3125 5.38993 11.3116 5.38977 11.3108 5.3896C11.2882 5.38528 11.265 5.38296 11.2414 5.38296L7.42941 5.38296C7.32581 5.38296 7.23168 5.42496 7.16378 5.49286C7.09588 5.56076 7.05372 5.65472 7.05388 5.75848C7.05388 5.966 7.22205 6.13417 7.42957 6.13417L10.3348 6.13417L5.49351 10.9755C5.34676 11.1222 5.34676 11.36 5.49351 11.5067C5.64027 11.6535 5.878 11.6535 6.02476 11.5067L10.8661 6.66542L10.8662 9.5705C10.8661 9.77785 11.0342 9.94603 11.2418 9.94603Z" fill="#2EA8AF"/>
</svg>
