<svg width="17" height="17" viewBox="0 0 17 17" fill="none" xmlns="http://www.w3.org/2000/svg">
<g clip-path="url(#clip0_5241_105253)">
<path d="M8.21973 0.900391C3.80145 0.900391 0.219727 4.48211 0.219727 8.90039C0.219727 13.3187 3.80145 16.9004 8.21973 16.9004C12.638 16.9004 16.2197 13.3187 16.2197 8.90039C16.2197 4.48211 12.638 0.900391 8.21973 0.900391Z" fill="#119B56"/>
<path d="M7.72202 4.5605C7.76768 4.49202 7.82954 4.43588 7.90211 4.39704C7.97468 4.35821 8.05571 4.33789 8.13802 4.33789C8.22032 4.33789 8.30136 4.35821 8.37392 4.39704C8.44649 4.43588 8.50835 4.49202 8.55402 4.5605L10.787 7.9095C10.8371 7.9848 10.8659 8.07227 10.8702 8.16261C10.8745 8.25295 10.8542 8.34277 10.8116 8.4225C10.7689 8.50224 10.7054 8.5689 10.6278 8.61539C10.5502 8.66188 10.4615 8.68646 10.371 8.6865H5.90502C5.81457 8.68646 5.72584 8.66188 5.64826 8.61539C5.57068 8.5689 5.50716 8.50224 5.46447 8.4225C5.42179 8.34277 5.40152 8.25295 5.40584 8.16261C5.41017 8.07227 5.43891 7.9848 5.48902 7.9095L7.72202 4.5605Z" fill="white"/>
<path d="M8.1377 6.44334V12.7773" stroke="white" stroke-width="1.5"/>
</g>
<defs>
<clipPath id="clip0_5241_105253">
<rect width="16" height="16" fill="white" transform="translate(0.219727 0.900391)"/>
</clipPath>
</defs>
</svg>
