<svg width="12" height="12" viewBox="0 0 12 12" fill="none" xmlns="http://www.w3.org/2000/svg">
<path d="M6.91436 8.95612C7.06084 9.1026 7.29826 9.1026 7.44475 8.95612L10.1344 6.26643C10.1436 6.25729 10.1522 6.24768 10.1604 6.2376C10.163 6.23455 10.1651 6.23127 10.1677 6.22799C10.1726 6.22143 10.1776 6.2151 10.1822 6.2083C10.1855 6.20338 10.1883 6.19823 10.1914 6.1933C10.1947 6.18791 10.1979 6.18252 10.201 6.1769C10.204 6.17127 10.2066 6.16565 10.2092 6.15979C10.2118 6.1544 10.2144 6.14924 10.2167 6.14385C10.2193 6.13776 10.2212 6.13166 10.2233 6.12557C10.2251 6.12018 10.2272 6.11479 10.2289 6.1094C10.231 6.1026 10.2324 6.0958 10.234 6.08924C10.2352 6.08408 10.2366 6.07916 10.2378 6.07401C10.2397 6.0651 10.2408 6.05619 10.2418 6.04729C10.2422 6.04401 10.2427 6.04096 10.2432 6.03768C10.2458 6.0126 10.2458 5.98729 10.2432 5.96221C10.2429 5.9608 10.2427 5.9594 10.2425 5.95799C10.2413 5.94721 10.2397 5.93643 10.2376 5.92588C10.2369 5.92283 10.2359 5.91979 10.2352 5.91674C10.2331 5.90783 10.231 5.89893 10.2284 5.89026C10.2275 5.88721 10.2263 5.88416 10.2251 5.88088C10.2223 5.87244 10.2193 5.86377 10.2158 5.85533C10.2146 5.85276 10.2134 5.85041 10.2122 5.84783C10.2083 5.83916 10.2043 5.83049 10.1998 5.82205C10.1989 5.82041 10.1977 5.81877 10.1968 5.81713C10.1919 5.80823 10.1865 5.79932 10.1808 5.79065C10.1804 5.78994 10.1799 5.78924 10.1794 5.78854C10.1665 5.76955 10.1518 5.75151 10.1351 5.73487L7.44428 3.04401C7.37115 2.97088 7.27506 2.93408 7.1792 2.93408C7.08334 2.93408 6.98725 2.97065 6.91412 3.04401C6.76764 3.19049 6.76764 3.42791 6.91412 3.5744L8.9649 5.62518L2.13006 5.62518C1.92287 5.62518 1.75506 5.79299 1.75506 6.00018C1.75506 6.20737 1.92287 6.37518 2.13006 6.37518L8.9649 6.37518L6.91436 8.42596C6.76787 8.57221 6.76787 8.80963 6.91436 8.95612Z" fill="#2EA8AF"/>
</svg>
