<svg width="10" height="10" viewBox="0 0 10 10" fill="none" xmlns="http://www.w3.org/2000/svg">
<path d="M4.23853 2.53674C4.11646 2.41467 3.9186 2.41467 3.79653 2.53674L1.55513 4.77815C1.54751 4.78577 1.54028 4.79377 1.53345 4.80217C1.5313 4.80471 1.52954 4.80745 1.52739 4.81018C1.52329 4.81565 1.51919 4.82092 1.51528 4.82659C1.51255 4.83069 1.51021 4.83499 1.50767 4.83909C1.50493 4.84358 1.5022 4.84807 1.49966 4.85276C1.49712 4.85745 1.49497 4.86213 1.49282 4.86702C1.49067 4.87151 1.48853 4.87581 1.48657 4.8803C1.48442 4.88538 1.48286 4.89045 1.4811 4.89553C1.47954 4.90002 1.47778 4.90452 1.47642 4.90901C1.47466 4.91467 1.47349 4.92034 1.47212 4.92581C1.47114 4.9301 1.46997 4.9342 1.46899 4.9385C1.46743 4.94592 1.46646 4.95334 1.46567 4.96077C1.46528 4.9635 1.46489 4.96604 1.4645 4.96877C1.46235 4.98967 1.46235 5.01077 1.4645 5.03166C1.4647 5.03284 1.46489 5.03401 1.46509 5.03518C1.46606 5.04416 1.46743 5.05315 1.46919 5.06194C1.46978 5.06448 1.47056 5.06702 1.47114 5.06956C1.4729 5.07698 1.47466 5.0844 1.47681 5.09163C1.47759 5.09417 1.47856 5.0967 1.47954 5.09944C1.48188 5.10647 1.48442 5.1137 1.48735 5.12073C1.48833 5.12288 1.48931 5.12483 1.49028 5.12698C1.4936 5.1342 1.49692 5.14143 1.50063 5.14846C1.50142 5.14983 1.50239 5.1512 1.50317 5.15256C1.50728 5.15999 1.51177 5.16741 1.51646 5.17463C1.51685 5.17522 1.51724 5.17581 1.51763 5.17639C1.52837 5.19221 1.54067 5.20725 1.55454 5.22112L3.79692 7.4635C3.85786 7.52444 3.93794 7.5551 4.01782 7.5551C4.09771 7.5551 4.17778 7.52463 4.23872 7.4635C4.36079 7.34143 4.36079 7.14358 4.23872 7.02151L2.52974 5.31252H8.22544C8.3981 5.31252 8.53794 5.17268 8.53794 5.00002C8.53794 4.82737 8.3981 4.68752 8.22544 4.68752H2.52974L4.23853 2.97854C4.3606 2.85666 4.3606 2.65881 4.23853 2.53674Z" fill="#B6B6B6"/>
</svg>
