<svg width="17" height="17" viewBox="0 0 17 17" fill="none" xmlns="http://www.w3.org/2000/svg">
<path d="M10.8543 10.6808C11.0618 10.7364 11.275 10.6133 11.3307 10.4058L12.3516 6.59537C12.3551 6.58242 12.3579 6.5693 12.3601 6.55599C12.3608 6.55192 12.361 6.54788 12.3616 6.54359C12.3626 6.53515 12.3638 6.52691 12.3644 6.51838C12.3648 6.51225 12.3647 6.50616 12.3649 6.50016C12.365 6.49362 12.3652 6.48708 12.365 6.48045C12.3648 6.47381 12.3642 6.46743 12.3635 6.46083C12.363 6.45465 12.3627 6.44868 12.362 6.44262C12.3611 6.43581 12.3596 6.42937 12.3584 6.4228C12.3573 6.41699 12.3564 6.41105 12.355 6.40536C12.3534 6.39816 12.3512 6.39133 12.3492 6.38458C12.3476 6.37935 12.3463 6.3742 12.3447 6.36896C12.3418 6.35999 12.3382 6.35138 12.3344 6.34289C12.3331 6.3397 12.332 6.33672 12.3307 6.33353C12.32 6.30967 12.3069 6.28694 12.2916 6.26575C12.2906 6.26461 12.2897 6.26347 12.2887 6.26233C12.2821 6.25325 12.275 6.24442 12.2677 6.23604C12.2655 6.23367 12.263 6.23142 12.2608 6.22905C12.2543 6.22214 12.2478 6.21524 12.241 6.20879C12.2386 6.20654 12.2359 6.20441 12.2332 6.20207C12.2263 6.19595 12.2191 6.18974 12.2115 6.18399C12.2091 6.18228 12.2069 6.18078 12.2045 6.17907C12.1964 6.17335 12.1883 6.16763 12.1799 6.16236C12.1783 6.16137 12.1764 6.16051 12.1747 6.15952C12.1656 6.15407 12.1562 6.14887 12.1466 6.144C12.1458 6.14361 12.145 6.14322 12.1443 6.14283C12.1228 6.13246 12.1002 6.12391 12.0766 6.1176L8.2646 5.09616C8.161 5.0684 8.05562 5.08518 7.96952 5.13489C7.88343 5.1846 7.81608 5.26726 7.78845 5.37107C7.73284 5.57859 7.85595 5.79182 8.06347 5.84743L10.9687 6.62589L4.83017 10.17C4.64409 10.2774 4.58039 10.5152 4.68782 10.7012C4.79526 10.8873 5.03299 10.951 5.21907 10.8436L11.3576 7.29949L10.5794 10.2046C10.5237 10.4119 10.6468 10.6252 10.8543 10.6808Z" fill="#2EA8AF"/>
</svg>
