<svg width="17" height="17" viewBox="0 0 17 17" fill="none" xmlns="http://www.w3.org/2000/svg">
<g clip-path="url(#clip0_5241_105295)">
<path d="M8.58008 16.8906C12.9984 16.8906 16.5801 13.3089 16.5801 8.89062C16.5801 4.47235 12.9984 0.890625 8.58008 0.890625C4.1618 0.890625 0.580078 4.47235 0.580078 8.89063C0.580078 13.3089 4.1618 16.8906 8.58008 16.8906Z" fill="#F14349"/>
<path d="M8.91275 13.2305C8.86709 13.299 8.80523 13.3551 8.73266 13.394C8.66009 13.4328 8.57906 13.4531 8.49675 13.4531C8.41444 13.4531 8.33341 13.4328 8.26084 13.394C8.18827 13.3551 8.12641 13.299 8.08075 13.2305L5.84775 9.88151C5.79765 9.80622 5.7689 9.71874 5.76458 9.6284C5.76026 9.53807 5.78052 9.44825 5.82321 9.36851C5.8659 9.28878 5.92941 9.22212 6.00699 9.17563C6.08457 9.12914 6.17331 9.10456 6.26375 9.10451H10.7298C10.8202 9.10456 10.9089 9.12914 10.9865 9.17563C11.0641 9.22212 11.1276 9.28878 11.1703 9.36851C11.213 9.44825 11.2332 9.53807 11.2289 9.6284C11.2246 9.71874 11.1959 9.80622 11.1458 9.88151L8.91275 13.2305Z" fill="white"/>
<path d="M8.49707 11.3477V5.01367" stroke="white" stroke-width="1.5"/>
</g>
<defs>
<clipPath id="clip0_5241_105295">
<rect width="16" height="16" fill="white" transform="translate(0.580078 0.890625)"/>
</clipPath>
</defs>
</svg>
