<svg width="285" height="306" viewBox="0 0 285 306" fill="none" xmlns="http://www.w3.org/2000/svg">
<g clip-path="url(#clip0_5046_12326)">
<path d="M229.971 236.105C177.488 240.425 112.198 207.551 84.1337 162.7C70.0111 140.127 68.0097 118.819 76.1919 102.673L67.6668 119.509C59.4847 135.655 61.486 156.963 75.6086 179.536C103.667 224.398 168.963 257.261 221.446 252.941C247.52 250.8 265.525 239.881 273.604 223.942L282.129 207.107C274.05 223.045 256.046 233.964 229.971 236.105Z" stroke="#DADADA" stroke-width="0.5" stroke-miterlimit="10"/>
<path d="M274.187 147.079C302.245 191.941 282.448 231.795 229.965 236.116C177.482 240.436 112.192 207.562 84.1278 162.711C56.0693 117.848 75.8667 77.9946 128.344 73.6853C180.821 69.3759 246.106 102.233 274.17 147.085L274.187 147.079Z" stroke="#DADADA" stroke-width="0.5" stroke-miterlimit="10"/>
<path d="M269.009 193.946C272.535 184.466 271.541 174.02 268.251 164.616C266.212 158.77 263.32 153.236 259.943 148.048C248.222 130.014 228.885 113.61 205.483 101.833C182.093 90.0614 157.443 84.3382 136.093 85.7169C114.733 87.0903 99.2218 95.4139 92.4122 109.131C84.2037 125.66 90.4254 143.566 100.195 158.268C103.15 162.713 106.426 166.868 109.718 170.608C126.809 189.962 148.941 203.933 173.156 212.621C185.334 216.986 198.105 219.94 211.035 220.734C232.397 222.05 260.613 216.62 269.02 193.951L269.009 193.946ZM222.392 218.425C201.754 219.748 177.947 214.226 155.345 202.846C132.738 191.478 114.048 175.615 102.723 158.187C94.8084 146.019 89.3638 130.397 93.1639 116.494C93.1421 116.538 93.1039 116.559 93.0821 116.603C93.1147 116.51 93.1418 116.428 93.1635 116.33C93.6407 114.656 94.2603 113.026 95.0004 111.456C95.1092 111.237 95.2181 111.018 95.3324 110.788C95.4794 110.493 95.6263 110.197 95.7733 109.902C96.4594 108.605 97.2494 107.319 98.1435 106.071C98.2689 105.874 98.4215 105.677 98.5742 105.48C98.7433 105.25 98.9232 105.026 99.0923 104.796C99.2504 104.588 99.414 104.396 99.5831 104.194C104.072 98.7412 110.195 94.7842 116.786 92.248C123.378 89.7117 130.427 88.536 137.483 88.0875C163.685 86.3784 190.448 94.8318 212.961 107.873C222.85 113.598 232.103 120.439 240.351 128.364C254.275 141.748 268.556 159.854 268.274 180.175C268.157 188.349 265.619 195.099 261.481 200.535C252.892 211.838 237.397 217.466 222.414 218.436L222.392 218.425Z" fill="#DADADA"/>
<path d="M244.467 141.987L244.434 142.053C244.266 142.392 244.092 142.743 243.923 143.082C243.177 144.581 235.926 159.047 235.697 159.48C235.208 160.465 234.24 160.953 233.383 161.577C232.029 162.569 230.669 163.572 229.304 164.558C228.681 165.013 228.075 165.462 227.453 165.917L222.877 156.488L243.84 142.645C244.124 142.458 244.331 142.234 244.462 141.971L244.467 141.987Z" stroke="#DADADA" stroke-width="0.5" stroke-miterlimit="10"/>
<path d="M157.962 145.055C156.46 148.075 149.045 162.843 149.045 162.843C149.056 162.821 119.59 140.983 118.597 140.257C117.375 139.362 115.774 138.02 116.104 136.314C116.142 136.155 116.19 136.002 116.261 135.86L125.178 118.072C125.107 118.214 125.064 118.357 125.026 118.515C124.988 118.674 124.988 118.838 124.994 118.991C125.023 119.483 125.226 120.007 125.556 120.526C125.908 121.056 126.412 121.58 127.053 122.049L157.962 145.028L157.962 145.055Z" stroke="#DADADA" stroke-width="0.5" stroke-miterlimit="10"/>
<path d="M236.135 185.551L227.219 203.339L227.197 203.383C226.571 204.559 224.815 204.628 223.66 204.395C222.067 204.08 187.041 186.192 186.137 185.729L195.053 167.942L230.441 185.872C232.112 186.717 233.896 186.949 235.098 186.455C235.595 186.252 235.945 185.934 236.141 185.541L236.135 185.551Z" stroke="#DADADA" stroke-width="0.5" stroke-miterlimit="10"/>
<path d="M166.294 174.493C164.965 174.665 163.662 174.59 162.32 173.964C160.858 173.277 158.934 171.733 158.864 169.978L157.975 145.06L149.058 162.848C149.058 162.848 149.947 187.738 149.947 187.766C150.012 189.668 152.171 191.261 153.776 191.909C156.46 192.971 159.247 191.928 161.915 191.317C164.742 190.662 167.564 190.018 170.39 189.363C173.387 188.669 176.383 187.975 179.39 187.287L185.378 185.911C185.64 185.85 185.886 185.795 186.148 185.735L195.065 167.947C193.939 168.206 192.823 168.47 191.697 168.729C189.072 169.334 186.448 169.94 183.829 170.534C180.822 171.223 177.825 171.916 174.812 172.615C172.543 173.138 170.258 173.667 167.989 174.19C167.42 174.316 166.857 174.432 166.299 174.509L166.294 174.493Z" stroke="#DADADA" stroke-width="0.5" stroke-linecap="round" stroke-linejoin="round"/>
<path d="M236.135 185.551C235.939 185.945 235.596 186.252 235.093 186.466C233.89 186.96 232.106 186.728 230.436 185.883L195.048 167.952L166.31 174.569C164.948 174.889 163.103 174.476 161.514 173.495C160.616 172.938 159.897 172.267 159.436 171.573C159.085 171.044 158.875 170.503 158.863 169.978L157.974 145.06L127.066 122.082C126.43 121.602 125.92 121.089 125.568 120.559C125.228 120.035 125.019 119.521 125.007 119.024C124.995 118.854 125.006 118.696 125.038 118.548C125.076 118.389 125.119 118.247 125.19 118.105C125.593 117.295 126.642 116.862 128.06 116.952L162.894 119.483L172.547 98.6489C172.998 97.6586 174.354 97.241 176.078 97.5389C177.802 97.8369 179.528 98.8182 180.587 100.069L202.992 126.543L239.864 136.653C241.61 137.126 243.232 138.233 244.084 139.517C244.693 140.434 244.821 141.331 244.478 141.993C244.348 142.255 244.135 142.491 243.856 142.666L222.894 156.509L227.469 165.938L236.027 183.572C236.39 184.326 236.424 184.999 236.152 185.546L236.135 185.551Z" stroke="#E2E2E2" stroke-width="0.5" stroke-miterlimit="10"/>
</g>
<defs>
<clipPath id="clip0_5046_12326">
<rect width="278.263" height="202.713" fill="white" transform="translate(90.2832) rotate(26.4475)"/>
</clipPath>
</defs>
</svg>
