<svg width="209" height="178" viewBox="0 0 209 178" fill="none" xmlns="http://www.w3.org/2000/svg">
<g clip-path="url(#clip0_5046_12313)">
<path d="M169.133 100.188C146.945 125.505 102.338 139.43 69.507 131.303C52.9843 127.212 42.5922 118.314 39.1726 107.26L42.7412 118.783C46.1608 129.838 56.5528 138.736 73.0756 142.827C105.909 150.961 150.514 137.028 172.702 111.712C183.728 99.1362 187.144 86.116 183.769 75.2029L180.201 63.6791C183.576 74.5923 180.159 87.6124 169.133 100.188Z" stroke="#DADADA" stroke-width="0.5" stroke-miterlimit="10"/>
<path d="M149.867 39.6357C182.7 47.7698 191.324 74.8786 169.136 100.195C146.948 125.512 102.341 139.438 69.5099 131.311C36.6764 123.177 28.0528 96.068 50.2432 70.7586C72.4335 45.4492 117.031 31.5189 149.862 39.6456L149.867 39.6357Z" stroke="#DADADA" stroke-width="0.5" stroke-miterlimit="10"/>
<path d="M168.323 63.4664C165.729 57.5437 160.628 53.1874 154.936 50.3302C151.4 48.551 147.612 47.2946 143.753 46.4129C130.352 43.3393 114.177 44.401 98.1913 49.3945C82.2132 54.3857 68.3455 62.7154 59.1512 72.8401C49.9495 82.9672 46.5248 93.6866 49.4948 103.015C53.0725 114.257 63.8909 119.716 74.9149 122.127C78.2484 122.855 81.6009 123.307 84.7757 123.562C101.231 124.854 117.609 121.433 132.594 114.658C140.129 111.249 147.309 106.929 153.601 101.545C163.999 92.653 174.547 77.6146 168.331 63.464L168.323 63.4664ZM157.792 95.4355C148.9 105.218 135.508 113.266 120.067 118.086C104.628 122.915 88.9901 123.937 76.04 120.966C66.9949 118.895 57.5489 114.139 53.1135 106.063C53.1229 106.093 53.1151 106.12 53.1246 106.15C53.0982 106.092 53.0742 106.043 53.0404 105.988C52.5155 105.007 52.0754 103.983 51.7173 102.932C51.67 102.783 51.6227 102.634 51.5731 102.478C51.5092 102.277 51.4454 102.076 51.3815 101.875C51.1202 100.974 50.9114 100.032 50.7673 99.0614C50.7373 98.9152 50.7198 98.7568 50.7024 98.5984C50.6778 98.4177 50.6607 98.2345 50.6361 98.0538C50.6163 97.888 50.6063 97.7272 50.5939 97.559C50.232 93.0587 51.2855 88.519 53.1859 84.4235C55.0862 80.328 57.8016 76.6542 60.8437 73.311C72.1199 60.8776 88.1721 52.8626 104.312 48.8449C111.399 47.0781 118.691 46.1074 126.003 46.081C138.349 46.0384 152.959 48.0068 161.864 57.4675C165.444 61.2738 167.279 65.5029 167.794 69.8397C168.874 78.8501 164.258 88.3246 157.807 95.4307L157.792 95.4355Z" fill="#DADADA"/>
<path d="M133.949 50.5092L133.963 50.5539C134.036 50.7847 134.112 51.023 134.185 51.2538C134.509 52.274 137.61 62.1429 137.697 62.4432C137.91 63.1134 137.683 63.7676 137.566 64.4356C137.385 65.4933 137.206 66.5583 137.018 67.6183C136.934 68.104 136.855 68.5798 136.771 69.0655L130.478 66.7683L133.953 51.09C134 50.8781 133.996 50.6828 133.939 50.5041L133.949 50.5092Z" stroke="#DADADA" stroke-width="0.5" stroke-miterlimit="10"/>
<path d="M95.5772 90.3754C96.2298 92.4307 99.3892 102.51 99.3892 102.51C99.3844 102.496 76.1399 105.564 75.3617 105.672C74.4025 105.804 73.0703 105.899 72.4631 104.969C72.41 104.879 72.3643 104.787 72.3336 104.69L68.5217 92.5553C68.5524 92.6521 68.5957 92.7367 68.6488 92.8264C68.7019 92.9162 68.775 92.9913 68.8457 93.059C69.0776 93.2723 69.4044 93.4227 69.7864 93.5145C70.1834 93.6016 70.6482 93.618 71.1513 93.5484L95.5651 90.3628L95.5772 90.3754Z" stroke="#DADADA" stroke-width="0.5" stroke-miterlimit="10"/>
<path d="M149.489 74.225L153.301 86.3601L153.311 86.3899C153.546 87.2087 152.77 88.0207 152.135 88.427C151.264 88.9907 127.222 96.3454 126.601 96.5345L122.789 84.3994L147.016 76.9039C148.159 76.5492 149.082 75.8627 149.414 75.1012C149.553 74.7869 149.572 74.4856 149.487 74.2176L149.489 74.225Z" stroke="#DADADA" stroke-width="0.5" stroke-miterlimit="10"/>
<path d="M112.49 100.195C111.956 100.865 111.325 101.41 110.43 101.718C109.453 102.053 107.882 102.199 107.07 101.424L95.5842 90.3732L99.3961 102.508C99.3961 102.508 110.87 113.547 110.882 113.559C111.758 114.404 113.458 114.176 114.483 113.76C116.188 113.055 117.005 111.337 117.959 109.87C118.966 108.312 119.976 106.762 120.983 105.204C122.051 103.554 123.119 101.903 124.194 100.25L126.333 96.9559C126.427 96.8114 126.515 96.6767 126.609 96.5322L122.797 84.3971C122.394 85.0168 122 85.634 121.597 86.2536C120.661 87.6985 119.724 89.1435 118.786 90.581C117.71 92.2341 116.642 93.8848 115.569 95.5453C114.759 96.7943 113.944 98.0531 113.134 99.3021C112.929 99.6131 112.722 99.9167 112.5 100.2L112.49 100.195Z" stroke="#DADADA" stroke-width="0.5" stroke-linecap="round" stroke-linejoin="round"/>
<path d="M149.489 74.225C149.575 74.4931 149.553 74.7869 149.417 75.1087C149.084 75.8702 148.162 76.5566 147.019 76.9114L122.791 84.4069L112.532 100.223C112.048 100.975 111.017 101.605 109.851 101.861C109.191 102.005 108.563 102.016 108.042 101.902C107.645 101.815 107.309 101.66 107.07 101.424L95.5839 90.3731L71.1702 93.5586C70.6647 93.6208 70.2022 93.6118 69.8053 93.5247C69.4157 93.4353 69.0913 93.2924 68.8646 93.0693C68.784 92.9965 68.7184 92.9189 68.6676 92.8367C68.6145 92.747 68.5712 92.6623 68.5405 92.5655C68.3655 92.0145 68.6548 91.3488 69.3461 90.7604L86.4728 76.4366L81.6448 62.5748C81.412 61.9191 81.8492 61.1246 82.7736 60.495C83.698 59.8653 84.9271 59.5489 85.9694 59.6524L108.031 61.8534L129.463 50.1054C130.476 49.5463 131.713 49.3337 132.675 49.5448C133.363 49.6953 133.82 50.0501 133.957 50.5067C134.014 50.6855 134.021 50.8882 133.971 51.0926L130.495 66.771L136.789 69.0682L148.56 73.3644C149.062 73.5494 149.376 73.8429 149.495 74.2152L149.489 74.225Z" stroke="#E2E2E2" stroke-width="0.5" stroke-miterlimit="10"/>
</g>
<defs>
<clipPath id="clip0_5046_12313">
<rect width="177.883" height="129.587" fill="white" transform="translate(0 53.8308) rotate(-17.615)"/>
</clipPath>
</defs>
</svg>
