<svg width="559" height="557" viewBox="0 0 559 557" fill="none" xmlns="http://www.w3.org/2000/svg">
<g filter="url(#filter0_f_4914_8822)">
<path d="M172.703 157.612C250.373 219.843 328.032 282.074 405.702 344.305C334.171 358.591 262.63 372.866 191.099 387.152C184.971 310.635 178.832 234.129 172.703 157.612Z" stroke="#A6A8AB" stroke-width="0.5" stroke-miterlimit="10"/>
<path d="M148.297 312.277C234.332 262.196 320.366 212.115 406.39 162.034C398.671 231.295 390.94 300.546 383.221 369.807C304.916 350.627 226.601 331.457 148.297 312.277Z" stroke="#A6A8AB" stroke-width="0.5" stroke-miterlimit="10"/>
<path d="M169.638 159.652C161.983 160.596 151.812 161.111 140.007 159.652C128.266 158.203 118.568 155.262 111.396 152.514" stroke="#A6A8AB" stroke-width="0.5" stroke-miterlimit="10"/>
<path d="M122.633 394.289C204.109 300.224 285.585 206.169 367.061 112.104C335.666 225.553 304.261 338.992 272.866 452.442C222.795 433.058 172.714 413.674 122.644 394.289H122.633Z" stroke="#A6A8AB" stroke-width="0.5" stroke-miterlimit="10"/>
<path d="M122.633 389.191L75.6264 335.118C76.3038 317.429 76.9919 299.752 77.6692 282.063C74.605 272.543 71.5408 263.023 68.4766 253.502" stroke="#A6A8AB" stroke-width="0.5" stroke-miterlimit="10"/>
<path d="M80.7344 202.498C112.075 188.212 143.417 173.937 174.758 159.651" stroke="#A6A8AB" stroke-width="0.5" stroke-miterlimit="10"/>
<path d="M152.264 112.715C163.51 107.95 174.745 103.195 185.992 98.4295C207.796 104.215 229.59 109.989 251.394 115.774C271.833 101.156 292.272 86.5264 312.711 71.9078C292.616 71.5644 272.51 71.2316 252.415 70.8882" stroke="#A6A8AB" stroke-width="0.5" stroke-miterlimit="10"/>
<path d="M344.396 86.1936C352.234 85.5174 360.062 84.8305 367.9 84.1543C383.231 92.9984 398.553 101.843 413.884 110.676C411.691 117.116 409.347 126.175 408.777 137.198C408.24 147.544 409.444 156.292 410.82 162.7" stroke="#A6A8AB" stroke-width="0.5" stroke-miterlimit="10"/>
<path d="M406.734 138.228C423.421 142.307 440.118 146.385 456.805 150.475C459.869 162.721 462.933 174.957 465.998 187.203C471.793 191.969 477.577 196.724 483.372 201.489L462.933 219.854" stroke="#A6A8AB" stroke-width="0.5" stroke-miterlimit="10"/>
<path d="M125.697 399.388C134.557 419.791 143.416 440.195 152.265 460.599C175.768 467.404 199.271 474.198 222.774 481.003" stroke="#A6A8AB" stroke-width="0.5" stroke-miterlimit="10"/>
<path d="M456.805 417.752C457.977 412.858 459.245 406.257 459.869 398.368C460.385 391.821 461.116 381.807 458.848 369.807C457.439 362.39 454.16 350.348 445.559 337.157" stroke="#A6A8AB" stroke-width="0.5" stroke-miterlimit="10"/>
<path d="M347.461 466.728C353.933 472.513 360.406 478.287 366.878 484.072C371.308 478.974 375.738 473.876 380.167 468.767C392.435 465.364 404.692 461.962 416.96 458.57C420.024 443.265 423.088 427.97 426.152 412.665" stroke="#A6A8AB" stroke-width="0.5" stroke-miterlimit="10"/>
<path d="M497.683 256.562L477.244 268.808C482.351 276.633 487.468 284.446 492.575 292.271C494.962 299.408 497.349 306.557 499.725 313.694C489.845 315.057 479.964 316.41 470.094 317.773C474.179 327.637 478.265 337.5 482.361 347.353C483.383 353.471 484.404 359.6 485.426 365.718" stroke="#A6A8AB" stroke-width="0.5" stroke-miterlimit="10"/>
<path d="M465.998 221.883C445.215 218.137 424.443 214.402 403.66 210.656C416.605 251.463 429.55 292.271 442.495 333.078" stroke="#A6A8AB" stroke-width="0.5" stroke-miterlimit="10"/>
<path d="M376.233 121.227C381.523 115.946 381.523 108.508 376.233 103.227C370.944 97.9465 363.493 98.9339 359.192 103.227C353.902 108.508 353.902 115.946 359.192 121.227C363.493 125.359 372.094 125.359 376.233 121.227Z" fill="#F1FAFA"/>
<path d="M391.286 393.689C400.877 391.542 406.177 381.968 403.027 373.543C400.877 365.117 391.286 358.677 382.846 361.822C374.406 363.969 367.955 373.543 371.106 381.968C373.256 390.555 381.696 395.835 391.286 393.689Z" fill="#F1FAFA"/>
<path d="M477.966 221.786C477.966 215.346 472.676 209.067 465.225 209.067C458.935 209.067 452.484 214.348 452.484 221.786C452.484 229.224 457.774 234.505 465.225 234.505C472.676 234.505 477.966 229.224 477.966 221.786Z" fill="#F1FAFA"/>
<path d="M456.796 191.079C457.785 196.359 464.236 199.504 469.537 198.506C474.827 197.519 477.977 191.079 476.977 185.787C475.988 180.506 469.537 177.362 464.236 178.36C458.947 179.347 455.635 185.787 456.796 191.079Z" fill="#F1FAFA"/>
<path d="M415.434 150.947C421.724 147.813 423.874 140.375 419.735 133.935C416.595 127.495 409.144 126.508 402.693 129.642C396.404 132.776 394.253 140.214 398.393 146.654C402.693 151.934 410.134 154.081 415.434 150.947Z" fill="#F1FAFA"/>
<path d="M407.327 159.287C399.887 161.079 394.586 168.088 396.737 174.27C398.887 180.453 407.327 184.853 414.767 183.072C422.207 181.279 427.508 174.27 425.358 168.088C423.207 161.079 415.767 157.645 407.327 159.287Z" fill="#F1FAFA"/>
<path d="M459.268 159.373C463.569 157.226 464.558 151.945 462.408 148.8C460.257 144.507 454.968 143.52 451.817 145.666C447.517 147.813 446.528 153.094 448.678 156.238C450.828 160.371 456.118 162.517 459.268 159.373Z" fill="#F1FAFA"/>
<path d="M362.504 91.3351C366.804 93.4817 370.944 92.3225 373.094 88.201C375.244 83.9077 374.083 79.7754 369.954 77.6288C365.654 75.4822 361.514 76.6413 359.364 80.7629C357.214 84.8952 358.375 89.1884 362.504 91.3351Z" fill="#F1FAFA"/>
<path d="M420.734 118.919C423.874 115.785 423.874 110.494 420.734 107.199C417.595 104.065 412.294 104.065 408.993 107.199C405.854 110.333 405.854 115.624 408.993 118.919C412.133 122.225 417.595 122.053 420.734 118.919Z" fill="#F1FAFA"/>
<path d="M472.676 283.717C478.966 285.863 486.406 281.57 487.567 275.291C489.718 268.851 485.417 261.424 479.127 260.426C472.838 258.279 465.397 262.572 464.236 268.851C462.086 275.13 465.225 281.57 472.676 283.717Z" fill="#F1FAFA"/>
<path d="M415.768 363.142C424.208 358.849 426.358 348.277 422.057 339.862C417.757 331.436 407.166 329.29 398.737 333.422C390.297 337.715 388.147 348.287 392.447 356.702C397.737 364.301 407.166 367.435 415.768 363.142Z" fill="#F1FAFA"/>
<path d="M476.31 203.626C477.299 207.919 481.6 210.066 485.9 208.906C490.201 207.919 492.19 203.626 491.19 199.332C490.201 195.039 485.9 192.892 481.6 194.052C477.299 195.211 475.149 199.332 476.31 203.626Z" fill="#F1FAFA"/>
<path d="M399.725 192.066C390.134 192.066 382.684 199.493 382.684 209.078C382.684 218.663 390.124 226.09 399.725 226.09C409.326 226.09 416.766 218.663 416.766 209.078C416.766 199.493 409.326 192.066 399.725 192.066Z" fill="#F1FAFA"/>
<path d="M194.779 404.583C203.219 402.436 209.67 392.862 206.519 384.437C204.369 376.011 194.779 369.571 186.339 372.716C177.899 374.863 171.448 384.437 174.598 392.862C176.748 401.449 186.339 406.729 194.779 404.583Z" fill="#F1FAFA"/>
<path d="M86.5946 280.078C87.5837 274.797 84.4442 269.506 79.1544 267.359C73.8646 266.372 68.564 269.506 66.4137 274.787C65.4246 280.067 68.564 285.359 73.8539 287.505C79.1437 288.665 84.4442 285.359 86.5946 280.078Z" fill="#F1FAFA"/>
<path d="M494.008 283.545C488.718 282.557 483.418 285.691 481.267 290.972C480.278 296.253 483.418 301.544 488.707 303.691C493.997 304.678 499.298 301.544 501.448 296.264C502.437 289.824 499.298 284.543 494.008 283.545Z" fill="#F1FAFA"/>
<path d="M491.029 255.971C491.029 260.265 494.169 264.397 499.469 264.397C503.77 264.397 507.909 261.263 507.909 255.971C507.909 251.678 504.77 247.546 499.469 247.546C494.18 248.533 491.029 251.839 491.029 255.971Z" fill="#F1FAFA"/>
<path d="M112.238 396.168C114.388 402.608 120.678 406.74 127.129 404.594C133.419 402.447 137.719 396.168 135.569 389.728C133.419 383.288 127.129 379.156 120.678 381.303C114.388 383.288 111.249 389.728 112.238 396.168Z" fill="#F1FAFA"/>
<path d="M177.08 433.155C181.381 440.582 189.821 442.729 197.261 438.435C204.701 434.142 206.851 425.717 202.551 418.289C198.25 410.862 189.81 408.715 182.37 413.009C174.93 417.302 172.78 426.715 177.08 433.155Z" fill="#F1FAFA"/>
<path d="M236.291 114.626C234.141 122.054 238.441 130.479 246.881 132.626C254.321 134.772 262.762 130.479 264.912 122.054C267.062 114.626 262.762 106.201 254.321 104.054C246.881 103.067 238.28 107.188 236.291 114.626Z" fill="#F1FAFA"/>
<path d="M375.406 483.193C374.417 478.899 370.116 476.753 365.815 477.912C361.515 478.899 359.526 483.193 360.526 487.486C361.515 491.779 365.815 493.926 370.116 492.767C373.256 491.608 376.567 487.486 375.406 483.193Z" fill="#F1FAFA"/>
<path d="M285.254 461.887C289.555 454.46 287.404 446.034 279.964 441.741C272.524 437.448 264.084 439.594 259.783 447.022C255.483 454.449 257.633 462.875 265.073 467.168C272.513 471.461 280.953 468.327 285.254 461.887Z" fill="#F1FAFA"/>
<path d="M346.624 454.46C340.334 454.46 333.883 459.741 333.883 467.179C333.883 474.617 339.173 479.898 346.624 479.898C352.913 479.898 359.364 474.617 359.364 467.179C359.364 459.741 354.074 454.46 346.624 454.46Z" fill="#F1FAFA"/>
<path d="M228.021 474.767C222.732 471.633 217.431 473.78 214.291 479.06C211.152 484.341 213.302 489.632 218.592 492.928C223.882 496.062 229.183 493.915 232.322 488.634C234.472 483.182 232.322 477.901 228.021 474.767Z" fill="#F1FAFA"/>
<path d="M146.31 452.474C143.17 455.608 143.17 460.9 146.31 464.195C149.449 467.329 154.75 467.329 158.05 464.195C161.19 461.061 161.19 455.769 158.05 452.474C154.739 449.34 149.449 449.34 146.31 452.474Z" fill="#F1FAFA"/>
<path d="M466.548 388.73C462.248 384.436 455.958 384.436 451.657 388.73C447.356 393.023 447.356 399.302 451.657 403.595C455.958 407.888 462.248 407.888 466.548 403.595C470.849 399.302 470.849 392.862 466.548 388.73Z" fill="#F1FAFA"/>
<path d="M483.751 327.97C486.89 321.53 484.74 314.102 479.45 310.957C473.16 307.823 465.72 309.97 462.409 315.251C459.269 321.691 461.42 329.118 466.709 332.263C473.16 335.397 480.6 333.25 483.751 327.97Z" fill="#F1FAFA"/>
<path d="M450.507 411.023C447.367 414.157 447.367 419.448 450.507 422.744C453.646 425.878 458.947 425.878 462.248 422.744C465.387 419.609 465.387 414.318 462.248 411.023C457.947 407.889 453.646 407.889 450.507 411.023Z" fill="#F1FAFA"/>
<path d="M486.901 337.715C481.611 334.581 476.31 336.728 473.171 342.009C470.031 347.289 472.182 352.581 476.31 355.876C481.6 359.01 486.901 356.863 490.04 352.742C493.18 346.141 492.19 340.849 486.901 337.715Z" fill="#F1FAFA"/>
<path d="M500.296 305.838C495.995 304.85 491.856 306.825 490.705 311.119C489.716 315.412 491.695 319.544 495.995 320.693C500.296 321.68 504.435 319.705 505.586 315.412C507.736 311.119 504.597 306.986 500.296 305.838Z" fill="#F1FAFA"/>
<path d="M390.125 466.02C389.136 460.739 382.685 457.594 377.384 458.592C372.094 459.58 368.944 466.02 369.944 471.311C370.933 476.592 377.384 479.737 382.685 478.738C389.136 476.592 392.275 471.311 390.125 466.02Z" fill="#F1FAFA"/>
<path d="M487.728 360.824C483.427 358.677 479.288 359.836 477.137 363.958C474.987 368.251 476.148 372.383 480.277 374.53C484.578 376.677 488.717 375.517 490.867 371.396C493.018 367.103 491.856 362.97 487.728 360.824Z" fill="#F1FAFA"/>
<path d="M465.558 377.836C470.848 372.555 470.848 365.117 465.558 359.836C460.269 354.555 452.818 354.555 447.528 359.836C442.238 365.117 442.238 372.555 447.528 377.836C452.818 382.129 461.419 382.129 465.558 377.836Z" fill="#F1FAFA"/>
<path d="M412.456 450.328C408.155 452.474 407.166 457.755 409.317 460.9C411.467 465.193 416.757 466.181 419.907 464.034C424.208 461.887 425.197 456.607 423.046 453.462C420.896 449.169 415.606 448.181 412.456 450.328Z" fill="#F1FAFA"/>
<path d="M454.807 350.423C460.097 345.142 460.097 335.558 454.807 329.118C449.517 323.837 439.916 323.837 433.637 329.118C428.347 334.398 428.347 343.983 433.637 350.423C439.927 355.704 448.528 355.704 454.807 350.423Z" fill="#F1FAFA"/>
<path d="M423.047 400.129C416.757 403.263 414.607 410.701 418.746 417.141C421.886 423.581 429.337 425.566 435.788 421.434C442.077 418.3 444.228 410.862 440.088 404.422C436.949 398.97 429.498 396.823 423.047 400.129Z" fill="#F1FAFA"/>
<path d="M309.572 77.6286C313.873 78.616 318.013 76.6411 319.163 72.3478C320.152 68.0546 318.174 63.9223 313.873 62.7739C309.572 61.7864 305.433 63.7613 304.283 68.0546C303.121 72.1868 305.272 76.4801 309.572 77.6286Z" fill="#F1FAFA"/>
<path d="M189.81 111.653C195.1 110.666 198.25 104.226 197.25 98.9342C196.261 93.6534 189.81 90.5086 184.509 91.5068C179.219 92.4942 176.069 98.9342 177.069 104.226C179.219 109.506 184.509 112.651 189.81 111.653Z" fill="#F1FAFA"/>
<path d="M157.889 161.348C160.039 168.775 168.479 174.067 175.92 171.92C183.36 169.773 188.66 161.348 186.51 153.92C184.36 146.493 175.92 141.202 168.479 143.348C161.039 145.334 155.739 153.92 157.889 161.348Z" fill="#F1FAFA"/>
<path d="M155.577 120.068C159.878 117.921 160.867 112.64 158.716 109.496C156.566 105.202 151.276 104.215 148.126 106.362C143.825 108.508 142.836 113.789 144.986 116.934C147.137 121.066 151.437 122.214 155.577 120.068Z" fill="#F1FAFA"/>
<path d="M340.172 95.4671C345.462 98.6012 350.762 96.4545 353.902 91.1738C357.041 85.8931 354.891 80.6016 349.601 77.3065C344.311 74.1725 339.011 76.3191 335.871 81.5998C333.882 87.0523 334.882 93.3204 340.172 95.4671Z" fill="#F1FAFA"/>
<path d="M255.643 78.627C259.944 78.627 264.083 75.4929 264.083 70.2014C264.083 65.9082 260.944 61.7759 255.643 61.7759C251.343 61.7759 248.203 64.91 247.203 69.2032C247.203 74.323 250.343 78.6162 255.643 78.6162V78.627Z" fill="#F1FAFA"/>
<path d="M117.689 159.372C120.829 156.238 120.829 150.947 117.689 147.652C114.55 144.518 109.249 144.518 105.948 147.652C102.809 150.786 102.809 156.077 105.948 159.372C109.088 162.678 114.388 162.678 117.689 159.372Z" fill="#F1FAFA"/>
<path d="M66.7472 265.223C71.0479 266.211 75.1873 264.236 76.3377 259.943C77.3268 255.649 75.3485 251.517 71.0479 250.369C66.7472 249.381 62.6078 251.356 61.4574 255.649C60.4682 258.955 62.4465 264.236 66.7472 265.223Z" fill="#F1FAFA"/>
<path d="M79.1554 209.078C83.456 211.225 87.5954 210.066 89.7458 205.944C91.8961 201.651 90.7349 197.519 86.6063 195.372C82.3056 193.225 78.1662 194.385 76.0159 198.506C73.8656 202.799 76.0159 207.093 79.1554 209.078Z" fill="#F1FAFA"/>
<path d="M144.159 169.773C150.448 166.639 152.599 159.201 148.459 152.761C145.32 146.321 137.869 144.336 131.418 148.468C125.128 151.602 123.978 159.04 127.117 165.48C131.418 170.761 138.858 172.907 144.159 169.773Z" fill="#F1FAFA"/>
</g>
<defs>
<filter id="filter0_f_4914_8822" x="-8" y="-7.5" width="575" height="572" filterUnits="userSpaceOnUse" color-interpolation-filters="sRGB">
<feFlood flood-opacity="0" result="BackgroundImageFix"/>
<feBlend mode="normal" in="SourceGraphic" in2="BackgroundImageFix" result="shape"/>
<feGaussianBlur stdDeviation="4" result="effect1_foregroundBlur_4914_8822"/>
</filter>
</defs>
</svg>
