<svg width="70" height="71" viewBox="0 0 70 71" fill="none" xmlns="http://www.w3.org/2000/svg">
<path d="M34.8263 25.8485L26.7168 34.1011L35.0009 42.5314L43.1104 34.2788L34.8263 25.8485Z" fill="#FFBA00"/>
<path d="M35.0013 16.2274L48.8382 30.3086L56.5141 22.4972L34.551 0.146484L12.5879 22.4972L20.3873 30.4342L35.0013 16.2274Z" fill="#FFBA00"/>
<path d="M48.7173 39.9844L34.5521 54.3997L20.3869 39.9844L12.7109 47.7958L34.674 70.1464L56.5184 47.9167L48.7173 39.9844Z" fill="#FFBA00"/>
<path d="M7.67614 27.0566L0 34.8682L8.01329 43.0229L15.6894 35.2113L7.67614 27.0566Z" fill="#FFBA00"/>
<path d="M61.8706 26.5963L53.4062 35.21L61.5356 43.4828L69.9999 34.8691L61.8706 26.5963Z" fill="#FFBA00"/>
</svg>
