<svg width="70" height="70" viewBox="0 0 70 70" fill="none" xmlns="http://www.w3.org/2000/svg">
<g clip-path="url(#clip0_6530_17289)">
<path fill-rule="evenodd" clip-rule="evenodd" d="M40.96 29.8023C40.96 33.6741 34.9198 33.2044 33.0018 33.2044V26.3895C34.9229 26.3895 40.96 25.7812 40.96 29.8117M42.5373 40.4128C42.5373 44.6455 35.3009 44.1617 32.9971 44.1617V36.6483C35.3009 36.6483 42.5373 35.9779 42.5373 40.4128ZM47.302 28.2966C46.9162 24.235 43.4396 22.8926 39.0389 22.471V16.8975H35.6602V22.3543C34.7642 22.3543 33.8511 22.3543 32.9427 22.387V16.8975H29.5438V22.4975H22.6542V26.1421C22.6542 26.1421 25.1649 26.0986 25.1276 26.1421C25.5801 26.0951 26.0334 26.2244 26.393 26.5031C26.7525 26.7819 26.9908 27.1886 27.058 27.6386V42.9795C27.0487 43.1373 27.0083 43.2917 26.9392 43.4338C26.8701 43.576 26.7736 43.7031 26.6552 43.8079C26.5368 43.9127 26.3989 43.993 26.2494 44.0444C26.0999 44.0958 25.9418 44.1171 25.784 44.1072C25.8276 44.1477 23.3107 44.1072 23.3107 44.1072L22.6387 48.1797H29.5018V53.8746H32.9053V48.2637H35.6213V53.8419H39.0218V48.2201C44.7633 47.8841 48.7549 46.453 49.2713 41.0646C49.4536 40.2784 49.4694 39.4628 49.3179 38.6702C49.1663 37.8775 48.8508 37.1253 48.3915 36.4618C47.9321 35.7983 47.3391 35.2381 46.6506 34.8173C45.962 34.3964 45.1931 34.1241 44.3931 34.0179C45.4452 33.5193 46.3026 32.6863 46.8314 31.649C47.3602 30.6117 47.5306 29.4285 47.316 28.2841" fill="#F09242"/>
<path d="M16.5507 14.1798C19.9966 11.0624 24.18 8.8742 28.706 7.82175C33.2321 6.76929 37.9517 6.88726 42.4196 8.16452L42.8085 8.27496C43.0029 8.33251 43.1942 8.39318 43.3871 8.45696C43.6625 8.54563 43.9378 8.63896 44.2054 8.73385L44.4729 8.83184C44.8385 8.96562 45.2056 9.10874 45.5618 9.26118L45.6054 9.2814C48.4679 10.5124 51.1279 12.1691 53.4951 14.1954L54.9916 12.5776C54.7894 12.3754 54.5825 12.1918 54.3787 11.999C49.1966 7.51101 42.6207 4.9552 35.768 4.76562H34.5951C32.3725 4.79661 30.1597 5.06676 27.9949 5.57141L27.55 5.68029L27.1814 5.77829C25.0216 6.35587 22.9342 7.1762 20.9591 8.22362C18.7985 9.38392 16.8316 10.8733 15.1289 12.6383L16.5507 14.1798Z" fill="#F09242"/>
<path d="M14.6557 16.0605L13.0099 14.6216C1.85348 26.3147 3.47903 45.3407 13.0099 54.4065L14.6884 53.0936C10.0488 48.0447 7.47145 41.4395 7.4654 34.5826C7.45935 27.7257 10.0251 21.1175 14.6557 16.0605Z" fill="#F09242"/>
<path d="M57.6916 15.3403C57.4396 15.0727 57.1721 14.8083 56.8998 14.5625L55.4609 16.1398C59.9601 21.1586 62.4702 27.6485 62.5189 34.3886C62.5676 41.1286 60.1516 47.6541 55.7254 52.7374L57.1254 54.4314C61.9207 49.0812 64.6204 42.1779 64.7267 34.9941C64.8331 27.8102 62.3389 20.83 57.7041 15.3403H57.6916Z" fill="#F09242"/>
<path d="M53.6063 54.9932C52.6325 55.7227 51.6649 56.3932 50.6958 57.0154C47.1772 59.5038 43.1197 61.1242 38.8549 61.7443C36.6729 62.0926 34.4539 62.1449 32.2578 61.8998C26.7258 61.3637 21.4887 59.1535 17.2452 55.564L16.5732 55.0772L15.0254 56.4632C20.4414 61.6376 27.6722 64.4791 35.1621 64.3763H35.7221C42.5148 64.1987 49.0409 61.6954 54.2098 57.2845C54.4447 57.062 54.6765 56.8458 54.9083 56.6125L53.6063 54.9932Z" fill="#F09242"/>
<path d="M34.9876 1.99693C41.4458 1.99447 47.7598 3.9074 53.1307 7.49375C58.5017 11.0801 62.6884 16.1788 65.1613 22.1449C67.6342 28.1109 68.2822 34.6764 67.0233 41.0108C65.7644 47.3451 62.6552 53.1639 58.0889 57.731C53.5227 62.2981 47.7045 65.4084 41.3704 66.6685C35.0362 67.9286 28.4707 67.2819 22.5041 64.8101C16.5376 62.3384 11.4381 58.1526 7.85074 52.7824C4.26336 47.4121 2.34923 41.0985 2.35046 34.6403C2.35211 25.9843 5.79098 17.6832 11.9111 11.562C18.0312 5.44069 26.3316 2.00023 34.9876 1.99693ZM34.9876 -0.353513C28.0652 -0.351052 21.2991 1.70407 15.5447 5.55196C9.79036 9.39986 5.30626 14.8677 2.65947 21.2641C0.0126789 27.6604 -0.677936 34.698 0.674961 41.4869C2.02786 48.2757 5.3635 54.5109 10.2601 59.404C15.1567 64.2971 21.3942 67.6283 28.1841 68.9764C34.9739 70.3245 42.011 69.6288 48.4054 66.9775C54.7999 64.3262 60.2646 59.8382 64.1084 54.0811C67.9522 48.324 70.0025 41.5564 70 34.634C69.9984 30.0378 69.0914 25.4868 67.331 21.2411C65.5706 16.9953 62.9912 13.1378 59.7399 9.88895C56.4887 6.64005 52.6295 4.06334 48.3824 2.30594C44.1354 0.548535 39.5838 -0.355148 34.9876 -0.353513Z" fill="#F09242"/>
</g>
<defs>
<clipPath id="clip0_6530_17289">
<rect width="70" height="70" fill="white" transform="translate(0 -0.353516)"/>
</clipPath>
</defs>
</svg>
