<svg width="19" height="19" viewBox="0 0 19 19" fill="none" xmlns="http://www.w3.org/2000/svg">
<g clip-path="url(#clip0_5241_105154)">
<path d="M9.7998 18.8008C14.7704 18.8008 18.7998 14.7713 18.7998 9.80078C18.7998 4.83022 14.7704 0.800781 9.7998 0.800781C4.82924 0.800781 0.799805 4.83022 0.799805 9.80078C0.799805 14.7713 4.82924 18.8008 9.7998 18.8008Z" fill="#F79517"/>
<path d="M13.6712 8.77281C13.6471 9.09151 13.5182 9.39327 13.3046 9.63102C13.091 9.86877 12.8047 10.0291 12.4904 10.0871C12.8739 10.272 13.1811 10.5846 13.3592 10.9713C13.506 11.4092 13.4799 11.8867 13.2861 12.306C13.1961 12.5552 13.0639 12.787 12.8953 12.9913C12.7516 13.1656 12.5743 13.3093 12.374 13.4138C12.1654 13.5157 11.9406 13.5805 11.7097 13.6053C11.4537 13.6368 11.1951 13.6407 10.9383 13.617C10.6418 13.5878 10.3474 13.5407 10.0566 13.4759L9.65337 14.9799L8.74533 14.7365L9.14264 13.2546C8.82837 13.1703 8.58898 13.1041 8.42451 13.0559L8.02591 14.5425L7.11788 14.2991L7.52115 12.795C7.41349 12.7696 7.30433 12.7511 7.19434 12.7395C7.08236 12.7276 6.97127 12.7085 6.86173 12.6824L5.68224 12.3662L6.15413 11.3361L6.80907 11.5117C6.85046 11.5268 6.89446 11.5333 6.93844 11.5308C6.98241 11.5284 7.02544 11.5171 7.06493 11.4976C7.10441 11.4781 7.13954 11.4508 7.16818 11.4173C7.19682 11.3839 7.21839 11.345 7.23159 11.303L7.86769 8.93046L7.96428 8.95636C7.9335 8.94326 7.90173 8.93266 7.86924 8.92467L8.32327 7.23128C8.3393 7.10424 8.30445 6.97602 8.22633 6.87457C8.1482 6.77313 8.03313 6.70669 7.90622 6.68975L7.25126 6.51414L7.51026 5.54814L8.75872 5.88908C9.01052 5.9566 9.20166 6.00578 9.33214 6.03662L9.731 4.54898L10.639 4.79244L10.2485 6.24916C10.5725 6.32777 10.8135 6.38823 10.9712 6.43053L11.3597 4.98153L12.2678 5.22499L11.8692 6.71166C12.1416 6.80843 12.4059 6.92673 12.6596 7.06544C12.8771 7.18624 13.0773 7.3357 13.2549 7.50981C13.4222 7.67314 13.5458 7.87574 13.6147 8.09912C13.6844 8.33756 13.6961 8.58921 13.6488 8.83308L13.6712 8.77281ZM11.5411 11.6466C11.5787 11.5159 11.5829 11.3779 11.5535 11.2451C11.5273 11.1265 11.4779 11.0144 11.408 10.9151C11.3273 10.8088 11.2289 10.7173 11.1171 10.6445C11.0031 10.5654 10.8838 10.4943 10.7599 10.4318C10.6229 10.3662 10.4818 10.3094 10.3376 10.2616C10.1674 10.2035 10.0334 10.1614 9.93552 10.1351C9.83763 10.1089 9.71025 10.0768 9.55337 10.0389L9.27168 9.96958L8.7371 11.9634C8.80898 11.9885 8.87921 12.018 8.94739 12.0519C9.03599 12.0947 9.12797 12.1301 9.2224 12.1577C9.2971 12.1777 9.40221 12.2028 9.53772 12.2329C9.67322 12.2631 9.79024 12.2862 9.88879 12.3022C9.98798 12.3185 10.1045 12.3318 10.2384 12.3421C10.3546 12.3527 10.4714 12.3546 10.5879 12.3478C10.6934 12.3396 10.7982 12.3234 10.9012 12.2993C11.0007 12.2783 11.0957 12.2396 11.1814 12.1849C11.2612 12.1313 11.3316 12.0648 11.3895 11.9881C11.4534 11.9029 11.4998 11.8059 11.5261 11.7027L11.5411 11.6466ZM11.8755 8.72728C11.9098 8.60886 11.9163 8.4841 11.8945 8.36274C11.8755 8.25803 11.8371 8.1578 11.7812 8.06727C11.7173 7.9727 11.6364 7.89093 11.5424 7.8262C11.4481 7.75677 11.3482 7.69535 11.2437 7.64257C11.13 7.5879 11.0133 7.53967 10.8942 7.49811C10.7537 7.44801 10.641 7.41262 10.5561 7.39193L10.2358 7.31226C10.1584 7.28556 10.0766 7.27452 9.99492 7.27979L9.50956 9.09007C9.52952 9.09543 9.59479 9.12362 9.70535 9.17467C9.79033 9.21893 9.88397 9.24403 9.9797 9.24822C10.0821 9.25299 10.1829 9.27581 10.2774 9.31563C10.383 9.35887 10.497 9.3774 10.6108 9.36981C10.718 9.3602 10.8259 9.36579 10.9315 9.38641C11.0385 9.41021 11.1503 9.39919 11.2506 9.35496C11.3349 9.31481 11.4222 9.28109 11.5116 9.2541C11.6048 9.22115 11.683 9.15573 11.7319 9.06982C11.7913 8.98211 11.8364 8.88552 11.8655 8.78364L11.8755 8.72728Z" fill="#FFFDFA"/>
</g>
<defs>
<clipPath id="clip0_5241_105154">
<rect width="18" height="18" fill="white" transform="translate(0.799805 0.800781)"/>
</clipPath>
</defs>
</svg>
