<svg width="19" height="19" viewBox="0 0 19 19" fill="none" xmlns="http://www.w3.org/2000/svg">
<g clip-path="url(#clip0_5241_105237)">
<path d="M18.7998 9.80078C18.7998 4.83022 14.7704 0.800781 9.7998 0.800781C4.82924 0.800781 0.799805 4.83022 0.799805 9.80078C0.799805 14.7713 4.82924 18.8008 9.7998 18.8008C14.7704 18.8008 18.7998 14.7713 18.7998 9.80078Z" fill="#FFE8B4"/>
<path fill-rule="evenodd" clip-rule="evenodd" d="M6.5928 6.36537C6.56105 6.18387 6.56727 5.99776 6.61107 5.81879C6.65486 5.63982 6.73529 5.47187 6.84727 5.32554C6.95924 5.17922 7.10034 5.0577 7.26164 4.96865C7.42295 4.87961 7.60097 4.82497 7.78445 4.80819C7.96794 4.7914 8.15291 4.81284 8.3277 4.87115C8.50248 4.92946 8.66328 5.02337 8.79994 5.14695C8.9366 5.27054 9.04616 5.42111 9.1217 5.58917C9.19723 5.75723 9.23711 5.93912 9.2388 6.12337V7.74837C9.4228 7.7357 9.6098 7.72937 9.7998 7.72937C9.9898 7.72937 10.1698 7.73537 10.3398 7.74737V6.12037C10.3411 5.93575 10.3808 5.75343 10.4562 5.58494C10.5317 5.41646 10.6414 5.26549 10.7782 5.1416C10.9151 5.0177 11.0762 4.9236 11.2514 4.86523C11.4265 4.80687 11.6119 4.78553 11.7957 4.80256C11.9795 4.81958 12.1578 4.87461 12.3193 4.96415C12.4807 5.05369 12.6218 5.17579 12.7336 5.32272C12.8454 5.46964 12.9255 5.63818 12.9687 5.81766C13.0119 5.99715 13.0174 6.18365 12.9848 6.36537L12.6238 8.27737C13.2041 8.45598 13.7194 8.80059 14.106 9.26867C14.4927 9.73675 14.7339 10.3078 14.7998 10.9114V11.6184C14.7659 12.1039 14.6061 12.5722 14.336 12.9771C14.066 13.382 13.695 13.7095 13.2598 13.9274C12.205 14.5217 11.0103 14.8228 9.7998 14.7994C8.58921 14.8225 7.39451 14.5211 6.3398 13.9264C5.90471 13.7086 5.53387 13.3812 5.26382 12.9765C4.99378 12.5718 4.83385 12.1037 4.7998 11.6184V10.9114C4.86453 10.3113 5.10301 9.74316 5.486 9.27669C5.86898 8.81021 6.37981 8.46568 6.9558 8.28537L6.5928 6.36537ZM12.1608 8.52837L12.5828 6.28937C12.6049 6.16338 12.6007 6.03417 12.5704 5.9099C12.5401 5.78564 12.4843 5.66901 12.4066 5.56739C12.3289 5.46578 12.231 5.38138 12.119 5.31953C12.007 5.25769 11.8834 5.21974 11.7561 5.20808C11.6287 5.19642 11.5003 5.21131 11.3789 5.25181C11.2576 5.29231 11.146 5.35753 11.0511 5.44336C10.9563 5.52919 10.8803 5.63376 10.8279 5.75046C10.7755 5.86716 10.7479 5.99345 10.7468 6.12137V8.19237C10.6135 8.17503 10.4775 8.1617 10.3388 8.15237C10.1621 8.1397 9.98247 8.13337 9.7998 8.13337C9.61714 8.13337 9.43014 8.14037 9.2388 8.15437C9.1008 8.1617 8.9648 8.17537 8.8308 8.19537V6.12037C8.82972 5.99245 8.80211 5.86616 8.74973 5.74946C8.69735 5.63276 8.62134 5.52819 8.52649 5.44236C8.43164 5.35653 8.32002 5.29131 8.19869 5.25081C8.07735 5.21031 7.94893 5.19542 7.82155 5.20708C7.69417 5.21874 7.57058 5.25669 7.45861 5.31853C7.34664 5.38038 7.24871 5.46478 7.17102 5.56639C7.09332 5.66801 7.03755 5.78464 7.00722 5.9089C6.97689 6.03317 6.97266 6.16238 6.9948 6.28837L7.4178 8.53537C6.0928 9.02337 5.2078 9.90437 5.2078 10.9114V11.6184C5.2078 13.1524 7.2638 14.3954 9.7998 14.3954C12.3358 14.3954 14.3918 13.1524 14.3918 11.6184V10.9114C14.3918 9.89937 13.4998 9.01437 12.1608 8.52837Z" fill="#633001"/>
<path d="M14.351 11.2927C14.351 12.9837 12.314 14.3547 9.80098 14.3547C7.28798 14.3547 5.25098 12.9837 5.25098 11.2927V10.5137H14.351V11.2927Z" fill="#FEDC90"/>
<path fill-rule="evenodd" clip-rule="evenodd" d="M7.01998 6.31153C6.99884 6.18702 7.00367 6.05949 7.03417 5.93695C7.06467 5.8144 7.12018 5.69949 7.19722 5.59942C7.27425 5.49935 7.37115 5.41629 7.48181 5.35546C7.59248 5.29463 7.71453 5.25734 7.8403 5.24593C7.96607 5.23452 8.09284 5.24925 8.21265 5.28917C8.33245 5.3291 8.44271 5.39336 8.53649 5.47794C8.63028 5.56251 8.70556 5.66556 8.75761 5.78062C8.80967 5.89567 8.83737 6.02025 8.83898 6.14653V8.18153C9.46982 8.10215 10.1081 8.10215 10.739 8.18153V6.14553C10.7417 6.01989 10.7701 5.89615 10.8227 5.782C10.8752 5.66785 10.9507 5.56573 11.0444 5.482C11.1381 5.39826 11.248 5.33471 11.3674 5.29528C11.4867 5.25585 11.6128 5.24139 11.738 5.2528C11.8631 5.26422 11.9846 5.30126 12.0948 5.36162C12.205 5.42199 12.3016 5.50439 12.3786 5.60369C12.4556 5.70299 12.5114 5.81708 12.5424 5.93885C12.5734 6.06063 12.5791 6.18748 12.559 6.31153L12.14 8.51153C13.464 8.98853 14.35 9.85753 14.35 10.8505C14.35 12.3565 12.313 13.5775 9.79998 13.5775C7.28698 13.5775 5.25098 12.3545 5.25098 10.8475C5.25098 9.85953 6.12798 8.99353 7.44098 8.51553L7.01998 6.31153Z" fill="#D1884F"/>
<path d="M8.59763 10.6924C8.59763 11.1534 8.34563 11.5274 8.03563 11.5274C7.72563 11.5274 7.47363 11.1534 7.47363 10.6924C7.47363 10.2314 7.72563 9.85742 8.03563 9.85742C8.34563 9.85742 8.59763 10.2314 8.59763 10.6924Z" fill="#633001"/>
<path d="M12.0771 10.6924C12.0771 11.1534 11.8251 11.5274 11.5151 11.5274C11.2051 11.5274 10.9531 11.1534 10.9531 10.6924C10.9531 10.2314 11.2051 9.85742 11.5151 9.85742C11.8251 9.85742 12.0771 10.2314 12.0771 10.6924Z" fill="#633001"/>
</g>
<defs>
<clipPath id="clip0_5241_105237">
<rect width="18" height="18" fill="white" transform="translate(0.799805 0.800781)"/>
</clipPath>
</defs>
</svg>
