<svg width="26" height="25" viewBox="0 0 26 25" fill="none" xmlns="http://www.w3.org/2000/svg">
<mask id="mask0_7024_53492" style="mask-type:luminance" maskUnits="userSpaceOnUse" x="1" y="0" width="24" height="25">
<path d="M25 0.292969L1 0.292969L1 24.293H25V0.292969Z" fill="white"/>
</mask>
<g mask="url(#mask0_7024_53492)">
<path d="M17.4596 23.4335C23.6122 20.9702 26.6029 13.9856 24.1395 7.83293C21.6762 1.68033 14.6916 -1.3104 8.53898 1.15296C2.38638 3.61632 -0.604342 10.601 1.85901 16.7536C4.32237 22.9062 11.307 25.8969 17.4596 23.4335Z" fill="#F1B709"/>
<path d="M15.0375 0.472891L1.1875 14.3129C1.3875 15.5029 1.7675 16.6629 2.3075 17.7329L18.4475 1.60289C17.3775 1.05289 16.2275 0.672891 15.0375 0.462891V0.472891ZM21.0175 3.37289L4.0775 20.3129C4.4275 20.6929 4.7975 21.0629 5.1975 21.3929L22.1075 4.48289C21.7675 4.09289 21.4075 3.71289 21.0175 3.37289ZM23.2475 6.05289L6.7675 22.5229C7.7575 23.1329 8.8275 23.5929 9.9475 23.8929L24.5975 9.24289C24.2975 8.12289 23.8475 7.04289 23.2375 6.05289H23.2475Z" fill="#EEA404"/>
<path d="M21.7299 14.3879C22.8868 9.56522 19.9151 4.71778 15.0925 3.56084C10.2698 2.40391 5.42236 5.37559 4.26543 10.1983C3.1085 15.021 6.08018 19.8684 10.9028 21.0254C15.7255 22.1823 20.573 19.2106 21.7299 14.3879Z" fill="#EEB80B"/>
<path d="M21.5185 13.692C22.2903 8.98872 19.1033 4.55021 14.4 3.77833C9.69673 3.00645 5.25822 6.19349 4.48634 10.8968C3.71446 15.6001 6.9015 20.0386 11.6048 20.8105C16.3081 21.5824 20.7466 18.3953 21.5185 13.692Z" fill="#FFE576"/>
<path d="M12.4752 17.3837V6.47461H13.174V17.3837H12.4752ZM14.8274 9.74733C14.7763 9.31552 14.5689 8.98029 14.2053 8.74165C13.8417 8.50302 13.3956 8.3837 12.8672 8.3837C12.4809 8.3837 12.1428 8.4462 11.853 8.5712C11.5661 8.6962 11.3417 8.86807 11.1797 9.08682C11.0206 9.30557 10.9411 9.55415 10.9411 9.83256C10.9411 10.0655 10.9965 10.2658 11.1073 10.4334C11.2209 10.5982 11.3658 10.736 11.5419 10.8467C11.7181 10.9547 11.9027 11.0442 12.0959 11.1152C12.2891 11.1834 12.4667 11.2388 12.6286 11.2814L13.5149 11.52C13.7422 11.5797 13.9951 11.6621 14.2735 11.7672C14.5547 11.8723 14.8232 12.0158 15.0789 12.1976C15.3374 12.3766 15.5505 12.6067 15.7181 12.8879C15.8857 13.1692 15.9695 13.5144 15.9695 13.9235C15.9695 14.395 15.8459 14.8212 15.5988 15.2019C15.3544 15.5825 14.9965 15.8851 14.5249 16.1095C14.0561 16.334 13.4865 16.4462 12.8161 16.4462C12.1911 16.4462 11.6499 16.3453 11.1925 16.1436C10.738 15.9419 10.38 15.6607 10.1186 15.2999C9.86009 14.9391 9.71378 14.52 9.67969 14.0428H10.7706C10.799 14.3723 10.9098 14.645 11.103 14.861C11.299 15.074 11.5462 15.2331 11.8445 15.3382C12.1456 15.4405 12.4695 15.4916 12.8161 15.4916C13.2195 15.4916 13.5817 15.4263 13.9027 15.2956C14.2238 15.1621 14.478 14.9774 14.6655 14.7416C14.853 14.503 14.9468 14.2246 14.9468 13.9064C14.9468 13.6166 14.8658 13.3808 14.7039 13.199C14.5419 13.0172 14.3289 12.8695 14.0647 12.7558C13.8005 12.6422 13.5149 12.5428 13.2081 12.4575L12.1343 12.1507C11.4524 11.9547 10.9127 11.6749 10.5149 11.3112C10.1172 10.9476 9.91832 10.4717 9.91832 9.8837C9.91832 9.39506 10.0504 8.96892 10.3146 8.60529C10.5817 8.23881 10.9397 7.95472 11.3885 7.75302C11.8402 7.54847 12.3445 7.4462 12.9013 7.4462C13.4638 7.4462 13.9638 7.54705 14.4013 7.74875C14.8388 7.94762 15.1854 8.22035 15.4411 8.56694C15.6996 8.91353 15.836 9.30699 15.8502 9.74733H14.8274Z" fill="#EEA404"/>
</g>
</svg>
