<svg width="246" height="35" viewBox="0 0 246 35" fill="none" xmlns="http://www.w3.org/2000/svg">
<path d="M4.53022 11.6945C3.13801 11.6945 2.03496 11.3089 1.22105 10.5379C0.407148 9.75609 0.000196104 8.64233 0.000196104 7.19658V4.49784C0.000196104 3.05209 0.407148 1.94368 1.22105 1.17261C2.03496 0.390837 3.13801 -5.07466e-05 4.53022 -5.07466e-05C5.91171 -5.07466e-05 6.97728 0.380128 7.72693 1.14049C8.48729 1.89014 8.86747 2.92358 8.86747 4.24082V4.3372H6.77916V4.17656C6.77916 3.51259 6.59175 2.96642 6.21692 2.53804C5.85281 2.10967 5.29057 1.89549 4.53022 1.89549C3.78057 1.89549 3.19156 2.12574 2.76319 2.58624C2.33482 3.04674 2.12063 3.67323 2.12063 4.46571V7.2287C2.12063 8.01048 2.33482 8.63697 2.76319 9.10818C3.19156 9.56868 3.78057 9.79893 4.53022 9.79893C5.29057 9.79893 5.85281 9.58474 6.21692 9.15637C6.59175 8.71729 6.77916 8.17112 6.77916 7.51785V7.2287H8.86747V7.4536C8.86747 8.77084 8.48729 9.80964 7.72693 10.57C6.97728 11.3196 5.91171 11.6945 4.53022 11.6945ZM14.4506 11.6945C13.6581 11.6945 12.9459 11.5338 12.3141 11.2126C11.6822 10.8913 11.1842 10.4254 10.8201 9.81499C10.456 9.20456 10.2739 8.47098 10.2739 7.61424V7.35721C10.2739 6.50047 10.456 5.76689 10.8201 5.15646C11.1842 4.54603 11.6822 4.08018 12.3141 3.7589C12.9459 3.43762 13.6581 3.27698 14.4506 3.27698C15.243 3.27698 15.9552 3.43762 16.587 3.7589C17.2189 4.08018 17.7169 4.54603 18.081 5.15646C18.4451 5.76689 18.6272 6.50047 18.6272 7.35721V7.61424C18.6272 8.47098 18.4451 9.20456 18.081 9.81499C17.7169 10.4254 17.2189 10.8913 16.587 11.2126C15.9552 11.5338 15.243 11.6945 14.4506 11.6945ZM14.4506 9.89531C15.0717 9.89531 15.5857 9.69719 15.9927 9.30095C16.3996 8.89399 16.6031 8.31569 16.6031 7.56605V7.40541C16.6031 6.65576 16.3996 6.08281 15.9927 5.68657C15.5964 5.27962 15.0824 5.07614 14.4506 5.07614C13.8294 5.07614 13.3154 5.27962 12.9084 5.68657C12.5015 6.08281 12.298 6.65576 12.298 7.40541V7.56605C12.298 8.31569 12.5015 8.89399 12.9084 9.30095C13.3154 9.69719 13.8294 9.89531 14.4506 9.89531ZM20.4955 11.4696V3.50188H22.4874V4.54603H22.7765C22.9051 4.26759 23.146 4.00521 23.4994 3.7589C23.8528 3.50188 24.3883 3.37337 25.1058 3.37337C25.7269 3.37337 26.2678 3.51794 26.7283 3.80709C27.1995 4.08553 27.5636 4.47642 27.8206 4.97976C28.0776 5.47238 28.2061 6.05068 28.2061 6.71466V11.4696H26.1821V6.8753C26.1821 6.27558 26.0322 5.82579 25.7323 5.52593C25.4432 5.22607 25.0255 5.07614 24.4793 5.07614C23.8582 5.07614 23.3763 5.28497 23.0336 5.70263C22.6909 6.10959 22.5195 6.68253 22.5195 7.42147V11.4696H20.4955ZM30.3942 11.4696V3.50188H32.3861V4.54603H32.6753C32.8038 4.26759 33.0448 4.00521 33.3982 3.7589C33.7516 3.50188 34.287 3.37337 35.0046 3.37337C35.6257 3.37337 36.1665 3.51794 36.627 3.80709C37.0982 4.08553 37.4623 4.47642 37.7194 4.97976C37.9764 5.47238 38.1049 6.05068 38.1049 6.71466V11.4696H36.0808V6.8753C36.0808 6.27558 35.9309 5.82579 35.6311 5.52593C35.3419 5.22607 34.9242 5.07614 34.3781 5.07614C33.7569 5.07614 33.275 5.28497 32.9323 5.70263C32.5896 6.10959 32.4183 6.68253 32.4183 7.42147V11.4696H30.3942ZM43.9234 11.6945C43.1309 11.6945 42.4295 11.5285 41.819 11.1965C41.2193 10.8538 40.7481 10.3772 40.4054 9.7668C40.0734 9.14566 39.9074 8.41743 39.9074 7.58211V7.38934C39.9074 6.55402 40.0734 5.83114 40.4054 5.22072C40.7374 4.59958 41.2033 4.12302 41.803 3.79103C42.4027 3.44833 43.0988 3.27698 43.8913 3.27698C44.6731 3.27698 45.3531 3.45369 45.9314 3.80709C46.5097 4.14979 46.9595 4.63171 47.2808 5.25284C47.602 5.86327 47.7627 6.57544 47.7627 7.38934V8.08009H41.9636C41.985 8.62626 42.1885 9.0707 42.574 9.41339C42.9596 9.75609 43.4308 9.92744 43.9877 9.92744C44.5553 9.92744 44.9729 9.80428 45.2406 9.55797C45.5084 9.31166 45.7119 9.03857 45.8511 8.73871L47.5057 9.60616C47.3557 9.8846 47.1362 10.1898 46.847 10.5218C46.5686 10.8431 46.1938 11.1215 45.7226 11.3571C45.2514 11.582 44.6516 11.6945 43.9234 11.6945ZM41.9797 6.57008H45.7065C45.6637 6.10959 45.4763 5.74012 45.1443 5.46167C44.823 5.18323 44.4 5.04401 43.8752 5.04401C43.329 5.04401 42.8953 5.18323 42.574 5.46167C42.2528 5.74012 42.0546 6.10959 41.9797 6.57008ZM53.3071 11.6945C52.536 11.6945 51.8346 11.5338 51.2027 11.2126C50.5816 10.8913 50.089 10.4254 49.7249 9.81499C49.3607 9.20456 49.1787 8.46562 49.1787 7.59817V7.37328C49.1787 6.50583 49.3607 5.76689 49.7249 5.15646C50.089 4.54603 50.5816 4.08018 51.2027 3.7589C51.8346 3.43762 52.536 3.27698 53.3071 3.27698C54.0675 3.27698 54.7207 3.41085 55.2669 3.67858C55.8131 3.94631 56.2522 4.31578 56.5841 4.78699C56.9268 5.24749 57.1517 5.77224 57.2588 6.36125L55.299 6.77891C55.2562 6.45764 55.1598 6.16849 55.0099 5.91146C54.86 5.65444 54.6458 5.45097 54.3673 5.30104C54.0996 5.15111 53.7623 5.07614 53.3553 5.07614C52.9484 5.07614 52.5789 5.16717 52.2469 5.34923C51.9256 5.52058 51.6686 5.78295 51.4758 6.13636C51.2938 6.47906 51.2027 6.90207 51.2027 7.40541V7.56605C51.2027 8.06938 51.2938 8.49775 51.4758 8.85116C51.6686 9.19385 51.9256 9.45623 52.2469 9.63829C52.5789 9.80964 52.9484 9.89531 53.3553 9.89531C53.9657 9.89531 54.4262 9.74003 54.7368 9.42946C55.0581 9.10818 55.2616 8.69052 55.3472 8.17647L57.307 8.64233C57.1678 9.20992 56.9268 9.72932 56.5841 10.2005C56.2522 10.661 55.8131 11.0251 55.2669 11.2929C54.7207 11.5606 54.0675 11.6945 53.3071 11.6945ZM61.7621 11.4696C61.2374 11.4696 60.809 11.3089 60.477 10.9877C60.1557 10.6557 59.9951 10.2166 59.9951 9.67042V5.17252H58.0032V3.50188H59.9951V1.02804H62.0191V3.50188H64.2038V5.17252H62.0191V9.31701C62.0191 9.63829 62.1691 9.79893 62.4689 9.79893H64.0111V11.4696H61.7621ZM72.5886 11.6945C72.021 11.6945 71.5123 11.5981 71.0625 11.4053C70.6127 11.2018 70.2539 10.9127 69.9862 10.5379C69.7292 10.1523 69.6007 9.68648 69.6007 9.14031C69.6007 8.59413 69.7292 8.13899 69.9862 7.77488C70.2539 7.40005 70.6181 7.12161 71.0786 6.93955C71.5498 6.74679 72.0852 6.6504 72.6849 6.6504H74.8696V6.20061C74.8696 5.82579 74.7518 5.52058 74.5162 5.28497C74.2806 5.03866 73.9058 4.9155 73.3918 4.9155C72.8884 4.9155 72.5136 5.0333 72.2673 5.26891C72.021 5.4938 71.8603 5.78831 71.7854 6.15242L69.9219 5.52593C70.0505 5.11898 70.2539 4.74951 70.5324 4.41752C70.8215 4.07483 71.2017 3.80174 71.6729 3.59826C72.1548 3.38408 72.7385 3.27698 73.4239 3.27698C74.4734 3.27698 75.3034 3.53936 75.9138 4.06412C76.5242 4.58887 76.8294 5.34923 76.8294 6.34519V9.31701C76.8294 9.63829 76.9794 9.79893 77.2792 9.79893H77.9218V11.4696H76.5724C76.1762 11.4696 75.8495 11.3732 75.5925 11.1804C75.3355 10.9877 75.207 10.7306 75.207 10.4094V10.3933H74.9018C74.8589 10.5218 74.7625 10.6932 74.6126 10.9073C74.4627 11.1108 74.2271 11.2929 73.9058 11.4535C73.5845 11.6141 73.1454 11.6945 72.5886 11.6945ZM72.942 10.0559C73.5096 10.0559 73.9701 9.90067 74.3235 9.5901C74.6876 9.26882 74.8696 8.8458 74.8696 8.32105V8.16041H72.8295C72.4547 8.16041 72.1602 8.24073 71.946 8.40137C71.7318 8.56201 71.6247 8.7869 71.6247 9.07605C71.6247 9.3652 71.7372 9.60081 71.9621 9.78286C72.187 9.96492 72.5136 10.0559 72.942 10.0559ZM79.4017 11.4696V3.50188H81.3936V4.54603H81.6827C81.8112 4.26759 82.0522 4.00521 82.4056 3.7589C82.759 3.50188 83.2945 3.37337 84.012 3.37337C84.6331 3.37337 85.174 3.51794 85.6344 3.80709C86.1057 4.08553 86.4698 4.47642 86.7268 4.97976C86.9838 5.47238 87.1123 6.05068 87.1123 6.71466V11.4696H85.0883V6.8753C85.0883 6.27558 84.9383 5.82579 84.6385 5.52593C84.3493 5.22607 83.9317 5.07614 83.3855 5.07614C82.7644 5.07614 82.2824 5.28497 81.9398 5.70263C81.5971 6.10959 81.4257 6.68253 81.4257 7.42147V11.4696H79.4017ZM92.5132 11.6945C91.8813 11.6945 91.287 11.5392 90.7301 11.2286C90.1839 10.9073 89.7448 10.4415 89.4129 9.83106C89.0809 9.22063 88.9149 8.48169 88.9149 7.61424V7.35721C88.9149 6.48976 89.0809 5.75083 89.4129 5.1404C89.7448 4.52997 90.1839 4.06947 90.7301 3.7589C91.2763 3.43762 91.8706 3.27698 92.5132 3.27698C92.9951 3.27698 93.3967 3.33589 93.718 3.45369C94.05 3.56078 94.3177 3.7 94.5212 3.87135C94.7246 4.0427 94.8799 4.22475 94.987 4.41752H95.2762V0.224844H97.3002V11.4696H95.3083V10.5057H95.0192C94.8371 10.8056 94.5533 11.0787 94.1678 11.325C93.7929 11.5713 93.2414 11.6945 92.5132 11.6945ZM93.1236 9.92744C93.7448 9.92744 94.2642 9.72932 94.6818 9.33307C95.0995 8.92612 95.3083 8.33711 95.3083 7.56605V7.40541C95.3083 6.63434 95.0995 6.05068 94.6818 5.65444C94.2749 5.24749 93.7555 5.04401 93.1236 5.04401C92.5025 5.04401 91.9831 5.24749 91.5654 5.65444C91.1478 6.05068 90.9389 6.63434 90.9389 7.40541V7.56605C90.9389 8.33711 91.1478 8.92612 91.5654 9.33307C91.9831 9.72932 92.5025 9.92744 93.1236 9.92744ZM107.253 11.6945C106.461 11.6945 105.76 11.5285 105.149 11.1965C104.549 10.8538 104.078 10.3772 103.735 9.7668C103.403 9.14566 103.237 8.41743 103.237 7.58211V7.38934C103.237 6.55402 103.403 5.83114 103.735 5.22072C104.067 4.59958 104.533 4.12302 105.133 3.79103C105.733 3.44833 106.429 3.27698 107.221 3.27698C108.003 3.27698 108.683 3.45369 109.261 3.80709C109.84 4.14979 110.29 4.63171 110.611 5.25284C110.932 5.86327 111.093 6.57544 111.093 7.38934V8.08009H105.294C105.315 8.62626 105.519 9.0707 105.904 9.41339C106.29 9.75609 106.761 9.92744 107.318 9.92744C107.885 9.92744 108.303 9.80428 108.571 9.55797C108.838 9.31166 109.042 9.03857 109.181 8.73871L110.836 9.60616C110.686 9.8846 110.466 10.1898 110.177 10.5218C109.899 10.8431 109.524 11.1215 109.053 11.3571C108.581 11.582 107.982 11.6945 107.253 11.6945ZM105.31 6.57008H109.037C108.994 6.10959 108.806 5.74012 108.474 5.46167C108.153 5.18323 107.73 5.04401 107.205 5.04401C106.659 5.04401 106.225 5.18323 105.904 5.46167C105.583 5.74012 105.385 6.10959 105.31 6.57008ZM115.368 11.6945C114.801 11.6945 114.292 11.5981 113.842 11.4053C113.392 11.2018 113.033 10.9127 112.766 10.5379C112.509 10.1523 112.38 9.68648 112.38 9.14031C112.38 8.59413 112.509 8.13899 112.766 7.77488C113.033 7.40005 113.398 7.12161 113.858 6.93955C114.329 6.74679 114.865 6.6504 115.464 6.6504H117.649V6.20061C117.649 5.82579 117.531 5.52058 117.296 5.28497C117.06 5.03866 116.685 4.9155 116.171 4.9155C115.668 4.9155 115.293 5.0333 115.047 5.26891C114.801 5.4938 114.64 5.78831 114.565 6.15242L112.701 5.52593C112.83 5.11898 113.033 4.74951 113.312 4.41752C113.601 4.07483 113.981 3.80174 114.452 3.59826C114.934 3.38408 115.518 3.27698 116.203 3.27698C117.253 3.27698 118.083 3.53936 118.693 4.06412C119.304 4.58887 119.609 5.34923 119.609 6.34519V9.31701C119.609 9.63829 119.759 9.79893 120.059 9.79893H120.701V11.4696H119.352C118.956 11.4696 118.629 11.3732 118.372 11.1804C118.115 10.9877 117.987 10.7306 117.987 10.4094V10.3933H117.681C117.638 10.5218 117.542 10.6932 117.392 10.9073C117.242 11.1108 117.007 11.2929 116.685 11.4535C116.364 11.6141 115.925 11.6945 115.368 11.6945ZM115.722 10.0559C116.289 10.0559 116.75 9.90067 117.103 9.5901C117.467 9.26882 117.649 8.8458 117.649 8.32105V8.16041H115.609C115.234 8.16041 114.94 8.24073 114.726 8.40137C114.511 8.56201 114.404 8.7869 114.404 9.07605C114.404 9.3652 114.517 9.60081 114.742 9.78286C114.966 9.96492 115.293 10.0559 115.722 10.0559ZM122.181 11.4696V3.50188H124.173V4.40146H124.462C124.58 4.08018 124.773 3.84458 125.041 3.69465C125.319 3.54472 125.64 3.46975 126.004 3.46975H126.968V5.26891H125.972C125.458 5.26891 125.035 5.40813 124.703 5.68657C124.371 5.9543 124.205 6.37196 124.205 6.93955V11.4696H122.181ZM128.55 11.4696V3.50188H130.542V4.54603H130.831C130.96 4.26759 131.201 4.00521 131.554 3.7589C131.908 3.50188 132.443 3.37337 133.161 3.37337C133.782 3.37337 134.323 3.51794 134.783 3.80709C135.254 4.08553 135.618 4.47642 135.875 4.97976C136.132 5.47238 136.261 6.05068 136.261 6.71466V11.4696H134.237V6.8753C134.237 6.27558 134.087 5.82579 133.787 5.52593C133.498 5.22607 133.08 5.07614 132.534 5.07614C131.913 5.07614 131.431 5.28497 131.088 5.70263C130.746 6.10959 130.574 6.68253 130.574 7.42147V11.4696H128.55ZM142.463 11.4696V0.224844H144.584V9.54191H149.724V11.4696H142.463ZM155.194 11.6945C154.273 11.6945 153.48 11.5285 152.816 11.1965C152.163 10.8538 151.659 10.3719 151.306 9.75074C150.963 9.11889 150.792 8.3746 150.792 7.51785V0.224844H152.912V7.58211C152.912 8.2675 153.105 8.80832 153.491 9.20456C153.887 9.60081 154.455 9.79893 155.194 9.79893C155.932 9.79893 156.495 9.60081 156.88 9.20456C157.276 8.80832 157.475 8.2675 157.475 7.58211V0.224844H159.595V7.51785C159.595 8.3746 159.418 9.11889 159.065 9.75074C158.722 10.3719 158.219 10.8538 157.555 11.1965C156.902 11.5285 156.115 11.6945 155.194 11.6945ZM165.922 11.6945C164.53 11.6945 163.427 11.3089 162.613 10.5379C161.799 9.75609 161.392 8.64233 161.392 7.19658V4.49784C161.392 3.05209 161.799 1.94368 162.613 1.17261C163.427 0.390837 164.53 -5.07466e-05 165.922 -5.07466e-05C167.304 -5.07466e-05 168.369 0.380128 169.119 1.14049C169.879 1.89014 170.259 2.92358 170.259 4.24082V4.3372H168.171V4.17656C168.171 3.51259 167.984 2.96642 167.609 2.53804C167.245 2.10967 166.683 1.89549 165.922 1.89549C165.173 1.89549 164.584 2.12574 164.155 2.58624C163.727 3.04674 163.513 3.67323 163.513 4.46571V7.2287C163.513 8.01048 163.727 8.63697 164.155 9.10818C164.584 9.56868 165.173 9.79893 165.922 9.79893C166.683 9.79893 167.245 9.58474 167.609 9.15637C167.984 8.71729 168.171 8.17112 168.171 7.51785V7.2287H170.259V7.4536C170.259 8.77084 169.879 9.80964 169.119 10.57C168.369 11.3196 167.304 11.6945 165.922 11.6945ZM171.091 11.4696L174.046 0.224844H177.741L180.697 11.4696H178.512L177.902 8.99573H173.886L173.275 11.4696H171.091ZM174.384 7.03594H177.404L176.038 1.55815H175.749L174.384 7.03594ZM189.05 11.4696C188.525 11.4696 188.097 11.3089 187.765 10.9877C187.443 10.6557 187.283 10.2166 187.283 9.67042V5.17252H185.291V3.50188H187.283V1.02804H189.307V3.50188H191.491V5.17252H189.307V9.31701C189.307 9.63829 189.457 9.79893 189.756 9.79893H191.299V11.4696H189.05ZM196.832 11.6945C196.04 11.6945 195.328 11.5338 194.696 11.2126C194.064 10.8913 193.566 10.4254 193.202 9.81499C192.838 9.20456 192.656 8.47098 192.656 7.61424V7.35721C192.656 6.50047 192.838 5.76689 193.202 5.15646C193.566 4.54603 194.064 4.08018 194.696 3.7589C195.328 3.43762 196.04 3.27698 196.832 3.27698C197.625 3.27698 198.337 3.43762 198.969 3.7589C199.601 4.08018 200.099 4.54603 200.463 5.15646C200.827 5.76689 201.009 6.50047 201.009 7.35721V7.61424C201.009 8.47098 200.827 9.20456 200.463 9.81499C200.099 10.4254 199.601 10.8913 198.969 11.2126C198.337 11.5338 197.625 11.6945 196.832 11.6945ZM196.832 9.89531C197.453 9.89531 197.967 9.69719 198.374 9.30095C198.781 8.89399 198.985 8.31569 198.985 7.56605V7.40541C198.985 6.65576 198.781 6.08281 198.374 5.68657C197.978 5.27962 197.464 5.07614 196.832 5.07614C196.211 5.07614 195.697 5.27962 195.29 5.68657C194.883 6.08281 194.68 6.65576 194.68 7.40541V7.56605C194.68 8.31569 194.883 8.89399 195.29 9.30095C195.697 9.69719 196.211 9.89531 196.832 9.89531ZM202.877 11.4696V0.224844H204.901V6.44157H205.19L207.825 3.50188H210.459L206.781 7.35721L210.588 11.4696H207.986L205.19 8.30498H204.901V11.4696H202.877ZM215.089 11.6945C214.296 11.6945 213.595 11.5285 212.984 11.1965C212.385 10.8538 211.913 10.3772 211.571 9.7668C211.239 9.14566 211.073 8.41743 211.073 7.58211V7.38934C211.073 6.55402 211.239 5.83114 211.571 5.22072C211.903 4.59958 212.368 4.12302 212.968 3.79103C213.568 3.44833 214.264 3.27698 215.057 3.27698C215.838 3.27698 216.518 3.45369 217.097 3.80709C217.675 4.14979 218.125 4.63171 218.446 5.25284C218.767 5.86327 218.928 6.57544 218.928 7.38934V8.08009H213.129C213.15 8.62626 213.354 9.0707 213.739 9.41339C214.125 9.75609 214.596 9.92744 215.153 9.92744C215.72 9.92744 216.138 9.80428 216.406 9.55797C216.674 9.31166 216.877 9.03857 217.016 8.73871L218.671 9.60616C218.521 9.8846 218.301 10.1898 218.012 10.5218C217.734 10.8431 217.359 11.1215 216.888 11.3571C216.417 11.582 215.817 11.6945 215.089 11.6945ZM213.145 6.57008H216.872C216.829 6.10959 216.641 5.74012 216.309 5.46167C215.988 5.18323 215.565 5.04401 215.04 5.04401C214.494 5.04401 214.061 5.18323 213.739 5.46167C213.418 5.74012 213.22 6.10959 213.145 6.57008ZM220.729 11.4696V3.50188H222.721V4.54603H223.011C223.139 4.26759 223.38 4.00521 223.733 3.7589C224.087 3.50188 224.622 3.37337 225.34 3.37337C225.961 3.37337 226.502 3.51794 226.962 3.80709C227.433 4.08553 227.798 4.47642 228.055 4.97976C228.312 5.47238 228.44 6.05068 228.44 6.71466V11.4696H226.416V6.8753C226.416 6.27558 226.266 5.82579 225.966 5.52593C225.677 5.22607 225.259 5.07614 224.713 5.07614C224.092 5.07614 223.61 5.28497 223.268 5.70263C222.925 6.10959 222.753 6.68253 222.753 7.42147V11.4696H220.729ZM0.321474 31.5494V23.5818H2.3134V24.4813H2.60255C2.72035 24.1601 2.91312 23.9244 3.18085 23.7745C3.45929 23.6246 3.78057 23.5496 4.14468 23.5496H5.10852V25.3488H4.11255C3.59851 25.3488 3.17549 25.488 2.84351 25.7664C2.51152 26.0342 2.34553 26.4518 2.34553 27.0194V31.5494H0.321474ZM10.0386 31.7743C9.24614 31.7743 8.54468 31.6083 7.93426 31.2764C7.33454 30.9337 6.86333 30.4571 6.52063 29.8467C6.18865 29.2255 6.02265 28.4973 6.02265 27.662V27.4692C6.02265 26.6339 6.18865 25.911 6.52063 25.3006C6.85262 24.6795 7.31847 24.2029 7.91819 23.8709C8.51791 23.5282 9.21401 23.3569 10.0065 23.3569C10.7883 23.3569 11.4683 23.5336 12.0466 23.887C12.6249 24.2297 13.0747 24.7116 13.396 25.3327C13.7173 25.9431 13.8779 26.6553 13.8779 27.4692V28.16H8.07883C8.10025 28.7061 8.30373 29.1506 8.68926 29.4933C9.07479 29.836 9.546 30.0073 10.1029 30.0073C10.6705 30.0073 11.0881 29.8842 11.3559 29.6378C11.6236 29.3915 11.8271 29.1184 11.9663 28.8186L13.6209 29.686C13.4709 29.9645 13.2514 30.2697 12.9623 30.6017C12.6838 30.923 12.309 31.2014 11.8378 31.437C11.3666 31.6619 10.7669 31.7743 10.0386 31.7743ZM8.09489 26.65H11.8217C11.7789 26.1895 11.5915 25.82 11.2595 25.5415C10.9382 25.2631 10.5152 25.1239 9.99043 25.1239C9.44426 25.1239 9.01054 25.2631 8.68926 25.5415C8.36798 25.82 8.16986 26.1895 8.09489 26.65ZM16.2906 31.5494L15.1661 23.5818H17.1741L17.8809 30.184H18.1701L19.1982 23.5818H22.4431L23.4712 30.184H23.7603L24.4671 23.5818H26.4751L25.3507 31.5494H21.9933L20.9652 24.9472H20.6761L19.648 31.5494H16.2906ZM30.7189 31.7743C30.1513 31.7743 29.6426 31.678 29.1928 31.4852C28.743 31.2817 28.3843 30.9926 28.1165 30.6177C27.8595 30.2322 27.731 29.7664 27.731 29.2202C27.731 28.674 27.8595 28.2189 28.1165 27.8547C28.3843 27.4799 28.7484 27.2015 29.2089 27.0194C29.6801 26.8267 30.2156 26.7303 30.8153 26.7303H33V26.2805C33 25.9057 32.8822 25.6004 32.6466 25.3648C32.411 25.1185 32.0361 24.9954 31.5221 24.9954C31.0187 24.9954 30.6439 25.1132 30.3976 25.3488C30.1513 25.5737 29.9907 25.8682 29.9157 26.2323L28.0523 25.6058C28.1808 25.1989 28.3843 24.8294 28.6627 24.4974C28.9519 24.1547 29.332 23.8816 29.8032 23.6781C30.2852 23.4639 30.8688 23.3569 31.5542 23.3569C32.6037 23.3569 33.4337 23.6192 34.0441 24.144C34.6545 24.6687 34.9598 25.4291 34.9598 26.4251V29.3969C34.9598 29.7182 35.1097 29.8788 35.4095 29.8788H36.0521V31.5494H34.7027C34.3065 31.5494 33.9799 31.4531 33.7228 31.2603C33.4658 31.0675 33.3373 30.8105 33.3373 30.4892V30.4732H33.0321C32.9893 30.6017 32.8929 30.773 32.7429 30.9872C32.593 31.1907 32.3574 31.3727 32.0361 31.5334C31.7148 31.694 31.2758 31.7743 30.7189 31.7743ZM31.0723 30.1358C31.6399 30.1358 32.1004 29.9805 32.4538 29.67C32.8179 29.3487 33 28.9257 33 28.4009V28.2403H30.9598C30.585 28.2403 30.2905 28.3206 30.0763 28.4812C29.8621 28.6419 29.7551 28.8668 29.7551 29.1559C29.7551 29.4451 29.8675 29.6807 30.0924 29.8627C30.3173 30.0448 30.6439 30.1358 31.0723 30.1358ZM37.532 31.5494V23.5818H39.5239V24.4813H39.8131C39.9309 24.1601 40.1236 23.9244 40.3914 23.7745C40.6698 23.6246 40.9911 23.5496 41.3552 23.5496H42.319V25.3488H41.3231C40.809 25.3488 40.386 25.488 40.054 25.7664C39.722 26.0342 39.556 26.4518 39.556 27.0194V31.5494H37.532ZM46.8315 31.7743C46.1996 31.7743 45.6053 31.6191 45.0484 31.3085C44.5022 30.9872 44.0631 30.5214 43.7311 29.9109C43.3992 29.3005 43.2332 28.5616 43.2332 27.6941V27.4371C43.2332 26.5696 43.3992 25.8307 43.7311 25.2203C44.0631 24.6098 44.5022 24.1493 45.0484 23.8388C45.5946 23.5175 46.1889 23.3569 46.8315 23.3569C47.3134 23.3569 47.715 23.4158 48.0363 23.5336C48.3683 23.6407 48.636 23.7799 48.8395 23.9512C49.0429 24.1226 49.1982 24.3046 49.3053 24.4974H49.5945V20.3047H51.6185V31.5494H49.6266V30.5856H49.3374C49.1554 30.8855 48.8716 31.1586 48.4861 31.4049C48.1112 31.6512 47.5597 31.7743 46.8315 31.7743ZM47.4419 30.0073C48.063 30.0073 48.5824 29.8092 49.0001 29.4129C49.4178 29.006 49.6266 28.417 49.6266 27.6459V27.4853C49.6266 26.7142 49.4178 26.1306 49.0001 25.7343C48.5932 25.3274 48.0738 25.1239 47.4419 25.1239C46.8208 25.1239 46.3014 25.3274 45.8837 25.7343C45.466 26.1306 45.2572 26.7142 45.2572 27.4853V27.6459C45.2572 28.417 45.466 29.006 45.8837 29.4129C46.3014 29.8092 46.8208 30.0073 47.4419 30.0073ZM57.1717 31.7743C56.1329 31.7743 55.2815 31.5494 54.6176 31.0997C53.9536 30.6499 53.552 30.0073 53.4128 29.172L55.2762 28.6901C55.3512 29.0649 55.4743 29.3594 55.6457 29.5736C55.8277 29.7878 56.0473 29.9431 56.3043 30.0394C56.572 30.1251 56.8612 30.1679 57.1717 30.1679C57.6429 30.1679 57.991 30.0876 58.2159 29.927C58.4408 29.7556 58.5532 29.5468 58.5532 29.3005C58.5532 29.0542 58.4461 28.8668 58.2319 28.7383C58.0178 28.599 57.6751 28.4866 57.2039 28.4009L56.7541 28.3206C56.1972 28.2135 55.6885 28.0689 55.228 27.8869C54.7675 27.6941 54.398 27.4317 54.1196 27.0997C53.8412 26.7678 53.7019 26.3394 53.7019 25.8146C53.7019 25.0221 53.9911 24.4171 54.5694 23.9994C55.1477 23.571 55.908 23.3569 56.8505 23.3569C57.7393 23.3569 58.4783 23.555 59.0673 23.9512C59.6563 24.3475 60.0418 24.8669 60.2239 25.5094L58.3444 26.0877C58.2587 25.6808 58.082 25.3916 57.8143 25.2203C57.5573 25.0489 57.236 24.9632 56.8505 24.9632C56.4649 24.9632 56.1704 25.0329 55.9669 25.1721C55.7635 25.3006 55.6617 25.4826 55.6617 25.7182C55.6617 25.9753 55.7688 26.168 55.983 26.2965C56.1972 26.4144 56.4863 26.5054 56.8505 26.5696L57.3002 26.65C57.9 26.757 58.4408 26.9016 58.9227 27.0837C59.4153 27.255 59.8009 27.5067 60.0793 27.8387C60.3684 28.16 60.513 28.599 60.513 29.1559C60.513 29.9912 60.2078 30.6392 59.5974 31.0997C58.9977 31.5494 58.1891 31.7743 57.1717 31.7743Z" fill="url(#paint0_linear_2_10166)"/>
<path d="M66.7173 31.5494V23.7424H67.6812V31.5494H66.7173ZM67.1992 22.393C66.9636 22.393 66.7655 22.3127 66.6049 22.1521C66.4442 21.9914 66.3639 21.7933 66.3639 21.5577C66.3639 21.3114 66.4442 21.1133 66.6049 20.9633C66.7655 20.8027 66.9636 20.7224 67.1992 20.7224C67.4456 20.7224 67.6437 20.8027 67.7936 20.9633C67.9542 21.1133 68.0346 21.3114 68.0346 21.5577C68.0346 21.7933 67.9542 21.9914 67.7936 22.1521C67.6437 22.3127 67.4456 22.393 67.1992 22.393ZM70.5137 31.5494V23.7424H71.4454V25.1881H71.6382C71.8309 24.7705 72.1468 24.401 72.5859 24.0797C73.025 23.7477 73.6622 23.5818 74.4975 23.5818C75.0651 23.5818 75.5845 23.6996 76.0557 23.9352C76.5269 24.1708 76.9018 24.5295 77.1802 25.0114C77.4693 25.4826 77.6139 26.077 77.6139 26.7945V31.5494H76.6501V26.8588C76.6501 26.002 76.4359 25.3863 76.0075 25.0114C75.5792 24.6366 75.0062 24.4492 74.2887 24.4492C73.4855 24.4492 72.8162 24.7169 72.2807 25.2524C71.7452 25.7772 71.4775 26.575 71.4775 27.6459V31.5494H70.5137ZM88.0573 31.7743C87.2649 31.7743 86.5687 31.6083 85.969 31.2764C85.38 30.9337 84.9195 30.4625 84.5875 29.8627C84.2663 29.2523 84.1056 28.5455 84.1056 27.7423V27.5495C84.1056 26.7463 84.2663 26.0449 84.5875 25.4452C84.9195 24.8347 85.38 24.3635 85.969 24.0315C86.5687 23.6888 87.2649 23.5175 88.0573 23.5175C88.8498 23.5175 89.5406 23.6888 90.1296 24.0315C90.7293 24.3635 91.1898 24.8347 91.5111 25.4452C91.8431 26.0449 92.0091 26.7463 92.0091 27.5495V27.7423C92.0091 28.5455 91.8431 29.2523 91.5111 29.8627C91.1898 30.4625 90.7293 30.9337 90.1296 31.2764C89.5406 31.6083 88.8498 31.7743 88.0573 31.7743ZM88.0573 30.9069C88.9783 30.9069 89.7066 30.6177 90.242 30.0394C90.7775 29.4504 91.0452 28.674 91.0452 27.7102V27.5817C91.0452 26.6178 90.7775 25.8468 90.242 25.2685C89.7066 24.6795 88.9783 24.3849 88.0573 24.3849C87.147 24.3849 86.4188 24.6795 85.8726 25.2685C85.3372 25.8468 85.0695 26.6178 85.0695 27.5817V27.7102C85.0695 28.674 85.3372 29.4504 85.8726 30.0394C86.4188 30.6177 87.147 30.9069 88.0573 30.9069ZM97.4566 31.7101C96.8997 31.7101 96.3803 31.5923 95.8984 31.3567C95.4272 31.1211 95.047 30.7677 94.7579 30.2965C94.4794 29.8145 94.3402 29.2148 94.3402 28.4973V23.7424H95.304V28.433C95.304 29.2791 95.5182 29.8949 95.9466 30.2804C96.375 30.6552 96.9479 30.8426 97.6654 30.8426C98.4686 30.8426 99.138 30.5803 99.6734 30.0555C100.209 29.52 100.477 28.7168 100.477 27.6459V23.7424H101.44V31.5494H100.509V30.1037H100.316C100.123 30.5214 99.8073 30.8962 99.3682 31.2282C98.9291 31.5494 98.2919 31.7101 97.4566 31.7101ZM104.273 31.5494V23.7424H105.205V24.7223H105.397C105.547 24.3689 105.767 24.1119 106.056 23.9512C106.356 23.7906 106.768 23.7103 107.293 23.7103H108.209V24.6098H107.181C106.592 24.6098 106.12 24.7758 105.767 25.1078C105.413 25.4398 105.237 25.9592 105.237 26.666V31.5494H104.273ZM115.629 31.5494L113.862 23.7424H114.858L116.4 30.9069H116.593L118.601 23.7424H120.24L122.248 30.9069H122.44L123.983 23.7424H124.979L123.212 31.5494H121.525L119.517 24.3849H119.324L117.316 31.5494H115.629ZM130.712 31.7743C129.909 31.7743 129.207 31.6083 128.608 31.2764C128.019 30.9337 127.558 30.4571 127.226 29.8467C126.894 29.2362 126.728 28.5348 126.728 27.7423V27.5495C126.728 26.7463 126.894 26.0449 127.226 25.4452C127.558 24.8347 128.013 24.3635 128.592 24.0315C129.181 23.6888 129.85 23.5175 130.6 23.5175C131.328 23.5175 131.97 23.6728 132.527 23.9833C133.095 24.2832 133.539 24.7223 133.861 25.3006C134.182 25.8682 134.343 26.5482 134.343 27.3407V27.8547H127.692C127.724 28.8293 128.019 29.5843 128.576 30.1198C129.143 30.6445 129.855 30.9069 130.712 30.9069C131.44 30.9069 132.003 30.7409 132.399 30.4089C132.806 30.0769 133.116 29.67 133.331 29.1881L134.198 29.5736C134.037 29.927 133.812 30.275 133.523 30.6177C133.245 30.9497 132.881 31.2282 132.431 31.4531C131.981 31.6672 131.408 31.7743 130.712 31.7743ZM127.708 27.0194H133.363C133.32 26.1734 133.047 25.5255 132.543 25.0757C132.04 24.6152 131.392 24.3849 130.6 24.3849C129.818 24.3849 129.17 24.6152 128.656 25.0757C128.142 25.5255 127.826 26.1734 127.708 27.0194ZM140.891 31.7743C140.034 31.7743 139.365 31.6083 138.883 31.2764C138.412 30.9337 138.064 30.5481 137.839 30.1198H137.646V31.5494H136.715V20.3047H137.678V25.1078H137.871C138.01 24.8401 138.203 24.5884 138.449 24.3528C138.706 24.1065 139.033 23.9084 139.429 23.7585C139.836 23.5978 140.324 23.5175 140.891 23.5175C141.598 23.5175 142.235 23.6835 142.803 24.0155C143.37 24.3368 143.82 24.8026 144.152 25.413C144.484 26.0128 144.65 26.7249 144.65 27.5495V27.7423C144.65 28.5669 144.479 29.2844 144.136 29.8949C143.804 30.4946 143.354 30.9604 142.787 31.2924C142.219 31.6137 141.587 31.7743 140.891 31.7743ZM140.666 30.9069C141.555 30.9069 142.273 30.6231 142.819 30.0555C143.376 29.4879 143.654 28.7061 143.654 27.7102V27.5817C143.654 26.5857 143.376 25.8039 142.819 25.2363C142.273 24.6687 141.555 24.3849 140.666 24.3849C139.788 24.3849 139.071 24.6687 138.514 25.2363C137.957 25.8039 137.678 26.5857 137.678 27.5817V27.7102C137.678 28.7061 137.957 29.4879 138.514 30.0555C139.071 30.6231 139.788 30.9069 140.666 30.9069ZM150.553 31.7743C149.772 31.7743 149.07 31.6244 148.449 31.3246C147.839 31.0247 147.357 30.591 147.003 30.0234C146.66 29.4451 146.489 28.749 146.489 27.9351V27.6299H147.485V27.9511C147.485 28.8614 147.769 29.5789 148.336 30.1037C148.904 30.6177 149.643 30.8748 150.553 30.8748C151.474 30.8748 152.192 30.6284 152.706 30.1358C153.22 29.6432 153.477 29.0221 153.477 28.2724V28.176C153.477 27.6191 153.343 27.1694 153.075 26.8267C152.818 26.484 152.465 26.2323 152.015 26.0717C151.576 25.9003 151.089 25.8146 150.553 25.8146H148.899V24.4653L153.461 21.3649V21.2043H146.746V20.3047H154.457V21.7505L149.943 24.8187V24.9793H150.826C151.522 24.9793 152.144 25.1025 152.69 25.3488C153.236 25.5844 153.67 25.9378 153.991 26.409C154.312 26.8695 154.473 27.4478 154.473 28.1439V28.3045C154.473 29.0006 154.312 29.6111 153.991 30.1358C153.67 30.6499 153.215 31.0515 152.626 31.3406C152.037 31.6298 151.346 31.7743 150.553 31.7743ZM164.486 31.7743C163.726 31.7743 163.046 31.6137 162.446 31.2924C161.857 30.9604 161.391 30.4892 161.049 29.8788C160.706 29.2684 160.535 28.5509 160.535 27.7262V27.5656C160.535 26.7303 160.706 26.0128 161.049 25.413C161.391 24.8026 161.857 24.3368 162.446 24.0155C163.046 23.6835 163.726 23.5175 164.486 23.5175C165.236 23.5175 165.868 23.6621 166.382 23.9512C166.907 24.2297 167.314 24.5991 167.603 25.0596C167.903 25.5094 168.09 25.986 168.165 26.4893L167.217 26.6821C167.164 26.2644 167.03 25.8842 166.816 25.5415C166.601 25.1881 166.302 24.9097 165.916 24.7062C165.531 24.492 165.054 24.3849 164.486 24.3849C163.919 24.3849 163.41 24.5188 162.96 24.7865C162.51 25.0436 162.152 25.413 161.884 25.895C161.627 26.3662 161.498 26.9284 161.498 27.5817V27.7102C161.498 28.3634 161.627 28.931 161.884 29.4129C162.152 29.8842 162.51 30.2536 162.96 30.5214C163.41 30.7784 163.919 30.9069 164.486 30.9069C165.343 30.9069 165.996 30.6873 166.446 30.2483C166.896 29.7985 167.174 29.2523 167.281 28.6098L168.229 28.8025C168.133 29.3059 167.929 29.7878 167.619 30.2483C167.319 30.6981 166.907 31.0675 166.382 31.3567C165.868 31.6351 165.236 31.7743 164.486 31.7743ZM174.165 31.7743C173.373 31.7743 172.677 31.6083 172.077 31.2764C171.488 30.9337 171.028 30.4625 170.696 29.8627C170.374 29.2523 170.214 28.5455 170.214 27.7423V27.5495C170.214 26.7463 170.374 26.0449 170.696 25.4452C171.028 24.8347 171.488 24.3635 172.077 24.0315C172.677 23.6888 173.373 23.5175 174.165 23.5175C174.958 23.5175 175.649 23.6888 176.238 24.0315C176.837 24.3635 177.298 24.8347 177.619 25.4452C177.951 26.0449 178.117 26.7463 178.117 27.5495V27.7423C178.117 28.5455 177.951 29.2523 177.619 29.8627C177.298 30.4625 176.837 30.9337 176.238 31.2764C175.649 31.6083 174.958 31.7743 174.165 31.7743ZM174.165 30.9069C175.086 30.9069 175.815 30.6177 176.35 30.0394C176.886 29.4504 177.153 28.674 177.153 27.7102V27.5817C177.153 26.6178 176.886 25.8468 176.35 25.2685C175.815 24.6795 175.086 24.3849 174.165 24.3849C173.255 24.3849 172.527 24.6795 171.981 25.2685C171.445 25.8468 171.178 26.6178 171.178 27.5817V27.7102C171.178 28.674 171.445 29.4504 171.981 30.0394C172.527 30.6177 173.255 30.9069 174.165 30.9069ZM180.561 31.5494V23.7424H181.492V24.7705H181.685C181.846 24.4813 182.103 24.2136 182.456 23.9673C182.81 23.7103 183.313 23.5818 183.966 23.5818C184.598 23.5818 185.107 23.7263 185.492 24.0155C185.889 24.3046 186.172 24.6527 186.344 25.0596H186.537C186.719 24.6527 187.002 24.3046 187.388 24.0155C187.773 23.7263 188.314 23.5818 189.01 23.5818C189.546 23.5818 190.012 23.6942 190.408 23.9191C190.804 24.1333 191.115 24.4385 191.34 24.8347C191.565 25.2203 191.677 25.6754 191.677 26.2002V31.5494H190.713V26.2965C190.713 25.7397 190.542 25.2952 190.199 24.9632C189.867 24.6205 189.396 24.4492 188.786 24.4492C188.164 24.4492 187.645 24.6527 187.227 25.0596C186.81 25.4559 186.601 26.0395 186.601 26.8106V31.5494H185.637V26.2965C185.637 25.7397 185.466 25.2952 185.123 24.9632C184.791 24.6205 184.32 24.4492 183.709 24.4492C183.088 24.4492 182.569 24.6527 182.151 25.0596C181.733 25.4559 181.525 26.0395 181.525 26.8106V31.5494H180.561ZM194.413 31.5494V23.7424H195.344V24.7705H195.537C195.698 24.4813 195.955 24.2136 196.308 23.9673C196.662 23.7103 197.165 23.5818 197.818 23.5818C198.45 23.5818 198.959 23.7263 199.344 24.0155C199.741 24.3046 200.024 24.6527 200.196 25.0596H200.389C200.571 24.6527 200.854 24.3046 201.24 24.0155C201.625 23.7263 202.166 23.5818 202.862 23.5818C203.398 23.5818 203.864 23.6942 204.26 23.9191C204.656 24.1333 204.967 24.4385 205.192 24.8347C205.417 25.2203 205.529 25.6754 205.529 26.2002V31.5494H204.565V26.2965C204.565 25.7397 204.394 25.2952 204.051 24.9632C203.719 24.6205 203.248 24.4492 202.637 24.4492C202.016 24.4492 201.497 24.6527 201.079 25.0596C200.662 25.4559 200.453 26.0395 200.453 26.8106V31.5494H199.489V26.2965C199.489 25.7397 199.318 25.2952 198.975 24.9632C198.643 24.6205 198.172 24.4492 197.561 24.4492C196.94 24.4492 196.421 24.6527 196.003 25.0596C195.585 25.4559 195.377 26.0395 195.377 26.8106V31.5494H194.413ZM211.143 31.7101C210.586 31.7101 210.067 31.5923 209.585 31.3567C209.114 31.1211 208.734 30.7677 208.444 30.2965C208.166 29.8145 208.027 29.2148 208.027 28.4973V23.7424H208.991V28.433C208.991 29.2791 209.205 29.8949 209.633 30.2804C210.062 30.6552 210.634 30.8426 211.352 30.8426C212.155 30.8426 212.825 30.5803 213.36 30.0555C213.895 29.52 214.163 28.7168 214.163 27.6459V23.7424H215.127V31.5494H214.195V30.1037H214.003C213.81 30.5214 213.494 30.8962 213.055 31.2282C212.616 31.5494 211.979 31.7101 211.143 31.7101ZM217.96 31.5494V23.7424H218.891V25.1881H219.084C219.277 24.7705 219.593 24.401 220.032 24.0797C220.471 23.7477 221.108 23.5818 221.943 23.5818C222.511 23.5818 223.03 23.6996 223.502 23.9352C223.973 24.1708 224.348 24.5295 224.626 25.0114C224.915 25.4826 225.06 26.077 225.06 26.7945V31.5494H224.096V26.8588C224.096 26.002 223.882 25.3863 223.453 25.0114C223.025 24.6366 222.452 24.4492 221.735 24.4492C220.931 24.4492 220.262 24.7169 219.727 25.2524C219.191 25.7772 218.923 26.575 218.923 27.6459V31.5494H217.96ZM227.796 31.5494V23.7424H228.759V31.5494H227.796ZM228.277 22.393C228.042 22.393 227.844 22.3127 227.683 22.1521C227.522 21.9914 227.442 21.7933 227.442 21.5577C227.442 21.3114 227.522 21.1133 227.683 20.9633C227.844 20.8027 228.042 20.7224 228.277 20.7224C228.524 20.7224 228.722 20.8027 228.872 20.9633C229.032 21.1133 229.113 21.3114 229.113 21.5577C229.113 21.7933 229.032 21.9914 228.872 22.1521C228.722 22.3127 228.524 22.393 228.277 22.393ZM234.419 31.5494C234.001 31.5494 233.686 31.4424 233.471 31.2282C233.268 31.014 233.166 30.7141 233.166 30.3286V24.6098H230.66V23.7424H233.166V20.8188H234.13V23.7424H236.861V24.6098H234.13V30.2001C234.13 30.5214 234.291 30.682 234.612 30.682H236.443V31.5494H234.419ZM239.992 34.7622V33.8948H244.554C244.875 33.8948 245.036 33.7341 245.036 33.4129V30.2001H244.843C244.715 30.4571 244.533 30.7034 244.297 30.939C244.072 31.1639 243.772 31.3513 243.397 31.5013C243.033 31.6405 242.573 31.7101 242.016 31.7101C241.459 31.7101 240.94 31.5923 240.458 31.3567C239.987 31.1211 239.606 30.7677 239.317 30.2965C239.039 29.8253 238.9 29.2309 238.9 28.5134V23.7424H239.863V28.4491C239.863 29.2951 240.078 29.9056 240.506 30.2804C240.934 30.6552 241.507 30.8426 242.225 30.8426C243.028 30.8426 243.697 30.5803 244.233 30.0555C244.768 29.5307 245.036 28.7329 245.036 27.662V23.7424H246V33.5414C246 33.9269 245.893 34.2268 245.679 34.4409C245.475 34.6551 245.165 34.7622 244.747 34.7622H239.992Z" fill="#1C1C1C"/>
<defs>
<linearGradient id="paint0_linear_2_10166" x1="-0.802999" y1="-4.09233" x2="10.6313" y2="71.7411" gradientUnits="userSpaceOnUse">
<stop stop-color="#AADA5D"/>
<stop offset="1" stop-color="#0DAEB9"/>
</linearGradient>
</defs>
</svg>
