<svg width="81" height="82" viewBox="0 0 81 82" fill="none" xmlns="http://www.w3.org/2000/svg">
<g clip-path="url(#clip0_7612_11843)">
<path d="M72.6692 18.4447C72.6692 34.5292 81 45.5797 81 53.3253C81 61.0709 76.545 77.3519 40.8908 77.3519C5.23665 77.3519 0 55.4536 0 46.9303C0 7.00948 72.6692 -10.043 72.6692 18.4447Z" fill="#4F5463"/>
<path d="M72.6692 18.4447C72.6692 34.5292 81 45.5797 81 53.3253C81 61.0709 76.545 77.3519 40.8908 77.3519C5.23665 77.3519 0 55.4536 0 46.9303C0 7.00948 72.6692 -10.043 72.6692 18.4447Z" fill="#4F5463"/>
<path d="M67.5332 4.19629H69.8599V8.85379H67.5332V4.19629Z" fill="#AADA5D"/>
<path d="M72.7656 11.1729H77.4231V13.4975H72.7656V11.1729Z" fill="#AADA5D"/>
<path d="M44.0325 11.6664C43.729 11.3653 43.3189 11.1963 42.8914 11.1963C42.4639 11.1963 42.0537 11.3653 41.7503 11.6664L10.9703 42.3127C10.6692 42.6162 10.5002 43.0263 10.5002 43.4538C10.5002 43.8813 10.6692 44.2915 10.9703 44.5949L29.7461 63.2958H12.1063C11.6767 63.2958 11.2646 63.4664 10.9608 63.7703C10.657 64.0741 10.4863 64.4861 10.4863 64.9158C10.4863 65.3454 10.657 65.7575 10.9608 66.0613C11.2646 66.3651 11.6767 66.5358 12.1063 66.5358H70.6065C71.0362 66.5358 71.4483 66.3651 71.7521 66.0613C72.0559 65.7575 72.2266 65.3454 72.2266 64.9158C72.2266 64.4861 72.0559 64.0741 71.7521 63.7703C71.4483 63.4664 71.0362 63.2958 70.6065 63.2958H56.0407L74.8125 44.5969C74.9618 44.4476 75.0803 44.2703 75.1611 44.0752C75.2419 43.8802 75.2835 43.6711 75.2835 43.4599C75.2835 43.2487 75.2419 43.0396 75.1611 42.8445C75.0803 42.6494 74.9618 42.4721 74.8125 42.3228L44.0325 11.6664ZM51.4642 63.3039H34.3266L14.4007 43.4589L42.8944 15.0886L71.3922 43.4589L51.4642 63.3039Z" fill="#DCDCDC"/>
<path d="M42.8856 57.3489L38.0965 52.9081L26.959 41.8131L42.8937 25.9473L58.8305 41.8131L42.8856 57.3489Z" fill="#5DDAA8"/>
</g>
<defs>
<clipPath id="clip0_7612_11843">
<rect width="81" height="81" fill="white" transform="translate(0 0.146484)"/>
</clipPath>
</defs>
</svg>
