<svg width="72" height="73" viewBox="0 0 72 73" fill="none" xmlns="http://www.w3.org/2000/svg">
<path d="M7.389 56.9007C7.389 42.6016 0 32.7808 0 25.894C0 19.0072 3.95999 4.53516 35.5698 4.53516C67.1796 4.53516 71.8254 24.0004 71.8254 31.5784C71.829 67.0618 7.389 82.2196 7.389 56.9007Z" fill="#4F5463"/>
<path d="M67.6152 6.66928L70.5384 3.74609L72 5.20769L69.0768 8.1309L67.6152 6.66928Z" fill="#AADA5D"/>
<path d="M58.8555 5.21452L60.3171 3.75293L63.2403 6.67614L61.7787 8.13593L58.8555 5.21452Z" fill="#AADA5D"/>
<path d="M67.2559 13.6208L68.7175 12.1592L71.6407 15.0824L70.1791 16.544L67.2559 13.6208Z" fill="#AADA5D"/>
<path opacity="0.8" d="M31.9014 21.081L17.2643 35.7181C15.8584 37.124 15.8584 39.4034 17.2643 40.8093L31.9014 55.4464C33.3073 56.8523 35.5867 56.8523 36.9926 55.4464L51.6297 40.8093C53.0356 39.4034 53.0356 37.124 51.6297 35.7181L36.9926 21.081C35.5867 19.6751 33.3073 19.6751 31.9014 21.081Z" fill="#5DDAA8"/>
<path d="M54.2511 43.2349C54.1244 43.1054 53.9732 43.0023 53.8064 42.9316C53.6395 42.8608 53.4603 42.8238 53.2791 42.8227C52.9139 42.8241 52.5641 42.9702 52.3064 43.229C52.0486 43.4877 51.9039 43.8381 51.9039 44.2033C51.9041 44.5664 52.047 44.9148 52.3017 45.1735L58.3587 51.3187L53.2269 50.4475C51.7595 50.1984 50.3207 49.8028 48.9321 49.2667C46.5582 48.3493 44.3532 47.0439 42.4071 45.4039C40.306 43.6142 38.5 41.5045 37.0557 39.1525L36.4959 38.2525L37.0557 37.3525C38.5009 35.0006 40.3067 32.8905 42.4071 31.0993C44.3526 29.4584 46.5577 28.1529 48.9321 27.2365C50.318 26.7038 51.7538 26.3113 53.2179 26.0647L58.3497 25.1935L52.2927 31.3423C52.1016 31.5358 51.9719 31.7814 51.9199 32.0483C51.8678 32.3151 51.8957 32.5915 52.0001 32.8426C52.1045 33.0936 52.2807 33.3083 52.5067 33.4596C52.7326 33.611 52.9982 33.6922 53.2701 33.6931C53.4513 33.6921 53.6306 33.6552 53.7974 33.5844C53.9643 33.5137 54.1154 33.4105 54.2421 33.2809L61.9011 25.5049C62.1583 25.2443 62.3016 24.8923 62.2996 24.5262C62.2976 24.16 62.1504 23.8097 61.8903 23.5519L54.2493 15.9847C53.9785 15.7432 53.6326 15.6026 53.2701 15.5869C52.9976 15.5899 52.732 15.6733 52.5067 15.8266C52.2814 15.9799 52.1063 16.1963 52.0035 16.4487C51.9007 16.7011 51.8746 16.9782 51.9286 17.2454C51.9826 17.5125 52.1143 17.7577 52.3071 17.9503L57.1671 22.7689L53.7471 23.2045C51.8644 23.4473 50.0157 23.9051 48.2373 24.5689C45.5307 25.5736 43.0131 27.0281 40.7907 28.8709C39.1001 30.2781 37.5807 31.8791 36.2637 33.6409L34.9245 35.4229L33.5853 33.6409C32.2676 31.8791 30.7476 30.2782 29.0565 28.8709C26.8341 27.0281 24.3165 25.5736 21.6099 24.5689C18.9494 23.524 16.1105 23.0086 13.2525 23.0515C12.9021 23.0726 12.5731 23.2267 12.3325 23.4823C12.092 23.7379 11.9581 24.0757 11.9583 24.4267C11.9598 24.6212 12.0013 24.8133 12.0803 24.9911C12.1592 25.1689 12.274 25.3284 12.4173 25.4599C12.55 25.5832 12.7068 25.6777 12.8778 25.7375C13.0488 25.7972 13.2303 25.821 13.4109 25.8073C15.8889 25.8107 18.3452 26.2689 20.6577 27.1591C23.0707 28.0567 25.3155 29.3541 27.2979 30.9967C29.4622 32.8113 31.3191 34.9636 32.7969 37.3705L33.3549 38.2705L32.7969 39.1705C31.3187 41.5771 29.4619 43.7294 27.2979 45.5443C25.313 47.1896 23.0652 48.4888 20.6487 49.3873C18.3453 50.264 15.9025 50.7171 13.4379 50.7247C13.255 50.7103 13.0711 50.7326 12.897 50.7905C12.7229 50.8483 12.5621 50.9404 12.4242 51.0614C12.2863 51.1823 12.174 51.3297 12.094 51.4948C12.014 51.6599 11.9678 51.8393 11.9583 52.0225C11.9428 52.3856 12.0692 52.7404 12.3108 53.0119C12.5524 53.2833 12.8901 53.4501 13.2525 53.4769C16.1102 53.5177 18.9485 53.003 21.6099 51.9613C24.316 50.9555 26.8334 49.5012 29.0565 47.6593C30.7457 46.2512 32.2645 44.6503 33.5817 42.8893L34.9227 41.1055L36.2601 42.8893C37.5811 44.6528 39.104 46.2555 40.7979 47.6647C43.0207 49.507 45.5382 50.9614 48.2445 51.9667C50.0229 52.6308 51.8716 53.0886 53.7543 53.3311L57.1743 53.7649L52.3143 58.5835C52.1201 58.7756 51.9872 59.0209 51.9323 59.2884C51.8774 59.556 51.9029 59.8338 52.0058 60.0868C52.1086 60.3398 52.2841 60.5568 52.5101 60.7102C52.736 60.8635 53.0024 60.9466 53.2755 60.9487C53.4573 60.9531 53.638 60.92 53.8064 60.8515C53.9749 60.7831 54.1275 60.6808 54.2547 60.5509L61.9029 52.9675C62.1621 52.7094 62.309 52.3595 62.3115 51.9937C62.3115 51.6271 62.1681 51.275 61.9119 51.0127L54.2511 43.2349Z" fill="#DCDCDC"/>
</svg>
