<svg width="81" height="81" viewBox="0 0 81 81" fill="none" xmlns="http://www.w3.org/2000/svg">
<g clip-path="url(#clip0_4910_6784)">
<path d="M72.6651 62.7486C72.6651 46.662 80.998 35.6136 80.998 27.866C80.998 20.1183 76.543 3.83936 40.8868 3.83936C5.23056 3.83936 0 25.7377 0 34.2609C0 74.1818 72.6651 91.2343 72.6651 62.7486Z" fill="#EEF9F5"/>
<path d="M57.5498 33.6755L45.5806 21.7063C43.999 20.1247 41.4346 20.1247 39.853 21.7063L27.8838 33.6755C26.3022 35.2571 26.3022 37.8214 27.8838 39.4031L39.853 51.3722C41.4346 52.9539 43.999 52.9539 45.5806 51.3722L57.5498 39.4031C59.1314 37.8214 59.1314 35.2571 57.5498 33.6755Z" fill="#5DDAA8"/>
<path d="M63.5273 4.59889L65.1716 2.95459L68.4603 6.24319L66.8159 7.88546L63.5273 4.59889Z" fill="#AADA5D"/>
<path d="M72.9805 14.0537L74.6248 12.4094L77.9134 15.698L76.2691 17.3423L72.9805 14.0537Z" fill="#AADA5D"/>
<path d="M72.5723 6.24116L75.8609 2.95459L77.5052 4.59686L74.2166 7.88546L72.5723 6.24116Z" fill="#AADA5D"/>
<path d="M42.4604 42.8429C42.625 41.4856 43.2857 40.2371 44.3153 39.3376C44.8793 38.9932 45.512 38.7769 46.1687 38.7037C46.8255 38.6306 47.4903 38.7025 48.1162 38.9144C48.196 38.9254 48.2766 38.9302 48.3572 38.9285L48.7622 38.9812L48.8999 39.0014C49.0416 39.0217 49.2846 39.0561 49.5924 39.0926C51.747 39.4976 52.7838 40.8725 54.2985 43.0737C55.5357 45.2786 57.3094 47.1356 59.4552 48.4726C61.601 49.8096 64.0496 50.5833 66.5741 50.7221L66.7421 50.7323C67.0441 50.7189 67.3302 50.5935 67.5447 50.3806C67.7591 50.1676 67.8865 49.8823 67.9019 49.5805C67.9173 49.2787 67.8197 48.9819 67.6281 48.7482C67.4365 48.5145 67.1647 48.3605 66.8657 48.3164C64.679 48.1961 62.5587 47.5217 60.7043 46.3567C58.8499 45.1916 57.3222 43.5741 56.2648 41.6562C55.9266 41.1722 55.552 40.6295 55.1409 40.099L54.5334 39.3113L55.5277 39.2667C57.5744 39.1745 59.5959 38.778 61.5257 38.0902L61.7283 38.0254C62.5292 37.7289 63.3964 37.659 64.2345 37.8234C65.0726 37.9877 65.8492 38.3799 66.4789 38.9569C67.5451 39.7576 68.8012 40.267 70.1239 40.4351L71.0716 40.4493C71.2289 40.4558 71.3859 40.4313 71.5338 40.3771C71.6816 40.323 71.8173 40.2402 71.9331 40.1336C72.0489 40.027 72.1426 39.8986 72.2088 39.7557C72.2751 39.6129 72.3125 39.4584 72.319 39.3011C72.3199 39.2829 72.3199 39.2647 72.319 39.2465C72.319 38.9267 72.193 38.6198 71.9682 38.3923C71.7434 38.1649 71.438 38.0352 71.1182 38.0315L70.2413 38.0173C69.3346 37.8354 68.4813 37.449 67.7466 36.8873C67.2808 36.5856 66.7604 36.2798 66.2359 36.0125L65.4806 35.6258L66.1711 35.1317C67.2342 34.3753 68.4411 33.8447 69.7172 33.5727C70.9933 33.3007 72.3115 33.293 73.5907 33.5501C73.9116 33.6519 74.2598 33.622 74.5587 33.4671C74.7682 33.3519 74.9391 33.1775 75.0499 32.9656C75.1608 32.7537 75.2067 32.5139 75.1818 32.2761C75.1569 32.0382 75.0624 31.813 74.9102 31.6287C74.7579 31.4443 74.5546 31.309 74.3258 31.2396C72.3495 30.7917 70.2927 30.8438 68.3416 31.3912C66.3906 31.9385 64.6068 32.9639 63.1518 34.3743C62.4833 34.9491 61.7219 35.4059 60.9 35.725L60.4181 35.9052C59.3802 36.2653 58.3081 36.5177 57.2186 36.6585L56.0866 36.8023L56.7245 35.8566C57.6243 34.5207 58.3452 33.0726 58.8689 31.5494C59.1482 30.6011 59.6146 29.7182 60.2406 28.9531C60.8667 28.1879 61.6397 27.5559 62.514 27.0944C64.5276 26.336 66.7553 26.378 68.7388 27.2119C69.0413 27.31 69.3701 27.2857 69.6548 27.1441C69.9395 27.0025 70.1574 26.7549 70.2616 26.4545C70.3637 26.1628 70.3508 25.8432 70.2255 25.5607C70.1002 25.2781 69.872 25.054 69.5873 24.9338C67.5319 24.1058 65.2785 23.9002 63.1073 24.3425L61.5136 24.6644L62.6294 23.4818C63.2841 22.7874 64.1115 22.2793 65.027 22.0097C65.3328 21.9124 65.5876 21.6981 65.736 21.4135C65.8843 21.129 65.9141 20.7973 65.8188 20.4909C65.7731 20.3366 65.6969 20.1931 65.5946 20.0689C65.4923 19.9447 65.3661 19.8424 65.2234 19.768C65.0827 19.6926 64.9283 19.6462 64.7693 19.6316C64.6103 19.617 64.4501 19.6345 64.298 19.6829C60.1791 20.9627 58.8507 24.63 57.5649 28.1758C57.336 28.8035 57.093 29.4596 56.8419 30.1056L56.6394 30.624C54.2601 37.1222 51.8564 36.8651 49.072 36.5694C47.7147 36.4063 46.466 35.7462 45.5667 34.7165C45.222 34.1527 45.0054 33.52 44.9322 32.8632C44.8591 32.2063 44.9312 31.5415 45.1435 30.9156C45.1535 30.8323 45.1562 30.7483 45.1516 30.6645C45.182 30.4316 45.1982 30.3263 45.2063 30.2595L45.2265 30.1117C45.2468 29.9699 45.2812 29.731 45.3156 29.4313C45.7206 27.2767 47.0956 26.2399 49.2968 24.7252C51.5016 23.4858 53.3581 21.7101 54.6943 19.5626C56.0305 17.415 56.8033 14.9651 56.9412 12.4395C56.9623 12.277 56.9506 12.1119 56.9068 11.954C56.8629 11.7961 56.7879 11.6486 56.686 11.5202C56.5876 11.3953 56.4652 11.2912 56.3262 11.214C56.1871 11.1368 56.0341 11.0881 55.876 11.0706C55.556 11.0346 55.2348 11.1271 54.983 11.3278C54.8582 11.4263 54.7541 11.5487 54.677 11.6877C54.5998 11.8268 54.551 11.9797 54.5334 12.1378C54.4145 14.3259 53.7407 16.4478 52.5756 18.3038C51.4104 20.1597 49.7922 21.6887 47.8732 22.7468C47.3913 23.0849 46.8486 23.4596 46.318 23.8686L45.5303 24.4761L45.4877 23.4798C45.3975 21.3945 44.9877 19.3354 44.2728 17.3744C43.9513 16.5639 43.8657 15.679 44.0259 14.8218C44.186 13.9647 44.5854 13.1704 45.1779 12.5306C45.9784 11.4646 46.4872 10.2083 46.6542 8.88565L46.6724 7.93795C46.6754 7.77912 46.6469 7.62128 46.5885 7.47355C46.5301 7.32582 46.443 7.19114 46.3322 7.07732C46.2215 6.96362 46.0893 6.87302 45.9433 6.8108C45.7973 6.74858 45.6404 6.71596 45.4817 6.71485H45.4594C45.1413 6.71478 44.8359 6.83945 44.6088 7.06208C44.3816 7.28471 44.2508 7.58754 44.2444 7.90555L44.2302 8.7763C44.0497 9.68446 43.6623 10.5388 43.0983 11.2731C42.7986 11.7368 42.4907 12.2573 42.2234 12.7817L41.8367 13.5371L41.3426 12.8465C40.5863 11.7834 40.0558 10.5765 39.7838 9.30045C39.5118 8.02438 39.5041 6.70612 39.7611 5.42695C39.8133 5.26835 39.8328 5.10083 39.8185 4.93448C39.8042 4.76813 39.7565 4.60639 39.678 4.459C39.6028 4.31783 39.5001 4.19315 39.3759 4.0923C39.2518 3.99144 39.1087 3.91645 38.9551 3.87175C38.6476 3.78026 38.3165 3.81408 38.0338 3.96583C37.7512 4.11757 37.5401 4.37493 37.4465 4.68175C37.0055 6.6532 37.0618 8.7034 37.6105 10.6476C38.1591 12.5919 39.1828 14.3691 40.5893 15.8192C41.1662 16.4865 41.6251 17.2474 41.946 18.069L42.0817 18.4315C42.4698 19.5133 42.7381 20.6344 42.8816 21.7748L43.0274 22.9067L42.0817 22.2689C40.7466 21.3727 39.2999 20.6552 37.7786 20.1345C36.8277 19.8568 35.9423 19.391 35.1746 18.765C34.4069 18.1389 33.7727 17.3651 33.3094 16.4895C32.5518 14.4763 32.5945 12.2493 33.4289 10.2667C33.5404 9.96715 33.5294 9.63573 33.3983 9.34425C33.2671 9.05276 33.0264 8.8247 32.7282 8.70947C32.4277 8.59324 32.0934 8.60112 31.7987 8.73137C31.504 8.86162 31.2731 9.10359 31.1568 9.40405C30.3198 11.4654 30.1085 13.7276 30.5493 15.9083L30.8733 17.502L29.6887 16.3862C28.9946 15.7305 28.4866 14.9025 28.2165 13.9866C28.1193 13.6808 27.9049 13.426 27.6204 13.2776C27.3359 13.1293 27.0042 13.0995 26.6978 13.1948C26.5441 13.2411 26.401 13.3173 26.2769 13.4192C26.1529 13.521 26.0502 13.6464 25.9748 13.7882C25.9007 13.9297 25.8552 14.0845 25.841 14.2436C25.8267 14.4028 25.844 14.5632 25.8919 14.7156C27.1696 18.8345 30.8389 20.1629 34.3827 21.4487C35.0124 21.6796 35.6645 21.9206 36.3125 22.1717C36.4583 22.2324 36.596 22.2851 36.7317 22.3357L36.8714 22.3904C43.3332 24.7515 43.076 27.1592 42.7763 29.9416C42.6115 31.2977 41.9508 32.5448 40.9214 33.4428C40.3578 33.7881 39.725 34.005 39.0681 34.0781C38.4112 34.1513 37.7462 34.0789 37.1205 33.866C37.0413 33.8552 36.9614 33.8498 36.8815 33.8498L36.4765 33.7972L36.3226 33.7769C36.1808 33.7567 35.9439 33.7223 35.6483 33.6878C33.4937 33.2828 32.4569 31.9079 30.9422 29.7067C29.7046 27.5011 27.9304 25.6436 25.7838 24.3062C23.6372 22.9689 21.1879 22.195 18.6626 22.0562C18.5034 22.0347 18.3416 22.0448 18.1864 22.0862C18.0312 22.1276 17.8858 22.1993 17.7585 22.2972C17.6312 22.3951 17.5245 22.5173 17.4448 22.6567C17.365 22.7961 17.3137 22.9499 17.2937 23.1092V23.1234C17.2584 23.4432 17.3514 23.7638 17.5522 24.0151C17.753 24.2664 18.0453 24.4278 18.3649 24.464C20.5536 24.5826 22.6762 25.2564 24.5325 26.422C26.3889 27.5875 27.918 29.2064 28.9759 31.1262C29.3121 31.6102 29.6887 32.1549 30.0978 32.6834L30.7053 33.4712L29.709 33.5137C27.6238 33.6051 25.5649 34.0148 23.6036 34.7287C22.7939 35.0489 21.9101 35.1339 21.0542 34.9737C20.1983 34.8136 19.405 34.4149 18.7659 33.8235C17.6994 33.0233 16.4434 32.5139 15.1209 32.3453L14.1732 32.3291C13.8541 32.335 13.5478 32.4558 13.3105 32.6693C13.0809 32.8937 12.9496 33.1998 12.945 33.5208C12.9404 33.8418 13.0631 34.1516 13.2862 34.3824C13.5109 34.6106 13.8165 34.7409 14.1367 34.7449L15.0075 34.7591C15.9154 34.9404 16.7696 35.3277 17.5043 35.891C17.9721 36.1928 18.4925 36.4985 19.0129 36.7679L19.7662 37.1567L19.0757 37.6487C18.0116 38.4032 16.8047 38.9324 15.5288 39.2036C14.2529 39.4749 12.935 39.4826 11.6561 39.2262C11.4964 39.1708 11.3271 39.1479 11.1584 39.1591C10.9897 39.1702 10.825 39.2151 10.6739 39.291C10.459 39.4008 10.2817 39.5722 10.1645 39.7832C10.0473 39.9942 9.99566 40.2353 10.0161 40.4758C10.0365 40.7163 10.1281 40.9453 10.2792 41.1335C10.4302 41.3217 10.6339 41.4607 10.8643 41.5327C11.7021 41.7569 12.5669 41.8632 13.434 41.8486C16.6413 41.8268 19.7227 40.5977 22.0646 38.4061C22.6942 37.8575 23.4107 37.4175 24.1848 37.104C24.3549 37.0433 24.5047 36.9845 24.6586 36.9238L24.7882 36.8813C25.8254 36.5213 26.8969 36.2688 27.9857 36.128L29.1177 35.9842L28.4798 36.9299C27.5818 38.2644 26.8616 39.7103 26.3373 41.231C26.0602 42.1821 25.5947 43.0679 24.9686 43.8356C24.3424 44.6034 23.5684 45.2374 22.6923 45.7001C20.6783 46.4569 18.451 46.4141 16.4675 45.5807C16.1706 45.4894 15.85 45.5152 15.5716 45.6529C15.2932 45.7906 15.0781 46.0298 14.9705 46.3211C14.8629 46.6125 14.871 46.9341 14.9931 47.2197C15.1153 47.5053 15.3421 47.7332 15.6271 47.8568C17.013 48.3945 18.4843 48.6785 19.9707 48.6951H19.987C20.7 48.6934 21.4105 48.6112 22.1051 48.4501L23.7777 48.0613L22.5971 49.3087C21.9415 50.0009 21.1153 50.5086 20.2016 50.7809C19.8963 50.8782 19.6418 51.0922 19.4935 51.3762C19.3452 51.6603 19.3151 51.9915 19.4098 52.2976C19.4563 52.4515 19.5328 52.5946 19.635 52.7187C19.7372 52.8428 19.863 52.9454 20.0052 53.0205C20.1459 53.0959 20.3003 53.1423 20.4592 53.1569C20.6182 53.1715 20.7785 53.154 20.9306 53.1056C25.0494 51.8278 26.3779 48.1585 27.6637 44.6127C27.8946 43.9829 28.1335 43.3289 28.3866 42.6829C28.4474 42.5411 28.498 42.3994 28.5507 42.2597L28.6053 42.122C30.9705 35.6602 33.3722 35.9153 36.1565 36.215C37.5139 36.3777 38.7624 37.0388 39.6598 38.0699C40.0042 38.6339 40.2205 39.2666 40.2936 39.9234C40.3668 40.5801 40.2949 41.2449 40.083 41.8709C40.0721 41.95 40.0667 42.0299 40.0669 42.1098C40.0385 42.3386 40.0243 42.4419 40.0162 42.5148L39.996 42.6485C39.9757 42.7882 39.9413 43.0312 39.9069 43.343C39.5019 45.4976 38.1269 46.5344 35.9257 48.0491C33.7206 49.2873 31.8635 51.0617 30.5262 53.2081C29.1889 55.3546 28.4147 57.8037 28.2753 60.3287C28.2543 60.488 28.2651 60.6499 28.3071 60.805C28.3491 60.9601 28.4215 61.1053 28.52 61.2322C28.6185 61.3591 28.7411 61.4653 28.8809 61.5445C29.0207 61.6237 29.1748 61.6743 29.3343 61.6936C29.3781 61.6972 29.4222 61.6972 29.466 61.6936C29.767 61.6953 30.0579 61.5852 30.2823 61.3847C30.5068 61.1842 30.6489 60.9075 30.681 60.6082C30.7999 58.4198 31.4739 56.2977 32.6395 54.4417C33.805 52.5857 35.4237 51.0569 37.3432 49.9992C37.8272 49.6631 38.3719 49.2864 38.9025 48.8753L39.6902 48.2678L39.7347 49.2621C39.8291 51.3436 40.2387 53.3988 40.9497 55.3574C41.2761 56.1689 41.3655 57.0564 41.2074 57.9168C41.0493 58.7771 40.6503 59.5749 40.0567 60.2174C39.2559 61.2833 38.7471 62.5396 38.5805 63.8624L38.5643 64.808C38.5608 64.9672 38.589 65.1254 38.6473 65.2735C38.7056 65.4216 38.7928 65.5566 38.9038 65.6706C39.0149 65.7847 39.1475 65.8755 39.294 65.9377C39.4405 65.9999 39.5978 66.0324 39.757 66.0332C40.0786 66.0386 40.3892 65.9163 40.6207 65.6931C40.8523 65.4699 40.9859 65.164 40.9922 64.8425L41.0064 63.9717C41.1878 63.0638 41.575 62.2096 42.1384 61.4749C42.4544 60.9862 42.7457 60.4821 43.0112 59.9642L43.4 59.2069L43.8941 59.8974C44.6497 60.9609 45.1798 62.1678 45.4518 63.4437C45.7238 64.7197 45.7319 66.0378 45.4756 67.317C45.4234 67.4756 45.4039 67.6431 45.4181 67.8095C45.4324 67.9758 45.4802 68.1376 45.5586 68.285C45.6738 68.4945 45.8483 68.6654 46.0602 68.7763C46.272 68.8871 46.5119 68.933 46.7497 68.9081C46.9875 68.8832 47.2127 68.7887 47.3971 68.6365C47.5815 68.4842 47.7168 68.2809 47.7861 68.0521C48.2262 66.0806 48.1694 64.0307 47.6208 62.0866C47.0722 60.1425 46.0491 58.3652 44.6433 56.9146C44.0697 56.2472 43.6136 55.4871 43.2947 54.6668L43.1266 54.1545C42.7668 53.1174 42.5151 52.0459 42.3754 50.957L42.2295 49.8251L43.1752 50.4629C44.5106 51.3612 45.9571 52.0821 47.4783 52.6074C48.4295 52.8844 49.3153 53.3499 50.0831 53.976C50.8508 54.6022 51.4849 55.3763 51.9475 56.2524C52.7053 58.2663 52.6626 60.494 51.828 62.4773C51.7036 62.7743 51.7022 63.1085 51.8241 63.4066C51.9459 63.7047 52.1812 63.9422 52.4781 64.0669C52.7754 64.1878 53.1082 64.1878 53.4055 64.0669C53.5533 64.0063 53.6876 63.9171 53.8009 63.8046C53.9142 63.692 54.0041 63.5582 54.0657 63.4108C54.9212 61.3254 55.1411 59.0335 54.6975 56.8235L54.3734 55.2278L55.5581 56.3456C56.2513 57.0012 56.7592 57.8283 57.0303 58.7432C57.1363 59.0384 57.3524 59.2812 57.6333 59.4207C57.9142 59.5602 58.2383 59.5857 58.5376 59.4918C58.8368 59.3979 59.0882 59.1918 59.2391 58.9168C59.3899 58.6418 59.4285 58.3191 59.3469 58.0162C58.0691 53.8994 54.3998 52.5689 50.856 51.2851C50.2141 51.0502 49.5661 50.8112 48.9262 50.5622C48.7845 50.5034 48.6407 50.4508 48.503 50.3981L48.3693 50.3435C41.9116 48.0289 42.1647 45.6272 42.4604 42.8429Z" fill="black"/>
</g>
<defs>
<clipPath id="clip0_4910_6784">
<rect width="81" height="81" fill="white"/>
</clipPath>
</defs>
</svg>
