<svg width="77" height="77" viewBox="0 0 77 77" fill="none" xmlns="http://www.w3.org/2000/svg">
<g clip-path="url(#clip0_4914_7261)">
<path d="M69.0805 16.0488C69.0805 31.339 77 41.8438 77 49.2069C77 56.57 72.765 72.0489 38.8696 72.0489C4.9742 72.0489 0 51.232 0 43.1277C0 5.1802 69.0805 -11.0302 69.0805 16.0488Z" fill="#F9F6EE"/>
<path d="M60.501 10.449C60.0155 10.4472 59.5365 10.5606 59.1034 10.7801L9.52891 31.6028C9.24304 31.7243 8.99928 31.9272 8.8281 32.1864C8.65691 32.4456 8.5659 32.7494 8.56641 33.06V42.7697C8.56565 43.0804 8.65656 43.3844 8.82777 43.6436C8.99899 43.9028 9.24289 44.1058 9.52891 44.227L20.153 48.6872V67.9699C20.1535 69.0513 20.5831 70.0882 21.3476 70.853C22.112 71.6178 23.1488 72.048 24.2301 72.049H36.4943C37.5755 72.048 38.612 71.6178 39.3762 70.8529C40.1403 70.088 40.5695 69.0511 40.5695 67.9699V57.265L59.0784 65.0381C59.5147 65.2632 59.9985 65.3807 60.4894 65.3808C62.9919 65.3808 64.8669 62.4933 66.2259 56.5681C68.5974 44.2405 68.5974 31.5739 66.2259 19.2462C64.8803 13.3307 63.0035 10.449 60.501 10.449ZM37.4164 67.9738C37.4164 68.0934 37.3928 68.2117 37.3471 68.3222C37.3013 68.4327 37.2342 68.5331 37.1497 68.6176C37.0651 68.7022 36.9648 68.7692 36.8543 68.815C36.7438 68.8608 36.6254 68.8843 36.5058 68.8843H24.2378C24.1182 68.8843 23.9998 68.8608 23.8894 68.815C23.7789 68.7692 23.6785 68.7022 23.594 68.6176C23.5094 68.5331 23.4424 68.4327 23.3966 68.3222C23.3508 68.2117 23.3273 68.0934 23.3273 67.9738V50.0135L37.4164 55.931V67.9738ZM54.7645 56.5778C55.0408 57.8154 55.3865 59.0365 55.8001 60.2353L11.733 41.7225V34.1265L55.8001 15.6176C55.3861 16.8164 55.0397 18.0375 54.7625 19.2751L54.0618 22.9326C53.3186 27.8942 52.9589 32.9057 52.9858 37.9226C52.9094 44.1841 53.5051 50.4357 54.7625 56.5701L54.7645 56.5778ZM56.1563 37.9168C56.1563 36.3364 56.189 34.7637 56.2525 33.2352C57.3224 33.4719 58.2795 34.0666 58.9656 34.921C59.6517 35.7754 60.0256 36.8384 60.0256 37.9341C60.0256 39.0299 59.6517 40.0929 58.9656 40.9473C58.2795 41.8017 57.3224 42.3964 56.2525 42.6331C56.1851 41.0931 56.1524 39.505 56.1524 37.9168H56.1563ZM63.1536 55.8675C62.0544 60.6569 60.8436 62.0525 60.5125 62.2084H60.4894C60.4336 62.1737 59.1034 61.319 57.8483 55.8751C57.1326 52.5646 56.6604 49.2062 56.4354 45.8266C58.3108 45.5269 60.018 44.5684 61.2504 43.1233C62.4829 41.6782 63.1599 39.8411 63.1599 37.9418C63.1599 36.0426 62.4829 34.2055 61.2504 32.7604C60.018 31.3153 58.3108 30.3568 56.4354 30.057C56.6599 26.6691 57.1328 23.3022 57.8502 19.9835C59.0976 14.5454 60.4297 13.6849 60.4529 13.6637L60.5106 13.6426C60.8398 13.8081 62.0506 15.2018 63.1517 19.9835C65.4142 31.8372 65.4142 44.0118 63.1517 55.8655L63.1536 55.8675Z" fill="black"/>
<path d="M48.0094 25.5928L21.252 36.4325V39.4124L48.0094 50.252C47.1902 46.188 46.803 42.0487 46.8545 37.9032C46.8349 34.429 47.0924 30.9587 47.6244 27.5255L48.0094 25.5928Z" fill="#FFB300"/>
<path d="M61.1777 4.15649L62.7403 2.59389L65.8711 5.7246L64.3084 7.2872L61.1777 4.15649Z" fill="#FFB300"/>
<path d="M70.1641 13.1445L71.7267 11.5819L74.8574 14.7126L73.2948 16.2753L70.1641 13.1445Z" fill="#FFB300"/>
<path d="M69.7773 5.71777L72.908 2.58707L74.4693 4.14835L71.3386 7.27905L69.7773 5.71777Z" fill="#FFB300"/>
</g>
<defs>
<clipPath id="clip0_4914_7261">
<rect width="77" height="77" fill="white"/>
</clipPath>
</defs>
</svg>
