<svg width="81" height="82" viewBox="0 0 81 82" fill="none" xmlns="http://www.w3.org/2000/svg">
<g clip-path="url(#clip0_7612_11829)">
<path d="M72.4952 19.2345C72.4952 35.319 80.8061 46.3695 80.8061 54.1171C80.8061 61.8648 76.3617 78.1457 40.7909 78.1457C5.22007 78.1457 4.22182e-08 56.2454 4.22182e-08 47.7262C-0.00202011 7.79929 72.4952 -9.25325 72.4952 19.2345Z" fill="#4F5463"/>
<path d="M76.0791 7.48315L79.3598 4.18848L81.0002 5.83075L77.7195 9.11935L76.0791 7.48315Z" fill="#00D1D9"/>
<path d="M66.2471 5.84743L67.8874 4.20312L71.1682 7.49173L69.5278 9.13603L66.2471 5.84743Z" fill="#00D1D9"/>
<path d="M75.6768 15.3034L77.3171 13.6611L80.5978 16.9457L78.9575 18.59L75.6768 15.3034Z" fill="#00D1D9"/>
<path d="M70.3778 39.1176C70.169 38.995 69.9323 38.9283 69.6904 38.9237C69.4484 38.919 69.2094 38.9768 68.996 39.0912L66.5416 40.4581L65.7416 12.4908C65.7331 12.1252 65.582 11.7775 65.3206 11.5223C65.0592 11.2671 64.7085 11.1248 64.3436 11.126H56.8691C56.5042 11.1248 56.1535 11.2671 55.8921 11.5223C55.6307 11.7775 55.4796 12.1252 55.4711 12.4908L54.4813 47.1791L51.8712 48.633V40.3305C51.8682 40.0874 51.8027 39.8491 51.6812 39.6386C51.5597 39.4281 51.3862 39.2524 51.1775 39.1286C50.9687 39.0047 50.7316 38.9368 50.4891 38.9313C50.2465 38.9258 50.0066 38.983 49.7925 39.0973L32.6818 48.631V40.3285C32.6807 39.9568 32.5328 39.6007 32.2705 39.3381C32.0081 39.0755 31.6526 38.9277 31.2818 38.9272C31.0449 38.9236 30.8111 38.9815 30.6031 39.0953L11.4116 49.7853C11.1938 49.908 11.0123 50.0864 10.8856 50.3023C10.7589 50.5182 10.6916 50.764 10.6904 51.0144V74.5186C10.6915 74.8903 10.8394 75.2464 11.1018 75.509C11.3641 75.7716 11.7196 75.9194 12.0904 75.9199H69.6829C70.0537 75.9199 70.4092 75.7723 70.6714 75.5095C70.9336 75.2467 71.0808 74.8903 71.0808 74.5186V40.3265C71.0792 40.081 71.0135 39.8402 70.8901 39.6281C70.7668 39.416 70.5901 39.24 70.3778 39.1176ZM49.3501 65.7483V73.1254H42.2795V65.7483H49.3501ZM39.4715 65.7483V73.1254H32.401V65.7483H39.4715ZM50.742 62.9498H30.9909C30.62 62.9503 30.2644 63.0984 30.0023 63.3615C29.7402 63.6246 29.593 63.9813 29.593 64.3531V73.1335H13.4742V51.8427L29.8718 42.7119V51.0246C29.8755 51.3956 30.0241 51.7504 30.2859 52.0128C30.5476 52.2752 30.9016 52.4242 31.2717 52.4279C31.5059 52.4295 31.7366 52.3716 31.9424 52.2598L49.0531 42.7281V51.0306C49.0531 51.4028 49.2006 51.7598 49.4632 52.0229C49.7257 52.2861 50.0818 52.434 50.4531 52.434C50.6872 52.4355 50.9179 52.3777 51.1238 52.2659L61.1882 46.6647L65.8648 44.0606L68.2506 42.7322V73.1477H52.1318V64.3653C52.1351 63.9943 51.9918 63.637 51.7334 63.3715C51.4749 63.1059 51.1221 62.9536 50.7521 62.9478L50.742 62.9498ZM57.3155 45.5935L58.2226 13.9326H62.974L63.782 42.0052L57.3155 45.5935Z" fill="#DCDCDC"/>
<path d="M50.4273 55.9311C49.2899 55.9405 48.187 55.5395 47.3203 54.8011C46.9226 54.4663 46.6011 54.05 46.3774 53.5802C46.1537 53.1104 46.0329 52.598 46.0233 52.0775V49.3599L33.4136 55.4552C32.7327 55.7656 31.9939 55.9278 31.2459 55.9311C30.1558 55.9943 29.0842 55.627 28.261 54.9078C27.4378 54.1886 26.9284 53.1748 26.842 52.0836V49.3438L16.5049 54.3394V68.6359H26.5632V63.6443C26.6491 62.5484 27.1617 61.5305 27.9904 60.8105C28.819 60.0905 29.897 59.7264 30.9914 59.7968H50.7889C51.8814 59.7385 52.9529 60.1137 53.7714 60.8414C54.5899 61.569 55.0897 62.5905 55.1625 63.6848V68.6359H65.2208V49.3559L52.5949 55.4552C51.9111 55.7567 51.1742 55.9185 50.4273 55.9311Z" fill="#00D1D9"/>
</g>
<defs>
<clipPath id="clip0_7612_11829">
<rect width="81" height="81" fill="white" transform="translate(0 0.146484)"/>
</clipPath>
</defs>
</svg>
