<svg width="81" height="82" viewBox="0 0 81 82" fill="none" xmlns="http://www.w3.org/2000/svg">
<g clip-path="url(#clip0_7612_11815)">
<path d="M72.6651 62.8956C72.6651 46.809 80.998 35.7606 80.998 28.013C80.998 20.2653 76.543 3.98633 40.8868 3.98633C5.23056 3.98633 0 25.8847 0 34.4079C0 74.3288 72.6651 91.3813 72.6651 62.8956Z" fill="#4F5463"/>
<path d="M57.5507 33.8222L45.5816 21.853C43.9999 20.2714 41.4356 20.2714 39.854 21.853L27.8848 33.8222C26.3032 35.4038 26.3032 37.9682 27.8848 39.5498L39.854 51.519C41.4356 53.1006 43.9999 53.1006 45.5816 51.519L57.5507 39.5498C59.1324 37.9682 59.1324 35.4038 57.5507 33.8222Z" fill="#5DDAA8"/>
<path d="M63.5283 4.74489L65.1726 3.10059L68.4612 6.38919L66.8169 8.03146L63.5283 4.74489Z" fill="#AADA5D"/>
<path d="M72.9814 14.2L74.6257 12.5557L77.9144 15.8443L76.27 17.4886L72.9814 14.2Z" fill="#AADA5D"/>
<path d="M72.5742 6.38716L75.8628 3.10059L77.5071 4.74286L74.2185 8.03146L72.5742 6.38716Z" fill="#AADA5D"/>
<path d="M42.4604 42.9894C42.625 41.6321 43.2857 40.3836 44.3153 39.4841C44.8793 39.1397 45.512 38.9234 46.1687 38.8502C46.8255 38.7771 47.4903 38.849 48.1162 39.0609C48.196 39.0719 48.2766 39.0766 48.3572 39.075L48.7622 39.1277L48.8999 39.1479C49.0416 39.1682 49.2846 39.2026 49.5924 39.2391C51.747 39.6441 52.7838 41.019 54.2985 43.2202C55.5357 45.4251 57.3094 47.2821 59.4552 48.6191C61.601 49.9561 64.0496 50.7298 66.5741 50.8686L66.7421 50.8788C67.0441 50.8654 67.3302 50.74 67.5447 50.527C67.7591 50.3141 67.8865 50.0288 67.9019 49.727C67.9173 49.4252 67.8197 49.1284 67.6281 48.8947C67.4365 48.6609 67.1647 48.507 66.8657 48.4629C64.679 48.3426 62.5587 47.6682 60.7043 46.5032C58.8499 45.3381 57.3222 43.7206 56.2648 41.8027C55.9266 41.3187 55.552 40.776 55.1409 40.2455L54.5334 39.4578L55.5277 39.4132C57.5744 39.321 59.5959 38.9245 61.5257 38.2367L61.7283 38.1719C62.5292 37.8754 63.3964 37.8055 64.2345 37.9699C65.0726 38.1342 65.8492 38.5264 66.4789 39.1034C67.5451 39.9041 68.8012 40.4135 70.1239 40.5816L71.0716 40.5958C71.2289 40.6023 71.3859 40.5778 71.5338 40.5236C71.6816 40.4694 71.8173 40.3867 71.9331 40.2801C72.0489 40.1734 72.1426 40.0451 72.2088 39.9022C72.2751 39.7594 72.3125 39.6049 72.319 39.4476C72.3199 39.4294 72.3199 39.4112 72.319 39.393C72.319 39.0732 72.193 38.7662 71.9682 38.5388C71.7434 38.3113 71.438 38.1817 71.1182 38.178L70.2413 38.1638C69.3346 37.9819 68.4813 37.5955 67.7466 37.0338C67.2808 36.7321 66.7604 36.4263 66.2359 36.159L65.4806 35.7723L66.1711 35.2782C67.2342 34.5218 68.4411 33.9912 69.7172 33.7192C70.9933 33.4472 72.3115 33.4395 73.5907 33.6966C73.9116 33.7984 74.2598 33.7685 74.5587 33.6136C74.7682 33.4984 74.9391 33.324 75.0499 33.1121C75.1608 32.9002 75.2067 32.6604 75.1818 32.4225C75.1569 32.1847 75.0624 31.9595 74.9102 31.7752C74.7579 31.5908 74.5546 31.4555 74.3258 31.3861C72.3495 30.9382 70.2927 30.9903 68.3416 31.5377C66.3906 32.085 64.6068 33.1103 63.1518 34.5208C62.4833 35.0956 61.7219 35.5523 60.9 35.8715L60.4181 36.0517C59.3802 36.4117 58.3081 36.6642 57.2186 36.805L56.0866 36.9488L56.7245 36.0031C57.6243 34.6671 58.3452 33.2191 58.8689 31.6959C59.1482 30.7476 59.6146 29.8647 60.2406 29.0996C60.8667 28.3344 61.6397 27.7024 62.514 27.2409C64.5276 26.4825 66.7553 26.5245 68.7388 27.3584C69.0413 27.4565 69.3701 27.4322 69.6548 27.2906C69.9395 27.149 70.1574 26.9014 70.2616 26.601C70.3637 26.3093 70.3508 25.9897 70.2255 25.7071C70.1002 25.4246 69.872 25.2004 69.5873 25.0803C67.5319 24.2523 65.2785 24.0467 63.1073 24.489L61.5136 24.8109L62.6294 23.6283C63.2841 22.9339 64.1115 22.4258 65.027 22.1562C65.3328 22.0589 65.5876 21.8446 65.736 21.56C65.8843 21.2755 65.9141 20.9438 65.8188 20.6374C65.7731 20.4831 65.6969 20.3396 65.5946 20.2154C65.4923 20.0912 65.3661 19.9889 65.2234 19.9145C65.0827 19.8391 64.9283 19.7927 64.7693 19.7781C64.6103 19.7635 64.4501 19.781 64.298 19.8294C60.1791 21.1092 58.8507 24.7765 57.5649 28.3223C57.336 28.95 57.093 29.6061 56.8419 30.2521L56.6394 30.7705C54.2601 37.2687 51.8564 37.0116 49.072 36.7159C47.7147 36.5527 46.466 35.8927 45.5667 34.863C45.222 34.2992 45.0054 33.6665 44.9322 33.0097C44.8591 32.3528 44.9312 31.688 45.1435 31.0621C45.1535 30.9788 45.1562 30.8948 45.1516 30.811C45.182 30.5781 45.1982 30.4728 45.2063 30.406L45.2265 30.2582C45.2468 30.1164 45.2812 29.8775 45.3156 29.5778C45.7206 27.4232 47.0956 26.3864 49.2968 24.8717C51.5016 23.6322 53.3581 21.8566 54.6943 19.709C56.0305 17.5615 56.8033 15.1116 56.9412 12.586C56.9623 12.4235 56.9506 12.2584 56.9068 12.1005C56.8629 11.9426 56.7879 11.795 56.686 11.6667C56.5876 11.5417 56.4652 11.4377 56.3262 11.3605C56.1871 11.2833 56.0341 11.2346 55.876 11.2171C55.556 11.1811 55.2348 11.2736 54.983 11.4743C54.8582 11.5728 54.7541 11.6951 54.677 11.8342C54.5998 11.9732 54.551 12.1262 54.5334 12.2843C54.4145 14.4724 53.7407 16.5943 52.5756 18.4503C51.4104 20.3062 49.7922 21.8352 47.8732 22.8933C47.3913 23.2314 46.8486 23.6061 46.318 24.0151L45.5303 24.6226L45.4877 23.6263C45.3975 21.541 44.9877 19.4819 44.2728 17.5209C43.9513 16.7104 43.8657 15.8254 44.0259 14.9683C44.186 14.1112 44.5854 13.3169 45.1779 12.6771C45.9784 11.6111 46.4872 10.3548 46.6542 9.03213L46.6724 8.08443C46.6754 7.92561 46.6469 7.76776 46.5885 7.62003C46.5301 7.4723 46.443 7.33763 46.3322 7.22381C46.2215 7.1101 46.0893 7.01951 45.9433 6.95728C45.7973 6.89506 45.6404 6.86245 45.4817 6.86133H45.4594C45.1413 6.86127 44.8359 6.98594 44.6088 7.20856C44.3816 7.43119 44.2508 7.73402 44.2444 8.05203L44.2302 8.92278C44.0497 9.83095 43.6623 10.6853 43.0983 11.4196C42.7986 11.8833 42.4907 12.4038 42.2234 12.9282L41.8367 13.6836L41.3426 12.993C40.5863 11.9298 40.0558 10.723 39.7838 9.44694C39.5118 8.17087 39.5041 6.85261 39.7611 5.57343C39.8133 5.41484 39.8328 5.24732 39.8185 5.08097C39.8042 4.91462 39.7565 4.75288 39.678 4.60548C39.6028 4.46432 39.5001 4.33964 39.3759 4.23878C39.2518 4.13792 39.1087 4.06294 38.9551 4.01823C38.6476 3.92675 38.3165 3.96057 38.0338 4.11231C37.7512 4.26406 37.5401 4.52141 37.4465 4.82823C37.0055 6.79969 37.0618 8.84988 37.6105 10.7941C38.1591 12.7384 39.1828 14.5156 40.5893 15.9657C41.1662 16.633 41.6251 17.3939 41.946 18.2155L42.0817 18.578C42.4698 19.6598 42.7381 20.7809 42.8816 21.9213L43.0274 23.0532L42.0817 22.4154C40.7466 21.5192 39.2999 20.8017 37.7786 20.281C36.8277 20.0032 35.9423 19.5375 35.1746 18.9114C34.4069 18.2853 33.7727 17.5116 33.3094 16.636C32.5518 14.6228 32.5945 12.3958 33.4289 10.4132C33.5404 10.1136 33.5294 9.78222 33.3983 9.49073C33.2671 9.19925 33.0264 8.97118 32.7282 8.85596C32.4277 8.73972 32.0934 8.7476 31.7987 8.87785C31.504 9.00811 31.2731 9.25007 31.1568 9.55053C30.3198 11.6119 30.1085 13.8741 30.5493 16.0548L30.8733 17.6485L29.6887 16.5327C28.9946 15.877 28.4866 15.049 28.2165 14.1331C28.1193 13.8273 27.9049 13.5724 27.6204 13.4241C27.3359 13.2758 27.0042 13.246 26.6978 13.3413C26.5441 13.3876 26.401 13.4638 26.2769 13.5656C26.1529 13.6675 26.0502 13.7929 25.9748 13.9347C25.9007 14.0762 25.8552 14.231 25.841 14.3901C25.8267 14.5493 25.844 14.7097 25.8919 14.8621C27.1696 18.981 30.8389 20.3094 34.3827 21.5952C35.0124 21.8261 35.6645 22.0671 36.3125 22.3182C36.4583 22.3789 36.596 22.4316 36.7317 22.4822L36.8714 22.5369C43.3332 24.898 43.076 27.3057 42.7763 30.0881C42.6115 31.4441 41.9508 32.6913 40.9214 33.5893C40.3578 33.9346 39.725 34.1515 39.0681 34.2246C38.4112 34.2978 37.7462 34.2254 37.1205 34.0125C37.0413 34.0017 36.9614 33.9963 36.8815 33.9963L36.4765 33.9437L36.3226 33.9234C36.1808 33.9032 35.9439 33.8688 35.6483 33.8343C33.4937 33.4293 32.4569 32.0544 30.9422 29.8532C29.7046 27.6476 27.9304 25.79 25.7838 24.4527C23.6372 23.1153 21.1879 22.3414 18.6626 22.2027C18.5034 22.1811 18.3416 22.1913 18.1864 22.2327C18.0312 22.274 17.8858 22.3457 17.7585 22.4437C17.6312 22.5416 17.5245 22.6638 17.4448 22.8032C17.365 22.9426 17.3137 23.0964 17.2937 23.2557V23.2699C17.2584 23.5896 17.3514 23.9103 17.5522 24.1616C17.753 24.4129 18.0453 24.5743 18.3649 24.6105C20.5536 24.7291 22.6762 25.4029 24.5325 26.5685C26.3889 27.734 27.918 29.3529 28.9759 31.2727C29.3121 31.7567 29.6887 32.3014 30.0978 32.8299L30.7053 33.6177L29.709 33.6602C27.6238 33.7516 25.5649 34.1613 23.6036 34.8752C22.7939 35.1954 21.9101 35.2804 21.0542 35.1202C20.1983 34.9601 19.405 34.5614 18.7659 33.97C17.6994 33.1698 16.4434 32.6604 15.1209 32.4918L14.1732 32.4756C13.8541 32.4815 13.5478 32.6023 13.3105 32.8158C13.0809 33.0402 12.9496 33.3463 12.945 33.6673C12.9404 33.9883 13.0631 34.2981 13.2862 34.5289C13.5109 34.7571 13.8165 34.8874 14.1367 34.8914L15.0075 34.9056C15.9154 35.0869 16.7696 35.4741 17.5043 36.0375C17.9721 36.3393 18.4925 36.645 19.0129 36.9144L19.7662 37.3032L19.0757 37.7952C18.0116 38.5497 16.8047 39.0788 15.5288 39.3501C14.2529 39.6214 12.935 39.6291 11.6561 39.3727C11.4964 39.3173 11.3271 39.2944 11.1584 39.3055C10.9897 39.3167 10.825 39.3616 10.6739 39.4375C10.459 39.5473 10.2817 39.7186 10.1645 39.9297C10.0473 40.1407 9.99566 40.3818 10.0161 40.6223C10.0365 40.8628 10.1281 41.0917 10.2792 41.28C10.4302 41.4682 10.6339 41.6072 10.8643 41.6792C11.7021 41.9034 12.5669 42.0097 13.434 41.9951C16.6413 41.9733 19.7227 40.7442 22.0646 38.5526C22.6942 38.004 23.4107 37.5639 24.1848 37.2505C24.3549 37.1898 24.5047 37.131 24.6586 37.0703L24.7882 37.0278C25.8254 36.6678 26.8969 36.4153 27.9857 36.2745L29.1177 36.1307L28.4798 37.0764C27.5818 38.4109 26.8616 39.8568 26.3373 41.3775C26.0602 42.3286 25.5947 43.2144 24.9686 43.9821C24.3424 44.7498 23.5684 45.3839 22.6923 45.8466C20.6783 46.6034 18.451 46.5606 16.4675 45.7272C16.1706 45.6358 15.85 45.6617 15.5716 45.7994C15.2932 45.9371 15.0781 46.1762 14.9705 46.4676C14.8629 46.759 14.871 47.0805 14.9931 47.3661C15.1153 47.6517 15.3421 47.8797 15.6271 48.0033C17.013 48.541 18.4843 48.825 19.9707 48.8416H19.987C20.7 48.8399 21.4105 48.7577 22.1051 48.5966L23.7777 48.2078L22.5971 49.4552C21.9415 50.1474 21.1153 50.6551 20.2016 50.9274C19.8963 51.0247 19.6418 51.2386 19.4935 51.5227C19.3452 51.8068 19.3151 52.1379 19.4098 52.4441C19.4563 52.598 19.5328 52.7411 19.635 52.8652C19.7372 52.9893 19.863 53.0919 20.0052 53.167C20.1459 53.2424 20.3003 53.2888 20.4592 53.3034C20.6182 53.318 20.7785 53.3005 20.9306 53.2521C25.0494 51.9743 26.3779 48.305 27.6637 44.7592C27.8946 44.1294 28.1335 43.4754 28.3866 42.8294C28.4474 42.6876 28.498 42.5459 28.5507 42.4062L28.6053 42.2685C30.9705 35.8067 33.3722 36.0618 36.1565 36.3615C37.5139 36.5242 38.7624 37.1853 39.6598 38.2164C40.0042 38.7804 40.2205 39.4131 40.2936 40.0699C40.3668 40.7266 40.2949 41.3914 40.083 42.0174C40.0721 42.0965 40.0667 42.1764 40.0669 42.2563C40.0385 42.4851 40.0243 42.5884 40.0162 42.6613L39.996 42.795C39.9757 42.9347 39.9413 43.1777 39.9069 43.4895C39.5019 45.6441 38.1269 46.6809 35.9257 48.1956C33.7206 49.4338 31.8635 51.2082 30.5262 53.3546C29.1889 55.501 28.4147 57.9501 28.2753 60.4752C28.2543 60.6345 28.2651 60.7964 28.3071 60.9515C28.3491 61.1065 28.4215 61.2517 28.52 61.3787C28.6185 61.5056 28.7411 61.6117 28.8809 61.6909C29.0207 61.7701 29.1748 61.8208 29.3343 61.8401C29.3781 61.8436 29.4222 61.8436 29.466 61.8401C29.767 61.8418 30.0579 61.7317 30.2823 61.5312C30.5068 61.3307 30.6489 61.054 30.681 60.7547C30.7999 58.5663 31.4739 56.4442 32.6395 54.5882C33.805 52.7322 35.4237 51.2034 37.3432 50.1457C37.8272 49.8096 38.3719 49.4329 38.9025 49.0218L39.6902 48.4143L39.7347 49.4086C39.8291 51.4901 40.2387 53.5453 40.9497 55.5039C41.2761 56.3154 41.3655 57.2029 41.2074 58.0632C41.0493 58.9236 40.6503 59.7213 40.0567 60.3638C39.2559 61.4297 38.7471 62.6861 38.5805 64.0089L38.5643 64.9545C38.5608 65.1136 38.589 65.2719 38.6473 65.42C38.7056 65.5681 38.7928 65.7031 38.9038 65.8171C39.0149 65.9312 39.1475 66.0219 39.294 66.0842C39.4405 66.1464 39.5978 66.1789 39.757 66.1797C40.0786 66.1851 40.3892 66.0628 40.6207 65.8396C40.8523 65.6164 40.9859 65.3105 40.9922 64.989L41.0064 64.1182C41.1878 63.2103 41.575 62.3561 42.1384 61.6214C42.4544 61.1327 42.7457 60.6285 43.0112 60.1107L43.4 59.3534L43.8941 60.0439C44.6497 61.1074 45.1798 62.3143 45.4518 63.5902C45.7238 64.8662 45.7319 66.1843 45.4756 67.4635C45.4234 67.6221 45.4039 67.7896 45.4181 67.956C45.4324 68.1223 45.4802 68.2841 45.5586 68.4314C45.6738 68.641 45.8483 68.8119 46.0602 68.9227C46.272 69.0336 46.5119 69.0794 46.7497 69.0546C46.9875 69.0297 47.2127 68.9352 47.3971 68.783C47.5815 68.6307 47.7168 68.4274 47.7861 68.1986C48.2262 66.2271 48.1694 64.1771 47.6208 62.2331C47.0722 60.289 46.0491 58.5117 44.6433 57.0611C44.0697 56.3937 43.6136 55.6336 43.2947 54.8133L43.1266 54.301C42.7668 53.2639 42.5151 52.1924 42.3754 51.1035L42.2295 49.9716L43.1752 50.6094C44.5106 51.5077 45.9571 52.2286 47.4783 52.7539C48.4295 53.0309 49.3153 53.4964 50.0831 54.1225C50.8508 54.7487 51.4849 55.5228 51.9475 56.3989C52.7053 58.4128 52.6626 60.6405 51.828 62.6238C51.7036 62.9208 51.7022 63.255 51.8241 63.5531C51.9459 63.8512 52.1812 64.0886 52.4781 64.2134C52.7754 64.3343 53.1082 64.3343 53.4055 64.2134C53.5533 64.1528 53.6876 64.0636 53.8009 63.951C53.9142 63.8385 54.0041 63.7047 54.0657 63.5573C54.9212 61.4719 55.1411 59.18 54.6975 56.97L54.3734 55.3743L55.5581 56.4921C56.2513 57.1477 56.7592 57.9748 57.0303 58.8897C57.1363 59.1849 57.3524 59.4277 57.6333 59.5672C57.9142 59.7067 58.2383 59.7322 58.5376 59.6383C58.8368 59.5443 59.0882 59.3383 59.2391 59.0633C59.3899 58.7883 59.4285 58.4655 59.3469 58.1627C58.0691 54.0459 54.3998 52.7154 50.856 51.4316C50.2141 51.1967 49.5661 50.9577 48.9262 50.7087C48.7845 50.6499 48.6407 50.5973 48.503 50.5446L48.3693 50.49C41.9116 48.1754 42.1647 45.7737 42.4604 42.9894Z" fill="#DCDCDC"/>
</g>
<defs>
<clipPath id="clip0_7612_11815">
<rect width="81" height="81" fill="white" transform="translate(0 0.146484)"/>
</clipPath>
</defs>
</svg>
