<svg width="77" height="78" viewBox="0 0 77 78" fill="none" xmlns="http://www.w3.org/2000/svg">
<g clip-path="url(#clip0_7612_11856)">
<path d="M7.92136 17.7446C7.92136 33.0349 0 43.5396 0 50.9028C0 58.2659 4.23498 73.7448 38.1323 73.7448C72.0296 73.7448 77 52.9279 77 44.8236C77 6.87417 7.92136 -9.33626 7.92136 17.7446Z" fill="#4F5463"/>
<path d="M66.5545 12.5202H58.1962L58.2077 12.1545C58.236 11.2728 58.2507 10.3867 58.252 9.49606C58.252 9.10583 58.0971 8.73156 57.8214 8.45544C57.5456 8.17933 57.1715 8.02395 56.7813 8.02344H17.6826C17.2924 8.02395 16.9183 8.17933 16.6426 8.45544C16.3668 8.73156 16.2119 9.10583 16.2119 9.49606C16.2119 10.3873 16.2292 11.2728 16.2562 12.1564L16.2677 12.5222H7.9094C7.71626 12.5222 7.52501 12.5602 7.34658 12.6341C7.16814 12.708 7.00604 12.8164 6.86947 12.9529C6.7329 13.0895 6.62456 13.2516 6.55065 13.4301C6.47674 13.6085 6.43871 13.7997 6.43871 13.9929C6.29433 21.5944 8.36366 29.0738 12.3947 35.5201C16.1503 41.1642 21.1881 44.4406 26.5935 44.7601H26.7378L26.8341 44.8641C27.9701 46.1211 29.2748 47.2146 30.711 48.1135L30.8824 48.2174V56.8799H27.4597C25.776 56.8835 24.1623 57.5539 22.9718 58.7445C21.7812 59.935 21.1108 61.5487 21.1072 63.2324V66.659H20.6221C20.2318 66.659 19.8575 66.814 19.5815 67.09C19.3055 67.366 19.1504 67.7403 19.1504 68.1306C19.1504 68.5209 19.3055 68.8952 19.5815 69.1712C19.8575 69.4472 20.2318 69.6023 20.6221 69.6023H53.8553C54.2456 69.6023 54.6199 69.4472 54.8959 69.1712C55.1719 68.8952 55.327 68.5209 55.327 68.1306C55.327 67.7403 55.1719 67.366 54.8959 67.09C54.6199 66.814 54.2456 66.659 53.8553 66.659H53.3721V63.2382C53.3686 61.5545 52.6981 59.9408 51.5076 58.7503C50.317 57.5597 48.7033 56.8893 47.0196 56.8857H43.5854V48.2232L43.7568 48.1193C45.1932 47.2199 46.4985 46.1265 47.6356 44.8699L47.7319 44.7659H47.8743C53.2643 44.4483 58.3097 41.1719 62.0654 35.5259C66.1012 29.0812 68.1746 21.6014 68.0329 13.9986C68.0337 13.8043 67.996 13.6117 67.922 13.432C67.8479 13.2523 67.739 13.089 67.6016 12.9516C67.4642 12.8141 67.3009 12.7052 67.1212 12.6312C66.9415 12.5572 66.7489 12.5195 66.5545 12.5202ZM23.1747 41.0468C19.7217 39.5859 16.81 37.0848 14.8452 33.8916C11.4515 28.466 9.57678 22.2288 9.41668 15.8312L9.4032 15.4616H16.4333L16.4602 15.787C16.93 23.4138 18.8413 30.8824 22.0928 37.7974C22.5683 38.7484 23.0746 39.6685 23.602 40.5348L24.1391 41.4164L23.1747 41.0468ZM47.0061 59.8367C47.9132 59.8372 48.783 60.1978 49.4244 60.8392C50.0658 61.4806 50.4264 62.3504 50.4269 63.2575V66.6801H24.0544V63.2575C24.0549 62.3501 24.4157 61.48 25.0575 60.8385C25.6994 60.1971 26.5696 59.8367 27.477 59.8367H47.0061ZM33.8141 56.8934V49.5553L34.2588 49.6727C36.206 50.1886 38.2541 50.1886 40.2013 49.6727L40.6459 49.5553V56.8934H33.8141ZM46.0533 42.2268C45.975 42.3019 45.9034 42.3837 45.8396 42.4713C44.6513 43.8942 43.2104 45.0853 41.5892 45.9844L41.5603 45.9979C41.4937 46.0241 41.4293 46.0557 41.3678 46.0922C40.098 46.7636 38.6839 47.116 37.2476 47.119C35.8112 47.122 34.3957 46.7756 33.1231 46.1096C33.0539 46.0674 32.9818 46.0301 32.9075 45.9979C31.286 45.1049 29.8432 43.9204 28.6513 42.504C28.5893 42.4149 28.519 42.3317 28.4414 42.2557C26.9824 40.4827 25.7367 38.5444 24.7301 36.4807C21.1071 28.59 19.2148 20.0152 19.1803 11.3325V10.9706H55.3087V11.3325C55.277 20.0149 53.3866 28.5898 49.7647 36.4807C48.7581 38.5357 47.5131 40.465 46.0552 42.2288L46.0533 42.2268ZM65.0415 15.8312C64.883 22.2288 63.0088 28.4662 59.6149 33.8916C57.6505 37.0852 54.7388 39.5865 51.2854 41.0468L50.3229 41.4106L50.86 40.5309C51.3874 39.6743 51.886 38.7484 52.3692 37.7936C55.6205 30.8785 57.5317 23.4099 58.0018 15.7831L58.0287 15.4578H65.0588L65.0415 15.8312Z" fill="#DCDCDC"/>
<path d="M32.1571 37.6997C32.2437 37.794 32.3265 37.8922 32.4035 37.9942C33.1141 38.8271 33.9666 39.5277 34.9214 40.0636C35.0242 40.1114 35.1245 40.1648 35.2217 40.2233C35.8739 40.54 36.5917 40.698 37.3166 40.6846C38.0415 40.6713 38.753 40.4868 39.3931 40.1463C39.4553 40.1098 39.5196 40.077 39.5857 40.0482C40.5352 39.5047 41.3822 38.7991 42.0882 37.9634C42.1679 37.8581 42.254 37.7578 42.3461 37.6631C43.3268 36.4666 44.1664 35.1612 44.8486 33.7727C47.2146 28.625 48.5656 23.0694 48.8276 17.4102H25.6641C25.9272 23.0906 27.2868 28.6665 29.6681 33.8304C30.3462 35.2116 31.1814 36.5099 32.1571 37.6997Z" fill="#FFB300"/>
<path d="M63.3242 5.84826L64.8873 4.28516L68.0135 7.41136L66.4504 8.97253L63.3242 5.84826Z" fill="#FFB300"/>
<path d="M72.3105 14.8365L73.8736 13.2734L76.9999 16.3996L75.4367 17.9627L72.3105 14.8365Z" fill="#FFB300"/>
<path d="M71.9238 7.40943L75.05 4.28516L76.6131 5.84633L73.487 8.97253L71.9238 7.40943Z" fill="#FFB300"/>
</g>
<defs>
<clipPath id="clip0_7612_11856">
<rect width="77" height="77" fill="white" transform="translate(0 0.146484)"/>
</clipPath>
</defs>
</svg>
