<svg width="81" height="82" viewBox="0 0 81 82" fill="none" xmlns="http://www.w3.org/2000/svg">
<path d="M38.4387 9.76687C24.9168 11.476 18.1563 12.3305 13.2245 15.9259C1.94824 24.1474 0.532763 38.3933 0.328238 40.9478C0.177375 42.8331 -0.680212 56.4593 8.79679 67.5097C20.236 80.8474 38.0348 80.0283 50.7568 79.4431C59.0512 79.0614 72.2775 78.4528 76.3559 70.5888C78.6127 66.237 75.8051 64.0267 75.5863 52.4964C75.318 38.3649 79.4055 36.4675 77.3187 28.245C75.3575 20.5166 69.4263 13.102 61.7283 9.76789C56.5726 7.53532 50.4581 8.24914 38.4387 9.76789V9.76687Z" fill="#2B2F3E"/>
<path d="M23.4776 53.8314C24.5124 33.3282 21.3159 28.769 25.1968 25.7547C27.4152 24.0315 28.5168 25.4783 40.8582 25.1817C51.5816 24.9245 52.9525 23.7794 54.9917 25.373C58.5344 28.1402 56.9924 33.6198 57.0926 49.0564C57.1321 55.1618 57.4115 60.2283 57.6657 63.763C50.48 63.7194 44.652 63.9381 40.6668 64.1447C31.4045 64.6256 27.2451 65.2919 24.8141 62.6168C22.9946 60.6141 23.268 57.9776 23.4776 53.8314Z" fill="#089EA4"/>
<path d="M64.8145 8.86419L63.8838 9.79492L66.8077 12.7188L67.7384 11.7881L64.8145 8.86419Z" fill="#01ABB2"/>
<path d="M72.8131 8.92034L69.8887 11.8438L70.8192 12.7746L73.7437 9.85123L72.8131 8.92034Z" fill="#01ABB2"/>
<path d="M71.3311 15.2275L70.4004 16.1582L73.3243 19.0821L74.255 18.1514L71.3311 15.2275Z" fill="#01ABB2"/>
<path d="M52.4217 54.4808L51.2578 55.7734L65.3599 68.471L66.5239 67.1784L52.4217 54.4808Z" fill="#E2E2E2"/>
<path d="M64.5941 53.8403L51.8965 67.9424L53.1899 69.107L65.8875 55.0049L64.5941 53.8403Z" fill="#E2E2E2"/>
<path d="M20.7409 18.9209H17.7236V69.9458H20.7409V18.9209Z" fill="#E2E2E2"/>
<path d="M62.1539 18.9189H59.1377V47.6031H62.1539V18.9189Z" fill="#E2E2E2"/>
<path d="M62.1348 21.9382V18.9209L17.7245 18.9209V21.9382L62.1348 21.9382Z" fill="#E2E2E2"/>
<path d="M47.3666 66.9326H17.7236V69.9489H47.3666V66.9326Z" fill="#E2E2E2"/>
<path d="M53.4707 29.226V27.1504H26.3884V29.226H53.4707Z" fill="#E2E2E2"/>
<path d="M53.4697 34.2299V32.1543H26.3874V34.2299H53.4697Z" fill="#E2E2E2"/>
<path d="M53.2783 39.2348V37.1592H26.196V39.2348H53.2783Z" fill="#E2E2E2"/>
</svg>
