<svg width="77" height="77" viewBox="0 0 77 77" fill="none" xmlns="http://www.w3.org/2000/svg">
<g clip-path="url(#clip0_4914_7331)">
<path d="M7.92136 17.5984C7.92136 32.8887 0 43.3934 0 50.7565C0 58.1196 4.23498 73.5986 38.1323 73.5986C72.0296 73.5986 77 52.7816 77 44.6774C77 6.72793 7.92136 -9.4825 7.92136 17.5984Z" fill="#F9F6EE"/>
<path d="M66.5545 12.374H58.1962L58.2077 12.0083C58.236 11.1266 58.2507 10.2405 58.252 9.34982C58.252 8.95959 58.0971 8.58532 57.8214 8.3092C57.5456 8.03309 57.1715 7.87771 56.7813 7.8772H17.6826C17.2924 7.87771 16.9183 8.03309 16.6426 8.3092C16.3668 8.58532 16.2119 8.95959 16.2119 9.34982C16.2119 10.2411 16.2292 11.1266 16.2562 12.0102L16.2677 12.3759H7.9094C7.71626 12.3759 7.52501 12.414 7.34658 12.4879C7.16814 12.5618 7.00604 12.6701 6.86947 12.8067C6.7329 12.9433 6.62456 13.1054 6.55065 13.2838C6.47674 13.4622 6.43871 13.6535 6.43871 13.8466C6.29433 21.4481 8.36366 28.9276 12.3947 35.3739C16.1503 41.018 21.1881 44.2943 26.5935 44.6139H26.7378L26.8341 44.7178C27.9701 45.9749 29.2748 47.0684 30.711 47.9673L30.8824 48.0712V56.7337H27.4597C25.776 56.7373 24.1623 57.4077 22.9718 58.5982C21.7812 59.7888 21.1108 61.4025 21.1072 63.0862V66.5127H20.6221C20.2318 66.5127 19.8575 66.6678 19.5815 66.9437C19.3055 67.2197 19.1504 67.5941 19.1504 67.9844C19.1504 68.3747 19.3055 68.749 19.5815 69.025C19.8575 69.301 20.2318 69.456 20.6221 69.456H53.8553C54.2456 69.456 54.6199 69.301 54.8959 69.025C55.1719 68.749 55.327 68.3747 55.327 67.9844C55.327 67.5941 55.1719 67.2197 54.8959 66.9437C54.6199 66.6678 54.2456 66.5127 53.8553 66.5127H53.3721V63.092C53.3686 61.4083 52.6981 59.7946 51.5076 58.604C50.317 57.4135 48.7033 56.743 47.0196 56.7395H43.5854V48.077L43.7568 47.973C45.1932 47.0737 46.4985 45.9802 47.6356 44.7236L47.7319 44.6197H47.8743C53.2643 44.3021 58.3097 41.0257 62.0654 35.3797C66.1012 28.9349 68.1746 21.4552 68.0329 13.8524C68.0337 13.658 67.996 13.4655 67.922 13.2857C67.8479 13.106 67.739 12.9427 67.6016 12.8053C67.4642 12.6679 67.3009 12.559 67.1212 12.485C66.9415 12.411 66.7489 12.3732 66.5545 12.374ZM23.1747 40.9006C19.7217 39.4397 16.81 36.9386 14.8452 33.7454C11.4515 28.3197 9.57678 22.0825 9.41668 15.685L9.4032 15.3154H16.4333L16.4602 15.6407C16.93 23.2676 18.8413 30.7362 22.0928 37.6512C22.5683 38.6021 23.0746 39.5223 23.602 40.3885L24.1391 41.2702L23.1747 40.9006ZM47.0061 59.6905C47.9132 59.691 48.783 60.0516 49.4244 60.693C50.0658 61.3344 50.4264 62.2042 50.4269 63.1112V66.5339H24.0544V63.1112C24.0549 62.2038 24.4157 61.3338 25.0575 60.6923C25.6994 60.0508 26.5696 59.6905 27.477 59.6905H47.0061ZM33.8141 56.7472V49.4091L34.2588 49.5265C36.206 50.0424 38.2541 50.0424 40.2013 49.5265L40.6459 49.4091V56.7472H33.8141ZM46.0533 42.0806C45.975 42.1556 45.9034 42.2374 45.8396 42.3251C44.6513 43.748 43.2104 44.939 41.5892 45.8382L41.5603 45.8517C41.4937 45.8779 41.4293 45.9094 41.3678 45.946C40.098 46.6174 38.6839 46.9697 37.2476 46.9728C35.8112 46.9758 34.3957 46.6294 33.1231 45.9633C33.0539 45.9212 32.9818 45.8839 32.9075 45.8517C31.286 44.9586 29.8432 43.7742 28.6513 42.3578C28.5893 42.2686 28.519 42.1855 28.4414 42.1095C26.9824 40.3365 25.7367 38.3982 24.7301 36.3345C21.1071 28.4437 19.2148 19.869 19.1803 11.1863V10.8244H55.3087V11.1863C55.277 19.8686 53.3866 28.4436 49.7647 36.3345C48.7581 38.3895 47.5131 40.3188 46.0552 42.0825L46.0533 42.0806ZM65.0415 15.685C64.883 22.0825 63.0088 28.32 59.6149 33.7454C57.6505 36.939 54.7388 39.4403 51.2854 40.9006L50.3229 41.2644L50.86 40.3847C51.3874 39.5281 51.886 38.6021 52.3692 37.6473C55.6205 30.7323 57.5317 23.2637 58.0018 15.6369L58.0287 15.3115H65.0588L65.0415 15.685Z" fill="black"/>
<path d="M32.1571 37.5529C32.2437 37.6473 32.3265 37.7454 32.4035 37.8475C33.1141 38.6804 33.9666 39.381 34.9214 39.9168C35.0242 39.9647 35.1245 40.018 35.2217 40.0766C35.8739 40.3932 36.5917 40.5513 37.3166 40.5379C38.0415 40.5245 38.753 40.3401 39.3931 39.9996C39.4553 39.963 39.5196 39.9303 39.5857 39.9014C40.5352 39.358 41.3822 38.6524 42.0882 37.8167C42.1679 37.7113 42.254 37.6111 42.3461 37.5164C43.3268 36.3199 44.1664 35.0144 44.8486 33.6259C47.2146 28.4783 48.5656 22.9227 48.8276 17.2634H25.6641C25.9272 22.9439 27.2868 28.5198 29.6681 33.6837C30.3462 35.0649 31.1814 36.3632 32.1571 37.5529Z" fill="#FFB300"/>
<path d="M63.3242 5.70177L64.8873 4.13867L68.0135 7.26487L66.4504 8.82605L63.3242 5.70177Z" fill="#FFB300"/>
<path d="M72.3105 14.6896L73.8736 13.1265L76.9999 16.2527L75.4367 17.8158L72.3105 14.6896Z" fill="#FFB300"/>
<path d="M71.9238 7.26295L75.05 4.13867L76.6131 5.69985L73.487 8.82605L71.9238 7.26295Z" fill="#FFB300"/>
</g>
<defs>
<clipPath id="clip0_4914_7331">
<rect width="77" height="77" fill="white"/>
</clipPath>
</defs>
</svg>
