<svg width="75" height="67" viewBox="0 0 75 67" fill="none" xmlns="http://www.w3.org/2000/svg">
<path d="M66.7935 13.0774C66.7935 27.772 74.4063 37.8674 74.4063 44.9437C74.4063 52.0199 70.3363 66.8958 37.7615 66.8958C5.18665 66.8958 0.40625 46.8899 0.40625 39.1032C0.40625 2.63232 66.7935 -12.9465 66.7935 13.0774Z" fill="#4F5463"/>
<path d="M29.3751 52.0992C27.4239 50.9289 25.6084 49.5459 23.962 47.9755L22.5319 46.5288C20.9617 44.8828 19.5753 43.0709 18.3972 41.125L17.4407 39.3249C17.1817 38.7699 16.9449 38.2353 16.7562 37.7136C16.4221 36.8781 16.2762 35.9793 16.3289 35.081C23.9972 32.9531 30.8529 28.5781 36.0129 22.5195L36.1979 22.7989C39.174 27.2189 42.962 31.0339 47.3608 34.0413L47.9343 34.4335C41.8147 39.5843 37.3677 46.4407 35.16 54.1286H35.1452C33.7513 54.111 32.3846 53.74 31.1733 53.0501L29.3751 52.0992Z" fill="#00D1D9"/>
<path d="M46.1479 7.55111C47.6361 8.2798 49.0644 9.12478 50.4196 10.0782L50.8007 10.3483L52.4898 7.91001L52.1198 7.64731C50.6632 6.61849 49.1286 5.70489 47.5299 4.91486L47.1285 4.71875L45.7188 7.34021L46.1479 7.55111Z" fill="#DCDCDC"/>
<path d="M66.7098 25.6026C66.6506 25.4453 66.584 25.2843 66.5248 25.1215L66.2344 24.3963L63.6148 25.8042L63.8331 26.3888C63.8627 26.4573 63.8904 26.5257 63.9163 26.5979C64.9246 29.4339 64.9801 31.8648 64.1013 32.7584C63.7893 33.0172 63.4289 33.2112 63.041 33.3291C62.6532 33.4469 62.2457 33.4862 61.8425 33.4447C58.3275 33.4447 52.0523 30.7048 45.9325 24.5758C42.4265 21.2138 39.679 17.1418 37.8739 12.6322C36.8656 9.79246 36.8101 7.36339 37.7 6.47354C38.0078 6.21504 38.3643 6.02094 38.7485 5.90273C39.1327 5.78451 39.5367 5.74461 39.9366 5.78535C41.4421 5.84704 42.925 6.1733 44.3174 6.74919L44.7022 6.90829L46.1249 4.27576L45.3997 3.98532C45.2369 3.91872 45.0759 3.85211 44.9224 3.80031C43.3488 3.20309 41.6857 2.87598 40.0032 2.83276C39.2101 2.78139 38.4146 2.88931 37.6639 3.15017C36.9131 3.41102 36.2221 3.81953 35.6317 4.35161C33.8261 6.15536 33.6226 9.53162 35.0767 13.646C37.0279 18.5642 40.0105 23.0071 43.8235 26.6756C47.491 30.4919 51.9331 33.4787 56.8512 35.4353L56.8956 35.4501C58.4916 35.9166 60.1271 36.2355 61.7814 36.4029C61.9035 36.4121 62.0256 36.4158 62.1514 36.4158C63.6283 36.4121 65.0527 35.8672 66.1548 34.884C67.9512 33.0803 68.1621 29.6985 66.7098 25.6026Z" fill="#DCDCDC"/>
<path d="M39.1768 49.7295L38.7624 50.7673C38.3629 51.7645 37.9947 52.7857 37.6654 53.8032L37.6228 53.9382L37.6617 54.0751C38.3703 56.5171 38.3129 58.5336 37.5451 59.3051C37.2321 59.5626 36.8711 59.7556 36.4832 59.8731C36.0952 59.9905 35.6878 60.0301 35.2844 59.9896C31.7694 59.9896 25.4942 57.2497 19.3744 51.1244C15.8675 47.7632 13.1198 43.691 11.3158 39.1808C10.3076 36.3447 10.2521 33.9138 11.1715 32.9944C11.9837 32.1841 14.0057 32.1249 16.4403 32.8371L16.5754 32.8778L16.7123 32.8334C17.715 32.5097 18.7325 32.1434 19.737 31.7401L20.7749 31.3238L19.7463 30.8854C14.9992 28.8504 11.1105 28.8615 9.07365 30.8854C7.2699 32.6891 7.0664 36.0654 8.51865 40.1798C10.4689 45.1003 13.4501 49.5462 17.2617 53.2186C20.9262 57.0493 25.3796 60.0375 30.3135 61.9765C31.886 62.5749 33.5488 62.9021 35.2308 62.944C35.3566 62.9533 35.4805 62.957 35.6008 62.957C37.0802 62.9542 38.507 62.4077 39.6097 61.4215C41.6447 59.3865 41.6447 55.5015 39.6097 50.7525L39.1768 49.7295Z" fill="#DCDCDC"/>
</svg>
