<svg width="77" height="78" viewBox="0 0 77 78" fill="none" xmlns="http://www.w3.org/2000/svg">
<g clip-path="url(#clip0_7612_11884)">
<path d="M69.0805 16.1955C69.0805 31.4858 77 41.9905 77 49.3536C77 56.7167 72.765 72.1957 38.8696 72.1957C4.9742 72.1957 0 51.3787 0 43.2745C0 5.32693 69.0805 -10.8835 69.0805 16.1955Z" fill="#4F5463"/>
<path d="M60.501 10.5957C60.0155 10.5939 59.5365 10.7074 59.1034 10.9268L9.52891 31.7495C9.24304 31.871 8.99928 32.074 8.8281 32.3331C8.65691 32.5923 8.5659 32.8962 8.56641 33.2068V42.9165C8.56565 43.2271 8.65656 43.5311 8.82777 43.7903C8.99899 44.0495 9.24289 44.2525 9.52891 44.3737L20.153 48.8339V68.1167C20.1535 69.198 20.5831 70.2349 21.3476 70.9998C22.112 71.7646 23.1488 72.1947 24.2301 72.1957H36.4943C37.5755 72.1947 38.612 71.7645 39.3762 70.9996C40.1403 70.2348 40.5695 69.1978 40.5695 68.1167V57.4117L59.0784 65.1849C59.5147 65.4099 59.9985 65.5274 60.4894 65.5275C62.9919 65.5275 64.8669 62.64 66.2259 56.7149C68.5974 44.3873 68.5974 31.7206 66.2259 19.393C64.8803 13.4774 63.0035 10.5957 60.501 10.5957ZM37.4164 68.1205C37.4164 68.2401 37.3928 68.3585 37.3471 68.4689C37.3013 68.5794 37.2342 68.6798 37.1497 68.7643C37.0651 68.8489 36.9648 68.916 36.8543 68.9617C36.7438 69.0075 36.6254 69.031 36.5058 69.031H24.2378C24.1182 69.031 23.9998 69.0075 23.8894 68.9617C23.7789 68.916 23.6785 68.8489 23.594 68.7643C23.5094 68.6798 23.4424 68.5794 23.3966 68.4689C23.3508 68.3585 23.3273 68.2401 23.3273 68.1205V50.1603L37.4164 56.0777V68.1205ZM54.7645 56.7245C55.0408 57.9621 55.3865 59.1832 55.8001 60.382L11.733 41.8693V34.2732L55.8001 15.7643C55.3861 16.9631 55.0397 18.1842 54.7625 19.4218L54.0618 23.0794C53.3186 28.041 52.9589 33.0524 52.9858 38.0693C52.9094 44.3308 53.5051 50.5824 54.7625 56.7168L54.7645 56.7245ZM56.1563 38.0636C56.1563 36.4831 56.189 34.9104 56.2525 33.3819C57.3224 33.6186 58.2795 34.2133 58.9656 35.0677C59.6517 35.9221 60.0256 36.9851 60.0256 38.0809C60.0256 39.1766 59.6517 40.2396 58.9656 41.094C58.2795 41.9484 57.3224 42.5431 56.2525 42.7798C56.1851 41.2398 56.1524 39.6517 56.1524 38.0636H56.1563ZM63.1536 56.0142C62.0544 60.8036 60.8436 62.1992 60.5125 62.3551H60.4894C60.4336 62.3205 59.1034 61.4658 57.8483 56.0219C57.1326 52.7114 56.6604 49.3529 56.4354 45.9734C58.3108 45.6736 60.018 44.7151 61.2504 43.27C62.4829 41.8249 63.1599 39.9878 63.1599 38.0886C63.1599 36.1893 62.4829 34.3522 61.2504 32.9071C60.018 31.462 58.3108 30.5036 56.4354 30.2038C56.6599 26.8158 57.1328 23.449 57.8502 20.1302C59.0976 14.6921 60.4297 13.8316 60.4529 13.8105L60.5106 13.7893C60.8398 13.9548 62.0506 15.3485 63.1517 20.1302C65.4142 31.9839 65.4142 44.1586 63.1517 56.0122L63.1536 56.0142Z" fill="#DCDCDC"/>
<path d="M48.0094 25.7393L21.252 36.5789V39.5588L48.0094 50.3985C47.1902 46.3344 46.803 42.1951 46.8545 38.0496C46.8349 34.5754 47.0924 31.1052 47.6244 27.672L48.0094 25.7393Z" fill="#FFB300"/>
<path d="M61.1777 4.30273L62.7403 2.74013L65.8711 5.87084L64.3084 7.43344L61.1777 4.30273Z" fill="#FFB300"/>
<path d="M70.1641 13.291L71.7267 11.7284L74.8574 14.8591L73.2948 16.4217L70.1641 13.291Z" fill="#FFB300"/>
<path d="M69.7773 5.86426L72.908 2.73356L74.4693 4.29484L71.3386 7.42554L69.7773 5.86426Z" fill="#FFB300"/>
</g>
<defs>
<clipPath id="clip0_7612_11884">
<rect width="77" height="77" fill="white" transform="translate(0 0.146484)"/>
</clipPath>
</defs>
</svg>
