<svg width="77" height="78" viewBox="0 0 77 78" fill="none" xmlns="http://www.w3.org/2000/svg">
<g clip-path="url(#clip0_7612_11870)">
<path d="M7.92726 17.9158C7.92726 33.208 0.0078125 43.7108 0.0078125 51.0758C0.0078125 58.4409 4.24281 73.9179 38.1382 73.9179C72.0336 73.9179 77.0078 53.1009 77.0078 44.9967C77.002 7.04917 7.92726 -9.16126 7.92726 17.9158Z" fill="#4F5463"/>
<path d="M68.7314 7.82737L71.8576 4.70117L73.4207 6.26427L70.2964 9.39047L68.7314 7.82737Z" fill="#AADA5D"/>
<path d="M69.5117 14.86L71.0748 13.2988L74.201 16.4231L72.6379 17.9862L69.5117 14.86Z" fill="#AADA5D"/>
<path d="M60.5234 5.87365L62.0865 4.31055L65.2127 7.43675L63.6497 8.99986L60.5234 5.87365Z" fill="#AADA5D"/>
<path d="M25.1982 49.9561V63.8777H46.8372V49.958L25.1982 49.9561Z" fill="#00D1D9"/>
<path d="M36.0645 4.572C28.6021 4.49363 21.3698 7.1537 15.7365 12.0487C13.1516 14.3105 11.0454 17.0667 9.54188 20.1549C8.04964 23.2214 7.26856 26.5851 7.25689 29.9955C7.24773 30.2222 7.29996 30.4473 7.40804 30.6468C7.51612 30.8464 7.67604 31.0131 7.87096 31.1293L29.6793 43.9151L31.7063 44.9373H29.3963H28.867H21.0957C20.763 44.9378 20.4441 45.0702 20.2088 45.3055C19.9735 45.5408 19.8411 45.8597 19.8406 46.1924V67.6254C19.8416 67.9577 19.9743 68.2762 20.2095 68.5111C20.4447 68.7459 20.7633 68.878 21.0957 68.8785H50.9198C51.252 68.878 51.5704 68.7458 51.8053 68.5109C52.0402 68.276 52.1724 67.9576 52.1729 67.6254V46.2001C52.1729 45.8678 52.0409 45.549 51.8059 45.314C51.5709 45.079 51.2521 44.9469 50.9198 44.9469H42.5518H40.3958L42.2573 43.9498L42.7077 43.663L64.1657 30.9272C64.2602 30.8708 64.347 30.8022 64.4236 30.7231C64.5364 30.608 64.6253 30.4716 64.6851 30.322C64.7449 30.1723 64.7744 30.0123 64.7721 29.8511C64.7393 15.9026 51.8495 4.5951 36.0645 4.572ZM36.0395 7.0514H36.0549C37.8913 7.06295 39.8106 9.3999 41.3294 13.4636C42.5498 16.9307 43.3335 20.5364 43.6625 24.1974L43.7068 24.6209L42.9733 25.0925L42.5883 24.8576C40.5995 23.704 38.3407 23.0975 36.0415 23.0999C33.7423 23.1022 31.4848 23.7134 29.4983 24.8711L29.1307 25.0963L28.3934 24.6266L28.4415 24.1897C28.7711 20.5336 29.5535 16.9326 30.7708 13.4693C32.2858 9.3999 34.2088 7.0591 36.0318 7.0514H36.0395ZM36.4341 42.9161L36.0106 43.5552L35.641 42.9295L35.4273 42.5965L28.2356 29.7279L28.428 29.3795C29.3185 28.1979 30.4715 27.2395 31.796 26.58C33.1205 25.9205 34.5801 25.578 36.0597 25.5795C37.5393 25.581 38.9982 25.9265 40.3214 26.5886C41.6445 27.2508 42.7956 28.2115 43.6837 29.3949L43.8762 29.7548L43.6663 30.0744L36.4341 42.9161ZM38.6055 48.1251V54.1061L37.8644 53.5575L36.746 52.8086C36.5399 52.6693 36.2969 52.5948 36.0482 52.5948C35.7994 52.5948 35.5564 52.6693 35.3504 52.8086L34.1665 53.5941L33.4273 54.1099V47.4321H38.5882L38.6055 48.1251ZM10.7758 23.6911C12.0811 19.9084 14.3598 16.5363 17.3824 13.914C20.8374 10.8882 24.9979 8.77983 29.481 7.78289L29.9257 7.68473L30.4666 8.43355L30.2241 8.83395C27.6855 13.7641 26.2118 19.1729 25.8986 24.7094L25.862 25.1117L25.1363 25.4409L24.8052 25.2215C22.7143 23.8129 20.2441 23.0743 17.7231 23.104C15.6469 23.0832 13.5975 23.5738 11.7556 24.5323L11.3341 24.7556L10.6256 24.1396L10.7758 23.6911ZM10.3754 29.7317L10.2368 29.1543L10.3966 28.9001C11.2765 27.8199 12.3952 26.9586 13.6645 26.384C14.9339 25.8095 16.3192 25.5374 17.7116 25.5891C21.4903 25.5891 24.8456 27.5373 25.6868 30.2246L25.7946 30.4767L31.7083 41.0488L32.6996 42.9372L30.9671 41.7976L30.4993 41.5359L10.3754 29.7317ZM49.6897 47.4417L49.7051 48.1386V66.4261H22.347L22.3316 65.7273V47.4379L23.0303 47.4225H30.9363L30.9517 48.1213V56.3352C30.9468 56.5551 30.9971 56.7727 31.0979 56.9681C31.1988 57.1634 31.3471 57.3304 31.5292 57.4537C31.7329 57.5777 31.9676 57.6416 32.206 57.6379C32.4445 57.6341 32.677 57.5629 32.8767 57.4325L36.1184 55.2765L36.5304 55.6615L39.1503 57.419C39.3679 57.5653 39.6262 57.6391 39.8883 57.6297C40.1504 57.6204 40.4028 57.5285 40.6094 57.367C40.7626 57.2416 40.8853 57.0831 40.9683 56.9033C41.0514 56.7236 41.0926 56.5274 41.0888 56.3295V47.4379L41.7856 47.4244L49.6897 47.4417ZM61.642 29.5392L61.3783 29.7125L41.1754 41.6995L39.1503 42.8179L40.4035 40.9968L40.6441 40.5175L46.294 30.4825C46.3075 30.4555 46.3306 30.4074 46.3537 30.3554L46.4056 30.2168C47.2526 27.5372 50.604 25.5968 54.379 25.5968C55.7348 25.54 57.086 25.7905 58.3314 26.3295C59.5768 26.8685 60.6842 27.6822 61.5708 28.7096L61.7459 28.9425L61.642 29.5392ZM61.8576 25.3543L60.3657 24.5554C58.5165 23.5934 56.4595 23.0997 54.3751 23.1175C51.8549 23.0889 49.3857 23.8274 47.295 25.2349L46.9754 25.4544L46.2574 25.1445L46.1977 24.7595C45.8864 19.2105 44.4092 13.7893 41.8626 8.84935L41.6297 8.46435L42.1668 7.71745L42.623 7.81562C46.8521 8.63412 50.7976 10.5325 54.0762 13.3264C57.3548 16.1203 59.855 19.7147 61.334 23.7604L61.8576 25.3543Z" fill="#DCDCDC"/>
</g>
<defs>
<clipPath id="clip0_7612_11870">
<rect width="77" height="77" fill="white" transform="translate(0 0.146484)"/>
</clipPath>
</defs>
</svg>
