<svg width="81" height="81" viewBox="0 0 81 81" fill="none" xmlns="http://www.w3.org/2000/svg">
<g clip-path="url(#clip0_4910_6873)">
<path d="M72.4952 19.0877C72.4952 35.1723 80.8061 46.2227 80.8061 53.9704C80.8061 61.718 76.3617 77.999 40.7909 77.999C5.22007 77.999 4.22182e-08 56.0987 4.22182e-08 47.5795C-0.00202011 7.65256 72.4952 -9.39998 72.4952 19.0877Z" fill="#F0FAFA"/>
<path d="M76.0781 7.33666L79.3589 4.04199L80.9992 5.68427L77.7185 8.97287L76.0781 7.33666Z" fill="#00D1D9"/>
<path d="M66.2461 5.7007L67.8865 4.0564L71.1672 7.345L69.5268 8.9893L66.2461 5.7007Z" fill="#00D1D9"/>
<path d="M75.6758 15.1572L77.3161 13.5149L80.5969 16.7994L78.9565 18.4437L75.6758 15.1572Z" fill="#00D1D9"/>
<path d="M70.3788 38.9711C70.17 38.8486 69.9333 38.7818 69.6913 38.7772C69.4494 38.7726 69.2103 38.8303 68.997 38.9448L66.5425 40.3116L65.7426 12.3443C65.7341 11.9787 65.583 11.631 65.3216 11.3758C65.0602 11.1206 64.7095 10.9783 64.3446 10.9795H56.8701C56.5052 10.9783 56.1544 11.1206 55.8931 11.3758C55.6317 11.631 55.4806 11.9787 55.4721 12.3443L54.4822 47.0326L51.8722 48.4865V40.1841C51.8691 39.9409 51.8037 39.7026 51.6822 39.4921C51.5607 39.2816 51.3872 39.1059 51.1784 38.9821C50.9697 38.8582 50.7326 38.7903 50.49 38.7848C50.2475 38.7793 50.0076 38.8365 49.7935 38.9508L32.6828 48.4845V40.182C32.6817 39.8104 32.5338 39.4542 32.2714 39.1916C32.0091 38.929 31.6536 38.7813 31.2828 38.7807C31.0459 38.7771 30.812 38.835 30.604 38.9488L11.4126 49.6388C11.1948 49.7615 11.0133 49.9399 10.8866 50.1558C10.7599 50.3718 10.6926 50.6175 10.6914 50.868V74.3721C10.6925 74.7438 10.8404 75.0999 11.1027 75.3625C11.3651 75.6252 11.7206 75.7729 12.0914 75.7734H69.6839C70.0546 75.7734 70.4102 75.6258 70.6724 75.363C70.9345 75.1002 71.0818 74.7438 71.0818 74.3721V40.18C71.0802 39.9345 71.0144 39.6937 70.8911 39.4816C70.7677 39.2695 70.5911 39.0935 70.3788 38.9711ZM49.3511 65.6018V72.9789H42.2805V65.6018H49.3511ZM39.4725 65.6018V72.9789H32.402V65.6018H39.4725ZM50.7429 62.8033H30.9919C30.621 62.8038 30.2654 62.9519 30.0033 63.215C29.7412 63.4782 29.594 63.8348 29.594 64.2066V72.987H13.4752V51.6962L29.8727 42.5654V50.8781C29.8764 51.2491 30.0251 51.6039 30.2869 51.8663C30.5486 52.1287 30.9026 52.2777 31.2727 52.2814C31.5068 52.283 31.7376 52.2252 31.9434 52.1133L49.0541 42.5816V50.8841C49.0541 51.2563 49.2016 51.6133 49.4641 51.8765C49.7267 52.1396 50.0828 52.2875 50.4541 52.2875C50.6882 52.2891 50.9189 52.2312 51.1247 52.1194L61.1891 46.5182L65.8658 43.9141L68.2516 42.5857V73.0012H52.1328V64.2188C52.136 63.8478 51.9928 63.4906 51.7343 63.225C51.4758 62.9595 51.1231 62.8071 50.753 62.8013L50.7429 62.8033ZM57.3165 45.447L58.2236 13.7861H62.975L63.783 41.8587L57.3165 45.447Z" fill="black"/>
<path d="M50.4263 55.7846C49.2889 55.7941 48.186 55.393 47.3193 54.6546C46.9216 54.3198 46.6001 53.9035 46.3764 53.4337C46.1527 52.9639 46.032 52.4515 46.0224 51.931V49.2135L33.4126 55.3087C32.7317 55.6191 31.9929 55.7813 31.245 55.7846C30.1548 55.8479 29.0833 55.4805 28.26 54.7613C27.4368 54.0421 26.9274 53.0283 26.841 51.9371V49.1973L16.5039 54.1929V68.4894H26.5622V63.4978C26.6481 62.402 27.1608 61.384 27.9894 60.664C28.818 59.944 29.8961 59.5799 30.9904 59.6503H50.7879C51.8804 59.592 52.9519 59.9673 53.7704 60.6949C54.589 61.4226 55.0887 62.4441 55.1615 63.5383V68.4894H65.2199V49.2094L52.5939 55.3087C51.9101 55.6102 51.1732 55.772 50.4263 55.7846Z" fill="#00D1D9"/>
</g>
<defs>
<clipPath id="clip0_4910_6873">
<rect width="81" height="81" fill="white"/>
</clipPath>
</defs>
</svg>
