<svg width="81" height="81" viewBox="0 0 81 81" fill="none" xmlns="http://www.w3.org/2000/svg">
<g clip-path="url(#clip0_4913_6924)">
<path d="M72.6692 18.2979C72.6692 34.3825 81 45.4329 81 53.1786C81 60.9242 76.545 77.2052 40.8908 77.2052C5.23665 77.2052 0 55.3068 0 46.7836C0 6.86276 72.6692 -10.1898 72.6692 18.2979Z" fill="#F9F6EE"/>
<path d="M72.6692 18.2979C72.6692 34.3825 81 45.4329 81 53.1786C81 60.9242 76.545 77.2052 40.8908 77.2052C5.23665 77.2052 0 55.3068 0 46.7836C0 6.86276 72.6692 -10.1898 72.6692 18.2979Z" fill="#EEF9F5"/>
<path d="M67.5332 4.05005H69.8599V8.70755H67.5332V4.05005Z" fill="#AADA5D"/>
<path d="M72.7656 11.0261H77.4231V13.3508H72.7656V11.0261Z" fill="#AADA5D"/>
<path d="M44.0325 11.5201C43.729 11.219 43.3189 11.05 42.8914 11.05C42.4639 11.05 42.0537 11.219 41.7503 11.5201L10.9703 42.1665C10.6692 42.4699 10.5002 42.8801 10.5002 43.3076C10.5002 43.7351 10.6692 44.1452 10.9703 44.4487L29.7461 63.1495H12.1063C11.6767 63.1495 11.2646 63.3202 10.9608 63.624C10.657 63.9278 10.4863 64.3399 10.4863 64.7695C10.4863 65.1992 10.657 65.6112 10.9608 65.915C11.2646 66.2188 11.6767 66.3895 12.1063 66.3895H70.6065C71.0362 66.3895 71.4483 66.2188 71.7521 65.915C72.0559 65.6112 72.2266 65.1992 72.2266 64.7695C72.2266 64.3399 72.0559 63.9278 71.7521 63.624C71.4483 63.3202 71.0362 63.1495 70.6065 63.1495H56.0407L74.8125 44.4507C74.9618 44.3014 75.0803 44.1241 75.1611 43.929C75.2419 43.7339 75.2835 43.5248 75.2835 43.3136C75.2835 43.1025 75.2419 42.8934 75.1611 42.6983C75.0803 42.5032 74.9618 42.3259 74.8125 42.1766L44.0325 11.5201ZM51.4642 63.1576H34.3266L14.4007 43.3126L42.8944 14.9424L71.3922 43.3126L51.4642 63.1576Z" fill="black"/>
<path d="M42.8856 57.2022L38.0965 52.7614L26.959 41.6664L42.8937 25.8005L58.8305 41.6664L42.8856 57.2022Z" fill="#5DDAA8"/>
</g>
<defs>
<clipPath id="clip0_4913_6924">
<rect width="81" height="81" fill="white"/>
</clipPath>
</defs>
</svg>
