<svg width="77" height="77" viewBox="0 0 77 77" fill="none" xmlns="http://www.w3.org/2000/svg">
<g clip-path="url(#clip0_4914_7161)">
<path d="M7.92726 17.7696C7.92726 33.0618 0.0078125 43.5645 0.0078125 50.9296C0.0078125 58.2946 4.24281 73.7717 38.1382 73.7717C72.0336 73.7717 77.0078 52.9547 77.0078 44.8505C77.002 6.90293 7.92726 -9.3075 7.92726 17.7696Z" fill="#F0FAFA"/>
<path d="M68.7324 7.68089L71.8586 4.55469L73.4217 6.11778L70.2974 9.24398L68.7324 7.68089Z" fill="#AADA5D"/>
<path d="M69.5117 14.7128L71.0748 13.1516L74.201 16.2759L72.6379 17.839L69.5117 14.7128Z" fill="#AADA5D"/>
<path d="M60.5234 5.72693L62.0865 4.16382L65.2127 7.29002L63.6497 8.85313L60.5234 5.72693Z" fill="#AADA5D"/>
<path d="M25.1992 49.8093V63.7309H46.8381V49.8113L25.1992 49.8093Z" fill="#00D1D9"/>
<path d="M36.0645 4.42551C28.6021 4.34715 21.3698 7.00721 15.7365 11.9022C13.1516 14.164 11.0454 16.9202 9.54188 20.0084C8.04964 23.0749 7.26856 26.4387 7.25689 29.849C7.24773 30.0757 7.29996 30.3008 7.40804 30.5003C7.51612 30.6999 7.67604 30.8666 7.87096 30.9828L29.6793 43.7687L31.7063 44.7908H29.3963H28.867H21.0957C20.763 44.7913 20.4441 44.9237 20.2088 45.159C19.9735 45.3943 19.8411 45.7132 19.8406 46.0459V67.4789C19.8416 67.8113 19.9743 68.1297 20.2095 68.3646C20.4447 68.5994 20.7633 68.7315 21.0957 68.7321H50.9198C51.252 68.7315 51.5704 68.5994 51.8053 68.3644C52.0402 68.1295 52.1724 67.8111 52.1729 67.4789V46.0536C52.1729 45.7213 52.0409 45.4025 51.8059 45.1675C51.5709 44.9325 51.2521 44.8005 50.9198 44.8005H42.5518H40.3958L42.2573 43.8033L42.7077 43.5165L64.1657 30.7807C64.2602 30.7243 64.347 30.6557 64.4236 30.5766C64.5364 30.4615 64.6253 30.3251 64.6851 30.1755C64.7449 30.0258 64.7744 29.8658 64.7721 29.7046C64.7393 15.7561 51.8495 4.44861 36.0645 4.42551ZM36.0395 6.90492H36.0549C37.8913 6.91647 39.8106 9.25342 41.3294 13.3171C42.5498 16.7843 43.3335 20.39 43.6625 24.0509L43.7068 24.4744L42.9733 24.946L42.5883 24.7112C40.5995 23.5575 38.3407 22.951 36.0415 22.9534C33.7423 22.9558 31.4848 23.5669 29.4983 24.7246L29.1307 24.9499L28.3934 24.4802L28.4415 24.0432C28.7711 20.3871 29.5535 16.7861 30.7708 13.3229C32.2858 9.25341 34.2088 6.91262 36.0318 6.90492H36.0395ZM36.4341 42.7696L36.0106 43.4087L35.641 42.7831L35.4273 42.45L28.2356 29.5814L28.428 29.233C29.3185 28.0514 30.4715 27.093 31.796 26.4335C33.1205 25.7741 34.5801 25.4315 36.0597 25.433C37.5393 25.4345 38.9982 25.78 40.3214 26.4421C41.6445 27.1043 42.7956 28.065 43.6837 29.2484L43.8762 29.6084L43.6663 29.9279L36.4341 42.7696ZM38.6055 47.9786V53.9596L37.8644 53.411L36.746 52.6622C36.5399 52.5228 36.2969 52.4483 36.0482 52.4483C35.7994 52.4483 35.5564 52.5228 35.3504 52.6622L34.1665 53.4476L33.4273 53.9635V47.2856H38.5882L38.6055 47.9786ZM10.7758 23.5446C12.0811 19.7619 14.3598 16.3898 17.3824 13.7675C20.8374 10.7417 24.9979 8.63335 29.481 7.63641L29.9257 7.53824L30.4666 8.28707L30.2241 8.68747C27.6855 13.6177 26.2118 19.0264 25.8986 24.5629L25.862 24.9653L25.1363 25.2944L24.8052 25.075C22.7143 23.6664 20.2441 22.9278 17.7231 22.9575C15.6469 22.9368 13.5975 23.4273 11.7556 24.3858L11.3341 24.6091L10.6256 23.9931L10.7758 23.5446ZM10.3754 29.5853L10.2368 29.0078L10.3966 28.7537C11.2765 27.6734 12.3952 26.8121 13.6645 26.2375C14.9339 25.663 16.3192 25.3909 17.7116 25.4427C21.4903 25.4427 24.8456 27.3908 25.6868 30.0781L25.7946 30.3302L31.7083 40.9023L32.6996 42.7908L30.9671 41.6512L30.4993 41.3894L10.3754 29.5853ZM49.6897 47.2953L49.7051 47.9921V66.2796H22.347L22.3316 65.5808V47.2914L23.0303 47.276H30.9363L30.9517 47.9748V56.1888C30.9468 56.4086 30.9971 56.6262 31.0979 56.8216C31.1988 57.017 31.3471 57.1839 31.5292 57.3072C31.7329 57.4313 31.9676 57.4951 32.206 57.4914C32.4445 57.4876 32.677 57.4164 32.8767 57.286L36.1184 55.13L36.5304 55.515L39.1503 57.2725C39.3679 57.4188 39.6262 57.4926 39.8883 57.4832C40.1504 57.4739 40.4028 57.382 40.6094 57.2206C40.7626 57.0951 40.8853 56.9366 40.9683 56.7568C41.0514 56.5771 41.0926 56.3809 41.0888 56.183V47.2914L41.7856 47.2779L49.6897 47.2953ZM61.642 29.3928L61.3783 29.566L41.1754 41.553L39.1503 42.6714L40.4035 40.8504L40.6441 40.371L46.294 30.336C46.3075 30.3091 46.3306 30.2609 46.3537 30.209L46.4056 30.0704C47.2526 27.3908 50.604 25.4504 54.379 25.4504C55.7348 25.3935 57.086 25.644 58.3314 26.183C59.5768 26.722 60.6842 27.5357 61.5708 28.5631L61.7459 28.796L61.642 29.3928ZM61.8576 25.2078L60.3657 24.4089C58.5165 23.447 56.4595 22.9532 54.3751 22.971C51.8549 22.9424 49.3857 23.6809 47.295 25.0885L46.9754 25.3079L46.2574 24.998L46.1977 24.613C45.8864 19.064 44.4092 13.6428 41.8626 8.70286L41.6297 8.31787L42.1668 7.57097L42.623 7.66913C46.8521 8.48764 50.7976 10.3861 54.0762 13.1799C57.3548 15.9738 59.855 19.5682 61.334 23.6139L61.8576 25.2078Z" fill="black"/>
</g>
<defs>
<clipPath id="clip0_4914_7161">
<rect width="77" height="77" fill="white"/>
</clipPath>
</defs>
</svg>
