<svg width="72" height="72" viewBox="0 0 72 72" fill="none" xmlns="http://www.w3.org/2000/svg">
<g clip-path="url(#clip0_4914_7281)">
<path d="M7.389 56.754C7.389 42.4548 0 32.634 0 25.7472C0 18.8604 3.95999 4.38843 35.5698 4.38843C67.1796 4.38843 71.8254 23.8536 71.8254 31.4316C71.829 66.915 7.389 82.0728 7.389 56.754Z" fill="#EEF9F5"/>
<path d="M67.6152 6.52328L70.5384 3.6001L72 5.06169L69.0768 7.98491L67.6152 6.52328Z" fill="#AADA5D"/>
<path d="M58.8555 5.06877L60.3171 3.60718L63.2403 6.53039L61.7787 7.99017L58.8555 5.06877Z" fill="#AADA5D"/>
<path d="M67.2559 13.4748L68.7175 12.0132L71.6407 14.9364L70.1791 16.398L67.2559 13.4748Z" fill="#AADA5D"/>
<path opacity="0.8" d="M31.9014 20.934L17.2643 35.5711C15.8584 36.977 15.8584 39.2564 17.2643 40.6623L31.9014 55.2994C33.3073 56.7053 35.5867 56.7053 36.9926 55.2994L51.6297 40.6623C53.0356 39.2564 53.0356 36.977 51.6297 35.5711L36.9926 20.934C35.5867 19.5281 33.3073 19.5281 31.9014 20.934Z" fill="#5DDAA8"/>
<path d="M54.2511 43.0884C54.1244 42.9589 53.9732 42.8558 53.8064 42.7851C53.6395 42.7143 53.4603 42.6773 53.2791 42.6762C52.9139 42.6777 52.5641 42.8237 52.3064 43.0825C52.0486 43.3413 51.9039 43.6916 51.9039 44.0568C51.9041 44.4199 52.047 44.7683 52.3017 45.027L58.3587 51.1722L53.2269 50.301C51.7595 50.0519 50.3207 49.6563 48.9321 49.1202C46.5582 48.2028 44.3532 46.8974 42.4071 45.2574C40.306 43.4677 38.5 41.358 37.0557 39.006L36.4959 38.106L37.0557 37.206C38.5009 34.8541 40.3067 32.744 42.4071 30.9528C44.3526 29.3119 46.5577 28.0064 48.9321 27.09C50.318 26.5574 51.7538 26.1648 53.2179 25.9182L58.3497 25.047L52.2927 31.1958C52.1016 31.3893 51.9719 31.6349 51.9199 31.9018C51.8678 32.1687 51.8957 32.445 52.0001 32.6961C52.1045 32.9472 52.2807 33.1618 52.5067 33.3132C52.7326 33.4645 52.9982 33.5457 53.2701 33.5466C53.4513 33.5457 53.6306 33.5087 53.7974 33.4379C53.9643 33.3672 54.1154 33.264 54.2421 33.1344L61.9011 25.3584C62.1583 25.0979 62.3016 24.7458 62.2996 24.3797C62.2976 24.0136 62.1504 23.6632 61.8903 23.4054L54.2493 15.8382C53.9785 15.5967 53.6326 15.4561 53.2701 15.4404C52.9976 15.4434 52.732 15.5268 52.5067 15.6801C52.2814 15.8334 52.1063 16.0498 52.0035 16.3022C51.9007 16.5546 51.8746 16.8317 51.9286 17.0989C51.9826 17.366 52.1143 17.6112 52.3071 17.8038L57.1671 22.6224L53.7471 23.058C51.8644 23.3008 50.0157 23.7586 48.2373 24.4224C45.5307 25.4271 43.0131 26.8816 40.7907 28.7244C39.1001 30.1316 37.5807 31.7326 36.2637 33.4944L34.9245 35.2764L33.5853 33.4944C32.2676 31.7326 30.7476 30.1317 29.0565 28.7244C26.8341 26.8816 24.3165 25.4271 21.6099 24.4224C18.9494 23.3776 16.1105 22.8621 13.2525 22.905C12.9021 22.9261 12.5731 23.0802 12.3325 23.3358C12.092 23.5914 11.9581 23.9292 11.9583 24.2802C11.9598 24.4747 12.0013 24.6669 12.0803 24.8446C12.1592 25.0224 12.274 25.182 12.4173 25.3134C12.55 25.4367 12.7068 25.5312 12.8778 25.591C13.0488 25.6508 13.2303 25.6746 13.4109 25.6608C15.8889 25.6642 18.3452 26.1224 20.6577 27.0126C23.0707 27.9103 25.3155 29.2076 27.2979 30.8502C29.4622 32.6648 31.3191 34.8171 32.7969 37.224L33.3549 38.124L32.7969 39.024C31.3187 41.4306 29.4619 43.5829 27.2979 45.3978C25.313 47.0432 23.0652 48.3423 20.6487 49.2408C18.3453 50.1175 15.9025 50.5706 13.4379 50.5782C13.255 50.5638 13.0711 50.5862 12.897 50.644C12.7229 50.7018 12.5621 50.7939 12.4242 50.9149C12.2863 51.0358 12.174 51.1832 12.094 51.3483C12.014 51.5134 11.9678 51.6928 11.9583 51.876C11.9428 52.2391 12.0692 52.5939 12.3108 52.8654C12.5524 53.1369 12.8901 53.3036 13.2525 53.3304C16.1102 53.3712 18.9485 52.8565 21.6099 51.8148C24.316 50.809 26.8334 49.3547 29.0565 47.5128C30.7457 46.1047 32.2645 44.5038 33.5817 42.7428L34.9227 40.959L36.2601 42.7428C37.5811 44.5063 39.104 46.1091 40.7979 47.5182C43.0207 49.3605 45.5382 50.8149 48.2445 51.8202C50.0229 52.4843 51.8716 52.9421 53.7543 53.1846L57.1743 53.6184L52.3143 58.437C52.1201 58.6291 51.9872 58.8744 51.9323 59.1419C51.8774 59.4095 51.9029 59.6873 52.0058 59.9403C52.1086 60.1934 52.2841 60.4103 52.5101 60.5637C52.736 60.7171 53.0024 60.8001 53.2755 60.8022C53.4573 60.8066 53.638 60.7735 53.8064 60.7051C53.9749 60.6366 54.1275 60.5343 54.2547 60.4044L61.9029 52.821C62.1621 52.563 62.309 52.213 62.3115 51.8472C62.3115 51.4806 62.1681 51.1285 61.9119 50.8662L54.2511 43.0884Z" fill="black"/>
</g>
<defs>
<clipPath id="clip0_4914_7281">
<rect width="72" height="72" fill="white"/>
</clipPath>
</defs>
</svg>
