<svg width="74" height="67" viewBox="0 0 74 67" fill="none" xmlns="http://www.w3.org/2000/svg">
<path d="M66.3873 12.931C66.3873 27.6255 74 37.721 74 44.7972C74 51.8735 69.93 66.7493 37.3552 66.7493C4.7804 66.7493 0 46.7434 0 38.9567C0 2.48584 66.3873 -13.093 66.3873 12.931Z" fill="#F0FAFA"/>
<path d="M28.9688 51.9527C27.0176 50.7824 25.2022 49.3994 23.5557 47.8291L22.1257 46.3823C20.5555 44.7364 19.1691 42.9244 17.9909 40.9785L17.0345 39.1784C16.7755 38.6234 16.5387 38.0888 16.35 37.5671C16.0158 36.7316 15.8699 35.8328 15.9226 34.9346C23.591 32.8066 30.4467 28.4316 35.6066 22.373L35.7916 22.6524C38.7678 27.0724 42.5558 30.8874 46.9545 33.8948L47.528 34.2871C41.4085 39.4378 36.9614 46.2942 34.7538 53.9821H34.739C33.345 53.9646 31.9784 53.5935 30.767 52.9036L28.9688 51.9527Z" fill="#00D1D9"/>
<path d="M45.7417 7.40463C47.2298 8.13331 48.6582 8.9783 50.0134 9.93172L50.3945 10.2018L52.0835 7.76353L51.7135 7.50083C50.257 6.47201 48.7223 5.55841 47.1237 4.76837L46.7222 4.57227L45.3125 7.19373L45.7417 7.40463Z" fill="black"/>
<path d="M66.3036 25.4561C66.2444 25.2988 66.1778 25.1379 66.1186 24.9751L65.8281 24.2499L63.2085 25.6577L63.4268 26.2423C63.4564 26.3108 63.4842 26.3792 63.5101 26.4514C64.5183 29.2874 64.5738 31.7183 63.6951 32.6119C63.3831 32.8707 63.0226 33.0647 62.6348 33.1826C62.2469 33.3004 61.8394 33.3397 61.4362 33.2982C57.9212 33.2982 51.646 30.5584 45.5262 24.4293C42.0202 21.0673 39.2728 16.9953 37.4676 12.4857C36.4594 9.64597 36.4039 7.21691 37.2937 6.32706C37.6015 6.06856 37.9581 5.87445 38.3423 5.75624C38.7265 5.63803 39.1305 5.59812 39.5304 5.63887C41.0359 5.70056 42.5188 6.02681 43.9112 6.60271L44.296 6.76181L45.7186 4.12928L44.9934 3.83883C44.8306 3.77223 44.6697 3.70562 44.5161 3.65382C42.9426 3.0566 41.2795 2.72949 39.597 2.68628C38.8038 2.63491 38.0084 2.74283 37.2576 3.00368C36.5068 3.26454 35.8158 3.67304 35.2254 4.20513C33.4198 6.00888 33.2163 9.38513 34.6704 13.4995C36.6217 18.4177 39.6042 22.8607 43.4172 26.5291C47.0848 30.3454 51.5269 33.3323 56.4449 35.2888L56.4893 35.3036C58.0853 35.7701 59.7208 36.089 61.3752 36.2564C61.4973 36.2656 61.6194 36.2693 61.7452 36.2693C63.2221 36.2657 64.6464 35.7207 65.7486 34.7375C67.5449 32.9338 67.7558 29.552 66.3036 25.4561Z" fill="black"/>
<path d="M38.7706 49.583L38.3562 50.6208C37.9566 51.618 37.5884 52.6392 37.2591 53.6567L37.2166 53.7917L37.2555 53.9286C37.964 56.3706 37.9066 58.3871 37.1389 59.1586C36.8258 59.4161 36.4649 59.6091 36.0769 59.7266C35.6889 59.8441 35.2815 59.8836 34.8782 59.8431C31.3632 59.8431 25.088 57.1032 18.9682 50.9779C15.4612 47.6167 12.7136 43.5445 10.9096 39.0343C9.90135 36.1982 9.84585 33.7673 10.7653 32.8479C11.5774 32.0376 13.5995 31.9784 16.0341 32.6906L16.1691 32.7313L16.306 32.6869C17.3087 32.3632 18.3262 31.9969 19.3308 31.5936L20.3686 31.1773L19.34 30.7389C14.5929 28.7039 10.7042 28.715 8.6674 30.7389C6.86365 32.5426 6.66015 35.9189 8.1124 40.0333C10.0627 44.9538 13.0438 49.3997 16.8555 53.0721C20.52 56.9028 24.9734 59.8911 29.9072 61.83C31.4798 62.4284 33.1425 62.7556 34.8245 62.7975C34.9503 62.8068 35.0743 62.8105 35.1945 62.8105C36.674 62.8077 38.1007 62.2612 39.2035 61.275C41.2385 59.24 41.2385 55.355 39.2035 50.606L38.7706 49.583Z" fill="black"/>
</svg>
