<svg width="18" height="19" viewBox="0 0 18 19" fill="none" xmlns="http://www.w3.org/2000/svg">
<g clip-path="url(#clip0_5241_108281)">
<path fill-rule="evenodd" clip-rule="evenodd" d="M4.6875 4.4375C4.6875 2.37699 6.328 0.6875 8.37503 0.6875H13.375C15.422 0.6875 17.0625 2.37699 17.0625 4.4375V10.8125C17.0625 12.873 15.422 14.5625 13.375 14.5625C13.0643 14.5625 12.8125 14.3106 12.8125 14C12.8125 13.6893 13.0643 13.4375 13.375 13.4375C14.7798 13.4375 15.9375 12.2728 15.9375 10.8125V4.4375C15.9375 2.9772 14.7798 1.8125 13.375 1.8125H8.37503C6.97022 1.8125 5.8125 2.9772 5.8125 4.4375C5.8125 4.74816 5.56066 5 5.25 5C4.93934 5 4.6875 4.74816 4.6875 4.4375Z" fill="#2EA8AF"/>
<path fill-rule="evenodd" clip-rule="evenodd" d="M0.9375 8.1875C0.9375 6.12699 2.578 4.4375 4.625 4.4375H9.62498C11.672 4.4375 13.3125 6.12699 13.3125 8.1875V14.5625C13.3125 16.623 11.672 18.3125 9.62498 18.3125H4.625C2.578 18.3125 0.9375 16.623 0.9375 14.5625V8.1875ZM4.625 5.5625C3.22022 5.5625 2.0625 6.7272 2.0625 8.1875V14.5625C2.0625 16.0228 3.22022 17.1875 4.625 17.1875H9.62498C11.0298 17.1875 12.1875 16.0228 12.1875 14.5625V8.1875C12.1875 6.7272 11.0298 5.5625 9.62498 5.5625H4.625Z" fill="#2EA8AF"/>
</g>
<defs>
<clipPath id="clip0_5241_108281">
<rect width="18" height="18" fill="white" transform="translate(0 0.5)"/>
</clipPath>
</defs>
</svg>
