<svg width="24" height="24" viewBox="0 0 24 24" fill="none" xmlns="http://www.w3.org/2000/svg">
<g clip-path="url(#clip0_6630_66483)">
<path d="M12 24C18.6274 24 24 18.6274 24 12C24 5.37258 18.6274 0 12 0C5.37258 0 0 5.37258 0 12C0 18.6274 5.37258 24 12 24Z" fill="#7289DA"/>
<path d="M14.5765 15.9888C14.8534 15.8766 15.1312 15.7834 15.3891 15.652C15.6475 15.5153 15.8961 15.3609 16.1332 15.1897C16.3714 15.0193 16.5793 14.8094 16.7477 14.5692C15.3154 15.4553 13.6657 15.9222 11.9842 15.9174C10.3047 15.9038 8.66031 15.4334 7.22512 14.556C7.4705 14.9017 7.78352 15.1931 8.1452 15.4124C8.51065 15.6428 8.90523 15.8227 9.31841 15.9472C9.30735 15.9697 9.29472 15.9915 9.28046 16.0122C9.03242 16.324 8.78463 16.6358 8.52914 16.9452C8.51581 16.96 8.49954 16.9721 8.4815 16.9805C8.46346 16.9889 8.44365 16.9936 8.42377 16.9943C7.79367 16.9887 7.17123 16.8577 6.59169 16.6089C6.01214 16.3601 5.48697 15.9986 5.04706 15.5448C4.94069 15.4292 4.84237 15.3062 4.75274 15.1771C4.71755 15.1257 4.6986 15.0649 4.69824 15.0025C4.74342 12.5605 5.32539 10.1589 6.40234 7.9699C6.45281 7.86382 6.53007 7.773 6.62641 7.70636C7.4495 7.11126 8.3984 6.71595 9.39875 6.55125C9.55915 6.52547 9.72281 6.52374 9.88322 6.50212C10.0056 6.48465 10.0403 6.57854 10.1089 6.66171C8.98024 6.96863 7.92023 7.4891 6.98531 8.19528C8.48646 7.4185 10.1515 7.01663 11.8396 7.02353C13.5265 6.99801 15.1923 7.40291 16.6815 8.20036L16.6964 8.17863C16.5492 8.07384 16.4052 7.96573 16.2547 7.86676C16.1042 7.76779 15.9432 7.6697 15.7836 7.57905C15.624 7.4884 15.4528 7.40107 15.2874 7.31956C15.122 7.23806 14.9568 7.16407 14.784 7.09337C14.6112 7.02268 14.4424 6.95699 14.2704 6.89378C14.0985 6.83058 13.9247 6.77484 13.7428 6.71247C13.8321 6.59021 13.9009 6.48715 14.0803 6.50212C14.7569 6.56091 15.4193 6.73141 16.0407 7.00688C16.4895 7.20122 16.9143 7.44689 17.3072 7.73884C17.3742 7.78869 17.4295 7.85275 17.4687 7.92666C17.9861 8.971 18.3922 10.0675 18.6807 11.1977C18.9125 12.0734 19.0682 12.9676 19.1462 13.8705C19.1776 14.2414 19.1867 14.619 19.1982 14.9882C19.1984 15.0596 19.1766 15.1295 19.1361 15.188C18.709 15.7697 18.1393 16.2298 17.4824 16.5236C16.8574 16.8085 16.1838 16.9698 15.4981 16.9986C15.4643 17.0028 15.43 16.9977 15.3988 16.9837C15.3677 16.9698 15.3409 16.9475 15.3213 16.9194C15.0948 16.6324 14.8616 16.3498 14.6318 16.0646C14.6094 16.0388 14.593 16.0138 14.5765 15.9888ZM10.8828 12.4427C10.8744 12.2721 10.8343 12.1045 10.7645 11.9487C10.6895 11.7566 10.5673 11.5868 10.4093 11.4551C10.2513 11.3234 10.063 11.2341 9.86141 11.1956C9.65983 11.1572 9.4516 11.1709 9.25664 11.2352C9.06169 11.2995 8.8861 11.4124 8.74634 11.5635C8.49923 11.8384 8.3653 12.1975 8.37128 12.568C8.37727 12.9385 8.52278 13.293 8.77864 13.5596C8.88867 13.6749 9.02089 13.7664 9.16702 13.8291C9.31315 13.8917 9.47003 13.9241 9.62887 13.9241C9.78772 13.9241 9.945 13.8917 10.0911 13.8291C10.2373 13.7664 10.3695 13.6749 10.4795 13.5596C10.619 13.4118 10.7266 13.2365 10.7956 13.0449C10.8646 12.8533 10.8934 12.6493 10.8804 12.446L10.8828 12.4427ZM12.8986 12.609C12.906 12.8777 12.9925 13.138 13.1469 13.3574C13.2524 13.5249 13.3972 13.6637 13.5688 13.7613C13.7403 13.8588 13.9333 13.9122 14.1303 13.9168C14.3274 13.9214 14.5225 13.8771 14.6984 13.7877C14.8743 13.6982 15.0253 13.5665 15.1384 13.4041C15.3176 13.1524 15.4142 12.8504 15.4142 12.5408C15.4142 12.2311 15.3176 11.9292 15.1384 11.6774C15.0316 11.5248 14.8909 11.3992 14.7274 11.3108C14.564 11.2223 14.3825 11.1734 14.197 11.1678C14.0114 11.1622 13.8272 11.2001 13.6588 11.2787C13.4904 11.3572 13.3425 11.4742 13.2268 11.6202C12.9986 11.8985 12.8809 12.2518 12.8962 12.6122L12.8986 12.609Z" fill="white"/>
</g>
<defs>
<clipPath id="clip0_6630_66483">
<rect width="24" height="24" fill="white"/>
</clipPath>
</defs>
</svg>
