<svg width="52" height="50" viewBox="0 0 52 50" fill="none" xmlns="http://www.w3.org/2000/svg">
<path d="M46.0296 10.9244C46.5254 10.682 46.6413 10.0941 46.3911 9.73948C46.1408 9.25923 45.5338 9.14702 45.1677 9.38939C44.6719 9.63176 44.556 10.2197 44.8063 10.5743C45.0565 11.0366 45.6635 11.2745 46.0296 10.9244Z" fill="url(#paint0_linear_2_10231)"/>
<path d="M34.8662 3.30847C35.362 3.55083 35.8393 3.42067 36.0895 2.95838C36.3398 2.47813 36.2054 2.01584 35.7281 1.77347C35.2322 1.5311 34.755 1.66126 34.5047 2.12356C34.2545 2.58585 34.3889 3.0661 34.8662 3.30847Z" fill="url(#paint1_linear_2_10231)"/>
<path d="M41.5848 6.3958C41.9462 6.04571 41.9462 5.45326 41.5848 5.08522C41.2234 4.73513 40.6117 4.73513 40.2317 5.08522C39.8702 5.43531 39.8702 6.02776 40.2317 6.3958C40.5931 6.76384 41.2234 6.74589 41.5848 6.3958Z" fill="url(#paint2_linear_2_10231)"/>
<path d="M36.3518 47.1725C36.236 46.6923 35.7401 46.4499 35.2443 46.5801C34.7485 46.6923 34.5214 47.1725 34.6326 47.6528C34.7485 48.133 35.2443 48.3754 35.7401 48.2452C36.1016 48.1151 36.4862 47.6528 36.3518 47.1725Z" fill="url(#paint3_linear_2_10231)"/>
<path d="M29.1031 48.1149C28.6072 48.1149 28.1299 48.465 28.1299 49.0575C28.1299 49.5377 28.4914 50 29.1031 50C29.5989 50 30.0762 49.6499 30.0762 49.0575C29.9418 48.5772 29.5804 48.1149 29.1031 48.1149Z" fill="url(#paint4_linear_2_10231)"/>
<path d="M22.8627 48.2447C22.3668 48.1324 21.8895 48.3569 21.7552 48.8371C21.6393 49.3174 21.871 49.7797 22.3668 49.9098C22.8627 50.04 23.34 49.7976 23.4743 49.3174C23.6087 48.8371 23.3585 48.3569 22.8627 48.2447Z" fill="url(#paint5_linear_2_10231)"/>
<path d="M16.7571 46.6693C16.2613 46.427 15.784 46.5571 15.5337 47.0194C15.2835 47.4997 15.4179 47.962 15.8952 48.2043C16.391 48.4467 16.8683 48.3165 17.1185 47.8543C17.3688 47.374 17.1185 46.8938 16.7571 46.6693Z" fill="url(#paint6_linear_2_10231)"/>
<path d="M9.9282 43.7338C9.56675 44.0839 9.56675 44.6764 9.9282 45.0444C10.2896 45.3945 10.9013 45.3945 11.2813 45.0444C11.6427 44.6943 11.6427 44.1019 11.2813 43.7338C10.9013 43.3837 10.2896 43.3837 9.9282 43.7338Z" fill="url(#paint7_linear_2_10231)"/>
<path d="M45.0189 39.0926C44.6575 39.4427 44.6575 40.0352 45.0189 40.4032C45.3804 40.7533 45.9921 40.7533 46.3721 40.4032C46.7335 40.0531 46.7335 39.4607 46.3721 39.0926C45.8762 38.7425 45.3804 38.7425 45.0189 39.0926Z" fill="url(#paint8_linear_2_10231)"/>
<path d="M50.761 27.3204C50.2652 27.2082 49.7879 27.4326 49.6535 27.9129C49.5376 28.3931 49.7693 28.8554 50.2652 28.9856C50.761 29.0978 51.2383 28.8734 51.3727 28.3931C51.6229 27.9129 51.2568 27.4506 50.761 27.3204Z" fill="url(#paint9_linear_2_10231)"/>
<path d="M49.3109 33.4731C48.815 33.2307 48.3378 33.3609 48.0875 33.8232C47.8373 34.3034 47.9717 34.7657 48.449 35.0081C48.9448 35.2504 49.4221 35.1203 49.6723 34.658C49.9226 34.1777 49.7882 33.7154 49.3109 33.4731Z" fill="url(#paint10_linear_2_10231)"/>
<path d="M40.6308 43.4912C40.1349 43.7336 40.0191 44.3216 40.2693 44.6761C40.5195 45.1564 41.1266 45.2686 41.4927 45.0262C41.9885 44.7838 42.1043 44.1959 41.8541 43.8413C41.6039 43.3611 40.9968 43.2488 40.6308 43.4912Z" fill="url(#paint11_linear_2_10231)"/>
<path d="M28.7599 1.77719C29.2557 1.8894 29.733 1.66499 29.8674 1.18474C29.9833 0.704491 29.7516 0.242197 29.2557 0.112036C28.7599 -0.000171232 28.2826 0.224243 28.1482 0.704491C28.0138 1.16679 28.2641 1.64703 28.7599 1.77719Z" fill="url(#paint12_linear_2_10231)"/>
<path d="M15.2726 2.82773C15.3884 3.30798 15.8843 3.55034 16.3801 3.42018C16.8759 3.30798 17.103 2.82773 16.9918 2.34748C16.8759 1.86723 16.3801 1.62487 15.8843 1.75503C15.3884 1.88519 15.1382 2.36543 15.2726 2.82773Z" fill="url(#paint13_linear_2_10231)"/>
<path d="M10.9925 6.52612C11.4883 6.28375 11.6041 5.69579 11.3539 5.34121C11.1037 4.86096 10.4966 4.74876 10.1306 4.99112C9.63472 5.23349 9.51888 5.82146 9.76911 6.17603C10.0193 6.63833 10.5152 6.76849 10.9925 6.52612Z" fill="url(#paint14_linear_2_10231)"/>
<path d="M22.5376 1.88508C23.0335 1.88508 23.5107 1.535 23.5107 0.942543C23.5107 0.462295 23.1493 0 22.5376 0C22.0418 0 21.6803 0.350088 21.5645 0.830336C21.5645 1.40484 21.9259 1.88508 22.5376 1.88508Z" fill="url(#paint15_linear_2_10231)"/>
<path d="M6.62339 10.9239C6.98483 10.5738 6.98483 9.98135 6.62339 9.61331C6.26194 9.26322 5.65026 9.26322 5.27028 9.61331C4.90883 9.9634 4.90883 10.5559 5.27028 10.9239C5.63173 11.2919 6.2434 11.2919 6.62339 10.9239Z" fill="url(#paint16_linear_2_10231)"/>
<path d="M1.94625 28.2445C1.94625 27.7642 1.58481 27.3019 0.973127 27.3019C0.477296 27.3019 0 27.652 0 28.2445C0 28.7247 0.361448 29.0748 0.973127 29.0748C1.58481 29.0748 1.94625 28.7247 1.94625 28.2445Z" fill="url(#paint17_linear_2_10231)"/>
<path d="M0.746275 22.7742C1.24211 22.8864 1.7194 22.662 1.85378 22.1817C1.96963 21.7015 1.73794 21.2392 1.24211 21.109C0.746275 20.9968 0.26898 21.2213 0.134596 21.7015C0.0187479 22.0695 0.250444 22.662 0.746275 22.7742Z" fill="url(#paint18_linear_2_10231)"/>
<path d="M2.18117 16.49C2.677 16.7324 3.15429 16.6022 3.40452 16.1399C3.65476 15.6597 3.52037 15.1974 3.04308 14.955C2.54725 14.7126 2.06995 14.8428 1.81972 15.3051C1.56949 15.7853 1.81972 16.2656 2.18117 16.49Z" fill="url(#paint19_linear_2_10231)"/>
<path d="M5.47608 39.0925C4.98025 39.3348 4.8644 39.9228 5.11464 40.2774C5.36487 40.7576 5.97191 40.8698 6.33799 40.6275C6.83382 40.3851 6.94967 39.7971 6.69944 39.4425C6.44921 38.9623 5.97655 38.8501 5.47608 39.0925Z" fill="url(#paint20_linear_2_10231)"/>
<path d="M3.51479 34.0663C3.39894 33.586 2.90311 33.3436 2.40728 33.4738C1.91145 33.586 1.68439 34.0663 1.7956 34.5465C1.91145 35.0268 2.40728 35.2691 2.90311 35.139C3.39894 35.0268 3.76039 34.5465 3.51479 34.0663Z" fill="url(#paint21_linear_2_10231)"/>
<defs>
<linearGradient id="paint0_linear_2_10231" x1="25.0935" y1="-9.65443" x2="59.8134" y2="26.1041" gradientUnits="userSpaceOnUse">
<stop stop-color="#A8D061"/>
<stop offset="1" stop-color="#219ABB"/>
</linearGradient>
<linearGradient id="paint1_linear_2_10231" x1="23.8745" y1="-8.49575" x2="58.5899" y2="27.2582" gradientUnits="userSpaceOnUse">
<stop stop-color="#A8D061"/>
<stop offset="1" stop-color="#219ABB"/>
</linearGradient>
<linearGradient id="paint2_linear_2_10231" x1="25.0092" y1="-9.61843" x2="59.7247" y2="26.1355" gradientUnits="userSpaceOnUse">
<stop stop-color="#A8D061"/>
<stop offset="1" stop-color="#219ABB"/>
</linearGradient>
<linearGradient id="paint3_linear_2_10231" x1="0.823401" y1="13.9099" x2="35.5388" y2="49.6638" gradientUnits="userSpaceOnUse">
<stop stop-color="#A8D061"/>
<stop offset="1" stop-color="#219ABB"/>
</linearGradient>
<linearGradient id="paint4_linear_2_10231" x1="-3.26493" y1="17.8279" x2="31.4505" y2="53.5818" gradientUnits="userSpaceOnUse">
<stop stop-color="#A8D061"/>
<stop offset="1" stop-color="#219ABB"/>
</linearGradient>
<linearGradient id="paint5_linear_2_10231" x1="-6.47475" y1="20.9648" x2="28.2407" y2="56.7186" gradientUnits="userSpaceOnUse">
<stop stop-color="#A8D061"/>
<stop offset="1" stop-color="#219ABB"/>
</linearGradient>
<linearGradient id="paint6_linear_2_10231" x1="-8.78976" y1="23.1911" x2="25.9257" y2="58.945" gradientUnits="userSpaceOnUse">
<stop stop-color="#A8D061"/>
<stop offset="1" stop-color="#219ABB"/>
</linearGradient>
<linearGradient id="paint7_linear_2_10231" x1="-10.0209" y1="24.4611" x2="24.6946" y2="60.215" gradientUnits="userSpaceOnUse">
<stop stop-color="#A8D061"/>
<stop offset="1" stop-color="#219ABB"/>
</linearGradient>
<linearGradient id="paint8_linear_2_10231" x1="9.84728" y1="5.11625" x2="44.5673" y2="40.8704" gradientUnits="userSpaceOnUse">
<stop stop-color="#A8D061"/>
<stop offset="1" stop-color="#219ABB"/>
</linearGradient>
<linearGradient id="paint9_linear_2_10231" x1="18.2446" y1="-3.04289" x2="52.9601" y2="32.7111" gradientUnits="userSpaceOnUse">
<stop stop-color="#A8D061"/>
<stop offset="1" stop-color="#219ABB"/>
</linearGradient>
<linearGradient id="paint10_linear_2_10231" x1="14.2691" y1="0.798252" x2="48.9846" y2="36.5521" gradientUnits="userSpaceOnUse">
<stop stop-color="#A8D061"/>
<stop offset="1" stop-color="#219ABB"/>
</linearGradient>
<linearGradient id="paint11_linear_2_10231" x1="5.21826" y1="9.63153" x2="39.9337" y2="45.3854" gradientUnits="userSpaceOnUse">
<stop stop-color="#A8D061"/>
<stop offset="1" stop-color="#219ABB"/>
</linearGradient>
<linearGradient id="paint12_linear_2_10231" x1="21.5727" y1="-6.24339" x2="56.2881" y2="29.5106" gradientUnits="userSpaceOnUse">
<stop stop-color="#A8D061"/>
<stop offset="1" stop-color="#219ABB"/>
</linearGradient>
<linearGradient id="paint13_linear_2_10231" x1="14.2809" y1="0.803507" x2="48.9964" y2="36.5574" gradientUnits="userSpaceOnUse">
<stop stop-color="#A8D061"/>
<stop offset="1" stop-color="#219ABB"/>
</linearGradient>
<linearGradient id="paint14_linear_2_10231" x1="9.88032" y1="5.09884" x2="44.5958" y2="40.8527" gradientUnits="userSpaceOnUse">
<stop stop-color="#A8D061"/>
<stop offset="1" stop-color="#219ABB"/>
</linearGradient>
<linearGradient id="paint15_linear_2_10231" x1="18.3532" y1="-3.11039" x2="53.0685" y2="32.648" gradientUnits="userSpaceOnUse">
<stop stop-color="#A8D061"/>
<stop offset="1" stop-color="#219ABB"/>
</linearGradient>
<linearGradient id="paint16_linear_2_10231" x1="5.26565" y1="9.60882" x2="39.9809" y2="45.3672" gradientUnits="userSpaceOnUse">
<stop stop-color="#A8D061"/>
<stop offset="1" stop-color="#219ABB"/>
</linearGradient>
<linearGradient id="paint17_linear_2_10231" x1="-6.51068" y1="20.9824" x2="28.2047" y2="56.7408" gradientUnits="userSpaceOnUse">
<stop stop-color="#A8D061"/>
<stop offset="1" stop-color="#219ABB"/>
</linearGradient>
<linearGradient id="paint18_linear_2_10231" x1="-3.24354" y1="17.8416" x2="31.4719" y2="53.5955" gradientUnits="userSpaceOnUse">
<stop stop-color="#A8D061"/>
<stop offset="1" stop-color="#219ABB"/>
</linearGradient>
<linearGradient id="paint19_linear_2_10231" x1="0.772451" y1="13.9272" x2="35.4879" y2="49.6811" gradientUnits="userSpaceOnUse">
<stop stop-color="#A8D061"/>
<stop offset="1" stop-color="#219ABB"/>
</linearGradient>
<linearGradient id="paint20_linear_2_10231" x1="-10.0476" y1="24.4382" x2="24.6678" y2="60.1921" gradientUnits="userSpaceOnUse">
<stop stop-color="#A8D061"/>
<stop offset="1" stop-color="#219ABB"/>
</linearGradient>
<linearGradient id="paint21_linear_2_10231" x1="-8.82073" y1="23.218" x2="25.8947" y2="58.9719" gradientUnits="userSpaceOnUse">
<stop stop-color="#A8D061"/>
<stop offset="1" stop-color="#219ABB"/>
</linearGradient>
</defs>
</svg>
