<svg width="50" height="50" viewBox="0 0 50 50" fill="none" xmlns="http://www.w3.org/2000/svg">
<path d="M44.5832 10.9244C45.0634 10.682 45.1756 10.0941 44.9333 9.73948C44.6909 9.25923 44.1029 9.14703 43.7484 9.38939C43.2681 9.63176 43.1559 10.2197 43.3983 10.5743C43.6406 11.0366 44.2286 11.2745 44.5832 10.9244Z" fill="url(#paint0_linear_2_10295)"/>
<path d="M33.7705 3.30847C34.2508 3.55083 34.7131 3.42067 34.9554 2.95838C35.1978 2.47813 35.0677 2.01584 34.6054 1.77347C34.1251 1.5311 33.6628 1.66126 33.4204 2.12356C33.1781 2.58585 33.3082 3.0661 33.7705 3.30847Z" fill="url(#paint1_linear_2_10295)"/>
<path d="M40.2783 6.3958C40.6284 6.04571 40.6284 5.45326 40.2783 5.08522C39.9282 4.73513 39.3358 4.73513 38.9677 5.08522C38.6176 5.43531 38.6176 6.02776 38.9677 6.3958C39.3178 6.76384 39.9282 6.74589 40.2783 6.3958Z" fill="url(#paint2_linear_2_10295)"/>
<path d="M35.2092 47.1721C35.097 46.6918 34.6167 46.4494 34.1365 46.5796C33.6562 46.6918 33.4363 47.1721 33.544 47.6523C33.6562 48.1326 34.1365 48.3749 34.6167 48.2448C34.9668 48.1146 35.3393 47.6523 35.2092 47.1721Z" fill="url(#paint3_linear_2_10295)"/>
<path d="M28.1888 48.1149C27.7085 48.1149 27.2463 48.465 27.2463 49.0575C27.2463 49.5377 27.5963 50 28.1888 50C28.669 50 29.1313 49.6499 29.1313 49.0575C29.0012 48.5772 28.6511 48.1149 28.1888 48.1149Z" fill="url(#paint4_linear_2_10295)"/>
<path d="M22.1444 48.2451C21.6641 48.1329 21.2018 48.3574 21.0717 48.8376C20.9595 49.3179 21.1839 49.7801 21.6641 49.9103C22.1444 50.0405 22.6067 49.7981 22.7368 49.3179C22.867 48.8376 22.6246 48.3574 22.1444 48.2451Z" fill="url(#paint5_linear_2_10295)"/>
<path d="M16.2304 46.6693C15.7501 46.427 15.2878 46.5571 15.0455 47.0194C14.8031 47.4997 14.9333 47.962 15.3956 48.2043C15.8758 48.4467 16.3381 48.3166 16.5805 47.8543C16.8228 47.374 16.5805 46.8938 16.2304 46.6693Z" fill="url(#paint6_linear_2_10295)"/>
<path d="M9.61577 43.7338C9.26568 44.0839 9.26568 44.6764 9.61577 45.0444C9.96586 45.3945 10.5583 45.3945 10.9264 45.0444C11.2764 44.6943 11.2764 44.1019 10.9264 43.7338C10.5583 43.3837 9.96586 43.3837 9.61577 43.7338Z" fill="url(#paint7_linear_2_10295)"/>
<path d="M43.604 39.0926C43.2539 39.4427 43.2539 40.0352 43.604 40.4032C43.9541 40.7533 44.5466 40.7533 44.9146 40.4032C45.2647 40.0531 45.2647 39.4607 44.9146 39.0926C44.4343 38.7425 43.9541 38.7425 43.604 39.0926Z" fill="url(#paint8_linear_2_10295)"/>
<path d="M49.1654 27.3199C48.6852 27.2077 48.2229 27.4321 48.0927 27.9124C47.9805 28.3926 48.2049 28.8549 48.6852 28.9851C49.1654 29.0973 49.6277 28.8729 49.7579 28.3926C50.0002 27.9124 49.6457 27.4501 49.1654 27.3199Z" fill="url(#paint9_linear_2_10295)"/>
<path d="M47.7608 33.4736C47.2806 33.2312 46.8183 33.3614 46.5759 33.8236C46.3335 34.3039 46.4637 34.7662 46.926 35.0086C47.4062 35.2509 47.8685 35.1208 48.1109 34.6585C48.3533 34.1782 48.2231 33.7159 47.7608 33.4736Z" fill="url(#paint10_linear_2_10295)"/>
<path d="M39.354 43.4917C38.8738 43.7341 38.7616 44.322 39.0039 44.6766C39.2463 45.1569 39.8343 45.2691 40.1889 45.0267C40.6691 44.7843 40.7813 44.1964 40.5389 43.8418C40.2966 43.3616 39.7086 43.2493 39.354 43.4917Z" fill="url(#paint11_linear_2_10295)"/>
<path d="M27.8559 1.77719C28.3361 1.8894 28.7984 1.66499 28.9286 1.18474C29.0408 0.704491 28.8164 0.242197 28.3361 0.112036C27.8559 -0.000171232 27.3936 0.224243 27.2634 0.704491C27.1333 1.16679 27.3756 1.64703 27.8559 1.77719Z" fill="url(#paint12_linear_2_10295)"/>
<path d="M14.7925 2.82773C14.9047 3.30798 15.3849 3.55034 15.8652 3.42018C16.3454 3.30798 16.5653 2.82773 16.4576 2.34748C16.3454 1.86723 15.8652 1.62487 15.3849 1.75503C14.9047 1.88519 14.6623 2.36543 14.7925 2.82773Z" fill="url(#paint13_linear_2_10295)"/>
<path d="M10.6471 6.52612C11.1273 6.28375 11.2395 5.69579 10.9972 5.34121C10.7548 4.86096 10.1668 4.74876 9.81226 4.99112C9.33201 5.23349 9.2198 5.82146 9.46217 6.17603C9.70454 6.63833 10.1848 6.76849 10.6471 6.52612Z" fill="url(#paint14_linear_2_10295)"/>
<path d="M21.8294 1.88508C22.3096 1.88508 22.7719 1.535 22.7719 0.942543C22.7719 0.462295 22.4219 0 21.8294 0C21.3492 0 20.9991 0.350088 20.8869 0.830336C20.8869 1.40484 21.2369 1.88508 21.8294 1.88508Z" fill="url(#paint15_linear_2_10295)"/>
<path d="M6.41498 10.9239C6.76507 10.5738 6.76507 9.98135 6.41498 9.61331C6.06489 9.26323 5.47244 9.26323 5.1044 9.61331C4.75431 9.9634 4.75431 10.5559 5.1044 10.9239C5.45449 11.2919 6.04694 11.2919 6.41498 10.9239Z" fill="url(#paint16_linear_2_10295)"/>
<path d="M1.88508 28.2444C1.88508 27.7641 1.535 27.3018 0.942543 27.3018C0.462295 27.3018 0 27.6519 0 28.2444C0 28.7246 0.350088 29.0747 0.942543 29.0747C1.535 29.0747 1.88508 28.7246 1.88508 28.2444Z" fill="url(#paint17_linear_2_10295)"/>
<path d="M0.723178 22.7742C1.20343 22.8864 1.66572 22.662 1.79588 22.1818C1.90809 21.7015 1.68367 21.2392 1.20343 21.109C0.723178 20.9968 0.260883 21.2213 0.130723 21.7015C0.0185155 22.0695 0.24293 22.662 0.723178 22.7742Z" fill="url(#paint18_linear_2_10295)"/>
<path d="M2.11303 16.49C2.59328 16.7324 3.05557 16.6022 3.29794 16.1399C3.54031 15.6597 3.41015 15.1974 2.94785 14.955C2.46761 14.7126 2.00531 14.8428 1.76294 15.3051C1.52058 15.7853 1.76294 16.2656 2.11303 16.49Z" fill="url(#paint19_linear_2_10295)"/>
<path d="M5.30384 39.0925C4.82359 39.3348 4.71138 39.9228 4.95375 40.2774C5.19612 40.7576 5.78408 40.8698 6.13866 40.6275C6.61891 40.3851 6.73112 39.7971 6.48875 39.4425C6.24638 38.9623 5.78857 38.8501 5.30384 39.0925Z" fill="url(#paint20_linear_2_10295)"/>
<path d="M3.40432 34.0667C3.29211 33.5865 2.81187 33.3441 2.33162 33.4743C1.85137 33.5865 1.63144 34.0667 1.73916 34.547C1.85137 35.0272 2.33162 35.2696 2.81187 35.1395C3.29211 35.0272 3.6422 34.547 3.40432 34.0667Z" fill="url(#paint21_linear_2_10295)"/>
<defs>
<linearGradient id="paint0_linear_2_10295" x1="24.3051" y1="-9.65444" x2="59.04" y2="24.9952" gradientUnits="userSpaceOnUse">
<stop stop-color="#A8D061"/>
<stop offset="1" stop-color="#219ABB"/>
</linearGradient>
<linearGradient id="paint1_linear_2_10295" x1="23.1243" y1="-8.49575" x2="57.8547" y2="26.1494" gradientUnits="userSpaceOnUse">
<stop stop-color="#A8D061"/>
<stop offset="1" stop-color="#219ABB"/>
</linearGradient>
<linearGradient id="paint2_linear_2_10295" x1="24.2237" y1="-9.61843" x2="58.9541" y2="25.0267" gradientUnits="userSpaceOnUse">
<stop stop-color="#A8D061"/>
<stop offset="1" stop-color="#219ABB"/>
</linearGradient>
<linearGradient id="paint3_linear_2_10295" x1="0.797339" y1="13.9094" x2="35.5277" y2="48.5546" gradientUnits="userSpaceOnUse">
<stop stop-color="#A8D061"/>
<stop offset="1" stop-color="#219ABB"/>
</linearGradient>
<linearGradient id="paint4_linear_2_10295" x1="-3.16192" y1="17.8279" x2="31.5685" y2="52.473" gradientUnits="userSpaceOnUse">
<stop stop-color="#A8D061"/>
<stop offset="1" stop-color="#219ABB"/>
</linearGradient>
<linearGradient id="paint5_linear_2_10295" x1="-6.27101" y1="20.9652" x2="28.4595" y2="55.6104" gradientUnits="userSpaceOnUse">
<stop stop-color="#A8D061"/>
<stop offset="1" stop-color="#219ABB"/>
</linearGradient>
<linearGradient id="paint6_linear_2_10295" x1="-8.51357" y1="23.1911" x2="26.2168" y2="57.8362" gradientUnits="userSpaceOnUse">
<stop stop-color="#A8D061"/>
<stop offset="1" stop-color="#219ABB"/>
</linearGradient>
<linearGradient id="paint7_linear_2_10295" x1="-9.70633" y1="24.4611" x2="25.0241" y2="59.1062" gradientUnits="userSpaceOnUse">
<stop stop-color="#A8D061"/>
<stop offset="1" stop-color="#219ABB"/>
</linearGradient>
<linearGradient id="paint8_linear_2_10295" x1="9.53773" y1="5.11625" x2="44.2726" y2="39.7615" gradientUnits="userSpaceOnUse">
<stop stop-color="#A8D061"/>
<stop offset="1" stop-color="#219ABB"/>
</linearGradient>
<linearGradient id="paint9_linear_2_10295" x1="17.671" y1="-3.04338" x2="52.4014" y2="31.6018" gradientUnits="userSpaceOnUse">
<stop stop-color="#A8D061"/>
<stop offset="1" stop-color="#219ABB"/>
</linearGradient>
<linearGradient id="paint10_linear_2_10295" x1="13.8204" y1="0.798744" x2="48.5508" y2="35.4439" gradientUnits="userSpaceOnUse">
<stop stop-color="#A8D061"/>
<stop offset="1" stop-color="#219ABB"/>
</linearGradient>
<linearGradient id="paint11_linear_2_10295" x1="5.05449" y1="9.63202" x2="39.7849" y2="44.2772" gradientUnits="userSpaceOnUse">
<stop stop-color="#A8D061"/>
<stop offset="1" stop-color="#219ABB"/>
</linearGradient>
<linearGradient id="paint12_linear_2_10295" x1="20.8945" y1="-6.24339" x2="55.6249" y2="28.4018" gradientUnits="userSpaceOnUse">
<stop stop-color="#A8D061"/>
<stop offset="1" stop-color="#219ABB"/>
</linearGradient>
<linearGradient id="paint13_linear_2_10295" x1="13.832" y1="0.803508" x2="48.5624" y2="35.4486" gradientUnits="userSpaceOnUse">
<stop stop-color="#A8D061"/>
<stop offset="1" stop-color="#219ABB"/>
</linearGradient>
<linearGradient id="paint14_linear_2_10295" x1="9.56989" y1="5.09884" x2="44.3003" y2="39.744" gradientUnits="userSpaceOnUse">
<stop stop-color="#A8D061"/>
<stop offset="1" stop-color="#219ABB"/>
</linearGradient>
<linearGradient id="paint15_linear_2_10295" x1="17.7765" y1="-3.11039" x2="52.5069" y2="31.5392" gradientUnits="userSpaceOnUse">
<stop stop-color="#A8D061"/>
<stop offset="1" stop-color="#219ABB"/>
</linearGradient>
<linearGradient id="paint16_linear_2_10295" x1="5.09991" y1="9.60882" x2="39.8303" y2="44.2585" gradientUnits="userSpaceOnUse">
<stop stop-color="#A8D061"/>
<stop offset="1" stop-color="#219ABB"/>
</linearGradient>
<linearGradient id="paint17_linear_2_10295" x1="-6.30606" y1="20.9823" x2="28.4244" y2="55.6319" gradientUnits="userSpaceOnUse">
<stop stop-color="#A8D061"/>
<stop offset="1" stop-color="#219ABB"/>
</linearGradient>
<linearGradient id="paint18_linear_2_10295" x1="-3.14124" y1="17.8416" x2="31.5892" y2="52.4867" gradientUnits="userSpaceOnUse">
<stop stop-color="#A8D061"/>
<stop offset="1" stop-color="#219ABB"/>
</linearGradient>
<linearGradient id="paint19_linear_2_10295" x1="0.748589" y1="13.9272" x2="35.479" y2="48.5723" gradientUnits="userSpaceOnUse">
<stop stop-color="#A8D061"/>
<stop offset="1" stop-color="#219ABB"/>
</linearGradient>
<linearGradient id="paint20_linear_2_10295" x1="-9.73196" y1="24.4382" x2="24.9985" y2="59.0833" gradientUnits="userSpaceOnUse">
<stop stop-color="#A8D061"/>
<stop offset="1" stop-color="#219ABB"/>
</linearGradient>
<linearGradient id="paint21_linear_2_10295" x1="-8.54352" y1="23.2185" x2="26.1869" y2="57.8637" gradientUnits="userSpaceOnUse">
<stop stop-color="#A8D061"/>
<stop offset="1" stop-color="#219ABB"/>
</linearGradient>
</defs>
</svg>
