<svg width="50" height="50" viewBox="0 0 50 50" fill="none" xmlns="http://www.w3.org/2000/svg">
<path d="M44.2681 10.9937C44.745 10.753 44.8564 10.1692 44.6157 9.81714C44.3751 9.34028 43.7913 9.22887 43.4392 9.46953C42.9624 9.71018 42.8509 10.294 43.0916 10.6461C43.3323 11.1051 43.9161 11.3413 44.2681 10.9937Z" fill="url(#paint0_linear_2_10322)"/>
<path d="M33.5319 3.43157C34.0087 3.67222 34.4678 3.54298 34.7084 3.08396C34.9491 2.6071 34.8198 2.14808 34.3608 1.90742C33.884 1.66677 33.4249 1.79601 33.1843 2.25503C32.9436 2.71406 33.0729 3.19091 33.5319 3.43157Z" fill="url(#paint1_linear_2_10322)"/>
<path d="M39.9937 6.49709C40.3413 6.14948 40.3413 5.56121 39.9937 5.19577C39.6461 4.84816 39.0578 4.84816 38.6924 5.19577C38.3447 5.54338 38.3447 6.13165 38.6924 6.49709C39.04 6.86253 39.6461 6.8447 39.9937 6.49709Z" fill="url(#paint2_linear_2_10322)"/>
<path d="M34.9603 46.9857C34.8489 46.5088 34.3721 46.2682 33.8952 46.3974C33.4184 46.5088 33.2 46.9857 33.307 47.4625C33.4184 47.9394 33.8952 48.18 34.3721 48.0508C34.7197 47.9216 35.0896 47.4625 34.9603 46.9857Z" fill="url(#paint3_linear_2_10322)"/>
<path d="M27.9896 47.9214C27.5127 47.9214 27.0537 48.269 27.0537 48.8573C27.0537 49.3341 27.4013 49.7931 27.9896 49.7931C28.4664 49.7931 28.9255 49.4455 28.9255 48.8573C28.7962 48.3804 28.4486 47.9214 27.9896 47.9214Z" fill="url(#paint4_linear_2_10322)"/>
<path d="M21.9879 48.0502C21.511 47.9388 21.052 48.1616 20.9228 48.6385C20.8114 49.1153 21.0342 49.5744 21.511 49.7036C21.9879 49.8328 22.4469 49.5922 22.5762 49.1153C22.7054 48.6385 22.4647 48.1616 21.9879 48.0502Z" fill="url(#paint5_linear_2_10322)"/>
<path d="M16.1157 46.4855C15.6388 46.2449 15.1798 46.3741 14.9392 46.8332C14.6985 47.31 14.8277 47.769 15.2868 48.0097C15.7636 48.2503 16.2227 48.1211 16.4633 47.6621C16.704 47.1852 16.4633 46.7084 16.1157 46.4855Z" fill="url(#paint6_linear_2_10322)"/>
<path d="M9.54782 43.5717C9.20021 43.9194 9.20021 44.5076 9.54782 44.8731C9.89543 45.2207 10.4837 45.2207 10.8491 44.8731C11.1968 44.5255 11.1968 43.9372 10.8491 43.5717C10.4837 43.2241 9.89543 43.2241 9.54782 43.5717Z" fill="url(#paint7_linear_2_10322)"/>
<path d="M43.2959 38.9633C42.9483 39.311 42.9483 39.8992 43.2959 40.2647C43.6435 40.6123 44.2318 40.6123 44.5972 40.2647C44.9448 39.9171 44.9448 39.3288 44.5972 38.9633C44.1203 38.6157 43.6435 38.6157 43.2959 38.9633Z" fill="url(#paint8_linear_2_10322)"/>
<path d="M48.818 27.2738C48.3411 27.1624 47.8821 27.3853 47.7528 27.8621C47.6414 28.339 47.8643 28.798 48.3411 28.9272C48.818 29.0386 49.277 28.8158 49.4062 28.339C49.6469 27.8621 49.2948 27.4031 48.818 27.2738Z" fill="url(#paint9_linear_2_10322)"/>
<path d="M47.4233 33.383C46.9465 33.1424 46.4874 33.2716 46.2468 33.7306C46.0061 34.2075 46.1354 34.6665 46.5944 34.9072C47.0712 35.1478 47.5303 35.0186 47.7709 34.5595C48.0116 34.0827 47.8823 33.6237 47.4233 33.383Z" fill="url(#paint10_linear_2_10322)"/>
<path d="M39.0759 43.3304C38.5991 43.571 38.4877 44.1548 38.7283 44.5069C38.969 44.9838 39.5528 45.0952 39.9049 44.8545C40.3817 44.6139 40.4931 44.03 40.2525 43.678C40.0118 43.2011 39.428 43.0897 39.0759 43.3304Z" fill="url(#paint11_linear_2_10322)"/>
<path d="M27.659 1.91112C28.1359 2.02253 28.5949 1.7997 28.7241 1.32285C28.8356 0.845997 28.6127 0.38697 28.1359 0.257729C27.659 0.146314 27.2 0.369143 27.0707 0.845997C26.9415 1.30502 27.1822 1.78188 27.659 1.91112Z" fill="url(#paint12_linear_2_10322)"/>
<path d="M14.6879 2.95423C14.7994 3.43108 15.2762 3.67174 15.7531 3.5425C16.2299 3.43108 16.4483 2.95423 16.3413 2.47738C16.2299 2.00052 15.7531 1.75987 15.2762 1.88911C14.7994 2.01835 14.5587 2.4952 14.6879 2.95423Z" fill="url(#paint13_linear_2_10322)"/>
<path d="M10.5718 6.62649C11.0487 6.38583 11.1601 5.80202 10.9195 5.44995C10.6788 4.9731 10.095 4.86168 9.74292 5.10234C9.26607 5.34299 9.15465 5.92681 9.39531 6.27887C9.63596 6.7379 10.1128 6.86714 10.5718 6.62649Z" fill="url(#paint14_linear_2_10322)"/>
<path d="M21.6751 2.01825C22.152 2.01825 22.611 1.67063 22.611 1.08237C22.611 0.605513 22.2634 0.146484 21.6751 0.146484C21.1983 0.146484 20.8507 0.494098 20.7393 0.970952C20.7393 1.54139 21.0869 2.01825 21.6751 2.01825Z" fill="url(#paint15_linear_2_10322)"/>
<path d="M6.36965 10.9932C6.71726 10.6456 6.71726 10.0573 6.36965 9.69186C6.02203 9.34425 5.43377 9.34425 5.06833 9.69186C4.72071 10.0395 4.72071 10.6277 5.06833 10.9932C5.41594 11.3586 6.00421 11.3586 6.36965 10.9932Z" fill="url(#paint16_linear_2_10322)"/>
<path d="M1.87176 28.1913C1.87176 27.7144 1.52415 27.2554 0.935882 27.2554C0.459028 27.2554 0 27.603 0 28.1913C0 28.6681 0.347614 29.0157 0.935882 29.0157C1.52415 29.0157 1.87176 28.6681 1.87176 28.1913Z" fill="url(#paint17_linear_2_10322)"/>
<path d="M0.718067 22.7598C1.19492 22.8712 1.65395 22.6483 1.78319 22.1715C1.8946 21.6946 1.67177 21.2356 1.19492 21.1064C0.718067 20.9949 0.25904 21.2178 0.129799 21.6946C0.0183847 22.0601 0.241213 22.6483 0.718067 22.7598Z" fill="url(#paint18_linear_2_10322)"/>
<path d="M2.0981 16.5204C2.57495 16.7611 3.03398 16.6319 3.27463 16.1728C3.51529 15.696 3.38605 15.2369 2.92702 14.9963C2.45017 14.7556 1.99114 14.8849 1.75048 15.3439C1.50983 15.8208 1.75048 16.2976 2.0981 16.5204Z" fill="url(#paint19_linear_2_10322)"/>
<path d="M5.26636 38.9627C4.7895 39.2033 4.67809 39.7872 4.91874 40.1392C5.1594 40.6161 5.74321 40.7275 6.09528 40.4868C6.57213 40.2462 6.68355 39.6624 6.44289 39.3103C6.20224 38.8334 5.74767 38.722 5.26636 38.9627Z" fill="url(#paint20_linear_2_10322)"/>
<path d="M3.38026 33.972C3.26885 33.4952 2.792 33.2545 2.31514 33.3837C1.83829 33.4952 1.61992 33.972 1.72687 34.4489C1.83829 34.9257 2.31514 35.1664 2.792 35.0371C3.26885 34.9257 3.61646 34.4489 3.38026 33.972Z" fill="url(#paint21_linear_2_10322)"/>
<defs>
<linearGradient id="paint0_linear_2_10322" x1="24.1333" y1="-9.43973" x2="58.6228" y2="24.965" gradientUnits="userSpaceOnUse">
<stop stop-color="#A8D061"/>
<stop offset="1" stop-color="#219ABB"/>
</linearGradient>
<linearGradient id="paint1_linear_2_10322" x1="22.9609" y1="-8.28922" x2="57.4459" y2="26.1111" gradientUnits="userSpaceOnUse">
<stop stop-color="#A8D061"/>
<stop offset="1" stop-color="#219ABB"/>
</linearGradient>
<linearGradient id="paint2_linear_2_10322" x1="24.0525" y1="-9.40397" x2="58.5375" y2="24.9963" gradientUnits="userSpaceOnUse">
<stop stop-color="#A8D061"/>
<stop offset="1" stop-color="#219ABB"/>
</linearGradient>
<linearGradient id="paint3_linear_2_10322" x1="0.791704" y1="13.958" x2="35.2766" y2="48.3584" gradientUnits="userSpaceOnUse">
<stop stop-color="#A8D061"/>
<stop offset="1" stop-color="#219ABB"/>
</linearGradient>
<linearGradient id="paint4_linear_2_10322" x1="-3.13958" y1="17.8484" x2="31.3454" y2="52.2487" gradientUnits="userSpaceOnUse">
<stop stop-color="#A8D061"/>
<stop offset="1" stop-color="#219ABB"/>
</linearGradient>
<linearGradient id="paint5_linear_2_10322" x1="-6.22669" y1="20.9631" x2="28.2584" y2="55.3634" gradientUnits="userSpaceOnUse">
<stop stop-color="#A8D061"/>
<stop offset="1" stop-color="#219ABB"/>
</linearGradient>
<linearGradient id="paint6_linear_2_10322" x1="-8.45341" y1="23.1732" x2="26.0316" y2="57.5735" gradientUnits="userSpaceOnUse">
<stop stop-color="#A8D061"/>
<stop offset="1" stop-color="#219ABB"/>
</linearGradient>
<linearGradient id="paint7_linear_2_10322" x1="-9.63774" y1="24.4352" x2="24.8472" y2="58.8355" gradientUnits="userSpaceOnUse">
<stop stop-color="#A8D061"/>
<stop offset="1" stop-color="#219ABB"/>
</linearGradient>
<linearGradient id="paint8_linear_2_10322" x1="9.47033" y1="5.22707" x2="43.9598" y2="39.6275" gradientUnits="userSpaceOnUse">
<stop stop-color="#A8D061"/>
<stop offset="1" stop-color="#219ABB"/>
</linearGradient>
<linearGradient id="paint9_linear_2_10322" x1="17.5461" y1="-2.8749" x2="52.0311" y2="31.5255" gradientUnits="userSpaceOnUse">
<stop stop-color="#A8D061"/>
<stop offset="1" stop-color="#219ABB"/>
</linearGradient>
<linearGradient id="paint10_linear_2_10322" x1="13.7227" y1="0.939096" x2="48.2077" y2="35.3394" gradientUnits="userSpaceOnUse">
<stop stop-color="#A8D061"/>
<stop offset="1" stop-color="#219ABB"/>
</linearGradient>
<linearGradient id="paint11_linear_2_10322" x1="5.01877" y1="9.70995" x2="39.5038" y2="44.1103" gradientUnits="userSpaceOnUse">
<stop stop-color="#A8D061"/>
<stop offset="1" stop-color="#219ABB"/>
</linearGradient>
<linearGradient id="paint12_linear_2_10322" x1="20.7469" y1="-6.05278" x2="55.2318" y2="28.3476" gradientUnits="userSpaceOnUse">
<stop stop-color="#A8D061"/>
<stop offset="1" stop-color="#219ABB"/>
</linearGradient>
<linearGradient id="paint13_linear_2_10322" x1="13.7342" y1="0.944314" x2="48.2192" y2="35.3446" gradientUnits="userSpaceOnUse">
<stop stop-color="#A8D061"/>
<stop offset="1" stop-color="#219ABB"/>
</linearGradient>
<linearGradient id="paint14_linear_2_10322" x1="9.50226" y1="5.2093" x2="43.9873" y2="39.6096" gradientUnits="userSpaceOnUse">
<stop stop-color="#A8D061"/>
<stop offset="1" stop-color="#219ABB"/>
</linearGradient>
<linearGradient id="paint15_linear_2_10322" x1="17.6509" y1="-2.94193" x2="52.1359" y2="31.4628" gradientUnits="userSpaceOnUse">
<stop stop-color="#A8D061"/>
<stop offset="1" stop-color="#219ABB"/>
</linearGradient>
<linearGradient id="paint16_linear_2_10322" x1="5.06387" y1="9.68741" x2="39.5489" y2="44.0922" gradientUnits="userSpaceOnUse">
<stop stop-color="#A8D061"/>
<stop offset="1" stop-color="#219ABB"/>
</linearGradient>
<linearGradient id="paint17_linear_2_10322" x1="-6.26149" y1="20.9805" x2="28.2235" y2="55.3853" gradientUnits="userSpaceOnUse">
<stop stop-color="#A8D061"/>
<stop offset="1" stop-color="#219ABB"/>
</linearGradient>
<linearGradient id="paint18_linear_2_10322" x1="-3.11904" y1="17.862" x2="31.3659" y2="52.2623" gradientUnits="userSpaceOnUse">
<stop stop-color="#A8D061"/>
<stop offset="1" stop-color="#219ABB"/>
</linearGradient>
<linearGradient id="paint19_linear_2_10322" x1="0.743299" y1="13.9757" x2="35.2283" y2="48.376" gradientUnits="userSpaceOnUse">
<stop stop-color="#A8D061"/>
<stop offset="1" stop-color="#219ABB"/>
</linearGradient>
<linearGradient id="paint20_linear_2_10322" x1="-9.66318" y1="24.412" x2="24.8218" y2="58.8123" gradientUnits="userSpaceOnUse">
<stop stop-color="#A8D061"/>
<stop offset="1" stop-color="#219ABB"/>
</linearGradient>
<linearGradient id="paint21_linear_2_10322" x1="-8.48314" y1="23.2005" x2="26.0018" y2="57.6008" gradientUnits="userSpaceOnUse">
<stop stop-color="#A8D061"/>
<stop offset="1" stop-color="#219ABB"/>
</linearGradient>
</defs>
</svg>
