<svg width="70" height="71" viewBox="0 0 70 71" fill="none" xmlns="http://www.w3.org/2000/svg">
<g clip-path="url(#clip0_6530_17307)">
<g clip-path="url(#clip1_6530_17307)">
<path d="M35.5235 53.0145L13.3105 43.5264L35.4925 69.6467L38.8311 65.7204V51.602L35.5235 53.0145Z" fill="#708299"/>
<path d="M35.5046 -0.345703L10 39.6489H60.9876L35.5046 -0.345703Z" fill="#708299"/>
<path d="M60.9988 39.711L35.4941 -0.342773V39.711H60.9988Z" fill="#68788E"/>
<path d="M35.508 28.7749L35.4074 28.731L10.0215 39.6709H10.0447L35.4306 50.6109L35.5312 50.5669L38.845 49.1514V30.2071L35.508 28.7749Z" fill="#3C3C47"/>
<path d="M35.5247 53.0146L35.5 69.6468L57.7129 43.5068L35.5247 53.0146Z" fill="#68788E"/>
<path d="M60.9515 39.6786L35.5068 28.772L35.4062 28.728L35.4295 50.6049L35.53 50.5609L60.9717 39.668L60.9515 39.6786Z" fill="#31313B"/>
</g>
</g>
<defs>
<clipPath id="clip0_6530_17307">
<rect width="70" height="70" fill="white" transform="translate(0 0.146484)"/>
</clipPath>
<clipPath id="clip1_6530_17307">
<rect width="51" height="70" fill="white" transform="translate(10 -0.353516)"/>
</clipPath>
</defs>
</svg>
