<svg width="18" height="18" viewBox="0 0 18 18" fill="none" xmlns="http://www.w3.org/2000/svg">
<g clip-path="url(#clip0_5073_107338)">
<path d="M6.75 10.6875C7.26777 10.6875 7.6875 10.2678 7.6875 9.75C7.6875 9.23223 7.26777 8.8125 6.75 8.8125C6.23223 8.8125 5.8125 9.23223 5.8125 9.75C5.8125 10.2678 6.23223 10.6875 6.75 10.6875Z" fill="#8E1BF4"/>
<path d="M15.5775 6.435L14.8875 7.9425C14.955 8.2875 15 8.64 15 9C15 12.3075 12.3075 15 9 15C5.6925 15 3 12.3075 3 9C3 8.9625 3.0075 8.925 3 8.895C4.95 8.16 6.5175 6.6525 7.305 4.7325C8.685 6.42 10.7775 7.5 13.125 7.5C13.4625 7.5 13.7925 7.47 14.1225 7.425L13.6725 6.435L13.0125 4.9875L11.565 4.3275L9.4725 3.375L11.565 2.4225L12.0975 2.1825C11.1525 1.7475 10.1025 1.5 9 1.5C4.86 1.5 1.5 4.86 1.5 9C1.5 13.14 4.86 16.5 9 16.5C13.14 16.5 16.5 13.14 16.5 9C16.5 7.8975 16.2525 6.8475 15.825 5.9025L15.5775 6.435Z" fill="#8E1BF4"/>
<path d="M11.25 10.6875C11.7678 10.6875 12.1875 10.2678 12.1875 9.75C12.1875 9.23223 11.7678 8.8125 11.25 8.8125C10.7322 8.8125 10.3125 9.23223 10.3125 9.75C10.3125 10.2678 10.7322 10.6875 11.25 10.6875Z" fill="#8E1BF4"/>
<path d="M15.45 4.2L14.625 6L13.8 4.2L12 3.375L13.8 2.55L14.625 0.75L15.45 2.55L17.25 3.375L15.45 4.2Z" fill="#8E1BF4"/>
</g>
<defs>
<clipPath id="clip0_5073_107338">
<rect width="18" height="18" fill="white"/>
</clipPath>
</defs>
</svg>
