<svg width="550" height="202" viewBox="0 0 550 202" fill="none" xmlns="http://www.w3.org/2000/svg">
<path d="M416.108 99.952C410.48 90.1689 399.316 87.3079 389.536 92.9377C379.756 98.5676 376.988 109.735 382.524 119.61C388.152 129.393 399.316 132.255 409.096 126.625C418.876 120.995 421.644 108.351 416.108 99.952Z" fill="#EEF5F5"/>
<path d="M398.119 78.9091C405.131 71.8948 405.131 62.1117 398.119 55.0975C391.107 48.0832 381.327 49.4676 375.699 55.0975C368.686 62.1117 368.686 71.8948 375.699 78.9091C381.327 84.539 392.491 84.539 398.119 78.9091Z" fill="#EEF5F5"/>
<path d="M361.484 69.958C354.472 62.9437 341.924 62.9437 334.911 69.958C327.899 76.9722 327.899 89.6164 334.911 98.0151C341.924 105.029 354.472 105.029 362.868 98.0151C368.496 89.6164 368.496 76.9722 361.484 69.958Z" fill="#EEF5F5"/>
<path d="M348.112 112.229C336.948 117.859 334.088 131.888 339.716 143.055C345.344 154.315 359.276 157.084 370.532 151.454C381.697 145.824 384.557 131.796 378.929 120.628C371.916 110.845 359.368 106.6 348.112 112.229Z" fill="#EEF5F5"/>
<path d="M286.2 123.767C291.828 112.507 288.968 99.9554 277.804 92.9412C266.64 87.3113 253.999 90.1724 246.987 101.34C241.359 112.6 244.219 125.151 255.383 132.166C265.163 137.796 279.188 134.934 286.2 123.767Z" fill="#EEF5F5"/>
<path d="M418.876 152.746C416.108 141.487 403.468 133.088 390.92 137.334C379.755 140.102 371.359 152.746 375.511 164.006C378.279 175.266 390.92 183.665 402.084 179.419C416.108 178.035 423.028 165.391 418.876 152.746Z" fill="#EEF5F5"/>
<path d="M457.257 196.214C457.257 207.474 465.653 215.873 476.817 215.873C487.981 215.873 496.377 207.474 496.377 196.214C496.377 184.954 487.981 176.556 476.817 176.556C465.653 176.556 457.257 184.954 457.257 196.214Z" fill="#EEF5F5"/>
<path d="M501.917 148.778C499.149 140.379 490.753 134.749 482.356 137.518C473.96 140.287 468.332 148.778 471.192 157.176C473.96 165.575 482.356 171.205 490.753 168.436C499.149 167.052 504.777 157.176 501.917 148.778Z" fill="#EEF5F5"/>
<path d="M532.268 211.906C532.268 203.507 525.256 195.108 515.476 195.108C507.08 195.108 498.684 202.123 498.684 211.906C498.684 221.689 505.696 228.703 515.476 228.703C525.256 228.703 532.268 221.689 532.268 211.906Z" fill="#EEF5F5"/>
<path d="M504.225 171.201C505.609 178.215 514.005 182.461 521.017 180.984C528.029 179.6 532.181 171.201 530.797 164.187C529.413 157.173 521.017 152.927 514.005 154.404C506.993 155.881 502.841 164.187 504.225 171.201Z" fill="#EEF5F5"/>
<path d="M449.69 118.135C458.086 113.89 460.854 104.107 455.318 95.7079C451.166 87.3093 441.294 85.9249 432.898 90.0781C424.502 94.3235 421.734 104.107 427.27 112.505C432.898 119.52 442.678 122.288 449.69 118.135Z" fill="#EEF5F5"/>
<path d="M438.989 129.395C429.209 132.164 422.197 143.424 424.965 153.207C427.733 162.99 438.989 170.004 448.769 167.235C458.549 164.466 465.561 153.207 462.793 143.424C460.025 132.164 450.245 126.626 438.989 129.395Z" fill="#EEF5F5"/>
<path d="M483.372 120.627C490.384 116.382 491.768 107.983 489 102.353C484.848 95.3389 477.836 93.9545 470.824 98.1077C463.812 102.353 462.428 110.752 465.196 116.382C467.964 122.012 476.36 124.78 483.372 120.627Z" fill="#EEF5F5"/>
<path d="M507.453 129.303C513.082 126.535 514.466 119.52 511.605 115.275C508.837 109.645 501.825 108.261 497.581 111.029C491.953 113.798 490.569 120.812 493.429 125.058C496.197 130.688 503.209 133.457 507.453 129.303Z" fill="#EEF5F5"/>
<path d="M380.034 39.3162C385.662 42.085 391.198 40.7006 394.058 35.0707C396.826 29.4408 395.442 23.8109 389.906 21.0421C384.278 18.2733 378.742 19.6577 375.882 25.2876C373.114 30.9175 374.498 36.5474 380.034 39.3162Z" fill="#EEF5F5"/>
<path d="M456.702 75.7738C460.854 71.5283 460.854 64.5141 456.702 60.3609C452.55 56.1154 445.538 56.1154 441.294 60.3609C437.142 64.6063 437.142 71.6206 441.294 75.7738C445.446 80.0193 452.458 80.0193 456.702 75.7738Z" fill="#EEF5F5"/>
<path d="M431.608 73.0039C437.237 67.374 437.237 58.9753 431.608 53.3455C425.98 47.7156 417.584 47.7156 413.432 53.3455C407.804 58.9753 407.804 67.374 413.432 73.0039C417.584 78.6337 425.98 78.6337 431.608 73.0039Z" fill="#EEF5F5"/>
<path d="M529.966 187.817C531.349 193.447 536.978 196.215 542.514 194.831C548.05 193.447 550.91 187.817 549.526 182.187C548.142 176.557 542.514 173.788 536.978 175.173C531.349 176.557 528.582 182.187 529.966 187.817Z" fill="#EEF5F5"/>
<path d="M429.026 172.588C416.478 172.588 406.605 182.371 406.605 195.015C406.605 207.659 416.386 217.442 429.026 217.442C441.666 217.442 451.446 207.659 451.446 195.015C451.446 182.371 441.666 172.588 429.026 172.588Z" fill="#EEF5F5"/>
<path d="M73.8088 181.358C79.437 191.142 90.6012 194.003 100.381 188.373C110.161 182.743 112.929 171.575 107.393 161.7C101.765 151.917 90.6012 149.056 80.821 154.686C72.4249 160.316 68.2729 171.483 73.8088 181.358Z" fill="#EEF5F5"/>
<path d="M175.847 164.375C188.395 164.375 198.268 154.592 198.268 141.948C198.268 129.304 188.488 119.521 175.847 119.521C163.207 119.521 153.427 129.304 153.427 141.948C154.811 154.592 164.591 164.375 175.847 164.375Z" fill="#EEF5F5"/>
<path d="M101.579 193.909C90.4145 199.539 87.5543 213.567 93.1825 224.735C98.8107 235.995 112.743 238.763 123.999 233.134C135.163 227.504 138.024 213.475 132.395 202.308C126.767 191.048 112.835 186.895 101.579 193.909Z" fill="#EEF5F5"/>
<path d="M133.779 151.822C122.615 154.59 114.219 167.235 118.371 178.494C121.139 189.754 133.779 198.153 144.943 193.907C156.107 191.138 164.503 178.494 160.351 167.235C158.967 155.975 146.327 148.961 133.779 151.822Z" fill="#EEF5F5"/>
<path d="M198.177 115.365C195.409 126.625 202.329 139.177 213.585 142.038C224.75 144.807 237.39 137.793 240.158 126.625C242.926 115.365 235.914 102.813 224.75 99.9524C213.585 97.1836 200.945 104.198 198.177 115.365Z" fill="#EEF5F5"/>
<path d="M213.402 70.3281C210.634 80.1112 216.17 91.3709 227.426 94.1397C237.206 96.9085 248.37 91.3709 251.231 80.1112C253.999 70.3281 248.463 59.0684 237.206 56.2996C227.426 54.9152 216.262 60.545 213.402 70.3281Z" fill="#EEF5F5"/>
<path d="M177.051 113.797C188.215 113.797 196.611 105.399 196.611 94.1389C196.611 82.8791 188.215 74.4805 177.051 74.4805C165.886 74.4805 157.49 82.8791 157.49 94.1389C157.49 105.399 165.886 113.797 177.051 113.797Z" fill="#EEF5F5"/>
<path d="M298.466 100.878C290.07 109.277 290.07 123.306 298.466 131.704C306.862 140.103 320.887 140.103 329.283 131.704C337.679 123.306 337.679 109.277 329.283 100.878C320.887 91.0953 306.862 91.0953 298.466 100.878Z" fill="#EEF5F5"/>
<path d="M310.091 21.2305C315.719 22.6149 321.255 19.8461 322.639 14.2162C324.023 8.58633 321.255 2.95645 315.627 1.57205C309.999 0.187657 304.463 2.95645 303.079 8.58633C301.695 14.2162 304.463 19.8461 310.091 21.2305Z" fill="#EEF5F5"/>
<path d="M155.826 33.8734C157.21 39.5033 162.838 42.2721 168.374 40.8877C174.002 39.5033 176.77 33.8734 175.386 28.2435C174.002 22.6137 168.374 19.8449 162.838 21.2293C157.302 22.6137 154.442 28.2436 155.826 33.8734Z" fill="#EEF5F5"/>
<path d="M177.138 55.0044C177.138 63.403 184.15 71.8017 193.93 71.8017C203.71 71.8017 210.722 64.7874 210.722 55.0044C210.722 45.2213 203.71 38.207 193.93 38.207C184.15 39.5914 177.138 46.6057 177.138 55.0044Z" fill="#EEF5F5"/>
<path d="M152.136 66.2655C159.149 64.8811 163.301 56.4824 161.917 49.4681C160.533 42.4539 152.136 38.2084 145.124 39.6851C138.112 41.0695 133.96 49.4681 135.344 56.4824C138.112 63.4967 145.124 67.7422 152.136 66.2655Z" fill="#EEF5F5"/>
<path d="M214.786 41.9926C221.798 41.9926 228.81 36.3628 228.81 27.9641C228.81 19.5654 223.182 13.9355 214.786 13.9355C207.774 13.9355 200.762 19.5654 200.762 27.9641C202.146 34.9784 207.774 41.9926 214.786 41.9926Z" fill="#EEF5F5"/>
<path d="M97.426 106.968C104.438 102.722 105.822 94.3237 103.054 88.6938C100.286 83.0639 90.5061 80.2951 84.8779 83.0639C77.8657 87.3094 76.4817 94.3237 79.2497 101.338C82.0176 108.352 90.4138 109.737 97.426 106.968Z" fill="#EEF5F5"/>
<path d="M117.996 89.7085C120.764 98.1071 129.16 103.737 137.556 100.968C145.952 98.1994 151.581 89.7085 148.72 81.3098C145.952 72.9111 137.556 67.2813 129.16 70.0501C120.764 71.4344 115.136 79.8331 117.996 89.7085Z" fill="#EEF5F5"/>
<path d="M110.066 131.888C112.834 141.671 124.09 148.685 133.871 145.916C143.651 143.147 150.663 131.888 147.895 122.105C145.127 112.322 133.871 105.307 124.09 108.076C114.31 110.845 107.298 122.105 110.066 131.888Z" fill="#EEF5F5"/>
<path d="M107.024 77.4324C112.652 74.6636 114.036 67.6493 111.176 63.4038C108.408 57.7739 101.396 56.3895 97.1513 59.1583C91.5231 61.9271 90.1391 68.9414 92.9994 73.1869C95.7673 78.8168 101.396 80.2012 107.024 77.4324Z" fill="#EEF5F5"/>
<path d="M350.413 44.9459C357.425 49.1914 364.437 46.3303 368.589 39.3161C372.741 32.3018 369.973 25.2875 362.961 21.042C355.949 16.7966 348.937 19.6576 344.785 26.6719C342.017 33.6862 343.401 42.0849 350.413 44.9459Z" fill="#EEF5F5"/>
<path d="M273.376 61.5591C267.748 71.3422 270.608 82.6019 280.389 88.2318C290.169 93.8617 301.333 91.0006 306.961 81.2175C312.589 71.4345 309.729 60.1747 299.949 54.5448C290.169 48.915 279.005 53.1604 273.376 61.5591Z" fill="#EEF5F5"/>
<path d="M310.001 38.0262C305.757 46.4249 308.617 56.3002 315.63 60.4534C324.026 64.6989 333.806 61.8378 338.05 54.8235C342.202 46.4249 339.434 36.5495 332.422 32.3963C324.026 26.7664 314.246 29.6275 310.001 38.0262Z" fill="#EEF5F5"/>
<path d="M238.961 22.5195C244.589 22.5195 250.125 18.274 250.125 11.2597C250.125 5.62987 245.973 0 238.961 0C233.333 0 229.181 4.24548 227.797 9.78306C227.797 16.7973 232.041 22.4272 238.961 22.4272V22.5195Z" fill="#EEF5F5"/>
<path d="M241.632 38.0259C238.864 46.4245 244.4 56.2999 252.796 57.6843C261.192 60.4531 270.972 54.9155 272.356 46.4245C275.124 38.0258 269.588 28.1505 261.192 26.7661C252.796 23.9973 244.4 29.5349 241.632 38.0259Z" fill="#EEF5F5"/>
<path d="M283.158 35.072C290.17 36.4564 297.182 32.3032 299.95 25.289C301.334 18.2747 297.182 11.2604 290.17 8.49162C283.158 7.10722 276.146 11.2604 273.378 18.2747C270.61 25.2889 274.762 32.3032 283.158 35.072Z" fill="#EEF5F5"/>
<path d="M56.9217 129.394C61.0737 125.148 61.0737 118.134 56.9217 113.981C52.7698 109.736 45.7576 109.736 41.5134 113.981C37.3614 118.226 37.3614 125.241 41.5134 129.394C45.6653 133.639 52.6775 133.639 56.9217 129.394Z" fill="#EEF5F5"/>
<path d="M6.26613 195.109C11.8943 197.878 17.4303 196.494 20.2905 190.864C23.0584 185.234 21.6745 179.604 16.1385 176.835C10.6026 174.066 4.97442 175.451 2.11419 181.081C-0.653773 186.71 2.11419 192.34 6.26613 195.109Z" fill="#EEF5F5"/>
<path d="M35.7884 172.775C28.7763 179.789 28.7763 189.572 35.7884 196.587C42.8006 203.601 52.5807 203.601 59.5929 196.587C66.6051 189.572 66.6051 179.789 59.5929 172.775C52.5807 167.145 42.8006 167.145 35.7884 172.775Z" fill="#EEF5F5"/>
<path d="M53.6027 158.93C59.2309 153.3 59.2309 144.901 53.6027 139.271C47.9745 133.641 39.5784 133.641 34.0424 139.271C28.4142 144.901 28.4142 153.3 34.0424 158.93C39.6706 164.56 48.0668 164.56 53.6027 158.93Z" fill="#EEF5F5"/>
<path d="M91.9793 142.962C100.375 138.717 103.143 128.934 97.6075 120.535C93.3633 112.136 83.5832 109.275 75.187 114.905C66.7909 119.151 65.4069 128.934 69.5588 137.332C75.187 144.347 84.9672 147.115 91.9793 142.962Z" fill="#EEF5F5"/>
</svg>
