<svg width="550" height="202" viewBox="0 0 550 202" fill="none" xmlns="http://www.w3.org/2000/svg">
<path d="M416.109 99.952C410.481 90.1689 399.317 87.3079 389.537 92.9377C379.757 98.5676 376.989 109.735 382.525 119.61C388.153 129.393 399.317 132.255 409.097 126.625C418.877 120.995 421.645 108.351 416.109 99.952Z" fill="#393648"/>
<path d="M398.117 78.9091C405.129 71.8948 405.129 62.1117 398.117 55.0975C391.105 48.0832 381.325 49.4676 375.697 55.0975C368.684 62.1117 368.684 71.8948 375.697 78.9091C381.325 84.539 392.489 84.539 398.117 78.9091Z" fill="#393648"/>
<path d="M361.484 69.958C354.472 62.9437 341.924 62.9437 334.911 69.958C327.899 76.9722 327.899 89.6164 334.911 98.0151C341.924 105.029 354.472 105.029 362.868 98.0151C368.496 89.6164 368.496 76.9722 361.484 69.958Z" fill="#393648"/>
<path d="M348.112 112.229C336.948 117.859 334.088 131.888 339.716 143.055C345.344 154.315 359.276 157.084 370.532 151.454C381.697 145.824 384.557 131.796 378.929 120.628C371.916 110.845 359.368 106.6 348.112 112.229Z" fill="#393648"/>
<path d="M286.202 123.767C291.83 112.507 288.97 99.9554 277.806 92.9412C266.642 87.3113 254.001 90.1724 246.989 101.34C241.361 112.6 244.221 125.151 255.385 132.166C265.165 137.796 279.19 134.934 286.202 123.767Z" fill="#393648"/>
<path d="M418.878 152.746C416.11 141.487 403.47 133.088 390.922 137.334C379.757 140.102 371.361 152.746 375.513 164.006C378.281 175.266 390.922 183.665 402.086 179.419C416.11 178.035 423.03 165.391 418.878 152.746Z" fill="#393648"/>
<path d="M457.258 196.214C457.258 207.474 465.654 215.873 476.818 215.873C487.982 215.873 496.378 207.474 496.378 196.214C496.378 184.954 487.982 176.556 476.818 176.556C465.654 176.556 457.258 184.954 457.258 196.214Z" fill="#393648"/>
<path d="M501.915 148.778C499.147 140.379 490.751 134.749 482.354 137.518C473.958 140.287 468.33 148.778 471.19 157.176C473.958 165.575 482.354 171.205 490.751 168.436C499.147 167.052 504.775 157.176 501.915 148.778Z" fill="#393648"/>
<path d="M532.268 211.906C532.268 203.507 525.256 195.108 515.476 195.108C507.08 195.108 498.684 202.123 498.684 211.906C498.684 221.689 505.696 228.703 515.476 228.703C525.256 228.703 532.268 221.689 532.268 211.906Z" fill="#393648"/>
<path d="M504.226 171.201C505.61 178.215 514.006 182.461 521.018 180.984C528.03 179.6 532.182 171.201 530.798 164.187C529.414 157.173 521.018 152.927 514.006 154.404C506.994 155.881 502.842 164.187 504.226 171.201Z" fill="#393648"/>
<path d="M449.691 118.135C458.087 113.89 460.855 104.107 455.319 95.7079C451.167 87.3093 441.295 85.9249 432.899 90.0781C424.503 94.3235 421.735 104.107 427.271 112.505C432.899 119.52 442.679 122.288 449.691 118.135Z" fill="#393648"/>
<path d="M438.989 129.395C429.209 132.164 422.197 143.424 424.965 153.207C427.733 162.99 438.989 170.004 448.769 167.235C458.549 164.466 465.561 153.207 462.793 143.424C460.025 132.164 450.245 126.626 438.989 129.395Z" fill="#393648"/>
<path d="M483.373 120.627C490.385 116.382 491.769 107.983 489.001 102.353C484.849 95.3389 477.837 93.9545 470.825 98.1077C463.813 102.353 462.429 110.752 465.197 116.382C467.965 122.012 476.361 124.78 483.373 120.627Z" fill="#393648"/>
<path d="M507.454 129.303C513.083 126.535 514.467 119.52 511.606 115.275C508.838 109.645 501.826 108.261 497.582 111.029C491.954 113.798 490.57 120.812 493.43 125.058C496.198 130.688 503.21 133.457 507.454 129.303Z" fill="#393648"/>
<path d="M380.036 39.3162C385.664 42.085 391.2 40.7006 394.06 35.0707C396.828 29.4408 395.444 23.8109 389.908 21.0421C384.28 18.2733 378.744 19.6577 375.884 25.2876C373.116 30.9175 374.5 36.5474 380.036 39.3162Z" fill="#393648"/>
<path d="M456.702 75.7738C460.854 71.5283 460.854 64.5141 456.702 60.3609C452.55 56.1154 445.538 56.1154 441.294 60.3609C437.142 64.6063 437.142 71.6206 441.294 75.7738C445.446 80.0193 452.458 80.0193 456.702 75.7738Z" fill="#393648"/>
<path d="M431.608 73.0039C437.237 67.374 437.237 58.9753 431.608 53.3455C425.98 47.7156 417.584 47.7156 413.432 53.3455C407.804 58.9753 407.804 67.374 413.432 73.0039C417.584 78.6337 425.98 78.6337 431.608 73.0039Z" fill="#393648"/>
<path d="M529.966 187.817C531.349 193.447 536.978 196.215 542.514 194.831C548.05 193.447 550.91 187.817 549.526 182.187C548.142 176.557 542.514 173.788 536.978 175.173C531.349 176.557 528.582 182.187 529.966 187.817Z" fill="#393648"/>
<path d="M429.026 172.588C416.478 172.588 406.605 182.371 406.605 195.015C406.605 207.659 416.386 217.442 429.026 217.442C441.666 217.442 451.446 207.659 451.446 195.015C451.446 182.371 441.666 172.588 429.026 172.588Z" fill="#393648"/>
<path d="M73.8108 181.358C79.439 191.142 90.6031 194.003 100.383 188.373C110.163 182.743 112.931 171.575 107.395 161.7C101.767 151.917 90.6031 149.056 80.823 154.686C72.4268 160.316 68.2749 171.483 73.8108 181.358Z" fill="#393648"/>
<path d="M175.846 164.375C188.394 164.375 198.267 154.592 198.267 141.948C198.267 129.304 188.487 119.521 175.846 119.521C163.206 119.521 153.426 129.304 153.426 141.948C154.81 154.592 164.59 164.375 175.846 164.375Z" fill="#393648"/>
<path d="M101.577 193.909C90.4126 199.539 87.5524 213.567 93.1806 224.735C98.8088 235.995 112.741 238.763 123.997 233.134C135.161 227.504 138.022 213.475 132.393 202.308C126.765 191.048 112.833 186.895 101.577 193.909Z" fill="#393648"/>
<path d="M133.777 151.822C122.613 154.59 114.217 167.235 118.369 178.494C121.137 189.754 133.777 198.153 144.941 193.907C156.105 191.138 164.501 178.494 160.349 167.235C158.965 155.975 146.325 148.961 133.777 151.822Z" fill="#393648"/>
<path d="M198.176 115.365C195.408 126.625 202.328 139.177 213.584 142.038C224.749 144.807 237.389 137.793 240.157 126.625C242.925 115.365 235.913 102.813 224.749 99.9524C213.584 97.1836 200.944 104.198 198.176 115.365Z" fill="#393648"/>
<path d="M213.404 70.3281C210.636 80.1112 216.172 91.3709 227.428 94.1397C237.208 96.9085 248.372 91.3709 251.232 80.1112C254 70.3281 248.465 59.0684 237.208 56.2996C227.428 54.9152 216.264 60.545 213.404 70.3281Z" fill="#393648"/>
<path d="M177.052 113.797C188.217 113.797 196.613 105.399 196.613 94.1389C196.613 82.8791 188.217 74.4805 177.052 74.4805C165.888 74.4805 157.492 82.8791 157.492 94.1389C157.492 105.399 165.888 113.797 177.052 113.797Z" fill="#393648"/>
<path d="M298.465 100.878C290.069 109.277 290.069 123.306 298.465 131.704C306.861 140.103 320.886 140.103 329.282 131.704C337.678 123.306 337.678 109.277 329.282 100.878C320.886 91.0953 306.861 91.0953 298.465 100.878Z" fill="#393648"/>
<path d="M310.091 21.2305C315.719 22.6149 321.255 19.8461 322.639 14.2162C324.023 8.58633 321.255 2.95645 315.627 1.57205C309.999 0.187657 304.463 2.95645 303.079 8.58633C301.695 14.2162 304.463 19.8461 310.091 21.2305Z" fill="#393648"/>
<path d="M155.826 33.8734C157.21 39.5033 162.838 42.2721 168.374 40.8877C174.002 39.5033 176.77 33.8734 175.386 28.2435C174.002 22.6137 168.374 19.8449 162.838 21.2293C157.302 22.6137 154.442 28.2436 155.826 33.8734Z" fill="#393648"/>
<path d="M177.137 55.0044C177.137 63.403 184.149 71.8017 193.929 71.8017C203.709 71.8017 210.721 64.7874 210.721 55.0044C210.721 45.2213 203.709 38.207 193.929 38.207C184.149 39.5914 177.137 46.6057 177.137 55.0044Z" fill="#393648"/>
<path d="M152.135 66.2655C159.148 64.8811 163.3 56.4824 161.916 49.4681C160.532 42.4539 152.135 38.2084 145.123 39.6851C138.111 41.0695 133.959 49.4681 135.343 56.4824C138.111 63.4967 145.123 67.7422 152.135 66.2655Z" fill="#393648"/>
<path d="M214.786 41.9926C221.798 41.9926 228.81 36.3628 228.81 27.9641C228.81 19.5654 223.182 13.9355 214.786 13.9355C207.774 13.9355 200.762 19.5654 200.762 27.9641C202.146 34.9784 207.774 41.9926 214.786 41.9926Z" fill="#393648"/>
<path d="M97.424 106.968C104.436 102.722 105.82 94.3237 103.052 88.6938C100.284 83.0639 90.5041 80.2951 84.8759 83.0639C77.8637 87.3094 76.4798 94.3237 79.2477 101.338C82.0157 108.352 90.4118 109.737 97.424 106.968Z" fill="#393648"/>
<path d="M117.995 89.7085C120.763 98.1071 129.159 103.737 137.555 100.968C145.951 98.1994 151.58 89.7085 148.719 81.3098C145.951 72.9111 137.555 67.2813 129.159 70.0501C120.763 71.4344 115.135 79.8331 117.995 89.7085Z" fill="#393648"/>
<path d="M110.066 131.888C112.834 141.671 124.09 148.685 133.871 145.916C143.651 143.147 150.663 131.888 147.895 122.105C145.127 112.322 133.871 105.307 124.09 108.076C114.31 110.845 107.298 122.105 110.066 131.888Z" fill="#393648"/>
<path d="M107.025 77.4324C112.653 74.6636 114.037 67.6493 111.177 63.4038C108.409 57.7739 101.397 56.3895 97.1523 59.1583C91.5241 61.9271 90.1401 68.9414 93.0003 73.1869C95.7683 78.8168 101.397 80.2012 107.025 77.4324Z" fill="#393648"/>
<path d="M350.415 44.9459C357.427 49.1914 364.439 46.3303 368.591 39.3161C372.743 32.3018 369.975 25.2875 362.963 21.042C355.951 16.7966 348.939 19.6576 344.787 26.6719C342.019 33.6862 343.403 42.0849 350.415 44.9459Z" fill="#393648"/>
<path d="M273.378 61.5591C267.75 71.3422 270.61 82.6019 280.39 88.2318C290.171 93.8617 301.335 91.0006 306.963 81.2175C312.591 71.4345 309.731 60.1747 299.951 54.5448C290.171 48.915 279.006 53.1604 273.378 61.5591Z" fill="#393648"/>
<path d="M310 38.0262C305.756 46.4249 308.616 56.3002 315.629 60.4534C324.025 64.6989 333.805 61.8378 338.049 54.8235C342.201 46.4249 339.433 36.5495 332.421 32.3963C324.025 26.7664 314.245 29.6275 310 38.0262Z" fill="#393648"/>
<path d="M238.961 22.5195C244.589 22.5195 250.125 18.274 250.125 11.2597C250.125 5.62987 245.973 0 238.961 0C233.333 0 229.181 4.24548 227.797 9.78306C227.797 16.7973 232.041 22.4272 238.961 22.4272V22.5195Z" fill="#393648"/>
<path d="M241.634 38.0259C238.866 46.4245 244.402 56.2999 252.798 57.6843C261.194 60.4531 270.974 54.9155 272.358 46.4245C275.126 38.0258 269.59 28.1505 261.194 26.7661C252.798 23.9973 244.402 29.5349 241.634 38.0259Z" fill="#393648"/>
<path d="M283.157 35.072C290.169 36.4564 297.181 32.3032 299.949 25.289C301.333 18.2747 297.181 11.2604 290.169 8.49162C283.157 7.10722 276.145 11.2604 273.377 18.2747C270.609 25.2889 274.761 32.3032 283.157 35.072Z" fill="#393648"/>
<path d="M56.9207 129.394C61.0727 125.148 61.0727 118.134 56.9207 113.981C52.7688 109.736 45.7566 109.736 41.5124 113.981C37.3605 118.226 37.3605 125.241 41.5124 129.394C45.6643 133.639 52.6765 133.639 56.9207 129.394Z" fill="#393648"/>
<path d="M6.26613 195.109C11.8943 197.878 17.4303 196.494 20.2905 190.864C23.0584 185.234 21.6745 179.604 16.1385 176.835C10.6026 174.066 4.97442 175.451 2.11419 181.081C-0.653773 186.71 2.11419 192.34 6.26613 195.109Z" fill="#393648"/>
<path d="M35.7904 172.775C28.7782 179.789 28.7782 189.572 35.7904 196.587C42.8026 203.601 52.5827 203.601 59.5949 196.587C66.607 189.572 66.607 179.789 59.5949 172.775C52.5827 167.145 42.8026 167.145 35.7904 172.775Z" fill="#393648"/>
<path d="M53.6017 158.93C59.2299 153.3 59.2299 144.901 53.6017 139.271C47.9735 133.641 39.5774 133.641 34.0415 139.271C28.4133 144.901 28.4133 153.3 34.0415 158.93C39.6697 164.56 48.0658 164.56 53.6017 158.93Z" fill="#393648"/>
<path d="M91.9803 142.962C100.376 138.717 103.144 128.934 97.6085 120.535C93.3643 112.136 83.5842 109.275 75.188 114.905C66.7919 119.151 65.4079 128.934 69.5598 137.332C75.188 144.347 84.9681 147.115 91.9803 142.962Z" fill="#393648"/>
</svg>
