<svg width="8" height="8" viewBox="0 0 8 8" fill="none" xmlns="http://www.w3.org/2000/svg">
<g clip-path="url(#clip0_0_73)">
<path fill-rule="evenodd" clip-rule="evenodd" d="M5.22835 1.27715C5.51998 0.939153 5.71656 0.468392 5.66276 0C5.24251 0.016 4.73408 0.268459 4.43274 0.606055C4.16215 0.905651 3.92593 1.38436 3.98944 1.84355C4.45823 1.87835 4.93673 1.61554 5.22835 1.27715ZM6.27959 4.25C6.29132 5.46078 7.38786 5.86355 7.4 5.86875C7.3911 5.89715 7.22486 6.44265 6.8224 7.00664C6.47415 7.49384 6.11295 7.97905 5.54385 7.98945C4.98486 7.99945 4.80487 7.67188 4.16538 7.67188C3.52631 7.67188 3.3265 7.97901 2.79744 7.99941C2.24816 8.01901 1.82952 7.47231 1.47884 6.98672C0.761294 5.99353 0.213226 4.18004 0.949377 2.95605C1.31503 2.34846 1.96826 1.96312 2.67771 1.95352C3.21688 1.94352 3.72612 2.30117 4.05577 2.30117C4.38542 2.30117 5.00427 1.87118 5.65467 1.93438C5.92689 1.94518 6.69135 2.03954 7.18198 2.72793C7.14235 2.75153 6.26989 3.23802 6.27959 4.25Z" fill="#2EA8AF"/>
</g>
<defs>
<clipPath id="clip0_0_73">
<rect width="15" height="15" fill="white" transform="scale(0.533333)"/>
</clipPath>
</defs>
</svg>
