<svg width="8" height="8" viewBox="0 0 8 8" fill="none" xmlns="http://www.w3.org/2000/svg">
<g clip-path="url(#clip0_0_63)">
<path d="M4.25 3.625L5.3 2.5L1.225 0.3C1.2 0.275 1.15 0.275 1.075 0.25L4.25 3.625Z" fill="#2EA8AF"/>
<path d="M5.75 5.25L7.225 4.45C7.4 4.35 7.5 4.2 7.5 4C7.5 3.8 7.4 3.625 7.225 3.55L5.75 2.75L4.575 4L5.75 5.25Z" fill="#2EA8AF"/>
<path d="M0.6 0.475C0.525 0.55 0.5 0.65 0.5 0.75V7.25C0.5 7.35 0.525 7.45 0.6 7.55L3.9 4L0.6 0.475Z" fill="#2EA8AF"/>
<path d="M4.25 4.375L1.075 7.75C1.125 7.75 1.175 7.725 1.225 7.7L5.3 5.5L4.25 4.375Z" fill="#2EA8AF"/>
</g>
<defs>
<clipPath id="clip0_0_63">
<rect width="15" height="15" fill="white" transform="scale(0.533333)"/>
</clipPath>
</defs>
</svg>
