<svg width="458" height="18" viewBox="0 0 458 18" fill="none" xmlns="http://www.w3.org/2000/svg">
<path d="M0.00021118 13.578V0.266214H7.91122V1.36919H1.21729V6.35161H7.35973V7.45458H1.21729V13.578H0.00021118ZM10.3452 13.578V4.33582H11.4482V5.49585H11.6764C11.8539 5.07748 12.1138 4.77321 12.4561 4.58304C12.8111 4.39287 13.2992 4.29779 13.9204 4.29779H15.0044V5.36273H13.7873C13.09 5.36273 12.5322 5.55924 12.1138 5.95225C11.6954 6.34527 11.4862 6.96015 11.4862 7.79689V13.578H10.3452ZM21.2526 13.8442C20.3144 13.8442 19.4904 13.6477 18.7804 13.2547C18.0831 12.849 17.538 12.2912 17.1449 11.5812C16.7646 10.8586 16.5744 10.0219 16.5744 9.07102V8.84281C16.5744 7.89197 16.7646 7.06157 17.1449 6.35161C17.538 5.62897 18.0831 5.07114 18.7804 4.67812C19.4904 4.27243 20.3144 4.06958 21.2526 4.06958C22.1907 4.06958 23.0085 4.27243 23.7058 4.67812C24.4157 5.07114 24.9609 5.62897 25.3412 6.35161C25.7342 7.06157 25.9307 7.89197 25.9307 8.84281V9.07102C25.9307 10.0219 25.7342 10.8586 25.3412 11.5812C24.9609 12.2912 24.4157 12.849 23.7058 13.2547C23.0085 13.6477 22.1907 13.8442 21.2526 13.8442ZM21.2526 12.8173C22.3429 12.8173 23.205 12.475 23.8389 11.7904C24.4728 11.0931 24.7897 10.174 24.7897 9.03298V8.88085C24.7897 7.73984 24.4728 6.82703 23.8389 6.14242C23.205 5.44514 22.3429 5.09649 21.2526 5.09649C20.175 5.09649 19.3129 5.44514 18.6663 6.14242C18.0324 6.82703 17.7154 7.73984 17.7154 8.88085V9.03298C17.7154 10.174 18.0324 11.0931 18.6663 11.7904C19.3129 12.475 20.175 12.8173 21.2526 12.8173ZM28.8235 13.578V4.33582H29.9265V5.5529H30.1547C30.3449 5.21059 30.6491 4.89365 31.0675 4.60206C31.4859 4.29779 32.0817 4.14565 32.8551 4.14565C33.6031 4.14565 34.2053 4.3168 34.6617 4.65911C35.1308 5.00141 35.4667 5.41344 35.6696 5.8952H35.8978C36.1133 5.41344 36.4493 5.00141 36.9057 4.65911C37.3621 4.3168 38.0023 4.14565 38.8264 4.14565C39.4603 4.14565 40.0118 4.27877 40.4808 4.54501C40.9499 4.79856 41.3176 5.15988 41.5838 5.62897C41.8501 6.08537 41.9832 6.62418 41.9832 7.2454V13.578H40.8422V7.3595C40.8422 6.70025 40.6393 6.17412 40.2336 5.7811C39.8406 5.37541 39.2828 5.17256 38.5601 5.17256C37.8248 5.17256 37.2099 5.41344 36.7155 5.8952C36.2211 6.36428 35.9738 7.05523 35.9738 7.96804V13.578H34.8328V7.3595C34.8328 6.70025 34.63 6.17412 34.2243 5.7811C33.8313 5.37541 33.2735 5.17256 32.5508 5.17256C31.8155 5.17256 31.2006 5.41344 30.7062 5.8952C30.2117 6.36428 29.9645 7.05523 29.9645 7.96804V13.578H28.8235ZM50.1246 13.578V4.33582H51.2656V13.578H50.1246ZM50.6951 2.7384C50.4162 2.7384 50.1817 2.64332 49.9915 2.45315C49.8013 2.26298 49.7062 2.02844 49.7062 1.74953C49.7062 1.45794 49.8013 1.2234 49.9915 1.0459C50.1817 0.855737 50.4162 0.760652 50.6951 0.760652C50.9867 0.760652 51.2212 0.855737 51.3987 1.0459C51.5889 1.2234 51.684 1.45794 51.684 1.74953C51.684 2.02844 51.5889 2.26298 51.3987 2.45315C51.2212 2.64332 50.9867 2.7384 50.6951 2.7384ZM58.2891 13.8442C57.1734 13.8442 56.2162 13.578 55.4175 13.0455C54.6315 12.5131 54.1497 11.632 53.9723 10.4022L55.0942 10.193C55.1957 10.8649 55.3985 11.3974 55.7028 11.7904C56.0197 12.1708 56.4001 12.4433 56.8438 12.6081C57.3002 12.773 57.782 12.8554 58.2891 12.8554C59.0498 12.8554 59.6583 12.7032 60.1147 12.399C60.5838 12.082 60.8183 11.651 60.8183 11.1058C60.8183 10.548 60.5965 10.1613 60.1527 9.94579C59.7217 9.73027 59.1448 9.55911 58.4222 9.43234L57.5474 9.2802C56.9642 9.17878 56.4381 9.02664 55.969 8.8238C55.4999 8.60827 55.1259 8.32302 54.847 7.96804C54.5808 7.61306 54.4477 7.16933 54.4477 6.63686C54.4477 5.83815 54.7583 5.21059 55.3795 4.75419C56.0134 4.29779 56.8501 4.06958 57.8897 4.06958C58.942 4.06958 59.7851 4.31046 60.419 4.79222C61.0655 5.26131 61.4712 5.94591 61.636 6.84604L60.5711 7.07425C60.4443 6.33893 60.1401 5.81913 59.6583 5.51486C59.1892 5.21059 58.5997 5.05846 57.8897 5.05846C57.1924 5.05846 56.6346 5.19158 56.2162 5.45781C55.7979 5.72405 55.5887 6.11706 55.5887 6.63686C55.5887 7.14397 55.7789 7.51797 56.1592 7.75885C56.5395 7.98705 57.0593 8.15821 57.7186 8.27231L58.5933 8.42444C59.2272 8.52587 59.7977 8.678 60.3049 8.88085C60.812 9.07102 61.2113 9.34359 61.5029 9.69857C61.8072 10.0536 61.9593 10.5226 61.9593 11.1058C61.9593 11.9806 61.6297 12.6589 60.9705 13.1406C60.3112 13.6097 59.4174 13.8442 58.2891 13.8442ZM68.8876 13.8442C67.9494 13.8442 67.1253 13.6477 66.4154 13.2547C65.7181 12.849 65.1729 12.2912 64.7799 11.5812C64.3996 10.8586 64.2094 10.0219 64.2094 9.07102V8.84281C64.2094 7.89197 64.3996 7.06157 64.7799 6.35161C65.1729 5.62897 65.7181 5.07114 66.4154 4.67812C67.1253 4.27243 67.9494 4.06958 68.8876 4.06958C69.8257 4.06958 70.6434 4.27243 71.3407 4.67812C72.0507 5.07114 72.5958 5.62897 72.9762 6.35161C73.3692 7.06157 73.5657 7.89197 73.5657 8.84281V9.07102C73.5657 10.0219 73.3692 10.8586 72.9762 11.5812C72.5958 12.2912 72.0507 12.849 71.3407 13.2547C70.6434 13.6477 69.8257 13.8442 68.8876 13.8442ZM68.8876 12.8173C69.9779 12.8173 70.84 12.475 71.4738 11.7904C72.1077 11.0931 72.4247 10.174 72.4247 9.03298V8.88085C72.4247 7.73984 72.1077 6.82703 71.4738 6.14242C70.84 5.44514 69.9779 5.09649 68.8876 5.09649C67.8099 5.09649 66.9478 5.44514 66.3013 6.14242C65.6674 6.82703 65.3504 7.73984 65.3504 8.88085V9.03298C65.3504 10.174 65.6674 11.0931 66.3013 11.7904C66.9478 12.475 67.8099 12.8173 68.8876 12.8173ZM76.4585 13.578V0.266214H77.5995V13.578H76.4585ZM83.7862 13.8442C83.1396 13.8442 82.5501 13.7365 82.0176 13.521C81.4979 13.2928 81.0858 12.9631 80.7816 12.5321C80.4773 12.101 80.3251 11.5812 80.3251 10.9727C80.3251 10.3515 80.4773 9.83803 80.7816 9.43234C81.0858 9.02664 81.4979 8.72237 82.0176 8.51953C82.5374 8.31668 83.1143 8.21526 83.7482 8.21526H87.1332V7.4736C87.1332 6.7256 86.9177 6.14242 86.4866 5.72405C86.0556 5.30568 85.428 5.09649 84.6039 5.09649C83.7926 5.09649 83.146 5.29934 82.6642 5.70503C82.1951 6.09805 81.8782 6.63052 81.7134 7.30245L80.6104 6.97916C80.7625 6.43401 81.0034 5.94591 81.333 5.51486C81.6627 5.07114 82.1001 4.7225 82.6452 4.46894C83.1904 4.2027 83.8433 4.06958 84.6039 4.06958C85.7703 4.06958 86.6704 4.37385 87.3043 4.98239C87.9509 5.59093 88.2742 6.44035 88.2742 7.53065V12.0186C88.2742 12.399 88.4517 12.5891 88.8067 12.5891H89.7005V13.578H88.4834C88.0904 13.578 87.7798 13.4639 87.5516 13.2357C87.3233 12.9948 87.2092 12.6715 87.2092 12.2658V12.1327H87.0191C86.8543 12.4116 86.6387 12.6842 86.3725 12.9505C86.1189 13.2167 85.783 13.4322 85.3646 13.597C84.9462 13.7618 84.4201 13.8442 83.7862 13.8442ZM83.8623 12.8173C84.8385 12.8173 85.6245 12.5257 86.2204 11.9426C86.8289 11.3467 87.1332 10.51 87.1332 9.43234V9.20413H83.7672C83.1079 9.20413 82.5565 9.34993 82.1127 9.64152C81.6817 9.92043 81.4662 10.3578 81.4662 10.9537C81.4662 11.5495 81.688 12.0123 82.1317 12.3419C82.5882 12.6589 83.165 12.8173 83.8623 12.8173ZM94.6438 13.578C94.1494 13.578 93.7754 13.4512 93.5218 13.1977C93.2809 12.9441 93.1605 12.5891 93.1605 12.1327V5.36273H90.1939V4.33582H93.1605V0.874753H94.3015V4.33582H97.5344V5.36273H94.3015V11.9806C94.3015 12.3609 94.4917 12.5511 94.872 12.5511H97.0399V13.578H94.6438ZM104.006 13.8442C103.056 13.8442 102.225 13.6477 101.515 13.2547C100.818 12.849 100.273 12.2849 99.8798 11.5622C99.4868 10.8396 99.2903 10.0092 99.2903 9.07102V8.84281C99.2903 7.89197 99.4868 7.06157 99.8798 6.35161C100.273 5.62897 100.812 5.07114 101.496 4.67812C102.194 4.27243 102.986 4.06958 103.873 4.06958C104.735 4.06958 105.496 4.25341 106.155 4.62107C106.827 4.97605 107.353 5.49585 107.734 6.18045C108.114 6.85238 108.304 7.65743 108.304 8.59559V9.20413H100.431C100.469 10.3578 100.818 11.2516 101.477 11.8855C102.149 12.5067 102.992 12.8173 104.006 12.8173C104.869 12.8173 105.534 12.6208 106.003 12.2278C106.485 11.8348 106.853 11.353 107.106 10.7825L108.133 11.2389C107.943 11.6573 107.677 12.0693 107.334 12.475C107.005 12.868 106.574 13.1977 106.041 13.4639C105.509 13.7175 104.831 13.8442 104.006 13.8442ZM100.45 8.21526H107.144C107.094 7.2137 106.77 6.44669 106.174 5.91422C105.579 5.36907 104.812 5.09649 103.873 5.09649C102.948 5.09649 102.181 5.36907 101.572 5.91422C100.964 6.44669 100.59 7.2137 100.45 8.21526ZM115.106 13.8442C114.282 13.8442 113.534 13.6541 112.862 13.2737C112.19 12.8807 111.651 12.3292 111.245 11.6193C110.852 10.8966 110.656 10.0472 110.656 9.07102V8.84281C110.656 7.86661 110.852 7.02353 111.245 6.31357C111.638 5.59093 112.171 5.03944 112.843 4.65911C113.527 4.26609 114.282 4.06958 115.106 4.06958C115.79 4.06958 116.367 4.16467 116.836 4.35484C117.305 4.53233 117.686 4.76687 117.977 5.05846C118.282 5.33737 118.516 5.6353 118.681 5.95225H118.909V0.266214H120.05V13.578H118.947V11.8855H118.719C118.453 12.3926 118.034 12.849 117.464 13.2547C116.906 13.6477 116.12 13.8442 115.106 13.8442ZM115.372 12.8173C116.424 12.8173 117.274 12.4814 117.92 11.8094C118.58 11.1375 118.909 10.212 118.909 9.03298V8.88085C118.909 7.7018 118.58 6.77632 117.92 6.10439C117.274 5.43246 116.424 5.09649 115.372 5.09649C114.332 5.09649 113.483 5.43246 112.824 6.10439C112.165 6.77632 111.835 7.7018 111.835 8.88085V9.03298C111.835 10.212 112.165 11.1375 112.824 11.8094C113.483 12.4814 114.332 12.8173 115.372 12.8173ZM132.303 13.8442C131.479 13.8442 130.731 13.6541 130.059 13.2737C129.387 12.8807 128.848 12.3292 128.442 11.6193C128.049 10.8966 127.853 10.0472 127.853 9.07102V8.84281C127.853 7.86661 128.049 7.02353 128.442 6.31357C128.835 5.59093 129.368 5.03944 130.04 4.65911C130.724 4.26609 131.479 4.06958 132.303 4.06958C132.987 4.06958 133.564 4.16467 134.033 4.35484C134.502 4.53233 134.883 4.76687 135.174 5.05846C135.478 5.33737 135.713 5.6353 135.878 5.95225H136.106V0.266214H137.247V13.578H136.144V11.8855H135.916C135.65 12.3926 135.231 12.849 134.661 13.2547C134.103 13.6477 133.317 13.8442 132.303 13.8442ZM132.569 12.8173C133.621 12.8173 134.471 12.4814 135.117 11.8094C135.776 11.1375 136.106 10.212 136.106 9.03298V8.88085C136.106 7.7018 135.776 6.77632 135.117 6.10439C134.471 5.43246 133.621 5.09649 132.569 5.09649C131.529 5.09649 130.68 5.43246 130.021 6.10439C129.361 6.77632 129.032 7.7018 129.032 8.88085V9.03298C129.032 10.212 129.361 11.1375 130.021 11.8094C130.68 12.4814 131.529 12.8173 132.569 12.8173ZM144.863 13.8442C143.912 13.8442 143.082 13.6477 142.372 13.2547C141.674 12.849 141.129 12.2849 140.736 11.5622C140.343 10.8396 140.147 10.0092 140.147 9.07102V8.84281C140.147 7.89197 140.343 7.06157 140.736 6.35161C141.129 5.62897 141.668 5.07114 142.353 4.67812C143.05 4.27243 143.842 4.06958 144.73 4.06958C145.592 4.06958 146.353 4.25341 147.012 4.62107C147.684 4.97605 148.21 5.49585 148.59 6.18045C148.971 6.85238 149.161 7.65743 149.161 8.59559V9.20413H141.288C141.326 10.3578 141.674 11.2516 142.334 11.8855C143.006 12.5067 143.849 12.8173 144.863 12.8173C145.725 12.8173 146.391 12.6208 146.86 12.2278C147.342 11.8348 147.709 11.353 147.963 10.7825L148.99 11.2389C148.799 11.6573 148.533 12.0693 148.191 12.475C147.861 12.868 147.43 13.1977 146.898 13.4639C146.365 13.7175 145.687 13.8442 144.863 13.8442ZM141.307 8.21526H148.001C147.95 7.2137 147.627 6.44669 147.031 5.91422C146.435 5.36907 145.668 5.09649 144.73 5.09649C143.804 5.09649 143.037 5.36907 142.429 5.91422C141.82 6.44669 141.446 7.2137 141.307 8.21526ZM156.19 13.8442C155.29 13.8442 154.485 13.6541 153.775 13.2737C153.078 12.8807 152.527 12.3229 152.121 11.6003C151.715 10.8776 151.512 10.0282 151.512 9.052V8.86183C151.512 7.87295 151.715 7.02353 152.121 6.31357C152.527 5.59093 153.078 5.03944 153.775 4.65911C154.485 4.26609 155.29 4.06958 156.19 4.06958C157.078 4.06958 157.826 4.24074 158.434 4.58304C159.056 4.91266 159.537 5.35005 159.88 5.8952C160.235 6.42767 160.457 6.99184 160.545 7.5877L159.423 7.8159C159.36 7.32147 159.201 6.8714 158.948 6.46571C158.694 6.04734 158.339 5.71771 157.883 5.47683C157.427 5.22327 156.862 5.09649 156.19 5.09649C155.519 5.09649 154.916 5.25497 154.384 5.57191C153.851 5.87618 153.427 6.31357 153.11 6.88408C152.805 7.4419 152.653 8.10749 152.653 8.88085V9.03298C152.653 9.80633 152.805 10.4783 153.11 11.0488C153.427 11.6066 153.851 12.044 154.384 12.3609C154.916 12.6652 155.519 12.8173 156.19 12.8173C157.205 12.8173 157.978 12.5574 158.511 12.0376C159.043 11.5052 159.373 10.8586 159.499 10.0979L160.621 10.3261C160.507 10.922 160.266 11.4925 159.899 12.0376C159.544 12.5701 159.056 13.0075 158.434 13.3498C157.826 13.6794 157.078 13.8442 156.19 13.8442ZM163.427 13.578V4.33582H164.568V13.578H163.427ZM163.998 2.7384C163.719 2.7384 163.484 2.64332 163.294 2.45315C163.104 2.26298 163.009 2.02844 163.009 1.74953C163.009 1.45794 163.104 1.2234 163.294 1.0459C163.484 0.855737 163.719 0.760652 163.998 0.760652C164.289 0.760652 164.524 0.855737 164.701 1.0459C164.891 1.2234 164.987 1.45794 164.987 1.74953C164.987 2.02844 164.891 2.26298 164.701 2.45315C164.524 2.64332 164.289 2.7384 163.998 2.7384ZM171.592 13.8442C170.476 13.8442 169.519 13.578 168.72 13.0455C167.934 12.5131 167.452 11.632 167.275 10.4022L168.397 10.193C168.498 10.8649 168.701 11.3974 169.005 11.7904C169.322 12.1708 169.703 12.4433 170.146 12.6081C170.603 12.773 171.084 12.8554 171.592 12.8554C172.352 12.8554 172.961 12.7032 173.417 12.399C173.886 12.082 174.121 11.651 174.121 11.1058C174.121 10.548 173.899 10.1613 173.455 9.94579C173.024 9.73027 172.447 9.55911 171.725 9.43234L170.85 9.2802C170.267 9.17878 169.741 9.02664 169.272 8.8238C168.802 8.60827 168.428 8.32302 168.15 7.96804C167.883 7.61306 167.75 7.16933 167.75 6.63686C167.75 5.83815 168.061 5.21059 168.682 4.75419C169.316 4.29779 170.153 4.06958 171.192 4.06958C172.245 4.06958 173.088 4.31046 173.721 4.79222C174.368 5.26131 174.774 5.94591 174.939 6.84604L173.874 7.07425C173.747 6.33893 173.443 5.81913 172.961 5.51486C172.492 5.21059 171.902 5.05846 171.192 5.05846C170.495 5.05846 169.937 5.19158 169.519 5.45781C169.1 5.72405 168.891 6.11706 168.891 6.63686C168.891 7.14397 169.081 7.51797 169.462 7.75885C169.842 7.98705 170.362 8.15821 171.021 8.27231L171.896 8.42444C172.53 8.52587 173.1 8.678 173.607 8.88085C174.115 9.07102 174.514 9.34359 174.805 9.69857C175.11 10.0536 175.262 10.5226 175.262 11.1058C175.262 11.9806 174.932 12.6589 174.273 13.1406C173.614 13.6097 172.72 13.8442 171.592 13.8442ZM177.968 13.578V4.33582H179.109V13.578H177.968ZM178.539 2.7384C178.26 2.7384 178.025 2.64332 177.835 2.45315C177.645 2.26298 177.55 2.02844 177.55 1.74953C177.55 1.45794 177.645 1.2234 177.835 1.0459C178.025 0.855737 178.26 0.760652 178.539 0.760652C178.83 0.760652 179.065 0.855737 179.242 1.0459C179.433 1.2234 179.528 1.45794 179.528 1.74953C179.528 2.02844 179.433 2.26298 179.242 2.45315C179.065 2.64332 178.83 2.7384 178.539 2.7384ZM186.684 13.8442C185.746 13.8442 184.922 13.6477 184.212 13.2547C183.515 12.849 182.97 12.2912 182.577 11.5812C182.196 10.8586 182.006 10.0219 182.006 9.07102V8.84281C182.006 7.89197 182.196 7.06157 182.577 6.35161C182.97 5.62897 183.515 5.07114 184.212 4.67812C184.922 4.27243 185.746 4.06958 186.684 4.06958C187.622 4.06958 188.44 4.27243 189.137 4.67812C189.847 5.07114 190.393 5.62897 190.773 6.35161C191.166 7.06157 191.362 7.89197 191.362 8.84281V9.07102C191.362 10.0219 191.166 10.8586 190.773 11.5812C190.393 12.2912 189.847 12.849 189.137 13.2547C188.44 13.6477 187.622 13.8442 186.684 13.8442ZM186.684 12.8173C187.775 12.8173 188.637 12.475 189.271 11.7904C189.904 11.0931 190.221 10.174 190.221 9.03298V8.88085C190.221 7.73984 189.904 6.82703 189.271 6.14242C188.637 5.44514 187.775 5.09649 186.684 5.09649C185.607 5.09649 184.745 5.44514 184.098 6.14242C183.464 6.82703 183.147 7.73984 183.147 8.88085V9.03298C183.147 10.174 183.464 11.0931 184.098 11.7904C184.745 12.475 185.607 12.8173 186.684 12.8173ZM194.255 13.578V4.33582H195.358V6.04734H195.586C195.815 5.5529 196.189 5.11551 196.708 4.73517C197.228 4.34216 197.983 4.14565 198.971 4.14565C199.643 4.14565 200.258 4.28511 200.816 4.56402C201.374 4.84294 201.818 5.26765 202.147 5.83815C202.49 6.39598 202.661 7.0996 202.661 7.94902V13.578H201.52V8.02509C201.52 7.01086 201.266 6.28188 200.759 5.83815C200.252 5.39442 199.574 5.17256 198.724 5.17256C197.773 5.17256 196.981 5.48951 196.347 6.1234C195.713 6.74462 195.396 7.68912 195.396 8.95691V13.578H194.255ZM209.57 13.8442C208.454 13.8442 207.497 13.578 206.698 13.0455C205.912 12.5131 205.43 11.632 205.253 10.4022L206.375 10.193C206.476 10.8649 206.679 11.3974 206.983 11.7904C207.3 12.1708 207.681 12.4433 208.124 12.6081C208.581 12.773 209.062 12.8554 209.57 12.8554C210.33 12.8554 210.939 12.7032 211.395 12.399C211.864 12.082 212.099 11.651 212.099 11.1058C212.099 10.548 211.877 10.1613 211.433 9.94579C211.002 9.73027 210.425 9.55911 209.703 9.43234L208.828 9.2802C208.245 9.17878 207.719 9.02664 207.25 8.8238C206.78 8.60827 206.406 8.32302 206.128 7.96804C205.861 7.61306 205.728 7.16933 205.728 6.63686C205.728 5.83815 206.039 5.21059 206.66 4.75419C207.294 4.29779 208.131 4.06958 209.17 4.06958C210.223 4.06958 211.066 4.31046 211.699 4.79222C212.346 5.26131 212.752 5.94591 212.917 6.84604L211.852 7.07425C211.725 6.33893 211.421 5.81913 210.939 5.51486C210.47 5.21059 209.88 5.05846 209.17 5.05846C208.473 5.05846 207.915 5.19158 207.497 5.45781C207.078 5.72405 206.869 6.11706 206.869 6.63686C206.869 7.14397 207.059 7.51797 207.44 7.75885C207.82 7.98705 208.34 8.15821 208.999 8.27231L209.874 8.42444C210.508 8.52587 211.078 8.678 211.585 8.88085C212.092 9.07102 212.492 9.34359 212.783 9.69857C213.088 10.0536 213.24 10.5226 213.24 11.1058C213.24 11.9806 212.91 12.6589 212.251 13.1406C211.592 13.6097 210.698 13.8442 209.57 13.8442ZM220.197 9.20413V8.13919H228.717V9.20413H220.197Z" fill="#1C1C1C"/>
<path d="M241.714 13.578C241.092 13.578 240.585 13.3878 240.192 13.0075C239.812 12.6145 239.622 12.0947 239.622 11.4481V6.1234H237.264V4.14565H239.622V1.21706H242.018V4.14565H244.604V6.1234H242.018V11.0298C242.018 11.4101 242.195 11.6003 242.55 11.6003H244.376V13.578H241.714ZM250.927 13.8442C249.989 13.8442 249.146 13.6541 248.398 13.2737C247.65 12.8934 247.06 12.3419 246.629 11.6193C246.198 10.8966 245.983 10.0282 245.983 9.01396V8.7097C245.983 7.69546 246.198 6.82703 246.629 6.10439C247.06 5.38175 247.65 4.83026 248.398 4.44992C249.146 4.06958 249.989 3.87941 250.927 3.87941C251.865 3.87941 252.708 4.06958 253.456 4.44992C254.204 4.83026 254.794 5.38175 255.225 6.10439C255.656 6.82703 255.871 7.69546 255.871 8.7097V9.01396C255.871 10.0282 255.656 10.8966 255.225 11.6193C254.794 12.3419 254.204 12.8934 253.456 13.2737C252.708 13.6541 251.865 13.8442 250.927 13.8442ZM250.927 11.7144C251.662 11.7144 252.271 11.4798 252.753 11.0107C253.234 10.529 253.475 9.84437 253.475 8.95691V8.76675C253.475 7.87929 253.234 7.20103 252.753 6.73194C252.283 6.25018 251.675 6.0093 250.927 6.0093C250.192 6.0093 249.583 6.25018 249.101 6.73194C248.62 7.20103 248.379 7.87929 248.379 8.76675V8.95691C248.379 9.84437 248.62 10.529 249.101 11.0107C249.583 11.4798 250.192 11.7144 250.927 11.7144ZM266.829 13.8442C265.599 13.8442 264.591 13.578 263.805 13.0455C263.019 12.5131 262.544 11.7524 262.379 10.7635L264.585 10.193C264.674 10.6367 264.82 10.9854 265.022 11.2389C265.238 11.4925 265.498 11.6763 265.802 11.7904C266.119 11.8918 266.461 11.9426 266.829 11.9426C267.387 11.9426 267.799 11.8475 268.065 11.6573C268.331 11.4545 268.464 11.2072 268.464 10.9156C268.464 10.6241 268.338 10.4022 268.084 10.2501C267.831 10.0852 267.425 9.95213 266.867 9.85071L266.335 9.75562C265.675 9.62884 265.073 9.45769 264.528 9.24217C263.983 9.01396 263.545 8.70336 263.216 8.31034C262.886 7.91733 262.721 7.41021 262.721 6.78899C262.721 5.85083 263.064 5.13453 263.748 4.64009C264.433 4.13297 265.333 3.87941 266.449 3.87941C267.501 3.87941 268.376 4.11396 269.073 4.58304C269.77 5.05212 270.227 5.667 270.442 6.42767L268.217 7.11228C268.116 6.63052 267.907 6.28822 267.59 6.08537C267.285 5.88252 266.905 5.7811 266.449 5.7811C265.992 5.7811 265.644 5.86351 265.403 6.02832C265.162 6.18045 265.041 6.39598 265.041 6.67489C265.041 6.97916 265.168 7.20736 265.422 7.3595C265.675 7.49896 266.018 7.60672 266.449 7.68279L266.981 7.77787C267.691 7.90465 268.331 8.0758 268.902 8.29132C269.485 8.49417 269.941 8.7921 270.271 9.18512C270.613 9.56545 270.785 10.0852 270.785 10.7445C270.785 11.7334 270.423 12.5004 269.701 13.0455C268.991 13.578 268.033 13.8442 266.829 13.8442ZM276.312 13.578C275.691 13.578 275.183 13.3878 274.79 13.0075C274.41 12.6145 274.22 12.0947 274.22 11.4481V6.1234H271.862V4.14565H274.22V1.21706H276.616V4.14565H279.202V6.1234H276.616V11.0298C276.616 11.4101 276.794 11.6003 277.148 11.6003H278.974V13.578H276.312ZM281.371 13.578V4.14565H283.729V5.21059H284.072C284.211 4.83026 284.439 4.55134 284.756 4.37385C285.086 4.19636 285.466 4.10762 285.897 4.10762H287.038V6.2375H285.859C285.251 6.2375 284.75 6.40232 284.357 6.73194C283.964 7.04889 283.767 7.54333 283.767 8.21526V13.578H281.371ZM292.875 13.8442C291.937 13.8442 291.106 13.6477 290.383 13.2547C289.674 12.849 289.116 12.2849 288.71 11.5622C288.317 10.8269 288.12 9.96481 288.12 8.97593V8.74773C288.12 7.75885 288.317 6.90309 288.71 6.18045C289.103 5.44514 289.654 4.88097 290.364 4.48795C291.074 4.08226 291.898 3.87941 292.837 3.87941C293.762 3.87941 294.567 4.0886 295.252 4.50697C295.936 4.91266 296.469 5.48317 296.849 6.21849C297.23 6.94113 297.42 7.78421 297.42 8.74773V9.56545H290.555C290.58 10.212 290.821 10.7382 291.277 11.1439C291.734 11.5495 292.291 11.7524 292.951 11.7524C293.623 11.7524 294.117 11.6066 294.434 11.315C294.751 11.0234 294.992 10.7001 295.157 10.3451L297.115 11.3721C296.938 11.7017 296.678 12.063 296.336 12.456C296.006 12.8364 295.562 13.166 295.005 13.4449C294.447 13.7111 293.737 13.8442 292.875 13.8442ZM290.574 7.77787H294.986C294.935 7.23272 294.713 6.79533 294.32 6.46571C293.94 6.13608 293.439 5.97127 292.818 5.97127C292.171 5.97127 291.658 6.13608 291.277 6.46571C290.897 6.79533 290.662 7.23272 290.574 7.77787ZM299.552 13.578V4.14565H301.911V5.38175H302.253C302.405 5.05212 302.69 4.74151 303.109 4.44992C303.527 4.14565 304.161 3.99352 305.01 3.99352C305.746 3.99352 306.386 4.16467 306.931 4.50697C307.489 4.8366 307.92 5.29934 308.224 5.8952C308.528 6.47838 308.681 7.16299 308.681 7.94902V13.578H306.284V8.13919C306.284 7.42923 306.107 6.89676 305.752 6.54177C305.41 6.18679 304.915 6.0093 304.269 6.0093C303.533 6.0093 302.963 6.25652 302.557 6.75096C302.151 7.23272 301.949 7.91099 301.949 8.78576V13.578H299.552ZM310.814 8.89986V8.59559C310.814 7.60672 311.011 6.76364 311.404 6.06635C311.797 5.35639 312.317 4.81758 312.963 4.44992C313.623 4.06958 314.339 3.87941 315.112 3.87941C315.974 3.87941 316.627 4.03155 317.071 4.33582C317.515 4.64009 317.838 4.95704 318.041 5.28666H318.383V4.14565H320.741V15.2515C320.741 15.8981 320.551 16.4115 320.171 16.7919C319.79 17.1849 319.283 17.3814 318.649 17.3814H312.336V15.2895H317.813C318.168 15.2895 318.345 15.0994 318.345 14.719V12.2658H318.003C317.876 12.4687 317.699 12.6779 317.47 12.8934C317.242 13.0962 316.938 13.2674 316.557 13.4069C316.177 13.5463 315.695 13.616 315.112 13.616C314.339 13.616 313.623 13.4322 312.963 13.0646C312.317 12.6842 311.797 12.1454 311.404 11.4481C311.011 10.7382 310.814 9.88874 310.814 8.89986ZM315.797 11.5242C316.532 11.5242 317.147 11.2896 317.641 10.8206C318.136 10.3515 318.383 9.69223 318.383 8.84281V8.65264C318.383 7.79055 318.136 7.1313 317.641 6.67489C317.16 6.20581 316.545 5.97127 315.797 5.97127C315.061 5.97127 314.447 6.20581 313.952 6.67489C313.458 7.1313 313.211 7.79055 313.211 8.65264V8.84281C313.211 9.69223 313.458 10.3515 313.952 10.8206C314.447 11.2896 315.061 11.5242 315.797 11.5242ZM327.011 13.578C326.39 13.578 325.883 13.3878 325.49 13.0075C325.109 12.6145 324.919 12.0947 324.919 11.4481V6.1234H322.561V4.14565H324.919V1.21706H327.315V4.14565H329.902V6.1234H327.315V11.0298C327.315 11.4101 327.493 11.6003 327.848 11.6003H329.673V13.578H327.011ZM332.07 13.578V0.266214H334.467V5.30568H334.809C334.91 5.10283 335.069 4.89999 335.284 4.69714C335.5 4.49429 335.785 4.32948 336.14 4.2027C336.508 4.06325 336.97 3.99352 337.528 3.99352C338.264 3.99352 338.904 4.16467 339.449 4.50697C340.007 4.8366 340.438 5.29934 340.742 5.8952C341.046 6.47838 341.199 7.16299 341.199 7.94902V13.578H338.802V8.13919C338.802 7.42923 338.625 6.89676 338.27 6.54177C337.928 6.18679 337.433 6.0093 336.787 6.0093C336.051 6.0093 335.481 6.25652 335.075 6.75096C334.669 7.23272 334.467 7.91099 334.467 8.78576V13.578H332.07ZM347.706 13.8442C346.477 13.8442 345.469 13.578 344.683 13.0455C343.897 12.5131 343.421 11.7524 343.256 10.7635L345.462 10.193C345.551 10.6367 345.697 10.9854 345.9 11.2389C346.115 11.4925 346.375 11.6763 346.679 11.7904C346.996 11.8918 347.339 11.9426 347.706 11.9426C348.264 11.9426 348.676 11.8475 348.942 11.6573C349.209 11.4545 349.342 11.2072 349.342 10.9156C349.342 10.6241 349.215 10.4022 348.961 10.2501C348.708 10.0852 348.302 9.95213 347.744 9.85071L347.212 9.75562C346.553 9.62884 345.95 9.45769 345.405 9.24217C344.86 9.01396 344.423 8.70336 344.093 8.31034C343.764 7.91733 343.599 7.41021 343.599 6.78899C343.599 5.85083 343.941 5.13453 344.626 4.64009C345.31 4.13297 346.21 3.87941 347.326 3.87941C348.378 3.87941 349.253 4.11396 349.95 4.58304C350.648 5.05212 351.104 5.667 351.32 6.42767L349.095 7.11228C348.993 6.63052 348.784 6.28822 348.467 6.08537C348.163 5.88252 347.782 5.7811 347.326 5.7811C346.87 5.7811 346.521 5.86351 346.28 6.02832C346.039 6.18045 345.919 6.39598 345.919 6.67489C345.919 6.97916 346.046 7.20736 346.299 7.3595C346.553 7.49896 346.895 7.60672 347.326 7.68279L347.858 7.77787C348.568 7.90465 349.209 8.0758 349.779 8.29132C350.362 8.49417 350.819 8.7921 351.148 9.18512C351.491 9.56545 351.662 10.0852 351.662 10.7445C351.662 11.7334 351.301 12.5004 350.578 13.0455C349.868 13.578 348.911 13.8442 347.706 13.8442ZM358.59 13.578V4.14565H360.986V13.578H358.59ZM359.788 3.04267C359.357 3.04267 358.989 2.90322 358.685 2.6243C358.394 2.34539 358.248 1.97773 358.248 1.52133C358.248 1.06492 358.394 0.697263 358.685 0.418349C358.989 0.139435 359.357 -2.18943e-05 359.788 -2.18943e-05C360.232 -2.18943e-05 360.6 0.139435 360.891 0.418349C361.183 0.697263 361.328 1.06492 361.328 1.52133C361.328 1.97773 361.183 2.34539 360.891 2.6243C360.6 2.90322 360.232 3.04267 359.788 3.04267ZM363.641 13.578V4.14565H366V5.38175H366.342C366.494 5.05212 366.779 4.74151 367.198 4.44992C367.616 4.14565 368.25 3.99352 369.099 3.99352C369.835 3.99352 370.475 4.16467 371.02 4.50697C371.578 4.8366 372.009 5.29934 372.313 5.8952C372.617 6.47838 372.77 7.16299 372.77 7.94902V13.578H370.373V8.13919C370.373 7.42923 370.196 6.89676 369.841 6.54177C369.499 6.18679 369.004 6.0093 368.358 6.0093C367.622 6.0093 367.052 6.25652 366.646 6.75096C366.24 7.23272 366.038 7.91099 366.038 8.78576V13.578H363.641ZM380.188 13.578V4.14565H382.546V5.38175H382.889C383.041 5.05212 383.326 4.74151 383.744 4.44992C384.163 4.14565 384.797 3.99352 385.646 3.99352C386.381 3.99352 387.022 4.16467 387.567 4.50697C388.125 4.8366 388.556 5.29934 388.86 5.8952C389.164 6.47838 389.316 7.16299 389.316 7.94902V13.578H386.92V8.13919C386.92 7.42923 386.743 6.89676 386.388 6.54177C386.045 6.18679 385.551 6.0093 384.904 6.0093C384.169 6.0093 383.599 6.25652 383.193 6.75096C382.787 7.23272 382.584 7.91099 382.584 8.78576V13.578H380.188ZM395.352 13.7301C394.617 13.7301 393.97 13.5653 393.413 13.2357C392.867 12.8934 392.443 12.4243 392.138 11.8285C391.834 11.2326 391.682 10.548 391.682 9.77464V4.14565H394.078V9.58447C394.078 10.2944 394.249 10.8269 394.592 11.1819C394.947 11.5369 395.447 11.7144 396.094 11.7144C396.829 11.7144 397.4 11.4735 397.805 10.9917C398.211 10.4973 398.414 9.81267 398.414 8.9379V4.14565H400.81V13.578H398.452V12.3419H398.11C397.958 12.6589 397.672 12.9695 397.254 13.2737C396.836 13.578 396.202 13.7301 395.352 13.7301ZM403.477 13.578V4.14565H405.835V5.17256H406.177C406.342 4.85561 406.614 4.58304 406.995 4.35484C407.375 4.11396 407.876 3.99352 408.497 3.99352C409.169 3.99352 409.708 4.12663 410.113 4.39287C410.519 4.64643 410.83 4.98239 411.045 5.40076H411.388C411.603 4.99507 411.907 4.65911 412.3 4.39287C412.693 4.12663 413.251 3.99352 413.974 3.99352C414.557 3.99352 415.083 4.1203 415.552 4.37385C416.034 4.61473 416.414 4.98873 416.693 5.49585C416.985 5.99029 417.131 6.61784 417.131 7.37852V13.578H414.734V7.54967C414.734 7.02987 414.601 6.6432 414.335 6.38964C414.069 6.1234 413.695 5.99029 413.213 5.99029C412.668 5.99029 412.243 6.16778 411.939 6.52276C411.647 6.86506 411.502 7.3595 411.502 8.00607V13.578H409.106V7.54967C409.106 7.02987 408.972 6.6432 408.706 6.38964C408.44 6.1234 408.066 5.99029 407.584 5.99029C407.039 5.99029 406.614 6.16778 406.31 6.52276C406.018 6.86506 405.873 7.3595 405.873 8.00607V13.578H403.477ZM425.375 13.8442C424.525 13.8442 423.872 13.6984 423.416 13.4069C422.96 13.1153 422.624 12.792 422.408 12.437H422.066V13.578H419.708V0.266214H422.104V5.22961H422.446C422.586 5.00141 422.769 4.78589 422.998 4.58304C423.238 4.38019 423.549 4.21538 423.929 4.0886C424.322 3.94914 424.804 3.87941 425.375 3.87941C426.135 3.87941 426.839 4.06958 427.486 4.44992C428.132 4.81758 428.652 5.36273 429.045 6.08537C429.438 6.80801 429.634 7.68279 429.634 8.7097V9.01396C429.634 10.0409 429.438 10.9156 429.045 11.6383C428.652 12.3609 428.132 12.9124 427.486 13.2928C426.839 13.6604 426.135 13.8442 425.375 13.8442ZM424.652 11.7524C425.387 11.7524 426.002 11.5178 426.497 11.0488C426.991 10.567 427.238 9.86972 427.238 8.95691V8.76675C427.238 7.85394 426.991 7.16299 426.497 6.69391C426.015 6.21215 425.4 5.97127 424.652 5.97127C423.917 5.97127 423.302 6.21215 422.807 6.69391C422.313 7.16299 422.066 7.85394 422.066 8.76675V8.95691C422.066 9.86972 422.313 10.567 422.807 11.0488C423.302 11.5178 423.917 11.7524 424.652 11.7524ZM436.132 13.8442C435.194 13.8442 434.364 13.6477 433.641 13.2547C432.931 12.849 432.373 12.2849 431.968 11.5622C431.575 10.8269 431.378 9.96481 431.378 8.97593V8.74773C431.378 7.75885 431.575 6.90309 431.968 6.18045C432.361 5.44514 432.912 4.88097 433.622 4.48795C434.332 4.08226 435.156 3.87941 436.094 3.87941C437.02 3.87941 437.825 4.0886 438.51 4.50697C439.194 4.91266 439.727 5.48317 440.107 6.21849C440.487 6.94113 440.677 7.78421 440.677 8.74773V9.56545H433.812C433.838 10.212 434.079 10.7382 434.535 11.1439C434.991 11.5495 435.549 11.7524 436.209 11.7524C436.88 11.7524 437.375 11.6066 437.692 11.315C438.009 11.0234 438.25 10.7001 438.414 10.3451L440.373 11.3721C440.196 11.7017 439.936 12.063 439.594 12.456C439.264 12.8364 438.82 13.166 438.262 13.4449C437.705 13.7111 436.995 13.8442 436.132 13.8442ZM433.831 7.77787H438.243C438.193 7.23272 437.971 6.79533 437.578 6.46571C437.197 6.13608 436.697 5.97127 436.075 5.97127C435.429 5.97127 434.915 6.13608 434.535 6.46571C434.155 6.79533 433.92 7.23272 433.831 7.77787ZM442.81 13.578V4.14565H445.168V5.21059H445.511C445.65 4.83026 445.878 4.55134 446.195 4.37385C446.525 4.19636 446.905 4.10762 447.336 4.10762H448.477V6.2375H447.298C446.69 6.2375 446.189 6.40232 445.796 6.73194C445.403 7.04889 445.206 7.54333 445.206 8.21526V13.578H442.81ZM454.045 13.8442C452.815 13.8442 451.807 13.578 451.021 13.0455C450.235 12.5131 449.76 11.7524 449.595 10.7635L451.801 10.193C451.889 10.6367 452.035 10.9854 452.238 11.2389C452.454 11.4925 452.714 11.6763 453.018 11.7904C453.335 11.8918 453.677 11.9426 454.045 11.9426C454.603 11.9426 455.015 11.8475 455.281 11.6573C455.547 11.4545 455.68 11.2072 455.68 10.9156C455.68 10.6241 455.553 10.4022 455.3 10.2501C455.046 10.0852 454.641 9.95213 454.083 9.85071L453.55 9.75562C452.891 9.62884 452.289 9.45769 451.744 9.24217C451.199 9.01396 450.761 8.70336 450.431 8.31034C450.102 7.91733 449.937 7.41021 449.937 6.78899C449.937 5.85083 450.279 5.13453 450.964 4.64009C451.649 4.13297 452.549 3.87941 453.664 3.87941C454.717 3.87941 455.591 4.11396 456.289 4.58304C456.986 5.05212 457.442 5.667 457.658 6.42767L455.433 7.11228C455.332 6.63052 455.122 6.28822 454.805 6.08537C454.501 5.88252 454.121 5.7811 453.664 5.7811C453.208 5.7811 452.859 5.86351 452.618 6.02832C452.378 6.18045 452.257 6.39598 452.257 6.67489C452.257 6.97916 452.384 7.20736 452.637 7.3595C452.891 7.49896 453.233 7.60672 453.664 7.68279L454.197 7.77787C454.907 7.90465 455.547 8.0758 456.118 8.29132C456.701 8.49417 457.157 8.7921 457.487 9.18512C457.829 9.56545 458 10.0852 458 10.7445C458 11.7334 457.639 12.5004 456.916 13.0455C456.206 13.578 455.249 13.8442 454.045 13.8442Z" fill="url(#paint0_linear_2_10227)"/>
<defs>
<linearGradient id="paint0_linear_2_10227" x1="337.911" y1="1.96772" x2="335.882" y2="-16.1315" gradientUnits="userSpaceOnUse">
<stop stop-color="#AADA5D"/>
<stop offset="0.973679" stop-color="#0DAEB9"/>
</linearGradient>
</defs>
</svg>
