<svg width="322" height="340" viewBox="0 0 322 340" fill="none" xmlns="http://www.w3.org/2000/svg">
<path d="M237.163 86.2224C234.068 81.1494 228 79.6773 222.647 82.6109C217.294 85.5446 215.741 91.2953 218.837 96.3683C221.932 101.441 228 102.913 233.353 99.9797C238.705 97.1625 240.259 90.6175 237.163 86.2224Z" fill="#EFEFEF"/>
<path d="M258.695 147.13C252.627 145.668 245.721 149.269 244.179 155.136C242.637 160.887 246.437 167.432 252.627 168.893C258.695 170.355 265.601 166.754 267.143 160.887C269.289 155.02 264.763 148.485 258.695 147.13Z" fill="#EFEFEF"/>
<path d="M203.604 280.434C205.147 274.684 201.347 268.138 195.156 266.677C189.088 265.215 182.182 268.816 180.64 274.684C179.098 280.434 182.898 286.979 189.088 288.441C195.156 289.796 201.224 286.185 203.604 280.434Z" fill="#EFEFEF"/>
<path d="M238.706 113.525C237.163 107.774 230.257 103.379 223.474 105.518C217.406 106.98 212.769 113.525 215.026 119.276C216.568 125.026 223.474 129.422 229.542 127.282C237.163 126.604 240.963 120.059 238.706 113.525Z" fill="#EFEFEF"/>
<path d="M259.656 136.073C259.656 141.823 264.182 146.219 270.362 146.219C276.541 146.219 281.067 141.823 281.067 136.073C281.067 130.322 276.541 125.927 270.362 125.927C264.182 125.927 259.656 130.216 259.656 136.073Z" fill="#EFEFEF"/>
<path d="M283.93 111.492C282.388 107.097 277.862 104.269 273.225 105.741C268.587 107.203 265.604 111.492 267.157 115.887C268.699 120.282 273.225 123.11 277.862 121.638C282.5 120.96 285.483 115.887 283.93 111.492Z" fill="#EFEFEF"/>
<path d="M285.234 123.11C285.949 126.721 290.587 128.861 294.398 128.183C298.208 127.505 300.466 123.11 299.75 119.498C299.035 115.887 294.398 113.748 290.587 114.426C286.776 115.103 284.396 119.498 285.234 123.11Z" fill="#EFEFEF"/>
<path d="M255.486 95.7013C260.011 93.562 261.554 88.4785 258.581 84.0834C256.324 79.6882 250.96 79.0104 246.322 81.1497C241.796 83.2891 240.254 88.3726 243.227 92.7677C246.322 96.3792 251.675 97.8407 255.486 95.7013Z" fill="#EFEFEF"/>
<path d="M249.654 101.399C244.302 102.617 240.491 107.404 242.033 111.629C243.575 115.855 249.654 118.863 255.007 117.634C260.36 116.416 264.17 111.629 262.628 107.404C261.086 102.617 255.722 100.266 249.654 101.399Z" fill="#EFEFEF"/>
<path d="M273.816 96.9403C277.626 94.801 278.342 90.3953 276.911 87.4617C274.654 83.8502 270.843 83.0665 267.033 85.3223C263.222 87.4617 262.507 91.8674 263.937 94.801C265.479 97.7346 270.005 99.1961 273.816 96.9403Z" fill="#EFEFEF"/>
<path d="M287.024 101.451C290.119 99.9899 290.834 96.3784 289.281 94.2285C287.739 91.2949 283.928 90.6171 281.66 92.0892C278.565 93.5507 277.849 97.1621 279.403 99.3121C280.945 102.129 284.755 103.601 287.024 101.451Z" fill="#EFEFEF"/>
<path d="M268.063 63.2507C270.32 61.1114 270.32 57.5 268.063 55.2441C265.806 53.1048 261.995 53.1048 259.615 55.2441C257.358 57.3835 257.358 60.9949 259.615 63.2507C261.872 65.5065 265.806 65.39 268.063 63.2507Z" fill="#EFEFEF"/>
<path d="M232.97 64.0985C236.065 61.1649 236.065 56.8757 232.97 53.9527C229.874 51.019 225.348 51.019 223.091 53.9527C219.996 56.8863 219.996 61.1755 223.091 64.0985C225.348 66.9157 229.997 66.9157 232.97 64.0985Z" fill="#EFEFEF"/>
<path d="M148.859 288.557C153.384 284.162 153.384 276.939 148.859 272.65C144.333 268.255 136.6 268.255 132.074 272.65C127.548 277.045 127.548 284.268 132.074 288.557C136.712 292.846 144.333 292.846 148.859 288.557Z" fill="#EFEFEF"/>
<path d="M255.722 240.624C261.79 237.69 263.343 230.478 260.248 224.717C257.152 218.966 249.542 217.494 243.463 220.322C237.395 223.255 235.842 230.468 238.938 236.229C242.748 241.418 249.531 243.558 255.722 240.624Z" fill="#EFEFEF"/>
<path d="M266.909 215.249C271.435 210.853 271.435 203.631 266.909 198.558C262.384 194.162 254.651 194.162 250.125 198.558C245.599 202.953 245.599 210.176 250.125 214.465C254.651 218.976 261.545 219.654 266.909 215.259V215.249Z" fill="#EFEFEF"/>
<path d="M299.284 131.677C299.999 134.611 303.094 136.073 306.19 135.289C309.285 134.611 310.715 131.677 310 128.744C309.285 125.81 306.19 124.349 303.094 125.132C299.999 125.927 298.457 128.744 299.284 131.677Z" fill="#EFEFEF"/>
<path d="M305.941 149.163C302.131 149.163 298.32 152.096 298.32 156.385C298.32 160.675 301.416 163.608 305.941 163.608C309.752 163.608 313.563 160.675 313.563 156.385C313.563 152.096 310.59 149.163 305.941 149.163Z" fill="#EFEFEF"/>
<path d="M244.181 123.787C237.275 123.787 231.922 128.86 231.922 135.405C231.922 141.95 237.275 147.023 244.181 147.023C251.087 147.023 256.439 141.95 256.439 135.405C256.439 128.86 251.087 123.787 244.181 123.787Z" fill="#EFEFEF"/>
<path d="M96.7415 268.933C102.809 267.472 107.447 260.927 105.19 255.176C103.647 249.425 96.7415 245.03 90.6736 247.169C84.6057 248.631 79.9682 255.176 82.2255 260.927C83.7676 266.794 90.6736 270.405 96.7415 268.933Z" fill="#EFEFEF"/>
<path d="M121.132 281.79C127.2 278.856 128.753 271.644 125.658 265.882C122.563 260.132 114.953 258.66 108.873 261.487C102.806 264.421 101.252 271.633 104.348 277.394C108.158 283.262 115.768 284.723 121.132 281.79Z" fill="#EFEFEF"/>
<path d="M50.4534 128.299C53.5488 133.372 59.6167 134.844 64.9694 131.91C70.3221 128.977 71.8754 123.226 68.78 118.153C65.6846 113.08 59.6167 111.608 54.264 114.542C49.6264 117.475 47.3579 123.226 50.4534 128.299Z" fill="#EFEFEF"/>
<path d="M181.59 310.099C186.942 311.56 193.01 308.637 194.564 302.876C196.106 297.803 193.022 292.052 186.942 290.58C181.59 289.118 175.522 292.041 173.969 297.803C173.253 303.554 176.226 308.626 181.59 310.099Z" fill="#EFEFEF"/>
<path d="M18.9211 183.9C19.6363 180.289 17.379 176.677 13.5684 175.216C9.7578 174.538 5.9472 176.677 4.40508 180.289C3.68989 183.9 5.9472 187.511 9.7578 188.973C13.5684 189.767 17.379 187.511 18.9211 183.9Z" fill="#EFEFEF"/>
<path d="M33.4327 188.295C38.7854 191.229 44.8533 189.757 47.9487 184.684C51.0441 179.611 49.4908 173.86 44.1381 170.926C38.7854 167.993 32.7175 169.465 29.6221 174.538C27.3648 179.611 28.9069 185.361 33.4327 188.295Z" fill="#EFEFEF"/>
<path d="M215.149 254.942C208.243 254.942 202.891 260.015 202.891 266.56C202.891 273.105 208.243 278.178 215.149 278.178C222.055 278.178 227.408 273.105 227.408 266.56C227.408 260.015 222.055 254.942 215.149 254.942Z" fill="#EFEFEF"/>
<path d="M287.853 186.146C282.5 183.212 276.432 184.684 273.337 189.757C270.241 194.83 271.794 200.581 277.147 203.514C282.5 206.448 288.568 204.976 291.663 199.903C294.759 194.83 293.205 188.963 287.853 186.146Z" fill="#EFEFEF"/>
<path d="M312.01 186.262C308.199 185.584 304.389 187.723 302.846 191.335C302.131 194.946 304.389 198.558 308.199 200.019C312.01 200.697 315.82 198.558 317.363 194.946C318.078 190.551 315.82 186.94 312.01 186.262Z" fill="#EFEFEF"/>
<path d="M309.863 167.432C309.863 170.366 312.121 173.183 315.931 173.183C319.027 173.183 321.999 171.043 321.999 167.432C321.999 164.498 319.742 161.681 315.931 161.681C312.121 162.359 309.863 164.615 309.863 167.432Z" fill="#EFEFEF"/>
<path d="M270.843 246.375C267.747 241.302 261.68 239.83 256.327 242.763C250.974 245.697 249.421 251.448 252.516 256.521C255.612 261.594 261.68 263.066 267.032 260.132C272.385 257.198 273.938 251.448 270.843 246.375Z" fill="#EFEFEF"/>
<path d="M225.024 291.375C225.024 285.624 220.498 281.229 214.319 281.229C208.139 281.229 203.613 285.624 203.613 291.375C203.613 297.126 208.139 301.521 214.319 301.521C220.498 301.521 225.024 296.448 225.024 291.375Z" fill="#EFEFEF"/>
<path d="M54.9673 202.17C61.0352 205.103 67.9412 203.631 71.7518 197.774C74.8472 192.024 73.294 185.479 67.226 181.867C61.1581 178.934 54.2521 180.406 50.4415 186.262C47.3461 192.013 49.6034 199.342 54.9673 202.17Z" fill="#EFEFEF"/>
<path d="M37.3569 263.182C38.899 267.578 43.4248 270.405 48.0623 268.933C52.5881 267.472 55.6835 263.182 54.1302 258.787C52.5881 254.392 48.0623 251.564 43.4248 253.037C38.899 254.392 36.6417 258.787 37.3569 263.182Z" fill="#EFEFEF"/>
<path d="M61.7507 238.252C61.7507 232.501 57.2249 228.106 51.0453 228.106C44.8656 228.106 40.3398 232.501 40.3398 238.252C40.3398 244.003 44.8656 248.398 51.0453 248.398C57.2249 248.398 61.7507 244.108 61.7507 238.252Z" fill="#EFEFEF"/>
<path d="M77.6981 219.644C79.2403 213.893 75.4408 207.348 69.25 205.886C63.1821 204.425 56.2761 208.026 54.734 213.893C53.1919 219.644 56.9913 226.189 63.1821 227.65C69.25 229.79 76.156 226.072 77.6981 219.644Z" fill="#EFEFEF"/>
<path d="M68.7485 136.846C62.6806 139.78 61.1273 146.992 64.2227 152.753C67.3181 158.504 74.9281 159.976 81.0072 157.148C87.0751 154.215 88.6284 147.003 85.533 141.241C82.4376 135.374 74.8276 133.235 68.7485 136.846Z" fill="#EFEFEF"/>
<path d="M83.1736 113.07C77.1057 114.531 72.4682 121.076 74.7255 126.827C76.2676 132.578 83.1736 136.973 89.2415 134.833C95.3094 133.372 99.9469 126.827 97.6896 121.076C96.8515 115.209 90.0684 111.597 83.1736 113.07Z" fill="#EFEFEF"/>
<path d="M114.588 304.454C118.398 308.065 125.293 308.065 129.819 304.454C133.629 300.842 133.629 294.308 129.819 289.902C126.008 286.291 119.113 286.291 114.588 289.902C109.95 293.513 109.95 300.048 114.588 304.454Z" fill="#EFEFEF"/>
<path d="M179.21 320.361C180.752 315.966 177.668 310.882 173.142 310.215C168.617 308.754 163.264 311.677 162.437 315.966C160.895 320.361 163.979 325.445 168.505 326.112C173.142 327.573 178.506 325.434 179.21 320.361Z" fill="#EFEFEF"/>
<path d="M156.947 321.939C153.137 321.261 149.326 323.401 147.784 327.012C147.069 330.624 149.326 334.235 153.137 335.697C156.947 336.374 160.758 334.235 162.3 330.624C163.138 327.012 160.758 323.401 156.947 321.939Z" fill="#EFEFEF"/>
<path d="M226.691 322.617C225.975 319.683 222.88 318.222 219.785 319.005C216.689 319.683 215.259 322.617 215.974 325.55C216.689 328.484 219.785 329.946 222.88 329.162C225.137 328.368 227.518 325.55 226.691 322.617Z" fill="#EFEFEF"/>
<path d="M181.466 328.369C178.371 328.369 175.398 330.508 175.398 334.119C175.398 337.053 177.656 339.87 181.466 339.87C184.562 339.87 187.534 337.731 187.534 334.119C186.696 331.186 184.439 328.369 181.466 328.369Z" fill="#EFEFEF"/>
<path d="M193.727 318.222C189.916 318.222 186.105 321.156 186.105 325.445C186.105 329.734 189.201 332.668 193.727 332.668C197.537 332.668 201.348 329.734 201.348 325.445C201.348 321.834 197.537 318.222 193.727 318.222Z" fill="#EFEFEF"/>
<path d="M142.556 329.152C139.46 328.474 136.488 329.829 135.65 332.763C134.935 335.697 136.365 338.514 139.46 339.308C142.556 340.102 145.528 338.63 146.366 335.697C147.205 332.763 145.651 329.829 142.556 329.152Z" fill="#EFEFEF"/>
<path d="M76.0325 302.198C72.9371 305.132 72.9371 309.421 76.0325 312.344C79.1279 315.278 83.6537 315.278 86.7379 312.344C89.8333 309.411 89.8333 305.121 86.7379 302.198C83.7654 299.265 79.1167 299.265 76.0325 302.198Z" fill="#EFEFEF"/>
<path d="M65.5606 279.079C61.0348 281.218 59.4926 286.302 62.4651 290.697C64.7224 295.092 70.0863 295.77 74.7239 293.63C79.2497 291.491 80.7918 286.408 77.8193 282.012C74.7239 277.723 70.0863 276.94 65.5606 279.079Z" fill="#EFEFEF"/>
<path d="M104.472 319.568C101.376 318.106 98.4039 318.89 96.8506 321.707C95.3085 324.641 96.1354 327.458 99.1079 328.93C102.203 330.391 105.176 329.608 106.729 326.791C108.271 323.857 106.729 320.923 104.472 319.568Z" fill="#EFEFEF"/>
<path d="M120.651 316.867C116.841 314.727 113.03 316.189 110.773 319.8C108.515 323.412 110.058 327.023 113.868 329.279C117.679 331.418 121.489 329.957 123.747 326.345C125.289 322.628 123.747 319.017 120.651 316.867Z" fill="#EFEFEF"/>
<path d="M142.557 320.362C144.814 315.967 143.272 310.883 139.461 308.744C135.651 306.604 129.583 308.066 127.202 311.677C124.945 316.072 126.487 321.156 130.298 323.295C134.108 326.229 139.461 324.757 142.557 320.362Z" fill="#EFEFEF"/>
<path d="M93.8775 299.159C90.0669 302.77 90.0669 307.843 93.8775 311.455C97.6881 315.066 103.041 314.388 106.136 311.455C109.947 307.843 109.947 302.77 106.136 299.159C103.041 296.342 97.6881 296.342 93.8775 299.159Z" fill="#EFEFEF"/>
<path d="M61.8727 301.637C59.6154 303.777 59.6154 307.388 61.8727 309.644C64.13 311.783 67.9406 311.783 70.3208 309.644C72.5781 307.504 72.5781 303.893 70.3208 301.637C67.9406 299.498 64.13 299.498 61.8727 301.637Z" fill="#EFEFEF"/>
<path d="M292.254 258.11C289.158 255.176 284.632 255.176 281.548 258.11C278.453 261.044 278.453 265.333 281.548 268.256C284.644 271.189 289.169 271.189 292.254 268.256C295.349 265.322 295.349 260.927 292.254 258.11Z" fill="#EFEFEF"/>
<path d="M304.635 216.604C306.892 212.209 305.35 207.125 301.539 204.986C297.013 202.847 291.661 204.308 289.281 207.92C287.023 212.315 288.565 217.398 292.376 219.538C297.013 221.677 302.377 220.215 304.635 216.604Z" fill="#EFEFEF"/>
<path d="M280.709 273.328C278.451 275.467 278.451 279.079 280.709 281.335C282.966 283.474 286.777 283.474 289.157 281.335C291.414 279.195 291.414 275.584 289.157 273.328C286.061 271.189 282.966 271.189 280.709 273.328Z" fill="#EFEFEF"/>
<path d="M306.891 223.255C303.08 221.116 299.27 222.578 297.012 226.189C294.755 229.8 296.297 233.412 299.27 235.668C303.08 237.807 306.891 236.346 309.148 233.528C311.405 229.017 310.69 225.405 306.891 223.266V223.255Z" fill="#EFEFEF"/>
<path d="M316.536 201.492C313.441 200.814 310.468 202.17 309.63 205.103C308.915 208.037 310.345 210.854 313.441 211.648C316.536 212.326 319.509 210.971 320.347 208.037C321.889 205.103 319.632 202.286 316.536 201.492Z" fill="#EFEFEF"/>
<path d="M237.288 310.883C236.573 307.271 231.936 305.132 228.125 305.81C224.314 306.488 222.057 310.883 222.772 314.494C223.487 318.106 228.125 320.245 231.936 319.567C236.573 318.106 238.842 314.494 237.288 310.883Z" fill="#EFEFEF"/>
<path d="M307.484 239.046C304.388 237.585 301.416 238.368 299.862 241.186C298.32 244.119 299.147 246.936 302.12 248.408C305.215 249.87 308.188 249.086 309.741 246.269C311.283 243.335 310.456 240.518 307.484 239.046Z" fill="#EFEFEF"/>
<path d="M291.539 250.664C295.35 247.053 295.35 241.98 291.539 238.368C287.728 234.757 282.376 234.757 278.565 238.368C274.754 241.98 274.754 247.053 278.565 250.664C282.376 253.598 288.566 253.598 291.539 250.664Z" fill="#EFEFEF"/>
<path d="M253.344 300.175C250.248 301.637 249.533 305.248 251.086 307.398C252.628 310.332 256.439 311.009 258.707 309.537C261.803 308.076 262.518 304.464 260.965 302.314C259.423 299.381 255.612 298.703 253.344 300.175Z" fill="#EFEFEF"/>
<path d="M251.089 271.75C249.547 266.677 243.468 263.066 238.115 264.527C232.763 265.989 228.952 271.75 230.494 276.823C232.036 281.896 238.115 285.507 243.468 284.046C249.659 282.69 252.631 276.823 251.089 271.75Z" fill="#EFEFEF"/>
<path d="M247.398 293.631C245.856 289.235 241.33 286.408 236.692 287.88C232.167 289.341 229.071 293.631 230.624 298.026C232.167 302.421 236.692 305.249 241.33 303.776C245.856 303.099 248.113 298.703 247.398 293.631Z" fill="#EFEFEF"/>
<path d="M258.697 285.74C254.886 287.88 254.171 292.285 255.601 295.219C257.859 298.83 262.507 299.614 265.48 298.153C269.29 296.013 270.006 292.402 268.575 288.674C266.318 284.279 261.792 283.485 258.697 285.74Z" fill="#EFEFEF"/>
<path d="M260.963 265.883C256.437 268.022 254.895 273.106 257.867 277.501C260.125 281.896 265.489 283.252 270.126 280.435C274.652 278.295 276.194 273.212 273.222 268.817C270.964 265.099 265.6 263.627 260.963 265.883Z" fill="#EFEFEF"/>
<path d="M95.1976 52.0568C95.9128 54.9904 99.0082 56.4519 102.104 55.6682C105.199 54.9904 106.629 52.0568 105.914 49.1232C105.199 46.1895 102.104 44.728 99.0082 45.5117C95.9128 46.306 94.3707 49.2291 95.1976 52.0568Z" fill="#EFEFEF"/>
<path d="M93.1778 68.8533C96.9884 68.1755 99.2457 63.7803 98.5305 60.1689C97.8153 56.5575 93.1778 54.4181 89.3672 55.096C85.5566 55.7738 83.2993 60.1689 84.0145 63.7803C85.5566 67.3917 89.3672 69.5311 93.1778 68.8533Z" fill="#EFEFEF"/>
<path d="M63.3041 89.8336C67.1147 87.6943 67.8299 83.2885 66.3995 80.3549C64.8574 77.4213 59.4935 75.9598 56.521 77.4213C52.7104 79.5606 51.9952 83.172 53.4256 86.9C54.856 90.6173 59.4935 91.2951 63.3041 89.8336Z" fill="#EFEFEF"/>
<path d="M74.6021 80.927C76.1443 85.3222 80.67 88.1499 85.3076 86.6778C89.8334 85.2163 92.9288 80.927 91.3755 76.5319C89.8334 72.1368 85.3076 69.309 80.67 70.7811C76.0325 71.5754 73.0488 75.8541 74.6021 80.927Z" fill="#EFEFEF"/>
<path d="M68.5356 74.6154C71.631 73.1539 72.3461 69.5425 70.7929 67.3926C69.2507 64.459 65.4401 63.7812 63.1717 65.2533C60.0762 66.7148 59.3611 70.3262 60.9144 72.4761C62.4565 75.2932 65.5519 76.0875 68.5356 74.6154Z" fill="#EFEFEF"/>
<path d="M41.2896 101.452C43.5469 99.3125 43.5469 95.7011 41.2896 93.4453C39.0322 91.306 35.2216 91.306 32.8414 93.4453C30.5841 95.5846 30.5841 99.1961 32.8414 101.452C35.0987 103.708 38.9093 103.708 41.2896 101.452Z" fill="#EFEFEF"/>
<path d="M22.719 218.743C22.719 215.132 19.6235 211.521 15.0978 211.521C11.2872 211.521 7.47656 214.454 7.47656 218.743C7.47656 222.355 10.572 225.966 15.0978 225.966C19.6235 225.966 22.719 222.355 22.719 218.743Z" fill="#EFEFEF"/>
<path d="M12.1358 207.126C12.1358 204.192 9.8785 201.375 6.0679 201.375C2.97249 201.375 0 203.514 0 207.126C0 210.059 2.2573 212.199 6.0679 212.199C9.8785 212.199 12.1358 210.059 12.1358 207.126Z" fill="#EFEFEF"/>
<path d="M4.63622 173.744C7.73163 174.422 10.7041 173.066 11.5422 170.133C12.2574 167.199 10.827 164.382 7.73163 163.588C4.63622 162.91 1.66373 164.265 0.825617 167.199C0.110431 169.455 1.5408 173.066 4.63622 173.744Z" fill="#EFEFEF"/>
<path d="M13.5551 135.395C16.6505 136.857 19.623 136.073 21.1763 133.256C22.7184 130.322 21.8914 127.505 18.919 126.033C15.8235 124.571 12.851 125.355 11.2978 128.172C9.75563 131.106 11.2978 134.04 13.5551 135.395Z" fill="#EFEFEF"/>
<path d="M34.1482 273.328C31.0528 274.789 30.3376 278.401 31.8909 280.551C33.433 283.484 37.2436 284.162 39.5121 282.69C42.6075 281.229 43.3227 277.617 41.7694 275.467C40.2273 272.534 37.2436 271.856 34.1482 273.328Z" fill="#EFEFEF"/>
<path d="M21.8899 242.657C21.1747 239.724 18.0793 238.262 14.9839 239.046C11.8885 239.724 10.4581 242.657 11.1733 245.591C11.8885 248.525 14.9839 249.986 18.0793 249.202C21.1747 248.525 23.432 245.591 21.8899 242.657Z" fill="#EFEFEF"/>
<path d="M35.6906 251.564C34.9755 247.953 30.3379 245.814 26.5273 246.491C22.7167 247.169 20.4594 251.564 21.1746 255.176C21.8898 258.787 26.5273 260.927 30.3379 260.249C34.1485 259.571 36.5288 255.176 35.6906 251.564Z" fill="#EFEFEF"/>
<path d="M12.136 141.824C9.8787 145.435 11.4208 149.047 15.2314 151.303C19.042 153.442 22.8526 151.981 25.1099 148.369C27.3672 144.758 25.8251 141.146 22.0145 138.89C18.2039 137.535 13.6893 139.007 12.136 141.824Z" fill="#EFEFEF"/>
<path d="M48.1851 277.501C44.3745 279.64 43.6593 284.046 45.0897 286.979C47.347 290.591 51.9957 291.374 54.9682 289.119C58.7788 286.979 59.4939 282.574 58.0636 279.64C55.8063 276.823 51.2805 275.351 48.1851 277.501Z" fill="#EFEFEF"/>
<path d="M39.3786 116.787C42.474 113.853 42.474 109.564 39.3786 106.641C36.2831 103.708 31.7574 103.708 28.6731 106.641C25.5777 109.575 25.5777 113.864 28.6731 116.787C31.7685 119.604 36.4061 119.604 39.3786 116.787Z" fill="#EFEFEF"/>
<path d="M60.3208 108.559C64.8466 106.419 66.3887 101.336 63.4162 96.9406C61.1589 92.5455 55.795 91.1899 51.1575 94.007C46.6317 96.1463 45.8047 101.23 48.062 105.625C51.1575 109.236 56.5102 110.698 60.3208 108.559Z" fill="#EFEFEF"/>
<path d="M64.0427 143.285C48.2863 139.26 32.5299 135.236 16.7734 131.201L64.0427 143.285Z" fill="#E8E8E8"/>
<path d="M64.0427 143.285C48.2863 139.26 32.5299 135.236 16.7734 131.201" stroke="#E8E8E8" stroke-width="0.5" stroke-miterlimit="10"/>
<path d="M59.5078 182.598C59.776 164.795 60.0554 147.003 60.3236 129.2L59.5078 182.598Z" fill="#E8E8E8"/>
<path d="M59.5078 182.598C59.776 164.795 60.0554 147.003 60.3236 129.2" stroke="#E8E8E8" stroke-width="0.59" stroke-miterlimit="10"/>
<path d="M308.762 189.334C296.626 172.23 284.479 155.126 272.332 138.022L308.762 189.334Z" fill="#E8E8E8"/>
<path d="M308.762 189.334C296.626 172.23 284.479 155.126 272.332 138.022" stroke="#E8E8E8" stroke-width="0.59" stroke-miterlimit="10"/>
<path d="M133.621 283.209C110.433 284.554 87.2457 285.889 64.0469 287.234L133.621 283.209Z" fill="#E8E8E8"/>
<path d="M133.621 283.209C110.433 284.554 87.2457 285.889 64.0469 287.234" stroke="#E8E8E8" stroke-width="0.59" stroke-miterlimit="10"/>
<path d="M216.457 264.083C231.331 260.895 246.193 257.707 261.067 254.52L216.457 264.083Z" fill="#E8E8E8"/>
<path d="M216.457 264.083C231.331 260.895 246.193 257.707 261.067 254.52" stroke="#E8E8E8" stroke-width="0.59" stroke-miterlimit="10"/>
<path d="M193.09 325.995C199.817 316.432 206.544 306.869 213.271 297.305L193.09 325.995Z" fill="#E8E8E8"/>
<path d="M193.09 325.995C199.817 316.432 206.544 306.869 213.271 297.305" stroke="#E8E8E8" stroke-width="0.59" stroke-miterlimit="10"/>
<path d="M85.8137 117.624L82.6289 81.8911L85.8137 117.624Z" fill="#E8E8E8"/>
<path d="M85.8137 117.624L82.6289 81.8911" stroke="#E8E8E8" stroke-width="0.59" stroke-miterlimit="10"/>
<path d="M58.7397 186.58C51.1297 162.92 43.5196 139.271 35.8984 115.611L58.7397 186.58Z" fill="#E8E8E8"/>
<path d="M58.7397 186.58C51.1297 162.92 43.5196 139.271 35.8984 115.611" stroke="#E8E8E8" stroke-width="0.59" stroke-miterlimit="10"/>
<path d="M60.8603 215.768C45.6738 216.7 30.4873 217.621 15.3008 218.553L60.8603 215.768Z" fill="#E8E8E8"/>
<path d="M60.8603 215.768C45.6738 216.7 30.4873 217.621 15.3008 218.553" stroke="#E8E8E8" stroke-width="0.59" stroke-miterlimit="10"/>
<path d="M86.3488 255.028C75.554 249.828 64.748 244.628 53.9531 239.428L86.3488 255.028Z" fill="#E8E8E8"/>
<path d="M86.3488 255.028C75.554 249.828 64.748 244.628 53.9531 239.428" stroke="#E8E8E8" stroke-width="0.59" stroke-miterlimit="10"/>
<path d="M153.802 327.5C143.532 318.275 133.262 309.04 123.004 299.815L153.802 327.5Z" fill="#E8E8E8"/>
<path d="M153.802 327.5C143.532 318.275 133.262 309.04 123.004 299.815" stroke="#E8E8E8" stroke-width="0.59" stroke-miterlimit="10"/>
<path d="M112.508 142.343H134.6C149.608 142.343 156.972 150.233 156.972 164.7V173.617C156.972 188.095 149.608 195.974 134.6 195.974H127.504V232.809H112.508V142.322V142.343ZM134.6 183.054C139.372 183.054 141.965 180.988 141.965 174.517V163.789C141.965 157.329 139.372 155.253 134.6 155.253H127.504V183.043H134.6V183.054Z" stroke="#D8D8D8" stroke-width="0.97" stroke-miterlimit="10"/>
<path d="M165.152 142.343H187.379C202.923 142.343 209.606 149.195 209.606 163.154V168.714C209.606 178.023 206.465 183.964 199.783 186.549V186.803C207.281 188.995 209.74 195.72 209.74 205.929V221.826C209.74 226.221 209.874 229.451 211.382 232.809H196.106C195.291 230.479 194.743 229.06 194.743 221.688V205.146C194.743 196.747 192.151 194.026 185.334 194.026H180.149V232.809H165.152V142.322V142.343ZM185.602 181.115C191.19 181.115 194.598 178.786 194.598 171.552V164.573C194.598 158.113 192.274 155.264 186.966 155.264H180.149V181.115H185.602Z" stroke="#D8D8D8" stroke-width="0.97" stroke-miterlimit="10"/>
<path d="M118.242 23.1769V49.8019L158.762 27.6356L199.282 49.8019V23.1769L158.762 1L118.242 23.1769Z" stroke="#D8D8D8" stroke-width="0.79" stroke-miterlimit="10"/>
<path d="M118.242 60.922V87.547L158.762 65.3807L199.282 87.547V60.922L158.762 38.7451L118.242 60.922Z" stroke="#D8D8D8" stroke-width="0.79" stroke-miterlimit="10"/>
<path d="M118.242 103.571V130.207L158.762 108.03L199.282 130.207V103.571L158.762 81.4048L118.242 103.571Z" stroke="#D8D8D8" stroke-width="0.79" stroke-miterlimit="10"/>
<path d="M246.553 178.532C246.497 178.415 246.385 178.33 246.195 178.352C242.53 178.818 238.898 179.464 235.3 180.29C234.227 176.435 233.143 172.59 232.07 168.735C231.958 168.333 231.422 168.407 231.277 168.735C229.511 172.76 227.746 176.784 225.991 180.798C222.192 179.982 218.403 179.167 214.604 178.352C214.213 178.267 213.911 178.712 214.202 178.998L223.007 187.449C223.075 187.512 223.142 187.544 223.209 187.555C223.097 187.587 222.996 187.671 222.952 187.798L220.84 193.592C220.493 194.545 220.147 195.498 219.8 196.451C219.487 197.33 219.052 198.22 219.23 199.162C219.275 199.416 219.622 199.512 219.834 199.395C223.846 197.224 227.6 194.608 230.997 191.632C230.997 191.632 230.997 191.632 231.009 191.643C232.662 193.306 234.361 194.915 236.104 196.493C236.965 197.267 237.836 198.04 238.719 198.792C239.513 199.469 240.317 200.285 241.39 200.55C241.714 200.624 241.949 200.359 241.893 200.073C241.088 196.133 240.094 192.215 238.92 188.36C240.675 186.686 242.385 184.95 244.016 183.17C244.798 182.323 245.603 181.476 246.307 180.565C246.62 180.163 246.921 179.718 247.067 179.231C247.178 178.849 246.91 178.521 246.53 178.51L246.553 178.532ZM242.63 183.52C241.211 185.034 239.747 186.496 238.25 187.926C238.138 188.031 238.116 188.159 238.138 188.264C238.105 188.339 238.105 188.413 238.138 188.508C239.244 192.151 240.183 195.837 240.965 199.554C240.239 199.173 239.624 198.516 239.032 198.008C238.172 197.267 237.322 196.515 236.473 195.752C234.808 194.238 233.188 192.691 231.601 191.103C231.444 190.944 231.232 190.965 231.087 191.06C230.942 190.912 230.696 190.849 230.495 191.029C227.299 193.835 223.79 196.313 220.035 198.4C220.08 198.135 220.169 197.87 220.258 197.616C220.415 197.182 220.571 196.737 220.739 196.303C221.074 195.371 221.409 194.439 221.756 193.517L223.756 188.01C223.857 187.745 223.656 187.565 223.421 187.544C223.667 187.46 223.846 187.142 223.6 186.898C220.996 184.399 218.381 181.899 215.777 179.4C219.119 180.12 222.46 180.83 225.801 181.55C225.924 181.571 226.025 181.55 226.103 181.508C226.304 181.561 226.561 181.508 226.662 181.275C228.304 177.525 229.947 173.787 231.59 170.038L234.585 180.766C234.652 180.999 234.875 181.073 235.065 181.031C235.143 181.073 235.244 181.095 235.367 181.073C238.898 180.247 242.463 179.601 246.061 179.146C246.083 179.209 246.128 179.262 246.184 179.294C245.849 180.025 245.256 180.629 244.72 181.232C244.038 182.005 243.334 182.768 242.63 183.52Z" fill="#E8E8E8"/>
<path d="M103.953 91.6347C103.875 91.5923 103.785 91.5923 103.707 91.6664C102.053 93.1915 100.477 94.8013 99.0023 96.4852C96.9462 94.9284 94.89 93.3821 92.8339 91.8253C92.6215 91.6664 92.3757 91.8888 92.4427 92.1007C93.1356 94.7377 93.8396 97.3854 94.5324 100.023C92.3087 100.954 90.0849 101.886 87.8611 102.818C87.6264 102.914 87.6599 103.242 87.917 103.284L95.6611 104.407C95.717 104.407 95.7617 104.407 95.8064 104.386C95.7617 104.439 95.7505 104.513 95.7728 104.598L96.9909 108.251C97.192 108.855 97.3932 109.459 97.5943 110.052C97.7843 110.603 97.9072 111.206 98.3654 111.609C98.4883 111.715 98.7006 111.64 98.7565 111.513C99.9187 109.003 100.768 106.366 101.304 103.676C102.791 103.92 104.277 104.132 105.763 104.312C106.501 104.396 107.238 104.471 107.987 104.545C108.657 104.608 109.373 104.735 110.021 104.481C110.211 104.407 110.233 104.185 110.088 104.068C108.132 102.374 106.098 100.764 103.986 99.2388C104.21 97.7773 104.377 96.3052 104.5 94.8331C104.556 94.1341 104.623 93.4245 104.623 92.7149C104.623 92.4078 104.59 92.0689 104.478 91.7829C104.389 91.5499 104.12 91.4758 103.93 91.6135L103.953 91.6347ZM103.953 95.5215C103.841 96.7817 103.685 98.0315 103.483 99.2812C103.472 99.3765 103.506 99.44 103.562 99.493C103.573 99.5353 103.606 99.5777 103.651 99.6201C105.64 101.06 107.562 102.575 109.417 104.163C108.903 104.227 108.333 104.111 107.842 104.068C107.115 104.005 106.389 103.92 105.674 103.835C104.243 103.666 102.824 103.464 101.405 103.221C101.26 103.2 101.17 103.274 101.137 103.38C101.003 103.359 100.857 103.412 100.824 103.57C100.332 106.112 99.5387 108.59 98.4771 110.963C98.3989 110.814 98.343 110.645 98.2872 110.486C98.1978 110.211 98.0972 109.935 98.0078 109.66C97.8066 109.078 97.6167 108.484 97.4155 107.902L96.2533 104.439C96.1975 104.269 96.0298 104.259 95.9069 104.322C95.9963 104.195 95.9628 103.973 95.7393 103.941C93.4485 103.613 91.1577 103.274 88.8668 102.946C90.8224 102.119 92.7892 101.304 94.7447 100.478C94.8118 100.446 94.8565 100.404 94.8788 100.351C95.0018 100.308 95.1023 100.192 95.0688 100.033C94.4207 97.5761 93.7725 95.119 93.1244 92.662L98.8459 96.983C98.9688 97.0783 99.1141 97.0359 99.1923 96.9406C99.2482 96.9406 99.3152 96.9088 99.3599 96.8559C100.801 95.2037 102.344 93.6151 103.964 92.1113C103.997 92.1324 104.042 92.143 104.087 92.143C104.199 92.6302 104.143 93.1386 104.109 93.6363C104.065 94.2612 104.02 94.8966 103.964 95.5215H103.953Z" fill="#E8E8E8"/>
<path d="M31.1911 191.791C31.1128 191.749 31.0234 191.749 30.9452 191.823C29.2913 193.348 27.7157 194.958 26.2406 196.641C24.1845 195.085 22.1283 193.538 20.0721 191.982C19.8598 191.823 19.614 192.045 19.681 192.257C20.3739 194.894 21.0779 197.542 21.7707 200.179C19.5469 201.111 17.3232 202.043 15.0994 202.975C14.8647 203.07 14.8982 203.398 15.1552 203.441L22.8994 204.563C22.9552 204.563 22.9999 204.563 23.0446 204.542C22.9999 204.595 22.9888 204.669 23.0111 204.754L24.2292 208.408C24.4303 209.011 24.6315 209.615 24.8326 210.208C25.0226 210.759 25.1455 211.363 25.6037 211.765C25.7266 211.871 25.9389 211.797 25.9948 211.67C27.157 209.16 28.0062 206.523 28.5426 203.833C30.0289 204.076 31.5151 204.288 33.0014 204.468C33.7389 204.553 34.4764 204.627 35.2251 204.701C35.8956 204.765 36.6108 204.892 37.259 204.637C37.4489 204.563 37.4713 204.341 37.326 204.224C35.3704 202.53 33.3366 200.92 31.2246 199.395C31.4481 197.934 31.6157 196.461 31.7386 194.989C31.7945 194.29 31.8615 193.581 31.8615 192.871C31.8615 192.564 31.828 192.225 31.7163 191.939C31.6269 191.706 31.3587 191.632 31.1687 191.77L31.1911 191.791ZM31.1911 195.688C31.0793 196.949 30.9229 198.198 30.7217 199.448C30.7105 199.543 30.7441 199.607 30.7999 199.66C30.8111 199.702 30.8446 199.745 30.8893 199.787C32.8784 201.227 34.8005 202.742 36.6555 204.33C36.1415 204.394 35.5716 204.277 35.0799 204.235C34.3535 204.171 33.6272 204.087 32.912 204.002C31.4816 203.833 30.0624 203.631 28.6432 203.388C28.4979 203.367 28.4085 203.441 28.375 203.547C28.2409 203.525 28.0956 203.578 28.0621 203.737C27.5704 206.279 26.777 208.757 25.7154 211.13C25.6372 210.981 25.5813 210.812 25.5254 210.653C25.436 210.378 25.3355 210.102 25.2461 209.827C25.0449 209.244 24.855 208.651 24.6538 208.069L23.4916 204.606C23.4358 204.436 23.2681 204.426 23.1452 204.489C23.2346 204.362 23.2011 204.14 22.9776 204.108C20.6868 203.78 18.3959 203.441 16.1051 203.112C18.0607 202.286 20.0274 201.471 21.983 200.645C22.0501 200.613 22.0948 200.571 22.1171 200.518C22.2401 200.475 22.3406 200.359 22.3071 200.2C21.659 197.743 21.0108 195.286 20.3627 192.829L26.0842 197.15C26.2071 197.245 26.3524 197.203 26.4306 197.107C26.4865 197.107 26.5535 197.076 26.5982 197.023C28.0398 195.371 29.5819 193.782 31.2022 192.278C31.2358 192.299 31.2804 192.31 31.3251 192.31C31.4369 192.797 31.381 193.305 31.3475 193.803C31.3028 194.428 31.2581 195.063 31.2022 195.688H31.1911Z" fill="#E8E8E8"/>
<path d="M145.467 238.761C145.389 238.718 145.288 238.718 145.199 238.803C143.433 240.434 141.757 242.15 140.181 243.95C137.991 242.298 135.801 240.635 133.599 238.983C133.365 238.814 133.119 239.047 133.175 239.28C133.923 242.097 134.661 244.914 135.41 247.731C133.04 248.727 130.66 249.722 128.291 250.718C128.045 250.824 128.068 251.173 128.347 251.216L136.605 252.412C136.661 252.412 136.717 252.412 136.762 252.391C136.717 252.455 136.695 252.529 136.728 252.624L138.036 256.521C138.248 257.167 138.46 257.803 138.684 258.449C138.885 259.042 139.019 259.677 139.511 260.112C139.645 260.228 139.868 260.154 139.935 260.006C141.176 257.326 142.081 254.52 142.651 251.639C142.651 251.639 142.651 251.639 142.662 251.639C144.249 251.904 145.836 252.126 147.422 252.317C148.216 252.412 148.998 252.486 149.791 252.561C150.507 252.624 151.278 252.762 151.959 252.497C152.161 252.423 152.183 252.179 152.026 252.052C149.937 250.241 147.769 248.525 145.523 246.894C145.757 245.338 145.947 243.77 146.07 242.192C146.126 241.44 146.204 240.688 146.204 239.936C146.204 239.608 146.171 239.248 146.048 238.941C145.947 238.697 145.668 238.613 145.467 238.761ZM145.456 242.912C145.333 244.257 145.165 245.592 144.964 246.926C144.953 247.022 144.986 247.106 145.053 247.149C145.065 247.202 145.098 247.244 145.154 247.286C147.277 248.822 149.322 250.432 151.3 252.126C150.753 252.19 150.149 252.073 149.613 252.031C148.842 251.957 148.071 251.872 147.3 251.787C145.78 251.607 144.26 251.385 142.74 251.141C142.584 251.12 142.483 251.205 142.45 251.311C142.316 251.29 142.148 251.353 142.114 251.512C141.589 254.223 140.74 256.86 139.611 259.402C139.522 259.243 139.466 259.063 139.41 258.894C139.31 258.597 139.209 258.301 139.12 258.015C138.907 257.39 138.706 256.765 138.494 256.14L137.253 252.444C137.198 252.264 137.008 252.243 136.873 252.317C136.974 252.179 136.929 251.946 136.695 251.904C134.247 251.544 131.8 251.194 129.364 250.834C131.454 249.955 133.543 249.087 135.633 248.208C135.711 248.176 135.756 248.123 135.778 248.07C135.912 248.028 136.013 247.901 135.979 247.731C135.287 245.105 134.594 242.489 133.901 239.862L140.014 244.48C140.148 244.586 140.293 244.533 140.382 244.437C140.449 244.437 140.505 244.406 140.561 244.342C142.103 242.574 143.746 240.879 145.478 239.28C145.523 239.301 145.556 239.312 145.601 239.312C145.724 239.831 145.668 240.381 145.634 240.9C145.59 241.567 145.534 242.245 145.478 242.912H145.456Z" fill="#E8E8E8"/>
</svg>
