<svg width="18" height="19" viewBox="0 0 18 19" fill="none" xmlns="http://www.w3.org/2000/svg">
<path d="M5.01562 8.46875C6.64659 8.46875 7.96875 7.14659 7.96875 5.51562C7.96875 3.88466 6.64659 2.5625 5.01562 2.5625C3.38466 2.5625 2.0625 3.88466 2.0625 5.51562C2.0625 7.14659 3.38466 8.46875 5.01562 8.46875Z" stroke="#01CC90"/>
<path d="M5.01562 16.4375C6.64659 16.4375 7.96875 15.1153 7.96875 13.4844C7.96875 11.8534 6.64659 10.5312 5.01562 10.5312C3.38466 10.5312 2.0625 11.8534 2.0625 13.4844C2.0625 15.1153 3.38466 16.4375 5.01562 16.4375Z" stroke="#01CC90"/>
<path d="M12.9844 16.4375C14.6153 16.4375 15.9375 15.1153 15.9375 13.4844C15.9375 11.8534 14.6153 10.5312 12.9844 10.5312C11.3534 10.5312 10.0312 11.8534 10.0312 13.4844C10.0312 15.1153 11.3534 16.4375 12.9844 16.4375Z" stroke="#01CC90"/>
<path d="M10.5938 3.125L12.9844 5.51562M12.9844 5.51562L15.375 7.90625M12.9844 5.51562L15.375 3.125M12.9844 5.51562L10.5938 7.90625" stroke="#01CC90" stroke-linecap="round"/>
</svg>
