<svg width="7" height="10" viewBox="0 0 7 10" fill="none" xmlns="http://www.w3.org/2000/svg">
<g clip-path="url(#clip0_5241_104996)">
<path d="M2.83925 0.872726C2.88485 0.804332 2.94664 0.748254 3.01912 0.709469C3.0916 0.670684 3.17253 0.650391 3.25473 0.650391C3.33694 0.650391 3.41787 0.670684 3.49035 0.709469C3.56283 0.748254 3.62461 0.804332 3.67021 0.872726L5.90044 4.21756C5.95048 4.29276 5.97919 4.38013 5.9835 4.47035C5.98782 4.56058 5.96758 4.65029 5.92495 4.72992C5.88231 4.80956 5.81887 4.87613 5.74139 4.92257C5.66391 4.969 5.57528 4.99355 5.48495 4.99359H1.02451C0.934181 4.99355 0.845555 4.969 0.768073 4.92257C0.690591 4.87613 0.627154 4.80956 0.584518 4.72992C0.541882 4.65029 0.521645 4.56058 0.525961 4.47035C0.530277 4.38013 0.558986 4.29276 0.609028 4.21756L2.83925 0.872726Z" fill="#119B56"/>
<path d="M3.25488 2.75396L3.25488 9.08008" stroke="#119B56" stroke-width="1.49813"/>
</g>
<defs>
<clipPath id="clip0_5241_104996">
<rect width="6.32612" height="8.83" fill="white" transform="translate(0.0917969 0.25)"/>
</clipPath>
</defs>
</svg>
