<svg width="14" height="15" viewBox="0 0 14 15" fill="none" xmlns="http://www.w3.org/2000/svg">
<path d="M7.30914 10.3714L11.879 5.27143C11.9597 5.17619 12 5.07143 12 4.95714C12 4.84286 11.9597 4.7381 11.879 4.64286V4.62857C11.7984 4.54286 11.7021 4.5 11.5901 4.5C11.478 4.5 11.3817 4.54286 11.3011 4.62857L7 9.42857L2.69893 4.62857C2.61828 4.54286 2.52195 4.5 2.40995 4.5C2.29794 4.5 2.20161 4.54286 2.12097 4.62857V4.64286C2.04032 4.7381 2 4.84286 2 4.95714C2 5.07143 2.04032 5.17619 2.12097 5.27143L6.69086 10.3714C6.77151 10.4571 6.87455 10.5 7 10.5C7.12545 10.5 7.22849 10.4571 7.30914 10.3714Z" fill="#CECECE"/>
</svg>
