<svg width="12" height="12" viewBox="0 0 12 12" fill="none" xmlns="http://www.w3.org/2000/svg">
<path d="M6.00006 10.3199C8.45219 10.3199 10.4401 8.33207 10.4401 5.87994C10.4401 3.4278 8.45219 1.43994 6.00006 1.43994C3.54792 1.43994 1.56006 3.4278 1.56006 5.87994C1.56006 8.33207 3.54792 10.3199 6.00006 10.3199Z" stroke="#2EA8AF" stroke-width="1.5" stroke-linecap="round" stroke-linejoin="round"/>
<path d="M6.44703 3.91199C6.44448 4.02827 6.3962 4.13887 6.31263 4.21975C6.22901 4.30064 6.11688 4.34526 6.00058 4.34397C5.91581 4.34114 5.83378 4.31344 5.76466 4.26428C5.69549 4.21513 5.6424 4.1467 5.61192 4.06755C5.5814 3.98841 5.57487 3.90203 5.59316 3.8192C5.6114 3.73637 5.65364 3.66078 5.7146 3.60179C5.77556 3.54281 5.8525 3.50307 5.93588 3.48754C6.01925 3.472 6.10541 3.48135 6.18351 3.51443C6.2616 3.54751 6.32823 3.60284 6.37508 3.67354C6.42197 3.74423 6.44698 3.82717 6.44703 3.91199ZM5.65983 7.93441V5.35201C5.65853 5.30665 5.6664 5.26148 5.68301 5.21929C5.69962 5.1771 5.72458 5.1387 5.75645 5.10644C5.78828 5.07414 5.82634 5.0486 5.86829 5.03142C5.91024 5.01423 5.95527 5.00569 6.00058 5.00636C6.04532 5.00631 6.08962 5.01534 6.13076 5.0329C6.17189 5.05043 6.20909 5.0761 6.24005 5.10841C6.27101 5.14071 6.29506 5.17892 6.31085 5.22078C6.32664 5.26263 6.33375 5.30727 6.33178 5.35201V7.93441C6.33178 7.97852 6.32309 8.0222 6.30624 8.06295C6.28935 8.1037 6.26458 8.14076 6.23338 8.17196C6.20218 8.20316 6.16517 8.22788 6.12442 8.24478C6.08362 8.26167 6.03994 8.27036 5.99583 8.27036C5.95172 8.27036 5.90799 8.26167 5.86724 8.24478C5.82648 8.22788 5.78943 8.20316 5.75823 8.17196C5.72703 8.14076 5.70226 8.1037 5.68541 8.06295C5.66852 8.0222 5.65983 7.97852 5.65983 7.93441Z" fill="#2EA8AF"/>
</svg>
