<svg width="81" height="82" viewBox="0 0 81 82" fill="none" xmlns="http://www.w3.org/2000/svg">
<path d="M38.4387 9.76687C24.9168 11.476 18.1563 12.3305 13.2245 15.9259C1.94824 24.1474 0.532763 38.3933 0.328238 40.9478C0.177375 42.8331 -0.680212 56.4593 8.79679 67.5098C20.236 80.8474 38.0348 80.0283 50.7568 79.4431C59.0512 79.0614 72.2775 78.4529 76.3559 70.5888C78.6127 66.237 75.8051 64.0268 75.5863 52.4964C75.318 38.3649 79.4055 36.4675 77.3187 28.245C75.3575 20.5166 69.4263 13.102 61.7283 9.76789C56.5726 7.53532 50.4581 8.24914 38.4387 9.76789V9.76687Z" fill="#2B2F3E"/>
<path d="M17.1498 54.8061C17.7684 50.5232 19.2842 40.0206 28.1213 35.1737C29.8354 34.2331 33.2303 32.7356 38.226 32.8642C41.1126 32.9604 44.0003 33.0566 46.8869 33.1528C48.5687 33.5821 50.9865 34.3981 53.5269 36.0394C61.0002 40.869 63.1082 48.6936 63.6317 50.7642C64.7069 55.0127 66.7269 62.9962 61.8993 67.2204C58.5287 70.1698 52.9609 70.2882 47.7526 68.0861C42.6516 67.9899 37.5517 67.8937 32.4507 67.7975C26.5995 69.7354 21.0338 69.0095 18.3041 65.7765C15.9652 63.0063 16.4957 59.332 17.1488 54.8051L17.1498 54.8061Z" fill="#089EA4"/>
<path d="M64.8145 8.86419L63.8838 9.79492L66.8077 12.7188L67.7384 11.7881L64.8145 8.86419Z" fill="#01ABB2"/>
<path d="M72.8077 8.91299L69.8838 11.8369L70.8145 12.7676L73.7384 9.84372L72.8077 8.91299Z" fill="#01ABB2"/>
<path d="M71.3301 15.2265L70.3994 16.1572L73.3233 19.0811L74.2541 18.1504L71.3301 15.2265Z" fill="#01ABB2"/>
<path d="M9.48145 60.7405C9.48145 65.6825 10.6478 69.21 13.0485 71.5256C16.1508 74.5186 20.9703 75.1443 26.7061 75.1443C28.6926 75.1443 30.7885 75.0694 32.9603 74.9914C35.3903 74.9043 37.9023 74.8152 40.5014 74.8152C42.5183 74.8152 44.4937 74.8537 46.4043 74.8922C55.5026 75.0714 63.3606 75.2273 67.8146 70.8614C70.3074 68.4162 71.5193 64.7733 71.5193 59.7249C71.5193 47.6762 64.0339 31.6979 51.9406 26.8946C51.7989 26.8389 51.649 26.8096 51.4972 26.8096H29.5057C29.3538 26.8096 29.2029 26.8389 29.0612 26.8946C17.3506 31.5471 9.48246 48.1521 9.48246 60.7415L9.48145 60.7405ZM29.7395 29.2122H51.2623C61.126 33.2764 69.1157 46.9006 69.1157 59.7239C69.1157 64.0939 68.1396 67.1759 66.1308 69.1442C62.3998 72.8034 55.0075 72.6586 46.4519 72.4885C44.5291 72.451 42.5426 72.4116 40.5014 72.4116C37.8588 72.4116 35.3245 72.5017 32.8753 72.5898C24.9798 72.8702 18.1596 73.1173 14.7181 69.7963C12.8126 67.9576 11.8851 64.995 11.8851 60.7405C11.8851 46.2394 21.0766 32.8096 29.7395 29.2122Z" fill="#E2E2E2"/>
<path d="M30.9564 24.629H49.794C50.1271 24.629 50.444 24.4913 50.6718 24.2483C54.1751 20.5041 56.2699 12.8647 56.2699 7.64227C56.2699 6.97908 55.7323 6.44043 55.0681 6.44043H25.6823C25.0191 6.44043 24.4805 6.97807 24.4805 7.64227C24.4805 12.8658 26.5743 20.5051 30.0786 24.2493C30.3054 24.4913 30.6233 24.629 30.9554 24.629H30.9564ZM53.8268 8.8441C53.5554 13.2495 51.8656 19.1109 49.2523 22.2263H31.4951C28.8828 19.1119 27.193 13.2505 26.9216 8.8441H53.8258H53.8268Z" fill="#E2E2E2"/>
<path d="M31.6702 60.7111C33.4937 61.84 36.1576 62.2987 37.6622 62.4759V64.8907C37.6622 65.5539 38.1998 66.0915 38.864 66.0915H42.5445C42.8634 66.0915 43.1712 65.9639 43.396 65.7371C43.6218 65.5113 43.7483 65.2035 43.7453 64.8836L43.7311 62.0931C46.6147 61.3955 49.5013 58.9321 49.8567 55.1484C50.3012 50.4048 47.1432 48.4791 46.5054 48.1409C46.1236 47.9394 45.5526 47.7116 44.8307 47.4251C43.561 46.9198 41.8236 46.2273 40.567 45.4244C40.0871 45.1186 39.912 44.6609 39.9859 44.3673C40.08 43.9998 40.5812 43.9107 40.8708 43.8904C43.0305 43.7396 46.3758 44.8391 46.4092 44.8513C46.7311 44.9586 47.0845 44.9242 47.3802 44.7571C47.6758 44.5901 47.8874 44.3055 47.9613 43.9745L48.8503 40.0206C48.9607 39.5265 48.7521 39.0173 48.3248 38.7449C47.1756 38.0088 45.0403 37.6413 43.6886 37.4732V35.3297C43.6886 34.6665 43.1509 34.1289 42.4867 34.1289H38.8063C38.1431 34.1289 37.6045 34.6665 37.6045 35.3297V38.0706C33.3165 39.2896 31.2348 42.1975 31.7229 46.3437C32.2585 50.9 38.292 52.848 39.4958 53.1923C42.0007 53.9081 41.9076 54.3232 41.778 54.8973C41.6383 55.5159 39.5475 55.9209 37.5194 55.5038C35.8012 55.1504 34.2764 54.3384 34.2622 54.3303C33.9493 54.1612 33.5757 54.1389 33.2436 54.2726C32.9125 54.4062 32.6574 54.6796 32.547 55.0188L31.1589 59.3219C30.9888 59.8474 31.2004 60.4215 31.6692 60.7131L31.6702 60.7111ZM34.4191 57.0428C35.1188 57.3283 36.0412 57.6513 37.0344 57.8558C39.5454 58.3732 43.5063 58.1535 44.1219 55.4248C44.8449 52.2213 41.7952 51.3485 40.156 50.8807C38.1948 50.3208 34.408 48.5915 34.1103 46.0632C33.7317 42.8496 35.3041 40.9815 39.0564 40.1867C39.6112 40.0703 40.0092 39.5792 40.0092 39.0112V36.5316H41.2879V38.5586C41.2879 39.1863 41.7699 39.7078 42.3956 39.7564C43.5205 39.8445 45.2195 40.0996 46.2937 40.4489L45.9009 42.1985C44.5624 41.8411 42.4159 41.3764 40.7078 41.4948C39.1587 41.6022 37.9912 42.477 37.6602 43.777C37.3139 45.1368 37.9629 46.6151 39.2761 47.4524C40.725 48.3778 42.586 49.119 43.9447 49.6607C44.5482 49.9006 45.1172 50.1274 45.3835 50.2682C45.7845 50.4808 47.769 51.7049 47.4672 54.9277C47.1878 57.8973 44.6626 59.6966 42.428 59.8829C41.8023 59.9345 41.3224 60.459 41.3254 61.0857L41.3386 63.6909H40.0669V61.3824C40.0669 60.7425 39.5667 60.216 38.9278 60.1826C38.0044 60.135 35.54 59.8484 33.761 59.0911L34.4212 57.0448L34.4191 57.0428Z" fill="#E2E2E2"/>
</svg>
