<svg width="22" height="24" viewBox="0 0 22 24" fill="none" xmlns="http://www.w3.org/2000/svg">
<path d="M19.2487 2L18.332 3" stroke="#2EA8AF" stroke-width="1.5" stroke-linecap="round" stroke-linejoin="round"/>
<path d="M2.75 2L3.66667 3" stroke="#2EA8AF" stroke-width="1.5" stroke-linecap="round" stroke-linejoin="round"/>
<path d="M19.2487 16L18.332 15" stroke="#2EA8AF" stroke-width="1.5" stroke-linecap="round" stroke-linejoin="round"/>
<path d="M2.75 16L3.66667 15" stroke="#2EA8AF" stroke-width="1.5" stroke-linecap="round" stroke-linejoin="round"/>
<path d="M8.25 18H13.75" stroke="#2EA8AF" stroke-width="1.5" stroke-linecap="round" stroke-linejoin="round"/>
<path d="M9.16797 21H12.8346" stroke="#2EA8AF" stroke-width="1.5" stroke-linecap="round" stroke-linejoin="round"/>
<path d="M11.0007 3C7.33395 3 5.45676 4.95029 5.50076 8C5.5222 9.48689 5.95895 10.5 6.87576 11.5C7.79256 12.5 8.25089 13 8.25076 15H13.7507C13.7509 13.0001 14.2092 12.5 15.1256 11.5001C16.0422 10.5001 16.4794 9.48689 16.5007 8C16.5447 4.95029 14.6676 3 11.0007 3Z" stroke="#2EA8AF" stroke-width="1.5" stroke-linecap="round" stroke-linejoin="round"/>
</svg>
