<svg width="81" height="82" viewBox="0 0 81 82" fill="none" xmlns="http://www.w3.org/2000/svg">
<path d="M38.4387 9.76687C24.9168 11.476 18.1563 12.3305 13.2245 15.9259C1.94824 24.1474 0.532763 38.3933 0.328238 40.9478C0.177375 42.8331 -0.680212 56.4593 8.79679 67.5098C20.236 80.8474 38.0348 80.0283 50.7568 79.4431C59.0512 79.0614 72.2775 78.4529 76.3559 70.5888C78.6127 66.237 75.8051 64.0268 75.5863 52.4964C75.318 38.3649 79.4055 36.4675 77.3187 28.245C75.3575 20.5166 69.4263 13.102 61.7283 9.76789C56.5726 7.53532 50.4581 8.24914 38.4387 9.76789V9.76687Z" fill="#2B2F3E"/>
<path d="M15.2354 54.018C15.2354 48.6173 15.2354 45.9169 17.5439 44.2392C19.8524 42.5615 23.5682 42.5615 30.999 42.5615H52.0175C59.4482 42.5615 63.1641 42.5615 65.4726 44.2392C67.7811 45.9169 67.7811 48.6173 67.7811 54.018C67.7811 59.4186 67.7811 62.119 65.4726 63.7967C63.1641 65.4744 59.4482 65.4744 52.0175 65.4744H30.999C23.5682 65.4744 19.8524 65.4744 17.5439 63.7967C15.2354 62.119 15.2354 59.4186 15.2354 54.018Z" fill="#499475"/>
<path d="M55.0083 75.1789H28.0079C18.2231 75.1789 13.3115 75.1789 10.0796 71.947C6.84668 68.7141 6.84668 63.8035 6.84668 54.0177C6.84668 44.2319 6.84668 39.3213 10.0796 36.0894C13.3125 32.8564 18.2231 32.8564 28.0079 32.8564H55.0083C64.7931 32.8564 69.7047 32.8564 72.9366 36.0894C76.1695 39.3223 76.1695 44.2329 76.1695 54.0177C76.1695 63.8025 76.1695 68.7141 72.9366 71.947C69.7037 75.1789 64.7931 75.1789 55.0083 75.1789ZM28.0079 34.6789C18.7253 34.6789 14.0668 34.6789 11.3675 37.3773C8.66918 40.0756 8.66918 44.7351 8.66918 54.0177C8.66918 63.3003 8.66918 67.9588 11.3675 70.6581C14.0658 73.3564 18.7253 73.3564 28.0079 73.3564H55.0083C64.2909 73.3564 68.9494 73.3564 71.6487 70.6581C74.347 67.9598 74.347 63.3003 74.347 54.0177C74.347 44.7351 74.347 40.0766 71.6487 37.3773C68.9504 34.6789 64.2909 34.6789 55.0083 34.6789H28.0079Z" fill="#E2E2E2"/>
<path d="M64.5979 34.6893L63.6188 34.6164C62.3177 34.5192 60.7747 34.4665 58.616 34.4463L57.7129 34.4382V26.7736C57.7129 17.5061 50.1728 9.96605 40.9054 9.96605C31.638 9.96605 24.0979 17.5061 24.0979 26.7736V34.4382L23.1947 34.4463C21.0361 34.4665 19.493 34.5192 18.192 34.6164L17.2129 34.6893V26.7736C17.2129 20.4454 19.6773 14.495 24.1526 10.0207C28.6278 5.54649 34.5773 3.08105 40.9054 3.08105C47.2335 3.08105 53.184 5.54548 57.6582 10.0207C62.1325 14.496 64.5979 20.4454 64.5979 26.7736V34.6893ZM40.9054 4.90355C35.0633 4.90355 29.5715 7.17864 25.4415 11.3096C21.3105 15.4406 19.0354 20.9324 19.0354 26.7736V32.7362C19.9568 32.6866 21.0057 32.6542 22.2754 32.6349V26.7736C22.2754 16.5007 30.6326 8.14355 40.9054 8.14355C51.1782 8.14355 59.5354 16.5007 59.5354 26.7736V32.6349C60.8051 32.6542 61.854 32.6866 62.7754 32.7362V26.7736C62.7754 20.9314 60.5003 15.4396 56.3703 11.3096C52.2393 7.17864 46.7475 4.90355 40.9054 4.90355Z" fill="#E2E2E2"/>
<path d="M57.108 51.6621C54.9717 51.1822 52.7371 51.8089 51.1626 53.3297C50.8477 53.6 50.4883 53.8147 50.1015 53.9665C50.0388 53.9898 49.977 54.0111 49.9142 54.0384H49.9061C49.3806 54.2237 48.8369 54.3533 48.2841 54.4242C48.7569 53.7235 49.1356 52.9631 49.412 52.1643L49.4252 52.1339C49.6905 51.2287 50.3131 50.4704 51.1495 50.034C52.1073 49.6826 53.1623 49.709 54.1029 50.1049C54.5606 50.2739 55.0689 50.039 55.2379 49.5814C55.403 49.1329 55.1823 48.6347 54.7398 48.4565C53.6402 48.014 52.4343 47.9027 51.272 48.1386C51.5747 47.8176 51.9564 47.5827 52.3797 47.4572C52.8454 47.3124 53.1046 46.8183 52.9608 46.3525C52.816 45.8868 52.3219 45.6276 51.8562 45.7714C49.6287 46.4629 48.928 48.3978 48.2497 50.2689C48.1332 50.5868 48.0097 50.9189 47.8811 51.248C47.8518 51.3188 47.8234 51.3917 47.7961 51.4657L47.7789 51.5092L47.7667 51.5386C46.6307 54.6429 45.5534 54.5275 44.1865 54.3827C43.5598 54.3057 42.9837 54.001 42.5685 53.5261C42.2719 53.0158 42.2111 52.4022 42.4035 51.8433C42.4197 51.7735 42.4268 51.7026 42.4258 51.6307C42.4389 51.5548 42.447 51.496 42.4511 51.4576C42.4551 51.4191 42.4804 51.2611 42.5058 51.0333C42.6931 50.0573 43.3249 49.5773 44.4234 48.82C46.7755 47.4865 48.2892 45.0494 48.442 42.3501C48.4967 41.8661 48.1474 41.4287 47.6634 41.3751C47.1795 41.3204 46.7421 41.6697 46.6884 42.1537C46.5811 44.3417 45.3448 46.3161 43.4231 47.3681C43.1497 47.5564 42.8682 47.7518 42.5938 47.9644C42.5452 46.873 42.3306 45.7957 41.957 44.769C41.5722 43.8263 41.8972 43.3069 42.3903 42.5283C42.8206 41.9532 43.094 41.2759 43.1841 40.5631L43.1943 40.0517C43.2024 39.5647 42.8146 39.1628 42.3276 39.1537C41.8405 39.1456 41.4386 39.5333 41.4295 40.0204L41.4214 40.4648C41.3323 40.8719 41.1541 41.2536 40.8999 41.5826C40.7288 41.8449 40.5709 42.1162 40.4281 42.3947C39.689 41.3579 39.4126 40.0619 39.6647 38.8135C39.8044 38.3447 39.5371 37.8516 39.0683 37.7129C38.5995 37.5731 38.1064 37.8404 37.9677 38.3092C37.4898 40.4436 38.1166 42.6761 39.6363 44.2496C39.9067 44.5645 40.1213 44.9239 40.2732 45.3107C40.2965 45.3745 40.3177 45.4362 40.3451 45.501L40.3512 45.5132C40.5364 46.0376 40.665 46.5814 40.7359 47.1332C40.0353 46.6613 39.2759 46.2827 38.478 46.0063L38.4436 45.9931C37.5384 45.7278 36.7801 45.1051 36.3437 44.2688C35.9923 43.311 36.0177 42.256 36.4135 41.3153C36.5958 40.8628 36.3771 40.3484 35.9245 40.1651C35.4719 39.9829 34.9576 40.2016 34.7743 40.6542C34.7713 40.6623 34.7682 40.6704 34.7652 40.6795C34.3217 41.7791 34.2114 42.985 34.4473 44.1473C34.1263 43.8446 33.8914 43.4629 33.7659 43.0396C33.6211 42.5739 33.127 42.3147 32.6612 42.4585C32.1955 42.6032 31.9363 43.0973 32.08 43.5631C32.7716 45.7906 34.7065 46.4912 36.5776 47.1696C36.8955 47.2861 37.2276 47.4096 37.5567 47.5382C37.6275 47.5675 37.7004 47.5959 37.7743 47.6232L37.8179 47.6404L37.8472 47.6526C40.9516 48.7886 40.8361 49.8669 40.6903 51.2328C40.6134 51.8595 40.3086 52.4356 39.8338 52.8508C39.3235 53.1474 38.7099 53.2082 38.151 53.0158C38.0811 52.9996 38.0103 52.9925 37.9384 52.9935C37.8624 52.9804 37.8027 52.9723 37.7642 52.9682C37.7257 52.9642 37.5678 52.9388 37.34 52.9135C36.3639 52.7262 35.884 52.0944 35.1267 50.9959C33.7932 48.6438 31.3561 47.1301 28.6568 46.9772C28.1728 46.9226 27.7354 47.2709 27.6807 47.7559C27.6261 48.2408 27.9744 48.6772 28.4593 48.7319C30.6474 48.8392 32.6227 50.0765 33.6747 51.9982C33.8631 52.2716 34.0585 52.5531 34.2711 52.8275C33.1796 52.8761 32.1023 53.0907 31.0756 53.4643C30.133 53.8491 29.6136 53.5231 28.836 53.031C28.2609 52.6007 27.5835 52.3273 26.8707 52.2372L26.3594 52.2271C25.8724 52.219 25.4704 52.6067 25.4613 53.0938C25.4532 53.5808 25.841 53.9827 26.328 53.9918L26.7725 53.9989C27.1795 54.088 27.5613 54.2662 27.8903 54.5204C28.1526 54.6915 28.4229 54.8494 28.7013 54.9932C27.6645 55.7313 26.3685 56.0077 25.1211 55.7556C24.6483 55.6301 24.1633 55.9105 24.0378 56.3834C23.9173 56.837 24.1704 57.3058 24.6169 57.4526C25.0624 57.568 25.5211 57.6237 25.9807 57.6166C27.6838 57.6024 29.32 56.9483 30.5633 55.785C30.862 55.5268 31.2002 55.3202 31.5657 55.1704C31.6467 55.142 31.7267 55.1096 31.8107 55.0752H31.8188C32.3443 54.8899 32.888 54.7603 33.4408 54.6895C32.969 55.3901 32.5903 56.1495 32.3139 56.9473L32.3008 56.9818C32.0355 57.8869 31.4128 58.6453 30.5765 59.0817C29.6187 59.433 28.5636 59.4077 27.623 59.0118C27.1654 58.8427 26.6571 59.0776 26.488 59.5353C26.323 59.9838 26.5437 60.482 26.9862 60.6602C27.7233 60.9477 28.5069 61.0996 29.2987 61.1087C29.6865 61.1087 30.0733 61.0652 30.4519 60.9771C30.1492 61.297 29.7675 61.5319 29.3453 61.6575C28.8795 61.8023 28.6203 62.2964 28.7641 62.7621C28.9089 63.2279 29.403 63.4871 29.8687 63.3433C32.0962 62.6518 32.7969 60.7169 33.4753 58.8458C33.5917 58.5278 33.7142 58.1957 33.8438 57.8677C33.8732 57.7958 33.9025 57.7209 33.9299 57.647L33.9461 57.6055L33.9582 57.5761C35.0943 54.4718 36.1726 54.5862 37.5384 54.732C38.1652 54.8089 38.7413 55.1137 39.1564 55.5886C39.4531 56.0989 39.5138 56.7124 39.3214 57.2713C39.3052 57.3412 39.2982 57.4121 39.2992 57.484C39.286 57.5599 39.2779 57.6186 39.2739 57.6571C39.2698 57.6956 39.2445 57.8535 39.2192 58.0813C39.0319 59.0574 38.4001 59.5373 37.3015 60.2947C34.9495 61.6281 33.4358 64.0652 33.2829 66.7645C33.2292 67.2485 33.5775 67.6849 34.0615 67.7396C34.0949 67.7436 34.1283 67.7446 34.1607 67.7446C34.6093 67.7446 34.9869 67.4065 35.0365 66.961C35.1439 64.7729 36.3811 62.7986 38.3029 61.7466C38.5762 61.5583 38.8577 61.3628 39.1321 61.1502C39.1817 62.2397 39.3964 63.3149 39.769 64.3396C40.1578 65.2873 39.8317 65.8067 39.3387 66.5863C38.9083 67.1614 38.635 67.8388 38.5449 68.5516L38.5357 69.0629C38.5276 69.5499 38.9154 69.9519 39.4035 69.96H39.4197C39.9016 69.96 40.2945 69.5742 40.3026 69.0923L40.3096 68.6478C40.3987 68.2408 40.5769 67.859 40.8311 67.53C41.0022 67.2677 41.1601 66.9964 41.3029 66.718C42.042 67.7548 42.3184 69.0508 42.0663 70.2992C41.9266 70.7659 42.1929 71.258 42.6597 71.3977C43.1264 71.5375 43.6185 71.2712 43.7582 70.8044C44.2381 68.668 43.6114 66.4345 42.0906 64.859C41.8203 64.5441 41.6056 64.1847 41.4538 63.7979C41.4305 63.7351 41.4092 63.6744 41.3829 63.6116V63.6086C41.1976 63.0831 41.068 62.5394 40.9971 61.9865C41.6978 62.4584 42.4572 62.837 43.255 63.1135L43.2894 63.1266C44.1946 63.3919 44.953 64.0146 45.3894 64.8509C45.7407 65.8087 45.7154 66.8638 45.3195 67.8044C45.1362 68.257 45.3549 68.7713 45.8075 68.9546C46.2601 69.1378 46.7745 68.9191 46.9577 68.4665C46.9608 68.4584 46.9648 68.4493 46.9678 68.4412C47.4113 67.3417 47.5217 66.1358 47.2858 64.9734C47.6067 65.2762 47.8416 65.6579 47.9672 66.0811C48.112 66.5468 48.6061 66.806 49.0718 66.6623C49.5376 66.5175 49.7968 66.0234 49.653 65.5576C48.9615 63.3301 47.0266 62.6295 45.1555 61.9511C44.8375 61.8347 44.5054 61.7122 44.1774 61.5826C44.1055 61.5532 44.0296 61.5238 43.9557 61.4965L43.9152 61.4803L43.8858 61.4681C40.7815 60.3321 40.8969 59.2538 41.0417 57.8879C41.1186 57.2612 41.4234 56.6851 41.8983 56.27C42.4086 55.9733 43.0221 55.9126 43.581 56.1049C43.6509 56.1211 43.7218 56.1282 43.7937 56.1272C43.8696 56.1404 43.9293 56.1485 43.9678 56.1525C44.0063 56.1566 44.1652 56.1819 44.387 56.2072C45.364 56.3945 45.844 57.0263 46.6013 58.1249C47.9348 60.4769 50.3719 61.9906 53.0712 62.1435C53.1046 62.1475 53.138 62.1485 53.1704 62.1485C53.6574 62.1485 54.0533 61.7537 54.0533 61.2656C54.0533 60.8161 53.7151 60.4374 53.2676 60.3888C51.0796 60.2815 49.1052 59.0452 48.0532 57.1235C47.8649 56.8501 47.6695 56.5687 47.4569 56.2943C48.5281 56.2457 49.5852 56.0381 50.5956 55.6787H50.6108L50.6371 55.6685L50.704 55.6432C51.6152 55.2899 52.1296 55.6129 52.893 56.0958C53.4681 56.5261 54.1455 56.7995 54.8583 56.8896L55.3696 56.8987H55.3858C55.8728 56.9028 56.2717 56.5109 56.2758 56.0239C56.2798 55.5369 55.888 55.138 55.401 55.1339L54.9565 55.1269C54.5494 55.0378 54.1677 54.8596 53.8387 54.6054C53.5764 54.4343 53.3051 54.2764 53.0266 54.1336C54.0634 53.3945 55.3594 53.1181 56.6079 53.3702C57.0766 53.5099 57.5697 53.2426 57.7084 52.7738C57.8482 52.305 57.5809 51.8119 57.1121 51.6732L57.109 51.6671L57.108 51.6621Z" fill="#E2E2E2"/>
<path d="M64.8083 8.87337L63.8926 9.78906L66.8165 12.713L67.7322 11.7973L64.8083 8.87337Z" fill="#AADA5D"/>
<path d="M72.8175 8.92373L69.8936 11.8477L70.8092 12.7634L73.7332 9.83943L72.8175 8.92373Z" fill="#AADA5D"/>
<path d="M71.321 15.2337L70.4053 16.1494L73.3292 19.0733L74.2449 18.1576L71.321 15.2337Z" fill="#AADA5D"/>
</svg>
