<svg width="81" height="82" viewBox="0 0 81 82" fill="none" xmlns="http://www.w3.org/2000/svg">
<path d="M38.4387 9.76687C24.9168 11.476 18.1563 12.3305 13.2244 15.9259C1.94824 24.1474 0.532763 38.3933 0.328238 40.9478C0.177375 42.8331 -0.680212 56.4593 8.79679 67.5098C20.236 80.8474 38.0347 80.0283 50.7568 79.4431C59.0512 79.0614 72.2775 78.4529 76.3558 70.5888C78.6127 66.237 75.805 64.0268 75.5863 52.4964C75.318 38.3649 79.4055 36.4675 77.3187 28.245C75.3575 20.5166 69.4263 13.102 61.7283 9.76789C56.5726 7.53532 50.4581 8.24914 38.4387 9.76789V9.76687Z" fill="#2B2F3E"/>
<path d="M64.8073 8.87239L63.8916 9.78809L66.8155 12.712L67.7312 11.7963L64.8073 8.87239Z" fill="#AADA5D"/>
<path d="M72.8175 8.92373L69.8936 11.8477L70.8092 12.7634L73.7332 9.83943L72.8175 8.92373Z" fill="#AADA5D"/>
<path d="M71.3219 15.2337L70.4062 16.1494L73.3302 19.0733L74.2459 18.1576L71.3219 15.2337Z" fill="#AADA5D"/>
<path d="M61.2049 37.3984L59.8694 35.7419C59.2174 34.933 58.4783 34.1948 57.6733 33.5458C57.1448 33.1206 56.5808 32.7287 55.9966 32.3804L55.6301 32.1617V26.024C55.6301 18.1872 49.5723 11.8105 42.1264 11.8105C34.6805 11.8105 28.6227 18.1862 28.6227 26.024V26.0452L28.4789 31.2404L28.3898 31.4003C28.0253 32.0575 27.3449 32.9768 26.1724 33.6197C25.4849 33.9964 24.7367 34.2212 23.9459 34.287L23.141 34.3548L23.0479 26.0331C23.0479 15.0019 31.6065 6.03418 42.1264 6.03418C52.6463 6.03418 61.2049 15.0019 61.2049 26.025V37.3994V37.3984ZM57.1327 31.3143C57.647 31.6393 58.1441 31.9957 58.616 32.3754C58.9926 32.6781 59.3551 32.9991 59.7034 33.3362V26.024C59.7034 15.8291 51.819 7.53572 42.1274 7.53572C32.4358 7.53572 24.5514 15.8301 24.5514 26.024L24.6263 32.6427C24.9129 32.5597 25.1893 32.4463 25.4515 32.3025C26.2231 31.8793 26.704 31.291 26.9885 30.8242L27.1211 26.0138C27.1272 17.3529 33.8563 10.309 42.1274 10.309C50.3985 10.309 57.1337 17.359 57.1337 26.024V31.3143H57.1327Z" fill="#E2E2E2"/>
<path d="M15.9971 51.8219C15.9971 66.252 27.6955 77.9495 42.1246 77.9495C56.5538 77.9495 68.2542 66.252 68.2542 51.8219C68.2542 37.3917 56.5558 25.6943 42.1246 25.6943C27.6935 25.6943 15.9971 37.3917 15.9971 51.8219ZM65.6734 51.8219C65.6734 64.8275 55.1302 75.3706 42.1246 75.3706C29.1191 75.3706 18.5759 64.8275 18.5759 51.8219C18.5759 38.8163 29.1191 28.2732 42.1246 28.2732C55.1302 28.2732 65.6734 38.8163 65.6734 51.8219Z" fill="#E2E2E2"/>
<path d="M22.0537 51.8217C22.0537 62.782 30.9708 71.6991 41.9301 71.6991C52.8894 71.6991 61.8075 62.782 61.8075 51.8217C61.8075 40.8614 52.8914 31.9443 41.9301 31.9443C30.9688 31.9443 22.0537 40.8614 22.0537 51.8217ZM43.0803 39.8844V52.4606L52.8286 62.5795C53.3896 63.1607 53.3713 64.0872 52.7902 64.6481C52.207 65.208 51.2815 65.1908 50.7216 64.6086L40.5632 54.0654C40.3 53.7911 40.1552 53.4296 40.1552 53.0509V39.8844C40.1552 39.0764 40.8103 38.4223 41.6172 38.4223C42.4242 38.4223 43.0803 39.0764 43.0803 39.8844Z" fill="#499475"/>
<path d="M41.6173 38.4229C40.8093 38.4229 40.1553 39.0769 40.1553 39.8849V53.0515C40.1553 53.4301 40.3011 53.7916 40.5633 54.066L50.7217 64.6091C51.2806 65.1913 52.2071 65.2085 52.7903 64.6486C53.3714 64.0877 53.3897 63.1613 52.8287 62.5801L43.0804 52.4612V39.8849C43.0804 39.0769 42.4253 38.4229 41.6173 38.4229Z" fill="#E2E2E2"/>
</svg>
