<svg width="275" height="118" viewBox="0 0 275 118" fill="none" xmlns="http://www.w3.org/2000/svg">
<path d="M208.09 49.9847C205.275 45.0924 199.692 43.6616 194.801 46.477C189.91 49.2924 188.526 54.8771 191.294 59.8156C194.109 64.708 199.692 66.1388 204.583 63.3233C209.474 60.5079 210.858 54.1848 208.09 49.9847Z" fill="#EEF5F5"/>
<path d="M199.093 39.4615C202.6 35.9537 202.6 31.0614 199.093 27.5537C195.587 24.0459 190.696 24.7382 187.881 27.5537C184.374 31.0614 184.374 35.9537 187.881 39.4615C190.696 42.2769 196.279 42.2769 199.093 39.4615Z" fill="#EEF5F5"/>
<path d="M180.773 34.9849C177.266 31.4772 170.991 31.4772 167.484 34.9849C163.977 38.4927 163.977 44.8158 167.484 49.0158C170.991 52.5236 177.266 52.5236 181.465 49.0158C184.279 44.8158 184.279 38.4927 180.773 34.9849Z" fill="#EEF5F5"/>
<path d="M174.085 56.124C168.502 58.9394 167.072 65.9548 169.887 71.5395C172.701 77.1704 179.668 78.555 185.298 75.7396C190.881 72.9242 192.311 65.9087 189.496 60.324C185.99 55.4317 179.715 53.3086 174.085 56.124Z" fill="#EEF5F5"/>
<path d="M143.124 61.8938C145.939 56.2629 144.509 49.986 138.926 46.4782C133.342 43.6628 127.021 45.0936 123.515 50.6783C120.7 56.3091 122.13 62.5861 127.713 66.0938C132.604 68.9092 139.618 67.4784 143.124 61.8938Z" fill="#EEF5F5"/>
<path d="M209.474 76.3864C208.089 70.7556 201.768 66.5555 195.493 68.6786C189.91 70.0633 185.711 76.3864 187.787 82.0173C189.172 87.6481 195.493 91.8481 201.076 89.725C208.089 89.0327 211.55 82.7096 209.474 76.3864Z" fill="#EEF5F5"/>
<path d="M228.667 98.1237C228.667 103.755 232.866 107.955 238.449 107.955C244.032 107.955 248.231 103.755 248.231 98.1237C248.231 92.4929 244.032 88.2928 238.449 88.2928C232.866 88.2928 228.667 92.4929 228.667 98.1237Z" fill="#EEF5F5"/>
<path d="M251.001 74.4014C249.617 70.2014 245.418 67.3859 241.219 68.7706C237.02 70.1552 234.206 74.4014 235.636 78.6015C237.02 82.8015 241.219 85.6169 245.418 84.2323C249.617 83.54 252.431 78.6015 251.001 74.4014Z" fill="#EEF5F5"/>
<path d="M266.179 105.971C266.179 101.771 262.673 97.5708 257.782 97.5708C253.583 97.5708 249.384 101.078 249.384 105.971C249.384 110.863 252.891 114.371 257.782 114.371C262.673 114.371 266.179 110.863 266.179 105.971Z" fill="#EEF5F5"/>
<path d="M252.155 85.6153C252.847 89.1231 257.046 91.2462 260.553 90.5077C264.06 89.8154 266.136 85.6153 265.444 82.1076C264.752 78.5999 260.553 76.4768 257.046 77.2153C253.539 77.9537 251.463 82.1076 252.155 85.6153Z" fill="#EEF5F5"/>
<path d="M224.883 59.0774C229.082 56.9543 230.466 52.0619 227.698 47.8618C225.621 43.6618 220.684 42.9695 216.486 45.0464C212.287 47.1695 210.903 52.0619 213.671 56.2619C216.486 59.7697 221.377 61.1543 224.883 59.0774Z" fill="#EEF5F5"/>
<path d="M219.532 64.7085C214.641 66.0931 211.134 71.724 212.518 76.6163C213.903 81.5087 219.532 85.0164 224.423 83.6318C229.314 82.2472 232.82 76.6163 231.436 71.724C230.052 66.0932 225.161 63.3239 219.532 64.7085Z" fill="#EEF5F5"/>
<path d="M241.727 60.3238C245.234 58.2007 245.926 54.0007 244.542 51.1853C242.465 47.6775 238.959 46.9852 235.452 49.0622C231.945 51.1853 231.253 55.3853 232.637 58.2007C234.022 61.0161 238.22 62.4008 241.727 60.3238Z" fill="#EEF5F5"/>
<path d="M253.77 64.6625C256.584 63.2778 257.276 59.7701 255.846 57.647C254.462 54.8316 250.955 54.1393 248.833 55.5239C246.018 56.9085 245.326 60.4163 246.756 62.5394C248.141 65.3548 251.647 66.7394 253.77 64.6625Z" fill="#EEF5F5"/>
<path d="M190.049 19.6614C192.864 21.046 195.632 20.3537 197.063 17.5383C198.447 14.7229 197.755 11.9075 194.986 10.5228C192.172 9.13822 189.403 9.83053 187.973 12.646C186.589 15.4614 187.281 18.2768 190.049 19.6614Z" fill="#EEF5F5"/>
<path d="M228.39 37.8933C230.466 35.7702 230.466 32.2625 228.39 30.1856C226.313 28.0625 222.807 28.0625 220.684 30.1856C218.608 32.3087 218.608 35.8164 220.684 37.8933C222.761 40.0164 226.267 40.0164 228.39 37.8933Z" fill="#EEF5F5"/>
<path d="M215.841 36.5084C218.655 33.693 218.655 29.4929 215.841 26.6775C213.026 23.8621 208.827 23.8621 206.751 26.6775C203.937 29.4929 203.937 33.693 206.751 36.5084C208.827 39.3238 213.026 39.3238 215.841 36.5084Z" fill="#EEF5F5"/>
<path d="M265.028 93.9241C265.72 96.7395 268.534 98.1241 271.303 97.4318C274.071 96.7395 275.502 93.9241 274.81 91.1087C274.117 88.2933 271.303 86.9086 268.534 87.6009C265.72 88.2933 264.336 91.1087 265.028 93.9241Z" fill="#EEF5F5"/>
<path d="M214.549 86.3088C208.274 86.3088 203.337 91.2012 203.337 97.5243C203.337 103.847 208.228 108.74 214.549 108.74C220.871 108.74 225.762 103.847 225.762 97.5243C225.762 91.2012 220.871 86.3088 214.549 86.3088Z" fill="#EEF5F5"/>
<path d="M36.9107 90.6949C39.7253 95.5872 45.3083 97.018 50.1992 94.2026C55.0901 91.3872 56.4743 85.8025 53.7059 80.864C50.8913 75.9716 45.3083 74.5408 40.4174 77.3563C36.2186 80.1717 34.1423 85.7564 36.9107 90.6949Z" fill="#EEF5F5"/>
<path d="M87.9386 82.2014C94.2137 82.2014 99.1507 77.3091 99.1507 70.9859C99.1507 64.6628 94.2598 59.7704 87.9386 59.7704C81.6173 59.7704 76.7264 64.6628 76.7264 70.9859C77.4185 77.3091 82.3094 82.2014 87.9386 82.2014Z" fill="#EEF5F5"/>
<path d="M50.798 96.9707C45.2149 99.7861 43.7846 106.802 46.5992 112.386C49.4137 118.017 56.381 119.402 62.0101 116.586C67.5931 113.771 69.0235 106.755 66.2089 101.171C63.3943 95.5399 56.4271 93.463 50.798 96.9707Z" fill="#EEF5F5"/>
<path d="M66.9008 75.9234C61.3178 77.3081 57.119 83.6312 59.1953 89.262C60.5796 94.8929 66.9008 99.0929 72.4838 96.9698C78.0668 95.5852 82.2656 89.262 80.1893 83.6312C79.4972 78.0004 73.1759 74.4926 66.9008 75.9234Z" fill="#EEF5F5"/>
<path d="M99.1054 57.6927C97.7212 63.3235 101.182 69.6005 106.811 71.0313C112.394 72.4159 118.715 68.9082 120.099 63.3235C121.484 57.6927 117.977 51.4157 112.394 49.9849C106.811 48.6003 100.49 52.108 99.1054 57.6927Z" fill="#EEF5F5"/>
<path d="M106.719 35.17C105.335 40.0624 108.103 45.6932 113.732 47.0778C118.623 48.4625 124.206 45.6932 125.637 40.0624C127.021 35.17 124.252 29.5392 118.623 28.1546C113.732 27.4622 108.149 30.2777 106.719 35.17Z" fill="#EEF5F5"/>
<path d="M88.5403 56.9085C94.1233 56.9085 98.3221 52.7085 98.3221 47.0777C98.3221 41.4468 94.1233 37.2468 88.5403 37.2468C82.9573 37.2468 78.7585 41.4468 78.7585 47.0777C78.7585 52.7085 82.9573 56.9085 88.5403 56.9085Z" fill="#EEF5F5"/>
<path d="M149.258 50.4475C145.06 54.6475 145.06 61.663 149.258 65.863C153.457 70.0631 160.471 70.0631 164.669 65.863C168.868 61.663 168.868 54.6475 164.669 50.4475C160.471 45.5551 153.457 45.5551 149.258 50.4475Z" fill="#EEF5F5"/>
<path d="M155.072 10.617C157.886 11.3094 160.655 9.92472 161.347 7.10931C162.039 4.29389 160.655 1.47848 157.84 0.78616C155.026 0.0938445 152.257 1.47848 151.565 4.29389C150.873 7.10931 152.257 9.92472 155.072 10.617Z" fill="#EEF5F5"/>
<path d="M77.9263 16.9393C78.6184 19.7548 81.4329 21.1394 84.2014 20.4471C87.0159 19.7548 88.4002 16.9393 87.7081 14.1239C87.0159 11.3085 84.2014 9.92388 81.4329 10.6162C78.6645 11.3085 77.2341 14.1239 77.9263 16.9393Z" fill="#EEF5F5"/>
<path d="M88.5839 27.5066C88.5839 31.7067 92.0906 35.9067 96.9815 35.9067C101.872 35.9067 105.379 32.399 105.379 27.5066C105.379 22.6142 101.872 19.1065 96.9815 19.1065C92.0906 19.7988 88.5839 23.3066 88.5839 27.5066Z" fill="#EEF5F5"/>
<path d="M76.0811 33.1386C79.5878 32.4463 81.6641 28.2462 80.972 24.7385C80.2799 21.2308 76.0811 19.1077 72.5744 19.8461C69.0677 20.5385 66.9914 24.7385 67.6835 28.2462C69.0677 31.754 72.5744 33.8771 76.0811 33.1386Z" fill="#EEF5F5"/>
<path d="M107.411 20.9999C110.918 20.9999 114.425 18.1845 114.425 13.9844C114.425 9.78437 111.61 6.96896 107.411 6.96896C103.905 6.96896 100.398 9.78437 100.398 13.9844C101.09 17.4921 103.905 20.9999 107.411 20.9999Z" fill="#EEF5F5"/>
<path d="M48.7212 53.493C52.2279 51.3699 52.92 47.1698 51.5358 44.3544C50.1516 41.539 45.2607 40.1544 42.4461 41.539C38.9395 43.6621 38.2473 47.1698 39.6316 50.6776C41.0158 54.1853 45.2146 54.8776 48.7212 53.493Z" fill="#EEF5F5"/>
<path d="M59.008 44.8616C60.3922 49.0616 64.591 51.8771 68.7898 50.4924C72.9886 49.1078 75.8032 44.8616 74.3728 40.6616C72.9886 36.4615 68.7898 33.6461 64.591 35.0307C60.3922 35.723 57.5776 39.9231 59.008 44.8616Z" fill="#EEF5F5"/>
<path d="M55.0424 65.9548C56.4266 70.8471 62.0558 74.3549 66.9467 72.9703C71.8376 71.5856 75.3442 65.9548 73.96 61.0624C72.5758 56.1701 66.9467 52.6623 62.0558 54.047C57.1649 55.4316 53.6582 61.0624 55.0424 65.9548Z" fill="#EEF5F5"/>
<path d="M53.5209 38.723C56.3355 37.3384 57.0276 33.8306 55.5973 31.7075C54.213 28.8921 50.7064 28.1998 48.5839 29.5844C45.7693 30.9691 45.0772 34.4768 46.5076 36.5999C47.8918 39.4153 50.7064 40.1076 53.5209 38.723Z" fill="#EEF5F5"/>
<path d="M175.236 22.477C178.743 24.6001 182.25 23.1693 184.326 19.6616C186.402 16.1539 185.018 12.6461 181.511 10.523C178.005 8.39995 174.498 9.83073 172.422 13.3385C171.037 16.8462 171.73 21.0462 175.236 22.477Z" fill="#EEF5F5"/>
<path d="M136.711 30.7848C133.897 35.6771 135.327 41.308 140.218 44.1234C145.109 46.9388 150.692 45.508 153.507 40.6157C156.321 35.7233 154.891 30.0925 150 27.277C145.109 24.4616 139.526 26.5847 136.711 30.7848Z" fill="#EEF5F5"/>
<path d="M155.027 19.0163C152.905 23.2164 154.335 28.1549 157.842 30.2318C162.04 32.3549 166.931 30.9241 169.054 27.4164C171.13 23.2164 169.746 18.2779 166.239 16.2009C162.04 13.3855 157.149 14.8163 155.027 19.0163Z" fill="#EEF5F5"/>
<path d="M119.501 11.2617C122.315 11.2617 125.084 9.13856 125.084 5.63083C125.084 2.81541 123.007 0 119.501 0C116.686 0 114.61 2.1231 113.918 4.89236C113.918 8.40009 116.04 11.2155 119.501 11.2155V11.2617Z" fill="#EEF5F5"/>
<path d="M120.836 19.0164C119.452 23.2164 122.221 28.155 126.419 28.8473C130.618 30.2319 135.509 27.4626 136.201 23.2164C137.585 19.0164 134.817 14.0779 130.618 13.3856C126.419 12.0009 122.221 14.7702 120.836 19.0164Z" fill="#EEF5F5"/>
<path d="M141.603 17.539C145.11 18.2313 148.616 16.1544 150 12.6466C150.693 9.13889 148.616 5.63116 145.11 4.24653C141.603 3.55421 138.096 5.63116 136.712 9.13889C135.328 12.6466 137.404 16.1544 141.603 17.539Z" fill="#EEF5F5"/>
<path d="M28.4657 64.7077C30.542 62.5846 30.542 59.0769 28.4657 56.9999C26.3894 54.8768 22.8827 54.8768 20.7602 56.9999C18.6839 59.123 18.6839 62.6308 20.7602 64.7077C22.8365 66.8308 26.3432 66.8308 28.4657 64.7077Z" fill="#EEF5F5"/>
<path d="M3.1336 97.5711C5.94817 98.9558 8.71661 98.2634 10.147 95.448C11.5312 92.6326 10.8391 89.8172 8.07064 88.4326C5.30221 87.0479 2.48763 87.7402 1.05727 90.5557C-0.326942 93.3711 1.05727 96.1865 3.1336 97.5711Z" fill="#EEF5F5"/>
<path d="M17.8973 86.402C14.3906 89.9097 14.3906 94.8021 17.8973 98.3098C21.4039 101.818 26.2948 101.818 29.8015 98.3098C33.3082 94.8021 33.3082 89.9097 29.8015 86.402C26.2948 83.5866 21.4039 83.5866 17.8973 86.402Z" fill="#EEF5F5"/>
<path d="M26.8059 79.4781C29.6205 76.6627 29.6205 72.4626 26.8059 69.6472C23.9913 66.8318 19.7925 66.8318 17.0241 69.6472C14.2095 72.4626 14.2095 76.6627 17.0241 79.4781C19.8387 82.2935 24.0375 82.2935 26.8059 79.4781Z" fill="#EEF5F5"/>
<path d="M45.9975 71.4932C50.1963 69.3701 51.5805 64.4778 48.8121 60.2777C46.6896 56.0777 41.7987 54.6469 37.5999 57.4623C33.4011 59.5854 32.709 64.4778 34.7853 68.6778C37.5999 72.1855 42.4908 73.5702 45.9975 71.4932Z" fill="#EEF5F5"/>
</svg>
