<svg width="25" height="24" viewBox="0 0 25 24" fill="none" xmlns="http://www.w3.org/2000/svg">
<path d="M23.9471 9.76788C23.2014 9.6176 22.4556 9.61761 21.7099 9.84302C20.9641 10.0684 20.293 10.4441 19.771 10.9701C19.5472 11.1955 19.3235 11.3458 19.0252 11.4209C18.9506 11.4209 18.9506 11.4209 18.8761 11.496C18.5032 11.6463 18.1303 11.7215 17.7575 11.7966C18.0558 11.2706 18.3541 10.7447 18.5778 10.2187C18.6523 9.91816 18.8015 9.61761 19.0252 9.31706C19.2489 9.09165 19.4727 8.86623 19.771 8.71596C20.4421 8.49055 21.1879 8.49054 21.859 8.79109C22.0082 8.86623 22.1573 8.86623 22.3065 8.79109C22.4556 8.71595 22.6048 8.56568 22.6048 8.4154C22.6793 8.26513 22.6793 8.11486 22.6048 7.96458C22.5302 7.81431 22.4556 7.66403 22.2319 7.66403C21.4862 7.36348 20.5913 7.28835 19.771 7.43862C19.9947 7.21321 20.2184 7.06293 20.5167 6.98779C20.6658 6.91265 20.815 6.83752 20.8896 6.68725C20.9641 6.53697 20.9641 6.38669 20.9641 6.23642C20.8896 6.08614 20.815 5.93587 20.6658 5.86073C20.5167 5.78559 20.3675 5.78559 20.2184 5.78559C18.6523 6.31155 18.1303 7.66403 17.6829 8.94137C17.6083 9.16679 17.5337 9.39219 17.4592 9.61761C17.4592 9.69274 17.3846 9.69274 17.3846 9.76788C16.5643 11.9469 15.8185 11.8717 14.8491 11.7966C14.4016 11.7215 14.0288 11.496 13.7305 11.1955C13.6559 11.0452 13.5813 10.8198 13.5813 10.5944C13.5813 10.369 13.5813 10.2187 13.6559 9.99329C13.6559 9.91816 13.6559 9.91816 13.6559 9.84302C13.6559 9.76788 13.6559 9.76789 13.6559 9.69275C13.6559 9.69275 13.6559 9.54247 13.7305 9.39219C13.8796 8.71595 14.3271 8.34027 15.0728 7.81431C15.8931 7.36348 16.5643 6.68724 17.0863 5.86073C17.6083 5.03422 17.832 4.13257 17.9066 3.23092C17.9066 3.08064 17.9066 2.93036 17.7575 2.78009C17.6829 2.62981 17.5337 2.55468 17.31 2.55468C17.1609 2.55468 17.0117 2.55468 16.8626 2.70496C16.7134 2.78009 16.6388 2.93036 16.6388 3.15577C16.6388 3.90715 16.3406 4.65853 15.9677 5.33477C15.5948 6.01101 14.9982 6.53696 14.3271 6.91265C14.1033 7.06293 13.9542 7.2132 13.7305 7.36348C13.7305 6.6121 13.5813 5.86073 13.283 5.10935C12.9847 4.43312 13.2085 4.05742 13.5813 3.53146C13.8796 3.15577 14.1033 2.62982 14.1033 2.10385V1.72817C14.1033 1.65303 14.1033 1.57789 14.0288 1.50275C14.0288 1.42761 13.9542 1.35247 13.8796 1.27734C13.7305 1.12706 13.5813 1.12707 13.4322 1.05193C13.283 1.05193 13.1339 1.12707 12.9847 1.2022C12.8356 1.35248 12.8356 1.50275 12.761 1.65302V1.95358C12.6864 2.25413 12.5373 2.47954 12.3881 2.78009C12.239 2.93036 12.1644 3.15578 12.0898 3.38119C11.8661 3.0055 11.6424 2.62982 11.5678 2.179C11.4933 1.72817 11.4933 1.27734 11.5678 0.826517C11.5678 0.75138 11.5678 0.67624 11.5678 0.601102C11.5678 0.525965 11.5678 0.450825 11.4933 0.375688C11.4187 0.30055 11.4187 0.22541 11.3441 0.150273C11.2695 0.0751352 11.195 0.0751375 11.1204 0C11.0458 0 10.9712 0 10.8967 0C10.8221 0 10.7475 4.58491e-06 10.6729 0.0751421C10.5984 0.15028 10.5238 0.150277 10.4492 0.225415C10.3746 0.300552 10.3746 0.375692 10.3001 0.45083C10.1509 1.2022 10.1509 1.95358 10.3746 2.70496C10.5984 3.45633 10.9712 4.13256 11.4933 4.65852C11.717 4.88394 11.8661 5.10935 11.9407 5.4099C11.9407 5.48504 11.9407 5.48505 12.0153 5.56018C12.1644 5.93587 12.239 6.31156 12.3136 6.68725C11.7916 6.3867 11.2695 6.08614 10.7475 5.86073C10.4492 5.78559 10.1509 5.63531 9.85263 5.4099C9.62891 5.18449 9.40518 4.95907 9.25604 4.65852C9.03231 3.98229 9.03232 3.23092 9.33061 2.55468C9.33061 2.47955 9.40518 2.40441 9.40518 2.32927C9.40518 2.25413 9.40519 2.17899 9.33061 2.10385C9.33061 2.02872 9.25603 1.95358 9.18146 1.87844C9.10688 1.8033 9.03232 1.8033 8.95774 1.72817C8.88317 1.72817 8.80859 1.65302 8.73402 1.65302C8.65945 1.65302 8.58487 1.65303 8.5103 1.72817C8.43572 1.72817 8.36115 1.8033 8.28657 1.87844C8.212 1.95358 8.212 2.02872 8.13743 2.10385C7.83913 2.85523 7.76456 3.75688 7.9137 4.58339C7.68998 4.35798 7.54084 4.13257 7.46627 3.83202C7.46627 3.75688 7.39168 3.68174 7.31711 3.6066C7.24254 3.53147 7.16797 3.45633 7.0934 3.45633C7.01882 3.38119 6.94425 3.38119 6.86967 3.38119C6.7951 3.38119 6.72052 3.38119 6.64595 3.38119C6.57137 3.38119 6.4968 3.45632 6.42222 3.53146C6.34765 3.6066 6.27308 3.68174 6.27308 3.75688C6.19851 3.83201 6.1985 3.90715 6.1985 3.98229C6.1985 4.05743 6.1985 4.13257 6.1985 4.20771C6.72052 5.78559 8.06286 6.31155 9.33061 6.76238C9.55434 6.83751 9.77805 6.91265 10.0018 6.98779C10.0763 6.98779 10.0763 7.06293 10.1509 7.06293C12.3136 7.88945 12.239 8.64082 12.1644 9.61761C12.0898 10.0684 11.8661 10.4441 11.5678 10.7447C11.4187 10.8198 11.195 10.8949 10.9712 10.9701C10.7475 10.9701 10.5984 10.9701 10.3746 10.8949C10.3001 10.8949 10.3001 10.8949 10.2255 10.8949C10.1509 10.8949 10.1509 10.8949 10.0764 10.8949C10.0764 10.8949 9.9272 10.8949 9.77805 10.8198C9.10689 10.6695 8.73402 10.2187 8.21201 9.46733C7.76456 8.64082 7.09339 7.96458 6.27308 7.43862C5.45277 6.91266 4.55788 6.68724 3.66299 6.6121C3.51384 6.6121 3.3647 6.6121 3.21555 6.76238C3.0664 6.83751 2.99183 6.98779 2.99183 7.21321C2.99183 7.36348 2.99183 7.51375 3.14098 7.66403C3.29012 7.8143 3.3647 7.88944 3.58842 7.88944C4.33416 7.96458 5.0799 8.19 5.75106 8.56569C6.42223 8.94137 6.94424 9.54247 7.31711 10.2187C7.46626 10.4441 7.61541 10.5944 7.76456 10.8198C7.01882 10.8198 6.27308 10.9701 5.52734 11.2706C4.85617 11.5712 4.48331 11.3458 3.96129 10.9701C3.58842 10.6695 3.0664 10.4441 2.54438 10.4441H2.17151C2.02237 10.4441 1.87322 10.5193 1.72407 10.5944C1.57492 10.7447 1.57492 10.8949 1.50035 11.0452C1.50035 11.1955 1.57492 11.3458 1.6495 11.496C1.79865 11.6463 1.94779 11.6463 2.09694 11.7215H2.39524C2.69353 11.7966 2.91725 11.9469 3.21555 12.0971C3.3647 12.2474 3.58842 12.3226 3.81214 12.3977C3.43927 12.6231 3.0664 12.8485 2.61896 12.9237C2.17151 12.9988 1.72407 12.9988 1.27663 12.9237C1.12748 12.8485 0.978329 12.9237 0.829181 12.9988C0.680033 13.0739 0.605464 13.2242 0.53089 13.3745C0.456316 13.5248 0.530889 13.675 0.605463 13.8253C0.680036 13.9756 0.829184 14.0507 0.978332 14.1259C1.27663 14.201 1.64949 14.2761 1.94779 14.2761C3.14097 14.2761 4.25958 13.8253 5.15447 12.9988C5.37819 12.8485 5.60191 12.6982 5.82563 12.548C5.90021 12.548 5.97479 12.4728 5.97479 12.4728C6.34766 12.3226 6.72053 12.2474 7.0934 12.1723C6.7951 12.6982 6.4968 13.2242 6.27308 13.7502C6.19851 14.0507 6.04935 14.3513 5.82563 14.6518C5.60191 14.8772 5.37819 15.1026 5.07989 15.2529C4.40873 15.4783 3.66299 15.4783 2.99183 15.1778C2.84268 15.1026 2.69353 15.1026 2.54438 15.1778C2.39524 15.2529 2.24609 15.4032 2.24609 15.5535C2.17151 15.7037 2.17151 15.854 2.24609 16.0043C2.32066 16.1546 2.39523 16.3048 2.61896 16.3048C3.14097 16.5303 3.66299 16.6054 4.25959 16.6054C4.55788 16.6054 4.7816 16.6054 5.07989 16.5303C4.85617 16.7557 4.63245 16.9059 4.33416 16.9811C4.18501 17.0562 4.03586 17.1314 3.96129 17.2816C3.88671 17.4319 3.88672 17.5822 3.88672 17.7325C3.96129 17.8827 4.03586 18.033 4.18501 18.1081C4.33416 18.1833 4.48331 18.1833 4.63246 18.1833C6.19851 17.6573 6.72052 16.3048 7.16796 15.0275C7.24254 14.8021 7.31711 14.5767 7.39169 14.3513C7.39169 14.2761 7.46627 14.2761 7.46627 14.201C8.28658 12.022 9.03231 12.0971 10.0018 12.1723C10.4492 12.2474 10.8221 12.4728 11.1204 12.7734C11.195 12.9237 11.2695 13.1491 11.3441 13.3745C11.3441 13.5999 11.3441 13.8253 11.2695 13.9756C11.2695 14.0507 11.2695 14.0507 11.2695 14.1259C11.2695 14.201 11.2695 14.201 11.2695 14.2761C11.2695 14.3513 11.2695 14.4264 11.195 14.5767C11.0458 15.2529 10.5984 15.6286 9.85263 16.1546C9.03232 16.6054 8.36115 17.2816 7.83914 18.1081C7.31712 18.9347 7.09339 19.8363 7.01882 20.7379C7.01882 20.8882 7.01882 21.0385 7.16796 21.1888C7.24254 21.3391 7.39169 21.4142 7.61541 21.4142H7.68998C7.83913 21.4142 7.98828 21.3391 8.13743 21.2639C8.28657 21.1888 8.28658 21.0385 8.36115 20.8882C8.43573 20.1369 8.65944 19.3855 9.03231 18.7093C9.40518 18.033 10.0018 17.507 10.6729 17.1314C10.8967 16.9811 11.0458 16.8308 11.2695 16.6805C11.2695 17.4319 11.4187 18.1833 11.717 18.9347C12.0153 19.6109 11.7915 19.9866 11.4187 20.5125C11.1204 20.8882 10.8967 21.4142 10.8967 21.9402V22.3158C10.8967 22.391 10.8967 22.4661 10.9712 22.5413C10.9712 22.6164 11.0458 22.6915 11.1204 22.7667C11.195 22.8418 11.2695 22.8418 11.3441 22.917C11.4187 22.917 11.4933 22.9921 11.5678 22.9921C11.717 22.9921 11.8661 22.917 12.0153 22.8418C12.1644 22.6915 12.1644 22.5413 12.1644 22.391V22.0904C12.239 21.7899 12.3881 21.5645 12.5373 21.2639C12.6864 21.1136 12.761 20.8882 12.8356 20.6628C13.0593 21.0385 13.283 21.4142 13.3576 21.865C13.4322 22.3158 13.4322 22.7667 13.3576 23.2175C13.283 23.3678 13.3576 23.5181 13.4322 23.6683C13.5068 23.8186 13.6559 23.8937 13.805 23.9689C13.9542 24.044 14.1033 23.9689 14.2525 23.8937C14.4016 23.8186 14.4762 23.6683 14.5508 23.518C14.6999 22.7667 14.6999 22.0153 14.4762 21.2639C14.2525 20.5125 13.8796 19.8363 13.3576 19.3103C13.1339 19.0849 12.9847 18.8595 12.9102 18.559C12.9102 18.4838 12.9102 18.4838 12.8356 18.4087C12.6864 18.033 12.6119 17.6573 12.5373 17.2816C13.0593 17.5822 13.5813 17.8827 14.1033 18.1081C14.4016 18.1833 14.6999 18.3336 14.9982 18.559C15.2219 18.7844 15.4457 19.0098 15.5948 19.3103C15.8185 19.9866 15.8185 20.738 15.5202 21.4142C15.5202 21.4893 15.4457 21.5645 15.4457 21.6396C15.4457 21.7147 15.4457 21.7899 15.5202 21.865C15.5202 21.9402 15.5948 22.0153 15.6694 22.0904C15.744 22.1656 15.8185 22.1656 15.8931 22.2407C15.9677 22.2407 16.0423 22.3158 16.1168 22.3158C16.1914 22.3158 16.266 22.3158 16.3406 22.2407C16.4151 22.2407 16.4897 22.1656 16.5643 22.0904C16.6389 22.0153 16.6389 21.9402 16.7134 21.865C17.0117 21.1136 17.0863 20.212 16.9372 19.3855C17.1609 19.6109 17.31 19.8363 17.3846 20.1369C17.3846 20.212 17.4592 20.2871 17.5337 20.3623C17.6083 20.4374 17.6829 20.5125 17.7575 20.5125C17.832 20.5877 17.9066 20.5877 17.9812 20.5877C18.0558 20.5877 18.1303 20.5877 18.2049 20.5877C18.2795 20.5877 18.3541 20.5125 18.4286 20.4374C18.5032 20.3623 18.5778 20.2871 18.5778 20.212C18.6523 20.1369 18.6524 20.0617 18.6524 19.9866C18.6524 19.9114 18.6524 19.8363 18.6524 19.7612C18.1303 18.1833 16.788 17.6573 15.5202 17.2065C15.2965 17.1314 15.0728 17.0562 14.8491 16.9811C14.7745 16.9811 14.7745 16.9059 14.6999 16.9059C12.5373 16.0794 12.6119 15.3281 12.6864 14.3513C12.761 13.9004 12.9847 13.5248 13.283 13.2242C13.4322 13.1491 13.6559 13.0739 13.8796 12.9988C14.1033 12.9988 14.2525 12.9988 14.4762 13.0739C14.5508 13.0739 14.5508 13.0739 14.6254 13.0739C14.6999 13.0739 14.6999 13.0739 14.7745 13.0739C14.7745 13.0739 14.9237 13.0739 15.0728 13.1491C15.744 13.2993 16.1168 13.7502 16.6388 14.5015C17.0863 15.3281 17.7575 16.0043 18.5778 16.5303C19.3981 17.0562 20.293 17.2816 21.1879 17.3568H21.2624C21.4116 17.3568 21.5607 17.2816 21.7099 17.2065C21.859 17.1314 21.859 16.9811 21.9336 16.7557C21.9336 16.6054 21.859 16.4551 21.7845 16.3048C21.7099 16.1546 21.5607 16.0794 21.4116 16.0794C20.6658 16.0043 19.9201 15.7789 19.2489 15.4032C18.5778 15.0275 18.0558 14.4264 17.6829 13.7502C17.5337 13.5248 17.3846 13.3745 17.2354 13.1491C17.9812 13.1491 18.7269 12.9988 19.4727 12.6982H19.5472C20.2184 12.4728 20.5167 12.6982 21.1133 12.9988C21.4862 13.2993 22.0082 13.5248 22.5302 13.5248H22.9031C23.0522 13.5248 23.2014 13.4496 23.3505 13.3745C23.4996 13.2242 23.4997 13.0739 23.4997 12.9237C23.4997 12.7734 23.4251 12.6231 23.3505 12.4728C23.2014 12.3226 23.0522 12.3226 22.9031 12.3226H22.6048C22.3065 12.2474 22.0828 12.0971 21.7845 11.9469C21.6353 11.7966 21.4116 11.7215 21.1879 11.6463C21.5607 11.4209 21.9336 11.1955 22.3811 11.1204C22.8285 11.0452 23.2759 11.0452 23.7234 11.1204C23.8725 11.1955 24.0217 11.1204 24.1708 11.0452C24.32 10.9701 24.3945 10.8198 24.4691 10.6695C24.5437 10.5193 24.4691 10.369 24.3945 10.2187C24.2454 9.91816 24.0962 9.76788 23.9471 9.76788Z" fill="url(#paint0_linear_5198_14954)"/>
<defs>
<linearGradient id="paint0_linear_5198_14954" x1="5.35463" y1="4.55747" x2="19.8421" y2="18.9288" gradientUnits="userSpaceOnUse">
<stop stop-color="#D2FFAD"/>
<stop offset="0.098" stop-color="#C8FCAD"/>
<stop offset="0.26" stop-color="#AFF6B0"/>
<stop offset="0.467" stop-color="#85ECB5"/>
<stop offset="0.711" stop-color="#4BDDBB"/>
<stop offset="0.983" stop-color="#03CBC2"/>
<stop offset="0.994" stop-color="#00CBC3"/>
</linearGradient>
</defs>
</svg>
