<svg width="48" height="50" viewBox="0 0 48 50" fill="none" xmlns="http://www.w3.org/2000/svg">
<g clip-path="url(#clip0_7053_34918)">
<path d="M46.6204 20.2218C45.16 19.9337 43.6995 19.9338 42.2392 20.3658C40.7786 20.7978 39.4644 21.5179 38.4422 22.526C38.0039 22.958 37.5658 23.2461 36.9816 23.3901C36.8355 23.3901 36.8355 23.3901 36.6897 23.534C35.9594 23.8221 35.2291 23.9662 34.4991 24.1101C35.0832 23.102 35.6674 22.094 36.1055 21.0858C36.2514 20.5098 36.5436 19.9338 36.9816 19.3577C37.4197 18.9257 37.858 18.4936 38.4422 18.2056C39.7564 17.7735 41.2169 17.7735 42.5312 18.3496C42.8233 18.4936 43.1153 18.4936 43.4075 18.3496C43.6995 18.2056 43.9917 17.9175 43.9917 17.6295C44.1376 17.3415 44.1376 17.0535 43.9917 16.7654C43.8456 16.4774 43.6995 16.1894 43.2614 16.1894C41.8011 15.6133 40.0486 15.4693 38.4422 15.7574C38.8802 15.3253 39.3183 15.0373 39.9025 14.8933C40.1945 14.7492 40.4867 14.6052 40.6328 14.3172C40.7787 14.0292 40.7786 13.7412 40.7786 13.4531C40.6328 13.1651 40.4867 12.8771 40.1945 12.7331C39.9025 12.589 39.6103 12.589 39.3183 12.589C36.2514 13.5971 35.2291 16.1894 34.353 18.6376C34.2069 19.0697 34.0608 19.5017 33.9149 19.9337C33.9149 20.0777 33.7688 20.0777 33.7688 20.2218C32.1624 24.3982 30.7019 24.2541 28.8034 24.1101C27.9271 23.9662 27.197 23.534 26.6129 22.958C26.4668 22.67 26.3207 22.2379 26.3207 21.8059C26.3207 21.3739 26.3207 21.0858 26.4668 20.6538C26.4668 20.5098 26.4668 20.5098 26.4668 20.3658C26.4668 20.2218 26.4668 20.2218 26.4668 20.0778C26.4668 20.0778 26.4668 19.7897 26.6129 19.5017C26.9048 18.2056 27.7812 17.4855 29.2415 16.4774C30.8479 15.6133 32.1624 14.3172 33.1846 12.7331C34.2069 11.1489 34.645 9.42076 34.791 7.6926C34.791 7.40456 34.791 7.11652 34.4991 6.82851C34.353 6.54047 34.0608 6.39647 33.6227 6.39647C33.3307 6.39647 33.0385 6.39647 32.7465 6.68451C32.4544 6.82851 32.3083 7.11652 32.3083 7.54856C32.3083 8.9887 31.7243 10.4288 30.994 11.725C30.2638 13.0211 29.0954 14.0292 27.7812 14.7492C27.3429 15.0373 27.0509 15.3253 26.6129 15.6133C26.6129 14.1732 26.3207 12.7331 25.7365 11.2929C25.1523 9.99681 25.5906 9.27672 26.3207 8.26863C26.9048 7.54856 27.3429 6.54049 27.3429 5.53238V4.81233C27.3429 4.66831 27.3429 4.52429 27.197 4.38027C27.197 4.23625 27.0509 4.09223 26.9048 3.94823C26.6129 3.6602 26.3207 3.66022 26.0287 3.5162C25.7365 3.5162 25.4445 3.66022 25.1523 3.80422C24.8603 4.09225 24.8603 4.38027 24.7142 4.66829V5.24436C24.5682 5.82042 24.2762 6.25245 23.984 6.82851C23.692 7.11652 23.5459 7.54858 23.3998 7.98061C22.9617 7.26054 22.5237 6.54049 22.3776 5.67642C22.2317 4.81233 22.2317 3.94823 22.3776 3.08416C22.3776 2.94014 22.3776 2.79613 22.3776 2.65211C22.3776 2.5081 22.3776 2.36408 22.2317 2.22007C22.0856 2.07605 22.0856 1.93204 21.9395 1.78802C21.7934 1.64401 21.6475 1.64401 21.5014 1.5C21.3553 1.5 21.2092 1.5 21.0633 1.5C20.9172 1.5 20.7711 1.50001 20.6251 1.64402C20.4792 1.78804 20.3331 1.78803 20.187 1.93205C20.041 2.07606 20.041 2.22008 19.8949 2.36409C19.6028 3.80422 19.6028 5.24436 20.041 6.68451C20.4792 8.12463 21.2092 9.42074 22.2317 10.4288C22.6697 10.8609 22.9617 11.2929 23.1078 11.869C23.1078 12.013 23.1078 12.013 23.2539 12.157C23.5459 12.8771 23.692 13.5972 23.8381 14.3172C22.8158 13.7412 21.7934 13.1651 20.7711 12.7331C20.187 12.589 19.6029 12.301 19.0187 11.869C18.5806 11.4369 18.1424 11.0049 17.8504 10.4288C17.4122 9.13272 17.4123 7.6926 17.9964 6.39647C17.9964 6.25247 18.1424 6.10845 18.1424 5.96443C18.1424 5.82041 18.1425 5.6764 17.9964 5.53238C17.9964 5.38838 17.8503 5.24436 17.7043 5.10034C17.5583 4.95632 17.4123 4.95632 17.2662 4.81233C17.1202 4.81233 16.9741 4.66829 16.8281 4.66829C16.682 4.66829 16.536 4.66831 16.39 4.81233C16.2439 4.81233 16.0979 4.95632 15.9518 5.10034C15.8058 5.24436 15.8058 5.38838 15.6598 5.53238C15.0756 6.97252 14.9296 8.70069 15.2216 10.2848C14.7835 9.85279 14.4914 9.42076 14.3454 8.8447C14.3454 8.70069 14.1993 8.55667 14.0533 8.41265C13.9073 8.26865 13.7612 8.12463 13.6152 8.12463C13.4691 7.98061 13.3231 7.98061 13.1771 7.98061C13.031 7.98061 12.885 7.98061 12.7389 7.98061C12.5929 7.98061 12.4469 8.12461 12.3008 8.26863C12.1548 8.41265 12.0087 8.55667 12.0087 8.70069C11.8627 8.84468 11.8627 8.9887 11.8627 9.13272C11.8627 9.27674 11.8627 9.42076 11.8627 9.56478C12.885 12.589 15.5137 13.5971 17.9964 14.4612C18.4345 14.6052 18.8726 14.7492 19.3108 14.8933C19.4568 14.8933 19.4568 15.0373 19.6028 15.0373C23.8381 16.6214 23.692 18.0616 23.5459 19.9337C23.3998 20.7978 22.9617 21.5179 22.3776 22.094C22.0856 22.2379 21.6475 22.3819 21.2092 22.526C20.7711 22.526 20.4792 22.526 20.041 22.3819C19.8949 22.3819 19.8949 22.3819 19.7489 22.3819C19.6029 22.3819 19.6029 22.3819 19.4568 22.3819C19.4568 22.3819 19.1647 22.3819 18.8726 22.2379C17.5583 21.9499 16.8281 21.0858 15.8058 19.6457C14.9296 18.0616 13.6152 16.7654 12.0087 15.7574C10.4023 14.7493 8.64981 14.3172 6.89731 14.1732C6.60523 14.1732 6.31316 14.1732 6.02108 14.4612C5.72899 14.6052 5.58296 14.8933 5.58296 15.3253C5.58296 15.6133 5.58296 15.9014 5.87504 16.1894C6.16711 16.4774 6.31316 16.6214 6.75128 16.6214C8.21169 16.7654 9.6721 17.1975 10.9865 17.9175C12.3008 18.6376 13.3231 19.7897 14.0533 21.0858C14.3454 21.5179 14.6375 21.8059 14.9296 22.2379C13.4691 22.2379 12.0087 22.526 10.5483 23.102C9.23396 23.6781 8.50377 23.2461 7.48148 22.526C6.75128 21.9499 5.72899 21.5179 4.7067 21.5179H3.9765C3.68443 21.5179 3.39235 21.662 3.10026 21.8059C2.80818 22.094 2.80818 22.3819 2.66214 22.67C2.66214 22.958 2.80818 23.2461 2.95423 23.534C3.24631 23.8221 3.53838 23.8221 3.83047 23.9662H4.41464C4.99879 24.1101 5.43691 24.3982 6.02108 24.6861C6.31316 24.9742 6.75128 25.1183 7.1894 25.2623C6.45919 25.6943 5.72899 26.1263 4.85275 26.2704C3.9765 26.4144 3.10026 26.4144 2.22402 26.2704C1.93194 26.1263 1.63985 26.2704 1.34777 26.4144C1.05569 26.5583 0.909659 26.8464 0.763618 27.1345C0.617577 27.4225 0.763615 27.7104 0.909657 27.9985C1.0557 28.2866 1.34778 28.4305 1.63986 28.5746C2.22402 28.7186 2.95421 28.8625 3.53838 28.8625C5.87502 28.8625 8.06564 27.9985 9.81813 26.4144C10.2562 26.1263 10.6944 25.8382 11.1325 25.5503C11.2785 25.5503 11.4246 25.4062 11.4246 25.4062C12.1548 25.1183 12.885 24.9742 13.6152 24.8302C13.031 25.8382 12.4469 26.8464 12.0087 27.8545C11.8627 28.4305 11.5706 29.0067 11.1325 29.5826C10.6944 30.0146 10.2562 30.4466 9.67208 30.7347C8.35772 31.1667 6.89731 31.1667 5.58296 30.5908C5.29087 30.4466 4.99879 30.4466 4.7067 30.5908C4.41464 30.7347 4.12255 31.0228 4.12255 31.3109C3.9765 31.5988 3.9765 31.8868 4.12255 32.1749C4.26858 32.463 4.41462 32.7509 4.85275 32.7509C5.87502 33.1831 6.89731 33.327 8.06565 33.327C8.64981 33.327 9.08792 33.327 9.67208 33.1831C9.23396 33.6151 8.79584 33.903 8.21169 34.0471C7.9196 34.191 7.62752 34.3352 7.48148 34.6231C7.33545 34.9111 7.33545 35.1992 7.33545 35.4873C7.48148 35.7752 7.62752 36.0632 7.9196 36.2072C8.21169 36.3513 8.50377 36.3513 8.79586 36.3513C11.8627 35.3432 12.885 32.7509 13.7612 30.3027C13.9073 29.8707 14.0533 29.4387 14.1993 29.0067C14.1993 28.8625 14.3454 28.8625 14.3454 28.7186C15.9518 24.5422 17.4122 24.6861 19.3108 24.8302C20.187 24.9742 20.9172 25.4062 21.5014 25.9823C21.6475 26.2704 21.7934 26.7024 21.9395 27.1345C21.9395 27.5665 21.9395 27.9985 21.7934 28.2866C21.7934 28.4305 21.7934 28.4305 21.7934 28.5746C21.7934 28.7186 21.7934 28.7186 21.7934 28.8625C21.7934 29.0067 21.7934 29.1506 21.6475 29.4387C21.3553 30.7347 20.4792 31.4548 19.0187 32.463C17.4122 33.327 16.0979 34.6231 15.0756 36.2072C14.0533 37.7915 13.6152 39.5196 13.4691 41.2478C13.4691 41.5357 13.4691 41.8238 13.7612 42.1119C13.9073 42.3999 14.1993 42.5439 14.6375 42.5439H14.7835C15.0756 42.5439 15.3677 42.3999 15.6598 42.2558C15.9518 42.1119 15.9518 41.8238 16.0979 41.5357C16.2439 40.0957 16.682 38.6555 17.4122 37.3595C18.1424 36.0632 19.3108 35.0551 20.6251 34.3352C21.0633 34.0471 21.3553 33.759 21.7934 33.471C21.7934 34.9111 22.0856 36.3513 22.6697 37.7915C23.2539 39.0876 22.8156 39.8076 22.0856 40.8156C21.5014 41.5357 21.0633 42.5439 21.0633 43.552V44.2719C21.0633 44.4161 21.0633 44.56 21.2092 44.7041C21.2092 44.8481 21.3553 44.992 21.5014 45.1362C21.6475 45.2801 21.7934 45.2801 21.9395 45.4242C22.0856 45.4242 22.2317 45.5682 22.3776 45.5682C22.6697 45.5682 22.9617 45.4242 23.2539 45.2801C23.5459 44.992 23.5459 44.7042 23.5459 44.4161V43.8399C23.692 43.264 23.984 42.832 24.2762 42.2558C24.5682 41.9677 24.7142 41.5357 24.8603 41.1037C25.2984 41.8238 25.7365 42.5439 25.8826 43.4079C26.0287 44.2719 26.0287 45.1362 25.8826 46.0002C25.7365 46.2883 25.8826 46.5764 26.0287 46.8642C26.1748 47.1523 26.4668 47.2962 26.7587 47.4404C27.0509 47.5843 27.3429 47.4404 27.6351 47.2962C27.9271 47.1523 28.0732 46.8642 28.2193 46.5762C28.5113 45.1362 28.5113 43.696 28.0732 42.2558C27.6351 40.8156 26.9048 39.5196 25.8826 38.5114C25.4445 38.0794 25.1523 37.6474 25.0064 37.0714C25.0064 36.9273 25.0064 36.9273 24.8603 36.7833C24.5682 36.0632 24.4223 35.3432 24.2762 34.6231C25.2984 35.1992 26.3207 35.7752 27.3429 36.2072C27.9271 36.3513 28.5113 36.6394 29.0954 37.0714C29.5335 37.5034 29.9718 37.9354 30.2638 38.5114C30.7019 39.8076 30.7019 41.2478 30.1177 42.5439C30.1177 42.6878 29.9718 42.832 29.9718 42.9759C29.9718 43.1198 29.9718 43.264 30.1177 43.4079C30.1177 43.552 30.2638 43.696 30.4099 43.8399C30.556 43.9841 30.7019 43.9841 30.8479 44.128C30.994 44.128 31.1401 44.2719 31.286 44.2719C31.4321 44.2719 31.5782 44.2719 31.7243 44.128C31.8702 44.128 32.0163 43.9841 32.1624 43.8399C32.3085 43.696 32.3085 43.552 32.4544 43.4079C33.0385 41.9677 33.1846 40.2397 32.8926 38.6555C33.3307 39.0876 33.6227 39.5196 33.7688 40.0957C33.7688 40.2397 33.9149 40.3836 34.0608 40.5277C34.2069 40.6717 34.353 40.8156 34.4991 40.8156C34.645 40.9598 34.791 40.9598 34.9371 40.9598C35.0832 40.9598 35.2291 40.9598 35.3752 40.9598C35.5213 40.9598 35.6674 40.8156 35.8133 40.6717C35.9594 40.5277 36.1055 40.3836 36.1055 40.2397C36.2514 40.0957 36.2516 39.9516 36.2516 39.8076C36.2516 39.6635 36.2516 39.5196 36.2516 39.3756C35.2291 36.3513 32.6005 35.3432 30.1177 34.4791C29.6796 34.3352 29.2415 34.191 28.8034 34.0471C28.6574 34.0471 28.6574 33.903 28.5113 33.903C24.2762 32.3188 24.4223 30.8789 24.5682 29.0067C24.7142 28.1424 25.1523 27.4225 25.7365 26.8464C26.0287 26.7024 26.4668 26.5583 26.9048 26.4144C27.3429 26.4144 27.6351 26.4144 28.0732 26.5583C28.2193 26.5583 28.2193 26.5583 28.3654 26.5583C28.5113 26.5583 28.5113 26.5583 28.6574 26.5583C28.6574 26.5583 28.9495 26.5583 29.2415 26.7024C30.556 26.9903 31.286 27.8545 32.3083 29.2945C33.1846 30.8789 34.4991 32.1749 36.1055 33.1831C37.7119 34.191 39.4644 34.6231 41.2169 34.7672H41.3628C41.655 34.7672 41.947 34.6231 42.2392 34.4791C42.5312 34.3352 42.5312 34.0471 42.6773 33.6151C42.6773 33.327 42.5312 33.0389 42.3853 32.7509C42.2392 32.463 41.947 32.3188 41.655 32.3188C40.1945 32.1749 38.7341 31.7429 37.4197 31.0228C36.1055 30.3027 35.0832 29.1506 34.353 27.8545C34.0608 27.4225 33.7688 27.1345 33.4766 26.7024C34.9371 26.7024 36.3975 26.4144 37.858 25.8382H38.0039C39.3183 25.4062 39.9025 25.8382 41.0708 26.4144C41.8011 26.9903 42.8233 27.4225 43.8456 27.4225H44.5759C44.8678 27.4225 45.16 27.2784 45.452 27.1345C45.744 26.8464 45.7442 26.5583 45.7442 26.2704C45.7442 25.9823 45.5981 25.6943 45.452 25.4062C45.16 25.1183 44.8678 25.1183 44.5759 25.1183H43.9917C43.4075 24.9742 42.9694 24.6861 42.3853 24.3982C42.0931 24.1101 41.655 23.9662 41.2169 23.8221C41.947 23.3901 42.6773 22.958 43.5534 22.8141C44.4298 22.67 45.3059 22.67 46.1823 22.8141C46.4743 22.958 46.7664 22.8141 47.0584 22.67C47.3506 22.526 47.4965 22.2379 47.6426 21.9499C47.7887 21.662 47.6426 21.3739 47.4965 21.0858C47.2045 20.5098 46.9123 20.2218 46.6204 20.2218Z" fill="url(#paint0_linear_7053_34918)"/>
</g>
<defs>
<linearGradient id="paint0_linear_7053_34918" x1="10.2101" y1="10.2351" x2="37.9761" y2="38.3774" gradientUnits="userSpaceOnUse">
<stop stop-color="#D2FFAD"/>
<stop offset="0.098" stop-color="#C8FCAD"/>
<stop offset="0.26" stop-color="#AFF6B0"/>
<stop offset="0.467" stop-color="#85ECB5"/>
<stop offset="0.711" stop-color="#4BDDBB"/>
<stop offset="0.983" stop-color="#03CBC2"/>
<stop offset="0.994" stop-color="#00CBC3"/>
</linearGradient>
<clipPath id="clip0_7053_34918">
<rect width="47" height="49" fill="white" transform="translate(0.5 0.5)"/>
</clipPath>
</defs>
</svg>
