<svg width="19" height="19" viewBox="0 0 19 19" fill="none" xmlns="http://www.w3.org/2000/svg">
<g clip-path="url(#clip0_5241_105112)">
<path d="M18.7998 9.78906C18.7998 4.8185 14.7704 0.789062 9.7998 0.789062C4.82924 0.789062 0.799805 4.8185 0.799805 9.78906C0.799805 14.7596 4.82924 18.7891 9.7998 18.7891C14.7704 18.7891 18.7998 14.7596 18.7998 9.78906Z" fill="url(#paint0_linear_5241_105112)"/>
<path d="M15.2909 8.81001C14.935 8.72986 14.5648 8.73945 14.2136 8.8379C13.8624 8.93635 13.5412 9.12059 13.2789 9.37402C13.1721 9.46533 13.0507 9.53801 12.9199 9.58902C12.8989 9.59702 12.8779 9.60402 12.8559 9.61302C12.678 9.67602 12.494 9.71993 12.3069 9.74401C12.467 9.50678 12.5955 9.2496 12.6889 8.97902V8.96902C12.7334 8.81732 12.808 8.67615 12.9084 8.55398C13.0087 8.43181 13.1327 8.33115 13.2729 8.25802C13.5972 8.1391 13.9546 8.14766 14.2729 8.28201C14.3451 8.30325 14.4227 8.29654 14.4903 8.2632C14.5578 8.22985 14.6103 8.17233 14.6374 8.10205C14.6645 8.03177 14.6641 7.95388 14.6364 7.88385C14.6087 7.81381 14.5557 7.75675 14.4879 7.72401C14.1158 7.57409 13.708 7.53654 13.3149 7.61601C13.4174 7.50762 13.5468 7.42827 13.6899 7.38601C13.731 7.37773 13.77 7.36091 13.8042 7.33662C13.8385 7.31233 13.8673 7.28111 13.8887 7.24501C13.9101 7.2089 13.9237 7.16871 13.9286 7.12701C13.9335 7.08531 13.9296 7.04304 13.9172 7.00294C13.9047 6.96284 13.884 6.9258 13.8563 6.89422C13.8287 6.86264 13.7947 6.83723 13.7566 6.81961C13.7185 6.80199 13.6771 6.79256 13.6351 6.79194C13.5931 6.79132 13.5515 6.79953 13.5129 6.81602C12.7589 7.05002 12.5219 7.70501 12.2929 8.33801C12.2539 8.44601 12.2119 8.55802 12.1679 8.66902C12.1579 8.69302 12.1489 8.71802 12.1389 8.74302L12.1329 8.75802V8.76802C11.7489 9.81802 11.3839 9.77902 10.9219 9.73002C10.71 9.70406 10.5152 9.60078 10.3749 9.44001C10.3253 9.35473 10.2946 9.25978 10.2849 9.1616C10.2753 9.06343 10.2868 8.96433 10.3189 8.87101C10.3244 8.84742 10.3271 8.82326 10.3268 8.79902C10.3268 8.77302 10.3339 8.75301 10.3359 8.74101C10.3379 8.72901 10.3459 8.67501 10.3549 8.59701C10.4189 8.26701 10.6319 8.10402 11.0039 7.84802C11.3955 7.62598 11.7252 7.30925 11.9628 6.92683C12.2004 6.54441 12.3383 6.10851 12.3639 5.65902C12.3655 5.58406 12.3391 5.51119 12.2897 5.45477C12.2403 5.39835 12.1716 5.36246 12.0971 5.35418C12.0225 5.3459 11.9476 5.36583 11.8871 5.41003C11.8265 5.45424 11.7847 5.51952 11.7699 5.59301C11.7524 5.9565 11.6421 6.30946 11.4495 6.61825C11.257 6.92704 10.9886 7.18138 10.6699 7.35702C10.5769 7.42102 10.4819 7.48702 10.3889 7.55702C10.3725 7.18785 10.3 6.82333 10.1738 6.47601C10.0438 6.15701 10.1539 5.98101 10.3209 5.71801C10.4664 5.52337 10.5588 5.29419 10.5889 5.05302V4.88002C10.5902 4.80045 10.5598 4.72362 10.5045 4.66642C10.4492 4.60923 10.3734 4.57633 10.2939 4.57501C10.2143 4.57368 10.1375 4.60402 10.0803 4.65934C10.0231 4.71467 9.99018 4.79046 9.98885 4.87002V5.02002C9.95854 5.15756 9.89808 5.28667 9.81185 5.39802C9.7538 5.48686 9.70041 5.57864 9.65186 5.67302C9.52813 5.49944 9.44139 5.3023 9.39701 5.09381C9.35263 4.88532 9.35154 4.66993 9.39385 4.46101C9.4098 4.42224 9.41746 4.38057 9.41631 4.33866C9.41517 4.29676 9.40524 4.25557 9.3872 4.21774C9.36915 4.1799 9.34338 4.14626 9.31154 4.119C9.27971 4.09173 9.24251 4.07145 9.20235 4.05944C9.16219 4.04744 9.11995 4.04398 9.07837 4.0493C9.0368 4.05461 8.99679 4.06859 8.96094 4.09031C8.92509 4.11204 8.8942 4.14103 8.87024 4.17543C8.84629 4.20982 8.8298 4.24886 8.82186 4.29002C8.74188 4.64571 8.75155 5.01569 8.85 5.36671C8.94844 5.71773 9.13258 6.0388 9.38585 6.30102C9.4772 6.40775 9.54988 6.52911 9.60085 6.66001C9.60885 6.68201 9.61585 6.70201 9.62485 6.72401C9.68745 6.90156 9.73103 7.08526 9.75486 7.27201C9.51787 7.11228 9.26102 6.9842 8.99085 6.89102H8.97986C8.82813 6.84657 8.68694 6.77192 8.56476 6.67157C8.44259 6.57121 8.34193 6.44722 8.26885 6.30702C8.14993 5.98267 8.15851 5.62528 8.29285 5.30702C8.31409 5.23476 8.30738 5.15716 8.27404 5.08963C8.2407 5.02209 8.18317 4.96956 8.11289 4.94249C8.04261 4.91541 7.96472 4.91576 7.89469 4.94346C7.82465 4.97116 7.76759 5.02419 7.73485 5.09202C7.58487 5.46404 7.54732 5.87186 7.62685 6.26501C7.51842 6.16251 7.43907 6.03313 7.39686 5.89001C7.3677 5.82173 7.31424 5.76669 7.24685 5.73553C7.17945 5.70437 7.1029 5.69932 7.03199 5.72134C6.96108 5.74336 6.90086 5.79088 6.86297 5.85473C6.82507 5.91858 6.8122 5.99422 6.82685 6.06701C7.06085 6.82101 7.71585 7.05801 8.34885 7.28701C8.45685 7.32601 8.56886 7.36801 8.67986 7.41201L8.75385 7.44102L8.76885 7.44702H8.77886C9.82886 7.83102 9.78985 8.19602 9.74085 8.65802C9.7148 8.86983 9.61155 9.06458 9.45086 9.20501C9.36557 9.25459 9.27062 9.28526 9.17245 9.29492C9.07427 9.30458 8.97517 9.29302 8.88186 9.26101C8.85827 9.25545 8.83409 9.25277 8.80985 9.25302L8.75086 9.24401C8.73786 9.24401 8.68486 9.23402 8.60686 9.22502C8.27686 9.16102 8.11385 8.94802 7.85785 8.57602C7.63581 8.18436 7.31909 7.85465 6.93667 7.61706C6.55425 7.37947 6.11835 7.24158 5.66886 7.21601C5.5938 7.21406 5.52072 7.24032 5.46409 7.28962C5.40745 7.33892 5.37137 7.40768 5.36295 7.4823C5.35453 7.55691 5.3744 7.63196 5.41863 7.69264C5.46286 7.75331 5.52825 7.79519 5.60186 7.81001C5.96552 7.82732 6.31868 7.93751 6.62766 8.13008C6.93664 8.32264 7.19113 8.59116 7.36686 8.91002C7.43086 9.00302 7.49685 9.09802 7.56685 9.19102C7.19769 9.20732 6.83317 9.27982 6.48586 9.40602C6.16686 9.53602 5.99085 9.42601 5.72785 9.25901C5.5332 9.11347 5.30403 9.02111 5.06286 8.99101H4.88985C4.85046 8.99035 4.81131 8.99747 4.77466 9.01194C4.73801 9.02641 4.70458 9.04795 4.67626 9.07534C4.64794 9.10274 4.62529 9.13545 4.60961 9.1716C4.59393 9.20774 4.58552 9.24663 4.58486 9.28602C4.5842 9.32542 4.59131 9.36455 4.60578 9.4012C4.62025 9.43784 4.6418 9.47129 4.6692 9.49961C4.69659 9.52794 4.72929 9.55058 4.76543 9.56627C4.80158 9.58195 4.84046 9.59036 4.87986 9.59101H5.02985C5.16737 9.62139 5.29647 9.68184 5.40786 9.76802C5.49669 9.82608 5.58848 9.87949 5.68285 9.92802C5.5094 10.0516 5.31244 10.1383 5.10413 10.1827C4.89583 10.227 4.68062 10.2282 4.47185 10.186C4.3974 10.1686 4.3191 10.1803 4.25297 10.2186C4.18683 10.257 4.13783 10.3192 4.116 10.3925C4.09417 10.4658 4.10115 10.5446 4.1355 10.6129C4.16986 10.6812 4.22902 10.7339 4.30086 10.76C4.45165 10.7994 4.60704 10.8182 4.76285 10.816C5.33894 10.8108 5.89207 10.5895 6.31286 10.196C6.41382 10.1087 6.52833 10.0385 6.65186 9.98802L6.73485 9.95602C6.91272 9.89309 7.09674 9.84917 7.28385 9.82501C7.12414 10.062 6.99606 10.3189 6.90285 10.589V10.6C6.8584 10.7517 6.78377 10.8929 6.68342 11.0151C6.58306 11.1373 6.45906 11.2379 6.31885 11.311C5.99451 11.4299 5.63712 11.4214 5.31885 11.287C5.24659 11.2658 5.16899 11.2725 5.10146 11.3058C5.03393 11.3392 4.9814 11.3967 4.95432 11.467C4.92724 11.5373 4.9276 11.6152 4.9553 11.6852C4.983 11.7552 5.03603 11.8123 5.10386 11.845C5.35327 11.9423 5.61817 11.9938 5.88585 11.997C6.01711 11.9974 6.14798 11.9826 6.27585 11.953C6.17363 12.0613 6.04462 12.1406 5.90186 12.183C5.83358 12.2122 5.77852 12.2656 5.74737 12.333C5.71621 12.4004 5.71116 12.477 5.73318 12.5479C5.75519 12.6188 5.80273 12.679 5.86658 12.7169C5.93044 12.7548 6.00607 12.7677 6.07886 12.753C6.83286 12.519 7.06985 11.864 7.29885 11.231C7.33785 11.123 7.37985 11.011 7.42385 10.9C7.43385 10.876 7.44386 10.85 7.45286 10.825L7.45786 10.811V10.801C7.84186 9.75102 8.20686 9.78902 8.66886 9.83902C8.8807 9.86498 9.07549 9.96824 9.21586 10.129C9.26544 10.2143 9.2961 10.3092 9.30576 10.4074C9.31542 10.5056 9.30386 10.6047 9.27186 10.698C9.26629 10.7216 9.26361 10.7458 9.26386 10.77C9.26386 10.796 9.25686 10.816 9.25486 10.829C9.25286 10.842 9.24486 10.895 9.23586 10.973C9.17186 11.303 8.95886 11.466 8.58686 11.722C8.19514 11.944 7.86539 12.2607 7.62778 12.6431C7.39018 13.0256 7.25233 13.4615 7.22686 13.911C7.21841 13.9896 7.24129 14.0683 7.29053 14.1301C7.33977 14.1919 7.4114 14.2317 7.48986 14.241H7.52386C7.59771 14.2415 7.66915 14.2148 7.72451 14.1659C7.77986 14.117 7.81524 14.0494 7.82386 13.976C7.84134 13.6125 7.9516 13.2596 8.14416 12.9508C8.33671 12.642 8.60513 12.3877 8.92385 12.212C9.01685 12.148 9.11186 12.082 9.20485 12.012C9.22147 12.3805 9.29396 12.7443 9.41985 13.091C9.55185 13.411 9.44086 13.591 9.27386 13.851C9.12831 14.0457 9.03595 14.2748 9.00585 14.516V14.689C9.00583 14.7676 9.03662 14.843 9.09159 14.8991C9.14656 14.9552 9.22134 14.9874 9.29986 14.989H9.30486C9.3834 14.989 9.45881 14.9583 9.5149 14.9033C9.57099 14.8483 9.60329 14.7735 9.60486 14.695V14.545C9.63521 14.4075 9.69564 14.2784 9.78185 14.167C9.83991 14.0782 9.89332 13.9864 9.94185 13.892C10.0655 14.0656 10.1522 14.2628 10.1966 14.4712C10.241 14.6797 10.2421 14.8951 10.1999 15.104C10.1839 15.1428 10.1763 15.1845 10.1774 15.2264C10.1786 15.2683 10.1885 15.3095 10.2065 15.3473C10.2245 15.3851 10.2503 15.4188 10.2822 15.446C10.314 15.4733 10.3512 15.4936 10.3914 15.5056C10.4315 15.5176 10.4738 15.5211 10.5153 15.5157C10.5569 15.5104 10.5969 15.4965 10.6328 15.4747C10.6686 15.453 10.6995 15.424 10.7235 15.3896C10.7474 15.3552 10.7639 15.3162 10.7719 15.275C10.852 14.9192 10.8424 14.549 10.744 14.1978C10.6455 13.8466 10.4613 13.5253 10.2079 13.263C10.1165 13.1563 10.0439 13.0349 9.99285 12.904C9.98485 12.883 9.97786 12.862 9.96886 12.841C9.9059 12.6632 9.86198 12.4791 9.83785 12.292C10.0748 12.4517 10.3317 12.5798 10.6019 12.673H10.6129C10.7646 12.7175 10.9058 12.7921 11.0279 12.8925C11.1501 12.9928 11.2508 13.1168 11.3239 13.257C11.4428 13.5814 11.4342 13.9387 11.2999 14.257C11.2818 14.2944 11.2717 14.335 11.2702 14.3765C11.2687 14.4179 11.2758 14.4592 11.2911 14.4978C11.3063 14.5363 11.3294 14.5713 11.3588 14.6005C11.3883 14.6297 11.4235 14.6525 11.4622 14.6674C11.5009 14.6823 11.5422 14.689 11.5837 14.6871C11.6251 14.6852 11.6657 14.6748 11.7028 14.6564C11.74 14.6381 11.773 14.6122 11.7997 14.5805C11.8264 14.5487 11.8462 14.5118 11.8579 14.472C12.0078 14.1 12.0454 13.6922 11.9659 13.299C12.0743 13.4015 12.1536 13.5309 12.1959 13.674C12.225 13.7423 12.2785 13.7973 12.3459 13.8285C12.4133 13.8597 12.4898 13.8647 12.5607 13.8427C12.6316 13.8207 12.6918 13.7732 12.7297 13.7093C12.7676 13.6454 12.7805 13.5698 12.7659 13.497C12.5319 12.743 11.8769 12.506 11.2439 12.277C11.1359 12.238 11.0239 12.196 10.9129 12.152L10.8379 12.123L10.8239 12.118H10.8139C9.76386 11.734 9.80286 11.369 9.85186 10.907C9.87782 10.6952 9.98108 10.5004 10.1419 10.36C10.2271 10.3104 10.3221 10.2798 10.4203 10.2701C10.5184 10.2604 10.6175 10.272 10.7109 10.304C10.7344 10.3096 10.7586 10.3123 10.7829 10.312L10.8419 10.321C10.8549 10.321 10.9089 10.331 10.9839 10.34C11.3149 10.404 11.4769 10.617 11.7329 10.989C11.9549 11.3807 12.2716 11.7104 12.654 11.948C13.0365 12.1856 13.4724 12.3235 13.9219 12.349H13.9559C14.0354 12.3534 14.1135 12.326 14.1728 12.2728C14.2322 12.2196 14.268 12.1451 14.2724 12.0655C14.2767 11.986 14.2493 11.9079 14.1962 11.8486C14.143 11.7892 14.0684 11.7534 13.9889 11.749C13.6254 11.7315 13.2724 11.6213 12.9636 11.4287C12.6548 11.2362 12.4005 10.9677 12.2249 10.649C12.1609 10.556 12.0949 10.461 12.0249 10.368C12.3872 10.3516 12.7451 10.2815 13.0869 10.16H13.0919H13.1009L13.1239 10.151C13.4319 10.031 13.6059 10.141 13.8649 10.304C14.0595 10.4496 14.2887 10.5419 14.5299 10.572H14.7029H14.7079C14.7874 10.5727 14.864 10.5417 14.9207 10.4859C14.9775 10.4301 15.0097 10.3541 15.0104 10.2745C15.011 10.195 14.9801 10.1184 14.9243 10.0617C14.8685 10.0049 14.7924 9.97267 14.7129 9.97201H14.5629C14.4253 9.94167 14.2962 9.88122 14.1849 9.79501C14.096 9.73695 14.0042 9.68356 13.9099 9.63502C14.0835 9.51135 14.2806 9.42462 14.4891 9.38025C14.6976 9.33587 14.9129 9.33476 15.1219 9.37701C15.1949 9.39111 15.2706 9.37757 15.3342 9.33902C15.3978 9.30046 15.4448 9.23965 15.4661 9.16838C15.4875 9.0971 15.4815 9.02046 15.4495 8.95332C15.4175 8.88618 15.3616 8.83332 15.2929 8.80502L15.2909 8.81001Z" fill="white"/>
</g>
<defs>
<linearGradient id="paint0_linear_5241_105112" x1="9.7998" y1="-4.61094" x2="9.7998" y2="18.7891" gradientUnits="userSpaceOnUse">
<stop stop-color="#AADA5D"/>
<stop offset="1" stop-color="#2EA8AF"/>
</linearGradient>
<clipPath id="clip0_5241_105112">
<rect width="18" height="18" fill="white" transform="translate(0.799805 0.789062)"/>
</clipPath>
</defs>
</svg>
