<svg width="25" height="25" viewBox="0 0 25 25" fill="none" xmlns="http://www.w3.org/2000/svg">
<g clip-path="url(#clip0_5206_107414)">
<path fill-rule="evenodd" clip-rule="evenodd" d="M7.36719 22.9715L10.511 23.9441V22.6723L10.7677 22.373H12.5642V23.8693V24.9166H10.6394L8.26543 23.7197L7.36719 22.9715Z" fill="#CDBDB2"/>
<path fill-rule="evenodd" clip-rule="evenodd" d="M17.6328 22.9715L14.5531 23.9441V22.6723L14.2965 22.373H12.5V23.8693V24.9166H14.4248L16.7987 23.7197L17.6328 22.9715Z" fill="#CDBDB2"/>
<path fill-rule="evenodd" clip-rule="evenodd" d="M10.7684 20.2036L10.5117 22.6724L10.8325 22.3732H14.1689L14.5538 22.6724L14.2972 20.2036L13.7839 19.8296L11.2175 19.9044L10.7684 20.2036Z" fill="#393939"/>
<path fill-rule="evenodd" clip-rule="evenodd" d="M9.03906 3.52051L10.5789 7.70995L11.2847 19.9042H13.7869L14.5569 7.70995L15.9684 3.52051H9.03906Z" fill="#F89C35"/>
<path fill-rule="evenodd" clip-rule="evenodd" d="M2.3004 12.7224L0.503906 18.7821L4.99514 18.4829H7.88236V15.8645L7.75404 10.478L7.11243 11.0765L2.3004 12.7224Z" fill="#F89D35"/>
<path fill-rule="evenodd" clip-rule="evenodd" d="M5.69922 13.3955L10.9604 13.5451L10.3829 16.6872L7.88067 15.9391L5.69922 13.3955Z" fill="#D87C30"/>
<path fill-rule="evenodd" clip-rule="evenodd" d="M5.69922 13.4707L7.88067 15.8647V18.2586L5.69922 13.4707Z" fill="#EA8D3A"/>
<path fill-rule="evenodd" clip-rule="evenodd" d="M7.88281 15.9395L10.4492 16.6876L11.2833 19.9045L10.7059 20.2785L7.88281 18.3334V15.9395Z" fill="#F89D35"/>
<path fill-rule="evenodd" clip-rule="evenodd" d="M7.88047 18.333L7.36719 22.9713L10.7677 20.2033L7.88047 18.333Z" fill="#EB8F35"/>
<path fill-rule="evenodd" clip-rule="evenodd" d="M10.9619 13.5454L11.2827 19.9044L10.3203 16.6501L10.9619 13.5454Z" fill="#EA8E3A"/>
<path fill-rule="evenodd" clip-rule="evenodd" d="M4.92969 18.4078L7.88107 18.333L7.36778 22.9713L4.92969 18.4078Z" fill="#D87C30"/>
<path fill-rule="evenodd" clip-rule="evenodd" d="M1.91544 24.9916L7.36907 22.9717L4.93098 18.4082L0.503906 18.7823L1.91544 24.9916Z" fill="#EB8F35"/>
<path fill-rule="evenodd" clip-rule="evenodd" d="M10.5754 7.70996L7.81651 10.4032L5.69922 13.3956L10.9604 13.6201L10.5754 7.70996Z" fill="#E8821E"/>
<path fill-rule="evenodd" clip-rule="evenodd" d="M7.36719 22.9716L10.7677 20.2036L10.511 22.5976V23.9442L8.20127 23.4205L7.36719 22.9716Z" fill="#DFCEC3"/>
<path fill-rule="evenodd" clip-rule="evenodd" d="M17.6328 22.9716L14.2965 20.2036L14.5531 22.5976V23.9442L16.8629 23.4205L17.6328 22.9716Z" fill="#DFCEC3"/>
<path fill-rule="evenodd" clip-rule="evenodd" d="M9.55205 14.8921L10.2578 16.6128L7.75555 15.8646L9.55205 14.8921Z" fill="#393939"/>
<path fill-rule="evenodd" clip-rule="evenodd" d="M1.85156 0.00439453L10.5774 7.70998L9.10169 3.52053L1.85156 0.00439453Z" fill="#E88F35"/>
<path fill-rule="evenodd" clip-rule="evenodd" d="M1.8502 0.00439453L0.695312 4.11903L1.33692 8.60771L0.887794 8.90696L1.5294 9.58026L1.01611 10.1039L1.72188 10.8521L1.27276 11.3009L2.29932 12.7972L7.11136 11.0765C9.46391 8.88202 10.6188 7.75985 10.576 7.70998C10.5332 7.6601 7.62464 5.09158 1.8502 0.00439453Z" fill="#8E5A30"/>
<path fill-rule="evenodd" clip-rule="evenodd" d="M22.7035 12.7224L24.5 18.7821L20.0088 18.4829H17.1215V15.8645L17.2499 10.478L17.8915 11.0765L22.7035 12.7224Z" fill="#F89D35"/>
<path fill-rule="evenodd" clip-rule="evenodd" d="M19.3047 13.3955L14.0435 13.5451L14.621 16.6872L17.1232 15.9391L19.3047 13.3955Z" fill="#D87C30"/>
<path fill-rule="evenodd" clip-rule="evenodd" d="M19.3047 13.4707L17.1232 15.8647V18.2586L19.3047 13.4707Z" fill="#EA8D3A"/>
<path fill-rule="evenodd" clip-rule="evenodd" d="M17.1211 15.9395L14.5547 16.6876L13.7206 19.9045L14.298 20.2785L17.1211 18.3334V15.9395Z" fill="#F89D35"/>
<path fill-rule="evenodd" clip-rule="evenodd" d="M17.1234 18.333L17.6367 22.9713L14.3004 20.2781L17.1234 18.333Z" fill="#EB8F35"/>
<path fill-rule="evenodd" clip-rule="evenodd" d="M14.042 13.5454L13.7212 19.9044L14.6836 16.6501L14.042 13.5454Z" fill="#EA8E3A"/>
<path fill-rule="evenodd" clip-rule="evenodd" d="M20.0742 18.4078L17.1228 18.333L17.6361 22.9713L20.0742 18.4078Z" fill="#D87C30"/>
<path fill-rule="evenodd" clip-rule="evenodd" d="M23.0885 24.9916L17.6348 22.9717L20.0729 18.4082L24.5 18.7823L23.0885 24.9916Z" fill="#EB8F35"/>
<path fill-rule="evenodd" clip-rule="evenodd" d="M14.4285 7.70996L17.1874 10.4032L19.3047 13.3956L14.0435 13.6201L14.4285 7.70996Z" fill="#E8821E"/>
<path fill-rule="evenodd" clip-rule="evenodd" d="M15.4519 14.8921L14.7461 16.6128L17.2484 15.8646L15.4519 14.8921Z" fill="#393939"/>
<path fill-rule="evenodd" clip-rule="evenodd" d="M23.1523 0.00439453L14.4265 7.70998L15.9022 3.52053L23.1523 0.00439453Z" fill="#E88F35"/>
<path fill-rule="evenodd" clip-rule="evenodd" d="M23.1537 0.00439453L24.3086 4.11903L23.667 8.60771L24.1161 8.90696L23.4745 9.58026L23.9878 10.1039L23.282 10.8521L23.7311 11.3009L22.7046 12.7972L17.8925 11.0765C15.54 8.88202 14.3851 7.75985 14.4279 7.70998C14.4707 7.6601 17.3793 5.09158 23.1537 0.00439453Z" fill="#8E5A30"/>
</g>
<defs>
<clipPath id="clip0_5206_107414">
<rect width="24" height="25" fill="white" transform="translate(0.5)"/>
</clipPath>
</defs>
</svg>
