<svg width="184" height="35" viewBox="0 0 184 35" fill="none" xmlns="http://www.w3.org/2000/svg">
<g clip-path="url(#clip0_5200_26607)">
<path d="M40.7266 26.9998V5.2998H45.4386L53.3436 18.1648L49.9646 18.1338L57.9626 5.2998H62.4886V26.9998H57.3736V20.2418C57.3736 18.3818 57.415 16.7078 57.4976 15.2198C57.601 13.7318 57.7663 12.2541 57.9936 10.7868L58.5826 12.3988L52.5686 21.7298H50.5226L44.6326 12.4608L45.2216 10.7868C45.449 12.1715 45.604 13.5975 45.6866 15.0648C45.79 16.5115 45.8416 18.2371 45.8416 20.2418V26.9998H40.7266Z" fill="#24272A"/>
<path d="M75.1665 27.3102C73.4512 27.3102 71.9219 26.9382 70.5785 26.1942C69.2559 25.4502 68.2019 24.4375 67.4165 23.1562C66.6519 21.8749 66.2695 20.4075 66.2695 18.7542C66.2695 17.1009 66.6519 15.6335 67.4165 14.3522C68.2019 13.0709 69.2559 12.0582 70.5785 11.3142C71.9219 10.5702 73.4512 10.1982 75.1665 10.1982C76.8819 10.1982 78.4009 10.5702 79.7235 11.3142C81.0669 12.0582 82.1209 13.0709 82.8855 14.3522C83.6502 15.6335 84.0325 17.1009 84.0325 18.7542C84.0325 20.4075 83.6502 21.8749 82.8855 23.1562C82.1209 24.4375 81.0669 25.4502 79.7235 26.1942C78.4009 26.9382 76.8819 27.3102 75.1665 27.3102ZM75.1665 23.0322C75.9105 23.0322 76.5719 22.8462 77.1505 22.4742C77.7292 22.1022 78.1839 21.5959 78.5145 20.9552C78.8452 20.3145 79.0002 19.5809 78.9795 18.7542C79.0002 17.9275 78.8452 17.1939 78.5145 16.5532C78.1839 15.8919 77.7292 15.3752 77.1505 15.0032C76.5719 14.6312 75.9105 14.4452 75.1665 14.4452C74.4225 14.4452 73.7509 14.6312 73.1515 15.0032C72.5729 15.3752 72.1182 15.8919 71.7875 16.5532C71.4569 17.1939 71.3019 17.9275 71.3225 18.7542C71.3019 19.5809 71.4569 20.3145 71.7875 20.9552C72.1182 21.5959 72.5729 22.1022 73.1515 22.4742C73.7509 22.8462 74.4225 23.0322 75.1665 23.0322Z" fill="#24272A"/>
<path d="M95.0259 27.3102C93.3106 27.3102 91.7813 26.9382 90.4379 26.1942C89.1153 25.4502 88.0613 24.4375 87.2759 23.1562C86.5113 21.8749 86.1289 20.4075 86.1289 18.7542C86.1289 17.1009 86.5113 15.6335 87.2759 14.3522C88.0613 13.0709 89.1153 12.0582 90.4379 11.3142C91.7813 10.5702 93.3106 10.1982 95.0259 10.1982C96.7413 10.1982 98.2603 10.5702 99.5829 11.3142C100.927 12.0582 101.981 13.0709 102.745 14.3522C103.51 15.6335 103.892 17.1009 103.892 18.7542C103.892 20.4075 103.51 21.8749 102.745 23.1562C101.981 24.4375 100.927 25.4502 99.5829 26.1942C98.2603 26.9382 96.7413 27.3102 95.0259 27.3102ZM95.0259 23.0322C95.7699 23.0322 96.4313 22.8462 97.0099 22.4742C97.5886 22.1022 98.0433 21.5959 98.3739 20.9552C98.7046 20.3145 98.8596 19.5809 98.8389 18.7542C98.8596 17.9275 98.7046 17.1939 98.3739 16.5532C98.0433 15.8919 97.5886 15.3752 97.0099 15.0032C96.4313 14.6312 95.7699 14.4452 95.0259 14.4452C94.2819 14.4452 93.6103 14.6312 93.0109 15.0032C92.4323 15.3752 91.9776 15.8919 91.6469 16.5532C91.3163 17.1939 91.1613 17.9275 91.1819 18.7542C91.1613 19.5809 91.3163 20.3145 91.6469 20.9552C91.9776 21.5959 92.4323 22.1022 93.0109 22.4742C93.6103 22.8462 94.2819 23.0322 95.0259 23.0322Z" fill="#24272A"/>
<path d="M107.137 27.0002V10.5392H111.849L112.004 13.8872L111.012 14.2592C111.239 13.5152 111.642 12.8435 112.221 12.2442C112.82 11.6242 113.533 11.1282 114.36 10.7562C115.186 10.3842 116.054 10.1982 116.964 10.1982C118.204 10.1982 119.247 10.4565 120.095 10.9732C120.942 11.4692 121.583 12.2235 122.017 13.2362C122.451 14.2282 122.668 15.4475 122.668 16.8942V27.0002H117.677V17.2972C117.677 16.6359 117.584 16.0882 117.398 15.6542C117.212 15.2202 116.922 14.8999 116.53 14.6932C116.158 14.4659 115.693 14.3625 115.135 14.3832C114.701 14.3832 114.298 14.4555 113.926 14.6002C113.554 14.7242 113.233 14.9205 112.965 15.1892C112.696 15.4372 112.479 15.7265 112.314 16.0572C112.169 16.3879 112.097 16.7495 112.097 17.1422V27.0002H109.648C109.069 27.0002 108.573 27.0002 108.16 27.0002C107.746 27.0002 107.405 27.0002 107.137 27.0002Z" fill="#24272A"/>
<path d="M127.34 26.9998V5.2998H136.702C138.066 5.2998 139.275 5.60982 140.329 6.22982C141.404 6.84982 142.251 7.69714 142.871 8.77181C143.512 9.84647 143.832 11.0555 143.832 12.3988C143.832 13.8041 143.512 15.0648 142.871 16.1808C142.251 17.2761 141.404 18.1441 140.329 18.7848C139.275 19.4255 138.066 19.7458 136.702 19.7458H132.61V26.9998H127.34ZM132.517 15.1268H135.958C136.413 15.1268 136.826 15.0131 137.198 14.7858C137.57 14.5585 137.87 14.2485 138.097 13.8558C138.325 13.4631 138.438 13.0085 138.438 12.4918C138.438 11.9545 138.325 11.4998 138.097 11.1278C137.87 10.7558 137.57 10.4665 137.198 10.2598C136.826 10.0531 136.413 9.94981 135.958 9.94981H132.517V15.1268Z" fill="#24272A"/>
<path d="M153.113 27.2792C151.728 27.2792 150.488 26.9175 149.393 26.1942C148.318 25.4502 147.461 24.4375 146.82 23.1562C146.179 21.8542 145.859 20.3869 145.859 18.7542C145.859 17.0802 146.179 15.6025 146.82 14.3212C147.461 13.0399 148.339 12.0375 149.455 11.3142C150.571 10.5702 151.842 10.1982 153.268 10.1982C154.053 10.1982 154.766 10.3119 155.407 10.5392C156.068 10.7665 156.647 11.0869 157.143 11.5002C157.639 11.8929 158.063 12.3579 158.414 12.8952C158.765 13.4119 159.024 13.9699 159.189 14.5692L158.166 14.4452V10.5392H163.095V27.0002H158.073V23.0322L159.189 23.0012C159.024 23.5799 158.755 24.1275 158.383 24.6442C158.011 25.1609 157.556 25.6155 157.019 26.0082C156.482 26.4009 155.882 26.7109 155.221 26.9382C154.56 27.1655 153.857 27.2792 153.113 27.2792ZM154.477 23.0942C155.242 23.0942 155.903 22.9185 156.461 22.5672C157.019 22.2159 157.453 21.7199 157.763 21.0792C158.073 20.4179 158.228 19.6429 158.228 18.7542C158.228 17.8655 158.073 17.1009 157.763 16.4602C157.453 15.7989 157.019 15.2925 156.461 14.9412C155.903 14.5692 155.242 14.3832 154.477 14.3832C153.733 14.3832 153.082 14.5692 152.524 14.9412C151.987 15.2925 151.563 15.7989 151.253 16.4602C150.943 17.1009 150.788 17.8655 150.788 18.7542C150.788 19.6429 150.943 20.4179 151.253 21.0792C151.563 21.7199 151.987 22.2159 152.524 22.5672C153.082 22.9185 153.733 23.0942 154.477 23.0942Z" fill="#24272A"/>
<path d="M169.186 34.1301L172.936 25.2951L172.998 27.8371L165.062 10.5391H170.673L174.145 18.8161C174.331 19.2294 174.508 19.6738 174.673 20.1491C174.839 20.6244 174.962 21.0791 175.044 21.5131L174.362 21.9161C174.486 21.6061 174.622 21.2238 174.766 20.7691C174.932 20.2938 175.106 19.7874 175.292 19.2501L178.33 10.5391H183.972L176.966 27.0001L174.115 34.1301H169.186Z" fill="#24272A"/>
<path d="M11 30C17.0751 30 22 25.0751 22 19C22 12.9249 17.0751 8 11 8C4.92487 8 0 12.9249 0 19C0 25.0751 4.92487 30 11 30Z" fill="#7D00FE"/>
<path d="M25 10C27.7614 10 30 7.76142 30 5C30 2.23858 27.7614 0 25 0C22.2386 0 20 2.23858 20 5C20 7.76142 22.2386 10 25 10Z" fill="#7D00FE"/>
</g>
<defs>
<clipPath id="clip0_5200_26607">
<rect width="184" height="35" fill="white"/>
</clipPath>
</defs>
</svg>
