<svg width="68" height="71" viewBox="0 0 68 71" fill="none" xmlns="http://www.w3.org/2000/svg">
<g clip-path="url(#clip0_6530_17320)">
<path fill-rule="evenodd" clip-rule="evenodd" d="M12.4744 11.0872C12.2357 9.8225 12.2648 8.52211 12.5597 7.26925C12.8546 6.01639 13.4087 4.83866 14.1868 3.81141C14.9648 2.78417 15.9496 1.93005 17.078 1.30372C18.2065 0.677384 19.4537 0.29263 20.74 0.174081C22.0263 0.0555306 23.3233 0.205796 24.5479 0.61526C25.7726 1.02472 26.8979 1.68437 27.8519 2.55197C28.8059 3.41958 29.5676 4.47604 30.0882 5.65374C30.6089 6.83144 30.8769 8.10445 30.8753 9.39128V20.7886C32.1529 20.6984 33.4539 20.6528 34.7784 20.6517C36.0464 20.6517 37.2974 20.6936 38.5314 20.7774V9.39128C38.5309 8.10516 38.7999 6.8331 39.321 5.65641C39.8421 4.47972 40.604 3.42429 41.5579 2.5576C42.5118 1.69091 43.6367 1.03202 44.8607 0.623055C46.0848 0.214091 47.381 0.0640498 48.6666 0.182523C49.9522 0.300997 51.1988 0.685379 52.3267 1.3111C53.4547 1.93681 54.4392 2.7901 55.2173 3.8164C55.9954 4.84271 56.5499 6.01945 56.8455 7.27141C57.1411 8.52336 57.1712 9.82298 56.9339 11.0872L54.4234 24.4842C63.0473 28.2324 69.56 34.7424 69.56 42.9245V47.8738C69.56 54.6017 65.0883 60.2336 58.8456 64.0358C51.5227 68.1949 43.2079 70.3061 34.78 70.1465C26.3521 70.3061 18.0373 68.1949 10.7144 64.0358C4.47167 60.2272 0 54.6017 0 47.8738V42.9245C0 34.787 6.45038 28.3008 14.9961 24.5447L12.4744 11.0872ZM51.2054 26.2438L54.1391 10.5686C54.3002 9.69253 54.2764 8.79269 54.0693 7.92633C53.8622 7.05996 53.4763 6.24603 52.9361 5.53635C52.396 4.82667 51.7135 4.23678 50.932 3.80422C50.1505 3.37166 49.2872 3.10591 48.3969 3.02388C47.5067 2.94185 46.6091 3.04533 45.7612 3.32776C44.9134 3.61018 44.1338 4.06534 43.4721 4.66429C42.8105 5.26323 42.2813 5.99283 41.9181 6.80665C41.555 7.62047 41.3659 8.50069 41.3629 9.39128V23.894C40.4313 23.7752 39.4848 23.6814 38.5234 23.6124C37.2926 23.5244 36.0416 23.4804 34.7704 23.4804C33.4491 23.4804 32.1481 23.5281 30.8673 23.6236C29.9091 23.6946 28.9626 23.7911 28.0278 23.9131V9.39128C28.0248 8.50069 27.8357 7.62047 27.4726 6.80665C27.1094 5.99283 26.5802 5.26323 25.9186 4.66429C25.2569 4.06534 24.4774 3.61018 23.6295 3.32776C22.7816 3.04533 21.884 2.94185 20.9938 3.02388C20.1036 3.10591 19.2402 3.37166 18.4587 3.80422C17.6773 4.23678 16.9947 4.82667 16.4546 5.53635C15.9145 6.24603 15.5286 7.05996 15.3214 7.92633C15.1143 8.79269 15.0905 9.69253 15.2516 10.5686L18.2061 26.2963C8.98965 29.7072 2.83312 35.8783 2.83312 42.9245V47.8738C2.83312 58.6124 17.1329 67.3179 34.7736 67.3179C52.4143 67.3179 66.7141 58.6124 66.7141 47.8738V42.9245C66.7205 35.8417 60.5001 29.6436 51.2054 26.2438Z" fill="#633001"/>
<path d="M66.4305 45.5954C66.4305 57.4333 52.2601 67.0281 34.7807 67.0281C17.3013 67.0281 3.13086 57.4333 3.13086 45.5954V40.1401H66.4305V45.5954Z" fill="#FEDC90"/>
<path fill-rule="evenodd" clip-rule="evenodd" d="M15.4423 10.7182C15.2889 9.85279 15.3173 8.96509 15.5259 8.11121C15.7345 7.25733 16.1187 6.45586 16.6541 5.75746C17.1896 5.05906 17.8647 4.47892 18.6367 4.05374C19.4088 3.62856 20.261 3.36758 21.1395 3.2873C22.018 3.20703 22.9036 3.30919 23.7404 3.58735C24.5773 3.86551 25.347 4.3136 26.0011 4.90329C26.6552 5.49299 27.1793 6.21147 27.5404 7.01329C27.9014 7.81511 28.0916 8.68284 28.0987 9.5616V23.8193C32.4849 23.2576 36.9248 23.2512 41.3125 23.8002V9.5616C41.3197 8.68284 41.5098 7.81511 41.8709 7.01329C42.2319 6.21147 42.7561 5.49299 43.4101 4.90329C44.0642 4.3136 44.834 3.86551 45.6708 3.58735C46.5076 3.30919 47.3933 3.20703 48.2718 3.2873C49.1503 3.36758 50.0025 3.62856 50.7745 4.05374C51.5466 4.47892 52.2217 5.05906 52.7571 5.75746C53.2926 6.45586 53.6767 7.25733 53.8853 8.11121C54.0939 8.96509 54.1224 9.85279 53.9689 10.7182L51.0576 26.1071C60.2692 29.448 66.4321 35.53 66.4321 42.4823C66.4321 53.0252 52.2617 61.5732 34.7823 61.5732C17.3029 61.5732 3.13086 53.0252 3.13086 42.4823C3.13086 35.565 9.23149 29.5068 18.3649 26.158L15.4423 10.7182Z" fill="#D1884F"/>
<path d="M26.4156 41.3938C26.4156 44.6218 24.6589 47.2388 22.5029 47.2388C20.3469 47.2388 18.5918 44.6234 18.5918 41.3938C18.5918 38.1643 20.3485 35.5488 22.5029 35.5488C24.6573 35.5488 26.4156 38.1659 26.4156 41.3938Z" fill="#633001"/>
<path d="M50.6171 41.3938C50.6171 44.6218 48.8604 47.2388 46.706 47.2388C44.5516 47.2388 42.7949 44.6218 42.7949 41.3938C42.7949 38.1659 44.5516 35.5488 46.706 35.5488C48.8604 35.5488 50.6171 38.1659 50.6171 41.3938Z" fill="#633001"/>
</g>
<defs>
<clipPath id="clip0_6530_17320">
<rect width="69.56" height="70" fill="white" transform="translate(0 0.146484)"/>
</clipPath>
</defs>
</svg>
