<svg width="58" height="58" viewBox="0 0 58 58" fill="none" xmlns="http://www.w3.org/2000/svg">
<g filter="url(#filter0_d_0_285)">
<path d="M46.7404 28.6096C46.8306 32.7114 45.4967 36.7177 42.9656 39.9468C40.4345 43.1758 36.8627 45.428 32.858 46.3201C28.8533 47.2121 24.6634 46.6888 21.0011 44.8394C17.3388 42.9899 14.4304 39.9285 12.7712 36.1761C11.1119 32.4238 10.8042 28.2124 11.9004 24.2588C12.9966 20.3051 15.4292 16.8535 18.7838 14.4913C22.1384 12.1291 26.2078 11.0024 30.2997 11.3028C34.3915 11.6033 38.2528 13.3124 41.2264 16.1392C42.9232 17.751 44.2838 19.6827 45.2303 21.823C46.1767 23.9634 46.6899 26.2699 46.7404 28.6096ZM31.0391 18.2275C31.1457 18.2348 31.2519 18.2478 31.3571 18.2665C32.5803 18.5537 33.8022 18.8574 35.0277 19.1292C35.1317 19.1416 35.2283 19.1893 35.3012 19.2644C35.3742 19.3395 35.4192 19.4374 35.4285 19.5417C35.5341 19.9519 35.7557 20.323 36.0667 20.6105C36.3777 20.8981 36.7649 21.0899 37.1821 21.1631C37.6974 21.2403 38.2235 21.1352 38.6695 20.866C39.1155 20.5967 39.4532 20.1801 39.6248 19.6882C39.7901 19.1869 39.7703 18.643 39.5688 18.1551C39.3674 17.6673 38.9977 17.2678 38.527 17.0292C38.0565 16.7916 37.5162 16.7325 37.0056 16.8629C36.4949 16.9932 36.0488 17.3042 35.7499 17.7382C35.6964 17.8473 35.6028 17.9316 35.4888 17.9736C35.3748 18.0157 35.2491 18.0122 35.1376 17.9639C33.8597 17.6488 32.5798 17.3392 31.298 17.0351C30.2178 16.781 30.0747 16.8731 29.8478 17.9486C29.4255 19.9435 29.0075 21.9391 28.5939 23.9356C28.4757 24.5324 28.5587 24.4898 27.8945 24.5347C25.3211 24.6523 22.8242 25.4468 20.656 26.8381C20.5941 26.8885 20.516 26.9151 20.4361 26.9129C20.3563 26.9107 20.28 26.88 20.2209 26.8262C19.8823 26.5899 19.5154 26.397 19.1288 26.2519C18.4379 26.0517 17.6982 26.1079 17.0454 26.41C16.3926 26.712 15.8708 27.2398 15.5762 27.896C15.2816 28.5522 15.234 29.2927 15.4421 29.9812C15.6501 30.6698 16.1 31.26 16.7087 31.6433C16.824 31.696 16.9185 31.7856 16.9773 31.8979C17.0361 32.0102 17.0558 32.1389 17.0336 32.2637C16.9041 33.5141 17.1804 34.7729 17.8218 35.854C18.9729 37.7468 20.73 39.1949 22.8078 39.9631C25.4768 41.0706 28.3953 41.438 31.2555 41.0267C33.8961 40.7623 36.396 39.7103 38.4312 38.0072C39.2473 37.3848 39.9056 36.5791 40.3527 35.6553C40.7999 34.7314 41.0236 33.7154 41.0054 32.6892C40.9703 32.448 41.006 32.2018 41.1084 31.9806C41.2108 31.7594 41.3753 31.5728 41.5819 31.4435C42.1148 31.0371 42.4909 30.4588 42.6462 29.8069C42.8015 29.1549 42.7266 28.4693 42.4342 27.8662C42.1397 27.2156 41.6189 26.694 40.9687 26.3986C40.3185 26.1032 39.5829 26.054 38.8991 26.2602C38.4381 26.442 37.9918 26.6589 37.5639 26.909C36.9505 26.5745 36.316 26.1739 35.6388 25.8678C33.9055 25.0805 32.038 24.6309 30.1364 24.543C29.8764 24.5312 29.7818 24.4426 29.8527 24.1648C29.9792 23.6472 30.069 23.1213 30.173 22.5978C30.4684 21.1643 30.7521 19.7213 31.0475 18.2334L31.0391 18.2275Z" fill="#F22E1F"/>
<path d="M31.0465 18.2328C30.751 19.7206 30.466 21.1613 30.18 22.6054C30.076 23.129 29.9862 23.6548 29.8598 24.1725C29.7924 24.4502 29.8834 24.5388 30.1434 24.5507C32.0451 24.6385 33.9126 25.0882 35.6458 25.8755C36.323 26.1815 36.9578 26.5845 37.5712 26.9166C37.9991 26.6667 38.4454 26.4498 38.9065 26.2678C39.5901 26.0619 40.3252 26.1113 40.9752 26.4067C41.6251 26.7021 42.1456 27.2235 42.44 27.8739C42.7325 28.4769 42.8074 29.1626 42.6521 29.8145C42.4968 30.4665 42.1209 31.0447 41.588 31.4512C41.3814 31.5805 41.2169 31.7671 41.1145 31.9883C41.0121 32.2094 40.9762 32.4556 41.0113 32.6967C41.0294 33.723 40.806 34.7391 40.3589 35.6629C39.9118 36.5868 39.2534 37.3924 38.4373 38.0148C36.4021 39.7179 33.902 40.77 31.2614 41.0344C28.4012 41.4457 25.483 41.0782 22.814 39.9707C20.7362 39.2024 18.9791 37.7544 17.828 35.8616C17.1864 34.7806 16.9101 33.5217 17.0397 32.2713C17.0618 32.1465 17.0417 32.0179 16.9829 31.9057C16.9241 31.7934 16.8297 31.7039 16.7146 31.6509C16.1059 31.2677 15.6563 30.6774 15.4482 29.9889C15.2401 29.3003 15.2878 28.5598 15.5824 27.9036C15.877 27.2474 16.3985 26.7197 17.0513 26.4176C17.704 26.1155 18.4441 26.0594 19.135 26.2595C19.5215 26.4046 19.8885 26.5976 20.2271 26.8339C20.2861 26.8876 20.3625 26.9184 20.4423 26.9206C20.5221 26.9227 20.6 26.8962 20.6619 26.8457C22.8301 25.4546 25.3269 24.6601 27.9004 24.5424C28.5646 24.4975 28.476 24.5424 28.6001 23.9432C29.0137 21.9475 29.4317 19.9519 29.854 17.9562C30.0809 16.8808 30.2237 16.7886 31.3038 17.0427C32.5849 17.3445 33.8648 17.6541 35.1435 17.9716C35.255 18.0199 35.381 18.0233 35.4949 17.9813C35.6089 17.9392 35.7023 17.855 35.7558 17.7459C36.0547 17.3119 36.5008 17.0009 37.0114 16.8705C37.5221 16.7401 38.0627 16.7992 38.5331 17.0368C39.0039 17.2754 39.3735 17.6749 39.575 18.1628C39.7764 18.6507 39.7963 19.1946 39.6309 19.6958C39.4596 20.1879 39.1217 20.6046 38.6756 20.8739C38.2296 21.1432 37.7033 21.2482 37.188 21.1707C36.7707 21.0977 36.3833 20.9059 36.0723 20.6183C35.7612 20.3307 35.5398 19.9596 35.4344 19.5493C35.425 19.445 35.3801 19.3471 35.3071 19.272C35.2342 19.1969 35.1376 19.1492 35.0336 19.1369C33.8081 18.8591 32.5861 18.5613 31.363 18.2741C31.2574 18.2546 31.1509 18.2408 31.0439 18.2328H31.0465ZM22.183 31.3507C22.1812 31.6335 22.2358 31.9137 22.3443 32.1749C22.4527 32.436 22.6124 32.6728 22.814 32.8712C23.0155 33.0695 23.2548 33.2254 23.5177 33.3296C23.7805 33.4339 24.0616 33.4843 24.3443 33.4779C24.9008 33.4569 25.4281 33.2234 25.8178 32.8256C26.2075 32.4277 26.43 31.8957 26.4396 31.3389C26.4315 30.775 26.2023 30.2368 25.8014 29.8403C25.4004 29.4437 24.8598 29.2205 24.2958 29.2187C24.0158 29.2162 23.738 29.2695 23.4787 29.3755C23.2195 29.4816 22.984 29.6381 22.786 29.8362C22.5879 30.0342 22.4315 30.2697 22.3255 30.5289C22.2195 30.7881 22.166 31.066 22.1685 31.346L22.183 31.3507ZM33.6593 33.4886C34.0801 33.4909 34.4921 33.3684 34.8432 33.1366C35.1943 32.9048 35.4685 32.5741 35.6317 32.1863C35.7949 31.7985 35.8396 31.371 35.7598 30.958C35.68 30.5449 35.4795 30.1647 35.1836 29.8656C34.8878 29.5665 34.5098 29.3617 34.0976 29.2774C33.6854 29.193 33.2575 29.2327 32.8679 29.3916C32.4783 29.5504 32.1445 29.8212 31.9089 30.1697C31.6732 30.5182 31.5462 30.9288 31.5439 31.3496C31.5423 31.6289 31.5957 31.9058 31.7011 32.1645C31.8066 32.4232 31.962 32.6585 32.1584 32.8572C32.3549 33.0558 32.5885 33.2138 32.846 33.3221C33.1035 33.4305 33.38 33.4871 33.6593 33.4886ZM28.8032 38.4309C30.0097 38.4711 31.2115 38.2586 32.331 37.8069C32.8995 37.5452 33.4464 37.2389 33.9666 36.891C34.0202 36.8562 34.0653 36.8098 34.0985 36.7552C34.1317 36.7006 34.152 36.6393 34.1582 36.5757C34.1644 36.5122 34.1565 36.448 34.1345 36.388C34.1126 36.328 34.0773 36.2737 34.0315 36.2292C33.8531 35.9928 33.6296 36.0554 33.4323 36.1949C32.2881 36.9737 30.9455 37.41 29.562 37.4524C27.9547 37.6205 26.3384 37.2303 24.9848 36.3474C24.833 36.235 24.6555 36.1622 24.4684 36.1358C24.3006 36.1216 24.0028 36.1831 23.9756 36.2741C23.9461 36.3764 23.9379 36.4837 23.9513 36.5894C23.9647 36.695 23.9997 36.7969 24.0538 36.8887C24.2346 37.1075 24.4586 37.2864 24.7119 37.4145C25.9706 38.0835 27.3754 38.4307 28.8009 38.425L28.8032 38.4309Z" fill="white"/>
<path d="M22.1711 31.3448C22.1677 31.0654 22.2196 30.7881 22.3243 30.529C22.429 30.2699 22.5842 30.0341 22.7808 29.8355C22.9774 29.6369 23.2117 29.4794 23.4698 29.3721C23.7278 29.2648 24.0045 29.2099 24.284 29.2106C24.8479 29.2124 25.3886 29.4356 25.7895 29.8321C26.1905 30.2287 26.4197 30.7668 26.4277 31.3307C26.4182 31.8873 26.196 32.4192 25.8065 32.817C25.4171 33.2148 24.8899 33.4484 24.3336 33.4698C24.0508 33.4762 23.7697 33.4259 23.5067 33.3217C23.2437 33.2176 23.0044 33.0617 22.8027 32.8633C22.601 32.665 22.4412 32.4282 22.3327 32.1669C22.2242 31.9057 22.1693 31.6253 22.1711 31.3425V31.3448Z" fill="#F22E1F"/>
<path d="M33.6581 33.4828C33.2374 33.4802 32.8267 33.3529 32.4783 33.117C32.1299 32.8811 31.8594 32.5472 31.7007 32.1576C31.5421 31.7679 31.5028 31.3399 31.5874 30.9278C31.672 30.5157 31.8769 30.1379 32.1762 29.8422C32.4755 29.5466 32.8557 29.3462 33.2689 29.2667C33.682 29.1871 34.1094 29.2319 34.4971 29.3952C34.8848 29.5586 35.2154 29.8333 35.447 30.1846C35.6786 30.5358 35.8009 30.9478 35.7984 31.3685C35.7967 31.6479 35.7398 31.9241 35.6313 32.1816C35.5228 32.439 35.3647 32.6726 35.1659 32.8689C34.9672 33.0652 34.7319 33.2205 34.4732 33.3258C34.2144 33.4311 33.9375 33.4845 33.6581 33.4828Z" fill="#F22E1F"/>
<path d="M28.8006 38.425C27.3738 38.4292 25.9682 38.08 24.7093 37.4086C24.4559 37.2805 24.2317 37.1015 24.0509 36.8827C23.9968 36.791 23.9621 36.6891 23.9487 36.5834C23.9353 36.4778 23.9435 36.3705 23.973 36.2682C24.0001 36.1772 24.2979 36.1157 24.4658 36.1299C24.6528 36.1564 24.8303 36.2291 24.9822 36.3414C26.3358 37.2243 27.9521 37.6145 29.5594 37.4464C30.9429 37.4041 32.2854 36.9678 33.4297 36.189C33.627 36.0495 33.8505 35.9892 34.0289 36.2232C34.0747 36.2678 34.11 36.3221 34.1319 36.3821C34.1539 36.442 34.1618 36.5062 34.1556 36.5698C34.1493 36.6334 34.1291 36.6947 34.0959 36.7493C34.0627 36.8039 34.0176 36.8502 33.964 36.885C33.4438 37.233 32.8969 37.5393 32.3284 37.8009C31.2088 38.2526 30.0071 38.4652 28.8006 38.425Z" fill="#F22E1F"/>
</g>
<defs>
<filter id="filter0_d_0_285" x="9.86349e-05" y="-2.51422e-05" width="57.9998" height="57.9998" filterUnits="userSpaceOnUse" color-interpolation-filters="sRGB">
<feFlood flood-opacity="0" result="BackgroundImageFix"/>
<feColorMatrix in="SourceAlpha" type="matrix" values="0 0 0 0 0 0 0 0 0 0 0 0 0 0 0 0 0 0 127 0" result="hardAlpha"/>
<feMorphology radius="5" operator="dilate" in="SourceAlpha" result="effect1_dropShadow_0_285"/>
<feOffset/>
<feGaussianBlur stdDeviation="8.6"/>
<feComposite in2="hardAlpha" operator="out"/>
<feColorMatrix type="matrix" values="0 0 0 0 0 0 0 0 0 0 0 0 0 0 0 0 0 0 0.05 0"/>
<feBlend mode="normal" in2="BackgroundImageFix" result="effect1_dropShadow_0_285"/>
<feBlend mode="normal" in="SourceGraphic" in2="effect1_dropShadow_0_285" result="shape"/>
</filter>
</defs>
</svg>
