<svg width="18" height="19" viewBox="0 0 18 19" fill="none" xmlns="http://www.w3.org/2000/svg">
<g clip-path="url(#clip0_6279_39878)">
<path d="M13.5 12.5C14.7427 12.5 15.75 13.5073 15.75 14.75C15.75 15.9927 14.7427 17 13.5 17C12.2573 17 11.25 15.9927 11.25 14.75C11.25 13.5073 12.2573 12.5 13.5 12.5ZM11.625 3.5C13.489 3.5 15 5.01104 15 6.875C15 8.73897 13.489 10.25 11.625 10.25H6.375C5.33947 10.25 4.5 11.0895 4.5 12.125C4.5 13.1605 5.33947 14 6.375 14H9.75C10.1642 14 10.5 14.3358 10.5 14.75C10.5 15.1642 10.1642 15.5 9.75 15.5H6.375C4.51104 15.5 3 13.989 3 12.125C3 10.261 4.51104 8.75 6.375 8.75H11.625C12.6605 8.75 13.5 7.91053 13.5 6.875C13.5 5.83947 12.6605 5 11.625 5H8.25C7.83577 5 7.5 4.66421 7.5 4.25C7.5 3.83579 7.83577 3.5 8.25 3.5H11.625ZM4.5 2C5.74264 2 6.75 3.00736 6.75 4.25C6.75 5.49264 5.74264 6.5 4.5 6.5C3.25736 6.5 2.25 5.49264 2.25 4.25C2.25 3.00736 3.25736 2 4.5 2Z" fill="#2EA8AF"/>
</g>
<defs>
<clipPath id="clip0_6279_39878">
<rect width="18" height="18" fill="white" transform="translate(0 0.5)"/>
</clipPath>
</defs>
</svg>
