<svg width="19" height="19" viewBox="0 0 19 19" fill="none" xmlns="http://www.w3.org/2000/svg">
<g clip-path="url(#clip0_5241_105490)">
<path d="M18.7998 9.80078C18.7998 4.83022 14.7704 0.800781 9.7998 0.800781C4.82924 0.800781 0.799805 4.83022 0.799805 9.80078C0.799805 14.7713 4.82924 18.8008 9.7998 18.8008C14.7704 18.8008 18.7998 14.7713 18.7998 9.80078Z" fill="white"/>
<path d="M6.71816 8.20121C6.84074 8.20382 6.96335 8.19814 7.08516 8.18421C7.21931 8.17438 7.3515 8.14646 7.47816 8.10121C7.51813 8.09023 7.55517 8.07056 7.58663 8.04359C7.6181 8.01662 7.64321 7.98302 7.66016 7.94521C7.71896 7.79777 7.72774 7.63512 7.68516 7.48221C7.60355 7.25742 7.45127 7.06515 7.25116 6.93421C7.17462 6.87136 7.0854 6.82577 6.98961 6.80058C6.89383 6.77538 6.79373 6.77116 6.69616 6.78821C6.51108 6.8208 6.34019 6.90864 6.20597 7.04019C6.07175 7.17173 5.98048 7.34081 5.94416 7.52521C5.90918 7.68134 5.93229 7.84488 6.00916 7.98521C6.0324 8.03605 6.06817 8.08016 6.11313 8.1134C6.15808 8.14663 6.21074 8.1679 6.26616 8.17521C6.41016 8.18721 6.55516 8.20121 6.71816 8.20121ZM13.3542 8.20121C13.4644 8.20086 13.5745 8.19485 13.6842 8.18321C13.7393 8.18586 13.7942 8.17462 13.8438 8.1505C13.8934 8.12639 13.9362 8.09018 13.9682 8.04521C14.0628 7.90353 14.102 7.73193 14.0782 7.56321C14.0571 7.42274 14.0031 7.28927 13.9205 7.17369C13.8379 7.0581 13.7292 6.96371 13.6032 6.89821C13.5075 6.83661 13.3989 6.79782 13.2859 6.78482C13.1728 6.77181 13.0583 6.78495 12.9512 6.82321C12.8223 6.87651 12.7059 6.95583 12.6092 7.05621C12.4215 7.21065 12.3011 7.43181 12.2732 7.67321C12.2541 7.77186 12.275 7.87406 12.3312 7.95732C12.3875 8.04058 12.4745 8.09809 12.5732 8.11721C12.8285 8.18044 13.0912 8.20869 13.3542 8.20121ZM14.5672 9.22321C14.5756 9.07475 14.5604 8.92591 14.5222 8.78221C14.4632 8.60221 14.4782 8.60021 14.3012 8.61521C14.0636 8.64875 13.8345 8.72714 13.6262 8.84621C13.3239 9.00125 13.0314 9.17457 12.7502 9.36521C12.5136 9.50615 12.2909 9.66921 12.0852 9.85221C11.9167 9.99205 11.7998 10.1843 11.7532 10.3982C11.7486 10.4126 11.7473 10.4279 11.7495 10.4428C11.7517 10.4578 11.7572 10.472 11.7657 10.4845C11.7741 10.497 11.7853 10.5075 11.7984 10.515C11.8115 10.5226 11.8261 10.5271 11.8412 10.5282C11.9126 10.5476 11.9861 10.5584 12.0602 10.5602C12.3405 10.5544 12.6191 10.5151 12.8902 10.4432C13.241 10.3614 13.5807 10.2378 13.9022 10.0752C14.1187 9.97174 14.3148 9.83015 14.4812 9.65721C14.504 9.63609 14.5223 9.6106 14.535 9.58225C14.5477 9.5539 14.5546 9.52327 14.5552 9.49221C14.5502 9.40121 14.5592 9.31321 14.5672 9.22321ZM5.61916 9.20121C5.61916 9.26421 5.63416 9.37221 5.63216 9.48021C5.63255 9.52485 5.6429 9.56884 5.66244 9.60898C5.68199 9.64911 5.71025 9.68438 5.74516 9.71221C6.02525 9.96135 6.35378 10.15 6.71016 10.2662C6.93825 10.3516 7.17219 10.4204 7.41016 10.4722C7.64812 10.5284 7.89088 10.5619 8.13516 10.5722C8.22295 10.5757 8.31066 10.5635 8.39416 10.5362C8.46516 10.5122 8.48816 10.4772 8.47616 10.4072C8.46639 10.3453 8.44717 10.2853 8.41916 10.2292C8.30751 10.0184 8.14405 9.83943 7.94416 9.70921C7.44706 9.34494 6.91513 9.03075 6.35616 8.77121C6.18638 8.68862 6.0009 8.64327 5.81216 8.63821C5.78581 8.63637 5.75963 8.64374 5.73811 8.65906C5.71659 8.67438 5.70105 8.6967 5.69416 8.72221C5.64238 8.87651 5.61703 9.03846 5.61916 9.20121ZM3.83416 1.93021C3.79216 1.92421 3.78416 1.93621 3.74716 2.01921C3.62223 2.32859 3.5561 2.65857 3.55216 2.99221C3.54624 3.1982 3.55459 3.40436 3.57716 3.60921C3.58983 3.75121 3.60683 3.89287 3.62816 4.03421C3.65216 4.19021 3.68016 4.34621 3.71016 4.50221C3.7495 4.70821 3.79483 4.91287 3.84616 5.11621C3.91016 5.36921 3.98016 5.61621 4.05316 5.87221C4.11316 6.08021 4.18016 6.28621 4.24516 6.49221C4.24516 6.50621 4.25516 6.52421 4.27516 6.52421C4.29516 6.52421 4.29516 6.50921 4.30216 6.49821C4.44216 6.27721 4.58316 6.05621 4.74116 5.84721C4.93437 5.58375 5.14342 5.33228 5.36716 5.09421C5.54841 4.90158 5.74003 4.71897 5.94116 4.54721C6.13016 4.39021 6.32416 4.23821 6.52816 4.10021C6.56616 4.07521 6.56316 4.05521 6.53516 4.02621C6.39816 3.88121 6.26616 3.73121 6.12516 3.59121C5.88716 3.35421 5.64516 3.12121 5.38816 2.90421C5.20216 2.74721 5.01316 2.59321 4.81316 2.45321C4.6049 2.30699 4.38596 2.17662 4.15816 2.06321C4.05408 2.00988 3.9457 1.96539 3.83416 1.93021ZM14.1142 4.62321C14.1472 4.67921 14.2062 4.70721 14.2502 4.75221C14.4442 4.95221 14.6502 5.14121 14.8272 5.35221C14.9702 5.52121 15.1072 5.69521 15.2392 5.87321C15.3712 6.05121 15.5082 6.25321 15.6332 6.45021C15.6512 6.47921 15.6562 6.52421 15.6942 6.52721C15.7042 6.52721 15.7222 6.47221 15.7312 6.44121C15.8072 6.18421 15.8902 5.93021 15.9632 5.67221C16.0462 5.38021 16.1242 5.08621 16.1892 4.79021C16.2623 4.46599 16.3187 4.13823 16.3582 3.80821C16.3832 3.58821 16.3972 3.36721 16.4052 3.14721C16.4069 2.95054 16.3942 2.75401 16.3672 2.55921C16.3619 2.54697 16.3579 2.53424 16.3552 2.52121C16.3317 2.33909 16.2794 2.16187 16.2002 1.99621C16.1622 1.91321 16.1542 1.91321 16.0672 1.94721C15.7658 2.06682 15.479 2.22013 15.2122 2.40421C14.7968 2.69672 14.4062 3.02282 14.0442 3.37921C13.8312 3.58421 13.6272 3.79921 13.4292 4.01921C13.3992 4.05221 13.3912 4.07121 13.4352 4.10321C13.5972 4.22221 13.7612 4.33921 13.9172 4.46621C13.976 4.52663 14.0421 4.57939 14.1142 4.62321ZM14.0192 2.38321C14.2062 2.20321 14.3882 2.01721 14.5852 1.84821C14.9367 1.53484 15.3318 1.27412 15.7582 1.07421C16.0362 0.942556 16.335 0.860327 16.6412 0.831207C16.6607 0.826628 16.6812 0.828778 16.6993 0.837309C16.7175 0.84584 16.7322 0.860251 16.7412 0.878207C16.8502 1.06082 16.9314 1.25866 16.9822 1.46521C17.0851 1.88868 17.1235 2.32526 17.0962 2.76021C17.0817 3.11606 17.0483 3.47089 16.9962 3.82321C16.9552 4.10221 16.9052 4.38021 16.8542 4.65721C16.8352 4.76221 16.8062 4.86621 16.7922 4.97321C16.7862 4.99421 16.7782 5.01521 16.7732 5.03721C16.6962 5.39821 16.6042 5.75621 16.5102 6.11321C16.3992 6.53321 16.2832 6.95221 16.1472 7.36521C16.1307 7.4177 16.1252 7.47304 16.131 7.52775C16.1369 7.58247 16.1539 7.63539 16.1812 7.68321C16.3152 7.98321 16.4812 8.26221 16.6002 8.57021C16.6812 8.78921 16.7622 9.00821 16.8282 9.23121C16.9367 9.59623 17.0209 9.96804 17.0802 10.3442C17.1168 10.5742 17.1455 10.8052 17.1662 11.0372C17.1842 11.2372 17.1972 11.4372 17.2022 11.6372C17.2194 11.7138 17.2211 11.793 17.2072 11.8702C17.1072 11.8542 16.9992 11.8342 16.8942 11.8232C16.5531 11.784 16.209 11.7799 15.8672 11.8112C15.472 11.8486 15.0845 11.9439 14.7172 12.0942C14.2434 12.2936 13.8105 12.5787 13.4402 12.9352C13.3402 13.0352 13.2402 13.1352 13.1402 13.2352L13.0242 12.8872C12.9023 12.5648 12.76 12.2505 12.5982 11.9462C12.5531 11.8531 12.496 11.7663 12.4282 11.6882C12.192 11.4107 11.9148 11.171 11.6062 10.9772C11.133 10.6902 10.5885 10.5422 10.0352 10.5502C9.74542 10.5547 9.45808 10.6036 9.18316 10.6952C8.65054 10.8701 8.17787 11.1914 7.81916 11.6222C7.69317 11.7826 7.58173 11.954 7.48616 12.1342C7.3422 12.3685 7.21456 12.6124 7.10416 12.8642L6.94316 13.2382L6.86716 13.1622C6.25767 12.4423 5.4119 11.9627 4.48116 11.8092C4.1232 11.7573 3.76039 11.7476 3.40016 11.7802C3.22116 11.7942 3.04416 11.8262 2.86816 11.8562C2.86816 11.6562 2.88816 11.4562 2.90416 11.2562C2.92516 10.9922 2.96316 10.7312 3.00416 10.4702C3.04216 10.2502 3.09016 10.0312 3.14216 9.81321C3.22373 9.46444 3.32387 9.12028 3.44216 8.78221C3.46516 8.71821 3.49916 8.65421 3.44216 8.59121C3.44216 8.59121 3.44216 8.58021 3.44816 8.56921C3.48716 8.62121 3.50716 8.61221 3.52816 8.55621C3.64916 8.22721 3.79016 7.90721 3.93716 7.58921C3.94639 7.57443 3.95216 7.55777 3.95407 7.54046C3.95597 7.52315 3.95396 7.50563 3.94816 7.48921C3.81487 7.15421 3.69937 6.8124 3.60216 6.46521C3.52716 6.20021 3.45616 5.93421 3.40216 5.66521C3.36116 5.47021 3.31616 5.27621 3.27316 5.08221C3.26316 4.92121 3.22316 4.76421 3.20016 4.60521C3.16416 4.35921 3.13016 4.11321 3.10016 3.86621C3.07016 3.61921 3.05516 3.35721 3.04316 3.10221C3.03116 2.84721 3.02816 2.60221 3.03716 2.35521C3.04137 2.04733 3.07926 1.74084 3.15016 1.44121C3.18858 1.27779 3.25199 1.12128 3.33816 0.977207C3.36947 0.907194 3.42576 0.851378 3.49604 0.820677C3.56632 0.789977 3.64553 0.786599 3.71816 0.811207C4.04733 0.871941 4.35987 1.0018 4.63516 1.19221C5.00794 1.43867 5.35384 1.72356 5.66716 2.04221L6.05016 2.41921C6.05529 2.43015 6.06097 2.44083 6.06716 2.45121C6.23416 2.63321 6.40316 2.81321 6.56716 2.99721C6.79983 3.25854 7.02983 3.52221 7.25716 3.78821C7.27189 3.81217 7.29538 3.82945 7.32265 3.83636C7.34992 3.84327 7.3788 3.83927 7.40316 3.82521C7.802 3.6627 8.21652 3.54173 8.64016 3.46421C9.00697 3.40096 9.37802 3.36553 9.75016 3.35821C10.282 3.33617 10.8147 3.36766 11.3402 3.45221C11.8116 3.52881 12.2742 3.65208 12.7212 3.82021C12.8212 3.85821 12.8212 3.86021 12.8862 3.76821C13.0862 3.49021 13.2952 3.22321 13.5112 2.95921C13.6772 2.76221 13.8492 2.57321 14.0192 2.38321Z" fill="#F4A817"/>
<path d="M17.1996 11.8755C17.2135 11.7983 17.2118 11.7191 17.1946 11.6425C17.1886 11.4425 17.1756 11.2425 17.1586 11.0425C17.1379 10.8105 17.1093 10.5795 17.0726 10.3495C17.0133 9.97335 16.9291 9.60153 16.8206 9.23652C16.7536 9.01252 16.6736 8.79451 16.5926 8.57551C16.4786 8.26751 16.3076 7.98652 16.1736 7.68852C16.1464 7.6407 16.1293 7.58778 16.1234 7.53306C16.1176 7.47834 16.1231 7.42301 16.1396 7.37051C16.2756 6.95751 16.3926 6.53851 16.5026 6.11852C16.5966 5.76152 16.6876 5.40352 16.7656 5.04252C16.7656 5.02052 16.7776 4.99952 16.7846 4.97852C16.9948 5.2846 17.1839 5.60468 17.3506 5.93651C17.5691 6.3609 17.7527 6.80235 17.8996 7.25652C18.0268 7.64921 18.1271 8.05014 18.1996 8.45652C18.3013 9.03882 18.3475 9.62947 18.3376 10.2205C18.3141 11.8025 17.8769 13.3508 17.0696 14.7115C16.4854 15.6977 15.7087 16.5561 14.7856 17.2355C14.2713 17.6143 13.7141 17.9312 13.1256 18.1795C12.4063 18.4856 11.6446 18.6805 10.8666 18.7575C10.372 18.8074 9.87387 18.811 9.3786 18.7685C8.39742 18.6791 7.44146 18.4079 6.5596 17.9685C5.36325 17.3708 4.32789 16.4946 3.5406 15.4135C3.11905 14.8415 2.7688 14.2203 2.4976 13.5635C2.33922 13.1899 2.20626 12.806 2.0996 12.4145C1.99281 12.0044 1.91463 11.5874 1.8656 11.1665C1.79275 10.5522 1.78036 9.93224 1.8286 9.31551C1.8663 8.8142 1.94693 8.31705 2.0696 7.82952C2.31169 6.85619 2.71529 5.93035 3.2636 5.09052L3.2726 5.08051C3.3156 5.27451 3.3596 5.46952 3.4016 5.66352C3.4586 5.93252 3.5296 6.19852 3.6016 6.46352C3.69879 6.81071 3.81428 7.15253 3.9476 7.48752C3.95339 7.50394 3.95541 7.52146 3.95351 7.53877C3.9516 7.55608 3.94583 7.57274 3.9366 7.58751C3.7906 7.90551 3.6486 8.22551 3.5276 8.55451C3.5066 8.61051 3.4866 8.61952 3.4476 8.56752C3.4476 8.57852 3.4396 8.58751 3.4416 8.58951C3.5016 8.65251 3.4676 8.71651 3.4416 8.78051C3.32331 9.11859 3.22317 9.46275 3.1416 9.81151C3.0896 10.0295 3.0416 10.2485 3.0036 10.4685C2.9596 10.7285 2.9216 10.9905 2.9036 11.2545C2.8876 11.4545 2.8706 11.6545 2.8676 11.8545C2.85073 12.1035 2.8754 12.3536 2.9406 12.5945C3.04072 12.9503 3.19233 13.2896 3.3906 13.6015C3.78998 14.2238 4.28159 14.7819 4.8486 15.2565C5.62404 15.9279 6.49107 16.4854 7.4236 16.9125C7.6076 16.9975 7.7906 17.0845 7.9816 17.1545C8.1226 17.2065 8.2626 17.2545 8.4046 17.3045C8.4926 17.3345 8.5816 17.3675 8.6716 17.3945C9.00266 17.4953 9.34306 17.5623 9.6876 17.5945C10.0791 17.6297 10.4735 17.6129 10.8606 17.5445C11.2082 17.4854 11.5511 17.4012 11.8866 17.2925C12.2327 17.1797 12.5716 17.0461 12.9016 16.8925C13.3683 16.6773 13.8179 16.4269 14.2466 16.1435C14.6523 15.8772 15.0359 15.5785 15.3936 15.2505C15.5494 15.1132 15.6955 14.9652 15.8306 14.8075C15.8381 14.8056 15.8449 14.8017 15.8504 14.7963C15.8558 14.7908 15.8597 14.784 15.8616 14.7765C15.8687 14.7713 15.8753 14.7656 15.8816 14.7595C16.1299 14.4886 16.3513 14.1943 16.5426 13.8805C16.6426 13.7045 16.7576 13.5315 16.8426 13.3455C17.0022 13.0085 17.112 12.6501 17.1686 12.2815C17.1914 12.1474 17.2018 12.0115 17.1996 11.8755Z" fill="#F00500"/>
<path d="M14.0209 2.38248C13.8509 2.57248 13.6779 2.76148 13.5159 2.95848C13.2999 3.22148 13.0879 3.48948 12.8909 3.76748C12.8259 3.85948 12.8269 3.85748 12.7259 3.81948C12.2789 3.65135 11.8163 3.52808 11.3449 3.45148C10.8194 3.36693 10.2867 3.33544 9.75488 3.35748C9.38273 3.3648 9.01168 3.40023 8.64488 3.46348C8.22093 3.54061 7.80607 3.66125 7.40688 3.82348C7.38251 3.83753 7.35363 3.84153 7.32636 3.83463C7.2991 3.82772 7.2756 3.81044 7.26088 3.78647C7.03421 3.51981 6.80421 3.25614 6.57088 2.99548C6.40688 2.81148 6.23788 2.63148 6.07088 2.44948C6.06232 2.43924 6.05431 2.42856 6.04688 2.41748C7.46359 1.57919 9.10678 1.2044 10.7469 1.34548C11.1583 1.37881 11.5663 1.4457 11.9669 1.54548C12.6719 1.72239 13.3497 1.99385 13.9819 2.35248C13.9949 2.36348 14.0069 2.37348 14.0209 2.38248Z" fill="#F00500"/>
<path d="M15.5355 15.0691H15.5295C15.5225 15.0691 15.5225 15.0741 15.5295 15.0771C15.5304 15.0776 15.5315 15.0778 15.5325 15.0778C15.5335 15.0778 15.5346 15.0776 15.5355 15.0771C15.5355 15.0771 15.5355 15.0711 15.5355 15.0691ZM11.0915 17.4561H11.0295C11.0386 17.4624 11.0493 17.4658 11.0604 17.466C11.0714 17.4662 11.0822 17.4621 11.0915 17.4561ZM10.8915 17.4861C10.9108 17.4922 10.9311 17.494 10.9512 17.4914C10.9712 17.4888 10.9904 17.4819 11.0075 17.4711C10.9645 17.4581 10.9365 17.4811 10.8915 17.4861ZM10.1775 14.9191H9.6095C9.4945 14.9191 9.4965 14.9191 9.5005 15.0341C9.50074 15.0463 9.50432 15.0581 9.51085 15.0683C9.51737 15.0786 9.5266 15.0868 9.5375 15.0921C9.59563 15.1253 9.65652 15.1534 9.7195 15.1761C9.7625 15.1951 9.7855 15.1901 9.8025 15.1401C9.8355 15.0401 9.8395 15.0401 9.9445 15.0511C9.95875 15.0516 9.9726 15.056 9.98457 15.0638C9.99654 15.0715 10.0062 15.0823 10.0125 15.0951L10.1185 15.2731C10.1273 15.2936 10.1417 15.3112 10.1599 15.324C10.1781 15.3369 10.1995 15.3445 10.2217 15.3459C10.244 15.3473 10.2662 15.3426 10.2859 15.3323C10.3056 15.3219 10.3221 15.3063 10.3335 15.2871L10.4245 15.1801C10.5245 15.0611 10.5245 15.0611 10.6435 15.1631C10.6595 15.1771 10.6715 15.1981 10.6995 15.1921C10.747 15.1797 10.7892 15.1524 10.8202 15.1143C10.8511 15.0761 10.8691 15.0292 10.8715 14.9801C10.8715 14.9291 10.8525 14.9231 10.8085 14.9231C10.6005 14.9201 10.3915 14.9191 10.1775 14.9191ZM12.1265 14.3371H11.5575C11.5461 14.337 11.535 14.3406 11.526 14.3475C11.5169 14.3544 11.5104 14.3641 11.5075 14.3751C11.4885 14.4251 11.4535 14.4351 11.4075 14.4331C11.2595 14.4331 11.1075 14.4331 10.9625 14.4331C10.8865 14.4331 10.7955 14.4561 10.7385 14.4221C10.6815 14.3881 10.6465 14.2991 10.6115 14.2301C10.5865 14.1811 10.5585 14.1571 10.5035 14.1661C10.4695 14.1721 10.4575 14.1591 10.4575 14.1231C10.4575 13.9541 10.4575 13.7861 10.4575 13.6171C10.4554 13.6054 10.458 13.5932 10.4648 13.5833C10.4715 13.5734 10.4818 13.5666 10.4935 13.5641C10.6228 13.5198 10.7438 13.4542 10.8515 13.3701C11.0662 13.219 11.2141 12.9908 11.2645 12.7331C11.2862 12.548 11.2939 12.3614 11.2875 12.1751C11.2822 12.0583 11.2341 11.9475 11.1524 11.8638C11.0707 11.7801 10.9612 11.7294 10.8445 11.7211H9.5975C9.54142 11.7181 9.48533 11.7269 9.43287 11.747C9.38042 11.7671 9.33279 11.798 9.29308 11.8377C9.25336 11.8774 9.22246 11.9251 9.20237 11.9775C9.18229 12.03 9.17347 12.0861 9.1765 12.1421C9.1765 12.2611 9.1825 12.3811 9.1765 12.4991C9.17143 12.6123 9.19108 12.7253 9.23408 12.8301C9.27708 12.9349 9.3424 13.0291 9.4255 13.1061C9.62654 13.3015 9.86451 13.4548 10.1255 13.5571C10.1505 13.5681 10.1745 13.5721 10.1745 13.6101C10.1745 13.7811 10.1745 13.9521 10.1745 14.1221C10.1745 14.1491 10.1685 14.1691 10.1375 14.1621C10.0695 14.1451 10.0445 14.1901 10.0175 14.2391C9.9905 14.2881 9.9525 14.3461 9.9175 14.4001C9.91235 14.4111 9.90389 14.4202 9.89331 14.4261C9.88272 14.432 9.87055 14.4345 9.8585 14.4331C9.5935 14.4331 9.3275 14.4331 9.0585 14.4191C9.0375 14.4191 9.0175 14.4191 9.0165 14.3901C9.0155 14.3611 8.9875 14.3421 8.9535 14.3421H8.4005C8.3875 14.3421 8.3655 14.3321 8.3625 14.3561C8.35875 14.3667 8.35779 14.378 8.35972 14.3891C8.36164 14.4001 8.36639 14.4105 8.3735 14.4191C8.4055 14.4501 8.4365 14.4841 8.4735 14.5121C8.49359 14.5278 8.50986 14.5478 8.52112 14.5707C8.53238 14.5935 8.53832 14.6187 8.5385 14.6441C8.5449 14.7221 8.55626 14.7996 8.5725 14.8761C8.5855 14.9401 8.6045 14.9591 8.6725 14.9391C8.7145 14.9261 8.7615 14.9201 8.7725 14.9891C8.78603 15.0821 8.80984 15.1734 8.8435 15.2611C8.87956 15.3812 8.93422 15.495 9.0055 15.5981C9.04204 15.5566 9.0691 15.5077 9.08482 15.4547C9.10053 15.4016 9.10452 15.3458 9.0965 15.2911C9.0895 15.0801 9.0965 14.8691 9.0965 14.6571C9.1265 14.6571 9.1605 14.6571 9.1965 14.6691C9.47658 14.7221 9.76054 14.7518 10.0455 14.7581C10.5038 14.7731 10.9623 14.7396 11.4135 14.6581C11.4645 14.6491 11.4735 14.6581 11.4725 14.7091C11.4725 14.9251 11.4725 15.1411 11.4655 15.3561C11.4655 15.4561 11.5335 15.5171 11.5785 15.6021L11.7895 15.0531C11.8285 14.9531 11.8285 14.9531 11.9375 14.9531C11.9685 14.9531 11.9935 14.9531 12.0025 14.9151C12.0385 14.7191 12.0845 14.5311 12.1315 14.3371H12.1265ZM15.7705 14.8371L15.7815 14.8241L15.7745 14.8191L15.7685 14.8361L15.7565 14.8501C15.7375 14.8501 15.7295 14.8591 15.7295 14.8771H15.7125V14.8841L15.7245 14.8731C15.7308 14.871 15.7365 14.8675 15.7412 14.8628C15.7458 14.8581 15.7494 14.8524 15.7515 14.8461L15.7705 14.8371ZM15.6895 14.9181C15.6895 14.9181 15.7015 14.9181 15.6895 14.9071L15.6835 14.9161L15.6775 14.9231L15.6895 14.9181ZM15.6225 14.9861L15.6295 14.9791C15.6235 14.9711 15.6205 14.9791 15.6185 14.9791V14.9881L15.6225 14.9861ZM15.8225 14.8141C15.6874 14.9718 15.5413 15.1199 15.3855 15.2571C15.0278 15.5852 14.6442 15.8838 14.2385 16.1501C13.8098 16.4335 13.3602 16.6839 12.8935 16.8991C12.5635 17.0527 12.2246 17.1863 11.8785 17.2991C11.543 17.4078 11.2001 17.492 10.8525 17.5511C10.4654 17.6195 10.071 17.6363 9.6795 17.6011C9.33495 17.5689 8.99455 17.5019 8.6635 17.4011C8.5745 17.3731 8.4845 17.3411 8.3965 17.3111C8.2555 17.2621 8.1145 17.2111 7.9735 17.1611C7.7825 17.0901 7.5995 17.0041 7.4155 16.9191C6.48297 16.4921 5.61595 15.9345 4.8405 15.2631C4.27546 14.7874 3.78589 14.2287 3.3885 13.6061C3.19021 13.2942 3.03861 12.9549 2.9385 12.5991C2.87329 12.3582 2.84862 12.1081 2.8655 11.8591C3.0425 11.8291 3.2185 11.7981 3.3975 11.7831C3.75717 11.7486 4.11963 11.7564 4.4775 11.8061C5.40821 11.9597 6.25395 12.4393 6.8635 13.1591L6.9315 13.2341L7.0925 12.8601C7.20294 12.6083 7.33057 12.3644 7.4745 12.1301C7.57006 11.9499 7.6815 11.7786 7.8075 11.6181C8.16823 11.1875 8.64305 10.8672 9.1775 10.6941C9.45242 10.6025 9.73976 10.5536 10.0295 10.5491C10.5829 10.5411 11.1273 10.6891 11.6005 10.9761C11.9091 11.1699 12.1863 11.4097 12.4225 11.6871C12.4903 11.7653 12.5475 11.852 12.5925 11.9451C12.7543 12.2495 12.8966 12.5638 13.0185 12.8861L13.1345 13.2341C13.2345 13.1341 13.3345 13.0341 13.4345 12.9341C13.8048 12.5776 14.2377 12.2925 14.7115 12.0931C15.0789 11.9429 15.4664 11.8475 15.8615 11.8101C16.2039 11.7808 16.5484 11.7869 16.8895 11.8281C16.9895 11.8391 17.0975 11.8591 17.2025 11.8751C17.2065 12.0116 17.1978 12.1482 17.1765 12.2831C17.1199 12.6517 17.0101 13.0101 16.8505 13.3471C16.7635 13.5331 16.6505 13.7061 16.5505 13.8821C16.3592 14.1959 16.1378 14.4903 15.8895 14.7611C15.8832 14.7673 15.8766 14.7729 15.8695 14.7781C15.8585 14.7501 15.8945 14.7351 15.8905 14.7031C15.8625 14.7291 15.8315 14.7441 15.8285 14.7821C15.8205 14.7821 15.8085 14.7871 15.8065 14.7921C15.8045 14.7971 15.8185 14.8051 15.8275 14.8091L15.8225 14.8141Z" fill="#FFFEFE"/>
<path d="M3.83467 1.93101C3.94617 1.96588 4.05455 2.01004 4.15867 2.06301C4.38648 2.1764 4.60543 2.30677 4.81367 2.45301C5.01367 2.59201 5.20267 2.74601 5.38867 2.90401C5.64567 3.12101 5.88867 3.35401 6.12567 3.59101C6.26667 3.73201 6.39867 3.88101 6.53567 4.02601C6.56367 4.05501 6.56567 4.07501 6.52867 4.10001C6.32867 4.23801 6.12867 4.39001 5.94167 4.54701C5.74056 4.7188 5.54895 4.9014 5.36767 5.09401C5.1433 5.33172 4.93358 5.58285 4.73967 5.84601C4.58167 6.05501 4.43967 6.27601 4.30067 6.49701C4.29367 6.50801 4.28967 6.52301 4.27367 6.52301C4.25767 6.52301 4.24867 6.50501 4.24367 6.49101C4.17867 6.28401 4.11167 6.07901 4.05167 5.87101C3.97967 5.62001 3.90867 5.37101 3.84467 5.11501C3.79334 4.91501 3.74801 4.71034 3.70867 4.50101C3.67867 4.34501 3.65067 4.19001 3.62667 4.03301C3.60534 3.89234 3.58834 3.75068 3.57567 3.60801C3.5531 3.40317 3.54475 3.19701 3.55067 2.99101C3.55463 2.65737 3.62076 2.3274 3.74567 2.01801C3.78367 1.93701 3.79267 1.92501 3.83467 1.93101Z" fill="#F28F1F"/>
<path d="M16.3692 2.55859C16.3962 2.7534 16.4089 2.94993 16.4072 3.14659C16.3992 3.36759 16.3852 3.58759 16.3602 3.80759C16.3208 4.13761 16.2643 4.46538 16.1912 4.78959C16.1262 5.08959 16.0492 5.37959 15.9662 5.67159C15.8922 5.92959 15.8102 6.18359 15.7342 6.44059C15.7252 6.47159 15.7072 6.52759 15.6972 6.52659C15.6592 6.52659 15.6542 6.47859 15.6362 6.44959C15.5112 6.24959 15.3812 6.06059 15.2422 5.87259C15.1032 5.68459 14.9742 5.52059 14.8302 5.35259C14.6492 5.13959 14.4472 4.95259 14.2532 4.75259C14.2092 4.70759 14.1532 4.68059 14.1172 4.62359C14.1308 4.60884 14.1428 4.59276 14.1532 4.57559C14.2391 4.39663 14.3338 4.22207 14.4372 4.05259C14.5894 3.79417 14.7662 3.55104 14.9652 3.32659C15.1716 3.08954 15.4206 2.89316 15.6992 2.74759C15.906 2.63646 16.1347 2.57195 16.3692 2.55859Z" fill="#F28B20"/>
<path d="M5.61923 9.2C5.61742 9.03719 5.64311 8.87524 5.69523 8.721C5.70212 8.69549 5.71765 8.67317 5.73918 8.65785C5.7607 8.64253 5.78688 8.63516 5.81323 8.637C6.00204 8.64238 6.18752 8.68807 6.35723 8.771C6.9157 9.0293 7.44728 9.34215 7.94423 9.705C8.14412 9.83522 8.30758 10.0142 8.41923 10.225C8.44723 10.2811 8.46646 10.3411 8.47623 10.403C8.48823 10.474 8.46523 10.508 8.39423 10.532C8.31072 10.5593 8.22302 10.5715 8.13523 10.568C7.89094 10.5577 7.64819 10.5242 7.41023 10.468C7.17229 10.4165 6.93836 10.348 6.71023 10.263C6.35384 10.1468 6.0253 9.95816 5.74523 9.709C5.71032 9.68117 5.68206 9.6459 5.66251 9.60577C5.64296 9.56563 5.63262 9.52164 5.63223 9.477C5.63423 9.372 5.62223 9.264 5.61923 9.2Z" fill="#1F1712"/>
<path d="M14.5638 9.2235C14.5638 9.3135 14.5498 9.40249 14.5508 9.49249C14.5502 9.52356 14.5434 9.55419 14.5306 9.58254C14.5179 9.61089 14.4996 9.63638 14.4768 9.6575C14.3106 9.83053 14.1144 9.97214 13.8978 10.0755C13.5764 10.2381 13.2367 10.3617 12.8858 10.4435C12.6148 10.5154 12.3362 10.5546 12.0558 10.5605C11.9818 10.5587 11.9083 10.5479 11.8368 10.5285C11.8218 10.5274 11.8071 10.5229 11.7941 10.5153C11.781 10.5078 11.7698 10.4973 11.7613 10.4848C11.7529 10.4723 11.7473 10.458 11.7452 10.4431C11.743 10.4281 11.7443 10.4129 11.7488 10.3985C11.7955 10.1846 11.9124 9.99239 12.0808 9.8525C12.2866 9.66948 12.5093 9.50642 12.7458 9.36549C13.027 9.17487 13.3196 9.00155 13.6218 8.84649C13.8302 8.72743 14.0592 8.64904 14.2968 8.61549C14.4738 8.59949 14.4588 8.6025 14.5178 8.7825C14.5564 8.92614 14.5719 9.07499 14.5638 9.2235Z" fill="#1F1713"/>
<path d="M16.3679 2.55948C16.1308 2.57275 15.8996 2.63831 15.6909 2.75148C15.4122 2.89705 15.1633 3.09342 14.9569 3.33048C14.7579 3.55493 14.5811 3.79805 14.4289 4.05648C14.3255 4.22595 14.2307 4.40051 14.1449 4.57948C14.1345 4.59664 14.1224 4.61273 14.1089 4.62748C14.0357 4.58393 13.9685 4.53116 13.9089 4.47048C13.7529 4.34348 13.5889 4.22648 13.4269 4.10748C13.3839 4.07548 13.3909 4.05748 13.4209 4.02348C13.6209 3.80348 13.8209 3.58848 14.0359 3.38348C14.3979 3.02709 14.7885 2.70099 15.2039 2.40848C15.4707 2.22441 15.7575 2.0711 16.0589 1.95148C16.1459 1.91648 16.1589 1.91748 16.1919 2.00048C16.2711 2.16614 16.3234 2.34336 16.3469 2.52548C16.3527 2.53749 16.3597 2.54888 16.3679 2.55948Z" fill="#F2991D"/>
<path d="M13.3554 8.1996C13.0928 8.20673 12.8304 8.17814 12.5754 8.1146C12.4768 8.09548 12.3898 8.03797 12.3335 7.95471C12.2773 7.87145 12.2564 7.76926 12.2754 7.6706C12.3034 7.42921 12.4238 7.20804 12.6114 7.0536C12.7082 6.95323 12.8246 6.87391 12.9534 6.8206C13.0606 6.78234 13.1751 6.76921 13.2882 6.78221C13.4012 6.79521 13.5098 6.83401 13.6054 6.8956C13.7315 6.9611 13.8402 7.0555 13.9228 7.17108C14.0053 7.28666 14.0594 7.42014 14.0804 7.5606C14.1043 7.72933 14.0651 7.90092 13.9704 8.0426C13.9384 8.08751 13.8956 8.12367 13.846 8.14777C13.7964 8.17188 13.7415 8.18317 13.6864 8.1806C13.5765 8.19261 13.466 8.19895 13.3554 8.1996Z" fill="#FFFEFE"/>
<path d="M6.71768 8.19761C6.55468 8.19761 6.40968 8.18661 6.26468 8.17461C6.20925 8.1673 6.1566 8.14603 6.11164 8.1128C6.06669 8.07957 6.03092 8.03546 6.00768 7.98461C5.9308 7.84428 5.9077 7.68075 5.94268 7.52461C5.97912 7.34028 6.07043 7.17126 6.20463 7.03974C6.33883 6.90822 6.50965 6.82033 6.69468 6.78761C6.79225 6.77056 6.89234 6.77478 6.98813 6.79998C7.08391 6.82518 7.17313 6.87076 7.24968 6.93361C7.44979 7.06455 7.60206 7.25683 7.68368 7.48161C7.72633 7.63451 7.71754 7.79719 7.65868 7.94461C7.64172 7.98243 7.61661 8.01602 7.58515 8.04299C7.55368 8.06996 7.51664 8.08964 7.47668 8.10061C7.34961 8.14528 7.21707 8.17253 7.08268 8.18161C6.96151 8.1951 6.83957 8.20045 6.71768 8.19761Z" fill="#FFFEFE"/>
<path d="M15.8271 14.7841C15.8271 14.7461 15.8621 14.7311 15.8891 14.7051C15.8891 14.7371 15.8561 14.7521 15.8681 14.7801H15.8291L15.8271 14.7841Z" fill="#F6D9A7"/>
<path d="M15.8271 14.7812H15.8621C15.8602 14.7887 15.8563 14.7955 15.8509 14.801C15.8454 14.8064 15.8386 14.8103 15.8312 14.8122V14.7852L15.8271 14.7812Z" fill="#FFFEFE"/>
<path d="M12.132 14.3365C12.085 14.5305 12.039 14.7185 11.995 14.9075C11.986 14.9455 11.961 14.9455 11.93 14.9455C11.821 14.9455 11.821 14.9455 11.782 15.0455L11.571 15.5945C11.526 15.5095 11.456 15.4475 11.458 15.3485C11.458 15.1325 11.458 14.9165 11.465 14.7015C11.465 14.6525 11.458 14.6415 11.406 14.6505C10.9548 14.732 10.4963 14.7655 10.038 14.7505C9.75308 14.7442 9.46912 14.7144 9.18904 14.6615C9.15604 14.6545 9.12305 14.6535 9.08905 14.6495C9.08905 14.8615 9.08405 15.0725 9.08905 15.2835C9.09706 15.3382 9.09308 15.394 9.07736 15.447C9.06165 15.5 9.03458 15.549 8.99804 15.5905C8.92677 15.4873 8.87211 15.3736 8.83605 15.2535C8.80238 15.1657 8.77856 15.0745 8.76504 14.9815C8.75804 14.9125 8.71004 14.9185 8.66504 14.9315C8.60204 14.9505 8.58205 14.9315 8.56505 14.8685C8.5488 14.7919 8.53745 14.7144 8.53105 14.6365C8.53086 14.611 8.52492 14.5859 8.51366 14.563C8.50241 14.5402 8.48613 14.5201 8.46604 14.5045C8.43104 14.4765 8.40104 14.4425 8.36604 14.4115C8.35877 14.4029 8.35384 14.3926 8.35173 14.3816C8.34963 14.3705 8.35043 14.3591 8.35405 14.3485C8.35405 14.3245 8.37905 14.3345 8.39205 14.3345H8.94504C8.97904 14.3345 9.00804 14.3395 9.00804 14.3825C9.00804 14.4255 9.02904 14.4105 9.05004 14.4115C9.31504 14.4255 9.58005 14.4245 9.85005 14.4255C9.8621 14.4268 9.87427 14.4244 9.88485 14.4185C9.89543 14.4125 9.9039 14.4034 9.90905 14.3925C9.93905 14.3385 9.97404 14.2855 10.009 14.2315C10.044 14.1775 10.06 14.1375 10.129 14.1545C10.16 14.1625 10.166 14.1415 10.166 14.1145C10.166 13.9435 10.166 13.7725 10.166 13.6025C10.166 13.5655 10.142 13.5605 10.117 13.5495C9.85605 13.4472 9.61807 13.2939 9.41705 13.0985C9.33394 13.0215 9.26862 12.9273 9.22562 12.8224C9.18262 12.7176 9.16297 12.6047 9.16804 12.4915C9.17504 12.3725 9.16804 12.2535 9.16804 12.1345C9.16501 12.0784 9.17383 12.0223 9.19391 11.9698C9.214 11.9174 9.24491 11.8698 9.28462 11.83C9.32433 11.7903 9.37197 11.7594 9.42442 11.7393C9.47687 11.7193 9.53296 11.7104 9.58905 11.7135H10.837C10.9537 11.7217 11.0633 11.7725 11.1449 11.8562C11.2266 11.9399 11.2747 12.0507 11.28 12.1675C11.2864 12.3538 11.2787 12.5403 11.257 12.7255C11.2067 12.9831 11.0587 13.2113 10.844 13.3625C10.7363 13.4466 10.6153 13.5121 10.486 13.5565C10.4743 13.5589 10.464 13.5658 10.4573 13.5757C10.4506 13.5856 10.448 13.5977 10.45 13.6095C10.45 13.7785 10.45 13.9465 10.45 14.1155C10.45 14.1525 10.462 14.1645 10.496 14.1585C10.55 14.1495 10.579 14.1735 10.604 14.2225C10.639 14.2915 10.671 14.3795 10.731 14.4145C10.791 14.4495 10.879 14.4245 10.956 14.4255C11.104 14.4255 11.256 14.4255 11.401 14.4255C11.452 14.4255 11.486 14.4165 11.501 14.3665C11.5039 14.3555 11.5104 14.3457 11.5195 14.3389C11.5286 14.332 11.5397 14.3283 11.551 14.3285L12.132 14.3365Z" fill="#1D1919"/>
<path d="M10.183 14.919C10.392 14.919 10.601 14.919 10.81 14.919C10.853 14.919 10.874 14.925 10.873 14.976C10.8706 15.025 10.8526 15.072 10.8217 15.1101C10.7907 15.1483 10.7485 15.1755 10.701 15.188C10.673 15.195 10.661 15.173 10.645 15.16C10.526 15.06 10.526 15.06 10.426 15.177L10.335 15.284C10.3236 15.3032 10.3071 15.3188 10.2874 15.3291C10.2677 15.3395 10.2455 15.3442 10.2232 15.3428C10.201 15.3413 10.1796 15.3338 10.1614 15.3209C10.1432 15.3081 10.1288 15.2905 10.12 15.27L10.014 15.092C10.0077 15.0792 9.99805 15.0684 9.98607 15.0606C9.9741 15.0529 9.96026 15.0485 9.94601 15.048C9.84601 15.041 9.83801 15.038 9.80401 15.137C9.78701 15.188 9.76401 15.192 9.72101 15.173C9.65803 15.1503 9.59713 15.1222 9.53901 15.089C9.5281 15.0837 9.51888 15.0754 9.51235 15.0652C9.50582 15.055 9.50224 15.0431 9.50201 15.031C9.50201 14.916 9.49601 14.916 9.61101 14.916H10.184L10.183 14.919Z" fill="#171413"/>
<path d="M10.8896 17.4862C10.9346 17.4802 10.9636 17.4572 11.0056 17.4712C10.9886 17.482 10.9693 17.489 10.9493 17.4915C10.9293 17.4941 10.9089 17.4923 10.8896 17.4862Z" fill="#F6D9A7"/>
<path d="M11.0913 17.457C11.0821 17.4631 11.0713 17.4664 11.0603 17.4664C11.0493 17.4664 11.0385 17.4631 11.0293 17.457H11.0913Z" fill="#F6D9A7"/>
<path d="M15.8283 14.7815C15.8283 14.7908 15.8283 14.7998 15.8283 14.8085C15.8193 14.8085 15.8033 14.8085 15.8073 14.7915C15.8113 14.7745 15.8203 14.7845 15.8283 14.7815Z" fill="#F6D9A7"/>
<path d="M15.7314 14.8767C15.7314 14.8587 15.7394 14.8487 15.7584 14.8497C15.7563 14.856 15.7528 14.8617 15.7481 14.8663C15.7434 14.871 15.7377 14.8746 15.7314 14.8767Z" fill="#F6D9A7"/>
<path d="M15.7337 14.877L15.7217 14.888V14.881H15.7387L15.7337 14.877Z" fill="#F7DDB0"/>
<path d="M15.5359 15.0685L15.5329 15.0692L15.5299 15.0685C15.5239 15.0685 15.5239 15.0625 15.5299 15.0605L15.5359 15.0685Z" fill="#F7DDB0"/>
<path d="M15.7734 14.8354L15.7794 14.8184L15.7864 14.8234L15.7754 14.8364L15.7734 14.8354Z" fill="#F6D9A7"/>
<path d="M15.7598 14.849L15.7778 14.834L15.7628 14.847L15.7598 14.849Z" fill="#F6D9A7"/>
<path d="M15.6914 14.9152L15.6984 14.9062C15.7064 14.9143 15.6984 14.9142 15.6984 14.9172L15.6914 14.9152Z" fill="#F7DDB0"/>
<path d="M15.6945 14.918L15.6865 14.924L15.6925 14.916L15.6945 14.918Z" fill="#F7DDB0"/>
<path d="M15.624 14.9819C15.624 14.9819 15.629 14.9699 15.636 14.9819L15.628 14.9899L15.624 14.9819Z" fill="#F7DDB0"/>
<path d="M15.6262 14.9845L15.6172 14.9895V14.9805L15.6262 14.9845Z" fill="#F7DDB0"/>
</g>
<defs>
<clipPath id="clip0_5241_105490">
<rect width="18" height="18" fill="white" transform="translate(0.799805 0.800781)"/>
</clipPath>
</defs>
</svg>
