<svg width="151" height="12" viewBox="0 0 151 12" fill="none" xmlns="http://www.w3.org/2000/svg">
<path d="M6 12C9.31371 12 12 9.31371 12 6C12 2.68629 9.31371 0 6 0C2.68629 0 0 2.68629 0 6C0 9.31371 2.68629 12 6 12Z" fill="#1C1C1C"/>
<path d="M2.30421 2.52368L5.17214 6.35831L2.28613 9.47604H2.93571L5.46246 6.74636L7.50393 9.47604H9.7143L6.68494 5.42577L9.37125 2.52368H8.72168L6.39475 5.03759L4.51458 2.52368H2.30421ZM3.25944 3.00211H4.27487L8.75895 8.99762H7.74351L3.25944 3.00211Z" fill="white"/>
<g clip-path="url(#clip0_0_86)">
<path d="M33 12C36.3137 12 39 9.31371 39 6C39 2.68629 36.3137 0 33 0C29.6863 0 27 2.68629 27 6C27 9.31371 29.6863 12 33 12Z" fill="#039BE5"/>
<path d="M29.7457 5.87004L35.5305 3.63964C35.7989 3.54284 36.0337 3.70524 35.9465 4.11124L34.9617 8.75124C34.8889 9.08044 34.6933 9.16044 34.4197 9.00524L32.9197 7.89964L32.1965 8.59644C32.1609 8.6427 32.115 8.6801 32.0626 8.70571C32.0101 8.73131 31.9525 8.74443 31.8941 8.74404L32.0005 7.21764L34.7805 4.70604C34.9005 4.59964 34.7537 4.53964 34.5941 4.64564L31.1585 6.80844L29.6785 6.34644C29.3585 6.24444 29.3501 6.02644 29.7465 5.87004H29.7457Z" fill="white"/>
</g>
<g clip-path="url(#clip1_0_86)">
<path d="M60 12C63.3137 12 66 9.31371 66 6C66 2.68629 63.3137 0 60 0C56.6863 0 54 2.68629 54 6C54 9.31371 56.6863 12 60 12Z" fill="#7289DA"/>
<path d="M61.2882 7.99454C61.4267 7.9384 61.5656 7.89181 61.6946 7.82611C61.8238 7.75779 61.948 7.68058 62.0666 7.59495C62.1857 7.50977 62.2896 7.40484 62.3738 7.2847C61.6577 7.72777 60.8328 7.96123 59.9921 7.9588C59.1524 7.95204 58.3302 7.71684 57.6126 7.2781C57.7352 7.45098 57.8918 7.59665 58.0726 7.70632C58.2553 7.82153 58.4526 7.91149 58.6592 7.97372C58.6537 7.985 58.6474 7.99589 58.6402 8.00621C58.5162 8.16215 58.3923 8.31801 58.2646 8.4727C58.2579 8.48013 58.2498 8.48615 58.2408 8.49036C58.2317 8.49458 58.2218 8.49694 58.2119 8.49727C57.8968 8.49449 57.5856 8.42898 57.2958 8.30458C57.0061 8.18018 56.7435 7.9994 56.5235 7.77251C56.4703 7.71471 56.4212 7.65324 56.3764 7.58866C56.3588 7.56296 56.3493 7.53255 56.3491 7.50135C56.3717 6.28039 56.6627 5.07956 57.2012 3.98507C57.2264 3.93203 57.265 3.88662 57.3132 3.8533C57.7248 3.55575 58.1992 3.3581 58.6994 3.27575C58.7796 3.26286 58.8614 3.26199 58.9416 3.25118C59.0028 3.24245 59.0201 3.28939 59.0544 3.33098C58.4901 3.48444 57.9601 3.74467 57.4927 4.09776C58.2432 3.70937 59.0758 3.50844 59.9198 3.51189C60.7633 3.49913 61.5961 3.70158 62.3407 4.1003L62.3482 4.08944C62.2746 4.03704 62.2026 3.98299 62.1274 3.9335C62.0521 3.88402 61.9716 3.83497 61.8918 3.78965C61.812 3.74432 61.7264 3.70065 61.6437 3.6599C61.561 3.61915 61.4784 3.58215 61.392 3.54681C61.3056 3.51146 61.2212 3.47862 61.1352 3.44701C61.0492 3.41541 60.9623 3.38754 60.8714 3.35636C60.916 3.29523 60.9504 3.2437 61.0401 3.25118C61.3784 3.28058 61.7096 3.36583 62.0204 3.50356C62.2447 3.60073 62.4571 3.72357 62.6536 3.86954C62.6871 3.89447 62.7147 3.9265 62.7344 3.96345C62.993 4.48562 63.1961 5.03386 63.3403 5.59895C63.4562 6.03683 63.5341 6.48394 63.5731 6.93537C63.5888 7.12083 63.5933 7.30961 63.5991 7.49424C63.5992 7.52992 63.5883 7.56485 63.568 7.59414C63.3545 7.88495 63.0696 8.11504 62.7412 8.26194C62.4287 8.40437 62.0919 8.485 61.7491 8.4994C61.7322 8.50152 61.715 8.49895 61.6994 8.49199C61.6838 8.48503 61.6704 8.47385 61.6607 8.45981C61.5474 8.31634 61.4308 8.17503 61.3159 8.0324C61.3047 8.01951 61.2965 8.00701 61.2882 7.99454ZM59.4414 6.22148C59.4372 6.13615 59.4171 6.05238 59.3823 5.97448C59.3447 5.87844 59.2836 5.79351 59.2046 5.72768C59.1256 5.66184 59.0315 5.61716 58.9307 5.59793C58.8299 5.57871 58.7258 5.58557 58.6283 5.61773C58.5308 5.6499 58.4431 5.70634 58.3732 5.78189C58.2496 5.91932 58.1826 6.09885 58.1856 6.28411C58.1886 6.46938 58.2614 6.64662 58.3893 6.77994C58.4443 6.83756 58.5104 6.88334 58.5835 6.91466C58.6566 6.94597 58.735 6.96217 58.8144 6.96217C58.8939 6.96217 58.9725 6.94597 59.0456 6.91466C59.1186 6.88334 59.1847 6.83756 59.2398 6.77994C59.3095 6.70601 59.3633 6.6184 59.3978 6.52259C59.4323 6.42678 59.4467 6.32479 59.4402 6.2231L59.4414 6.22148ZM60.4493 6.30462C60.453 6.43895 60.4963 6.56914 60.5734 6.67883C60.6262 6.76256 60.6986 6.83196 60.7844 6.88075C60.8702 6.92955 60.9666 6.95621 61.0652 6.95852C61.1637 6.96082 61.2612 6.93868 61.3492 6.89395C61.4371 6.84922 61.5127 6.78336 61.5692 6.70218C61.6588 6.5763 61.7071 6.42533 61.7071 6.27051C61.7071 6.11569 61.6588 5.96472 61.5692 5.83884C61.5158 5.7625 61.4454 5.69974 61.3637 5.6555C61.282 5.61126 61.1912 5.58681 61.0985 5.58403C61.0057 5.58124 60.9136 5.6002 60.8294 5.63946C60.7452 5.67872 60.6712 5.73721 60.6134 5.81021C60.4993 5.94937 60.4404 6.12602 60.4481 6.30625L60.4493 6.30462Z" fill="white"/>
</g>
<g clip-path="url(#clip2_0_86)">
<path d="M92.9988 5.8739C93.0294 7.26223 92.5779 8.61825 91.7212 9.71118C90.8645 10.8041 89.6555 11.5664 88.3001 11.8683C86.9446 12.1703 85.5265 11.9931 84.2869 11.3672C83.0473 10.7412 82.063 9.70498 81.5014 8.43493C80.9398 7.16489 80.8356 5.73948 81.2066 4.40129C81.5777 3.0631 82.401 1.89484 83.5364 1.09532C84.6718 0.295802 86.0492 -0.0855634 87.4342 0.016134C88.8191 0.117831 90.1261 0.696299 91.1325 1.6531C91.7068 2.19861 92.1673 2.85245 92.4877 3.57688C92.808 4.3013 92.9817 5.08199 92.9988 5.8739ZM87.6845 2.35991C87.7205 2.36237 87.7565 2.36677 87.7921 2.3731C88.2061 2.4703 88.6197 2.57311 89.0345 2.66511C89.0696 2.66928 89.1023 2.68543 89.127 2.71085C89.1517 2.73627 89.167 2.76941 89.1701 2.80471C89.2058 2.94355 89.2808 3.06915 89.3861 3.16648C89.4914 3.2638 89.6224 3.32874 89.7637 3.3535C89.938 3.37965 90.1161 3.34408 90.2671 3.25294C90.418 3.1618 90.5323 3.0208 90.5904 2.85431C90.6464 2.68464 90.6397 2.50054 90.5715 2.33541C90.5033 2.17028 90.3782 2.03507 90.2188 1.95431C90.0596 1.87389 89.8767 1.85389 89.7039 1.89802C89.5311 1.94215 89.3801 2.04741 89.2789 2.19431C89.2608 2.23123 89.2291 2.25976 89.1905 2.27398C89.1519 2.28821 89.1094 2.28703 89.0717 2.2707C88.6391 2.16403 88.2059 2.05924 87.7721 1.95631C87.4065 1.87031 87.358 1.9015 87.2812 2.2655C87.1383 2.9407 86.9968 3.61617 86.8568 4.2919C86.8168 4.4939 86.8449 4.4795 86.6201 4.4947C85.7491 4.5345 84.904 4.80342 84.1701 5.2743C84.1492 5.29138 84.1227 5.30036 84.0957 5.29963C84.0687 5.2989 84.0428 5.28849 84.0228 5.2703C83.9082 5.19031 83.784 5.12501 83.6532 5.0759C83.4194 5.00815 83.169 5.02716 82.948 5.1294C82.7271 5.23165 82.5505 5.41027 82.4508 5.63237C82.3511 5.85447 82.3349 6.10511 82.4054 6.33816C82.4758 6.57121 82.628 6.77099 82.8341 6.9007C82.8731 6.91857 82.9051 6.94887 82.925 6.98689C82.9449 7.0249 82.9516 7.06847 82.944 7.11071C82.9002 7.53392 82.9937 7.95998 83.2108 8.3259C83.6004 8.96655 84.1951 9.45668 84.8984 9.7167C85.8018 10.0915 86.7896 10.2159 87.7577 10.0767C88.6514 9.98722 89.4976 9.63115 90.1864 9.05471C90.4626 8.84404 90.6855 8.57133 90.8368 8.25864C90.9881 7.94595 91.0639 7.60205 91.0577 7.25471C91.0458 7.17307 91.0579 7.08975 91.0926 7.01489C91.1272 6.94003 91.1829 6.87687 91.2528 6.8331C91.4332 6.69553 91.5605 6.49982 91.6131 6.27915C91.6656 6.05847 91.6403 5.82641 91.5413 5.6223C91.4416 5.40207 91.2654 5.22555 91.0453 5.12556C90.8252 5.02556 90.5762 5.00892 90.3448 5.07871C90.1888 5.14026 90.0377 5.21367 89.8929 5.2983C89.6853 5.1851 89.4705 5.04951 89.2413 4.94591C88.6546 4.67943 88.0226 4.52724 87.3789 4.49751C87.2909 4.49351 87.2589 4.4635 87.2829 4.3695C87.3257 4.1943 87.3561 4.01631 87.3913 3.83911C87.4913 3.35391 87.5873 2.8655 87.6873 2.3619L87.6845 2.35991Z" fill="#F22E1F"/>
<path d="M87.6869 2.36182C87.5869 2.86542 87.4905 3.35302 87.3937 3.84182C87.3585 4.01902 87.3281 4.19702 87.2853 4.37222C87.2625 4.46622 87.2933 4.49622 87.3813 4.50022C88.0249 4.52997 88.657 4.68215 89.2437 4.94862C89.4729 5.05222 89.6877 5.18863 89.8953 5.30103C90.0402 5.21643 90.1912 5.14301 90.3473 5.08142C90.5787 5.01175 90.8275 5.02845 91.0475 5.12843C91.2675 5.22842 91.4436 5.40489 91.5433 5.62503C91.6423 5.82914 91.6676 6.0612 91.6151 6.28188C91.5625 6.50255 91.4353 6.69826 91.2549 6.83583C91.185 6.87959 91.1293 6.94276 91.0946 7.01762C91.06 7.09248 91.0478 7.17578 91.0597 7.25741C91.0658 7.60475 90.9902 7.94868 90.8389 8.26137C90.6875 8.57406 90.4647 8.84675 90.1885 9.05741C89.4997 9.63386 88.6534 9.98995 87.7597 10.0794C86.7916 10.2186 85.8039 10.0943 84.9005 9.71942C84.1972 9.45938 83.6025 8.96926 83.2129 8.32863C82.9958 7.96273 82.9022 7.53663 82.9461 7.11342C82.9536 7.07118 82.9468 7.02766 82.9269 6.98966C82.907 6.95167 82.875 6.92135 82.836 6.90343C82.63 6.77371 82.4779 6.57393 82.4074 6.34088C82.337 6.10783 82.3531 5.85719 82.4528 5.63509C82.5526 5.41298 82.7291 5.23437 82.95 5.13212C83.171 5.02987 83.4214 5.01088 83.6553 5.07863C83.7861 5.12773 83.9103 5.19304 84.0249 5.27303C84.0449 5.29122 84.0708 5.30163 84.0978 5.30236C84.1248 5.30309 84.1511 5.29411 84.1721 5.27703C84.906 4.80618 85.7511 4.53727 86.6221 4.49743C86.8469 4.48223 86.8169 4.49742 86.8589 4.29462C86.9989 3.61915 87.1404 2.94369 87.2833 2.26823C87.3601 1.90423 87.4084 1.87302 87.774 1.95902C88.2076 2.06116 88.6408 2.16596 89.0736 2.27343C89.1114 2.28976 89.154 2.29093 89.1926 2.2767C89.2312 2.26247 89.2628 2.23394 89.2809 2.19702C89.3821 2.05012 89.533 1.94486 89.7059 1.90074C89.8787 1.85661 90.0617 1.8766 90.2209 1.95702C90.3803 2.03779 90.5054 2.17301 90.5736 2.33814C90.6417 2.50327 90.6484 2.68736 90.5925 2.85702C90.5345 3.02357 90.4201 3.16461 90.2692 3.25576C90.1182 3.34692 89.94 3.38245 89.7656 3.35623C89.6244 3.33151 89.4933 3.26659 89.388 3.16925C89.2827 3.07192 89.2078 2.94629 89.1721 2.80742C89.1689 2.77213 89.1537 2.73898 89.129 2.71356C89.1043 2.68815 89.0716 2.672 89.0364 2.66783C88.6216 2.57383 88.2081 2.47302 87.7941 2.37582C87.7583 2.36922 87.7223 2.36455 87.686 2.36182H87.6869ZM84.6869 6.80182C84.6863 6.89753 84.7048 6.99238 84.7415 7.08078C84.7782 7.16917 84.8323 7.24931 84.9005 7.31645C84.9687 7.38358 85.0497 7.43634 85.1387 7.47162C85.2277 7.5069 85.3228 7.52396 85.4185 7.52182C85.6068 7.51469 85.7853 7.43567 85.9172 7.30102C86.0491 7.16636 86.1244 6.98629 86.1277 6.79782C86.1249 6.60696 86.0474 6.42481 85.9116 6.29059C85.7759 6.15637 85.5929 6.08083 85.4021 6.08022C85.3073 6.07936 85.2132 6.09741 85.1255 6.13329C85.0378 6.16917 84.9581 6.22217 84.891 6.2892C84.824 6.35623 84.7711 6.43593 84.7352 6.52367C84.6993 6.61141 84.6812 6.70545 84.682 6.80024L84.6869 6.80182ZM88.5713 7.52543C88.7137 7.52622 88.8531 7.48475 88.972 7.40629C89.0908 7.32783 89.1837 7.21592 89.2389 7.08466C89.2941 6.9534 89.3092 6.8087 89.2822 6.66889C89.2552 6.52907 89.1874 6.40041 89.0872 6.29916C88.9871 6.19791 88.8592 6.12862 88.7196 6.10006C88.5801 6.07151 88.4353 6.08495 88.3034 6.13871C88.1716 6.19247 88.0586 6.28413 87.9788 6.40209C87.8991 6.52005 87.8561 6.65903 87.8553 6.80143C87.8548 6.89598 87.8728 6.98971 87.9085 7.07726C87.9442 7.16482 87.9968 7.24448 88.0633 7.31171C88.1298 7.37894 88.2089 7.43241 88.296 7.46908C88.3832 7.50575 88.4768 7.52491 88.5713 7.52543ZM86.9277 9.19823C87.336 9.21186 87.7428 9.13991 88.1217 8.98703C88.3141 8.89845 88.4992 8.79478 88.6753 8.67702C88.6934 8.66524 88.7087 8.64954 88.7199 8.63107C88.7312 8.6126 88.738 8.59185 88.7402 8.57033C88.7423 8.54881 88.7396 8.52708 88.7321 8.50678C88.7247 8.48647 88.7128 8.46809 88.6973 8.45302C88.6369 8.37302 88.5612 8.39422 88.4944 8.44142C88.1072 8.70504 87.6528 8.85269 87.1845 8.86703C86.6405 8.92394 86.0934 8.79188 85.6353 8.49303C85.5839 8.45498 85.5238 8.43037 85.4605 8.42143C85.4037 8.41663 85.3029 8.43743 85.2937 8.46823C85.2837 8.50287 85.2809 8.53918 85.2855 8.57494C85.29 8.6107 85.3018 8.64518 85.3201 8.67624C85.3813 8.75029 85.4571 8.81088 85.5429 8.85421C85.9689 9.08067 86.4444 9.19818 86.9269 9.19623L86.9277 9.19823Z" fill="white"/>
<path d="M84.6827 6.79978C84.6815 6.7052 84.6991 6.61134 84.7345 6.52363C84.77 6.43593 84.8225 6.35614 84.889 6.28892C84.9556 6.2217 85.0349 6.1684 85.1222 6.13208C85.2096 6.09577 85.3032 6.07718 85.3978 6.07739C85.5887 6.078 85.7717 6.15355 85.9074 6.28777C86.0431 6.42199 86.1207 6.60414 86.1234 6.795C86.1202 6.9834 86.045 7.1634 85.9131 7.29805C85.7813 7.4327 85.6029 7.51176 85.4146 7.519C85.3189 7.52119 85.2237 7.50415 85.1347 7.4689C85.0457 7.43364 84.9647 7.38088 84.8964 7.31375C84.8282 7.24661 84.7741 7.16645 84.7374 7.07803C84.7006 6.98961 84.6821 6.89472 84.6827 6.79898V6.79978Z" fill="#F22E1F"/>
<path d="M88.5711 7.52349C88.4287 7.52262 88.2897 7.47952 88.1718 7.39969C88.0538 7.31985 87.9623 7.20685 87.9086 7.07495C87.8549 6.94306 87.8416 6.79821 87.8702 6.65872C87.8988 6.51923 87.9682 6.39136 88.0695 6.29129C88.1708 6.19121 88.2995 6.12342 88.4393 6.09649C88.5792 6.06956 88.7238 6.0847 88.8551 6.13999C88.9863 6.19529 89.0981 6.28827 89.1765 6.40716C89.2549 6.52604 89.2963 6.66549 89.2955 6.80789C89.2949 6.90244 89.2757 6.99595 89.2389 7.08308C89.2022 7.17022 89.1487 7.24928 89.0814 7.31573C89.0142 7.38218 88.9345 7.43472 88.8469 7.47036C88.7594 7.50601 88.6656 7.52407 88.5711 7.52349Z" fill="#F22E1F"/>
<path d="M86.927 9.19618C86.4441 9.19762 85.9684 9.07942 85.5423 8.85216C85.4565 8.80882 85.3806 8.74824 85.3194 8.67418C85.3011 8.64312 85.2894 8.60865 85.2848 8.57288C85.2803 8.53712 85.2831 8.50081 85.293 8.46617C85.3022 8.43537 85.403 8.41457 85.4598 8.41937C85.5231 8.42834 85.5832 8.45296 85.6346 8.49098C86.0928 8.78979 86.6398 8.92185 87.1839 8.86497C87.6521 8.85063 88.1065 8.70298 88.4938 8.43936C88.5606 8.39216 88.6362 8.37176 88.6966 8.45096C88.7121 8.46604 88.7241 8.48441 88.7315 8.50472C88.7389 8.52503 88.7416 8.54675 88.7395 8.56827C88.7374 8.58979 88.7305 8.61054 88.7193 8.62901C88.7081 8.64748 88.6928 8.66319 88.6747 8.67496C88.4986 8.79273 88.3135 8.89639 88.1211 8.98497C87.7421 9.13784 87.3354 9.20979 86.927 9.19618Z" fill="#F22E1F"/>
</g>
<path d="M114 12C117.314 12 120 9.31371 120 6C120 2.68629 117.314 0 114 0C110.686 0 108 2.68629 108 6C108 9.31371 110.686 12 114 12Z" fill="#1C1C1C"/>
<path d="M113.658 4.95434V4.67289C113.553 4.65908 113.447 4.65193 113.342 4.65149C112.051 4.65149 111 5.63259 111 6.83851C111 7.57813 111.396 8.23308 112 8.62893C111.595 8.22512 111.371 7.6929 111.371 7.14004C111.371 5.95135 112.392 4.982 113.658 4.95434Z" fill="#00F2EA"/>
<path d="M113.72 8.06086C114.265 8.06086 114.711 7.63035 114.731 7.09358L114.733 2.30323H115.615C115.597 2.20325 115.587 2.10174 115.587 2H114.381L114.379 6.79054C114.359 7.32693 113.914 7.75744 113.368 7.75744C113.204 7.75744 113.043 7.7178 112.898 7.6419C112.992 7.77161 113.115 7.87722 113.258 7.95005C113.401 8.02288 113.559 8.06086 113.72 8.06086ZM117.264 3.92925V3.66295C116.94 3.66331 116.623 3.56981 116.351 3.39381C116.589 3.66588 116.91 3.8537 117.264 3.92925Z" fill="#00F2EA"/>
<path d="M116.315 3.46191C116.05 3.16313 115.904 2.77792 115.903 2.37891H115.581C115.623 2.59968 115.71 2.80957 115.836 2.99577C115.963 3.18197 116.125 3.34057 116.315 3.46191ZM113.339 5.80045C112.781 5.80121 112.329 6.24763 112.329 6.7986C112.329 6.98124 112.38 7.16023 112.476 7.31603C112.571 7.47183 112.708 7.59848 112.87 7.68216C112.746 7.51337 112.679 7.3095 112.679 7.10012C112.68 6.54896 113.132 6.10236 113.69 6.10179C113.794 6.10179 113.894 6.11883 113.988 6.148V4.93583C113.889 4.92196 113.79 4.91475 113.69 4.91424C113.672 4.91424 113.655 4.91537 113.638 4.91556V5.84666C113.541 5.81633 113.441 5.80075 113.339 5.80045Z" fill="#FF004F"/>
<path d="M117.104 4.08337V5.00841C116.504 5.0093 115.919 4.82315 115.431 4.476V6.8941C115.431 8.10191 114.438 9.08453 113.218 9.08453C112.746 9.08453 112.309 8.93717 111.949 8.68735C112.157 8.90832 112.407 9.08441 112.686 9.2047C112.964 9.32499 113.265 9.38691 113.568 9.38662C114.788 9.38662 115.781 8.40401 115.781 7.19638V4.7781C116.27 5.12518 116.855 5.31126 117.454 5.31032V4.12031C117.336 4.12027 117.219 4.10789 117.104 4.08337Z" fill="#FF004F"/>
<path d="M115.552 6.8147V4.39263C116.055 4.74121 116.652 4.92739 117.264 4.92598V3.99981C116.905 3.92548 116.578 3.73834 116.332 3.46569C115.939 3.21815 115.667 2.82552 115.581 2.37891H114.68L114.678 7.15467C114.657 7.68954 114.203 8.11873 113.645 8.11873C113.312 8.11835 113 7.96304 112.806 7.70129C112.466 7.52836 112.252 7.18687 112.252 6.81451C112.253 6.26145 112.715 5.81352 113.287 5.81276C113.393 5.81276 113.495 5.82981 113.592 5.85916V4.92485C112.367 4.95269 111.38 5.92489 111.38 7.11698C111.38 7.69371 111.611 8.21854 111.988 8.61042C112.371 8.87034 112.824 9.0089 113.287 9.00797C114.536 9.00797 115.552 8.02403 115.552 6.8147Z" fill="white"/>
<path d="M147 6C147 2.68629 144.314 0 141 0C137.686 0 135 2.68629 135 6C135 9.31371 137.686 12 141 12C144.314 12 147 9.31371 147 6Z" fill="#FF0000"/>
<path fill-rule="evenodd" clip-rule="evenodd" d="M143.934 3.53501C144.256 3.62149 144.509 3.87479 144.596 4.19604C144.756 4.78294 144.75 6.00616 144.75 6.00616C144.75 6.00616 144.75 7.22321 144.596 7.81011C144.509 8.13136 144.256 8.38467 143.934 8.47114C143.348 8.62559 141 8.62559 141 8.62559C141 8.62559 138.659 8.62559 138.065 8.46496C137.744 8.37846 137.491 8.12519 137.404 7.80394C137.25 7.22321 137.25 5.99999 137.25 5.99999C137.25 5.99999 137.25 4.78294 137.404 4.19604C137.491 3.87479 137.75 3.61531 138.065 3.52881C138.652 3.37439 141 3.37439 141 3.37439C141 3.37439 143.348 3.37439 143.934 3.53501ZM142.205 5.99999L140.252 7.12436V4.87561L142.205 5.99999Z" fill="white"/>
<defs>
<clipPath id="clip0_0_86">
<rect width="24" height="24" fill="white" transform="translate(27) scale(0.5)"/>
</clipPath>
<clipPath id="clip1_0_86">
<rect width="24" height="24" fill="white" transform="translate(54) scale(0.5)"/>
</clipPath>
<clipPath id="clip2_0_86">
<rect width="24" height="24" fill="white" transform="translate(81) scale(0.5)"/>
</clipPath>
</defs>
</svg>
