<svg width="80" height="100" viewBox="0 0 80 100" fill="none" xmlns="http://www.w3.org/2000/svg">
<path d="M39.6671 79.6444C54.7809 79.6444 67.0485 67.456 67.3162 52.3188H67.322V51.0571H66.8202C64.3621 38.2259 53.1439 28.5322 39.6671 28.5322C26.1902 28.5322 14.972 38.2316 12.5139 51.0629H12.0059V52.3246H12.0173C12.2799 67.456 24.5532 79.6502 39.6671 79.6502V79.6444Z" fill="url(#paint0_linear_5044_12271)"/>
<path d="M39.6671 76.8569C54.7809 76.8569 67.0485 64.6684 67.3162 49.5314H67.322V48.2694H66.8202C64.3621 35.4383 53.1439 25.7446 39.6671 25.7446C26.1902 25.7446 14.972 35.444 12.5139 48.2752H12.0059V49.5372H12.0173C12.2799 64.6684 24.5532 76.8632 39.6671 76.8632V76.8569Z" fill="#FFCE81"/>
<path d="M66.9684 53.0285C69.4167 37.8631 59.1767 23.5734 44.0972 21.1116C29.0178 18.65 14.8093 28.9484 12.3616 44.114C9.91378 59.2794 20.1539 73.5694 35.2333 76.0311C50.3127 78.4928 64.5212 68.1944 66.9684 53.0285Z" fill="url(#paint1_linear_5044_12271)"/>
<path d="M47.5797 68.9824C58.787 64.5876 64.3299 51.8879 59.9608 40.6162C55.591 29.3446 42.9634 23.7697 31.756 28.1643C20.548 32.559 15.0051 45.259 19.3743 56.5306C23.7441 67.8021 36.3723 73.3773 47.5797 68.9824Z" fill="#BD6217"/>
<path d="M61.1498 48.5734C61.1498 60.5042 51.5284 70.1804 39.6657 70.1804C27.8029 70.1804 18.1758 60.5042 18.1758 48.5734C18.1758 36.6428 27.7972 26.9663 39.6657 26.9663C51.5341 26.9663 61.1498 36.6428 61.1498 48.5734Z" fill="url(#paint2_linear_5044_12271)"/>
<path d="M39.6657 28.3026C51.3059 28.3026 60.7794 37.6178 61.1326 49.2387C61.1383 49.0149 61.1498 48.7913 61.1498 48.5675C61.1498 36.6369 51.5284 26.9604 39.6657 26.9604C27.8029 26.9604 18.1758 36.6369 18.1758 48.5732C18.1758 48.7971 18.1872 49.0206 18.193 49.2445C18.5468 37.6234 28.0196 28.3084 39.6599 28.3084L39.6657 28.3026Z" fill="url(#paint3_linear_5044_12271)"/>
<path d="M39.6659 30.3506L46.0987 39.8721L57.0945 42.6082V43.0899L50.0797 52.187L50.4393 63.6989L39.6659 59.7986L28.8863 63.6989L29.2458 52.187L22.2305 43.0899V42.6082L33.2268 39.8721L39.6659 30.3506Z" fill="url(#paint4_linear_5044_12271)"/>
<path d="M39.6659 29.8687L46.0987 39.3903L57.0945 42.6081L50.0797 51.705L50.4393 63.2172L39.6659 59.3166L28.8863 63.2172L29.2458 51.705L22.2305 42.6081L33.2268 39.3903L39.6659 29.8687Z" fill="url(#paint5_linear_5044_12271)"/>
<path d="M39.6658 59.1216L28.8924 63.0162L28.8867 63.217L39.6658 59.3165L50.4391 63.217L50.4334 63.0162L39.6658 59.1216Z" fill="#FFCE81"/>
<path d="M29.2458 51.5101L22.356 42.5679L22.2305 42.608L29.2401 51.6995L29.2458 51.5101Z" fill="#FFCE81"/>
<path d="M50.0801 51.5101L50.0852 51.6995L57.0949 42.608L56.975 42.5679L50.0801 51.5101Z" fill="#FFCE81"/>
<defs>
<linearGradient id="paint0_linear_5044_12271" x1="12.0059" y1="54.0914" x2="67.322" y2="54.0914" gradientUnits="userSpaceOnUse">
<stop stop-color="#FF8726"/>
<stop offset="0.53" stop-color="#FD8525"/>
<stop offset="0.74" stop-color="#F68122"/>
<stop offset="0.88" stop-color="#EA791C"/>
<stop offset="1" stop-color="#DA6F16"/>
</linearGradient>
<linearGradient id="paint1_linear_5044_12271" x1="12.0089" y1="48.5731" x2="67.3313" y2="48.5731" gradientUnits="userSpaceOnUse">
<stop stop-color="#FFAF30"/>
<stop offset="1" stop-color="#FF971A"/>
</linearGradient>
<linearGradient id="paint2_linear_5044_12271" x1="39.6656" y1="31.5665" x2="39.6656" y2="76.4844" gradientUnits="userSpaceOnUse">
<stop stop-color="#FFEBD1"/>
<stop offset="1" stop-color="#FFDAAB"/>
</linearGradient>
<linearGradient id="paint3_linear_5044_12271" x1="39.6656" y1="29.3408" x2="39.6656" y2="52.4908" gradientUnits="userSpaceOnUse">
<stop stop-color="#E8CBA4"/>
<stop offset="1" stop-color="#C7AA86"/>
</linearGradient>
<linearGradient id="paint4_linear_5044_12271" x1="22.2305" y1="47.0247" x2="57.0945" y2="47.0247" gradientUnits="userSpaceOnUse">
<stop stop-color="#FF8726"/>
<stop offset="0.53" stop-color="#FD8525"/>
<stop offset="0.74" stop-color="#F68122"/>
<stop offset="0.88" stop-color="#EA791C"/>
<stop offset="1" stop-color="#DA6F16"/>
</linearGradient>
<linearGradient id="paint5_linear_5044_12271" x1="22.2305" y1="46.5427" x2="57.0945" y2="46.5427" gradientUnits="userSpaceOnUse">
<stop stop-color="#FFAF30"/>
<stop offset="1" stop-color="#FF971A"/>
</linearGradient>
</defs>
</svg>
