<svg width="20" height="21" viewBox="0 0 20 21" fill="none" xmlns="http://www.w3.org/2000/svg">
<path d="M20 10.5C20 4.97715 15.5228 0.5 10 0.5C4.47715 0.5 0 4.97715 0 10.5C0 16.0228 4.47715 20.5 10 20.5C15.5228 20.5 20 16.0228 20 10.5Z" fill="#E9F6F7"/>
<path d="M15.544 10.0833C15.6125 10.129 15.6686 10.1909 15.7075 10.2634C15.7463 10.336 15.7666 10.417 15.7666 10.4994C15.7666 10.5817 15.7463 10.6627 15.7075 10.7353C15.6686 10.8078 15.6125 10.8697 15.544 10.9154L10.944 13.9813C10.8687 14.0312 10.7813 14.0597 10.6912 14.0639C10.601 14.068 10.5113 14.0477 10.4318 14.0051C10.3522 13.9624 10.2856 13.899 10.2392 13.8216C10.1928 13.7442 10.1681 13.6556 10.168 13.5653V7.43337C10.168 7.34293 10.1926 7.25417 10.2391 7.1766C10.2856 7.09902 10.3522 7.03551 10.4319 6.99282C10.5117 6.95013 10.6016 6.92984 10.6919 6.93416C10.7822 6.93849 10.8697 6.96725 10.9449 7.01736L15.544 10.0833Z" fill="#2EA8AF"/>
<path d="M13 10.5H5" stroke="#2EA8AF" stroke-width="2"/>
</svg>
