<svg width="18" height="19" viewBox="0 0 18 19" fill="none" xmlns="http://www.w3.org/2000/svg">
<path d="M15.1875 15.6875H2.8125C2.19375 15.6875 1.6875 15.1813 1.6875 14.5625V7.25C1.6875 6.63125 2.19375 6.125 2.8125 6.125H15.1875C15.8063 6.125 16.3125 6.63125 16.3125 7.25V14.5625C16.3125 15.1813 15.8063 15.6875 15.1875 15.6875Z" stroke="#6CB1D1" stroke-miterlimit="10" stroke-linecap="round" stroke-linejoin="round"/>
<path d="M5.0625 6.125V15.6875" stroke="#6CB1D1" stroke-miterlimit="10" stroke-linecap="round" stroke-linejoin="round"/>
<path d="M12.9375 6.125V15.6875" stroke="#6CB1D1" stroke-miterlimit="10" stroke-linecap="round" stroke-linejoin="round"/>
<path d="M11.8125 6.125H6.1875V5C6.1875 4.38125 6.69375 3.875 7.3125 3.875H10.6875C11.3063 3.875 11.8125 4.38125 11.8125 5V6.125Z" stroke="#6CB1D1" stroke-miterlimit="10" stroke-linecap="round" stroke-linejoin="round"/>
<path d="M2.8125 16.25V15.6875" stroke="#6CB1D1" stroke-miterlimit="10" stroke-linecap="round" stroke-linejoin="round"/>
<path d="M15.1875 16.25V15.6875" stroke="#6CB1D1" stroke-miterlimit="10" stroke-linecap="round" stroke-linejoin="round"/>
</svg>
