<svg width="144" height="34" viewBox="0 0 144 34" fill="none" xmlns="http://www.w3.org/2000/svg">
<g clip-path="url(#clip0_5718_149241)">
<path d="M55.0709 7.95898C53.0138 7.95898 51.1149 8.80898 49.7698 10.3544V8.80898H44.4688V33.9999H50.3237V25.1908C51.6687 26.2726 53.2512 26.8908 54.9918 26.8908C60.2138 26.8135 64.4072 22.6408 64.3281 17.4635C64.4863 12.2863 60.2929 8.11353 55.0709 7.95898ZM64.4072 17.3863C64.4863 12.2863 60.2929 8.03626 55.0709 7.95898L64.4072 17.3863ZM54.438 21.6363C52.0644 21.7135 50.0863 19.9363 50.0072 17.6181C49.9281 15.2999 51.7479 13.3681 54.1215 13.2908C56.4951 13.2135 58.4731 14.9908 58.5523 17.309C58.5523 17.3863 58.5523 17.3863 58.5523 17.4635C58.6314 19.7044 56.8116 21.559 54.438 21.6363Z" fill="#287DFA"/>
<path d="M74.0574 23.4135C74.0574 25.3453 72.475 26.8908 70.5761 26.8908C68.598 26.8908 67.0156 25.3453 67.0156 23.4908C67.0156 21.559 68.598 20.0135 70.4969 20.0135C72.475 19.9362 74.0574 21.4817 74.0574 23.4135Z" fill="#FCB404"/>
<path fill-rule="evenodd" clip-rule="evenodd" d="M37.4246 6.41364C35.6049 6.41364 34.1016 5.02273 34.1016 3.24545C34.1016 1.46818 35.6049 0 37.4246 0C39.2444 0 40.7477 1.39091 40.7477 3.16818C40.7477 4.94546 39.2444 6.41364 37.4246 6.41364Z" fill="#287DFA"/>
<path d="M40.4331 8.80908H34.5781V25.9636H40.4331V8.80908Z" fill="#287DFA"/>
<path fill-rule="evenodd" clip-rule="evenodd" d="M0 0.850098V5.64101H7.5956V25.9637H13.4506V5.64101H21.0462V0.850098H0Z" fill="#287DFA"/>
<path d="M86.3961 21.5593C84.0225 21.5593 82.1236 19.7048 82.1236 17.3866C82.1236 15.0684 84.0225 13.2139 86.3961 13.2139C87.5038 13.2139 88.6115 13.6775 89.3236 14.5275L93.2005 10.7411C89.4027 7.10932 83.3104 7.10932 79.5917 10.8184C75.873 14.5275 75.873 20.4775 79.6708 24.1093C83.3895 27.7411 89.4818 27.7411 93.2796 24.1093L89.4027 20.323C88.5324 21.0957 87.5038 21.5593 86.3961 21.5593Z" fill="#287DFA"/>
<path fill-rule="evenodd" clip-rule="evenodd" d="M137.594 7.95894C135.379 7.80439 133.242 8.88621 132.135 10.7408C131.027 8.96349 129.049 7.88167 126.913 7.95894C124.776 7.88167 122.798 8.96349 121.77 10.7408V8.80894H116.469V25.9635H122.324V15.2998C122.245 13.9089 123.273 12.7498 124.697 12.5953C126.122 12.518 127.308 13.5226 127.467 14.9135C127.467 14.9908 127.467 15.1453 127.467 15.2226V25.8862H133.005V15.2998C132.926 13.9089 133.954 12.7498 135.379 12.5953C136.803 12.4408 137.99 13.5226 138.148 14.9135C138.148 14.9908 138.148 15.1453 138.148 15.2226V25.8862H144.003V14.218C144.003 10.3544 141.55 7.95894 137.594 7.95894Z" fill="#287DFA"/>
<path d="M103.965 7.95898C98.6641 7.95898 94.3125 12.1317 94.3125 17.3863C94.3125 22.6408 98.585 26.8135 103.965 26.8135C109.266 26.8135 113.618 22.6408 113.618 17.3863C113.618 12.1317 109.266 7.95898 103.965 7.95898ZM103.965 21.559C101.592 21.6363 99.6136 19.859 99.5345 17.5408C99.4554 15.2226 101.275 13.2908 103.649 13.2135C106.022 13.1363 108 14.9135 108.08 17.2317C108.08 17.309 108.08 17.309 108.08 17.3863C108.08 19.6272 106.26 21.4817 103.965 21.559Z" fill="#287DFA"/>
<path d="M30.4616 8.73193C28.3253 8.73193 26.3473 9.73648 25.1605 11.5138V8.80921H19.8594V25.9638H25.7143V18.7774C25.6352 16.2274 27.6132 14.0638 30.2242 13.9865C30.3825 13.9865 30.4616 13.9865 30.6198 13.9865C30.9363 13.9865 31.2528 13.9865 31.5693 14.0638V8.80921C31.2528 8.80921 30.8572 8.80921 30.4616 8.73193Z" fill="#287DFA"/>
</g>
<defs>
<clipPath id="clip0_5718_149241">
<rect width="144" height="34" fill="white"/>
</clipPath>
</defs>
</svg>
