<svg width="54" height="10" viewBox="0 0 54 10" fill="none" xmlns="http://www.w3.org/2000/svg">
<path d="M7.95467 5.55208C7.7927 5.65106 7.60373 5.66906 7.45976 5.58807C7.27979 5.48009 7.1718 5.23713 7.1718 4.90418V3.88735C7.1718 3.40143 6.98284 3.05049 6.65889 2.96051C6.10998 2.79853 5.69605 3.47342 5.54308 3.72538L4.57124 5.28212V3.36544C4.56224 2.92451 4.41826 2.66356 4.14831 2.58257C3.96834 2.52858 3.69838 2.55558 3.43743 2.95151L1.26879 6.42493C0.980836 5.87602 0.827862 5.26412 0.827862 4.64323C0.827862 2.54658 2.51058 0.845858 4.57124 0.845858C6.63189 0.845858 8.31461 2.54658 8.31461 4.64323V4.65223V4.66122C8.33261 5.06616 8.20663 5.3901 7.95467 5.55208ZM9.14248 4.64323V4.63423V4.62523C9.13348 2.07865 7.08182 0 4.57124 0C2.05166 0 0 2.07865 0 4.64323C0 7.1988 2.05166 9.28645 4.57124 9.28645C5.73204 9.28645 6.82986 8.84552 7.67572 8.04466C7.84669 7.88269 7.85569 7.62173 7.69372 7.45076C7.54074 7.27979 7.27979 7.27079 7.10882 7.42376C7.10882 7.42376 7.10881 7.42376 7.09982 7.43276C6.41593 8.08065 5.49808 8.44959 4.55324 8.44959C3.44643 8.44959 2.45659 7.96367 1.7727 7.1898L3.72538 4.05832V5.50708C3.72538 6.19997 3.99533 6.42493 4.2203 6.48792C4.44526 6.55091 4.7872 6.50592 5.15614 5.92101L6.22696 4.1843C6.26296 4.13031 6.28995 4.07632 6.32595 4.04033V4.92218C6.32595 5.57007 6.5869 6.09198 7.03683 6.34394C7.44176 6.5779 7.95468 6.55091 8.3776 6.28995C8.89952 5.94801 9.17847 5.35411 9.14248 4.64323ZM15.5134 3.05949C15.6214 3.12248 15.7204 3.27545 15.7204 3.41043C15.7204 3.62639 15.5404 3.80637 15.3334 3.80637C15.2795 3.80637 15.2345 3.78837 15.1895 3.77937C14.9465 3.5994 14.6406 3.48242 14.3166 3.48242C13.5517 3.48242 13.0298 4.10332 13.0298 4.87719C13.0298 5.65106 13.5607 6.26296 14.3166 6.26296C14.6946 6.26296 15.0365 6.10998 15.2885 5.86702C15.3514 5.82203 15.4324 5.79503 15.5134 5.79503C15.7204 5.79503 15.8824 5.95701 15.8824 6.16397C15.8824 6.29895 15.8014 6.41593 15.7024 6.47892C15.3334 6.79387 14.8385 7.00083 14.3256 7.00083C13.1558 7.00083 12.202 6.03799 12.202 4.85019C12.202 3.66239 13.1558 2.69955 14.3256 2.69955C14.7575 2.69055 15.1715 2.82553 15.5134 3.05949ZM17.6551 3.95934C18.4559 3.95934 19.1218 4.63423 19.1218 5.47109C19.1218 6.29895 18.4469 7.00983 17.6551 7.00983C16.8182 7.00983 16.1253 6.30795 16.1253 5.47109C16.1253 4.63423 16.8182 3.95934 17.6551 3.95934ZM17.6461 6.26296C17.997 6.26296 18.294 5.93001 18.294 5.48009C18.294 5.03016 17.997 4.74221 17.6461 4.74221C17.2681 4.74221 16.9532 5.02116 16.9532 5.48009C16.9532 5.92101 17.2681 6.26296 17.6461 6.26296ZM19.6257 6.54191V4.41826C19.6257 4.1843 19.8057 3.99533 20.0397 3.99533C20.2646 3.99533 20.4536 4.1843 20.4536 4.41826V6.54191C20.4536 6.77587 20.2646 6.96484 20.0397 6.96484C19.8147 6.96484 19.6257 6.76687 19.6257 6.54191ZM19.5627 3.19447C19.5627 2.91551 19.7787 2.69955 20.0397 2.69955C20.3096 2.69955 20.5256 2.92451 20.5256 3.19447C20.5256 3.46442 20.3096 3.68039 20.0397 3.68039C19.7697 3.67139 19.5627 3.45542 19.5627 3.19447ZM22.0373 5.3901V6.54191C22.0373 6.77587 21.8484 6.96484 21.6234 6.96484C21.3984 6.96484 21.2095 6.77587 21.2095 6.54191V4.31928C21.2095 4.13931 21.3534 3.99533 21.5334 3.99533C21.7134 3.99533 21.8484 4.14831 21.8484 4.31928C22.1813 4.00433 22.4783 3.95934 22.7572 3.95934C23.5851 3.95934 23.954 4.58024 23.954 5.29112V6.54191C23.954 6.77587 23.765 6.96484 23.5401 6.96484C23.3151 6.96484 23.1261 6.77587 23.1261 6.54191V5.3901C23.1261 5.03016 23.0812 4.72421 22.5592 4.72421C22.1903 4.72421 22.0373 5.03016 22.0373 5.3901ZM26.6356 5.83103C26.5366 5.83103 26.4736 5.78604 26.4196 5.72305L25.4568 4.67922V6.54191C25.4568 6.77587 25.2678 6.96484 25.0428 6.96484C24.8179 6.96484 24.6289 6.77587 24.6289 6.54191V2.85253C24.6559 2.78954 24.7189 2.74454 24.7819 2.74454C24.8539 2.74454 24.9168 2.80753 24.9618 2.85253L26.5006 4.58024C26.5456 4.63423 26.5996 4.66122 26.6356 4.66122C26.6626 4.66122 26.7255 4.63423 26.7705 4.58024L28.3093 2.85253C28.3543 2.80753 28.4083 2.74454 28.4893 2.74454C28.5612 2.74454 28.6242 2.78954 28.6422 2.85253V6.54191C28.6422 6.77587 28.4623 6.96484 28.2283 6.96484C28.0033 6.96484 27.8144 6.77587 27.8144 6.54191V4.67922L26.8515 5.72305C26.7795 5.78604 26.7165 5.83103 26.6356 5.83103ZM30.6129 6.26296C30.9818 6.26296 31.2968 5.93001 31.2968 5.48009C31.2968 5.03016 30.9728 4.73321 30.6129 4.73321C30.253 4.73321 29.956 5.03916 29.956 5.48009C29.956 5.91201 30.244 6.26296 30.6129 6.26296ZM31.4948 6.64089L31.4768 6.54191C31.3148 6.85686 30.8019 7.00083 30.4779 7.00083C29.704 7.00083 29.1281 6.29895 29.1281 5.46209C29.1281 4.63423 29.713 3.95034 30.5229 3.95034C30.6579 3.95034 31.1258 3.98634 31.4858 4.40927L31.5037 4.31028C31.5037 4.13031 31.6387 3.98634 31.8187 3.98634C31.9987 3.98634 32.1426 4.13931 32.1426 4.31028V6.6319C32.1426 6.81187 31.9987 6.95584 31.8187 6.95584C31.6297 6.96484 31.4948 6.81187 31.4948 6.64089ZM34.4193 4.72421H34.3293C33.8074 4.75121 33.7084 5.04816 33.7084 5.3901V6.54191C33.7084 6.77587 33.5194 6.96484 33.2945 6.96484C33.0695 6.96484 32.8805 6.77587 32.8805 6.54191V4.31928C32.8805 4.13931 33.0245 3.99533 33.2045 3.99533C33.3844 3.99533 33.5194 4.14831 33.5194 4.31928C33.8254 4.03133 34.0773 3.96834 34.3293 3.95934H34.4103C34.6082 3.95934 34.7882 4.13031 34.7882 4.34628C34.7972 4.54424 34.6172 4.72421 34.4193 4.72421ZM37.6137 6.34394C37.6497 6.40693 37.6767 6.46992 37.6767 6.54191C37.6767 6.75787 37.4788 6.95584 37.2628 6.95584C37.1188 6.95584 36.9928 6.84786 36.8939 6.72188L35.94 5.61506V6.53291C35.94 6.76687 35.751 6.95584 35.5261 6.95584C35.3011 6.95584 35.1121 6.76687 35.1121 6.53291V3.15847C35.1121 2.92451 35.2921 2.73554 35.5261 2.73554C35.76 2.73554 35.94 2.92451 35.94 3.15847V5.26412L36.8939 4.2113C36.9928 4.10332 37.1098 3.98634 37.2538 3.98634C37.4608 3.98634 37.6497 4.17531 37.6497 4.39127C37.6497 4.45426 37.6317 4.52624 37.5957 4.58024L36.8399 5.4081L37.6137 6.34394ZM39.2335 4.73321C39.0085 4.73321 38.6396 4.85019 38.6396 5.20113H39.8364C39.8274 4.85019 39.4494 4.73321 39.2335 4.73321ZM40.3133 5.73205H38.6396C38.6396 6.22696 39.1165 6.30795 39.3234 6.30795C39.4764 6.30795 39.6924 6.28095 39.8634 6.19997C39.9173 6.16397 39.9983 6.13698 40.0793 6.13698C40.2593 6.13698 40.4123 6.28995 40.4123 6.47892C40.4123 6.6049 40.3313 6.71288 40.2323 6.77587C39.9803 6.96484 39.6474 7.00983 39.3324 7.00983C38.4956 7.00983 37.8027 6.55991 37.8027 5.50708C37.8027 4.67922 38.2256 3.95934 39.2155 3.95934C40.0163 3.95934 40.6192 4.48125 40.6372 5.4081C40.6372 5.57907 40.4933 5.73205 40.3133 5.73205ZM42.6169 7.00083H42.3919C41.762 7.00083 41.3931 6.72188 41.3931 5.74104V4.72421H41.1771C40.9792 4.72421 40.8082 4.54424 40.8082 4.34628C40.8082 4.13031 40.9882 3.95934 41.1771 3.95934H41.3931V3.17647C41.3931 2.94251 41.5731 2.75354 41.807 2.75354C42.032 2.75354 42.221 2.94251 42.221 3.17647V3.95934H42.5629C42.7609 3.95934 42.9318 4.13031 42.9318 4.34628C42.9318 4.54424 42.7519 4.72421 42.5629 4.72421H42.221V5.57907C42.221 6.14598 42.248 6.26296 42.4999 6.26296H42.6169C42.8149 6.26296 42.9858 6.42493 42.9858 6.6319C42.9858 6.82986 42.8149 7.00083 42.6169 7.00083ZM46.6212 3.05949C46.7292 3.12248 46.8282 3.27545 46.8282 3.41043C46.8282 3.62639 46.6482 3.80637 46.4413 3.80637C46.3873 3.80637 46.3423 3.78837 46.2973 3.77937C46.0543 3.5994 45.7484 3.48242 45.4244 3.48242C44.6596 3.48242 44.1376 4.10332 44.1376 4.87719C44.1376 5.65106 44.6686 6.26296 45.4244 6.26296C45.8024 6.26296 46.1443 6.10998 46.3963 5.86702C46.4593 5.82203 46.5402 5.79503 46.6212 5.79503C46.8282 5.79503 46.9902 5.95701 46.9902 6.16397C46.9902 6.29895 46.9092 6.41593 46.8102 6.47892C46.4413 6.79387 45.9463 7.00083 45.4334 7.00083C44.2636 7.00083 43.3098 6.03799 43.3098 4.85019C43.3098 3.66239 44.2636 2.69955 45.4334 2.69955C45.8654 2.69055 46.2883 2.82553 46.6212 3.05949ZM48.7179 6.26296C49.0868 6.26296 49.4018 5.93001 49.4018 5.48009C49.4018 5.03016 49.0778 4.73321 48.7179 4.73321C48.3489 4.73321 48.061 5.03916 48.061 5.48009C48.061 5.91201 48.3579 6.26296 48.7179 6.26296ZM49.5997 6.64089L49.5817 6.54191C49.4198 6.85686 48.9068 7.00083 48.5829 7.00083C47.809 7.00083 47.2331 6.29895 47.2331 5.46209C47.2331 4.63423 47.818 3.95034 48.6279 3.95034C48.7629 3.95034 49.2308 3.98634 49.5907 4.40927L49.6087 4.31028C49.6087 4.13031 49.7437 3.98634 49.9237 3.98634C50.1036 3.98634 50.2476 4.13931 50.2476 4.31028V6.6319C50.2476 6.81187 50.1036 6.95584 49.9237 6.95584C49.7347 6.96484 49.5997 6.81187 49.5997 6.64089ZM52.5063 6.26296C52.8752 6.26296 53.1631 5.91201 53.1631 5.48009C53.1631 5.03016 52.8662 4.73321 52.5063 4.73321C52.1373 4.73321 51.8224 5.03016 51.8224 5.48009C51.8224 5.93001 52.1373 6.26296 52.5063 6.26296ZM51.8224 6.75787V7.8107C51.8224 8.04466 51.6334 8.23363 51.4084 8.23363C51.1835 8.23363 50.9945 8.04466 50.9945 7.8107V4.31928C50.9945 4.13931 51.1385 3.99533 51.3184 3.99533C51.4984 3.99533 51.6334 4.14831 51.6334 4.35527C51.9393 4.04033 52.3173 3.95934 52.6052 3.95934C53.4061 3.95934 54 4.63423 54 5.47109C54 6.29895 53.4331 7.00983 52.6502 7.00983C52.4073 7.00083 52.0473 6.92885 51.8224 6.75787Z" fill="black"/>
</svg>
