<svg width="609" height="42" viewBox="0 0 609 42" fill="none" xmlns="http://www.w3.org/2000/svg">
<path d="M4.82676 13.5687V8.30465L-0.000199244 0.266046H1.44409L5.32086 6.91737H5.5489L9.42568 0.266046H10.87L6.043 8.30465V13.5687H4.82676ZM15.4229 13.8347C14.4853 13.8347 13.6618 13.6384 12.9524 13.2456C12.2556 12.8402 11.7108 12.2828 11.318 11.5733C10.938 10.8512 10.7479 10.015 10.7479 9.0648V8.83675C10.7479 7.88656 10.938 7.05673 11.318 6.34726C11.7108 5.62511 12.2556 5.06767 12.9524 4.67492C13.6618 4.26951 14.4853 4.0668 15.4229 4.0668C16.3604 4.0668 17.1775 4.26951 17.8743 4.67492C18.5838 5.06767 19.1286 5.62511 19.5087 6.34726C19.9014 7.05673 20.0978 7.88656 20.0978 8.83675V9.0648C20.0978 10.015 19.9014 10.8512 19.5087 11.5733C19.1286 12.2828 18.5838 12.8402 17.8743 13.2456C17.1775 13.6384 16.3604 13.8347 15.4229 13.8347ZM15.4229 12.8085C16.5124 12.8085 17.3739 12.4665 18.0074 11.7823C18.6408 11.0855 18.9576 10.167 18.9576 9.02679V8.87476C18.9576 7.73453 18.6408 6.82235 18.0074 6.13821C17.3739 5.44141 16.5124 5.09301 15.4229 5.09301C14.346 5.09301 13.4845 5.44141 12.8383 6.13821C12.2049 6.82235 11.8881 7.73453 11.8881 8.87476V9.02679C11.8881 10.167 12.2049 11.0855 12.8383 11.7823C13.4845 12.4665 14.346 12.8085 15.4229 12.8085ZM26.5423 13.7587C25.8835 13.7587 25.269 13.6194 24.6989 13.3406C24.1415 13.0619 23.6917 12.6438 23.3497 12.0864C23.0203 11.5163 22.8556 10.8068 22.8556 9.95797V4.33286H23.9958V9.88196C23.9958 10.8828 24.2492 11.6113 24.7559 12.0674C25.2627 12.5108 25.9405 12.7325 26.7893 12.7325C27.7395 12.7325 28.5314 12.4221 29.1648 11.8013C29.7983 11.1679 30.115 10.2177 30.115 8.95077V4.33286H31.2552V13.5687H30.153V11.8584H29.925C29.6969 12.3525 29.3232 12.7959 28.8037 13.1886C28.2843 13.5687 27.5305 13.7587 26.5423 13.7587ZM34.6061 13.5687V4.33286H35.7083V5.49209H35.9364C36.1138 5.074 36.3735 4.76994 36.7155 4.5799C37.0703 4.38987 37.558 4.29485 38.1788 4.29485H39.2621V5.35906H38.0458C37.349 5.35906 36.7916 5.55543 36.3735 5.94818C35.9554 6.34092 35.7464 6.95538 35.7464 7.79154V13.5687H34.6061ZM49.0291 13.5687L45.5704 4.33286H46.7867L49.8273 12.6945H50.0553L53.0959 4.33286H54.3122L50.8535 13.5687H49.0291ZM60.4826 13.8347C59.5451 13.8347 58.7216 13.6384 58.0121 13.2456C57.3153 12.8402 56.7705 12.2828 56.3778 11.5733C55.9977 10.8512 55.8077 10.015 55.8077 9.0648V8.83675C55.8077 7.88656 55.9977 7.05673 56.3778 6.34726C56.7705 5.62511 57.3153 5.06767 58.0121 4.67492C58.7216 4.26951 59.5451 4.0668 60.4826 4.0668C61.4201 4.0668 62.2373 4.26951 62.9341 4.67492C63.6436 5.06767 64.1883 5.62511 64.5684 6.34726C64.9612 7.05673 65.1575 7.88656 65.1575 8.83675V9.0648C65.1575 10.015 64.9612 10.8512 64.5684 11.5733C64.1883 12.2828 63.6436 12.8402 62.9341 13.2456C62.2373 13.6384 61.4201 13.8347 60.4826 13.8347ZM60.4826 12.8085C61.5721 12.8085 62.4336 12.4665 63.0671 11.7823C63.7006 11.0855 64.0173 10.167 64.0173 9.02679V8.87476C64.0173 7.73453 63.7006 6.82235 63.0671 6.13821C62.4336 5.44141 61.5721 5.09301 60.4826 5.09301C59.4057 5.09301 58.5442 5.44141 57.8981 6.13821C57.2646 6.82235 56.9479 7.73453 56.9479 8.87476V9.02679C56.9479 10.167 57.2646 11.0855 57.8981 11.7823C58.5442 12.4665 59.4057 12.8085 60.4826 12.8085ZM68.0483 13.5687V4.33286H69.1886V13.5687H68.0483ZM68.6184 2.73654C68.3397 2.73654 68.1053 2.64152 67.9153 2.45148C67.7253 2.26144 67.6302 2.02706 67.6302 1.74834C67.6302 1.45695 67.7253 1.22257 67.9153 1.0452C68.1053 0.855164 68.3397 0.760145 68.6184 0.760145C68.9098 0.760145 69.1442 0.855164 69.3216 1.0452C69.5116 1.22257 69.6066 1.45695 69.6066 1.74834C69.6066 2.02706 69.5116 2.26144 69.3216 2.45148C69.1442 2.64152 68.9098 2.73654 68.6184 2.73654ZM76.7583 13.8347C75.8588 13.8347 75.0543 13.6447 74.3448 13.2646C73.648 12.8719 73.0969 12.3144 72.6915 11.5923C72.2861 10.8702 72.0834 10.0213 72.0834 9.04579V8.85575C72.0834 7.86756 72.2861 7.01872 72.6915 6.30925C73.0969 5.5871 73.648 5.036 74.3448 4.65592C75.0543 4.26318 75.8588 4.0668 76.7583 4.0668C77.6451 4.0668 78.3926 4.23784 79.0007 4.5799C79.6215 4.9093 80.103 5.34639 80.445 5.89117C80.7998 6.42327 81.0215 6.98705 81.1102 7.5825L79.9889 7.81055C79.9256 7.31645 79.7672 6.86669 79.5138 6.46128C79.2605 6.0432 78.9057 5.7138 78.4496 5.47308C77.9935 5.2197 77.4298 5.09301 76.7583 5.09301C76.0868 5.09301 75.485 5.25137 74.9529 5.5681C74.4208 5.87216 73.9964 6.30925 73.6797 6.87936C73.3756 7.43681 73.2236 8.10194 73.2236 8.87476V9.02679C73.2236 9.79961 73.3756 10.4711 73.6797 11.0412C73.9964 11.5986 74.4208 12.0357 74.9529 12.3525C75.485 12.6565 76.0868 12.8085 76.7583 12.8085C77.7718 12.8085 78.5446 12.5488 79.0768 12.0294C79.6089 11.4973 79.9383 10.8512 80.0649 10.091L81.1862 10.319C81.0721 10.9145 80.8314 11.4846 80.464 12.0294C80.1093 12.5615 79.6215 12.9986 79.0007 13.3406C78.3926 13.67 77.6451 13.8347 76.7583 13.8347ZM88.2468 13.8347C87.2966 13.8347 86.4668 13.6384 85.7573 13.2456C85.0605 12.8402 84.5157 12.2764 84.123 11.5543C83.7303 10.8321 83.5339 10.0023 83.5339 9.0648V8.83675C83.5339 7.88656 83.7303 7.05673 84.123 6.34726C84.5157 5.62511 85.0542 5.06767 85.7383 4.67492C86.4351 4.26951 87.2269 4.0668 88.1138 4.0668C88.9753 4.0668 89.7354 4.25051 90.3942 4.61791C91.0657 4.97265 91.5915 5.49209 91.9716 6.17622C92.3516 6.84769 92.5417 7.65218 92.5417 8.5897V9.19782H84.6741C84.7121 10.3507 85.0605 11.2439 85.7193 11.8774C86.3908 12.4981 87.2333 12.8085 88.2468 12.8085C89.1083 12.8085 89.7735 12.6122 90.2422 12.2194C90.7236 11.8267 91.091 11.3453 91.3444 10.7751L92.3706 11.2312C92.1806 11.6493 91.9145 12.0611 91.5725 12.4665C91.2431 12.8592 90.8123 13.1886 90.2802 13.4547C89.7481 13.7081 89.0703 13.8347 88.2468 13.8347ZM84.6931 8.20963H91.3824C91.3318 7.20876 91.0087 6.44227 90.4132 5.91017C89.8178 5.36539 89.0513 5.09301 88.1138 5.09301C87.1889 5.09301 86.4225 5.36539 85.8143 5.91017C85.2062 6.44227 84.8325 7.20876 84.6931 8.20963ZM100.247 13.5687V0.266046H101.387V5.94818H101.615C101.767 5.64412 101.976 5.35906 102.243 5.09301C102.521 4.81428 102.876 4.59257 103.307 4.42787C103.75 4.25051 104.301 4.16182 104.96 4.16182C105.632 4.16182 106.246 4.30118 106.803 4.5799C107.361 4.85863 107.804 5.27671 108.134 5.83415C108.476 6.3916 108.647 7.09474 108.647 7.94357V13.5687H107.507V8.01959C107.507 7.00605 107.253 6.28391 106.746 5.85316C106.24 5.40974 105.562 5.18803 104.713 5.18803C103.763 5.18803 102.971 5.49842 102.338 6.11921C101.704 6.74 101.387 7.68386 101.387 8.95077V13.5687H100.247ZM116.102 13.8347C115.165 13.8347 114.341 13.6384 113.632 13.2456C112.935 12.8402 112.39 12.2828 111.997 11.5733C111.617 10.8512 111.427 10.015 111.427 9.0648V8.83675C111.427 7.88656 111.617 7.05673 111.997 6.34726C112.39 5.62511 112.935 5.06767 113.632 4.67492C114.341 4.26951 115.165 4.0668 116.102 4.0668C117.04 4.0668 117.857 4.26951 118.554 4.67492C119.263 5.06767 119.808 5.62511 120.188 6.34726C120.581 7.05673 120.777 7.88656 120.777 8.83675V9.0648C120.777 10.015 120.581 10.8512 120.188 11.5733C119.808 12.2828 119.263 12.8402 118.554 13.2456C117.857 13.6384 117.04 13.8347 116.102 13.8347ZM116.102 12.8085C117.192 12.8085 118.053 12.4665 118.687 11.7823C119.32 11.0855 119.637 10.167 119.637 9.02679V8.87476C119.637 7.73453 119.32 6.82235 118.687 6.13821C118.053 5.44141 117.192 5.09301 116.102 5.09301C115.025 5.09301 114.164 5.44141 113.518 6.13821C112.884 6.82235 112.567 7.73453 112.567 8.87476V9.02679C112.567 10.167 112.884 11.0855 113.518 11.7823C114.164 12.4665 115.025 12.8085 116.102 12.8085ZM123.668 13.5687V0.266046H124.808V13.5687H123.668ZM132.15 13.8347C131.326 13.8347 130.579 13.6447 129.907 13.2646C129.236 12.8719 128.697 12.3208 128.292 11.6113C127.899 10.8892 127.703 10.0403 127.703 9.0648V8.83675C127.703 7.86122 127.899 7.01872 128.292 6.30925C128.685 5.5871 129.217 5.036 129.888 4.65592C130.572 4.26318 131.326 4.0668 132.15 4.0668C132.834 4.0668 133.41 4.16182 133.879 4.35186C134.348 4.52923 134.728 4.76361 135.019 5.055C135.323 5.33372 135.558 5.63145 135.722 5.94818H135.95V0.266046H137.091V13.5687H135.988V11.8774H135.76C135.494 12.3841 135.076 12.8402 134.506 13.2456C133.949 13.6384 133.163 13.8347 132.15 13.8347ZM132.416 12.8085C133.467 12.8085 134.316 12.4728 134.962 11.8013C135.621 11.1299 135.95 10.205 135.95 9.02679V8.87476C135.95 7.69652 135.621 6.77167 134.962 6.10021C134.316 5.42874 133.467 5.09301 132.416 5.09301C131.377 5.09301 130.528 5.42874 129.869 6.10021C129.21 6.77167 128.881 7.69652 128.881 8.87476V9.02679C128.881 10.205 129.21 11.1299 129.869 11.8013C130.528 12.4728 131.377 12.8085 132.416 12.8085ZM144.112 13.8347C142.997 13.8347 142.041 13.5687 141.243 13.0366C140.457 12.5045 139.976 11.624 139.798 10.3951L140.92 10.186C141.021 10.8575 141.224 11.3896 141.528 11.7823C141.845 12.1624 142.225 12.4348 142.668 12.5995C143.124 12.7642 143.606 12.8465 144.112 12.8465C144.872 12.8465 145.481 12.6945 145.937 12.3905C146.405 12.0737 146.64 11.643 146.64 11.0982C146.64 10.5408 146.418 10.1543 145.975 9.93897C145.544 9.72359 144.967 9.55256 144.245 9.42587L143.371 9.27384C142.788 9.17248 142.263 9.02045 141.794 8.81775C141.325 8.60237 140.951 8.31731 140.673 7.96258C140.407 7.60784 140.274 7.16442 140.274 6.63231C140.274 5.83415 140.584 5.20703 141.205 4.75094C141.838 4.29485 142.674 4.0668 143.713 4.0668C144.765 4.0668 145.607 4.30752 146.241 4.78895C146.887 5.25771 147.292 5.94184 147.457 6.84135L146.393 7.0694C146.266 6.33459 145.962 5.81515 145.481 5.51109C145.012 5.20703 144.423 5.055 143.713 5.055C143.016 5.055 142.459 5.18803 142.041 5.45408C141.623 5.72013 141.414 6.11288 141.414 6.63231C141.414 7.13908 141.604 7.51282 141.984 7.75354C142.364 7.98158 142.883 8.15262 143.542 8.26664L144.416 8.41867C145.05 8.52002 145.62 8.67205 146.127 8.87476C146.633 9.0648 147.033 9.33718 147.324 9.69192C147.628 10.0467 147.78 10.5154 147.78 11.0982C147.78 11.9724 147.451 12.6502 146.792 13.1316C146.133 13.6004 145.24 13.8347 144.112 13.8347ZM155.384 17.3694V4.33286H156.486V6.02419H156.714C156.98 5.51742 157.392 5.06767 157.95 4.67492C158.52 4.26951 159.311 4.0668 160.325 4.0668C161.149 4.0668 161.896 4.26318 162.567 4.65592C163.239 5.036 163.771 5.58077 164.164 6.29024C164.569 6.99972 164.772 7.84855 164.772 8.83675V9.0648C164.772 10.0403 164.576 10.8892 164.183 11.6113C163.79 12.3208 163.258 12.8719 162.586 13.2646C161.915 13.6447 161.161 13.8347 160.325 13.8347C159.654 13.8347 159.077 13.7461 158.596 13.5687C158.127 13.3787 157.741 13.1379 157.436 12.8465C157.145 12.5552 156.917 12.2574 156.752 11.9534H156.524V17.3694H155.384ZM160.059 12.8085C161.111 12.8085 161.959 12.4728 162.605 11.8013C163.264 11.1299 163.594 10.205 163.594 9.02679V8.87476C163.594 7.69652 163.264 6.77167 162.605 6.10021C161.959 5.42874 161.111 5.09301 160.059 5.09301C159.02 5.09301 158.171 5.42874 157.512 6.10021C156.854 6.77167 156.524 7.69652 156.524 8.87476V9.02679C156.524 10.205 156.854 11.1299 157.512 11.8013C158.171 12.4728 159.02 12.8085 160.059 12.8085ZM171.889 13.8347C170.951 13.8347 170.128 13.6384 169.418 13.2456C168.721 12.8402 168.176 12.2828 167.784 11.5733C167.404 10.8512 167.214 10.015 167.214 9.0648V8.83675C167.214 7.88656 167.404 7.05673 167.784 6.34726C168.176 5.62511 168.721 5.06767 169.418 4.67492C170.128 4.26951 170.951 4.0668 171.889 4.0668C172.826 4.0668 173.643 4.26951 174.34 4.67492C175.049 5.06767 175.594 5.62511 175.974 6.34726C176.367 7.05673 176.563 7.88656 176.563 8.83675V9.0648C176.563 10.015 176.367 10.8512 175.974 11.5733C175.594 12.2828 175.049 12.8402 174.34 13.2456C173.643 13.6384 172.826 13.8347 171.889 13.8347ZM171.889 12.8085C172.978 12.8085 173.84 12.4665 174.473 11.7823C175.107 11.0855 175.423 10.167 175.423 9.02679V8.87476C175.423 7.73453 175.107 6.82235 174.473 6.13821C173.84 5.44141 172.978 5.09301 171.889 5.09301C170.812 5.09301 169.95 5.44141 169.304 6.13821C168.671 6.82235 168.354 7.73453 168.354 8.87476V9.02679C168.354 10.167 168.671 11.0855 169.304 11.7823C169.95 12.4665 170.812 12.8085 171.889 12.8085ZM180.733 13.5687L178.643 4.33286H179.821L181.645 12.8085H181.874L184.249 4.33286H186.187L188.563 12.8085H188.791L190.615 4.33286H191.794L189.703 13.5687H187.708L185.332 5.09301H185.104L182.729 13.5687H180.733ZM198.576 13.8347C197.626 13.8347 196.796 13.6384 196.087 13.2456C195.39 12.8402 194.845 12.2764 194.453 11.5543C194.06 10.8321 193.863 10.0023 193.863 9.0648V8.83675C193.863 7.88656 194.06 7.05673 194.453 6.34726C194.845 5.62511 195.384 5.06767 196.068 4.67492C196.765 4.26951 197.557 4.0668 198.443 4.0668C199.305 4.0668 200.065 4.25051 200.724 4.61791C201.395 4.97265 201.921 5.49209 202.301 6.17622C202.681 6.84769 202.871 7.65218 202.871 8.5897V9.19782H195.004C195.042 10.3507 195.39 11.2439 196.049 11.8774C196.72 12.4981 197.563 12.8085 198.576 12.8085C199.438 12.8085 200.103 12.6122 200.572 12.2194C201.053 11.8267 201.421 11.3453 201.674 10.7751L202.7 11.2312C202.51 11.6493 202.244 12.0611 201.902 12.4665C201.573 12.8592 201.142 13.1886 200.61 13.4547C200.078 13.7081 199.4 13.8347 198.576 13.8347ZM195.023 8.20963H201.712C201.661 7.20876 201.338 6.44227 200.743 5.91017C200.147 5.36539 199.381 5.09301 198.443 5.09301C197.518 5.09301 196.752 5.36539 196.144 5.91017C195.536 6.44227 195.162 7.20876 195.023 8.20963ZM205.677 13.5687V4.33286H206.779V5.49209H207.008C207.185 5.074 207.445 4.76994 207.787 4.5799C208.141 4.38987 208.629 4.29485 209.25 4.29485H210.333V5.35906H209.117C208.42 5.35906 207.863 5.55543 207.445 5.94818C207.027 6.34092 206.817 6.95538 206.817 7.79154V13.5687H205.677ZM216.94 9.19782V8.13361H225.454V9.19782H216.94ZM151.481 39.7779V38.9797H151.937C152.342 38.9797 152.545 38.777 152.545 38.3716V37.7635H152.298C151.994 37.7635 151.734 37.6685 151.519 37.4784C151.316 37.2757 151.215 37.0224 151.215 36.7183C151.215 36.4142 151.316 36.1672 151.519 35.9771C151.734 35.7744 151.994 35.6731 152.298 35.6731C152.602 35.6731 152.855 35.7808 153.058 35.9962C153.273 36.1989 153.381 36.4522 153.381 36.7563V38.3336C153.381 39.2965 152.906 39.7779 151.956 39.7779H151.481ZM163.282 37.8395C162.636 37.8395 162.047 37.7318 161.515 37.5165C160.995 37.2884 160.584 36.959 160.279 36.5283C159.975 36.0975 159.823 35.5781 159.823 34.9699C159.823 34.3492 159.975 33.8361 160.279 33.4306C160.584 33.0252 160.995 32.7212 161.515 32.5185C162.034 32.3158 162.611 32.2144 163.244 32.2144H166.627V31.4733C166.627 30.7258 166.411 30.143 165.981 29.7249C165.55 29.3068 164.923 29.0978 164.099 29.0978C163.288 29.0978 162.642 29.3005 162.161 29.7059C161.692 30.0986 161.375 30.6308 161.211 31.3022L160.108 30.9792C160.26 30.4344 160.501 29.9466 160.831 29.5159C161.16 29.0724 161.597 28.724 162.142 28.4707C162.687 28.2046 163.339 28.0716 164.099 28.0716C165.265 28.0716 166.164 28.3756 166.798 28.9838C167.444 29.5919 167.767 30.4407 167.767 31.5303V36.0152C167.767 36.3952 167.944 36.5853 168.299 36.5853H169.192V37.5735H167.976C167.583 37.5735 167.273 37.4594 167.045 37.2314C166.817 36.9907 166.703 36.6676 166.703 36.2622V36.1292H166.513C166.348 36.4079 166.133 36.6803 165.867 36.9463C165.613 37.2124 165.277 37.4278 164.859 37.5925C164.441 37.7572 163.916 37.8395 163.282 37.8395ZM163.358 36.8133C164.334 36.8133 165.119 36.5219 165.715 35.9391C166.323 35.3437 166.627 34.5075 166.627 33.4306V33.2026H163.263C162.604 33.2026 162.053 33.3483 161.61 33.6397C161.179 33.9184 160.964 34.3555 160.964 34.9509C160.964 35.5464 161.185 36.0088 161.629 36.3382C162.085 36.6549 162.661 36.8133 163.358 36.8133ZM171.363 37.5735V28.3376H172.465V30.048H172.693C172.921 29.5539 173.295 29.1168 173.814 28.7367C174.334 28.344 175.088 28.1476 176.076 28.1476C176.747 28.1476 177.362 28.287 177.919 28.5657C178.477 28.8444 178.92 29.2688 179.249 29.8389C179.591 30.3964 179.762 31.0995 179.762 31.9483V37.5735H178.622V32.0244C178.622 31.0108 178.369 30.2823 177.862 29.8389C177.355 29.3955 176.678 29.1738 175.829 29.1738C174.879 29.1738 174.087 29.4905 173.453 30.124C172.82 30.7448 172.503 31.6886 172.503 32.9555V37.5735H171.363ZM186.99 37.8395C186.166 37.8395 185.419 37.6495 184.747 37.2694C184.076 36.8767 183.537 36.3256 183.132 35.6161C182.739 34.8939 182.543 34.0451 182.543 33.0696V32.8415C182.543 31.866 182.739 31.0235 183.132 30.314C183.525 29.5919 184.057 29.0408 184.728 28.6607C185.412 28.2679 186.166 28.0716 186.99 28.0716C187.674 28.0716 188.25 28.1666 188.719 28.3566C189.188 28.534 189.568 28.7684 189.859 29.0598C190.163 29.3385 190.398 29.6362 190.562 29.9529H190.79V24.2708H191.931V37.5735H190.828V35.8821H190.6C190.334 36.3889 189.916 36.845 189.346 37.2504C188.789 37.6431 188.003 37.8395 186.99 37.8395ZM187.256 36.8133C188.307 36.8133 189.156 36.4776 189.802 35.8061C190.461 35.1346 190.79 34.2098 190.79 33.0316V32.8795C190.79 31.7013 190.461 30.7764 189.802 30.105C189.156 29.4335 188.307 29.0978 187.256 29.0978C186.217 29.0978 185.368 29.4335 184.709 30.105C184.05 30.7764 183.721 31.7013 183.721 32.8795V33.0316C183.721 34.2098 184.05 35.1346 184.709 35.8061C185.368 36.4776 186.217 36.8133 187.256 36.8133ZM200.184 37.5735V24.2708H201.324V37.5735H200.184ZM208.932 37.8395C207.982 37.8395 207.152 37.6431 206.442 37.2504C205.746 36.845 205.201 36.2812 204.808 35.5591C204.415 34.8369 204.219 34.0071 204.219 33.0696V32.8415C204.219 31.8913 204.415 31.0615 204.808 30.352C205.201 29.6299 205.739 29.0724 206.423 28.6797C207.12 28.2743 207.912 28.0716 208.799 28.0716C209.66 28.0716 210.421 28.2553 211.079 28.6227C211.751 28.9774 212.277 29.4969 212.657 30.181C213.037 30.8525 213.227 31.657 213.227 32.5945V33.2026H205.359C205.397 34.3555 205.746 35.2487 206.404 35.8821C207.076 36.5029 207.918 36.8133 208.932 36.8133C209.793 36.8133 210.459 36.6169 210.927 36.2242C211.409 35.8315 211.776 35.35 212.03 34.7799L213.056 35.236C212.866 35.6541 212.6 36.0658 212.258 36.4712C211.928 36.864 211.497 37.1934 210.965 37.4594C210.433 37.7128 209.755 37.8395 208.932 37.8395ZM205.378 32.2144H212.068C212.017 31.2135 211.694 30.447 211.098 29.9149C210.503 29.3702 209.736 29.0978 208.799 29.0978C207.874 29.0978 207.108 29.3702 206.499 29.9149C205.891 30.447 205.518 31.2135 205.378 32.2144ZM218.864 37.8395C218.218 37.8395 217.629 37.7318 217.097 37.5165C216.578 37.2884 216.166 36.959 215.862 36.5283C215.558 36.0975 215.406 35.5781 215.406 34.9699C215.406 34.3492 215.558 33.8361 215.862 33.4306C216.166 33.0252 216.578 32.7212 217.097 32.5185C217.616 32.3158 218.193 32.2144 218.826 32.2144H222.209V31.4733C222.209 30.7258 221.994 30.143 221.563 29.7249C221.132 29.3068 220.505 29.0978 219.682 29.0978C218.871 29.0978 218.225 29.3005 217.743 29.7059C217.274 30.0986 216.958 30.6308 216.793 31.3022L215.691 30.9792C215.843 30.4344 216.084 29.9466 216.413 29.5159C216.742 29.0724 217.179 28.724 217.724 28.4707C218.269 28.2046 218.921 28.0716 219.682 28.0716C220.847 28.0716 221.747 28.3756 222.38 28.9838C223.026 29.5919 223.349 30.4407 223.349 31.5303V36.0152C223.349 36.3952 223.527 36.5853 223.881 36.5853H224.775V37.5735H223.558C223.166 37.5735 222.855 37.4594 222.627 37.2314C222.399 36.9907 222.285 36.6676 222.285 36.2622V36.1292H222.095C221.93 36.4079 221.715 36.6803 221.449 36.9463C221.196 37.2124 220.86 37.4278 220.442 37.5925C220.024 37.7572 219.498 37.8395 218.864 37.8395ZM218.94 36.8133C219.916 36.8133 220.701 36.5219 221.297 35.9391C221.905 35.3437 222.209 34.5075 222.209 33.4306V33.2026H218.845C218.187 33.2026 217.635 33.3483 217.192 33.6397C216.761 33.9184 216.546 34.3555 216.546 34.9509C216.546 35.5464 216.768 36.0088 217.211 36.3382C217.667 36.6549 218.244 36.8133 218.94 36.8133ZM230.658 37.8395C229.834 37.8395 229.087 37.6495 228.415 37.2694C227.744 36.8767 227.205 36.3256 226.8 35.6161C226.407 34.8939 226.211 34.0451 226.211 33.0696V32.8415C226.211 31.866 226.407 31.0235 226.8 30.314C227.193 29.5919 227.725 29.0408 228.396 28.6607C229.08 28.2679 229.834 28.0716 230.658 28.0716C231.342 28.0716 231.918 28.1666 232.387 28.3566C232.856 28.534 233.236 28.7684 233.527 29.0598C233.831 29.3385 234.066 29.6362 234.23 29.9529H234.458V24.2708H235.599V37.5735H234.496V35.8821H234.268C234.002 36.3889 233.584 36.845 233.014 37.2504C232.457 37.6431 231.671 37.8395 230.658 37.8395ZM230.924 36.8133C231.975 36.8133 232.824 36.4776 233.47 35.8061C234.129 35.1346 234.458 34.2098 234.458 33.0316V32.8795C234.458 31.7013 234.129 30.7764 233.47 30.105C232.824 29.4335 231.975 29.0978 230.924 29.0978C229.885 29.0978 229.036 29.4335 228.377 30.105C227.718 30.7764 227.389 31.7013 227.389 32.8795V33.0316C227.389 34.2098 227.718 35.1346 228.377 35.8061C229.036 36.4776 229.885 36.8133 230.924 36.8133ZM247.197 37.5735C246.702 37.5735 246.329 37.4468 246.075 37.1934C245.835 36.94 245.714 36.5853 245.714 36.1292V29.3638H242.75V28.3376H245.714V24.8789H246.854V28.3376H250.085V29.3638H246.854V35.9771C246.854 36.3572 247.044 36.5473 247.425 36.5473H249.591V37.5735H247.197ZM252.63 37.5735V24.2708H253.77V29.9529H253.998C254.15 29.6489 254.359 29.3638 254.625 29.0978C254.904 28.8191 255.259 28.5973 255.69 28.4326C256.133 28.2553 256.684 28.1666 257.343 28.1666C258.014 28.1666 258.629 28.306 259.186 28.5847C259.744 28.8634 260.187 29.2815 260.517 29.8389C260.859 30.3964 261.03 31.0995 261.03 31.9483V37.5735H259.889V32.0244C259.889 31.0108 259.636 30.2887 259.129 29.8579C258.622 29.4145 257.945 29.1928 257.096 29.1928C256.146 29.1928 255.354 29.5032 254.72 30.124C254.087 30.7448 253.77 31.6886 253.77 32.9555V37.5735H252.63ZM268.523 37.8395C267.573 37.8395 266.743 37.6431 266.033 37.2504C265.337 36.845 264.792 36.2812 264.399 35.5591C264.006 34.8369 263.81 34.0071 263.81 33.0696V32.8415C263.81 31.8913 264.006 31.0615 264.399 30.352C264.792 29.6299 265.33 29.0724 266.014 28.6797C266.711 28.2743 267.503 28.0716 268.39 28.0716C269.251 28.0716 270.012 28.2553 270.67 28.6227C271.342 28.9774 271.868 29.4969 272.248 30.181C272.628 30.8525 272.818 31.657 272.818 32.5945V33.2026H264.95C264.988 34.3555 265.337 35.2487 265.995 35.8821C266.667 36.5029 267.509 36.8133 268.523 36.8133C269.384 36.8133 270.05 36.6169 270.518 36.2242C271 35.8315 271.367 35.35 271.621 34.7799L272.647 35.236C272.457 35.6541 272.191 36.0658 271.849 36.4712C271.519 36.864 271.088 37.1934 270.556 37.4594C270.024 37.7128 269.346 37.8395 268.523 37.8395ZM264.969 32.2144H271.659C271.608 31.2135 271.285 30.447 270.689 29.9149C270.094 29.3702 269.327 29.0978 268.39 29.0978C267.465 29.0978 266.699 29.3702 266.09 29.9149C265.482 30.447 265.109 31.2135 264.969 32.2144ZM282.043 37.5735L279.953 28.3376H281.131L282.956 36.8133H283.184L285.559 28.3376H287.498L289.873 36.8133H290.101L291.925 28.3376H293.104L291.013 37.5735H289.018L286.642 29.0978H286.414L284.039 37.5735H282.043ZM298.48 37.8395C297.834 37.8395 297.245 37.7318 296.712 37.5165C296.193 37.2884 295.781 36.959 295.477 36.5283C295.173 36.0975 295.021 35.5781 295.021 34.9699C295.021 34.3492 295.173 33.8361 295.477 33.4306C295.781 33.0252 296.193 32.7212 296.712 32.5185C297.232 32.3158 297.808 32.2144 298.442 32.2144H301.824V31.4733C301.824 30.7258 301.609 30.143 301.178 29.7249C300.748 29.3068 300.12 29.0978 299.297 29.0978C298.486 29.0978 297.84 29.3005 297.359 29.7059C296.89 30.0986 296.573 30.6308 296.408 31.3022L295.306 30.9792C295.458 30.4344 295.699 29.9466 296.028 29.5159C296.358 29.0724 296.795 28.724 297.34 28.4707C297.884 28.2046 298.537 28.0716 299.297 28.0716C300.463 28.0716 301.362 28.3756 301.996 28.9838C302.642 29.5919 302.965 30.4407 302.965 31.5303V36.0152C302.965 36.3952 303.142 36.5853 303.497 36.5853H304.39V37.5735H303.174C302.781 37.5735 302.471 37.4594 302.243 37.2314C302.015 36.9907 301.901 36.6676 301.901 36.2622V36.1292H301.71C301.546 36.4079 301.33 36.6803 301.064 36.9463C300.811 37.2124 300.475 37.4278 300.057 37.5925C299.639 37.7572 299.113 37.8395 298.48 37.8395ZM298.556 36.8133C299.531 36.8133 300.317 36.5219 300.912 35.9391C301.52 35.3437 301.824 34.5075 301.824 33.4306V33.2026H298.461C297.802 33.2026 297.251 33.3483 296.807 33.6397C296.377 33.9184 296.161 34.3555 296.161 34.9509C296.161 35.5464 296.383 36.0088 296.827 36.3382C297.283 36.6549 297.859 36.8133 298.556 36.8133ZM307.497 41.3742V40.348H312.894C313.274 40.348 313.464 40.158 313.464 39.7779V35.9771H313.236C313.084 36.2812 312.869 36.5726 312.59 36.8513C312.324 37.1174 311.969 37.3391 311.526 37.5165C311.095 37.6812 310.55 37.7635 309.892 37.7635C309.233 37.7635 308.618 37.6241 308.048 37.3454C307.491 37.0667 307.041 36.6486 306.699 36.0912C306.37 35.5337 306.205 34.8306 306.205 33.9818V28.3376H307.345V33.9057C307.345 34.9066 307.598 35.6287 308.105 36.0722C308.612 36.5156 309.29 36.7373 310.139 36.7373C311.089 36.7373 311.881 36.4269 312.514 35.8061C313.148 35.1853 313.464 34.2415 313.464 32.9746V28.3376H314.605V39.9299C314.605 40.386 314.478 40.7408 314.224 40.9941C313.984 41.2475 313.616 41.3742 313.122 41.3742H307.497ZM326.2 37.5735C325.705 37.5735 325.332 37.4468 325.078 37.1934C324.838 36.94 324.717 36.5853 324.717 36.1292V29.3638H321.753V28.3376H324.717V24.8789H325.857V28.3376H329.088V29.3638H325.857V35.9771C325.857 36.3572 326.047 36.5473 326.428 36.5473H328.594V37.5735H326.2ZM335.518 37.8395C334.58 37.8395 333.757 37.6431 333.047 37.2504C332.35 36.845 331.806 36.2875 331.413 35.5781C331.033 34.8559 330.843 34.0198 330.843 33.0696V32.8415C330.843 31.8913 331.033 31.0615 331.413 30.352C331.806 29.6299 332.35 29.0724 333.047 28.6797C333.757 28.2743 334.58 28.0716 335.518 28.0716C336.455 28.0716 337.272 28.2743 337.969 28.6797C338.679 29.0724 339.223 29.6299 339.604 30.352C339.996 31.0615 340.193 31.8913 340.193 32.8415V33.0696C340.193 34.0198 339.996 34.8559 339.604 35.5781C339.223 36.2875 338.679 36.845 337.969 37.2504C337.272 37.6431 336.455 37.8395 335.518 37.8395ZM335.518 36.8133C336.607 36.8133 337.469 36.4712 338.102 35.7871C338.736 35.0903 339.052 34.1718 339.052 33.0316V32.8795C339.052 31.7393 338.736 30.8271 338.102 30.143C337.469 29.4462 336.607 29.0978 335.518 29.0978C334.441 29.0978 333.579 29.4462 332.933 30.143C332.3 30.8271 331.983 31.7393 331.983 32.8795V33.0316C331.983 34.1718 332.3 35.0903 332.933 35.7871C333.579 36.4712 334.441 36.8133 335.518 36.8133ZM350.814 37.8395C350.168 37.8395 349.579 37.7318 349.047 37.5165C348.528 37.2884 348.116 36.959 347.812 36.5283C347.508 36.0975 347.356 35.5781 347.356 34.9699C347.356 34.3492 347.508 33.8361 347.812 33.4306C348.116 33.0252 348.528 32.7212 349.047 32.5185C349.567 32.3158 350.143 32.2144 350.776 32.2144H354.159V31.4733C354.159 30.7258 353.944 30.143 353.513 29.7249C353.082 29.3068 352.455 29.0978 351.632 29.0978C350.821 29.0978 350.175 29.3005 349.693 29.7059C349.224 30.0986 348.908 30.6308 348.743 31.3022L347.641 30.9792C347.793 30.4344 348.034 29.9466 348.363 29.5159C348.692 29.0724 349.129 28.724 349.674 28.4707C350.219 28.2046 350.871 28.0716 351.632 28.0716C352.797 28.0716 353.697 28.3756 354.33 28.9838C354.976 29.5919 355.299 30.4407 355.299 31.5303V36.0152C355.299 36.3952 355.477 36.5853 355.831 36.5853H356.725V37.5735H355.508C355.116 37.5735 354.805 37.4594 354.577 37.2314C354.349 36.9907 354.235 36.6676 354.235 36.2622V36.1292H354.045C353.88 36.4079 353.665 36.6803 353.399 36.9463C353.146 37.2124 352.81 37.4278 352.392 37.5925C351.974 37.7572 351.448 37.8395 350.814 37.8395ZM350.89 36.8133C351.866 36.8133 352.651 36.5219 353.247 35.9391C353.855 35.3437 354.159 34.5075 354.159 33.4306V33.2026H350.795C350.137 33.2026 349.586 33.3483 349.142 33.6397C348.711 33.9184 348.496 34.3555 348.496 34.9509C348.496 35.5464 348.718 36.0088 349.161 36.3382C349.617 36.6549 350.194 36.8133 350.89 36.8133ZM363.339 32.9936V32.7655C363.339 31.79 363.535 30.9538 363.928 30.257C364.333 29.5602 364.872 29.0218 365.543 28.6417C366.214 28.2616 366.962 28.0716 367.785 28.0716C368.799 28.0716 369.584 28.2743 370.142 28.6797C370.712 29.0724 371.13 29.5222 371.396 30.029H371.624V28.3376H372.688V39.9299C372.688 40.386 372.568 40.7408 372.327 40.9941C372.087 41.2475 371.719 41.3742 371.225 41.3742H364.916V40.348H370.997C371.39 40.348 371.586 40.158 371.586 39.7779V35.8061H371.358C371.193 36.1102 370.959 36.4079 370.655 36.6993C370.364 36.9907 369.984 37.2314 369.515 37.4214C369.046 37.5988 368.47 37.6875 367.785 37.6875C366.962 37.6875 366.208 37.4975 365.524 37.1174C364.853 36.7373 364.32 36.1989 363.928 35.5021C363.535 34.7926 363.339 33.9564 363.339 32.9936ZM368.051 36.6613C369.103 36.6613 369.952 36.3319 370.598 35.6731C371.257 35.0143 371.586 34.1084 371.586 32.9555V32.8035C371.586 31.638 371.257 30.7321 370.598 30.086C369.952 29.4272 369.103 29.0978 368.051 29.0978C367.013 29.0978 366.164 29.4272 365.505 30.086C364.846 30.7321 364.517 31.638 364.517 32.8035V32.9555C364.517 34.1084 364.846 35.0143 365.505 35.6731C366.164 36.3319 367.013 36.6613 368.051 36.6613ZM376.025 37.5735V28.3376H377.127V29.4969H377.355C377.532 29.0788 377.792 28.7747 378.134 28.5847C378.489 28.3946 378.977 28.2996 379.597 28.2996H380.681V29.3638H379.464C378.767 29.3638 378.21 29.5602 377.792 29.9529C377.374 30.3457 377.165 30.9602 377.165 31.7963V37.5735H376.025ZM386.924 37.8395C385.987 37.8395 385.163 37.6431 384.454 37.2504C383.757 36.845 383.212 36.2875 382.82 35.5781C382.44 34.8559 382.25 34.0198 382.25 33.0696V32.8415C382.25 31.8913 382.44 31.0615 382.82 30.352C383.212 29.6299 383.757 29.0724 384.454 28.6797C385.163 28.2743 385.987 28.0716 386.924 28.0716C387.862 28.0716 388.679 28.2743 389.376 28.6797C390.085 29.0724 390.63 29.6299 391.01 30.352C391.403 31.0615 391.599 31.8913 391.599 32.8415V33.0696C391.599 34.0198 391.403 34.8559 391.01 35.5781C390.63 36.2875 390.085 36.845 389.376 37.2504C388.679 37.6431 387.862 37.8395 386.924 37.8395ZM386.924 36.8133C388.014 36.8133 388.876 36.4712 389.509 35.7871C390.142 35.0903 390.459 34.1718 390.459 33.0316V32.8795C390.459 31.7393 390.142 30.8271 389.509 30.143C388.876 29.4462 388.014 29.0978 386.924 29.0978C385.848 29.0978 384.986 29.4462 384.34 30.143C383.706 30.8271 383.39 31.7393 383.39 32.8795V33.0316C383.39 34.1718 383.706 35.0903 384.34 35.7871C384.986 36.4712 385.848 36.8133 386.924 36.8133ZM398.044 37.7635C397.385 37.7635 396.771 37.6241 396.201 37.3454C395.643 37.0667 395.193 36.6486 394.851 36.0912C394.522 35.5211 394.357 34.8116 394.357 33.9627V28.3376H395.497V33.8867C395.497 34.8876 395.751 35.6161 396.258 36.0722C396.764 36.5156 397.442 36.7373 398.291 36.7373C399.241 36.7373 400.033 36.4269 400.666 35.8061C401.3 35.1727 401.617 34.2225 401.617 32.9555V28.3376H402.757V37.5735H401.655V35.8631H401.427C401.199 36.3572 400.825 36.8006 400.305 37.1934C399.786 37.5735 399.032 37.7635 398.044 37.7635ZM406.108 37.5735V28.3376H407.21V30.048H407.438C407.666 29.5539 408.04 29.1168 408.559 28.7367C409.079 28.344 409.832 28.1476 410.821 28.1476C411.492 28.1476 412.107 28.287 412.664 28.5657C413.221 28.8444 413.665 29.2688 413.994 29.8389C414.336 30.3964 414.507 31.0995 414.507 31.9483V37.5735H413.367V32.0244C413.367 31.0108 413.114 30.2823 412.607 29.8389C412.1 29.3955 411.422 29.1738 410.574 29.1738C409.623 29.1738 408.832 29.4905 408.198 30.124C407.565 30.7448 407.248 31.6886 407.248 32.9555V37.5735H406.108ZM421.735 37.8395C420.911 37.8395 420.164 37.6495 419.492 37.2694C418.821 36.8767 418.282 36.3256 417.877 35.6161C417.484 34.8939 417.288 34.0451 417.288 33.0696V32.8415C417.288 31.866 417.484 31.0235 417.877 30.314C418.27 29.5919 418.802 29.0408 419.473 28.6607C420.157 28.2679 420.911 28.0716 421.735 28.0716C422.419 28.0716 422.995 28.1666 423.464 28.3566C423.933 28.534 424.313 28.7684 424.604 29.0598C424.908 29.3385 425.143 29.6362 425.307 29.9529H425.535V24.2708H426.676V37.5735H425.573V35.8821H425.345C425.079 36.3889 424.661 36.845 424.091 37.2504C423.534 37.6431 422.748 37.8395 421.735 37.8395ZM422.001 36.8133C423.052 36.8133 423.901 36.4776 424.547 35.8061C425.206 35.1346 425.535 34.2098 425.535 33.0316V32.8795C425.535 31.7013 425.206 30.7764 424.547 30.105C423.901 29.4335 423.052 29.0978 422.001 29.0978C420.962 29.0978 420.113 29.4335 419.454 30.105C418.795 30.7764 418.466 31.7013 418.466 32.8795V33.0316C418.466 34.2098 418.795 35.1346 419.454 35.8061C420.113 36.4776 420.962 36.8133 422.001 36.8133ZM434.97 37.8395C433.957 37.8395 433.165 37.6431 432.595 37.2504C432.038 36.845 431.626 36.3889 431.36 35.8821H431.132V37.5735H430.029V24.2708H431.17V29.9529H431.398C431.562 29.6362 431.79 29.3385 432.082 29.0598C432.386 28.7684 432.772 28.534 433.241 28.3566C433.723 28.1666 434.299 28.0716 434.97 28.0716C435.807 28.0716 436.56 28.2679 437.232 28.6607C437.903 29.0408 438.435 29.5919 438.828 30.314C439.221 31.0235 439.417 31.866 439.417 32.8415V33.0696C439.417 34.0451 439.215 34.8939 438.809 35.6161C438.416 36.3256 437.884 36.8767 437.213 37.2694C436.541 37.6495 435.794 37.8395 434.97 37.8395ZM434.704 36.8133C435.756 36.8133 436.605 36.4776 437.251 35.8061C437.91 35.1346 438.239 34.2098 438.239 33.0316V32.8795C438.239 31.7013 437.91 30.7764 437.251 30.105C436.605 29.4335 435.756 29.0978 434.704 29.0978C433.666 29.0978 432.817 29.4335 432.158 30.105C431.499 30.7764 431.17 31.7013 431.17 32.8795V33.0316C431.17 34.2098 431.499 35.1346 432.158 35.8061C432.817 36.4776 433.666 36.8133 434.704 36.8133ZM442.315 37.5735V28.3376H443.417V29.4969H443.645C443.823 29.0788 444.082 28.7747 444.425 28.5847C444.779 28.3946 445.267 28.2996 445.888 28.2996H446.971V29.3638H445.755C445.058 29.3638 444.501 29.5602 444.082 29.9529C443.664 30.3457 443.455 30.9602 443.455 31.7963V37.5735H442.315ZM453.253 37.8395C452.303 37.8395 451.473 37.6431 450.763 37.2504C450.067 36.845 449.522 36.2812 449.129 35.5591C448.736 34.8369 448.54 34.0071 448.54 33.0696V32.8415C448.54 31.8913 448.736 31.0615 449.129 30.352C449.522 29.6299 450.06 29.0724 450.744 28.6797C451.441 28.2743 452.233 28.0716 453.12 28.0716C453.981 28.0716 454.742 28.2553 455.4 28.6227C456.072 28.9774 456.598 29.4969 456.978 30.181C457.358 30.8525 457.548 31.657 457.548 32.5945V33.2026H449.68C449.718 34.3555 450.067 35.2487 450.725 35.8821C451.397 36.5029 452.239 36.8133 453.253 36.8133C454.114 36.8133 454.78 36.6169 455.248 36.2242C455.73 35.8315 456.097 35.35 456.351 34.7799L457.377 35.236C457.187 35.6541 456.921 36.0658 456.579 36.4712C456.249 36.864 455.818 37.1934 455.286 37.4594C454.754 37.7128 454.076 37.8395 453.253 37.8395ZM449.699 32.2144H456.389C456.338 31.2135 456.015 30.447 455.419 29.9149C454.824 29.3702 454.057 29.0978 453.12 29.0978C452.195 29.0978 451.429 29.3702 450.821 29.9149C450.212 30.447 449.839 31.2135 449.699 32.2144ZM463.185 37.8395C462.539 37.8395 461.95 37.7318 461.418 37.5165C460.899 37.2884 460.487 36.959 460.183 36.5283C459.879 36.0975 459.727 35.5781 459.727 34.9699C459.727 34.3492 459.879 33.8361 460.183 33.4306C460.487 33.0252 460.899 32.7212 461.418 32.5185C461.938 32.3158 462.514 32.2144 463.147 32.2144H466.53V31.4733C466.53 30.7258 466.315 30.143 465.884 29.7249C465.453 29.3068 464.826 29.0978 464.003 29.0978C463.192 29.0978 462.546 29.3005 462.064 29.7059C461.595 30.0986 461.279 30.6308 461.114 31.3022L460.012 30.9792C460.164 30.4344 460.405 29.9466 460.734 29.5159C461.063 29.0724 461.5 28.724 462.045 28.4707C462.59 28.2046 463.242 28.0716 464.003 28.0716C465.168 28.0716 466.068 28.3756 466.701 28.9838C467.347 29.5919 467.67 30.4407 467.67 31.5303V36.0152C467.67 36.3952 467.848 36.5853 468.202 36.5853H469.096V37.5735H467.879C467.487 37.5735 467.176 37.4594 466.948 37.2314C466.72 36.9907 466.606 36.6676 466.606 36.2622V36.1292H466.416C466.251 36.4079 466.036 36.6803 465.77 36.9463C465.517 37.2124 465.181 37.4278 464.763 37.5925C464.345 37.7572 463.819 37.8395 463.185 37.8395ZM463.261 36.8133C464.237 36.8133 465.022 36.5219 465.618 35.9391C466.226 35.3437 466.53 34.5075 466.53 33.4306V33.2026H463.166C462.508 33.2026 461.957 33.3483 461.513 33.6397C461.082 33.9184 460.867 34.3555 460.867 34.9509C460.867 35.5464 461.089 36.0088 461.532 36.3382C461.988 36.6549 462.565 36.8133 463.261 36.8133ZM471.266 37.5735V24.2708H472.406V32.2904H472.634L477.366 28.3376H479.039L473.566 32.8415L479.191 37.5735H477.537L472.634 33.4116H472.406V37.5735H471.266ZM481.288 37.5735V28.3376H482.428V37.5735H481.288ZM481.858 26.7413C481.579 26.7413 481.345 26.6463 481.155 26.4563C480.965 26.2662 480.87 26.0318 480.87 25.7531C480.87 25.4617 480.965 25.2273 481.155 25.05C481.345 24.8599 481.579 24.7649 481.858 24.7649C482.149 24.7649 482.384 24.8599 482.561 25.05C482.751 25.2273 482.846 25.4617 482.846 25.7531C482.846 26.0318 482.751 26.2662 482.561 26.4563C482.384 26.6463 482.149 26.7413 481.858 26.7413ZM485.779 37.5735V28.3376H486.881V30.048H487.109C487.337 29.5539 487.711 29.1168 488.23 28.7367C488.75 28.344 489.504 28.1476 490.492 28.1476C491.163 28.1476 491.778 28.287 492.335 28.5657C492.893 28.8444 493.336 29.2688 493.665 29.8389C494.007 30.3964 494.179 31.0995 494.179 31.9483V37.5735H493.038V32.0244C493.038 31.0108 492.785 30.2823 492.278 29.8389C491.771 29.3955 491.094 29.1738 490.245 29.1738C489.295 29.1738 488.503 29.4905 487.869 30.124C487.236 30.7448 486.919 31.6886 486.919 32.9555V37.5735H485.779ZM496.959 32.9936V32.7655C496.959 31.79 497.155 30.9538 497.548 30.257C497.953 29.5602 498.492 29.0218 499.163 28.6417C499.835 28.2616 500.582 28.0716 501.406 28.0716C502.419 28.0716 503.205 28.2743 503.762 28.6797C504.332 29.0724 504.75 29.5222 505.016 30.029H505.245V28.3376H506.309V39.9299C506.309 40.386 506.188 40.7408 505.948 40.9941C505.707 41.2475 505.34 41.3742 504.845 41.3742H498.536V40.348H504.617C505.01 40.348 505.206 40.158 505.206 39.7779V35.8061H504.978C504.814 36.1102 504.579 36.4079 504.275 36.6993C503.984 36.9907 503.604 37.2314 503.135 37.4214C502.666 37.5988 502.09 37.6875 501.406 37.6875C500.582 37.6875 499.828 37.4975 499.144 37.1174C498.473 36.7373 497.941 36.1989 497.548 35.5021C497.155 34.7926 496.959 33.9564 496.959 32.9936ZM501.672 36.6613C502.723 36.6613 503.572 36.3319 504.218 35.6731C504.877 35.0143 505.206 34.1084 505.206 32.9555V32.8035C505.206 31.638 504.877 30.7321 504.218 30.086C503.572 29.4272 502.723 29.0978 501.672 29.0978C500.633 29.0978 499.784 29.4272 499.125 30.086C498.466 30.7321 498.137 31.638 498.137 32.8035V32.9555C498.137 34.1084 498.466 35.0143 499.125 35.6731C499.784 36.3319 500.633 36.6613 501.672 36.6613ZM517.889 37.5735C517.395 37.5735 517.021 37.4468 516.768 37.1934C516.527 36.94 516.407 36.5853 516.407 36.1292V29.3638H513.442V28.3376H516.407V24.8789H517.547V28.3376H520.778V29.3638H517.547V35.9771C517.547 36.3572 517.737 36.5473 518.117 36.5473H520.283V37.5735H517.889ZM527.207 37.8395C526.27 37.8395 525.446 37.6431 524.737 37.2504C524.04 36.845 523.495 36.2875 523.102 35.5781C522.722 34.8559 522.532 34.0198 522.532 33.0696V32.8415C522.532 31.8913 522.722 31.0615 523.102 30.352C523.495 29.6299 524.04 29.0724 524.737 28.6797C525.446 28.2743 526.27 28.0716 527.207 28.0716C528.145 28.0716 528.962 28.2743 529.659 28.6797C530.368 29.0724 530.913 29.6299 531.293 30.352C531.686 31.0615 531.882 31.8913 531.882 32.8415V33.0696C531.882 34.0198 531.686 34.8559 531.293 35.5781C530.913 36.2875 530.368 36.845 529.659 37.2504C528.962 37.6431 528.145 37.8395 527.207 37.8395ZM527.207 36.8133C528.297 36.8133 529.158 36.4712 529.792 35.7871C530.425 35.0903 530.742 34.1718 530.742 33.0316V32.8795C530.742 31.7393 530.425 30.8271 529.792 30.143C529.158 29.4462 528.297 29.0978 527.207 29.0978C526.13 29.0978 525.269 29.4462 524.623 30.143C523.989 30.8271 523.673 31.7393 523.673 32.8795V33.0316C523.673 34.1718 523.989 35.0903 524.623 35.7871C525.269 36.4712 526.13 36.8133 527.207 36.8133ZM534.773 37.5735V28.3376H535.875V29.5539H536.103C536.293 29.2118 536.597 28.8951 537.015 28.6037C537.433 28.2996 538.029 28.1476 538.802 28.1476C539.549 28.1476 540.151 28.3186 540.607 28.6607C541.076 29.0028 541.412 29.4145 541.614 29.8959H541.842C542.058 29.4145 542.393 29.0028 542.85 28.6607C543.306 28.3186 543.945 28.1476 544.769 28.1476C545.402 28.1476 545.954 28.2806 546.422 28.5467C546.891 28.8001 547.258 29.1611 547.525 29.6299C547.791 30.086 547.924 30.6244 547.924 31.2452V37.5735H546.783V31.3592C546.783 30.7004 546.581 30.1747 546.175 29.7819C545.782 29.3765 545.225 29.1738 544.503 29.1738C543.768 29.1738 543.154 29.4145 542.66 29.8959C542.165 30.3647 541.918 31.0552 541.918 31.9674V37.5735H540.778V31.3592C540.778 30.7004 540.575 30.1747 540.17 29.7819C539.777 29.3765 539.22 29.1738 538.498 29.1738C537.763 29.1738 537.148 29.4145 536.654 29.8959C536.16 30.3647 535.913 31.0552 535.913 31.9674V37.5735H534.773ZM555.379 37.8395C554.441 37.8395 553.618 37.6431 552.908 37.2504C552.212 36.845 551.667 36.2875 551.274 35.5781C550.894 34.8559 550.704 34.0198 550.704 33.0696V32.8415C550.704 31.8913 550.894 31.0615 551.274 30.352C551.667 29.6299 552.212 29.0724 552.908 28.6797C553.618 28.2743 554.441 28.0716 555.379 28.0716C556.316 28.0716 557.134 28.2743 557.83 28.6797C558.54 29.0724 559.085 29.6299 559.465 30.352C559.857 31.0615 560.054 31.8913 560.054 32.8415V33.0696C560.054 34.0198 559.857 34.8559 559.465 35.5781C559.085 36.2875 558.54 36.845 557.83 37.2504C557.134 37.6431 556.316 37.8395 555.379 37.8395ZM555.379 36.8133C556.468 36.8133 557.33 36.4712 557.963 35.7871C558.597 35.0903 558.914 34.1718 558.914 33.0316V32.8795C558.914 31.7393 558.597 30.8271 557.963 30.143C557.33 29.4462 556.468 29.0978 555.379 29.0978C554.302 29.0978 553.44 29.4462 552.794 30.143C552.161 30.8271 551.844 31.7393 551.844 32.8795V33.0316C551.844 34.1718 552.161 35.0903 552.794 35.7871C553.44 36.4712 554.302 36.8133 555.379 36.8133ZM562.945 37.5735V28.3376H564.047V29.4969H564.275C564.452 29.0788 564.712 28.7747 565.054 28.5847C565.409 28.3946 565.897 28.2996 566.517 28.2996H567.601V29.3638H566.384C565.687 29.3638 565.13 29.5602 564.712 29.9529C564.294 30.3457 564.085 30.9602 564.085 31.7963V37.5735H562.945ZM569.96 37.5735V28.3376H571.062V29.4969H571.29C571.467 29.0788 571.727 28.7747 572.069 28.5847C572.424 28.3946 572.912 28.2996 573.532 28.2996H574.616V29.3638H573.399C572.703 29.3638 572.145 29.5602 571.727 29.9529C571.309 30.3457 571.1 30.9602 571.1 31.7963V37.5735H569.96ZM580.86 37.8395C579.922 37.8395 579.098 37.6431 578.389 37.2504C577.692 36.845 577.147 36.2875 576.755 35.5781C576.375 34.8559 576.185 34.0198 576.185 33.0696V32.8415C576.185 31.8913 576.375 31.0615 576.755 30.352C577.147 29.6299 577.692 29.0724 578.389 28.6797C579.098 28.2743 579.922 28.0716 580.86 28.0716C581.797 28.0716 582.614 28.2743 583.311 28.6797C584.02 29.0724 584.565 29.6299 584.945 30.352C585.338 31.0615 585.534 31.8913 585.534 32.8415V33.0696C585.534 34.0198 585.338 34.8559 584.945 35.5781C584.565 36.2875 584.02 36.845 583.311 37.2504C582.614 37.6431 581.797 37.8395 580.86 37.8395ZM580.86 36.8133C581.949 36.8133 582.811 36.4712 583.444 35.7871C584.077 35.0903 584.394 34.1718 584.394 33.0316V32.8795C584.394 31.7393 584.077 30.8271 583.444 30.143C582.811 29.4462 581.949 29.0978 580.86 29.0978C579.783 29.0978 578.921 29.4462 578.275 30.143C577.642 30.8271 577.325 31.7393 577.325 32.8795V33.0316C577.325 34.1718 577.642 35.0903 578.275 35.7871C578.921 36.4712 579.783 36.8133 580.86 36.8133ZM589.704 37.5735L587.614 28.3376H588.792L590.616 36.8133H590.845L593.22 28.3376H595.158L597.534 36.8133H597.762L599.586 28.3376H600.764L598.674 37.5735H596.679L594.303 29.0978H594.075L591.7 37.5735H589.704ZM603.526 37.8395C603.209 37.8395 602.95 37.7382 602.747 37.5355C602.544 37.3328 602.443 37.073 602.443 36.7563C602.443 36.4396 602.544 36.1799 602.747 35.9771C602.95 35.7744 603.209 35.6731 603.526 35.6731C603.843 35.6731 604.103 35.7744 604.305 35.9771C604.508 36.1799 604.609 36.4396 604.609 36.7563C604.609 37.073 604.508 37.3328 604.305 37.5355C604.103 37.7382 603.843 37.8395 603.526 37.8395Z" fill="#1C1C1C"/>
<path d="M238.762 13.8347C237.913 13.8347 237.26 13.689 236.804 13.3977C236.348 13.1063 236.012 12.7832 235.797 12.4285H235.455V13.5687H233.099V0.266046H235.493V5.22603H235.835C235.974 4.99799 236.158 4.78261 236.386 4.5799C236.627 4.3772 236.937 4.2125 237.317 4.08581C237.71 3.94644 238.192 3.87676 238.762 3.87676C239.522 3.87676 240.225 4.0668 240.871 4.44688C241.517 4.81428 242.037 5.35906 242.429 6.0812C242.822 6.80335 243.018 7.67752 243.018 8.70372V9.00779C243.018 10.034 242.822 10.9082 242.429 11.6303C242.037 12.3525 241.517 12.9036 240.871 13.2836C240.225 13.651 239.522 13.8347 238.762 13.8347ZM238.04 11.7443C238.774 11.7443 239.389 11.5099 239.883 11.0412C240.377 10.5598 240.624 9.86296 240.624 8.95077V8.76074C240.624 7.84855 240.377 7.15808 239.883 6.68932C239.401 6.2079 238.787 5.96718 238.04 5.96718C237.305 5.96718 236.69 6.2079 236.196 6.68932C235.702 7.15808 235.455 7.84855 235.455 8.76074V8.95077C235.455 9.86296 235.702 10.5598 236.196 11.0412C236.69 11.5099 237.305 11.7443 238.04 11.7443ZM249.512 13.8347C248.574 13.8347 247.745 13.6384 247.022 13.2456C246.313 12.8402 245.756 12.2764 245.35 11.5543C244.957 10.8195 244.761 9.95797 244.761 8.96978V8.74173C244.761 7.75354 244.957 6.89837 245.35 6.17622C245.743 5.44141 246.294 4.87763 247.003 4.48489C247.713 4.07947 248.536 3.87676 249.474 3.87676C250.399 3.87676 251.203 4.08581 251.887 4.50389C252.572 4.9093 253.104 5.47942 253.484 6.21423C253.864 6.93637 254.054 7.77887 254.054 8.74173V9.55889H247.194C247.219 10.205 247.46 10.7308 247.916 11.1362C248.372 11.5416 248.929 11.7443 249.588 11.7443C250.259 11.7443 250.754 11.5986 251.07 11.3072C251.387 11.0159 251.628 10.6928 251.792 10.338L253.75 11.3643C253.572 11.6937 253.313 12.0547 252.971 12.4475C252.641 12.8275 252.198 13.1569 251.64 13.4357C251.083 13.7017 250.373 13.8347 249.512 13.8347ZM247.213 7.77254H251.621C251.571 7.22776 251.349 6.79068 250.956 6.46128C250.576 6.13188 250.076 5.96718 249.455 5.96718C248.809 5.96718 248.296 6.13188 247.916 6.46128C247.536 6.79068 247.301 7.22776 247.213 7.77254ZM260.613 13.8347C259.701 13.8347 258.871 13.6447 258.124 13.2646C257.389 12.8846 256.806 12.3334 256.375 11.6113C255.944 10.8892 255.729 10.015 255.729 8.98878V8.72273C255.729 7.69652 255.944 6.82235 256.375 6.10021C256.806 5.37806 257.389 4.82695 258.124 4.44688C258.871 4.0668 259.701 3.87676 260.613 3.87676C261.513 3.87676 262.285 4.03513 262.931 4.35186C263.578 4.66859 264.097 5.10568 264.49 5.66312C264.895 6.20789 265.161 6.82868 265.288 7.52549L262.969 8.01959C262.919 7.63951 262.805 7.29744 262.627 6.99338C262.45 6.68932 262.197 6.44861 261.867 6.27124C261.551 6.09387 261.151 6.00519 260.67 6.00519C260.189 6.00519 259.752 6.11288 259.359 6.32825C258.979 6.53096 258.675 6.84135 258.447 7.25944C258.231 7.66485 258.124 8.16528 258.124 8.76074V8.95077C258.124 9.54623 258.231 10.053 258.447 10.4711C258.675 10.8765 258.979 11.1869 259.359 11.4023C259.752 11.605 260.189 11.7063 260.67 11.7063C261.392 11.7063 261.937 11.5226 262.304 11.1552C262.684 10.7751 262.925 10.281 263.026 9.67292L265.345 10.224C265.18 10.8955 264.895 11.5099 264.49 12.0674C264.097 12.6122 263.578 13.0429 262.931 13.3597C262.285 13.6764 261.513 13.8347 260.613 13.8347ZM271.805 13.8347C270.868 13.8347 270.025 13.6447 269.278 13.2646C268.53 12.8846 267.941 12.3334 267.51 11.6113C267.079 10.8892 266.864 10.0213 266.864 9.00779V8.70372C266.864 7.69019 267.079 6.82235 267.51 6.10021C267.941 5.37806 268.53 4.82695 269.278 4.44688C270.025 4.0668 270.868 3.87676 271.805 3.87676C272.743 3.87676 273.585 4.0668 274.333 4.44688C275.08 4.82695 275.669 5.37806 276.1 6.10021C276.531 6.82235 276.746 7.69019 276.746 8.70372V9.00779C276.746 10.0213 276.531 10.8892 276.1 11.6113C275.669 12.3334 275.08 12.8846 274.333 13.2646C273.585 13.6447 272.743 13.8347 271.805 13.8347ZM271.805 11.7063C272.54 11.7063 273.148 11.4719 273.629 11.0032C274.111 10.5218 274.352 9.83762 274.352 8.95077V8.76074C274.352 7.87389 274.111 7.19609 273.629 6.72733C273.161 6.2459 272.553 6.00519 271.805 6.00519C271.07 6.00519 270.462 6.2459 269.981 6.72733C269.499 7.19609 269.259 7.87389 269.259 8.76074V8.95077C269.259 9.83762 269.499 10.5218 269.981 11.0032C270.462 11.4719 271.07 11.7063 271.805 11.7063ZM278.956 13.5687V4.14282H281.313V5.16902H281.655C281.82 4.85229 282.092 4.5799 282.472 4.35186C282.852 4.11114 283.352 3.99079 283.973 3.99079C284.645 3.99079 285.183 4.12381 285.589 4.38987C285.994 4.64325 286.304 4.97898 286.52 5.39707H286.862C287.077 4.99165 287.381 4.65592 287.774 4.38987C288.167 4.12381 288.724 3.99079 289.446 3.99079C290.029 3.99079 290.555 4.11748 291.024 4.37086C291.505 4.61158 291.885 4.98532 292.164 5.49209C292.455 5.98618 292.601 6.61331 292.601 7.37346V13.5687H290.207V7.54449C290.207 7.02506 290.073 6.63865 289.807 6.38526C289.541 6.11921 289.168 5.98618 288.686 5.98618C288.141 5.98618 287.717 6.16355 287.413 6.51829C287.122 6.86036 286.976 7.35446 286.976 8.00058V13.5687H284.581V7.54449C284.581 7.02506 284.448 6.63865 284.182 6.38526C283.916 6.11921 283.543 5.98618 283.061 5.98618C282.516 5.98618 282.092 6.16355 281.788 6.51829C281.496 6.86036 281.351 7.35446 281.351 8.00058V13.5687H278.956ZM299.471 13.8347C298.534 13.8347 297.704 13.6384 296.982 13.2456C296.272 12.8402 295.715 12.2764 295.309 11.5543C294.917 10.8195 294.72 9.95797 294.72 8.96978V8.74173C294.72 7.75354 294.917 6.89837 295.309 6.17622C295.702 5.44141 296.253 4.87763 296.963 4.48489C297.672 4.07947 298.496 3.87676 299.433 3.87676C300.358 3.87676 301.162 4.08581 301.847 4.50389C302.531 4.9093 303.063 5.47942 303.443 6.21423C303.823 6.93637 304.013 7.77887 304.013 8.74173V9.55889H297.153C297.178 10.205 297.419 10.7308 297.875 11.1362C298.331 11.5416 298.888 11.7443 299.547 11.7443C300.219 11.7443 300.713 11.5986 301.029 11.3072C301.346 11.0159 301.587 10.6928 301.752 10.338L303.709 11.3643C303.532 11.6937 303.272 12.0547 302.93 12.4475C302.6 12.8275 302.157 13.1569 301.6 13.4357C301.042 13.7017 300.333 13.8347 299.471 13.8347ZM297.172 7.77254H301.581C301.53 7.22776 301.308 6.79068 300.915 6.46128C300.535 6.13188 300.035 5.96718 299.414 5.96718C298.768 5.96718 298.255 6.13188 297.875 6.46128C297.495 6.79068 297.26 7.22776 297.172 7.77254ZM313.896 13.8347C313.225 13.8347 312.623 13.7207 312.091 13.4927C311.559 13.252 311.134 12.9099 310.817 12.4665C310.513 12.0104 310.361 11.4593 310.361 10.8131C310.361 10.167 310.513 9.62858 310.817 9.19782C311.134 8.7544 311.565 8.425 312.11 8.20963C312.667 7.98158 313.301 7.86756 314.01 7.86756H316.595V7.33545C316.595 6.89203 316.455 6.53096 316.177 6.25224C315.898 5.96085 315.454 5.81515 314.846 5.81515C314.251 5.81515 313.807 5.95451 313.516 6.23323C313.225 6.49929 313.035 6.84769 312.946 7.27844L310.741 6.53729C310.893 6.05586 311.134 5.61878 311.464 5.22603C311.806 4.82062 312.255 4.49755 312.813 4.25684C313.383 4.00346 314.073 3.87676 314.884 3.87676C316.126 3.87676 317.108 4.18716 317.83 4.80795C318.552 5.42874 318.913 6.32825 318.913 7.50649V11.0222C318.913 11.4023 319.09 11.5923 319.445 11.5923H320.205V13.5687H318.609C318.14 13.5687 317.754 13.4547 317.45 13.2266C317.146 12.9986 316.994 12.6945 316.994 12.3144V12.2954H316.633C316.582 12.4475 316.468 12.6502 316.291 12.9036C316.113 13.1443 315.834 13.3597 315.454 13.5497C315.074 13.7397 314.555 13.8347 313.896 13.8347ZM314.314 11.8964C314.986 11.8964 315.53 11.7127 315.948 11.3453C316.379 10.9652 316.595 10.4647 316.595 9.84395V9.65391H314.181C313.738 9.65391 313.389 9.74893 313.136 9.93897C312.883 10.129 312.756 10.3951 312.756 10.7371C312.756 11.0792 312.889 11.3579 313.155 11.5733C313.421 11.7887 313.807 11.8964 314.314 11.8964ZM326.781 17.3694V4.14282H329.138V5.28304H329.48C329.695 4.91564 330.031 4.59257 330.487 4.31385C330.943 4.02246 331.595 3.87676 332.444 3.87676C333.204 3.87676 333.908 4.0668 334.554 4.44688C335.2 4.81428 335.719 5.35906 336.112 6.0812C336.505 6.80335 336.701 7.67752 336.701 8.70372V9.00779C336.701 10.034 336.505 10.9082 336.112 11.6303C335.719 12.3525 335.2 12.9036 334.554 13.2836C333.908 13.651 333.204 13.8347 332.444 13.8347C331.874 13.8347 331.393 13.7651 331 13.6257C330.62 13.499 330.31 13.3343 330.069 13.1316C329.841 12.9162 329.657 12.7009 329.518 12.4855H329.176V17.3694H326.781ZM331.722 11.7443C332.47 11.7443 333.084 11.5099 333.566 11.0412C334.06 10.5598 334.307 9.86296 334.307 8.95077V8.76074C334.307 7.84855 334.06 7.15808 333.566 6.68932C333.071 6.2079 332.457 5.96718 331.722 5.96718C330.987 5.96718 330.373 6.2079 329.879 6.68932C329.385 7.15808 329.138 7.84855 329.138 8.76074V8.95077C329.138 9.86296 329.385 10.5598 329.879 11.0412C330.373 11.5099 330.987 11.7443 331.722 11.7443ZM341.826 13.8347C341.155 13.8347 340.553 13.7207 340.021 13.4927C339.489 13.252 339.065 12.9099 338.748 12.4665C338.444 12.0104 338.292 11.4593 338.292 10.8131C338.292 10.167 338.444 9.62858 338.748 9.19782C339.065 8.7544 339.495 8.425 340.04 8.20963C340.597 7.98158 341.231 7.86756 341.94 7.86756H344.525V7.33545C344.525 6.89203 344.386 6.53096 344.107 6.25224C343.828 5.96085 343.385 5.81515 342.777 5.81515C342.181 5.81515 341.738 5.95451 341.446 6.23323C341.155 6.49929 340.965 6.84769 340.876 7.27844L338.672 6.53729C338.824 6.05586 339.065 5.61878 339.394 5.22603C339.736 4.82062 340.186 4.49755 340.743 4.25684C341.313 4.00346 342.004 3.87676 342.815 3.87676C344.056 3.87676 345.038 4.18716 345.76 4.80795C346.482 5.42874 346.843 6.32825 346.843 7.50649V11.0222C346.843 11.4023 347.021 11.5923 347.376 11.5923H348.136V13.5687H346.539C346.071 13.5687 345.684 13.4547 345.38 13.2266C345.076 12.9986 344.924 12.6945 344.924 12.3144V12.2954H344.563C344.512 12.4475 344.398 12.6502 344.221 12.9036C344.044 13.1443 343.765 13.3597 343.385 13.5497C343.005 13.7397 342.485 13.8347 341.826 13.8347ZM342.244 11.8964C342.916 11.8964 343.461 11.7127 343.879 11.3453C344.31 10.9652 344.525 10.4647 344.525 9.84395V9.65391H342.111C341.668 9.65391 341.32 9.74893 341.066 9.93897C340.813 10.129 340.686 10.3951 340.686 10.7371C340.686 11.0792 340.819 11.3579 341.085 11.5733C341.351 11.7887 341.738 11.8964 342.244 11.8964ZM349.886 13.5687V4.14282H352.243V5.20703H352.585C352.724 4.82695 352.952 4.54823 353.269 4.37086C353.598 4.19349 353.979 4.10481 354.409 4.10481H355.55V6.23323H354.371C353.763 6.23323 353.263 6.39793 352.87 6.72733C352.477 7.04406 352.281 7.53816 352.281 8.20963V13.5687H349.886ZM361.032 13.5687C360.411 13.5687 359.904 13.3787 359.512 12.9986C359.131 12.6058 358.941 12.0864 358.941 11.4403V6.11921H356.585V4.14282H358.941V1.21624H361.336V4.14282H363.92V6.11921H361.336V11.0222C361.336 11.4023 361.513 11.5923 361.868 11.5923H363.692V13.5687H361.032ZM375.398 13.8347C374.46 13.8347 373.618 13.6447 372.87 13.2646C372.123 12.8846 371.534 12.3334 371.103 11.6113C370.672 10.8892 370.457 10.0213 370.457 9.00779V8.70372C370.457 7.69019 370.672 6.82235 371.103 6.10021C371.534 5.37806 372.123 4.82695 372.87 4.44688C373.618 4.0668 374.46 3.87676 375.398 3.87676C376.335 3.87676 377.178 4.0668 377.925 4.44688C378.673 4.82695 379.262 5.37806 379.693 6.10021C380.124 6.82235 380.339 7.69019 380.339 8.70372V9.00779C380.339 10.0213 380.124 10.8892 379.693 11.6113C379.262 12.3334 378.673 12.8846 377.925 13.2646C377.178 13.6447 376.335 13.8347 375.398 13.8347ZM375.398 11.7063C376.133 11.7063 376.741 11.4719 377.222 11.0032C377.704 10.5218 377.944 9.83762 377.944 8.95077V8.76074C377.944 7.87389 377.704 7.19609 377.222 6.72733C376.754 6.2459 376.145 6.00519 375.398 6.00519C374.663 6.00519 374.055 6.2459 373.574 6.72733C373.092 7.19609 372.851 7.87389 372.851 8.76074V8.95077C372.851 9.83762 373.092 10.5218 373.574 11.0032C374.055 11.4719 374.663 11.7063 375.398 11.7063ZM383.792 13.5687V6.11921H381.397V4.14282H383.792V2.39447C383.792 1.74834 383.982 1.23524 384.362 0.855164C384.755 0.462419 385.262 0.266046 385.882 0.266046H388.353V2.24244H386.719C386.364 2.24244 386.186 2.43248 386.186 2.81255V4.14282H388.657V6.11921H386.186V13.5687H383.792ZM399.821 13.8347C398.883 13.8347 398.041 13.6447 397.293 13.2646C396.546 12.8846 395.957 12.3334 395.526 11.6113C395.095 10.8892 394.88 10.0213 394.88 9.00779V8.70372C394.88 7.69019 395.095 6.82235 395.526 6.10021C395.957 5.37806 396.546 4.82695 397.293 4.44688C398.041 4.0668 398.883 3.87676 399.821 3.87676C400.758 3.87676 401.601 4.0668 402.348 4.44688C403.096 4.82695 403.685 5.37806 404.116 6.10021C404.546 6.82235 404.762 7.69019 404.762 8.70372V9.00779C404.762 10.0213 404.546 10.8892 404.116 11.6113C403.685 12.3334 403.096 12.8846 402.348 13.2646C401.601 13.6447 400.758 13.8347 399.821 13.8347ZM399.821 11.7063C400.556 11.7063 401.164 11.4719 401.645 11.0032C402.127 10.5218 402.367 9.83762 402.367 8.95077V8.76074C402.367 7.87389 402.127 7.19609 401.645 6.72733C401.176 6.2459 400.568 6.00519 399.821 6.00519C399.086 6.00519 398.478 6.2459 397.996 6.72733C397.515 7.19609 397.274 7.87389 397.274 8.76074V8.95077C397.274 9.83762 397.515 10.5218 397.996 11.0032C398.478 11.4719 399.086 11.7063 399.821 11.7063ZM410.564 13.7207C409.829 13.7207 409.183 13.556 408.625 13.2266C408.081 12.8846 407.656 12.4158 407.352 11.8203C407.048 11.2249 406.896 10.5408 406.896 9.76794V4.14282H409.29V9.5779C409.29 10.2874 409.461 10.8195 409.804 11.1742C410.158 11.529 410.659 11.7063 411.305 11.7063C412.04 11.7063 412.61 11.4656 413.015 10.9842C413.421 10.4901 413.623 9.80594 413.623 8.93177V4.14282H416.018V13.5687H413.661V12.3334H413.319C413.167 12.6502 412.882 12.9606 412.464 13.2646C412.046 13.5687 411.413 13.7207 410.564 13.7207ZM418.682 13.5687V4.14282H421.039V5.20703H421.381C421.52 4.82695 421.748 4.54823 422.065 4.37086C422.394 4.19349 422.774 4.10481 423.205 4.10481H424.345V6.23323H423.167C422.559 6.23323 422.059 6.39793 421.666 6.72733C421.273 7.04406 421.077 7.53816 421.077 8.20963V13.5687H418.682ZM433.019 13.5687L430.016 4.14282H432.562L434.748 11.8203H435.09L437.275 4.14282H439.822L436.819 13.5687H433.019ZM441.453 13.5687V4.14282H443.848V13.5687H441.453ZM442.651 3.0406C442.22 3.0406 441.853 2.90124 441.548 2.62252C441.257 2.34379 441.111 1.97639 441.111 1.5203C441.111 1.06421 441.257 0.696799 441.548 0.418077C441.853 0.139355 442.22 -6.61743e-06 442.651 -6.61743e-06C443.094 -6.61743e-06 443.461 0.139355 443.753 0.418077C444.044 0.696799 444.19 1.06421 444.19 1.5203C444.19 1.97639 444.044 2.34379 443.753 2.62252C443.461 2.90124 443.094 3.0406 442.651 3.0406ZM452.164 13.8347C451.316 13.8347 450.663 13.689 450.207 13.3977C449.751 13.1063 449.415 12.7832 449.2 12.4285H448.858V13.5687H446.501V0.266046H448.896V5.22603H449.238C449.377 4.99799 449.561 4.78261 449.789 4.5799C450.03 4.3772 450.34 4.2125 450.72 4.08581C451.113 3.94644 451.594 3.87676 452.164 3.87676C452.925 3.87676 453.628 4.0668 454.274 4.44688C454.92 4.81428 455.439 5.35906 455.832 6.0812C456.225 6.80335 456.421 7.67752 456.421 8.70372V9.00779C456.421 10.034 456.225 10.9082 455.832 11.6303C455.439 12.3525 454.92 12.9036 454.274 13.2836C453.628 13.651 452.925 13.8347 452.164 13.8347ZM451.442 11.7443C452.177 11.7443 452.792 11.5099 453.286 11.0412C453.78 10.5598 454.027 9.86296 454.027 8.95077V8.76074C454.027 7.84855 453.78 7.15808 453.286 6.68932C452.804 6.2079 452.19 5.96718 451.442 5.96718C450.707 5.96718 450.093 6.2079 449.599 6.68932C449.105 7.15808 448.858 7.84855 448.858 8.76074V8.95077C448.858 9.86296 449.105 10.5598 449.599 11.0412C450.093 11.5099 450.707 11.7443 451.442 11.7443ZM458.62 13.5687V4.14282H460.976V5.20703H461.318C461.458 4.82695 461.686 4.54823 462.003 4.37086C462.332 4.19349 462.712 4.10481 463.143 4.10481H464.283V6.23323H463.105C462.497 6.23323 461.996 6.39793 461.604 6.72733C461.211 7.04406 461.014 7.53816 461.014 8.20963V13.5687H458.62ZM468.859 13.8347C468.187 13.8347 467.585 13.7207 467.053 13.4927C466.521 13.252 466.097 12.9099 465.78 12.4665C465.476 12.0104 465.324 11.4593 465.324 10.8131C465.324 10.167 465.476 9.62858 465.78 9.19782C466.097 8.7544 466.527 8.425 467.072 8.20963C467.63 7.98158 468.263 7.86756 468.973 7.86756H471.557V7.33545C471.557 6.89203 471.418 6.53096 471.139 6.25224C470.86 5.96085 470.417 5.81515 469.809 5.81515C469.213 5.81515 468.77 5.95451 468.478 6.23323C468.187 6.49929 467.997 6.84769 467.908 7.27844L465.704 6.53729C465.856 6.05586 466.097 5.61878 466.426 5.22603C466.768 4.82062 467.218 4.49755 467.775 4.25684C468.345 4.00346 469.036 3.87676 469.847 3.87676C471.088 3.87676 472.07 4.18716 472.792 4.80795C473.514 5.42874 473.876 6.32825 473.876 7.50649V11.0222C473.876 11.4023 474.053 11.5923 474.408 11.5923H475.168V13.5687H473.571C473.103 13.5687 472.716 13.4547 472.412 13.2266C472.108 12.9986 471.956 12.6945 471.956 12.3144V12.2954H471.595C471.544 12.4475 471.43 12.6502 471.253 12.9036C471.076 13.1443 470.797 13.3597 470.417 13.5497C470.037 13.7397 469.517 13.8347 468.859 13.8347ZM469.277 11.8964C469.948 11.8964 470.493 11.7127 470.911 11.3453C471.342 10.9652 471.557 10.4647 471.557 9.84395V9.65391H469.144C468.7 9.65391 468.352 9.74893 468.098 9.93897C467.845 10.129 467.718 10.3951 467.718 10.7371C467.718 11.0792 467.851 11.3579 468.117 11.5733C468.383 11.7887 468.77 11.8964 469.277 11.8964ZM476.918 13.5687V4.14282H479.275V5.37806H479.617C479.769 5.04866 480.054 4.73827 480.472 4.44688C480.89 4.14282 481.524 3.99079 482.373 3.99079C483.107 3.99079 483.747 4.16182 484.292 4.50389C484.849 4.83329 485.28 5.29571 485.584 5.89117C485.888 6.47395 486.04 7.15808 486.04 7.94357V13.5687H483.646V8.13361C483.646 7.42414 483.468 6.89203 483.114 6.53729C482.772 6.18256 482.278 6.00519 481.631 6.00519C480.897 6.00519 480.326 6.25224 479.921 6.74634C479.516 7.22776 479.313 7.90557 479.313 8.77974V13.5687H476.918ZM491.98 13.5687C491.359 13.5687 490.852 13.3787 490.459 12.9986C490.079 12.6058 489.889 12.0864 489.889 11.4403V6.11921H487.533V4.14282H489.889V1.21624H492.284V4.14282H494.868V6.11921H492.284V11.0222C492.284 11.4023 492.461 11.5923 492.816 11.5923H494.64V13.5687H491.98ZM506.289 13.8347C505.377 13.8347 504.547 13.6447 503.799 13.2646C503.065 12.8846 502.482 12.3334 502.051 11.6113C501.62 10.8892 501.405 10.015 501.405 8.98878V8.72273C501.405 7.69652 501.62 6.82235 502.051 6.10021C502.482 5.37806 503.065 4.82695 503.799 4.44688C504.547 4.0668 505.377 3.87676 506.289 3.87676C507.188 3.87676 507.961 4.03513 508.607 4.35186C509.253 4.66859 509.773 5.10568 510.166 5.66312C510.571 6.20789 510.837 6.82868 510.964 7.52549L508.645 8.01959C508.595 7.63951 508.481 7.29744 508.303 6.99338C508.126 6.68932 507.872 6.44861 507.543 6.27124C507.226 6.09387 506.827 6.00519 506.346 6.00519C505.864 6.00519 505.427 6.11288 505.035 6.32825C504.654 6.53096 504.35 6.84135 504.122 7.25944C503.907 7.66485 503.799 8.16528 503.799 8.76074V8.95077C503.799 9.54623 503.907 10.053 504.122 10.4711C504.35 10.8765 504.654 11.1869 505.035 11.4023C505.427 11.605 505.864 11.7063 506.346 11.7063C507.068 11.7063 507.613 11.5226 507.98 11.1552C508.36 10.7751 508.601 10.281 508.702 9.67292L511.021 10.224C510.856 10.8955 510.571 11.5099 510.166 12.0674C509.773 12.6122 509.253 13.0429 508.607 13.3597C507.961 13.6764 507.188 13.8347 506.289 13.8347ZM517.481 13.8347C516.543 13.8347 515.701 13.6447 514.953 13.2646C514.206 12.8846 513.617 12.3334 513.186 11.6113C512.755 10.8892 512.54 10.0213 512.54 9.00779V8.70372C512.54 7.69019 512.755 6.82235 513.186 6.10021C513.617 5.37806 514.206 4.82695 514.953 4.44688C515.701 4.0668 516.543 3.87676 517.481 3.87676C518.418 3.87676 519.261 4.0668 520.008 4.44688C520.756 4.82695 521.345 5.37806 521.776 6.10021C522.206 6.82235 522.422 7.69019 522.422 8.70372V9.00779C522.422 10.0213 522.206 10.8892 521.776 11.6113C521.345 12.3334 520.756 12.8846 520.008 13.2646C519.261 13.6447 518.418 13.8347 517.481 13.8347ZM517.481 11.7063C518.216 11.7063 518.824 11.4719 519.305 11.0032C519.787 10.5218 520.027 9.83762 520.027 8.95077V8.76074C520.027 7.87389 519.787 7.19609 519.305 6.72733C518.836 6.2459 518.228 6.00519 517.481 6.00519C516.746 6.00519 516.138 6.2459 515.656 6.72733C515.175 7.19609 514.934 7.87389 514.934 8.76074V8.95077C514.934 9.83762 515.175 10.5218 515.656 11.0032C516.138 11.4719 516.746 11.7063 517.481 11.7063ZM524.632 13.5687V4.14282H526.989V5.16902H527.331C527.495 4.85229 527.768 4.5799 528.148 4.35186C528.528 4.11114 529.028 3.99079 529.649 3.99079C530.321 3.99079 530.859 4.12381 531.264 4.38987C531.67 4.64325 531.98 4.97898 532.196 5.39707H532.538C532.753 4.99165 533.057 4.65592 533.45 4.38987C533.843 4.12381 534.4 3.99079 535.122 3.99079C535.705 3.99079 536.231 4.11748 536.699 4.37086C537.181 4.61158 537.561 4.98532 537.84 5.49209C538.131 5.98618 538.277 6.61331 538.277 7.37346V13.5687H535.882V7.54449C535.882 7.02506 535.749 6.63865 535.483 6.38526C535.217 6.11921 534.843 5.98618 534.362 5.98618C533.817 5.98618 533.393 6.16355 533.089 6.51829C532.797 6.86036 532.652 7.35446 532.652 8.00058V13.5687H530.257V7.54449C530.257 7.02506 530.124 6.63865 529.858 6.38526C529.592 6.11921 529.218 5.98618 528.737 5.98618C528.192 5.98618 527.768 6.16355 527.464 6.51829C527.172 6.86036 527.027 7.35446 527.027 8.00058V13.5687H524.632ZM540.852 13.5687V4.14282H543.209V5.16902H543.551C543.715 4.85229 543.988 4.5799 544.368 4.35186C544.748 4.11114 545.248 3.99079 545.869 3.99079C546.541 3.99079 547.079 4.12381 547.484 4.38987C547.89 4.64325 548.2 4.97898 548.416 5.39707H548.758C548.973 4.99165 549.277 4.65592 549.67 4.38987C550.063 4.12381 550.62 3.99079 551.342 3.99079C551.925 3.99079 552.451 4.11748 552.919 4.37086C553.401 4.61158 553.781 4.98532 554.06 5.49209C554.351 5.98618 554.497 6.61331 554.497 7.37346V13.5687H552.102V7.54449C552.102 7.02506 551.969 6.63865 551.703 6.38526C551.437 6.11921 551.063 5.98618 550.582 5.98618C550.037 5.98618 549.613 6.16355 549.309 6.51829C549.017 6.86036 548.872 7.35446 548.872 8.00058V13.5687H546.477V7.54449C546.477 7.02506 546.344 6.63865 546.078 6.38526C545.812 6.11921 545.438 5.98618 544.957 5.98618C544.412 5.98618 543.988 6.16355 543.684 6.51829C543.392 6.86036 543.247 7.35446 543.247 8.00058V13.5687H540.852ZM560.515 13.7207C559.781 13.7207 559.134 13.556 558.577 13.2266C558.032 12.8846 557.608 12.4158 557.304 11.8203C557 11.2249 556.848 10.5408 556.848 9.76794V4.14282H559.242V9.5779C559.242 10.2874 559.413 10.8195 559.755 11.1742C560.11 11.529 560.61 11.7063 561.257 11.7063C561.991 11.7063 562.561 11.4656 562.967 10.9842C563.372 10.4901 563.575 9.80594 563.575 8.93177V4.14282H565.969V13.5687H563.613V12.3334H563.271C563.119 12.6502 562.834 12.9606 562.416 13.2646C561.998 13.5687 561.364 13.7207 560.515 13.7207ZM568.634 13.5687V4.14282H570.99V5.37806H571.333C571.485 5.04866 571.77 4.73827 572.188 4.44688C572.606 4.14282 573.239 3.99079 574.088 3.99079C574.823 3.99079 575.463 4.16182 576.007 4.50389C576.565 4.83329 576.996 5.29571 577.3 5.89117C577.604 6.47395 577.756 7.15808 577.756 7.94357V13.5687H575.361V8.13361C575.361 7.42414 575.184 6.89203 574.829 6.53729C574.487 6.18256 573.993 6.00519 573.347 6.00519C572.612 6.00519 572.042 6.25224 571.637 6.74634C571.231 7.22776 571.028 7.90557 571.028 8.77974V13.5687H568.634ZM580.344 13.5687V4.14282H582.739V13.5687H580.344ZM581.542 3.0406C581.111 3.0406 580.743 2.90124 580.439 2.62252C580.148 2.34379 580.002 1.97639 580.002 1.5203C580.002 1.06421 580.148 0.696799 580.439 0.418077C580.743 0.139355 581.111 -6.61743e-06 581.542 -6.61743e-06C581.985 -6.61743e-06 582.352 0.139355 582.644 0.418077C582.935 0.696799 583.081 1.06421 583.081 1.5203C583.081 1.97639 582.935 2.34379 582.644 2.62252C582.352 2.90124 581.985 3.0406 581.542 3.0406ZM589.003 13.5687C588.382 13.5687 587.875 13.3787 587.483 12.9986C587.103 12.6058 586.913 12.0864 586.913 11.4403V6.11921H584.556V4.14282H586.913V1.21624H589.307V4.14282H591.891V6.11921H589.307V11.0222C589.307 11.4023 589.484 11.5923 589.839 11.5923H591.663V13.5687H589.003ZM595.085 17.3694V15.279H600.216C600.571 15.279 600.748 15.089 600.748 14.7089V12.3334H600.406C600.305 12.5488 600.147 12.7642 599.931 12.9796C599.716 13.195 599.424 13.3723 599.057 13.5117C598.69 13.651 598.221 13.7207 597.651 13.7207C596.916 13.7207 596.27 13.556 595.712 13.2266C595.168 12.8846 594.743 12.4158 594.439 11.8203C594.135 11.2249 593.983 10.5408 593.983 9.76794V4.14282H596.377V9.5779C596.377 10.2874 596.548 10.8195 596.891 11.1742C597.245 11.529 597.746 11.7063 598.392 11.7063C599.127 11.7063 599.697 11.4656 600.102 10.9842C600.508 10.4901 600.71 9.80594 600.71 8.93177V4.14282H603.105V15.241C603.105 15.8872 602.915 16.4003 602.535 16.7803C602.155 17.1731 601.648 17.3694 601.014 17.3694H595.085ZM605.94 16.3622V15.07H606.681C607.264 15.07 607.556 14.7786 607.556 14.1958V13.5877H607.233C606.726 13.5877 606.301 13.4357 605.959 13.1316C605.63 12.8275 605.465 12.4411 605.465 11.9724C605.465 11.4656 605.63 11.0539 605.959 10.7371C606.301 10.4204 606.726 10.262 607.233 10.262C607.752 10.262 608.176 10.4267 608.506 10.7561C608.835 11.0729 609 11.5036 609 12.0484V14.2338C609 15.6528 608.29 16.3622 606.872 16.3622H605.94ZM5.36867 37.5735V28.1476H7.72513V29.1738H8.0672C8.2319 28.8571 8.50429 28.5847 8.88436 28.3566C9.26444 28.1159 9.76487 27.9956 10.3857 27.9956C11.0571 27.9956 11.5956 28.1286 12.001 28.3946C12.4064 28.648 12.7168 28.9838 12.9322 29.4018H13.2742C13.4896 28.9964 13.7937 28.6607 14.1864 28.3946C14.5792 28.1286 15.1366 27.9956 15.8588 27.9956C16.4415 27.9956 16.9673 28.1223 17.4361 28.3756C17.9175 28.6164 18.2976 28.9901 18.5763 29.4969C18.8677 29.991 19.0134 30.6181 19.0134 31.3782V37.5735H16.6189V31.5493C16.6189 31.0298 16.4859 30.6434 16.2198 30.39C15.9538 30.124 15.58 29.991 15.0986 29.991C14.5538 29.991 14.1294 30.1683 13.8253 30.5231C13.534 30.8651 13.3883 31.3592 13.3883 32.0054V37.5735H10.9938V31.5493C10.9938 31.0298 10.8608 30.6434 10.5947 30.39C10.3287 30.124 9.95491 29.991 9.47348 29.991C8.92871 29.991 8.50429 30.1683 8.20023 30.5231C7.90884 30.8651 7.76314 31.3592 7.76314 32.0054V37.5735H5.36867ZM24.5153 37.8395C23.8438 37.8395 23.242 37.7255 22.7099 37.4975C22.1778 37.2567 21.7534 36.9147 21.4367 36.4712C21.1326 36.0152 20.9806 35.464 20.9806 34.8179C20.9806 34.1718 21.1326 33.6333 21.4367 33.2026C21.7534 32.7592 22.1841 32.4298 22.7289 32.2144C23.2864 31.9864 23.9198 31.8723 24.6293 31.8723H27.2138V31.3402C27.2138 30.8968 27.0744 30.5357 26.7957 30.257C26.517 29.9656 26.0736 29.8199 25.4655 29.8199C24.87 29.8199 24.4266 29.9593 24.1352 30.238C23.8438 30.5041 23.6538 30.8525 23.5651 31.2832L21.3606 30.5421C21.5127 30.0606 21.7534 29.6236 22.0828 29.2308C22.4249 28.8254 22.8746 28.5023 23.4321 28.2616C24.0022 28.0082 24.6926 27.8815 25.5035 27.8815C26.745 27.8815 27.7269 28.1919 28.4491 28.8127C29.1712 29.4335 29.5323 30.333 29.5323 31.5113V35.027C29.5323 35.407 29.7096 35.5971 30.0644 35.5971H30.8245V37.5735H29.2282C28.7594 37.5735 28.373 37.4594 28.069 37.2314C27.7649 37.0034 27.6129 36.6993 27.6129 36.3192V36.3002H27.2518C27.2011 36.4522 27.0871 36.6549 26.9097 36.9083C26.7324 37.149 26.4537 37.3644 26.0736 37.5545C25.6935 37.7445 25.1741 37.8395 24.5153 37.8395ZM24.9334 35.9011C25.6048 35.9011 26.1496 35.7174 26.5677 35.35C26.9984 34.9699 27.2138 34.4695 27.2138 33.8487V33.6587H24.8003C24.3569 33.6587 24.0085 33.7537 23.7551 33.9437C23.5017 34.1338 23.375 34.3998 23.375 34.7419C23.375 35.084 23.5081 35.3627 23.7741 35.5781C24.0402 35.7934 24.4266 35.9011 24.9334 35.9011ZM32.5752 37.5735V24.2708H34.9697V31.6253H35.3118L38.4284 28.1476H41.545L37.1932 32.7085L41.6971 37.5735H38.6184L35.3118 33.8297H34.9697V37.5735H32.5752ZM47.0215 37.8395C46.084 37.8395 45.2542 37.6431 44.532 37.2504C43.8226 36.845 43.2651 36.2812 42.8597 35.5591C42.467 34.8243 42.2706 33.9627 42.2706 32.9746V32.7465C42.2706 31.7583 42.467 30.9031 42.8597 30.181C43.2525 29.4462 43.8036 28.8824 44.513 28.4897C45.2225 28.0842 46.046 27.8815 46.9835 27.8815C47.9084 27.8815 48.7129 28.0906 49.397 28.5087C50.0811 28.9141 50.6132 29.4842 50.9933 30.219C51.3734 30.9411 51.5634 31.7836 51.5634 32.7465V33.5637H44.7031C44.7284 34.2098 44.9691 34.7356 45.4252 35.141C45.8813 35.5464 46.4388 35.7491 47.0975 35.7491C47.769 35.7491 48.2631 35.6034 48.5798 35.312C48.8966 35.0206 49.1373 34.6976 49.302 34.3428L51.2594 35.369C51.082 35.6984 50.8223 36.0595 50.4802 36.4522C50.1508 36.8323 49.7074 37.1617 49.15 37.4404C48.5925 37.7065 47.883 37.8395 47.0215 37.8395ZM44.7221 31.7773H49.131C49.0803 31.2325 48.8586 30.7955 48.4658 30.4661C48.0857 30.1367 47.5853 29.972 46.9645 29.972C46.3184 29.972 45.8053 30.1367 45.4252 30.4661C45.0451 30.7955 44.8108 31.2325 44.7221 31.7773ZM59.5461 41.3742V39.2838H64.6771C65.0318 39.2838 65.2092 39.0938 65.2092 38.7137V36.3382H64.8671C64.7658 36.5536 64.6074 36.769 64.392 36.9843C64.1767 37.1997 63.8853 37.3771 63.5179 37.5165C63.1504 37.6558 62.6817 37.7255 62.1116 37.7255C61.3768 37.7255 60.7306 37.5608 60.1732 37.2314C59.6284 36.8893 59.204 36.4206 58.8999 35.8251C58.5959 35.2297 58.4438 34.5455 58.4438 33.7727V28.1476H60.8383V33.5827C60.8383 34.2921 61.0094 34.8243 61.3514 35.179C61.7062 35.5337 62.2066 35.7111 62.8527 35.7111C63.5875 35.7111 64.1576 35.4704 64.5631 34.989C64.9685 34.4949 65.1712 33.8107 65.1712 32.9365V28.1476H67.5657V39.2458C67.5657 39.8919 67.3756 40.405 66.9955 40.7851C66.6155 41.1778 66.1087 41.3742 65.4752 41.3742H59.5461ZM74.7151 37.8395C73.7776 37.8395 72.9351 37.6495 72.1876 37.2694C71.4401 36.8893 70.851 36.3382 70.4202 35.6161C69.9895 34.8939 69.7741 34.0261 69.7741 33.0126V32.7085C69.7741 31.695 69.9895 30.8271 70.4202 30.105C70.851 29.3828 71.4401 28.8317 72.1876 28.4517C72.9351 28.0716 73.7776 27.8815 74.7151 27.8815C75.6526 27.8815 76.4951 28.0716 77.2426 28.4517C77.9901 28.8317 78.5792 29.3828 79.0099 30.105C79.4407 30.8271 79.6561 31.695 79.6561 32.7085V33.0126C79.6561 34.0261 79.4407 34.8939 79.0099 35.6161C78.5792 36.3382 77.9901 36.8893 77.2426 37.2694C76.4951 37.6495 75.6526 37.8395 74.7151 37.8395ZM74.7151 35.7111C75.4499 35.7111 76.058 35.4767 76.5394 35.008C77.0209 34.5265 77.2616 33.8424 77.2616 32.9555V32.7655C77.2616 31.8787 77.0209 31.2009 76.5394 30.7321C76.0707 30.2507 75.4626 30.01 74.7151 30.01C73.9803 30.01 73.3722 30.2507 72.8907 30.7321C72.4093 31.2009 72.1686 31.8787 72.1686 32.7655V32.9555C72.1686 33.8424 72.4093 34.5265 72.8907 35.008C73.3722 35.4767 73.9803 35.7111 74.7151 35.7111ZM85.458 37.7255C84.7232 37.7255 84.0771 37.5608 83.5196 37.2314C82.9749 36.8893 82.5504 36.4206 82.2464 35.8251C81.9423 35.2297 81.7903 34.5455 81.7903 33.7727V28.1476H84.1848V33.5827C84.1848 34.2921 84.3558 34.8243 84.6979 35.179C85.0526 35.5337 85.553 35.7111 86.1992 35.7111C86.934 35.7111 87.5041 35.4704 87.9095 34.989C88.3149 34.4949 88.5176 33.8107 88.5176 32.9365V28.1476H90.9121V37.5735H88.5556V36.3382H88.2136C88.0615 36.6549 87.7765 36.9653 87.3584 37.2694C86.9403 37.5735 86.3068 37.7255 85.458 37.7255ZM93.5766 37.5735V28.1476H95.9331V29.2118H96.2752C96.4145 28.8317 96.6426 28.553 96.9593 28.3756C97.2887 28.1983 97.6688 28.1096 98.0995 28.1096H99.2398V30.238H98.0615C97.4534 30.238 96.953 30.4027 96.5602 30.7321C96.1675 31.0488 95.9711 31.5429 95.9711 32.2144V37.5735H93.5766ZM105.937 37.5735V28.1476H108.293V29.1738H108.635C108.8 28.8571 109.072 28.5847 109.452 28.3566C109.832 28.1159 110.333 27.9956 110.954 27.9956C111.625 27.9956 112.163 28.1286 112.569 28.3946C112.974 28.648 113.285 28.9838 113.5 29.4018H113.842C114.057 28.9964 114.362 28.6607 114.754 28.3946C115.147 28.1286 115.704 27.9956 116.427 27.9956C117.009 27.9956 117.535 28.1223 118.004 28.3756C118.485 28.6164 118.865 28.9901 119.144 29.4969C119.436 29.991 119.581 30.6181 119.581 31.3782V37.5735H117.187V31.5493C117.187 31.0298 117.054 30.6434 116.788 30.39C116.522 30.124 116.148 29.991 115.666 29.991C115.122 29.991 114.697 30.1683 114.393 30.5231C114.102 30.8651 113.956 31.3592 113.956 32.0054V37.5735H111.562V31.5493C111.562 31.0298 111.429 30.6434 111.163 30.39C110.897 30.124 110.523 29.991 110.041 29.991C109.497 29.991 109.072 30.1683 108.768 30.5231C108.477 30.8651 108.331 31.3592 108.331 32.0054V37.5735H105.937ZM125.083 37.8395C124.412 37.8395 123.81 37.7255 123.278 37.4975C122.746 37.2567 122.321 36.9147 122.005 36.4712C121.7 36.0152 121.548 35.464 121.548 34.8179C121.548 34.1718 121.7 33.6333 122.005 33.2026C122.321 32.7592 122.752 32.4298 123.297 32.2144C123.854 31.9864 124.488 31.8723 125.197 31.8723H127.782V31.3402C127.782 30.8968 127.642 30.5357 127.364 30.257C127.085 29.9656 126.641 29.8199 126.033 29.8199C125.438 29.8199 124.994 29.9593 124.703 30.238C124.412 30.5041 124.222 30.8525 124.133 31.2832L121.928 30.5421C122.081 30.0606 122.321 29.6236 122.651 29.2308C122.993 28.8254 123.442 28.5023 124 28.2616C124.57 28.0082 125.26 27.8815 126.071 27.8815C127.313 27.8815 128.295 28.1919 129.017 28.8127C129.739 29.4335 130.1 30.333 130.1 31.5113V35.027C130.1 35.407 130.277 35.5971 130.632 35.5971H131.392V37.5735H129.796C129.327 37.5735 128.941 37.4594 128.637 37.2314C128.333 37.0034 128.181 36.6993 128.181 36.3192V36.3002H127.82C127.769 36.4522 127.655 36.6549 127.478 36.9083C127.3 37.149 127.022 37.3644 126.641 37.5545C126.261 37.7445 125.742 37.8395 125.083 37.8395ZM125.501 35.9011C126.173 35.9011 126.717 35.7174 127.136 35.35C127.566 34.9699 127.782 34.4695 127.782 33.8487V33.6587H125.368C124.925 33.6587 124.576 33.7537 124.323 33.9437C124.07 34.1338 123.943 34.3998 123.943 34.7419C123.943 35.084 124.076 35.3627 124.342 35.5781C124.608 35.7934 124.994 35.9011 125.501 35.9011ZM133.143 37.5735V28.1476H135.5V29.2118H135.842C135.981 28.8317 136.209 28.553 136.526 28.3756C136.855 28.1983 137.235 28.1096 137.666 28.1096H138.806V30.238H137.628C137.02 30.238 136.519 30.4027 136.127 30.7321C135.734 31.0488 135.538 31.5429 135.538 32.2144V37.5735H133.143ZM140.678 37.5735V24.2708H143.072V31.6253H143.414L146.531 28.1476H149.648L145.296 32.7085L149.8 37.5735H146.721L143.414 33.8297H143.072V37.5735H140.678Z" fill="url(#paint0_linear_2_10259)"/>
<defs>
<linearGradient id="paint0_linear_2_10259" x1="-24.4927" y1="-4.93499" x2="-17.998" y2="87.3251" gradientUnits="userSpaceOnUse">
<stop stop-color="#AADA5D"/>
<stop offset="1" stop-color="#0DAEB9"/>
</linearGradient>
</defs>
</svg>
