<svg width="25" height="24" viewBox="0 0 25 24" fill="none" xmlns="http://www.w3.org/2000/svg">
<g clip-path="url(#clip0_5206_107452)">
<path d="M12.4406 8.81215L9.66016 11.6416L12.5005 14.532L15.281 11.7025L12.4406 8.81215Z" fill="#FFBA00"/>
<path d="M12.5012 5.51345L17.2455 10.3413L19.8773 7.6631L12.3469 0L4.81641 7.6631L7.49058 10.3844L12.5012 5.51345Z" fill="#FFBA00"/>
<path d="M17.2048 13.6587L12.348 18.6011L7.49122 13.6587L4.85938 16.3369L12.3898 24L19.8796 16.3783L17.2048 13.6587Z" fill="#FFBA00"/>
<path d="M3.13191 9.22652L0.5 11.9048L3.24751 14.7007L5.87941 12.0224L3.13191 9.22652Z" fill="#FFBA00"/>
<path d="M21.7146 9.06871L18.8125 12.022L21.5998 14.8584L24.5019 11.9051L21.7146 9.06871Z" fill="#FFBA00"/>
</g>
<defs>
<clipPath id="clip0_5206_107452">
<rect width="24" height="24" fill="white" transform="translate(0.5)"/>
</clipPath>
</defs>
</svg>
