<svg width="16" height="16" viewBox="0 0 16 16" fill="none" xmlns="http://www.w3.org/2000/svg">
<g clip-path="url(#clip0_55_64824)">
<path d="M0 8C0 9.58225 0.469192 11.129 1.34824 12.4446C2.22729 13.7602 3.47672 14.7855 4.93853 15.391C6.40034 15.9965 8.00887 16.155 9.56072 15.8463C11.1126 15.5376 12.538 14.7757 13.6569 13.6569C14.7757 12.538 15.5376 11.1126 15.8463 9.56072C16.155 8.00887 15.9965 6.40034 15.391 4.93853C14.7855 3.47672 13.7602 2.22729 12.4446 1.34824C11.129 0.469192 9.58225 0 8 0C5.87827 0 3.84344 0.842856 2.34315 2.34315C0.842856 3.84344 0 5.87827 0 8Z" fill="#F5B638"/>
<path d="M6.72502 7.991L8.00002 6.71599L9.27502 7.991L8.00102 9.26299L6.72603 7.98698L6.72502 7.991ZM10.783 7.991L12.058 6.71599L13.333 7.991L12.058 9.26599L10.783 7.991ZM2.66602 7.991L3.94102 6.71599L5.21602 7.991L3.94102 9.26599L2.66602 7.991ZM4.68002 5.97899L7.99402 2.66699L9.26903 3.94199L5.95502 7.254L4.68002 5.97899Z" fill="white"/>
<path d="M10.0452 7.25401L6.73315 3.94101L8.00815 2.66602L11.3212 5.97801L10.0461 7.25302L10.0452 7.25401ZM5.95615 8.74602L9.26917 12.058L7.99414 13.333L4.68115 10.021L5.95615 8.74602Z" fill="white"/>
<path d="M11.3219 10.0211L8.00888 13.3331L6.73389 12.0581L10.0469 8.74609L11.3219 10.0211Z" fill="white"/>
</g>
<defs>
<clipPath id="clip0_55_64824">
<rect width="16" height="16" fill="white"/>
</clipPath>
</defs>
</svg>
