<svg xmlns="http://www.w3.org/2000/svg" width="62" height="62" viewBox="0 0 62 62" fill="none">
  <path d="M54.5677 26.638C53.0311 26.2925 51.4328 26.3343 49.9163 26.7596C48.3999 27.1849 47.0129 27.9804 45.88 29.0745C45.4193 29.4694 44.8953 29.7838 44.33 30.0045C44.2386 30.0386 44.1487 30.0696 44.0557 30.1099H44.0433C43.2755 30.3813 42.4811 30.5704 41.6734 30.6741C42.3643 29.6497 42.9181 28.5392 43.321 27.3711L43.3396 27.3262C43.5317 26.6714 43.8539 26.0621 44.2869 25.5348C44.72 25.0075 45.255 24.5729 45.8599 24.2571C47.2596 23.7445 48.8016 23.7816 50.1751 24.361C50.4932 24.4783 50.8446 24.4658 51.1536 24.3261C51.4625 24.1865 51.7041 23.9309 51.8263 23.6146C51.9484 23.2983 51.9412 22.9467 51.8062 22.6357C51.6713 22.3247 51.4195 22.0792 51.1051 21.9523C49.4979 21.3051 47.7362 21.1435 46.0381 21.4873C46.4803 21.0187 47.0386 20.6754 47.6563 20.4922C47.9829 20.3906 48.2558 20.1635 48.415 19.8608C48.5741 19.5581 48.6065 19.2045 48.5049 18.8779C48.4034 18.5513 48.1763 18.2784 47.8735 18.1192C47.5708 17.9601 47.2173 17.9277 46.8906 18.0293C43.6356 19.0399 42.6111 21.867 41.6206 24.6012C41.4501 25.0662 41.2703 25.5514 41.0828 26.0319C41.0394 26.1357 40.9991 26.2427 40.9588 26.3496L40.934 26.4132L40.9169 26.4566C39.2569 30.9934 37.6821 30.8245 35.6857 30.6121C34.7703 30.5004 33.9285 30.0543 33.322 29.3597C33.1076 28.9913 32.975 28.5811 32.9333 28.1569C32.8916 27.7327 32.9417 27.3046 33.0801 26.9015C33.1035 26.7998 33.1144 26.6957 33.1127 26.5915C33.1313 26.4799 33.1437 26.3946 33.1499 26.3388C33.1561 26.283 33.1933 26.052 33.2305 25.7188C33.5048 24.2928 34.4271 23.5906 36.0329 22.4839C37.7245 21.5249 39.1485 20.1568 40.1745 18.505C41.2005 16.8532 41.7958 14.9704 41.9058 13.029C41.9439 12.689 41.8453 12.3478 41.6318 12.0805C41.4183 11.8133 41.1073 11.6417 40.7674 11.6037C40.4274 11.5657 40.0862 11.6643 39.819 11.8778C39.5517 12.0913 39.3801 12.4022 39.3421 12.7422C39.2649 14.3143 38.7858 15.8403 37.9505 17.1744C37.1152 18.5084 35.9517 19.6059 34.5713 20.362C34.1714 20.6379 33.7606 20.9231 33.3591 21.2331C33.2883 19.6382 32.9747 18.0634 32.4291 16.563C31.8665 15.185 32.3423 14.4271 33.0631 13.2894C33.6917 12.4485 34.0912 11.4588 34.2225 10.4172L34.238 9.6701C34.2409 9.50074 34.2105 9.33248 34.1484 9.17489C34.0863 9.0173 33.9938 8.87347 33.8761 8.75163C33.6385 8.50557 33.3129 8.36399 32.9709 8.35803C32.6289 8.35207 32.2985 8.48221 32.0524 8.71984C31.8063 8.95747 31.6647 9.28314 31.6588 9.62516L31.6464 10.2746C31.5161 10.8689 31.2557 11.4268 30.8838 11.9083C30.6336 12.2919 30.4033 12.6882 30.194 13.0956C29.6595 12.3463 29.2847 11.4952 29.0927 10.5951C28.9007 9.69493 28.8957 8.76495 29.078 7.8628C29.1265 7.69996 29.1424 7.52917 29.1248 7.36019C29.1073 7.1912 29.0566 7.02734 28.9757 6.87794C28.8948 6.72854 28.7853 6.59654 28.6534 6.48947C28.5215 6.3824 28.3698 6.30235 28.2069 6.25391C28.0441 6.20546 27.8733 6.18956 27.7043 6.20712C27.5353 6.22468 27.3715 6.27535 27.2221 6.35624C27.0727 6.43713 26.9407 6.54666 26.8336 6.67856C26.7265 6.81047 26.6465 6.96216 26.598 7.125C26.2543 8.66058 26.2971 10.2575 26.7226 11.7724C27.1481 13.2874 27.9431 14.673 29.0362 15.805C29.4312 16.2657 29.7456 16.7897 29.9662 17.355C30.0003 17.448 30.0313 17.5379 30.0716 17.6325L30.0809 17.6495C30.3516 18.4163 30.5402 19.2097 30.6435 20.0163C29.6199 19.3263 28.5106 18.7729 27.3436 18.3703L27.294 18.3516C26.6392 18.1596 26.0299 17.8374 25.5025 17.4044C24.9752 16.9713 24.5407 16.4363 24.225 15.8314C23.7118 14.4318 23.7484 12.8898 24.3273 11.5161C24.3914 11.3574 24.4232 11.1875 24.421 11.0163C24.4188 10.8451 24.3826 10.676 24.3145 10.519C24.2463 10.3619 24.1476 10.22 24.0241 10.1014C23.9006 9.98286 23.7548 9.89004 23.5951 9.82837C23.4353 9.7667 23.265 9.73741 23.0938 9.74221C22.9227 9.74701 22.7542 9.78581 22.5982 9.85633C22.4422 9.92684 22.3017 10.0277 22.1851 10.153C22.0684 10.2783 21.9778 10.4255 21.9186 10.5862C21.2711 12.1933 21.1095 13.955 21.4536 15.6531C20.9849 15.2109 20.6416 14.6526 20.4585 14.0349C20.4082 13.8732 20.3266 13.7229 20.2182 13.5928C20.1099 13.4626 19.977 13.3551 19.8271 13.2763C19.6772 13.1975 19.5132 13.1489 19.3446 13.1335C19.1759 13.1181 19.0059 13.136 18.8442 13.1863C18.6824 13.2366 18.5322 13.3182 18.402 13.4265C18.2719 13.5349 18.1643 13.6678 18.0855 13.8177C18.0067 13.9676 17.9582 14.1315 17.9428 14.3002C17.9273 14.4688 17.9453 14.6389 17.9955 14.8006C19.0061 18.0556 21.8333 19.0802 24.5675 20.0706C25.0325 20.2411 25.5177 20.4209 25.9982 20.6085C26.102 20.6519 26.209 20.6922 26.3159 20.7325L26.3795 20.7572L26.4229 20.7743C30.9597 22.4343 30.7908 24.0107 30.5769 26.0055C30.465 26.9209 30.019 27.7626 29.3245 28.3693C28.9561 28.5836 28.5458 28.7162 28.1217 28.7579C27.6975 28.7996 27.2693 28.7496 26.8662 28.6111C26.7646 28.5877 26.6604 28.5768 26.5562 28.5786C26.4446 28.56 26.3578 28.5475 26.302 28.5413C26.2462 28.5351 26.0152 28.4979 25.682 28.4607C24.256 28.1864 23.5538 27.2641 22.4471 25.6583C21.4881 23.9668 20.12 22.5428 18.4682 21.5167C16.8164 20.4907 14.9336 19.8954 12.9921 19.7854C12.6522 19.7472 12.3109 19.8456 12.0435 20.0589C11.7761 20.2723 11.6044 20.5831 11.5661 20.9231C11.5279 21.2631 11.6263 21.6043 11.8396 21.8717C12.053 22.1392 12.3639 22.3109 12.7038 22.3491C14.2763 22.4262 15.8028 22.9054 17.1371 23.741C18.4715 24.5766 19.5692 25.7405 20.3252 27.1215C20.6011 27.5214 20.8863 27.9322 21.1963 28.3336C19.6013 28.4044 18.0265 28.718 16.5261 29.2637C15.1482 29.8263 14.3902 29.3489 13.2541 28.6297C12.4131 28.0012 11.4235 27.6018 10.3819 27.4703L9.63484 27.4548C9.29282 27.4488 8.96243 27.579 8.71637 27.8166C8.47031 28.0543 8.32873 28.3799 8.32277 28.7219C8.31681 29.0639 8.44695 29.3943 8.68458 29.6404C8.92222 29.8865 9.24785 30.028 9.58988 30.034L10.2393 30.0448C10.8335 30.1753 11.3915 30.4358 11.873 30.8075C12.2561 31.0582 12.6519 31.289 13.0588 31.4988C12.3095 32.0327 11.4586 32.4071 10.5588 32.5988C9.65895 32.7905 8.72935 32.7954 7.82754 32.6132C7.5021 32.5265 7.15568 32.5701 6.86186 32.7347C6.56804 32.8993 6.34997 33.172 6.25393 33.4948C6.1579 33.8176 6.19146 34.1651 6.34752 34.4636C6.50358 34.762 6.76984 34.9879 7.08974 35.0932C7.74039 35.2623 8.41083 35.3432 9.08303 35.3335C11.5718 35.3128 13.9619 34.3573 15.779 32.6566C16.2154 32.28 16.7101 31.9769 17.2438 31.7592C17.3616 31.7173 17.4794 31.6708 17.6018 31.6196H17.6142C18.3821 31.3484 19.1765 31.1593 19.9842 31.0554C19.2942 32.0791 18.7408 33.1884 18.3381 34.3554L18.3195 34.405C18.1275 35.0598 17.8054 35.6692 17.3723 36.1965C16.9393 36.7239 16.4042 37.1584 15.7992 37.474C14.3997 37.9872 12.8576 37.9506 11.484 37.3717C11.1659 37.2544 10.8144 37.2669 10.5055 37.4066C10.1965 37.5462 9.95491 37.8018 9.8328 38.1181C9.71068 38.4343 9.71785 38.786 9.85278 39.097C9.98772 39.408 10.2396 39.6535 10.554 39.7804C11.6318 40.2002 12.7764 40.4224 13.933 40.436C14.5001 40.437 15.0655 40.3726 15.6178 40.2439C15.1761 40.7119 14.6183 41.0546 14.0012 41.2374C13.6746 41.3389 13.4017 41.5661 13.2425 41.8688C13.0834 42.1715 13.051 42.5251 13.1526 42.8517C13.2541 43.1783 13.4812 43.4512 13.784 43.6104C14.0867 43.7695 14.4403 43.8019 14.7669 43.7003C18.0219 42.6897 19.0464 39.8625 20.0369 37.1283C20.2074 36.6633 20.3856 36.1782 20.5747 35.6992C20.6181 35.5938 20.66 35.4854 20.7003 35.3769L20.7235 35.3164L20.7406 35.273C22.4006 30.7361 23.977 30.9035 25.9718 31.1175C26.8872 31.2292 27.729 31.6753 28.3356 32.3698C28.5499 32.7383 28.6825 33.1485 28.7242 33.5727C28.7659 33.9969 28.7158 34.425 28.5774 34.8281C28.5539 34.9298 28.5429 35.0339 28.5448 35.1381C28.5262 35.2497 28.5138 35.335 28.5076 35.3908C28.5014 35.4466 28.4642 35.6775 28.427 36.0108C28.1527 37.4368 27.2304 38.139 25.6246 39.2457C23.933 40.2047 22.509 41.5728 21.483 43.2246C20.457 44.8764 19.8617 46.7592 19.7517 48.7006C19.7138 49.0404 19.8124 49.3813 20.0257 49.6484C20.239 49.9155 20.5497 50.0869 20.8894 50.1251C20.9378 50.1305 20.9864 50.1331 21.0351 50.1328C21.3519 50.1325 21.6576 50.0156 21.8937 49.8043C22.1299 49.5931 22.28 49.3022 22.3154 48.9874C22.3927 47.4151 22.8721 45.889 23.7077 44.555C24.5432 43.2209 25.707 42.1235 27.0878 41.3676C27.4877 41.0917 27.8985 40.8065 28.2999 40.4965C28.3721 42.0882 28.6856 43.6598 29.2299 45.1573C29.7988 46.5415 29.3214 47.301 28.6006 48.4402C27.972 49.2811 27.5725 50.2708 27.4412 51.3124L27.4273 52.0595C27.4244 52.2289 27.4549 52.3971 27.5171 52.5547C27.5793 52.7122 27.6719 52.856 27.7896 52.9778C27.9073 53.0995 28.0479 53.1969 28.2033 53.2644C28.3587 53.3318 28.5258 53.368 28.6952 53.3708H28.7184C29.0567 53.3708 29.3815 53.238 29.6227 53.0008C29.864 52.7636 30.0023 52.4411 30.008 52.1029L30.0189 51.4534C30.1492 50.8592 30.4097 50.3012 30.7815 49.8197C31.0317 49.4361 31.262 49.0399 31.4713 48.6325C32.0056 49.3818 32.3803 50.2329 32.5723 51.133C32.7642 52.0331 32.7693 52.9631 32.5872 53.8652C32.4894 54.1931 32.5258 54.5463 32.6884 54.8474C32.8511 55.1483 33.1266 55.3724 33.4544 55.4703C33.7823 55.5681 34.1356 55.5317 34.4366 55.3691C34.7376 55.2064 34.9616 54.9309 35.0595 54.603C35.4046 53.0664 35.3627 51.4681 34.9374 49.9517C34.5121 48.4353 33.7168 47.0483 32.6229 45.9153C32.228 45.4545 31.9136 44.9305 31.6929 44.3653C31.6588 44.2738 31.6278 44.1855 31.589 44.0925V44.0878C31.3177 43.32 31.1286 42.5256 31.0248 41.7179C32.0484 42.4079 33.1578 42.9613 34.3248 43.364L34.3744 43.3826C35.0292 43.5745 35.6386 43.8967 36.1659 44.3298C36.6933 44.7628 37.1278 45.2979 37.4434 45.9029C37.9566 47.3024 37.92 48.8445 37.3411 50.2181C37.277 50.3769 37.2451 50.5468 37.2473 50.718C37.2495 50.8892 37.2858 51.0582 37.3539 51.2153C37.422 51.3723 37.5207 51.5143 37.6442 51.6328C37.7677 51.7514 37.9136 51.8442 38.0733 51.9059C38.233 51.9675 38.4034 51.9968 38.5745 51.992C38.7457 51.9872 38.9142 51.9484 39.0702 51.8779C39.2262 51.8074 39.3666 51.7066 39.4833 51.5813C39.6 51.456 39.6905 51.3087 39.7498 51.1481C40.3972 49.541 40.5589 47.7792 40.2148 46.0811C40.6835 46.5232 41.0269 47.0815 41.2099 47.6993C41.2602 47.8611 41.3418 48.0113 41.4501 48.1415C41.5585 48.2716 41.6914 48.3792 41.8413 48.458C41.9912 48.5368 42.1552 48.5853 42.3238 48.6007C42.4925 48.6162 42.6625 48.5982 42.8242 48.548C42.9859 48.4977 43.1361 48.4161 43.2663 48.3077C43.3965 48.1994 43.504 48.0665 43.5828 47.9166C43.6616 47.7667 43.7102 47.6027 43.7256 47.434C43.741 47.2654 43.7231 47.0954 43.6728 46.9336C42.6622 43.6786 39.835 42.6541 37.1008 41.6637C36.6358 41.4931 36.1507 41.3149 35.6717 41.1258C35.5663 41.0824 35.4563 41.0405 35.3478 41.0002L35.2889 40.977L35.2455 40.9599C30.7086 39.2999 30.8776 37.7235 31.0899 35.7287C31.2019 34.8134 31.6478 33.9716 32.3423 33.3649C32.7108 33.1507 33.121 33.0182 33.5452 32.9765C33.9693 32.9348 34.3975 32.9848 34.8006 33.1231C34.9023 33.1464 35.0064 33.1574 35.1106 33.1557C35.2222 33.1743 35.309 33.1867 35.3648 33.1929C35.4206 33.1991 35.6531 33.2363 35.9771 33.2735C37.4046 33.5478 38.1068 34.4701 39.2135 36.0759C40.1725 37.7675 41.5406 39.1915 43.1924 40.2175C44.8442 41.2435 46.727 41.8388 48.6684 41.9488C48.7168 41.9541 48.7655 41.9567 48.8142 41.9566C49.144 41.9566 49.4612 41.8302 49.7007 41.6035C49.9402 41.3768 50.0836 41.0669 50.1017 40.7376C50.1198 40.4083 50.011 40.0847 49.7978 39.8331C49.5845 39.5815 49.283 39.4212 48.9552 39.3851C47.3832 39.3078 45.8572 38.8286 44.5232 37.9933C43.1891 37.1581 42.0916 35.9946 41.3354 34.6142C41.0595 34.2143 40.7743 33.8036 40.4643 33.4021C42.0292 33.3311 43.5749 33.0281 45.0508 32.5031H45.0725L45.1112 32.4877L45.2089 32.4505C46.5403 31.9343 47.2921 32.4055 48.4081 33.1123C49.2489 33.741 50.2386 34.1405 51.2802 34.2717L52.0273 34.2856H52.0506C52.3926 34.2885 52.7217 34.1554 52.9656 33.9156C53.2095 33.6758 53.3482 33.3489 53.351 33.0069C53.3539 32.6649 53.2208 32.3357 52.981 32.0918C52.7412 31.8479 52.4143 31.7093 52.0723 31.7064L51.4228 31.6956C50.8286 31.5653 50.2706 31.3049 49.7891 30.933C49.4055 30.6828 49.0092 30.4525 48.6018 30.2432C49.3512 29.709 50.2023 29.3343 51.1024 29.1423C52.0025 28.9504 52.9324 28.9453 53.8346 29.1273C54.1635 29.2251 54.5178 29.1883 54.8195 29.0249C55.1212 28.8616 55.3457 28.585 55.4435 28.2561C55.5413 27.9273 55.5046 27.573 55.3412 27.2713C55.1778 26.9696 54.9013 26.7451 54.5724 26.6472L54.5677 26.638Z" fill="url(#paint0_linear_1759_51631)"/>
  <defs>
    <linearGradient id="paint0_linear_1759_51631" x1="15.9117" y1="15.917" x2="45.802" y2="45.791" gradientUnits="userSpaceOnUse">
      <stop stop-color="#D2FFAD"/>
      <stop offset="0.098" stop-color="#C8FCAD"/>
      <stop offset="0.26" stop-color="#AFF6B0"/>
      <stop offset="0.467" stop-color="#85ECB5"/>
      <stop offset="0.711" stop-color="#4BDDBB"/>
      <stop offset="0.983" stop-color="#03CBC2"/>
      <stop offset="0.994" stop-color="#00CBC3"/>
    </linearGradient>
  </defs>
</svg>