<svg width="25" height="24" viewBox="0 0 25 24" fill="none" xmlns="http://www.w3.org/2000/svg">
<g clip-path="url(#clip0_7024_53485)">
<path d="M12.5 24C19.15 24 24.5 18.65 24.5 12C24.5 5.34996 19.15 0 12.5 0C5.84996 0 0.5 5.34996 0.5 12C0.5 18.65 5.84996 24 12.5 24Z" fill="#2775CA"/>
<path d="M15.8015 13.9001C15.8015 12.1501 14.7515 11.5501 12.6515 11.3002C11.1515 11.1001 10.8515 10.7002 10.8515 10.0001C10.8515 9.30002 11.3516 8.85014 12.3515 8.85014C13.2515 8.85014 13.7516 9.15014 14.0015 9.90014C14.0516 10.0501 14.2016 10.1501 14.3516 10.1501H15.1515C15.3515 10.1501 15.5015 10.0001 15.5015 9.80018V9.75014C15.3015 8.6501 14.4015 7.80014 13.2515 7.70018V6.50018C13.2515 6.30014 13.1015 6.15014 12.8516 6.1001H12.1016C11.9015 6.1001 11.7515 6.2501 11.7015 6.50018V7.65014C10.2015 7.85018 9.25156 8.85014 9.25156 10.1002C9.25156 11.7502 10.2515 12.4001 12.3515 12.6502C13.7516 12.9001 14.2016 13.2001 14.2016 14.0002C14.2016 14.8002 13.5015 15.3502 12.5516 15.3502C11.2515 15.3502 10.8015 14.8001 10.6515 14.0501C10.6016 13.8502 10.4516 13.7501 10.3016 13.7501H9.45148C9.25156 13.7501 9.10156 13.9001 9.10156 14.1001V14.1502C9.30148 15.4001 10.1015 16.3001 11.7515 16.5502V17.7502C11.7515 17.9501 11.9015 18.1001 12.1515 18.1501H12.9015C13.1015 18.1501 13.2515 18.0001 13.3016 17.7502V16.5502C14.8016 16.3001 15.8015 15.2501 15.8015 13.9001Z" fill="#3E1A1A"/>
<path d="M9.95097 19.1499C6.05097 17.75 4.05094 13.4 5.50102 9.54992C6.25102 7.44992 7.90101 5.84996 9.95097 5.09996C10.151 5 10.251 4.85 10.251 4.59992V3.89996C10.251 3.69992 10.151 3.54992 9.95097 3.5C9.90093 3.5 9.80098 3.5 9.75094 3.54992C5.00098 5.04992 2.40093 10.1 3.90093 14.85C4.80093 17.6499 6.95098 19.8 9.75094 20.7C9.95097 20.7999 10.151 20.7 10.2009 20.4999C10.251 20.45 10.251 20.4 10.251 20.3V19.5999C10.251 19.4499 10.101 19.25 9.95097 19.1499ZM15.251 3.54992C15.051 3.44996 14.8509 3.54992 14.801 3.74996C14.751 3.8 14.751 3.84992 14.751 3.95V4.64996C14.751 4.85 14.901 5.04992 15.051 5.15C18.951 6.54992 20.951 10.8999 19.5009 14.75C18.7509 16.85 17.1009 18.45 15.051 19.2C14.8509 19.2999 14.751 19.4499 14.751 19.7V20.4C14.751 20.6 14.8509 20.75 15.051 20.7999C15.101 20.7999 15.201 20.7999 15.251 20.75C20.001 19.25 22.601 14.1999 21.101 9.44996C20.201 6.59996 18.0009 4.44992 15.251 3.54992Z" fill="#3E1A1A"/>
</g>
<defs>
<clipPath id="clip0_7024_53485">
<rect width="24" height="24" fill="white" transform="translate(0.5)"/>
</clipPath>
</defs>
</svg>
