<svg width="48" height="48" viewBox="0 0 48 48" fill="none" xmlns="http://www.w3.org/2000/svg">
<g clip-path="url(#clip0_639_72850)">
<path d="M35.2801 8.22994C34.8201 7.42994 33.9301 7.19994 33.1401 7.65994C32.3401 8.11994 32.1101 9.00994 32.5701 9.79994C33.0301 10.5899 33.9201 10.8299 34.7101 10.3699C35.5101 9.92994 35.7401 8.89994 35.2801 8.22994Z" fill="url(#paint0_linear_639_72850)"/>
<path d="M33.81 6.52977C34.38 5.95977 34.38 5.17977 33.81 4.61977C33.24 4.04977 32.46 4.15977 32 4.61977C31.43 5.18977 31.43 5.96977 32 6.52977C32.46 6.96977 33.37 6.96977 33.81 6.52977Z" fill="url(#paint1_linear_639_72850)"/>
<path d="M38.4501 17.7401C37.5501 17.5101 36.5401 18.0801 36.3101 18.9801C36.0801 19.8801 36.6501 20.8901 37.5501 21.1201C38.4501 21.3501 39.4601 20.7801 39.6901 19.8801C40.0101 18.9601 39.3301 17.9501 38.4501 17.7401Z" fill="url(#paint2_linear_639_72850)"/>
<path d="M35.4 35.58C36.43 35.35 36.98 34.34 36.64 33.44C36.41 32.54 35.4 31.86 34.5 32.2C33.6 32.43 32.92 33.44 33.26 34.34C33.49 35.26 34.4 35.81 35.4 35.58Z" fill="url(#paint3_linear_639_72850)"/>
<path d="M30.32 38.55C30.55 37.65 29.98 36.64 29.08 36.41C28.18 36.18 27.17 36.75 26.94 37.65C26.71 38.55 27.28 39.56 28.18 39.79C29.08 40 29.97 39.43 30.32 38.55Z" fill="url(#paint4_linear_639_72850)"/>
<path d="M30.8599 5.82008C30.2899 5.25008 29.2799 5.25008 28.7199 5.82008C28.1599 6.39008 28.1499 7.40008 28.7199 8.09008C29.2899 8.66008 30.2999 8.66008 30.9699 8.09008C31.4299 7.40008 31.4299 6.39008 30.8599 5.82008Z" fill="url(#paint5_linear_639_72850)"/>
<path d="M29.79 9.20016C28.89 9.66016 28.65 10.7802 29.12 11.6802C29.59 12.5802 30.7 12.8202 31.6 12.3702C32.5 11.9102 32.74 10.7902 32.27 9.89016C31.7 9.09016 30.69 8.75016 29.79 9.20016Z" fill="url(#paint6_linear_639_72850)"/>
<path d="M23.9101 40.3302C24.8101 40.7902 25.8201 40.5602 26.3901 39.6402C26.8501 38.7402 26.6201 37.7302 25.7201 37.1602C24.8201 36.7002 23.8101 36.9302 23.2401 37.8502C22.6501 38.7502 22.9901 39.7602 23.9101 40.3302Z" fill="url(#paint7_linear_639_72850)"/>
<path d="M24.7899 10.1499C25.2499 9.24994 25.0199 8.23994 24.1199 7.66994C23.2199 7.20994 22.2099 7.43994 21.6399 8.35994C21.1799 9.25994 21.4099 10.2699 22.3099 10.8399C23.1099 11.2999 24.2199 11.0699 24.7899 10.1499Z" fill="url(#paint8_linear_639_72850)"/>
<path d="M35.51 12.48C35.28 11.58 34.27 10.9 33.26 11.24C32.36 11.47 31.68 12.48 32.02 13.38C32.25 14.28 33.26 14.96 34.16 14.62C35.3 14.51 35.84 13.48 35.51 12.48Z" fill="url(#paint9_linear_639_72850)"/>
<path d="M38.6001 16.0102C38.6001 16.9102 39.2701 17.5902 40.1801 17.5902C41.0901 17.5902 41.7601 16.9002 41.7601 16.0102C41.7601 15.1202 41.0901 14.4302 40.1801 14.4302C39.2701 14.4302 38.6001 15.1002 38.6001 16.0102Z" fill="url(#paint10_linear_639_72850)"/>
<path d="M42.05 18.98C41.25 18.75 40.37 19.2101 40.14 20.1201C39.91 20.9201 40.37 21.8001 41.28 22.0301C42.08 22.2601 42.96 21.8 43.19 20.89C43.42 20.11 42.85 19.21 42.05 18.98Z" fill="url(#paint11_linear_639_72850)"/>
<path d="M42.1899 12.16C41.9599 11.47 41.2899 11.02 40.6099 11.26C39.9299 11.5 39.4699 12.16 39.7099 12.84C39.9399 13.53 40.6099 13.98 41.2899 13.74C41.9799 13.63 42.4299 12.84 42.1899 12.16Z" fill="url(#paint12_linear_639_72850)"/>
<path d="M44.6299 17.2499C44.6299 16.5599 44.0599 15.8999 43.2799 15.8999C42.6099 15.8999 41.9299 16.4699 41.9299 17.2499C41.9299 18.0299 42.4999 18.5999 43.2799 18.5999C44.0599 18.5999 44.6299 18.0299 44.6299 17.2499Z" fill="url(#paint13_linear_639_72850)"/>
<path d="M42.38 13.9701C42.49 14.5401 43.18 14.8701 43.73 14.7701C44.28 14.6701 44.63 13.9701 44.53 13.4201C44.43 12.8701 43.73 12.5201 43.18 12.6201C42.61 12.7301 42.26 13.4201 42.38 13.9701Z" fill="url(#paint14_linear_639_72850)"/>
<path d="M37.99 9.71008C38.66 9.37008 38.89 8.57008 38.45 7.90008C38.11 7.21008 37.31 7.10008 36.64 7.44008C35.97 7.78008 35.74 8.58008 36.18 9.25008C36.64 9.82008 37.42 10.0501 37.99 9.71008Z" fill="url(#paint15_linear_639_72850)"/>
<path d="M37.13 10.5898C36.33 10.7798 35.78 11.5398 35.99 12.1898C36.2 12.8398 37.13 13.3298 37.9 13.1398C38.67 12.9498 39.25 12.1898 39.04 11.5398C38.81 10.7798 38.01 10.4298 37.13 10.5898Z" fill="url(#paint16_linear_639_72850)"/>
<path d="M40.7001 9.88982C41.2701 9.54982 41.3701 8.85982 41.1601 8.41982C40.8201 7.84982 40.2601 7.72982 39.6901 8.07982C39.1201 8.41982 39.0201 9.10982 39.2301 9.54982C39.4601 10.0098 40.1301 10.2398 40.7001 9.88982Z" fill="url(#paint17_linear_639_72850)"/>
<path d="M42.6601 10.61C43.1201 10.38 43.2301 9.80998 43.0001 9.46998C42.7701 9.00998 42.2001 8.89998 41.8601 9.12998C41.4001 9.35998 41.2901 9.92998 41.5201 10.27C41.7501 10.71 42.3201 10.94 42.6601 10.61Z" fill="url(#paint18_linear_639_72850)"/>
<path d="M32.3599 3.36019C32.8199 3.59019 33.2599 3.47019 33.4999 3.02019C33.7299 2.56019 33.6099 2.12019 33.1599 1.88019C32.6999 1.65019 32.2599 1.77019 32.0199 2.22019C31.7799 2.67019 31.9099 3.12019 32.3599 3.36019Z" fill="url(#paint19_linear_639_72850)"/>
<path d="M38.5599 6.28016C38.8999 5.94016 38.8999 5.38016 38.5599 5.04016C38.2199 4.70016 37.6599 4.70016 37.3199 5.04016C36.9799 5.38016 36.9799 5.94016 37.3199 6.28016C37.6599 6.62016 38.2399 6.62016 38.5599 6.28016Z" fill="url(#paint20_linear_639_72850)"/>
<path d="M36.5201 6.06989C36.9801 5.60989 36.9801 4.92989 36.5201 4.48989C36.0601 4.04989 35.3801 4.02989 35.0501 4.48989C34.5901 4.94989 34.5901 5.62989 35.0501 6.06989C35.3901 6.50989 36.0801 6.50989 36.5201 6.06989Z" fill="url(#paint21_linear_639_72850)"/>
<path d="M22.2 39.81C22.87 39.12 22.87 38 22.2 37.33C21.53 36.64 20.39 36.64 19.72 37.33C19.05 38.02 19.05 39.14 19.72 39.81C20.41 40.48 21.53 40.48 22.2 39.81Z" fill="url(#paint22_linear_639_72850)"/>
<path d="M40.2799 24.0601C40.7399 23.1601 40.5099 22.1501 39.6099 21.5801C38.7099 21.1201 37.6999 21.3501 37.1299 22.2701C36.6699 23.1701 36.8999 24.1801 37.7999 24.7501C38.6999 25.3201 39.7099 24.9601 40.2799 24.0601Z" fill="url(#paint23_linear_639_72850)"/>
<path d="M44.07 23.85C44.74 24.08 45.54 23.62 45.65 22.95C45.88 22.26 45.42 21.48 44.75 21.37C44.08 21.14 43.28 21.6 43.17 22.27C42.94 22.94 43.28 23.62 44.07 23.85Z" fill="url(#paint24_linear_639_72850)"/>
<path d="M38.0101 32.3199C38.9101 31.8599 39.1501 30.7399 38.6801 29.8399C38.2201 28.9399 37.1001 28.6999 36.2001 29.1499C35.3001 29.6099 35.0601 30.7299 35.5301 31.6299C36.1001 32.4499 37.1101 32.7699 38.0101 32.3199Z" fill="url(#paint25_linear_639_72850)"/>
<path d="M39.67 28.3702C40.34 27.6802 40.34 26.5602 39.67 25.7602C39 25.0702 37.86 25.0702 37.19 25.7602C36.52 26.4502 36.52 27.5702 37.19 28.2402C37.86 28.9302 38.87 29.0602 39.67 28.3702Z" fill="url(#paint26_linear_639_72850)"/>
<path d="M44.46 15.3198C44.57 15.7798 45.03 16.0098 45.49 15.8898C45.95 15.7798 46.16 15.3198 46.06 14.8598C45.96 14.3998 45.49 14.1698 45.03 14.2898C44.57 14.4198 44.34 14.8598 44.46 15.3198Z" fill="url(#paint27_linear_639_72850)"/>
<path d="M45.4501 18.0498C44.8801 18.0498 44.3101 18.5098 44.3101 19.1898C44.3101 19.8698 44.7701 20.3298 45.4501 20.3298C46.0201 20.3298 46.5901 19.8698 46.5901 19.1898C46.5901 18.5098 46.1501 18.0498 45.4501 18.0498Z" fill="url(#paint28_linear_639_72850)"/>
<path d="M36.31 14.0801C35.28 14.0801 34.5 14.8801 34.5 15.8901C34.5 16.9001 35.3 17.7001 36.31 17.7001C37.32 17.7001 38.12 16.9001 38.12 15.8901C38.12 14.8801 37.32 14.0801 36.31 14.0801Z" fill="url(#paint29_linear_639_72850)"/>
<path d="M14.5099 36.7401C15.4099 36.5101 16.0899 35.5001 15.7499 34.6001C15.5199 33.7001 14.5099 33.0201 13.6099 33.3601C12.7099 33.5901 12.0299 34.6001 12.3699 35.5001C12.5999 36.4201 13.6099 36.9701 14.5099 36.7401Z" fill="url(#paint30_linear_639_72850)"/>
<path d="M3.19993 26.7699C3.86993 26.9999 4.66993 26.5399 4.77993 25.8699C5.00993 25.1799 4.54993 24.3999 3.87993 24.2899C3.20993 24.0599 2.40993 24.5199 2.29993 25.1899C2.06993 25.8799 2.52993 26.5399 3.19993 26.7699Z" fill="url(#paint31_linear_639_72850)"/>
<path d="M18.1 38.7598C19 38.2998 19.24 37.1798 18.77 36.2798C18.3 35.3798 17.19 35.1398 16.29 35.5898C15.39 36.0498 15.15 37.1698 15.62 38.0698C16.19 38.9898 17.3 39.2098 18.1 38.7598Z" fill="url(#paint32_linear_639_72850)"/>
<path d="M7.66009 14.7898C8.12009 15.5898 9.01009 15.8198 9.80009 15.3598C10.5901 14.8998 10.8301 14.0098 10.3701 13.2198C9.91009 12.4298 9.02009 12.1898 8.23009 12.6498C7.54009 13.1098 7.20009 13.9998 7.66009 14.7898Z" fill="url(#paint33_linear_639_72850)"/>
<path d="M27.06 43.1702C27.86 43.4002 28.74 42.9402 28.97 42.0302C29.2 41.2302 28.74 40.3502 27.83 40.1202C27.03 39.8902 26.15 40.3502 25.92 41.2602C25.81 42.1602 26.26 42.9402 27.06 43.1702Z" fill="url(#paint34_linear_639_72850)"/>
<path d="M2.98992 23.4702C3.09992 22.9002 2.75992 22.3302 2.18992 22.1202C1.61992 22.0102 1.04992 22.3502 0.839923 22.9202C0.729923 23.4902 1.06992 24.0602 1.63992 24.2702C2.20992 24.4002 2.77992 24.0402 2.98992 23.4702Z" fill="url(#paint35_linear_639_72850)"/>
<path d="M5.12999 24.1502C5.92999 24.6102 6.80999 24.3802 7.26999 23.5802C7.72999 22.7802 7.49999 21.9002 6.69999 21.4402C5.89999 20.9802 5.01999 21.2102 4.55999 22.0102C4.21999 22.8102 4.44999 23.6902 5.12999 24.1502Z" fill="url(#paint36_linear_639_72850)"/>
<path d="M32.02 34.5498C30.99 34.5498 30.21 35.3498 30.21 36.3598C30.21 37.3698 31.01 38.1698 32.02 38.1698C33.03 38.1698 33.83 37.3698 33.83 36.3598C33.83 35.3498 33.03 34.5498 32.02 34.5498Z" fill="url(#paint37_linear_639_72850)"/>
<path d="M42.7799 23.8299C41.9799 23.3699 41.0999 23.5999 40.6399 24.3999C40.1799 25.1999 40.4099 26.0799 41.2099 26.5399C42.0099 26.9999 42.8899 26.7699 43.3499 25.9699C43.8099 25.1699 43.5799 24.2699 42.7799 23.8299Z" fill="url(#paint38_linear_639_72850)"/>
<path d="M46.3601 23.8302C45.7901 23.7202 45.2201 24.0602 45.0101 24.6302C44.9001 25.2002 45.2401 25.7702 45.8101 25.9802C46.3801 26.0902 46.9501 25.7502 47.1601 25.1802C47.2701 24.4902 46.9301 23.9402 46.3601 23.8302Z" fill="url(#paint39_linear_639_72850)"/>
<path d="M46.02 20.8902C46.02 21.3502 46.36 21.7902 46.92 21.7902C47.38 21.7902 47.82 21.4502 47.82 20.8902C47.82 20.4302 47.48 19.9902 46.92 19.9902C46.35 20.1002 46.02 20.4502 46.02 20.8902Z" fill="url(#paint40_linear_639_72850)"/>
<path d="M40.2601 33.2299C39.8001 32.4299 38.9101 32.1999 38.1201 32.6599C37.3201 33.1199 37.0901 34.0099 37.5501 34.7999C38.0101 35.5899 38.9001 35.8299 39.6901 35.3699C40.4901 34.9099 40.7201 34.0199 40.2601 33.2299Z" fill="url(#paint41_linear_639_72850)"/>
<path d="M15.9001 13.4301C16.9301 13.4301 17.7101 12.6301 17.7101 11.6201C17.7101 10.6101 16.9101 9.81006 15.9001 9.81006C14.8901 9.81006 14.0901 10.6101 14.0901 11.6201C14.2001 12.6501 14.9901 13.4301 15.9001 13.4301Z" fill="url(#paint42_linear_639_72850)"/>
<path d="M33.4701 40.2499C33.4701 39.3499 32.8001 38.6699 31.8901 38.6699C30.9801 38.6699 30.3101 39.3599 30.3101 40.2499C30.3101 41.1399 30.9801 41.8299 31.8901 41.8299C32.8001 41.8299 33.4701 41.0299 33.4701 40.2499Z" fill="url(#paint43_linear_639_72850)"/>
<path d="M8.33002 26.3102C9.23002 26.7702 10.24 26.5402 10.81 25.6202C11.27 24.7202 11.04 23.7102 10.14 23.1402C9.24002 22.6802 8.23002 22.9102 7.66002 23.8302C7.20002 24.7302 7.53002 25.8702 8.33002 26.3102Z" fill="url(#paint44_linear_639_72850)"/>
<path d="M5.7201 35.84C5.9501 36.53 6.6201 36.98 7.3001 36.74C7.9801 36.5 8.4401 35.84 8.2001 35.16C7.9701 34.47 7.3001 34.02 6.6201 34.26C5.9501 34.47 5.6101 35.16 5.7201 35.84Z" fill="url(#paint45_linear_639_72850)"/>
<path d="M3.37012 30.7499C3.37012 31.4399 3.94012 32.0999 4.72012 32.0999C5.39012 32.0999 6.07012 31.5299 6.07012 30.7499C6.07012 30.0599 5.50012 29.3999 4.72012 29.3999C3.94012 29.3999 3.37012 29.9699 3.37012 30.7499Z" fill="url(#paint46_linear_639_72850)"/>
<path d="M9.31991 31.9501C9.31991 31.0501 8.64991 30.3701 7.73991 30.3701C6.82991 30.3701 6.15991 31.0601 6.15991 31.9501C6.15991 32.8401 6.82991 33.5301 7.73991 33.5301C8.64991 33.5301 9.31991 32.8601 9.31991 31.9501Z" fill="url(#paint47_linear_639_72850)"/>
<path d="M4.80012 27.0899C4.57012 27.8899 5.03012 28.7699 5.94012 28.9999C6.74012 29.2299 7.62012 28.7699 7.85012 27.8599C8.08012 27.0599 7.62012 26.1799 6.71012 25.9499C5.79012 25.7199 5.03012 26.2899 4.80012 27.0899Z" fill="url(#paint48_linear_639_72850)"/>
<path d="M12.62 39.7898C13.08 40.5898 13.97 40.8198 14.76 40.3598C15.56 39.8998 15.79 39.0098 15.33 38.2198C14.87 37.4298 13.98 37.1898 13.19 37.6498C12.4 38.1098 12.16 39.1198 12.62 39.7898Z" fill="url(#paint49_linear_639_72850)"/>
<path d="M11.6901 29.05C11.9201 28.15 11.3501 27.14 10.4501 26.91C9.55012 26.68 8.54012 27.25 8.31012 28.15C8.08012 29.05 8.65012 30.06 9.55012 30.29C10.4501 30.63 11.4601 30.04 11.6901 29.05Z" fill="url(#paint50_linear_639_72850)"/>
<path d="M11.59 33.8998C12.62 33.8998 13.4 33.0998 13.4 32.0898C13.4 31.0798 12.6 30.2798 11.59 30.2798C10.58 30.2798 9.78003 31.0798 9.78003 32.0898C9.78003 33.0998 10.6 33.8998 11.59 33.8998Z" fill="url(#paint51_linear_639_72850)"/>
<path d="M9.88004 15.7998C8.98004 16.2598 8.74004 17.3798 9.21004 18.2798C9.68004 19.1798 10.79 19.4198 11.69 18.9698C12.59 18.5098 12.83 17.3898 12.36 16.4898C11.9 15.5698 10.78 15.2498 9.88004 15.7998Z" fill="url(#paint52_linear_639_72850)"/>
<path d="M12.49 12.4199C11.59 12.6499 10.91 13.6599 11.25 14.5599C11.48 15.4599 12.49 16.1399 13.39 15.7999C14.29 15.5699 14.97 14.5599 14.63 13.6599C14.5 12.7399 13.49 12.1899 12.49 12.4199Z" fill="url(#paint53_linear_639_72850)"/>
<path d="M17.68 9.4698C17.45 10.3698 18.02 11.3798 18.92 11.6098C19.82 11.8398 20.83 11.2698 21.06 10.3698C21.29 9.4698 20.72 8.4598 19.82 8.2298C18.9 7.9998 17.91 8.5698 17.68 9.4698Z" fill="url(#paint54_linear_639_72850)"/>
<path d="M18.92 5.84C18.69 6.64 19.15 7.52 20.06 7.75C20.86 7.98 21.74 7.52 21.97 6.61C22.2 5.81 21.74 4.93 20.83 4.7C20.03 4.59 19.13 5.04 18.92 5.84Z" fill="url(#paint55_linear_639_72850)"/>
<path d="M17.1401 42.2898C17.7101 42.8598 18.7201 42.8598 19.3901 42.2898C19.9601 41.7198 19.9601 40.7098 19.3901 40.0198C18.8201 39.4498 17.8101 39.4498 17.1401 40.0198C16.4501 40.5898 16.4501 41.5998 17.1401 42.2898Z" fill="url(#paint56_linear_639_72850)"/>
<path d="M8.32989 19.6298C7.65989 20.3198 7.65989 21.4398 8.32989 22.1098C8.99989 22.7998 10.1399 22.7998 10.8099 22.1098C11.4799 21.4198 11.4799 20.2998 10.8099 19.6298C10.1399 18.9398 9.01989 18.9398 8.32989 19.6298Z" fill="url(#paint57_linear_639_72850)"/>
<path d="M15.9799 9.34994C16.8799 9.34994 17.5599 8.65994 17.5599 7.76994C17.5599 6.87994 16.8899 6.18994 15.9799 6.18994C15.0699 6.18994 14.3999 6.87994 14.3999 7.76994C14.3999 8.65994 15.0899 9.34994 15.9799 9.34994Z" fill="url(#paint58_linear_639_72850)"/>
<path d="M25.7801 8.32021C25.1101 9.01021 25.1101 10.1302 25.7801 10.8002C26.4501 11.4902 27.5901 11.4902 28.2601 10.8002C28.9301 10.1102 28.9301 8.99021 28.2601 8.32021C27.5901 7.52021 26.4501 7.52021 25.7801 8.32021Z" fill="url(#paint59_linear_639_72850)"/>
<path d="M26.7001 44.7698C26.9301 44.0798 26.4701 43.2998 25.8001 43.1898C25.1301 42.9598 24.3301 43.4198 24.2201 44.0898C23.9901 44.7798 24.4501 45.5598 25.1201 45.6698C25.8101 45.8998 26.5901 45.5598 26.7001 44.7698Z" fill="url(#paint60_linear_639_72850)"/>
<path d="M23.3999 45.0201C22.8299 44.9101 22.2599 45.2501 22.0499 45.8201C21.9399 46.3901 22.2799 46.9601 22.8499 47.1701C23.4199 47.2801 23.9899 46.9401 24.1999 46.3701C24.3299 45.8001 23.9699 45.2301 23.3999 45.0201Z" fill="url(#paint61_linear_639_72850)"/>
<path d="M33.7199 45.1298C33.6099 44.6698 33.1499 44.4398 32.6899 44.5598C32.2299 44.6698 32.0199 45.1298 32.1199 45.5898C32.2199 46.0498 32.6899 46.2798 33.1499 46.1598C33.4899 46.0298 33.8399 45.5898 33.7199 45.1298Z" fill="url(#paint62_linear_639_72850)"/>
<path d="M24.14 42.86C24.6 42.06 24.37 41.18 23.57 40.72C22.77 40.26 21.89 40.49 21.43 41.29C20.97 42.09 21.2 42.97 22 43.43C22.8 43.89 23.68 43.56 24.14 42.86Z" fill="url(#paint63_linear_639_72850)"/>
<path d="M27.0399 46.0098C26.5799 46.0098 26.1399 46.3498 26.1399 46.9098C26.1399 47.3698 26.4799 47.8098 27.0399 47.8098C27.4999 47.8098 27.9399 47.4698 27.9399 46.9098C27.8099 46.4498 27.4799 46.0098 27.0399 46.0098Z" fill="url(#paint64_linear_639_72850)"/>
<path d="M30.65 42.0601C29.98 42.0601 29.3 42.6301 29.3 43.4101C29.3 44.1901 29.87 44.7601 30.65 44.7601C31.32 44.7601 32 44.1901 32 43.4101C32 42.6301 31.43 42.0601 30.65 42.0601Z" fill="url(#paint65_linear_639_72850)"/>
<path d="M28.85 44.4302C28.28 44.4302 27.71 44.8902 27.71 45.5702C27.71 46.2502 28.17 46.7102 28.85 46.7102C29.42 46.7102 29.99 46.2502 29.99 45.5702C29.99 45.0002 29.42 44.4302 28.85 44.4302Z" fill="url(#paint66_linear_639_72850)"/>
<path d="M21.2801 46.1402C20.8201 46.0302 20.3801 46.2502 20.2501 46.7102C20.1401 47.1702 20.3601 47.6102 20.8201 47.7402C21.2801 47.8702 21.7201 47.6302 21.8501 47.1702C21.9801 46.7102 21.7401 46.2502 21.2801 46.1402Z" fill="url(#paint67_linear_639_72850)"/>
<path d="M10.7899 37.3898C11.5899 37.1598 12.1399 36.2498 11.9299 35.4798C11.7199 34.7098 10.7899 34.1298 10.0199 34.3398C9.21993 34.5698 8.66993 35.4798 8.87993 36.2498C9.10993 37.1498 10.0199 37.5998 10.7899 37.3898Z" fill="url(#paint68_linear_639_72850)"/>
<path d="M11.44 41.93C10.98 42.39 10.98 43.07 11.44 43.51C11.9 43.95 12.58 43.97 13.02 43.51C13.46 43.05 13.48 42.37 13.02 41.93C12.58 41.47 11.88 41.47 11.44 41.93Z" fill="url(#paint69_linear_639_72850)"/>
<path d="M9.87997 38.34C9.20997 38.68 8.97997 39.48 9.41997 40.15C9.75997 40.84 10.56 40.95 11.23 40.61C11.9 40.27 12.13 39.47 11.69 38.8C11.23 38.13 10.55 38 9.87997 38.34Z" fill="url(#paint70_linear_639_72850)"/>
<path d="M15.6401 44.64C15.1801 44.41 14.7401 44.53 14.5001 44.98C14.2701 45.44 14.3901 45.88 14.8401 46.12C15.3001 46.35 15.7401 46.23 15.9801 45.78C16.2101 45.32 15.9801 44.86 15.6401 44.64Z" fill="url(#paint71_linear_639_72850)"/>
<path d="M18.0399 44.2199C17.4699 43.8799 16.8999 44.1099 16.5699 44.6799C16.2399 45.2499 16.4599 45.8199 17.0299 46.1499C17.5999 46.4799 18.1699 46.2599 18.4999 45.6899C18.7299 45.0999 18.4999 44.5499 18.0399 44.2199Z" fill="url(#paint72_linear_639_72850)"/>
<path d="M21.2799 44.7701C21.6199 44.0801 21.3899 43.3001 20.8199 42.9601C20.2499 42.6201 19.3499 42.8501 19.0099 43.4201C18.6699 44.1101 18.8999 44.8901 19.4699 45.2301C20.0399 45.6901 20.8199 45.4601 21.2799 44.7701Z" fill="url(#paint73_linear_639_72850)"/>
<path d="M14.0901 41.4701C13.5201 42.0401 13.5201 42.8201 14.0901 43.3801C14.6601 43.9501 15.4401 43.8401 15.9001 43.3801C16.4701 42.8101 16.4701 42.0301 15.9001 41.4701C15.4401 41.0301 14.6601 41.0301 14.0901 41.4701Z" fill="url(#paint74_linear_639_72850)"/>
<path d="M9.33996 41.8502C8.99996 42.1902 8.99996 42.7502 9.33996 43.0902C9.67996 43.4302 10.24 43.4302 10.58 43.0902C10.92 42.7502 10.92 42.1902 10.58 41.8502C10.22 41.5102 9.65996 41.5102 9.33996 41.8502Z" fill="url(#paint75_linear_639_72850)"/>
<path d="M43.43 35.0598C42.97 34.5998 42.29 34.5998 41.85 35.0598C41.41 35.5198 41.39 36.1998 41.85 36.6398C42.31 37.0798 42.99 37.0998 43.43 36.6398C43.87 36.1798 43.89 35.4998 43.43 35.0598Z" fill="url(#paint76_linear_639_72850)"/>
<path d="M45.2599 28.5802C45.5999 27.8902 45.3699 27.1102 44.7999 26.7702C44.1299 26.4302 43.3299 26.6602 42.9899 27.2302C42.6499 27.9202 42.8799 28.7002 43.4499 29.0402C44.1399 29.3802 44.9199 29.1502 45.2599 28.5802Z" fill="url(#paint77_linear_639_72850)"/>
<path d="M41.7101 37.4298C41.3701 37.7698 41.3701 38.3298 41.7101 38.6698C42.0501 39.0098 42.6101 39.0098 42.9501 38.6698C43.2901 38.3298 43.2901 37.7698 42.9501 37.4298C42.4901 37.0898 42.0301 37.0898 41.7101 37.4298Z" fill="url(#paint78_linear_639_72850)"/>
<path d="M45.6 29.61C45.03 29.27 44.46 29.5 44.13 30.07C43.8 30.64 44.02 31.21 44.47 31.54C45.04 31.88 45.61 31.65 45.94 31.2C46.28 30.51 46.17 29.94 45.6 29.6V29.61Z" fill="url(#paint79_linear_639_72850)"/>
<path d="M47.0101 26.2101C46.5501 26.1001 46.1101 26.3201 45.9801 26.7801C45.8701 27.2401 46.0901 27.6801 46.5501 27.8101C47.0101 27.9201 47.4501 27.7001 47.5801 27.2401C47.8101 26.7801 47.4701 26.3401 47.0101 26.2101Z" fill="url(#paint80_linear_639_72850)"/>
<path d="M35.3001 43.3002C35.1901 42.7302 34.5001 42.4002 33.9501 42.5002C33.4001 42.6002 33.0501 43.3002 33.1501 43.8502C33.2501 44.4002 33.9501 44.7502 34.5001 44.6502C35.1901 44.4202 35.5301 43.8502 35.3001 43.3002Z" fill="url(#paint81_linear_639_72850)"/>
<path d="M45.6801 32.0701C45.2201 31.8401 44.7801 31.9601 44.5401 32.4101C44.3101 32.8701 44.4301 33.3101 44.8801 33.5501C45.3401 33.7801 45.7801 33.6601 46.0201 33.2101C46.2501 32.7501 46.1301 32.3101 45.6801 32.0701Z" fill="url(#paint82_linear_639_72850)"/>
<path d="M43.3101 33.9002C43.8801 33.3302 43.8801 32.5502 43.3101 31.9902C42.7401 31.4302 41.9601 31.4202 41.4001 31.9902C40.8401 32.5602 40.8301 33.3402 41.4001 33.9002C41.9701 34.3602 42.8701 34.3602 43.3101 33.9002Z" fill="url(#paint83_linear_639_72850)"/>
<path d="M37.6699 41.6202C37.2099 41.8502 37.0999 42.4202 37.3299 42.7602C37.5599 43.2202 38.1299 43.3302 38.4699 43.1002C38.9299 42.8702 39.0399 42.3002 38.8099 41.9602C38.5799 41.5002 38.0099 41.3902 37.6699 41.6202Z" fill="url(#paint84_linear_639_72850)"/>
<path d="M37.3401 37.1801C37.1101 36.3801 36.2001 35.8301 35.4301 36.0401C34.6301 36.2701 34.0801 37.1801 34.2901 37.9501C34.5001 38.7201 35.4301 39.3001 36.2001 39.0901C37.1201 38.8801 37.5501 37.9501 37.3401 37.1801Z" fill="url(#paint85_linear_639_72850)"/>
<path d="M36.79 40.6102C36.56 39.9202 35.89 39.4702 35.21 39.7102C34.53 39.9502 34.07 40.6102 34.31 41.2902C34.54 41.9802 35.21 42.4302 35.89 42.1902C36.56 42.0802 36.9 41.3902 36.79 40.6102Z" fill="url(#paint86_linear_639_72850)"/>
<path d="M42.1699 30.9602C42.7399 30.3902 42.7399 29.3802 42.1699 28.6902C41.5999 28.1202 40.5899 28.1202 39.9199 28.6902C39.3499 29.2602 39.3499 30.2702 39.9199 30.9602C40.5899 31.5302 41.4999 31.5302 42.1699 30.9602Z" fill="url(#paint87_linear_639_72850)"/>
<path d="M38.4501 39.3698C37.8801 39.7098 37.7801 40.3998 37.9901 40.8398C38.3301 41.4098 39.0201 41.5298 39.4601 41.2998C40.0301 40.9598 40.1301 40.3998 39.9201 39.8298C39.5801 39.1398 38.9101 39.0098 38.4501 39.3698Z" fill="url(#paint88_linear_639_72850)"/>
<path d="M38.7899 36.2798C38.1199 36.6198 37.8899 37.4199 38.3299 38.0899C38.6699 38.7799 39.4699 38.9899 40.1399 38.5498C40.8099 38.2099 41.0399 37.4099 40.5999 36.7399C40.2599 36.1499 39.4599 35.9198 38.7899 36.2798Z" fill="url(#paint89_linear_639_72850)"/>
<path d="M26.7201 1.89014C27.1801 2.00014 27.6201 1.78014 27.7501 1.32014C27.8601 0.860139 27.6401 0.420139 27.1801 0.290139C26.7201 0.180139 26.2801 0.400139 26.1501 0.860139C26.0201 1.30014 26.2601 1.76014 26.7201 1.89014Z" fill="url(#paint90_linear_639_72850)"/>
<path d="M14.28 2.8901C14.39 3.3501 14.85 3.5801 15.31 3.4601C15.77 3.3501 15.98 2.8901 15.88 2.4301C15.77 1.9701 15.31 1.7401 14.85 1.8601C14.39 1.9901 14.16 2.4501 14.28 2.8901Z" fill="url(#paint91_linear_639_72850)"/>
<path d="M16 4.6C16 5.29 16.57 5.95 17.35 5.95C18.13 5.95 18.7 5.38 18.7 4.6C18.7 3.82 18.13 3.25 17.35 3.25C16.55 3.38 16 3.94 16 4.6Z" fill="url(#paint92_linear_639_72850)"/>
<path d="M13.9801 5.52005C14.5501 5.41005 14.8801 4.72005 14.7801 4.17005C14.6801 3.62005 13.9801 3.27005 13.4301 3.37005C12.8801 3.47005 12.5301 4.17005 12.6301 4.72005C12.8601 5.29005 13.4301 5.62005 13.9801 5.52005Z" fill="url(#paint93_linear_639_72850)"/>
<path d="M19.0299 3.57004C19.5999 3.57004 20.1699 3.11004 20.1699 2.43004C20.1699 1.75004 19.7099 1.29004 19.0299 1.29004C18.4599 1.29004 17.8899 1.75004 17.8899 2.43004C17.9999 3.00004 18.4599 3.57004 19.0299 3.57004Z" fill="url(#paint94_linear_639_72850)"/>
<path d="M9.54993 8.78C10.1199 8.44 10.2199 7.75 10.0099 7.31C9.77993 6.85 8.97993 6.62 8.53993 6.85C7.96993 7.19 7.86993 7.75 8.07993 8.32C8.28993 8.91 8.97993 9.01 9.54993 8.78Z" fill="url(#paint95_linear_639_72850)"/>
<path d="M11.23 7.38983C11.46 8.07983 12.13 8.52983 12.81 8.28983C13.49 8.04983 13.95 7.38983 13.71 6.70983C13.48 6.01983 12.81 5.56983 12.13 5.80983C11.44 5.93983 10.99 6.60983 11.23 7.38983Z" fill="url(#paint96_linear_639_72850)"/>
<path d="M10.5799 10.8202C10.8099 11.6202 11.7199 12.1702 12.4899 11.9602C13.2599 11.7502 13.8399 10.8202 13.6299 10.0502C13.3999 9.2502 12.4899 8.7002 11.7199 8.9102C10.9199 9.1202 10.3699 10.0502 10.5799 10.8202Z" fill="url(#paint97_linear_639_72850)"/>
<path d="M10.33 6.40002C10.79 6.17002 10.9 5.60002 10.67 5.26002C10.44 4.80002 9.87004 4.69002 9.53004 4.92002C9.07004 5.15002 8.96004 5.72002 9.19004 6.06002C9.42004 6.50002 9.88004 6.63002 10.33 6.40002Z" fill="url(#paint98_linear_639_72850)"/>
<path d="M29.9801 3.79977C30.5501 4.13977 31.1201 3.90977 31.4501 3.33977C31.7801 2.76977 31.5601 2.19977 30.9901 1.86977C30.4201 1.52977 29.8501 1.75977 29.5201 2.32977C29.3101 2.91977 29.4101 3.56977 29.9801 3.79977Z" fill="url(#paint99_linear_639_72850)"/>
<path d="M23.76 5.11983C23.3 5.91983 23.53 6.79983 24.33 7.25983C25.13 7.71983 26.01 7.48983 26.47 6.68983C26.93 5.88983 26.7 5.00983 25.9 4.54983C25.1 4.10983 24.2 4.43983 23.76 5.11983Z" fill="url(#paint100_linear_639_72850)"/>
<path d="M26.7001 3.2501C26.3601 3.9401 26.5901 4.7201 27.1601 5.0601C27.8301 5.4001 28.6301 5.1701 28.9701 4.6001C29.3101 3.9101 29.0801 3.1301 28.5101 2.7901C27.8401 2.3301 27.0401 2.5601 26.7001 3.2501Z" fill="url(#paint101_linear_639_72850)"/>
<path d="M20.9801 1.98994C21.4401 1.98994 21.8801 1.64994 21.8801 1.08994C21.8801 0.629941 21.5401 0.189941 20.9801 0.189941C20.5201 0.189941 20.1801 0.529941 20.0801 0.989941C20.0801 1.53994 20.4201 1.99994 20.9801 1.99994V1.98994Z" fill="url(#paint102_linear_639_72850)"/>
<path d="M21.1901 3.22996C20.9601 3.91996 21.4201 4.69996 22.0901 4.80996C22.7601 5.03996 23.5601 4.57996 23.6701 3.90996C23.9001 3.21996 23.4401 2.43996 22.7701 2.32996C22.1001 2.09996 21.4201 2.55996 21.1901 3.22996Z" fill="url(#paint103_linear_639_72850)"/>
<path d="M24.54 3.00018C25.11 3.11018 25.68 2.77018 25.89 2.20018C26 1.63018 25.66 1.06018 25.09 0.850177C24.52 0.740177 23.95 1.08018 23.74 1.65018C23.53 2.22018 23.87 2.79018 24.54 3.00018Z" fill="url(#paint104_linear_639_72850)"/>
<path d="M6.28992 10.6102C6.62992 10.2702 6.62992 9.71023 6.28992 9.37023C5.94992 9.03023 5.38992 9.03023 5.04992 9.37023C4.70992 9.71023 4.70992 10.2702 5.04992 10.6102C5.38992 10.9702 5.94992 10.9702 6.28992 10.6102Z" fill="url(#paint105_linear_639_72850)"/>
<path d="M3.56003 28.9198C3.56003 28.3498 3.10003 27.7798 2.42003 27.7798C1.85003 27.7798 1.28003 28.2398 1.28003 28.9198C1.28003 29.4898 1.74003 30.0598 2.42003 30.0598C3.10003 30.0598 3.56003 29.4898 3.56003 28.9198Z" fill="url(#paint106_linear_639_72850)"/>
<path d="M1.97993 27.0899C1.97993 26.6299 1.63993 26.1899 1.07993 26.1899C0.619932 26.1899 0.179932 26.5299 0.179932 27.0899C0.179932 27.5499 0.519932 27.8899 1.07993 27.8899C1.63993 27.8899 1.97993 27.5499 1.97993 27.0899Z" fill="url(#paint107_linear_639_72850)"/>
<path d="M0.869904 21.8799C1.3299 21.9899 1.7699 21.7699 1.8999 21.3099C2.0099 20.8499 1.7899 20.4099 1.3299 20.2799C0.869904 20.1699 0.429904 20.3899 0.299904 20.8499C0.189904 21.2099 0.409904 21.7699 0.869904 21.8799Z" fill="url(#paint108_linear_639_72850)"/>
<path d="M2.19002 15.91C2.65002 16.14 3.09002 16.02 3.33002 15.57C3.56002 15.11 3.44002 14.67 2.99002 14.43C2.53002 14.2 2.09002 14.32 1.85002 14.77C1.62002 15.23 1.85002 15.69 2.19002 15.91Z" fill="url(#paint109_linear_639_72850)"/>
<path d="M5.24 37.4298C4.78 37.6598 4.67 38.2298 4.9 38.5698C5.13 39.0298 5.7 39.1398 6.04 38.9098C6.5 38.6798 6.61 38.1098 6.38 37.7698C6.15 37.3098 5.71 37.1998 5.24 37.4298Z" fill="url(#paint110_linear_639_72850)"/>
<path d="M3.43012 32.6401C3.32012 32.1801 2.86012 31.9501 2.40012 32.0701C1.94012 32.1801 1.73012 32.6401 1.83012 33.1001C1.93012 33.5601 2.40012 33.7901 2.86012 33.6701C3.32012 33.5601 3.66012 33.1001 3.43012 32.6401Z" fill="url(#paint111_linear_639_72850)"/>
<path d="M5.47 34.0302C5.36 33.4602 4.67001 33.1302 4.12001 33.2302C3.57 33.3302 3.22001 34.0302 3.32001 34.5802C3.42001 35.1302 4.12001 35.4802 4.67001 35.3802C5.22001 35.2802 5.59 34.5802 5.47 34.0302Z" fill="url(#paint112_linear_639_72850)"/>
<path d="M2.77993 19.5201C2.43993 20.2101 2.66993 20.9901 3.23993 21.3301C3.90993 21.6701 4.70993 21.4401 5.04993 20.8701C5.38993 20.1801 5.15993 19.4001 4.58993 19.0601C3.89993 18.6001 3.11993 18.8301 2.77993 19.5201Z" fill="url(#paint113_linear_639_72850)"/>
<path d="M4.57008 14.0999C4.00008 14.6699 4.00008 15.4499 4.57008 16.0099C5.14008 16.5699 5.92008 16.5799 6.48008 16.0099C7.04008 15.4399 7.05008 14.6599 6.48008 14.0999C5.91008 13.6399 5.13008 13.6399 4.57008 14.0999Z" fill="url(#paint114_linear_639_72850)"/>
<path d="M5.81007 17.1701C5.24007 17.7401 5.24007 18.7501 5.81007 19.3101C6.38007 19.8701 7.39007 19.8801 8.06007 19.3101C8.63007 18.7401 8.63007 17.7301 8.06007 17.0401C7.39007 16.4901 6.38007 16.4901 5.81007 17.1701Z" fill="url(#paint115_linear_639_72850)"/>
<path d="M1.97988 16.8898C1.63988 17.4598 1.86988 18.0298 2.43988 18.3598C3.00988 18.6898 3.57988 18.4698 3.90988 17.8998C4.23988 17.3298 4.01988 16.7598 3.44988 16.4298C2.87988 16.2198 2.20988 16.4298 1.97988 16.8898Z" fill="url(#paint116_linear_639_72850)"/>
<path d="M7.31996 38.0802C6.74996 38.4202 6.64996 39.1102 6.85996 39.5502C7.19996 40.1202 7.88996 40.2402 8.32996 39.8902C8.89996 39.5502 8.99996 38.8602 8.78996 38.4202C8.44996 37.9802 7.77996 37.7502 7.31996 38.0802Z" fill="url(#paint117_linear_639_72850)"/>
<path d="M6.02008 12.98C6.48008 12.52 6.48008 11.84 6.02008 11.4C5.56008 10.96 4.88008 10.94 4.44008 11.4C4.00008 11.86 3.98008 12.54 4.44008 12.98C4.90008 13.42 5.58008 13.42 6.02008 12.98Z" fill="url(#paint118_linear_639_72850)"/>
<path d="M9.10993 11.7002C9.77993 11.3602 10.0099 10.5602 9.56993 9.89016C9.22993 9.20016 8.42993 8.99016 7.75994 9.43016C7.08994 9.77016 6.95994 10.5702 7.29994 11.2402C7.75994 11.8102 8.53993 12.0402 9.10993 11.7002Z" fill="url(#paint119_linear_639_72850)"/>
</g>
<defs>
<linearGradient id="paint0_linear_639_72850" x1="19.5901" y1="-5.28006" x2="52.6601" y2="27.7299" gradientUnits="userSpaceOnUse">
<stop stop-color="#A8D061"/>
<stop offset="1" stop-color="#219ABB"/>
</linearGradient>
<linearGradient id="paint1_linear_639_72850" x1="20.81" y1="-6.47024" x2="53.9" y2="26.5098" gradientUnits="userSpaceOnUse">
<stop stop-color="#A8D061"/>
<stop offset="1" stop-color="#219ABB"/>
</linearGradient>
<linearGradient id="paint2_linear_639_72850" x1="16.4401" y1="-2.09996" x2="49.5101" y2="30.9" gradientUnits="userSpaceOnUse">
<stop stop-color="#A8D061"/>
<stop offset="1" stop-color="#219ABB"/>
</linearGradient>
<linearGradient id="paint3_linear_639_72850" x1="7.67001" y1="6.66996" x2="40.74" y2="39.67" gradientUnits="userSpaceOnUse">
<stop stop-color="#A8D061"/>
<stop offset="1" stop-color="#219ABB"/>
</linearGradient>
<linearGradient id="paint4_linear_639_72850" x1="2.41001" y1="11.93" x2="35.47" y2="44.94" gradientUnits="userSpaceOnUse">
<stop stop-color="#A8D061"/>
<stop offset="1" stop-color="#219ABB"/>
</linearGradient>
<linearGradient id="paint5_linear_639_72850" x1="18.5399" y1="-4.26992" x2="51.6299" y2="28.7401" gradientUnits="userSpaceOnUse">
<stop stop-color="#A8D061"/>
<stop offset="1" stop-color="#219ABB"/>
</linearGradient>
<linearGradient id="paint6_linear_639_72850" x1="17.1" y1="-2.73984" x2="50.17" y2="30.2602" gradientUnits="userSpaceOnUse">
<stop stop-color="#A8D061"/>
<stop offset="1" stop-color="#219ABB"/>
</linearGradient>
<linearGradient id="paint7_linear_639_72850" x1="0.170061" y1="14.1902" x2="33.2601" y2="47.1902" gradientUnits="userSpaceOnUse">
<stop stop-color="#A8D061"/>
<stop offset="1" stop-color="#219ABB"/>
</linearGradient>
<linearGradient id="paint8_linear_639_72850" x1="14.1499" y1="0.209941" x2="47.2199" y2="33.22" gradientUnits="userSpaceOnUse">
<stop stop-color="#A8D061"/>
<stop offset="1" stop-color="#219ABB"/>
</linearGradient>
<linearGradient id="paint9_linear_639_72850" x1="17.55" y1="-3.25" x2="50.61" y2="29.76" gradientUnits="userSpaceOnUse">
<stop stop-color="#A8D061"/>
<stop offset="1" stop-color="#219ABB"/>
</linearGradient>
<linearGradient id="paint10_linear_639_72850" x1="19.2101" y1="-4.88982" x2="52.3001" y2="28.1102" gradientUnits="userSpaceOnUse">
<stop stop-color="#A8D061"/>
<stop offset="1" stop-color="#219ABB"/>
</linearGradient>
<linearGradient id="paint11_linear_639_72850" x1="17.71" y1="-3.36996" x2="50.78" y2="29.63" gradientUnits="userSpaceOnUse">
<stop stop-color="#A8D061"/>
<stop offset="1" stop-color="#219ABB"/>
</linearGradient>
<linearGradient id="paint12_linear_639_72850" x1="21.3699" y1="-7.03997" x2="54.4399" y2="25.97" gradientUnits="userSpaceOnUse">
<stop stop-color="#A8D061"/>
<stop offset="1" stop-color="#219ABB"/>
</linearGradient>
<linearGradient id="paint13_linear_639_72850" x1="20.1299" y1="-5.83011" x2="53.2099" y2="27.1699" gradientUnits="userSpaceOnUse">
<stop stop-color="#A8D061"/>
<stop offset="1" stop-color="#219ABB"/>
</linearGradient>
<linearGradient id="paint14_linear_639_72850" x1="21.99" y1="-7.68995" x2="55.08" y2="25.29" gradientUnits="userSpaceOnUse">
<stop stop-color="#A8D061"/>
<stop offset="1" stop-color="#219ABB"/>
</linearGradient>
<linearGradient id="paint15_linear_639_72850" x1="21.54" y1="-7.21992" x2="54.6" y2="25.7901" gradientUnits="userSpaceOnUse">
<stop stop-color="#A8D061"/>
<stop offset="1" stop-color="#219ABB"/>
</linearGradient>
<linearGradient id="paint16_linear_639_72850" x1="21.29" y1="-4.3502" x2="51.71" y2="26.0098" gradientUnits="userSpaceOnUse">
<stop stop-color="#A8D061"/>
<stop offset="1" stop-color="#219ABB"/>
</linearGradient>
<linearGradient id="paint17_linear_639_72850" x1="22.7301" y1="-8.43018" x2="55.8201" y2="24.5698" gradientUnits="userSpaceOnUse">
<stop stop-color="#A8D061"/>
<stop offset="1" stop-color="#219ABB"/>
</linearGradient>
<linearGradient id="paint18_linear_639_72850" x1="23.3301" y1="-9.00002" x2="56.4201" y2="24.01" gradientUnits="userSpaceOnUse">
<stop stop-color="#A8D061"/>
<stop offset="1" stop-color="#219ABB"/>
</linearGradient>
<linearGradient id="paint19_linear_639_72850" x1="22.2099" y1="-7.88981" x2="55.2999" y2="25.0902" gradientUnits="userSpaceOnUse">
<stop stop-color="#A8D061"/>
<stop offset="1" stop-color="#219ABB"/>
</linearGradient>
<linearGradient id="paint20_linear_639_72850" x1="23.2599" y1="-8.96985" x2="56.3499" y2="24.0202" gradientUnits="userSpaceOnUse">
<stop stop-color="#A8D061"/>
<stop offset="1" stop-color="#219ABB"/>
</linearGradient>
<linearGradient id="paint21_linear_639_72850" x1="22.3801" y1="-8.08012" x2="55.4701" y2="24.9199" gradientUnits="userSpaceOnUse">
<stop stop-color="#A8D061"/>
<stop offset="1" stop-color="#219ABB"/>
</linearGradient>
<linearGradient id="paint22_linear_639_72850" x1="-1.61998" y1="16.05" x2="31.44" y2="49.03" gradientUnits="userSpaceOnUse">
<stop stop-color="#A8D061"/>
<stop offset="1" stop-color="#219ABB"/>
</linearGradient>
<linearGradient id="paint23_linear_639_72850" x1="14.9299" y1="-0.5399" x2="47.9899" y2="32.4401" gradientUnits="userSpaceOnUse">
<stop stop-color="#A8D061"/>
<stop offset="1" stop-color="#219ABB"/>
</linearGradient>
<linearGradient id="paint24_linear_639_72850" x1="18.04" y1="-3.69999" x2="51.1" y2="29.31" gradientUnits="userSpaceOnUse">
<stop stop-color="#A8D061"/>
<stop offset="1" stop-color="#219ABB"/>
</linearGradient>
<linearGradient id="paint25_linear_639_72850" x1="10.3401" y1="4.01987" x2="43.4301" y2="37.0199" gradientUnits="userSpaceOnUse">
<stop stop-color="#A8D061"/>
<stop offset="1" stop-color="#219ABB"/>
</linearGradient>
<linearGradient id="paint26_linear_639_72850" x1="12.84" y1="1.50018" x2="45.93" y2="34.4802" gradientUnits="userSpaceOnUse">
<stop stop-color="#A8D061"/>
<stop offset="1" stop-color="#219ABB"/>
</linearGradient>
<linearGradient id="paint27_linear_639_72850" x1="22.2099" y1="-7.89021" x2="55.2999" y2="25.0898" gradientUnits="userSpaceOnUse">
<stop stop-color="#A8D061"/>
<stop offset="1" stop-color="#219ABB"/>
</linearGradient>
<linearGradient id="paint28_linear_639_72850" x1="20.2501" y1="-5.9502" x2="53.3401" y2="27.0498" gradientUnits="userSpaceOnUse">
<stop stop-color="#A8D061"/>
<stop offset="1" stop-color="#219ABB"/>
</linearGradient>
<linearGradient id="paint29_linear_639_72850" x1="17.35" y1="-3.01993" x2="50.42" y2="29.9701" gradientUnits="userSpaceOnUse">
<stop stop-color="#A8D061"/>
<stop offset="1" stop-color="#219ABB"/>
</linearGradient>
<linearGradient id="paint30_linear_639_72850" x1="-3.32012" y1="17.7201" x2="29.7499" y2="50.7001" gradientUnits="userSpaceOnUse">
<stop stop-color="#A8D061"/>
<stop offset="1" stop-color="#219ABB"/>
</linearGradient>
<linearGradient id="paint31_linear_639_72850" x1="-3.80007" y1="18.1899" x2="29.2599" y2="51.1899" gradientUnits="userSpaceOnUse">
<stop stop-color="#A8D061"/>
<stop offset="1" stop-color="#219ABB"/>
</linearGradient>
<linearGradient id="paint32_linear_639_72850" x1="-2.84005" y1="17.1698" x2="30.2499" y2="50.1798" gradientUnits="userSpaceOnUse">
<stop stop-color="#A8D061"/>
<stop offset="1" stop-color="#219ABB"/>
</linearGradient>
<linearGradient id="paint33_linear_639_72850" x1="4.70009" y1="9.70982" x2="37.7801" y2="42.6898" gradientUnits="userSpaceOnUse">
<stop stop-color="#A8D061"/>
<stop offset="1" stop-color="#219ABB"/>
</linearGradient>
<linearGradient id="paint34_linear_639_72850" x1="0.0699803" y1="14.3102" x2="33.13" y2="47.3002" gradientUnits="userSpaceOnUse">
<stop stop-color="#A8D061"/>
<stop offset="1" stop-color="#219ABB"/>
</linearGradient>
<linearGradient id="paint35_linear_639_72850" x1="-3.47008" y1="17.8302" x2="29.5999" y2="50.8102" gradientUnits="userSpaceOnUse">
<stop stop-color="#A8D061"/>
<stop offset="1" stop-color="#219ABB"/>
</linearGradient>
<linearGradient id="paint36_linear_639_72850" x1="-1.25001" y1="15.6102" x2="31.83" y2="48.6202" gradientUnits="userSpaceOnUse">
<stop stop-color="#A8D061"/>
<stop offset="1" stop-color="#219ABB"/>
</linearGradient>
<linearGradient id="paint37_linear_639_72850" x1="4.96994" y1="9.36981" x2="38.0399" y2="42.3698" gradientUnits="userSpaceOnUse">
<stop stop-color="#A8D061"/>
<stop offset="1" stop-color="#219ABB"/>
</linearGradient>
<linearGradient id="paint38_linear_639_72850" x1="15.5399" y1="-1.20014" x2="48.6299" y2="31.7999" gradientUnits="userSpaceOnUse">
<stop stop-color="#A8D061"/>
<stop offset="1" stop-color="#219ABB"/>
</linearGradient>
<linearGradient id="paint39_linear_639_72850" x1="17.7401" y1="-3.41984" x2="50.8001" y2="29.5802" gradientUnits="userSpaceOnUse">
<stop stop-color="#A8D061"/>
<stop offset="1" stop-color="#219ABB"/>
</linearGradient>
<linearGradient id="paint40_linear_639_72850" x1="20.15" y1="-5.80978" x2="53.2401" y2="27.1902" gradientUnits="userSpaceOnUse">
<stop stop-color="#A8D061"/>
<stop offset="1" stop-color="#219ABB"/>
</linearGradient>
<linearGradient id="paint41_linear_639_72850" x1="9.57009" y1="4.76995" x2="42.6601" y2="37.7699" gradientUnits="userSpaceOnUse">
<stop stop-color="#A8D061"/>
<stop offset="1" stop-color="#219ABB"/>
</linearGradient>
<linearGradient id="paint42_linear_639_72850" x1="9.34009" y1="5.04006" x2="42.4101" y2="38.05" gradientUnits="userSpaceOnUse">
<stop stop-color="#A8D061"/>
<stop offset="1" stop-color="#219ABB"/>
</linearGradient>
<linearGradient id="paint43_linear_639_72850" x1="2.97004" y1="11.3899" x2="36.0401" y2="44.3899" gradientUnits="userSpaceOnUse">
<stop stop-color="#A8D061"/>
<stop offset="1" stop-color="#219ABB"/>
</linearGradient>
<linearGradient id="paint44_linear_639_72850" x1="-0.559985" y1="14.9602" x2="32.51" y2="47.9702" gradientUnits="userSpaceOnUse">
<stop stop-color="#A8D061"/>
<stop offset="1" stop-color="#219ABB"/>
</linearGradient>
<linearGradient id="paint45_linear_639_72850" x1="-7.0799" y1="21.5" x2="25.9901" y2="54.48" gradientUnits="userSpaceOnUse">
<stop stop-color="#A8D061"/>
<stop offset="1" stop-color="#219ABB"/>
</linearGradient>
<linearGradient id="paint46_linear_639_72850" x1="-5.80988" y1="20.2499" x2="27.2601" y2="53.2399" gradientUnits="userSpaceOnUse">
<stop stop-color="#A8D061"/>
<stop offset="1" stop-color="#219ABB"/>
</linearGradient>
<linearGradient id="paint47_linear_639_72850" x1="-4.93009" y1="19.3101" x2="28.1599" y2="52.3101" gradientUnits="userSpaceOnUse">
<stop stop-color="#A8D061"/>
<stop offset="1" stop-color="#219ABB"/>
</linearGradient>
<linearGradient id="paint48_linear_639_72850" x1="-3.41988" y1="17.7799" x2="29.6701" y2="50.7599" gradientUnits="userSpaceOnUse">
<stop stop-color="#A8D061"/>
<stop offset="1" stop-color="#219ABB"/>
</linearGradient>
<linearGradient id="paint49_linear_639_72850" x1="-5.32997" y1="19.7298" x2="27.73" y2="52.7398" gradientUnits="userSpaceOnUse">
<stop stop-color="#A8D061"/>
<stop offset="1" stop-color="#219ABB"/>
</linearGradient>
<linearGradient id="paint50_linear_639_72850" x1="-2.13988" y1="16.49" x2="30.9501" y2="49.5" gradientUnits="userSpaceOnUse">
<stop stop-color="#A8D061"/>
<stop offset="1" stop-color="#219ABB"/>
</linearGradient>
<linearGradient id="paint51_linear_639_72850" x1="-3.07997" y1="17.4598" x2="30" y2="50.4698" gradientUnits="userSpaceOnUse">
<stop stop-color="#A8D061"/>
<stop offset="1" stop-color="#219ABB"/>
</linearGradient>
<linearGradient id="paint52_linear_639_72850" x1="3.88005" y1="10.4998" x2="36.95" y2="43.4998" gradientUnits="userSpaceOnUse">
<stop stop-color="#A8D061"/>
<stop offset="1" stop-color="#219ABB"/>
</linearGradient>
<linearGradient id="paint53_linear_639_72850" x1="6.61001" y1="7.76994" x2="39.7" y2="40.7699" gradientUnits="userSpaceOnUse">
<stop stop-color="#A8D061"/>
<stop offset="1" stop-color="#219ABB"/>
</linearGradient>
<linearGradient id="paint54_linear_639_72850" x1="11.89" y1="2.4698" x2="44.98" y2="35.4698" gradientUnits="userSpaceOnUse">
<stop stop-color="#A8D061"/>
<stop offset="1" stop-color="#219ABB"/>
</linearGradient>
<linearGradient id="paint55_linear_639_72850" x1="14.26" y1="0.060003" x2="47.35" y2="33.06" gradientUnits="userSpaceOnUse">
<stop stop-color="#A8D061"/>
<stop offset="1" stop-color="#219ABB"/>
</linearGradient>
<linearGradient id="paint56_linear_639_72850" x1="-4.26994" y1="18.6698" x2="28.8001" y2="51.6798" gradientUnits="userSpaceOnUse">
<stop stop-color="#A8D061"/>
<stop offset="1" stop-color="#219ABB"/>
</linearGradient>
<linearGradient id="paint57_linear_639_72850" x1="1.52989" y1="12.8598" x2="34.6099" y2="45.8398" gradientUnits="userSpaceOnUse">
<stop stop-color="#A8D061"/>
<stop offset="1" stop-color="#219ABB"/>
</linearGradient>
<linearGradient id="paint58_linear_639_72850" x1="11.2699" y1="3.06994" x2="44.3599" y2="36.0799" gradientUnits="userSpaceOnUse">
<stop stop-color="#A8D061"/>
<stop offset="1" stop-color="#219ABB"/>
</linearGradient>
<linearGradient id="paint59_linear_639_72850" x1="15.8701" y1="-1.56979" x2="48.9301" y2="31.4302" gradientUnits="userSpaceOnUse">
<stop stop-color="#A8D061"/>
<stop offset="1" stop-color="#219ABB"/>
</linearGradient>
<linearGradient id="paint60_linear_639_72850" x1="-2.32992" y1="16.7098" x2="30.7301" y2="49.6998" gradientUnits="userSpaceOnUse">
<stop stop-color="#A8D061"/>
<stop offset="1" stop-color="#219ABB"/>
</linearGradient>
<linearGradient id="paint61_linear_639_72850" x1="-4.32013" y1="18.7001" x2="28.7498" y2="51.7101" gradientUnits="userSpaceOnUse">
<stop stop-color="#A8D061"/>
<stop offset="1" stop-color="#219ABB"/>
</linearGradient>
<linearGradient id="paint62_linear_639_72850" x1="0.949867" y1="13.4498" x2="34.0198" y2="46.4599" gradientUnits="userSpaceOnUse">
<stop stop-color="#A8D061"/>
<stop offset="1" stop-color="#219ABB"/>
</linearGradient>
<linearGradient id="paint63_linear_639_72850" x1="-2.48003" y1="16.88" x2="30.61" y2="49.88" gradientUnits="userSpaceOnUse">
<stop stop-color="#A8D061"/>
<stop offset="1" stop-color="#219ABB"/>
</linearGradient>
<linearGradient id="paint64_linear_639_72850" x1="-2.83013" y1="17.1697" x2="30.2599" y2="50.1797" gradientUnits="userSpaceOnUse">
<stop stop-color="#A8D061"/>
<stop offset="1" stop-color="#219ABB"/>
</linearGradient>
<linearGradient id="paint65_linear_639_72850" x1="0.78004" y1="13.6001" x2="33.85" y2="46.6001" gradientUnits="userSpaceOnUse">
<stop stop-color="#A8D061"/>
<stop offset="1" stop-color="#219ABB"/>
</linearGradient>
<linearGradient id="paint66_linear_639_72850" x1="-1.24005" y1="15.6002" x2="31.8499" y2="48.6102" gradientUnits="userSpaceOnUse">
<stop stop-color="#A8D061"/>
<stop offset="1" stop-color="#219ABB"/>
</linearGradient>
<linearGradient id="paint67_linear_639_72850" x1="-5.77991" y1="20.1602" x2="27.2901" y2="53.1602" gradientUnits="userSpaceOnUse">
<stop stop-color="#A8D061"/>
<stop offset="1" stop-color="#219ABB"/>
</linearGradient>
<linearGradient id="paint68_linear_639_72850" x1="-5.58007" y1="19.9598" x2="27.5099" y2="52.9498" gradientUnits="userSpaceOnUse">
<stop stop-color="#A8D061"/>
<stop offset="1" stop-color="#219ABB"/>
</linearGradient>
<linearGradient id="paint69_linear_639_72850" x1="-8.09004" y1="22.45" x2="24.9799" y2="55.45" gradientUnits="userSpaceOnUse">
<stop stop-color="#A8D061"/>
<stop offset="1" stop-color="#219ABB"/>
</linearGradient>
<linearGradient id="paint70_linear_639_72850" x1="-7.30002" y1="21.7" x2="25.79" y2="54.69" gradientUnits="userSpaceOnUse">
<stop stop-color="#A8D061"/>
<stop offset="1" stop-color="#219ABB"/>
</linearGradient>
<linearGradient id="paint71_linear_639_72850" x1="-7.92993" y1="22.29" x2="25.1601" y2="55.29" gradientUnits="userSpaceOnUse">
<stop stop-color="#A8D061"/>
<stop offset="1" stop-color="#219ABB"/>
</linearGradient>
<linearGradient id="paint72_linear_639_72850" x1="-6.66008" y1="21.0799" x2="26.4299" y2="54.0899" gradientUnits="userSpaceOnUse">
<stop stop-color="#A8D061"/>
<stop offset="1" stop-color="#219ABB"/>
</linearGradient>
<linearGradient id="paint73_linear_639_72850" x1="-4.83009" y1="19.1901" x2="28.2599" y2="52.2001" gradientUnits="userSpaceOnUse">
<stop stop-color="#A8D061"/>
<stop offset="1" stop-color="#219ABB"/>
</linearGradient>
<linearGradient id="paint74_linear_639_72850" x1="-6.5599" y1="20.9401" x2="26.5301" y2="53.9401" gradientUnits="userSpaceOnUse">
<stop stop-color="#A8D061"/>
<stop offset="1" stop-color="#219ABB"/>
</linearGradient>
<linearGradient id="paint75_linear_639_72850" x1="-9.05004" y1="23.5002" x2="24.01" y2="56.5002" gradientUnits="userSpaceOnUse">
<stop stop-color="#A8D061"/>
<stop offset="1" stop-color="#219ABB"/>
</linearGradient>
<linearGradient id="paint76_linear_639_72850" x1="10.55" y1="3.80987" x2="43.6099" y2="36.8199" gradientUnits="userSpaceOnUse">
<stop stop-color="#A8D061"/>
<stop offset="1" stop-color="#219ABB"/>
</linearGradient>
<linearGradient id="paint77_linear_639_72850" x1="15.2399" y1="-0.899841" x2="48.3299" y2="32.1001" gradientUnits="userSpaceOnUse">
<stop stop-color="#A8D061"/>
<stop offset="1" stop-color="#219ABB"/>
</linearGradient>
<linearGradient id="paint78_linear_639_72850" x1="9.26005" y1="5.06984" x2="42.35" y2="38.0799" gradientUnits="userSpaceOnUse">
<stop stop-color="#A8D061"/>
<stop offset="1" stop-color="#219ABB"/>
</linearGradient>
<linearGradient id="paint79_linear_639_72850" x1="14.36" y1="-0.030001" x2="47.45" y2="32.98" gradientUnits="userSpaceOnUse">
<stop stop-color="#A8D061"/>
<stop offset="1" stop-color="#219ABB"/>
</linearGradient>
<linearGradient id="paint80_linear_639_72850" x1="17" y1="-2.67994" x2="50.0901" y2="30.3001" gradientUnits="userSpaceOnUse">
<stop stop-color="#A8D061"/>
<stop offset="1" stop-color="#219ABB"/>
</linearGradient>
<linearGradient id="paint81_linear_639_72850" x1="2.48011" y1="11.8802" x2="35.5401" y2="44.8901" gradientUnits="userSpaceOnUse">
<stop stop-color="#A8D061"/>
<stop offset="1" stop-color="#219ABB"/>
</linearGradient>
<linearGradient id="paint82_linear_639_72850" x1="13.3501" y1="0.96014" x2="46.4201" y2="33.9501" gradientUnits="userSpaceOnUse">
<stop stop-color="#A8D061"/>
<stop offset="1" stop-color="#219ABB"/>
</linearGradient>
<linearGradient id="paint83_linear_639_72850" x1="11.8301" y1="2.51015" x2="44.9201" y2="35.5101" gradientUnits="userSpaceOnUse">
<stop stop-color="#A8D061"/>
<stop offset="1" stop-color="#219ABB"/>
</linearGradient>
<linearGradient id="paint84_linear_639_72850" x1="5.01992" y1="9.36022" x2="38.0799" y2="42.3702" gradientUnits="userSpaceOnUse">
<stop stop-color="#A8D061"/>
<stop offset="1" stop-color="#219ABB"/>
</linearGradient>
<linearGradient id="paint85_linear_639_72850" x1="6.28009" y1="8.10009" x2="39.3501" y2="41.1001" gradientUnits="userSpaceOnUse">
<stop stop-color="#A8D061"/>
<stop offset="1" stop-color="#219ABB"/>
</linearGradient>
<linearGradient id="paint86_linear_639_72850" x1="4.45998" y1="9.94023" x2="37.55" y2="42.9402" gradientUnits="userSpaceOnUse">
<stop stop-color="#A8D061"/>
<stop offset="1" stop-color="#219ABB"/>
</linearGradient>
<linearGradient id="paint87_linear_639_72850" x1="12.7399" y1="1.59021" x2="45.8299" y2="34.6002" gradientUnits="userSpaceOnUse">
<stop stop-color="#A8D061"/>
<stop offset="1" stop-color="#219ABB"/>
</linearGradient>
<linearGradient id="paint88_linear_639_72850" x1="6.47013" y1="7.90983" x2="39.5601" y2="40.9098" gradientUnits="userSpaceOnUse">
<stop stop-color="#A8D061"/>
<stop offset="1" stop-color="#219ABB"/>
</linearGradient>
<linearGradient id="paint89_linear_639_72850" x1="8.14992" y1="6.18985" x2="41.2199" y2="39.1898" gradientUnits="userSpaceOnUse">
<stop stop-color="#A8D061"/>
<stop offset="1" stop-color="#219ABB"/>
</linearGradient>
<linearGradient id="paint90_linear_639_72850" x1="20.0901" y1="-5.74986" x2="53.1801" y2="27.2301" gradientUnits="userSpaceOnUse">
<stop stop-color="#A8D061"/>
<stop offset="1" stop-color="#219ABB"/>
</linearGradient>
<linearGradient id="paint91_linear_639_72850" x1="13.36" y1="0.960104" x2="46.45" y2="33.9601" gradientUnits="userSpaceOnUse">
<stop stop-color="#A8D061"/>
<stop offset="1" stop-color="#219ABB"/>
</linearGradient>
<linearGradient id="paint92_linear_639_72850" x1="13.56" y1="0.8" x2="46.62" y2="33.81" gradientUnits="userSpaceOnUse">
<stop stop-color="#A8D061"/>
<stop offset="1" stop-color="#219ABB"/>
</linearGradient>
<linearGradient id="paint93_linear_639_72850" x1="11.8301" y1="2.55005" x2="44.9101" y2="35.54" gradientUnits="userSpaceOnUse">
<stop stop-color="#A8D061"/>
<stop offset="1" stop-color="#219ABB"/>
</linearGradient>
<linearGradient id="paint94_linear_639_72850" x1="15.4799" y1="-1.15996" x2="48.5699" y2="31.8401" gradientUnits="userSpaceOnUse">
<stop stop-color="#A8D061"/>
<stop offset="1" stop-color="#219ABB"/>
</linearGradient>
<linearGradient id="paint95_linear_639_72850" x1="7.77993" y1="6.6" x2="40.8699" y2="39.58" gradientUnits="userSpaceOnUse">
<stop stop-color="#A8D061"/>
<stop offset="1" stop-color="#219ABB"/>
</linearGradient>
<linearGradient id="paint96_linear_639_72850" x1="9.86" y1="4.45983" x2="42.93" y2="37.4598" gradientUnits="userSpaceOnUse">
<stop stop-color="#A8D061"/>
<stop offset="1" stop-color="#219ABB"/>
</linearGradient>
<linearGradient id="paint97_linear_639_72850" x1="8.00988" y1="6.3502" x2="41.0799" y2="39.3502" gradientUnits="userSpaceOnUse">
<stop stop-color="#A8D061"/>
<stop offset="1" stop-color="#219ABB"/>
</linearGradient>
<linearGradient id="paint98_linear_639_72850" x1="9.30004" y1="5.06002" x2="42.39" y2="38.04" gradientUnits="userSpaceOnUse">
<stop stop-color="#A8D061"/>
<stop offset="1" stop-color="#219ABB"/>
</linearGradient>
<linearGradient id="paint99_linear_639_72850" x1="20.9601" y1="-6.65023" x2="54.0301" y2="26.3398" gradientUnits="userSpaceOnUse">
<stop stop-color="#A8D061"/>
<stop offset="1" stop-color="#219ABB"/>
</linearGradient>
<linearGradient id="paint100_linear_639_72850" x1="16.74" y1="-2.44017" x2="49.81" y2="30.5598" gradientUnits="userSpaceOnUse">
<stop stop-color="#A8D061"/>
<stop offset="1" stop-color="#219ABB"/>
</linearGradient>
<linearGradient id="paint101_linear_639_72850" x1="19.1101" y1="-4.7699" x2="52.1801" y2="28.2101" gradientUnits="userSpaceOnUse">
<stop stop-color="#A8D061"/>
<stop offset="1" stop-color="#219ABB"/>
</linearGradient>
<linearGradient id="paint102_linear_639_72850" x1="17.1201" y1="-2.76006" x2="50.2101" y2="30.2199" gradientUnits="userSpaceOnUse">
<stop stop-color="#A8D061"/>
<stop offset="1" stop-color="#219ABB"/>
</linearGradient>
<linearGradient id="paint103_linear_639_72850" x1="16.5901" y1="-2.25004" x2="49.6801" y2="30.75" gradientUnits="userSpaceOnUse">
<stop stop-color="#A8D061"/>
<stop offset="1" stop-color="#219ABB"/>
</linearGradient>
<linearGradient id="paint104_linear_639_72850" x1="18.56" y1="-4.26982" x2="51.65" y2="28.7402" gradientUnits="userSpaceOnUse">
<stop stop-color="#A8D061"/>
<stop offset="1" stop-color="#219ABB"/>
</linearGradient>
<linearGradient id="paint105_linear_639_72850" x1="5.03992" y1="9.36023" x2="38.0999" y2="42.3702" gradientUnits="userSpaceOnUse">
<stop stop-color="#A8D061"/>
<stop offset="1" stop-color="#219ABB"/>
</linearGradient>
<linearGradient id="paint106_linear_639_72850" x1="-6.07997" y1="20.4398" x2="26.99" y2="53.4398" gradientUnits="userSpaceOnUse">
<stop stop-color="#A8D061"/>
<stop offset="1" stop-color="#219ABB"/>
</linearGradient>
<linearGradient id="paint107_linear_639_72850" x1="-5.83007" y1="20.1899" x2="27.2599" y2="53.1899" gradientUnits="userSpaceOnUse">
<stop stop-color="#A8D061"/>
<stop offset="1" stop-color="#219ABB"/>
</linearGradient>
<linearGradient id="paint108_linear_639_72850" x1="-2.8101" y1="17.1899" x2="30.2799" y2="50.1899" gradientUnits="userSpaceOnUse">
<stop stop-color="#A8D061"/>
<stop offset="1" stop-color="#219ABB"/>
</linearGradient>
<linearGradient id="paint109_linear_639_72850" x1="0.890016" y1="13.47" x2="33.98" y2="46.45" gradientUnits="userSpaceOnUse">
<stop stop-color="#A8D061"/>
<stop offset="1" stop-color="#219ABB"/>
</linearGradient>
<linearGradient id="paint110_linear_639_72850" x1="-9.08" y1="23.4798" x2="23.99" y2="56.4798" gradientUnits="userSpaceOnUse">
<stop stop-color="#A8D061"/>
<stop offset="1" stop-color="#219ABB"/>
</linearGradient>
<linearGradient id="paint111_linear_639_72850" x1="-7.94988" y1="22.3301" x2="25.1201" y2="55.3101" gradientUnits="userSpaceOnUse">
<stop stop-color="#A8D061"/>
<stop offset="1" stop-color="#219ABB"/>
</linearGradient>
<linearGradient id="paint112_linear_639_72850" x1="-7.75999" y1="22.1601" x2="25.3" y2="55.1701" gradientUnits="userSpaceOnUse">
<stop stop-color="#A8D061"/>
<stop offset="1" stop-color="#219ABB"/>
</linearGradient>
<linearGradient id="paint113_linear_639_72850" x1="-0.960071" y1="15.3401" x2="32.1099" y2="48.3401" gradientUnits="userSpaceOnUse">
<stop stop-color="#A8D061"/>
<stop offset="1" stop-color="#219ABB"/>
</linearGradient>
<linearGradient id="paint114_linear_639_72850" x1="2.42008" y1="11.9599" x2="35.4901" y2="44.9699" gradientUnits="userSpaceOnUse">
<stop stop-color="#A8D061"/>
<stop offset="1" stop-color="#219ABB"/>
</linearGradient>
<linearGradient id="paint115_linear_639_72850" x1="1.56007" y1="12.8201" x2="34.6301" y2="45.8301" gradientUnits="userSpaceOnUse">
<stop stop-color="#A8D061"/>
<stop offset="1" stop-color="#219ABB"/>
</linearGradient>
<linearGradient id="paint116_linear_639_72850" x1="-0.0501198" y1="14.4098" x2="33.0199" y2="47.4198" gradientUnits="userSpaceOnUse">
<stop stop-color="#A8D061"/>
<stop offset="1" stop-color="#219ABB"/>
</linearGradient>
<linearGradient id="paint117_linear_639_72850" x1="-8.40004" y1="22.8302" x2="24.6599" y2="55.8102" gradientUnits="userSpaceOnUse">
<stop stop-color="#A8D061"/>
<stop offset="1" stop-color="#219ABB"/>
</linearGradient>
<linearGradient id="paint118_linear_639_72850" x1="3.69008" y1="10.67" x2="36.7801" y2="43.67" gradientUnits="userSpaceOnUse">
<stop stop-color="#A8D061"/>
<stop offset="1" stop-color="#219ABB"/>
</linearGradient>
<linearGradient id="paint119_linear_639_72850" x1="6.12994" y1="8.23016" x2="39.2199" y2="41.2102" gradientUnits="userSpaceOnUse">
<stop stop-color="#A8D061"/>
<stop offset="1" stop-color="#219ABB"/>
</linearGradient>
<clipPath id="clip0_639_72850">
<rect width="48" height="48" fill="white"/>
</clipPath>
</defs>
</svg>
