<svg width="50" height="50" viewBox="0 0 50 50" fill="none" xmlns="http://www.w3.org/2000/svg">
<g clip-path="url(#clip0_1439_35340)">
<path d="M25 50C38.8543 50 50 38.8543 50 25C50 11.1458 38.8543 0 25 0C11.1458 0 0 11.1458 0 25C0 38.8543 11.1458 50 25 50Z" fill="#2775CA"/>
<path d="M31.875 28.958C31.875 25.3123 29.6875 24.0623 25.3125 23.5415C22.1875 23.1248 21.5625 22.2915 21.5625 20.833C21.5625 19.3745 22.6042 18.4373 24.6875 18.4373C26.5625 18.4373 27.6042 19.0623 28.125 20.6248C28.2292 20.9373 28.5417 21.1455 28.8542 21.1455H30.5207C30.9375 21.1455 31.25 20.833 31.25 20.4165V20.3123C30.8332 18.0205 28.9582 16.2498 26.5625 16.0415V13.5415C26.5625 13.1248 26.25 12.8123 25.7292 12.708H24.1667C23.75 12.708 23.4375 13.0205 23.3332 13.5415V15.9373C20.2082 16.354 18.2292 18.4373 18.2292 21.0415C18.2292 24.479 20.3125 25.833 24.6875 26.354C27.6042 26.8748 28.5417 27.4998 28.5417 29.1665C28.5417 30.8333 27.0832 31.979 25.1042 31.979C22.3957 31.979 21.4582 30.833 21.1457 29.2705C21.0417 28.854 20.7292 28.6455 20.4167 28.6455H18.6457C18.2292 28.6455 17.9167 28.958 17.9167 29.3748V29.479C18.3332 32.083 20 33.958 23.4375 34.479V36.979C23.4375 37.3955 23.75 37.708 24.2707 37.8123H25.8332C26.25 37.8123 26.5625 37.4998 26.6667 36.979V34.479C29.7917 33.958 31.875 31.7705 31.875 28.958Z" fill="white"/>
<path d="M19.6876 39.896C11.5626 36.9795 7.39583 27.917 10.4168 19.896C11.9793 15.521 15.4168 12.1877 19.6876 10.6252C20.1043 10.417 20.3126 10.1045 20.3126 9.58349V8.12524C20.3126 7.70849 20.1043 7.39599 19.6876 7.29199C19.5833 7.29199 19.3751 7.29199 19.2708 7.39599C9.37508 10.521 3.95833 21.042 7.08333 30.9377C8.95833 36.771 13.4376 41.2502 19.2708 43.1252C19.6876 43.3335 20.1043 43.1252 20.2083 42.7085C20.3126 42.6045 20.3126 42.5002 20.3126 42.292V40.8335C20.3126 40.521 20.0001 40.1045 19.6876 39.896ZM30.7293 7.39599C30.3126 7.18774 29.8958 7.39599 29.7918 7.81274C29.6876 7.91699 29.6876 8.02099 29.6876 8.22949V9.68774C29.6876 10.1045 30.0001 10.521 30.3126 10.7295C38.4376 13.646 42.6043 22.7085 39.5833 30.7295C38.0208 35.1045 34.5833 38.4377 30.3126 40.0002C29.8958 40.2085 29.6876 40.521 29.6876 41.042V42.5002C29.6876 42.917 29.8958 43.2295 30.3126 43.3335C30.4168 43.3335 30.6251 43.3335 30.7293 43.2295C40.6251 40.1045 46.0418 29.5835 42.9168 19.6877C41.0418 13.7502 36.4583 9.27099 30.7293 7.39599Z" fill="white"/>
</g>
<defs>
<clipPath id="clip0_1439_35340">
<rect width="50" height="50" fill="white"/>
</clipPath>
</defs>
</svg>
