<svg width="50" height="50" viewBox="0 0 50 50" fill="none" xmlns="http://www.w3.org/2000/svg">
<g clip-path="url(#clip0_1439_84506)">
<path fill-rule="evenodd" clip-rule="evenodd" d="M11.5318 8.93158L3.78259 25.2089C3.7531 25.2694 3.74376 25.3378 3.75592 25.404C3.76809 25.4703 3.80113 25.5309 3.8502 25.577L24.779 45.6318C24.8385 45.6889 24.9177 45.7207 25 45.7207C25.0824 45.7207 25.1616 45.6889 25.221 45.6318L46.1499 25.5782C46.199 25.5321 46.232 25.4715 46.2442 25.4053C46.2563 25.339 46.247 25.2707 46.2175 25.2101L38.4682 8.93283C38.4432 8.87816 38.403 8.83186 38.3524 8.79944C38.3018 8.76702 38.2429 8.74987 38.1828 8.75002H11.8198C11.7594 8.74927 11.7001 8.76601 11.649 8.79823C11.5979 8.83044 11.5572 8.87676 11.5318 8.93158Z" fill="#50AF95"/>
<path fill-rule="evenodd" clip-rule="evenodd" d="M27.6888 26.8803C27.5385 26.8916 26.7622 26.9379 25.0306 26.9379C23.6533 26.9379 22.6754 26.8966 22.3323 26.8803C17.0096 26.6462 13.0367 25.7196 13.0367 24.6103C13.0367 23.5009 17.0096 22.5756 22.3323 22.3377V25.9575C22.6804 25.9826 23.6771 26.0414 25.0544 26.0414C26.7071 26.0414 27.5348 25.9725 27.6838 25.9588V22.3402C32.9952 22.5768 36.9593 23.5034 36.9593 24.6103C36.9593 25.7171 32.9964 26.6437 27.6838 26.8791L27.6888 26.8803ZM27.6888 21.9658V18.7266H35.1012V13.7871H14.9199V18.7266H22.331V21.9646C16.3072 22.2413 11.7771 23.4345 11.7771 24.8644C11.7771 26.2943 16.3072 27.4863 22.331 27.7643V38.1442H27.6875V27.7605C33.6976 27.4838 38.2202 26.2918 38.2202 24.8632C38.2202 23.4345 33.7014 22.2425 27.6875 21.9646L27.6888 21.9658Z" fill="white"/>
</g>
<defs>
<clipPath id="clip0_1439_84506">
<rect width="42.5" height="36.9707" fill="white" transform="translate(3.75 8.75)"/>
</clipPath>
</defs>
</svg>
