<svg width="51" height="50" viewBox="0 0 51 50" fill="none" xmlns="http://www.w3.org/2000/svg">
<rect x="0.5" width="50" height="50" rx="25" fill="white"/>
<path d="M17.5211 23.435C17.098 23.835 16.8518 24.3861 16.8367 24.9669C16.8214 25.5478 17.0385 26.1108 17.4401 26.5322C17.4523 26.5421 17.4635 26.5532 17.4734 26.5654C17.902 26.9764 18.4739 27.2061 19.0688 27.2061C19.6638 27.2061 20.2356 26.9764 20.6643 26.5654C21.0746 26.1741 21.3121 25.6365 21.3246 25.0709C21.3371 24.5052 21.1236 23.9577 20.731 23.5488C20.7099 23.5256 20.6877 23.5034 20.6643 23.4824C20.2631 23.0654 19.7128 22.823 19.1331 22.8079C18.5534 22.7928 17.9912 23.0063 17.5687 23.4018C17.5543 23.4149 17.5383 23.4261 17.5211 23.435Z" fill="#02D667"/>
<path d="M19.2388 14.0908L16.8574 16.4149L10.4281 22.6758L8.04688 24.9999L10.3805 27.324L19.1435 35.909C19.1435 35.909 21.1914 33.2529 19.1911 31.2608L12.7617 24.9525L19.1911 18.7391L22.4295 21.9169C25.1918 24.6205 27.1444 21.8695 27.1444 21.8695L19.2388 14.0908Z" fill="#02D667"/>
<path d="M42.9556 25.0473L31.9066 14.1382C31.9066 14.1382 29.8587 16.7469 31.8113 18.5967L38.3359 24.9999L31.9541 31.2607L28.9537 28.32C26.8107 26.2331 23.9531 28.1303 23.9531 28.1303L31.8589 35.8616L34.2402 33.5375L42.9556 25.0473Z" fill="#02D667"/>
<path d="M30.3336 23.4824C29.9105 23.8826 29.6643 24.4336 29.6492 25.0145C29.6339 25.5952 29.851 26.1582 30.2526 26.5797L30.2859 26.6129C30.7145 27.0239 31.2863 27.2535 31.8813 27.2535C32.4763 27.2535 33.0481 27.0239 33.4767 26.6129C33.6828 26.4188 33.8481 26.186 33.963 25.9278C34.078 25.6697 34.1405 25.3913 34.1466 25.109C34.1528 24.8267 34.1028 24.5458 33.9991 24.2829C33.8956 24.02 33.7407 23.7801 33.5435 23.5774C33.5224 23.5541 33.5001 23.5319 33.4767 23.5109C33.075 23.0896 32.5218 22.8445 31.9385 22.8294C31.3554 22.8142 30.79 23.0305 30.3669 23.4303C30.3583 23.4492 30.347 23.4668 30.3336 23.4824Z" fill="#02D667"/>
</svg>
