<svg width="51" height="50" viewBox="0 0 51 50" fill="none" xmlns="http://www.w3.org/2000/svg">
<rect x="0.5" width="50" height="50" rx="25" fill="white"/>
<path opacity="0.46" d="M25.5056 23.1641C29.2711 23.1641 32.3237 20.0816 32.3237 16.2791C32.3237 12.4766 29.2711 9.39404 25.5056 9.39404C21.7401 9.39404 18.6875 12.4766 18.6875 16.2791C18.6875 20.0816 21.7401 23.1641 25.5056 23.1641Z" fill="#2A97E8"/>
<path opacity="0.65" d="M25.5056 40.606C29.2711 40.606 32.3237 37.5235 32.3237 33.721C32.3237 29.9185 29.2711 26.8359 25.5056 26.8359C21.7401 26.8359 18.6875 29.9185 18.6875 33.721C18.6875 37.5235 21.7401 40.606 25.5056 40.606Z" fill="#004DE8"/>
<path opacity="0.76" d="M17.3181 32.3443C21.0836 32.3443 24.1362 29.2617 24.1362 25.4592C24.1362 21.6567 21.0836 18.5742 17.3181 18.5742C13.5526 18.5742 10.5 21.6567 10.5 25.4592C10.5 29.2617 13.5526 32.3443 17.3181 32.3443Z" fill="#0051F4"/>
<path opacity="0.62" d="M33.6775 32.3443C37.443 32.3443 40.4955 29.2617 40.4955 25.4592C40.4955 21.6567 37.443 18.5742 33.6775 18.5742C29.9119 18.5742 26.8594 21.6567 26.8594 25.4592C26.8594 29.2617 29.9119 32.3443 33.6775 32.3443Z" fill="#2A77E8"/>
</svg>
