<svg width="51" height="50" viewBox="0 0 51 50" fill="none" xmlns="http://www.w3.org/2000/svg">
<rect x="0.5" width="50" height="50" rx="25" fill="white"/>
<path d="M33.1128 20.0139C32.8262 19.854 32.5035 19.7701 32.1753 19.7701C31.8471 19.7701 31.5244 19.854 31.2378 20.0139L26.9378 22.5059L24.0148 24.1309L19.7148 26.6229C19.4282 26.7828 19.1055 26.8668 18.7773 26.8668C18.4491 26.8668 18.1264 26.7828 17.8398 26.6229L14.4198 24.6729C14.1415 24.5139 13.909 24.2857 13.7447 24.0105C13.5803 23.7353 13.4898 23.4223 13.4818 23.1019V19.2529C13.4782 18.9301 13.5639 18.6125 13.7294 18.3352C13.895 18.058 14.1339 17.8319 14.4198 17.6819L17.7838 15.7819C18.0704 15.622 18.3931 15.5381 18.7213 15.5381C19.0495 15.5381 19.3722 15.622 19.6588 15.7819L23.0228 17.6819C23.3 17.8417 23.5313 18.0702 23.6946 18.3454C23.8578 18.6205 23.9474 18.9331 23.9548 19.2529V21.7469L26.8778 20.0669V17.5759C26.8814 17.2531 26.7957 16.9355 26.6302 16.6582C26.4647 16.381 26.2257 16.1549 25.9398 16.0049L19.7108 12.4289C19.4242 12.269 19.1015 12.1851 18.7733 12.1851C18.4451 12.1851 18.1224 12.269 17.8358 12.4289L11.4928 16.0039C11.2067 16.154 10.9677 16.3802 10.8022 16.6577C10.6366 16.9351 10.551 17.2529 10.5548 17.5759V24.7819C10.5512 25.1048 10.6369 25.4224 10.8024 25.6996C10.968 25.9768 11.2069 26.2029 11.4928 26.3529L17.8348 29.9279C18.1214 30.0878 18.4441 30.1718 18.7723 30.1718C19.1005 30.1718 19.4232 30.0878 19.7098 29.9279L24.0098 27.4899L26.9328 25.8109L31.2328 23.3729C31.5194 23.213 31.8421 23.1291 32.1703 23.1291C32.4985 23.1291 32.8212 23.213 33.1078 23.3729L36.4718 25.2729C36.7501 25.432 36.9826 25.6601 37.147 25.9353C37.3113 26.2105 37.4018 26.5235 37.4098 26.8439V30.6909C37.4135 31.0138 37.3279 31.3314 37.1623 31.6087C36.9968 31.8859 36.7578 32.112 36.4718 32.2619L33.1078 34.2119C32.8212 34.3718 32.4985 34.4558 32.1703 34.4558C31.8421 34.4558 31.5194 34.3718 31.2328 34.2119L27.8688 32.3119C27.5905 32.1529 27.358 31.9247 27.1937 31.6495C27.0293 31.3743 26.9388 31.0613 26.9308 30.7409V28.2529L24.0078 29.9319V32.4239C24.0042 32.7468 24.0899 33.0644 24.2554 33.3416C24.421 33.6188 24.6599 33.8449 24.9458 33.9949L31.2888 37.5709C31.5754 37.7308 31.8981 37.8148 32.2263 37.8148C32.5545 37.8148 32.8772 37.7308 33.1638 37.5709L39.5068 33.9949C39.7851 33.8359 40.0176 33.6077 40.182 33.3325C40.3463 33.0573 40.4368 32.7444 40.4448 32.4239V25.2149C40.4484 24.8921 40.3627 24.5745 40.1972 24.2972C40.0317 24.02 39.7927 23.7939 39.5068 23.6439L33.1128 20.0139Z" fill="#8247E5"/>
</svg>
