<svg width="51" height="50" viewBox="0 0 51 50" fill="none" xmlns="http://www.w3.org/2000/svg">
<rect x="0.5" width="50" height="50" rx="25" fill="white"/>
<path d="M25.104 20.2183L20.5391 24.7832L25.2025 29.4467L29.7674 24.8818L25.104 20.2183Z" fill="#FFBA00"/>
<path d="M25.2029 14.8957L32.992 22.6849L37.3132 18.3637L24.9496 6L12.5859 18.3637L16.9763 22.7539L25.2029 14.8957Z" fill="#FFBA00"/>
<path d="M32.9265 28.0376L24.952 36.0122L16.9775 28.0376L12.6562 32.3588L25.0199 44.7225L37.3168 32.4255L32.9265 28.0376Z" fill="#FFBA00"/>
<path d="M9.82149 20.8855L5.5 25.207L10.0109 29.7179L14.3324 25.3964L9.82149 20.8855Z" fill="#FFBA00"/>
<path d="M40.3271 20.6319L35.5625 25.3965L40.1386 29.9725L44.9032 25.2079L40.3271 20.6319Z" fill="#FFBA00"/>
</svg>
