<svg width="50" height="50" viewBox="0 0 50 50" fill="none" xmlns="http://www.w3.org/2000/svg">
<rect width="50" height="50" rx="25" fill="white"/>
<path d="M42.5 24.9531C42.5 15.3281 34.625 7.45312 25 7.45312C15.375 7.45312 7.5 15.3281 7.5 24.9531C7.5 34.5781 15.375 42.4531 25 42.4531C34.625 42.4531 42.5 34.5781 42.5 24.9531Z" fill="white"/>
<path d="M19 21.8281C19.25 21.8281 19.5 21.8281 19.75 21.8281C20 21.8281 20.25 21.7031 20.5 21.7031C20.625 21.7031 20.6249 21.7031 20.7499 21.5781C20.7499 21.5781 20.875 21.4531 20.875 21.3281C21 21.0781 21 20.7031 20.875 20.4531C20.75 19.9531 20.375 19.7031 20 19.3281C19.875 19.2031 19.6249 19.0781 19.4999 19.0781C19.3749 19.0781 19.1249 19.0781 18.8749 19.0781C18.4999 19.0781 18.125 19.3281 17.875 19.5781C17.625 19.8281 17.375 20.2031 17.375 20.5781C17.25 20.8281 17.375 21.2031 17.5 21.4531C17.5 21.5781 17.625 21.5781 17.75 21.7031C17.875 21.8281 18 21.8281 18 21.8281C18.375 21.8281 18.75 21.8281 19 21.8281ZM31.875 21.8281C32.125 21.8281 32.25 21.8281 32.5 21.8281C32.625 21.8281 32.75 21.8281 32.75 21.7031C32.875 21.7031 32.875 21.5781 33 21.4531C33.125 21.2031 33.2499 20.8281 33.2499 20.5781C33.2499 20.3281 33.125 20.0781 33 19.8281C32.875 19.5781 32.625 19.4531 32.375 19.3281C32.25 19.2031 32 19.0781 31.75 19.0781C31.5 19.0781 31.25 19.0781 31.125 19.2031C30.875 19.3281 30.625 19.4531 30.5 19.7031C30.125 19.9531 29.875 20.4531 29.875 20.9531C29.875 21.2031 29.875 21.3281 30 21.4531C30.125 21.5781 30.25 21.7031 30.5 21.7031C30.875 21.8281 31.375 21.8281 31.875 21.8281ZM34.25 23.8281C34.25 23.5781 34.25 23.2031 34.125 22.9531C34 22.5781 34 22.5781 33.75 22.5781C33.25 22.7031 32.875 22.8281 32.5 23.0781C31.875 23.3281 31.3749 23.7031 30.7499 24.0781C30.2499 24.3281 29.8749 24.7031 29.4999 25.0781C29.1249 25.3281 28.9999 25.7031 28.8749 26.0781C28.8749 26.0781 28.8749 26.0781 28.8749 26.2031C28.8749 26.2031 28.8749 26.2031 28.8749 26.3281C28.8749 26.3281 28.875 26.3281 29 26.3281C29 26.3281 29 26.3281 29.125 26.3281C29.25 26.3281 29.3749 26.3281 29.4999 26.4531C29.9999 26.4531 30.625 26.3281 31.125 26.2031C31.75 26.0781 32.5 25.8281 33.125 25.4531C33.5 25.2031 33.875 24.9531 34.25 24.7031L34.375 24.5781V24.4531C34.25 24.2031 34.25 23.9531 34.25 23.8281ZM16.875 23.8281C16.875 23.9531 16.875 24.2031 16.875 24.3281C16.875 24.4531 16.875 24.4531 16.875 24.5781C16.875 24.7031 16.9999 24.7031 16.9999 24.8281C17.4999 25.3281 18.1249 25.7031 18.8749 25.9531C19.3749 26.0781 19.75 26.2031 20.25 26.3281C20.75 26.4531 21.125 26.4531 21.625 26.5781C21.75 26.5781 22 26.5781 22.125 26.4531C22.25 26.4531 22.25 26.3281 22.25 26.2031C22.25 26.0781 22.25 25.9531 22.125 25.8281C21.875 25.4531 21.625 25.0781 21.25 24.8281C20.25 24.0781 19.25 23.4531 18.125 22.9531C17.75 22.8281 17.375 22.7031 17.125 22.7031H16.9999L16.875 22.8281C16.875 23.2031 16.875 23.4531 16.875 23.8281ZM13.375 9.70312C13.25 9.70312 13.2499 9.70311 13.2499 9.82811C12.9999 10.4531 12.875 11.0781 12.875 11.7031C12.875 12.0781 12.875 12.4531 12.875 12.9531C12.875 13.2031 12.875 13.4531 13 13.8281C13 14.0781 13.125 14.4531 13.125 14.7031C13.25 15.0781 13.25 15.4531 13.375 15.9531C13.5 16.4531 13.625 16.9531 13.75 17.4531C13.875 17.8281 14 18.2031 14.125 18.7031V18.8281C14.375 18.4531 14.625 17.9531 15 17.5781C15.375 17.0781 15.75 16.5781 16.25 16.0781C16.625 15.7031 17 15.3281 17.375 15.0781C17.75 14.8281 18.125 14.4531 18.5 14.2031C18.625 14.2031 18.625 14.0781 18.5 14.0781C18.25 13.8281 18 13.4531 17.75 13.2031C17.25 12.7031 16.8749 12.3281 16.3749 11.8281C15.9999 11.5781 15.625 11.2031 15.25 10.9531C14.875 10.7031 14.375 10.4531 14 10.2031C13.875 9.82811 13.625 9.70312 13.375 9.70312ZM33.375 14.9531C33.5 15.0781 33.5 15.0781 33.625 15.2031C34 15.5781 34.375 15.9531 34.75 16.3281C35 16.7031 35.25 16.9531 35.5 17.3281C35.75 17.7031 36 18.0781 36.25 18.4531C36.25 18.4531 36.2499 18.5781 36.3749 18.5781C36.3749 18.5781 36.375 18.4531 36.5 18.4531C36.625 17.9531 36.7499 17.4531 36.9999 16.9531C37.1249 16.3281 37.25 15.8281 37.5 15.2031C37.625 14.5781 37.75 13.9531 37.875 13.3281C37.875 12.9531 38 12.4531 38 12.0781C38 11.7031 38 11.3281 37.875 10.9531C37.875 10.9531 37.875 10.9531 37.875 10.8281C37.875 10.4531 37.7499 10.0781 37.6249 9.82811C37.4999 9.70311 37.5 9.70312 37.375 9.70312C36.75 9.95312 36.2499 10.2031 35.7499 10.5781C34.9999 11.2031 34.125 11.8281 33.5 12.4531C33.125 12.8281 32.75 13.3281 32.25 13.7031C32.25 13.8281 32.125 13.8281 32.25 13.8281C32.625 14.0781 32.875 14.3281 33.125 14.5781C33.125 14.7031 33.25 14.8281 33.375 14.9531ZM33.2499 10.5781C33.6249 10.2031 34 9.82811 34.375 9.57811C35 8.95311 35.875 8.45312 36.625 8.07812C37.125 7.82812 37.75 7.70312 38.375 7.57813H38.5C38.5 7.57813 38.625 7.57811 38.625 7.70311C38.875 8.07811 39 8.45312 39.125 8.82812C39.375 9.70312 39.375 10.4531 39.375 11.3281C39.375 12.0781 39.25 12.7031 39.125 13.4531C39 13.9531 38.9999 14.5781 38.8749 15.0781C38.8749 15.3281 38.75 15.4531 38.75 15.7031V15.8281C38.625 16.5781 38.3749 17.2031 38.2499 17.9531C37.9999 18.8281 37.75 19.5781 37.5 20.3281C37.5 20.4531 37.5 20.5781 37.5 20.7031C37.5 20.8281 37.4999 20.9531 37.6249 20.9531C37.8749 21.5781 38.25 22.0781 38.5 22.7031C38.625 23.0781 38.875 23.5781 39 23.9531C39.25 24.7031 39.3749 25.3281 39.4999 26.0781C39.6249 26.5781 39.625 26.9531 39.625 27.4531C39.625 27.8281 39.625 28.2031 39.75 28.5781C39.75 28.7031 39.75 28.8281 39.75 29.0781C39.5 29.0781 39.375 28.9531 39.125 28.9531C38.5 28.8281 37.75 28.8281 37.125 28.9531C36.375 29.0781 35.625 29.2031 34.875 29.4531C34 29.8281 33.125 30.4531 32.375 31.0781C32.125 31.3281 32 31.4531 31.75 31.7031L31.5 31.0781C31.25 30.4531 31 29.8281 30.625 29.2031C30.5 29.0781 30.375 28.8281 30.25 28.7031C29.75 28.2031 29.25 27.7031 28.625 27.3281C27.75 26.8281 26.625 26.4531 25.625 26.4531C25 26.4531 24.5 26.5781 24 26.7031C23 27.0781 21.9999 27.7031 21.3749 28.4531C21.1249 28.7031 20.8749 29.0781 20.7499 29.4531C20.4999 29.9531 20.25 30.3281 20 30.8281L19.625 31.5781L19.4999 31.4531C18.3749 30.0781 16.625 29.0781 14.875 28.8281C14.125 28.7031 13.5 28.7031 12.75 28.8281C12.375 28.8281 12 28.9531 11.75 28.9531C11.75 28.5781 11.75 28.2031 11.875 27.8281C11.875 27.3281 12 26.8281 12.125 26.3281C12.25 25.9531 12.25 25.4531 12.375 25.0781C12.5 24.4531 12.75 23.7031 13 23.0781C13 22.9531 13.125 22.8281 13 22.7031C13.125 22.8281 13.125 22.8281 13.125 22.7031C13.375 22.0781 13.6249 21.4531 13.8749 20.8281C13.8749 20.8281 13.8749 20.8281 13.8749 20.7031V20.5781C13.6249 19.9531 13.3749 19.2031 13.2499 18.5781C13.1249 18.0781 13 17.5781 12.875 17.0781C12.75 16.7031 12.7499 16.3281 12.6249 15.9531C12.6249 15.5781 12.5 15.3281 12.5 15.0781C12.375 14.5781 12.375 14.0781 12.25 13.7031C12.25 13.2031 12.125 12.7031 12.125 12.2031C12.125 11.7031 12.125 11.2031 12.125 10.7031C12.125 10.0781 12.25 9.45311 12.375 8.95311C12.5 8.57811 12.625 8.32812 12.75 8.07812C12.75 7.95312 12.875 7.82812 13 7.82812C13.125 7.82812 13.25 7.70312 13.375 7.82812C14 7.95312 14.6249 8.20311 15.1249 8.57811C15.8749 9.07811 16.5 9.57811 17.125 10.2031L17.875 10.9531C18.25 11.3281 18.4999 11.7031 18.8749 12.0781C19.3749 12.5781 19.75 13.0781 20.25 13.5781L20.375 13.7031H20.5C21.25 13.3281 22.125 13.2031 22.875 12.9531C23.625 12.8281 24.25 12.7031 25 12.7031C26 12.7031 27.125 12.7031 28.125 12.8281C29 12.9531 29.9999 13.2031 30.7499 13.5781C30.9999 13.7031 31 13.7031 31.125 13.4531C31.5 12.9531 31.875 12.4531 32.375 11.8281C32.5 11.3281 32.8749 10.9531 33.2499 10.5781Z" fill="#F4A817"/>
<path d="M39.375 28.9531C39.375 28.8281 39.375 28.7031 39.375 28.4531C39.375 28.0781 39.375 27.7031 39.25 27.3281C39.25 26.8281 39.125 26.4531 39.125 25.9531C39 25.2031 38.875 24.4531 38.625 23.8281C38.5 23.4531 38.375 22.9531 38.125 22.5781C37.875 21.9531 37.625 21.4531 37.25 20.8281C37.25 20.7031 37.125 20.5781 37.125 20.5781C37.125 20.4531 37.125 20.3281 37.125 20.2031C37.375 19.4531 37.625 18.5781 37.875 17.8281C38 17.0781 38.25 16.4531 38.375 15.7031V15.5781C38.75 16.2031 39.1249 16.8281 39.4999 17.4531C39.8749 18.3281 40.25 19.0781 40.625 20.0781C40.875 20.8281 41.125 21.5781 41.25 22.4531C41.5 23.5781 41.5 24.7031 41.5 25.8281C41.5 28.9531 40.625 31.9531 39 34.5781C37.875 36.4531 36.3749 38.2031 34.4999 39.4531C33.4999 40.2031 32.375 40.8281 31.25 41.3281C29.875 41.9531 28.375 42.3281 26.875 42.4531C25.875 42.5781 25 42.5781 24 42.4531C22.125 42.3281 20.25 41.7031 18.5 40.9531C16.125 39.8281 14.1249 38.0781 12.6249 35.9531C11.7499 34.8281 11.125 33.5781 10.625 32.3281C10.375 31.5781 10 30.8281 9.875 30.0781C9.625 29.3281 9.49997 28.4531 9.37497 27.7031C9.24997 26.4531 9.25 25.3281 9.25 24.0781C9.375 23.0781 9.49995 22.0781 9.74995 21.2031C10.25 19.3281 11 17.4531 12.125 15.8281C12.25 16.2031 12.25 16.5781 12.375 16.9531C12.5 17.4531 12.625 17.9531 12.75 18.4531C13 19.0781 13.125 19.8281 13.375 20.4531V20.5781V20.7031C13.125 21.3281 12.8749 21.9531 12.6249 22.5781C12.6249 22.7031 12.5 22.7031 12.5 22.5781C12.625 22.7031 12.5 22.8281 12.5 22.9531C12.25 23.5781 12.125 24.3281 11.875 24.9531C11.75 25.3281 11.625 25.8281 11.625 26.2031C11.5 26.7031 11.4999 27.2031 11.3749 27.7031C11.3749 28.0781 11.25 28.4531 11.25 28.8281C11.25 29.3281 11.2499 29.8281 11.3749 30.3281C11.6249 31.0781 11.875 31.7031 12.25 32.3281C13 33.5781 13.9999 34.5781 15.1249 35.5781C16.6249 36.8281 18.3749 37.9531 20.1249 38.8281C20.4999 38.9531 20.875 39.2031 21.25 39.3281C21.5 39.4531 21.75 39.5781 22.125 39.5781C22.25 39.5781 22.4999 39.7031 22.6249 39.7031C23.2499 39.9531 23.875 40.0781 24.625 40.0781C25.375 40.2031 26.125 40.0781 26.875 39.9531C27.5 39.8281 28.2499 39.7031 28.8749 39.4531C29.4999 39.2031 30.25 38.9531 30.875 38.7031C31.75 38.3281 32.625 37.8281 33.5 37.2031C34.25 36.7031 34.9999 36.0781 35.7499 35.4531C35.9999 35.2031 36.375 34.9531 36.625 34.5781C37.125 34.0781 37.5 33.4531 37.875 32.8281C38.125 32.4531 38.25 32.2031 38.5 31.8281C38.75 31.2031 39 30.4531 39.125 29.7031C39.375 29.5781 39.375 29.2031 39.375 28.9531Z" fill="#F00500"/>
<path d="M33.25 10.5779C32.875 10.9529 32.625 11.3279 32.25 11.7029C31.875 12.2029 31.375 12.7029 31 13.3279C30.875 13.4529 30.875 13.4529 30.625 13.4529C29.75 13.0779 28.875 12.8279 28 12.7029C27 12.5779 26 12.4529 24.875 12.5779C24.125 12.5779 23.375 12.7029 22.75 12.8279C21.875 12.9529 21.125 13.2029 20.375 13.5779H20.25C20.25 13.5779 20.125 13.5779 20.125 13.4529C19.625 12.9529 19.25 12.4529 18.75 11.9529C18.375 11.5779 18.125 11.2029 17.75 10.9529C17.75 10.9529 17.75 10.9529 17.75 10.8279C20.5 9.20288 23.75 8.45288 26.875 8.70288C27.625 8.82788 28.5 8.95289 29.25 9.07789C30.625 9.20289 31.875 9.82788 33.25 10.5779C33.125 10.5779 33.125 10.4529 33.25 10.5779Z" fill="#F00500"/>
<path d="M27.5 39.8281C27.375 39.8281 27.375 39.8281 27.5 39.8281V39.8281ZM27.125 39.9531C27.25 39.9531 27.3751 39.9531 27.3751 39.9531C27.2501 39.8281 27.25 39.8281 27.125 39.9531ZM25.75 34.9531H24.625C24.375 34.9531 24.375 34.9531 24.375 35.2031C24.375 35.2031 24.375 35.2031 24.375 35.3281C24.5 35.4531 24.625 35.4531 24.75 35.4531C24.875 35.4531 24.8751 35.4531 24.8751 35.3281C25.0001 35.0781 25 35.0781 25.125 35.2031C25.125 35.2031 25.125 35.2031 25.25 35.2031L25.5001 35.5781C25.5001 35.5781 25.5 35.7031 25.625 35.7031H25.75H25.875C25.875 35.7031 26 35.7031 26 35.5781L26.1251 35.3281C26.3751 35.0781 26.375 35.0781 26.5 35.3281C26.5 35.3281 26.5 35.4531 26.625 35.3281C26.75 35.3281 26.75 35.2031 26.875 35.2031C26.875 35.0781 27 35.0781 27 34.9531C27 34.8281 27 34.8281 26.875 34.8281C26.5 34.9531 26.125 34.9531 25.75 34.9531ZM29.5 33.8281H28.375C28.375 33.9531 28.25 33.9531 28.125 33.9531C27.875 33.9531 27.5 33.9531 27.25 33.9531C27.125 33.9531 26.875 33.9531 26.875 33.9531C26.75 33.8281 26.75 33.7031 26.625 33.5781C26.625 33.4531 26.5 33.4531 26.375 33.4531C26.25 33.4531 26.25 33.4531 26.25 33.3281C26.25 32.9531 26.25 32.7031 26.25 32.3281C26.25 32.3281 26.25 32.3281 26.25 32.2031C26.5 32.0781 26.75 31.9531 27 31.8281C27.375 31.5781 27.75 31.0781 27.75 30.5781C27.75 30.2031 27.75 29.8281 27.75 29.4531C27.75 29.2031 27.625 28.9531 27.5 28.8281C27.375 28.7031 27.125 28.5781 26.875 28.5781H24.5C24.375 28.5781 24.25 28.5781 24.125 28.5781C24 28.5781 23.875 28.7031 23.875 28.7031C23.75 28.8281 23.75 28.8281 23.75 28.9531C23.75 29.0781 23.75 29.2031 23.75 29.3281C23.75 29.5781 23.75 29.8281 23.75 30.0781C23.75 30.3281 23.75 30.5781 23.875 30.7031C24 30.9531 24.1251 31.0781 24.2501 31.2031C24.6251 31.5781 25.125 31.8281 25.625 32.0781C25.625 32.0781 25.75 32.0781 25.75 32.2031C25.75 32.5781 25.75 32.8281 25.75 33.2031C25.75 33.2031 25.75 33.3281 25.625 33.3281C25.5 33.3281 25.5 33.3281 25.375 33.4531C25.375 33.5781 25.25 33.7031 25.125 33.7031C25.125 33.7031 25.125 33.7031 25 33.7031C24.5 33.7031 24 33.7031 23.5 33.7031H23.375C23.375 33.7031 23.375 33.5781 23.25 33.5781H22.125H22C22 33.5781 22 33.5781 22 33.7031C22 33.7031 22.125 33.8281 22.25 33.8281L22.3751 33.9531V34.0781C22.3751 34.2031 22.375 34.3281 22.5 34.5781C22.5 34.7031 22.5 34.7031 22.75 34.7031C22.875 34.7031 22.8751 34.7031 23.0001 34.8281C23.0001 34.9531 23.125 35.2031 23.125 35.3281C23.25 35.5781 23.25 35.8281 23.5 35.9531C23.625 35.8281 23.6251 35.8281 23.6251 35.7031C23.6251 35.5781 23.6251 35.4531 23.6251 35.3281C23.6251 34.9531 23.6251 34.4531 23.6251 34.0781C23.6251 34.0781 23.75 34.0781 23.875 34.0781C24.375 34.2031 25.0001 34.2031 25.5001 34.2031C26.3751 34.2031 27.25 34.2031 28.125 33.9531C28.25 33.9531 28.25 33.9531 28.25 34.0781C28.25 34.4531 28.25 34.9531 28.25 35.3281C28.25 35.5781 28.375 35.5781 28.5 35.8281L28.875 34.7031C29 34.4531 29 34.4531 29.125 34.4531C29.125 34.4531 29.2501 34.4531 29.2501 34.3281C29.3751 34.5781 29.375 34.2031 29.5 33.8281ZM36.625 34.7031C36.5 34.8281 36.5 34.8281 36.625 34.7031V34.7031ZM36.7501 34.7031C36.5001 34.9531 36.25 35.3281 35.875 35.5781C35.125 36.2031 34.3751 36.8281 33.6251 37.3281C32.7501 37.8281 31.875 38.3281 31 38.8281C30.375 39.0781 29.75 39.3281 29 39.5781C28.375 39.8281 27.625 39.9531 27 40.0781C26.25 40.2031 25.5 40.2031 24.75 40.2031C24.125 40.0781 23.375 39.9531 22.75 39.8281C22.625 39.8281 22.375 39.7031 22.25 39.7031C22 39.5781 21.75 39.4531 21.375 39.4531C21 39.3281 20.625 39.2031 20.25 38.9531C18.375 38.0781 16.75 37.0781 15.25 35.7031C14.125 34.8281 13.2501 33.7031 12.3751 32.4531C12.0001 31.8281 11.75 31.2031 11.5 30.4531C11.375 29.9531 11.375 29.4531 11.375 28.9531C11.75 28.9531 12.0001 28.8281 12.3751 28.8281C13.1251 28.7031 13.75 28.8281 14.5 28.8281C16.25 29.0781 18 30.0781 19.125 31.4531L19.2501 31.5781L19.5 30.8281C19.75 30.3281 20 29.8281 20.25 29.4531C20.375 29.0781 20.625 28.8281 20.875 28.4531C21.625 27.5781 22.5 26.9531 23.5 26.7031C24 26.5781 24.625 26.4531 25.125 26.4531C26.25 26.4531 27.25 26.7031 28.125 27.3281C28.75 27.7031 29.25 28.2031 29.75 28.7031C29.875 28.8281 30 29.0781 30.125 29.2031C30.5 29.8281 30.75 30.4531 31 31.0781L31.25 31.7031C31.5 31.4531 31.625 31.3281 31.875 31.0781C32.625 30.3281 33.375 29.8281 34.375 29.4531C35.125 29.2031 35.875 28.9531 36.625 28.9531C37.25 28.9531 38.0001 28.9531 38.6251 28.9531C38.8751 28.9531 39.0001 28.9531 39.2501 29.0781C39.2501 29.3281 39.2501 29.5781 39.2501 29.8281C39.1251 30.5781 38.8751 31.2031 38.6251 31.9531C38.5001 32.3281 38.2501 32.7031 38.0001 32.9531C37.6251 33.5781 37.2501 34.0781 36.7501 34.7031C36.8751 34.5781 36.7501 34.5781 36.7501 34.7031C36.8751 34.5781 36.875 34.5781 36.875 34.4531C36.75 34.5781 36.7501 34.5781 36.7501 34.7031Z" fill="#FFFEFE"/>
<path d="M13.375 9.70312C13.625 9.82812 13.75 9.82812 14 9.95312C14.5 10.2031 14.875 10.4531 15.25 10.7031C15.625 10.9531 16 11.3281 16.375 11.5781C16.875 11.9531 17.375 12.4531 17.75 12.9531C18 13.2031 18.25 13.5781 18.5 13.8281V13.9531C18.125 14.2031 17.75 14.5781 17.375 14.8281C17 15.2031 16.625 15.5781 16.25 15.9531C15.875 16.4531 15.375 16.9531 15 17.4531C14.75 17.8281 14.375 18.3281 14.125 18.7031C14.125 18.7031 14.125 18.7031 14.125 18.5781C14 18.2031 13.875 17.8281 13.75 17.3281C13.625 16.8281 13.5 16.3281 13.375 15.8281C13.25 15.4531 13.25 15.0781 13.125 14.5781C13.125 14.3281 13 13.9531 13 13.7031C13 13.4531 12.875 13.2031 12.875 12.8281C12.875 12.4531 12.875 12.0781 12.875 11.5781C12.875 10.9531 13 10.3281 13.25 9.70312H13.375Z" fill="#F28F1F"/>
<path d="M37.75 10.8281C37.75 11.2031 37.875 11.5781 37.875 11.9531C37.875 12.3281 37.875 12.8281 37.75 13.2031C37.625 13.8281 37.6251 14.4531 37.3751 15.0781C37.2501 15.7031 37.125 16.2031 36.875 16.8281C36.75 17.3281 36.625 17.8281 36.375 18.3281C36.375 18.3281 36.375 18.4531 36.25 18.4531C36.125 18.4531 36.1251 18.3281 36.1251 18.3281C35.8751 17.9531 35.625 17.5781 35.375 17.2031C35.125 16.8281 34.875 16.5781 34.625 16.2031C34.25 15.8281 33.875 15.4531 33.5 15.0781C33.375 14.9531 33.25 14.9531 33.25 14.8281C33.25 14.8281 33.25 14.8281 33.375 14.7031C33.5 14.3281 33.75 13.9531 33.875 13.7031C34.125 13.2031 34.5001 12.7031 34.8751 12.3281C35.2501 11.8281 35.75 11.4531 36.25 11.2031C36.875 11.0781 37.25 10.9531 37.75 10.8281Z" fill="#F28B20"/>
<path d="M16.875 23.8281C16.875 23.4531 16.875 23.2031 17 22.9531C17 22.9531 17 22.8281 17.125 22.8281H17.25C17.625 22.8281 18 22.9531 18.25 23.0781C19.375 23.5781 20.375 24.2031 21.375 24.9531C21.75 25.2031 22.125 25.5781 22.25 25.9531C22.25 26.0781 22.375 26.2031 22.375 26.3281C22.375 26.4531 22.375 26.5781 22.25 26.5781C22.125 26.5781 21.875 26.7031 21.75 26.7031C21.25 26.7031 20.75 26.5781 20.375 26.4531C19.875 26.3281 19.5 26.2031 19 26.0781C18.25 25.8281 17.625 25.4531 17.125 24.9531C17 24.9531 17 24.8281 17 24.7031C17 24.5781 17 24.5781 17 24.4531C16.875 24.0781 16.875 23.9531 16.875 23.8281Z" fill="#1F1712"/>
<path d="M34.25 23.8281C34.25 23.9531 34.25 24.2031 34.25 24.3281V24.4531C34.25 24.4531 34.25 24.5781 34.125 24.5781C33.75 24.9531 33.375 25.2031 33 25.3281C32.375 25.7031 31.75 25.8281 31 26.0781C30.5 26.2031 29.875 26.3281 29.375 26.3281C29.25 26.3281 29.125 26.3281 29 26.2031C29 26.2031 29 26.2031 28.875 26.2031C28.875 26.2031 28.875 26.2031 28.75 26.2031C28.75 26.2031 28.75 26.2031 28.75 26.0781C28.75 26.0781 28.75 26.0781 28.75 25.9531C28.875 25.5781 29.125 25.2031 29.375 24.9531C29.75 24.5781 30.25 24.3281 30.625 23.9531C31.125 23.5781 31.75 23.2031 32.375 22.9531C32.75 22.7031 33.25 22.5781 33.625 22.4531C34 22.4531 34 22.4531 34 22.8281C34.25 23.2031 34.25 23.5781 34.25 23.8281Z" fill="#1F1713"/>
<path d="M37.75 10.8282C37.25 10.8282 36.875 10.9532 36.375 11.2032C35.875 11.4532 35.375 11.8282 35 12.3282C34.625 12.7032 34.25 13.2032 34 13.7032C33.75 14.0782 33.625 14.3282 33.5 14.7032C33.5 14.7032 33.5 14.8282 33.375 14.8282C33.25 14.7032 33.1251 14.7032 33.0001 14.5782C32.7501 14.3282 32.375 14.0782 32 13.8282C31.875 13.8282 31.875 13.7032 32 13.7032C32.375 13.3282 32.75 12.8282 33.25 12.4532C34 11.7032 34.7501 11.0782 35.5001 10.5782C36.0001 10.2032 36.625 9.9532 37.125 9.7032C37.25 9.5782 37.3751 9.57819 37.3751 9.82819C37.6251 10.0782 37.625 10.4532 37.75 10.8282Z" fill="#F2991D"/>
<path d="M31.875 21.8281C31.375 21.8281 30.875 21.8281 30.375 21.7031C30.125 21.7031 30 21.5781 29.875 21.4531C29.75 21.3281 29.75 21.0781 29.75 20.9531C29.75 20.4531 30 20.0781 30.375 19.7031C30.625 19.4531 30.75 19.3281 31 19.2031C31.25 19.0781 31.375 19.0781 31.625 19.0781C31.875 19.0781 32 19.2031 32.25 19.3281C32.5 19.4531 32.75 19.5781 32.875 19.8281C33 20.0781 33.125 20.3281 33.125 20.5781C33.125 20.9531 33.125 21.2031 32.875 21.4531C32.875 21.5781 32.75 21.5781 32.625 21.7031C32.5 21.7031 32.375 21.8281 32.375 21.8281C32.375 21.8281 32.125 21.8281 31.875 21.8281Z" fill="#FFFEFE"/>
<path d="M18.9971 21.8281C18.6221 21.8281 18.3721 21.8281 18.1221 21.8281C17.9971 21.8281 17.8721 21.8281 17.8721 21.7031C17.7471 21.5781 17.7471 21.5781 17.6221 21.4531C17.4971 21.2031 17.3721 20.8281 17.4971 20.5781C17.6221 20.2031 17.7471 19.8281 17.9971 19.5781C18.2471 19.3281 18.6221 19.2031 18.9971 19.0781C19.2471 19.0781 19.3721 19.0781 19.6221 19.0781C19.8721 19.0781 19.9971 19.2031 20.1221 19.3281C20.4971 19.5781 20.7471 19.9531 20.9971 20.4531C21.1221 20.7031 21.1221 21.0781 20.9971 21.3281C20.9971 21.4531 20.8721 21.4531 20.8721 21.5781C20.8721 21.5781 20.7471 21.7031 20.6221 21.7031C20.3721 21.8281 20.1221 21.8281 19.8721 21.8281C19.4971 21.8281 19.2471 21.8281 18.9971 21.8281Z" fill="#FFFEFE"/>
<path d="M29.5 33.8281C29.375 34.2031 29.3751 34.5781 29.2501 34.9531C29.2501 35.0781 29.125 35.0781 29.125 35.0781C28.875 35.0781 28.875 35.0781 28.875 35.3281L28.5 36.4531C28.375 36.3281 28.25 36.2031 28.25 35.9531C28.25 35.5781 28.25 35.0781 28.25 34.7031C28.25 34.5781 28.25 34.5781 28.125 34.5781C27.25 34.7031 26.3751 34.8281 25.5001 34.8281C25.0001 34.8281 24.375 34.7031 23.875 34.7031C23.75 34.7031 23.7501 34.7031 23.6251 34.7031C23.6251 35.0781 23.6251 35.5781 23.6251 35.9531C23.6251 36.0781 23.6251 36.2031 23.6251 36.3281C23.6251 36.4531 23.5 36.5781 23.5 36.5781C23.375 36.3281 23.25 36.2031 23.125 35.9531C23 35.8281 23.0001 35.5781 23.0001 35.4531C23.0001 35.3281 22.875 35.3281 22.75 35.3281C22.625 35.3281 22.625 35.3281 22.5 35.2031C22.5 35.0781 22.5001 34.9531 22.3751 34.7031V34.5781C22.3751 34.5781 22.375 34.4531 22.25 34.4531C22.125 34.4531 22.125 34.3281 22 34.3281C22 34.3281 22 34.3281 22 34.2031C22 34.2031 22 34.2031 22.125 34.2031H23.25C23.375 34.2031 23.375 34.2031 23.375 34.3281C23.375 34.4531 23.375 34.3281 23.5 34.3281C24 34.3281 24.5 34.3281 25 34.3281C25 34.3281 25 34.3281 25.125 34.3281C25.125 34.2031 25.25 34.0781 25.375 34.0781C25.5 33.9531 25.5 33.9531 25.625 33.9531C25.625 33.9531 25.75 33.9531 25.75 33.8281C25.75 33.4531 25.75 33.2031 25.75 32.8281C25.75 32.7031 25.75 32.7031 25.625 32.7031C25.125 32.4531 24.6251 32.2031 24.2501 31.8281C24.1251 31.7031 24 31.4531 23.875 31.3281C23.75 31.0781 23.75 30.9531 23.75 30.7031C23.75 30.4531 23.75 30.2031 23.75 29.9531C23.75 29.8281 23.75 29.7031 23.75 29.5781C23.75 29.4531 23.875 29.3281 23.875 29.3281C24 29.2031 24 29.2031 24.125 29.2031C24.25 29.2031 24.375 29.2031 24.5 29.2031H26.875C27.125 29.2031 27.375 29.3281 27.5 29.4531C27.625 29.5781 27.75 29.8281 27.75 30.0781C27.75 30.4531 27.75 30.8281 27.75 31.2031C27.625 31.7031 27.375 32.2031 27 32.4531C26.75 32.5781 26.5 32.7031 26.25 32.8281C26.25 32.8281 26.25 32.8281 26.25 32.9531C26.25 33.3281 26.25 33.5781 26.25 33.9531C26.25 34.0781 26.25 34.0781 26.375 34.0781C26.5 34.0781 26.5 34.0781 26.625 34.2031C26.75 34.3281 26.75 34.4531 26.875 34.5781C27 34.7031 27.1251 34.5781 27.3751 34.5781C27.6251 34.5781 28 34.5781 28.25 34.5781C28.375 34.5781 28.375 34.5781 28.5 34.4531L29.5 33.8281Z" fill="#1D1919"/>
<path d="M25.75 34.9531C26.125 34.9531 26.5 34.9531 27 34.9531C27.125 34.9531 27.125 34.9531 27.125 35.0781C27.125 35.2031 27.125 35.2031 27 35.3281C27 35.4531 26.8751 35.4531 26.7501 35.4531H26.625C26.375 35.2031 26.375 35.2031 26.25 35.4531L26.1251 35.7031C26.1251 35.7031 26.125 35.8281 26 35.8281H25.875H25.75C25.75 35.8281 25.625 35.8281 25.625 35.7031L25.375 35.3281C25.375 35.3281 25.375 35.3281 25.25 35.3281C25 35.3281 25 35.3281 25 35.4531C25 35.5781 24.8751 35.5781 24.8751 35.5781C24.7501 35.5781 24.625 35.4531 24.5 35.4531C24.5 35.4531 24.5 35.4531 24.5 35.3281C24.5 35.0781 24.5 35.0781 24.75 35.0781L25.75 34.9531Z" fill="#171413"/>
<path d="M27.125 39.953C27.25 39.953 27.25 39.953 27.375 39.953C27.25 39.828 27.25 39.953 27.125 39.953Z" fill="#F6D9A7"/>
</svg>
