<svg width="51" height="50" viewBox="0 0 51 50" fill="none" xmlns="http://www.w3.org/2000/svg">
<rect x="0.5" width="50" height="50" rx="25" fill="white"/>
<path d="M25.0062 10.1001C29.0062 10.1001 32.9063 11.7001 35.7063 14.5001C38.5063 17.3001 40.1062 21.2001 40.1062 25.2001C40.1062 29.2001 38.5063 33.1001 35.7063 35.9001C32.9063 38.7001 29.0062 40.3001 25.0062 40.3001C21.0062 40.3001 17.1062 38.7001 14.3062 35.9001C11.5062 33.1001 9.90625 29.2001 9.90625 25.2001C9.90625 21.2001 11.5062 17.3001 14.3062 14.5001C17.2062 11.7001 21.0062 10.1001 25.0062 10.1001Z" fill="url(#paint0_radial_8053_78845)"/>
<path d="M35.3109 20.5001C35.2109 20.8001 35.2109 21.0001 35.1109 21.3001C35.0109 21.6001 34.9109 21.9001 34.8109 22.3001C34.8109 22.5001 34.7109 22.6001 34.7109 22.8001C34.7109 23.0001 34.6109 23.2001 34.6109 23.4001C34.5109 23.7001 34.3109 24.0001 34.1109 24.3001C33.9109 24.6001 33.5109 25.1001 33.0109 25.2001H32.8109C31.8109 24.7001 30.8109 24.2001 29.7109 23.8001C29.2109 23.7001 29.3109 22.6001 29.3109 21.6001C29.3109 21.2001 29.3109 20.8001 29.3109 20.4001C29.3109 19.8001 29.3109 19.2001 29.0109 18.7001C28.8109 18.1001 28.4109 17.7001 27.9109 17.3001C27.2109 16.9001 26.5109 16.8001 25.7109 16.8001C25.8109 16.7001 26.0109 16.6001 26.2109 16.5001C26.7109 16.2001 27.2109 16.0001 27.8109 15.9001C28.0109 15.9001 28.2109 15.9001 28.3109 15.9001C29.3109 15.7001 30.4109 15.7001 31.4109 16.0001C32.1109 16.2001 32.6109 16.6001 33.1109 17.2001C33.4109 17.6001 33.7109 18.0001 34.2109 18.4001C34.4109 18.6001 34.6109 18.8001 34.9109 19.0001C35.1109 19.2001 35.1109 19.2001 35.2109 19.3001C35.5109 19.6001 35.5109 20.1001 35.3109 20.5001Z" fill="white"/>
<path d="M30.1125 25.5002C30.2125 25.5002 30.2125 25.5002 30.1125 25.5002C30.2125 25.6002 30.2125 25.6002 30.2125 25.6002C30.2125 25.6002 30.2125 25.6002 30.2125 25.7002C30.1125 25.9002 29.9125 26.2002 29.7125 26.6002C29.6125 26.8002 29.5125 27.0002 29.4125 27.1002C29.2125 27.5002 29.1125 27.9002 29.1125 28.3002C29.1125 28.6002 29.1125 28.8002 28.9125 28.9002C28.7125 29.0002 28.6125 29.0002 27.4125 29.2002C27.3125 29.2002 27.1125 29.2002 27.0125 29.3002C27.0125 29.3002 27.0125 29.3002 26.9125 29.3002C26.9125 29.3002 26.9125 29.3002 26.8125 29.3002C26.8125 29.3002 26.8125 29.3002 26.8125 29.2002C26.8125 29.0002 26.8125 28.8002 26.8125 28.6002V28.0002C26.8125 27.7002 26.8125 27.6002 26.9125 27.4002C27.0125 27.3002 27.1125 27.2002 27.2125 27.1002C27.5125 26.9002 27.8125 26.6002 28.0125 26.3002C28.1125 26.1002 28.2125 26.0002 28.3125 25.8002C28.3125 25.8002 28.3125 25.7002 28.5125 25.6002C28.7125 25.5002 28.9125 25.3002 29.1125 25.3002C29.3125 25.2002 29.5125 25.2002 29.8125 25.2002C29.7125 25.3002 29.9125 25.4002 30.1125 25.5002Z" fill="white"/>
<path d="M25.5094 30.9001C25.4094 30.9001 25.4094 30.9001 25.5094 30.9001C25.4094 30.9001 25.4094 31.0001 25.5094 30.9001C25.4094 31.0001 25.3094 31.0001 25.3094 30.9001C25.3094 30.9001 25.2094 30.9001 25.2094 30.8001C25.1094 30.6001 25.1094 30.4001 25.1094 30.2001L25.6094 30.1001C25.6094 30.4001 25.5094 30.6001 25.5094 30.9001Z" fill="white"/>
<path d="M25.5078 29.1C25.5078 29.2 25.5078 29.2 25.5078 29.3V29.7C25.3078 29.7 25.2078 29.8 25.0078 29.7V29.3C25.0078 29.2 25.0078 29.1 25.0078 29H25.1078C25.2078 29 25.3078 29 25.4078 29C25.5078 29 25.5078 29.1 25.5078 29.1Z" fill="white"/>
<path d="M24.6062 30.8C24.6062 31 24.5062 31.4 24.3062 31.4C24.2062 31.4 24.1062 31.4 24.1062 31.4C23.9062 31.3 23.9062 30.8 23.9062 30.5C24.0063 30.5 24.2062 30.5 24.3062 30.5C24.4062 30.5 24.5062 30.5 24.6062 30.5V30.8Z" fill="white"/>
<path d="M24.4062 29.8001L23.9062 30.0001C23.9062 29.8001 24.0062 29.5001 24.0062 29.3001C24.0062 29.2001 24.0062 29.2001 24.0062 29.1001H24.3062C24.4062 29.3001 24.5063 29.6001 24.4062 29.8001Z" fill="white"/>
<path d="M23.6125 29.6998C23.6125 29.7998 23.5125 29.9998 23.5125 30.1998H22.8125C22.9125 29.9998 22.9125 29.7998 22.9125 29.5998C22.9125 29.4998 23.0125 29.3998 23.1125 29.2998C23.1125 29.2998 23.2125 29.2998 23.3125 29.2998C23.4125 29.2998 23.4125 29.2998 23.5125 29.3998C23.6125 29.3998 23.6125 29.4998 23.6125 29.5998C23.6125 29.4998 23.6125 29.5998 23.6125 29.6998Z" fill="white"/>
<path d="M23.3109 31.7C23.3109 31.8 23.2109 31.8 23.1109 31.8H23.0109H22.9109C22.7109 31.6 22.7109 31 22.7109 30.6C22.9109 30.5 23.2109 30.5 23.4109 30.5C23.6109 30.9 23.5109 31.4 23.3109 31.7Z" fill="white"/>
<path d="M22.4109 30.1C22.4109 30.2 22.3109 30.3 22.3109 30.3C22.1109 30.3 21.9109 30.3 21.7109 30.3L21.9109 29.2C22.1109 29.1 22.4109 29.1 22.6109 29.2C22.7109 29.3 22.5109 29.9 22.4109 30.1Z" fill="white"/>
<path d="M22.1055 31.8998C22.0055 31.9998 21.9055 32.0998 21.8055 32.0998C21.7055 32.0998 21.6055 32.1998 21.5055 32.0998C21.3055 32.0998 21.2055 31.9998 21.2055 31.9998C21.1055 31.7998 21.2055 31.1998 21.3055 30.7998H22.2055C22.2055 30.8998 22.2055 30.8998 22.2055 30.9998C22.4055 31.3998 22.3055 31.6998 22.1055 31.8998Z" fill="white"/>
<path d="M29.7094 24.1998C28.9094 23.9998 28.9094 22.6998 29.0094 21.5998C29.0094 21.1998 29.0094 20.7998 29.0094 20.4998C29.0094 19.9998 29.0094 19.3998 28.8094 18.9998C28.6094 18.5998 28.3094 18.0998 27.9094 17.6998C26.8094 17.1998 25.6094 17.0998 24.5094 17.3998C24.2094 17.4998 23.9094 17.5998 23.6094 17.5998C23.1094 17.5998 22.6094 17.3998 22.2094 17.0998C22.0094 16.8998 21.7094 16.7998 21.4094 16.7998H21.3094C21.0094 16.7998 20.8094 16.7998 20.6094 16.8998C20.4094 16.9998 20.1094 17.0998 20.0094 17.2998C19.8094 17.6998 19.6094 17.9998 19.5094 18.4998C19.4094 18.7998 19.3094 19.0998 19.3094 19.3998C19.3094 19.6998 19.2094 19.8998 19.1094 20.1998C19.0094 20.3998 19.0094 20.5998 18.9094 20.7998C18.8094 21.2998 18.6094 21.7998 18.3094 22.1998C18.2094 22.2998 18.2094 22.3998 18.2094 22.3998C18.1094 22.5998 18.0094 22.6998 17.9094 22.8998C17.7094 23.0998 17.6094 23.3998 17.6094 23.6998C17.6094 23.8998 17.7094 24.0998 17.8094 24.2998C17.9094 24.4998 18.0094 24.6998 18.0094 24.8998C18.0094 25.2998 18.0094 25.4998 17.2094 26.1998C16.8094 26.5998 16.4094 26.9998 16.1094 27.3998V27.4998H16.3094C16.5094 27.4998 16.7094 27.5998 16.8094 27.6998C16.8094 27.6998 16.8094 27.6998 16.9094 27.6998C17.0094 27.6998 17.2094 27.5998 17.3094 27.6998C17.5094 27.6998 17.6094 27.7998 17.7094 27.8998C17.7094 27.8998 17.7094 27.8998 17.8094 27.8998H17.9094C18.0094 27.8998 18.2094 27.8998 18.3094 27.8998C18.4094 27.8998 18.5094 27.9998 18.5094 27.9998L18.6094 28.0998H18.7094H18.8094C19.0094 28.0998 19.2094 28.0998 19.3094 28.0998C19.4094 28.0998 19.5094 28.1998 19.5094 28.1998C19.6094 28.2998 19.7094 28.3998 19.8094 28.4998C19.8094 28.4998 19.8094 28.4998 19.8094 28.5998C19.8094 28.5998 19.8094 28.5998 19.9094 28.5998C20.0094 28.5998 20.0094 28.5998 20.0094 28.5998H20.1094L20.2094 28.4998C20.3094 28.4998 20.3094 28.4998 20.4094 28.4998C20.4094 28.4998 20.5094 28.4998 20.5094 28.5998L20.6094 28.6998H20.7094C21.0094 28.5998 21.3094 28.6998 21.5094 28.7998C21.6094 28.8998 21.7094 28.8998 21.7094 28.9998C21.8094 28.9998 22.5094 28.7998 22.8094 28.9998C22.8094 28.9998 22.9094 28.9998 22.9094 28.8998C23.0094 28.7998 23.1094 28.7998 23.2094 28.7998C23.3094 28.7998 23.4094 28.8998 23.5094 28.8998H23.6094L23.7094 28.7998L23.8094 28.6998H23.9094H24.3094C24.5094 28.6998 24.6094 28.6998 24.8094 28.6998H24.9094C25.1094 28.5998 25.3094 28.5998 25.5094 28.6998C25.7094 28.7998 25.6094 28.9998 25.6094 29.0998C25.6094 29.1998 25.6094 29.1998 25.6094 29.2998V29.3998C25.6094 29.4998 25.6094 29.5998 25.6094 29.7998V29.8998C25.6094 29.8998 25.6094 29.8998 25.7094 29.8998C25.7094 29.8998 25.7094 29.8998 25.8094 29.8998C25.9094 29.7998 26.0094 29.7998 26.1094 29.6998V29.5998C26.1094 29.2998 26.2094 28.8998 26.1094 28.5998V27.9998C26.0094 27.6998 26.1094 27.3998 26.2094 27.1998C26.3094 26.9998 26.5094 26.8998 26.6094 26.7998C26.9094 26.5998 27.1094 26.3998 27.3094 26.1998C27.4094 26.0998 27.5094 25.9998 27.5094 25.7998C27.5094 25.6998 27.6094 25.5998 27.8094 25.3998C28.0094 25.1998 28.3094 25.0998 28.5094 24.9998C28.8094 24.8998 29.0094 24.8998 29.3094 24.8998C29.7094 24.9998 30.0094 25.0998 30.4094 25.1998C30.7094 25.2998 31.0094 25.4998 31.3094 25.5998H31.4094C31.4094 25.5998 31.5094 25.5998 31.5094 25.4998C31.6094 25.3998 31.6094 25.3998 31.7094 25.2998C31.7094 25.2998 31.7094 25.2998 31.8094 25.2998C31.8094 25.2998 31.8094 25.2998 31.8094 25.1998C31.8094 25.1998 31.8094 25.1998 31.8094 25.0998C31.8094 25.0998 31.8094 25.0998 31.8094 24.9998C31.8094 24.9998 31.8094 24.9998 31.7094 24.9998C31.4094 24.6998 30.5094 24.3998 29.7094 24.1998ZM21.8094 24.3998C21.6094 24.9998 21.2094 25.4998 20.7094 25.8998C20.2094 26.2998 19.6094 26.5998 19.0094 26.6998H18.9094C18.7094 26.5998 18.5094 26.4998 18.4094 26.3998C18.3094 26.2998 18.2094 26.1998 18.2094 26.0998C18.1094 25.7998 18.1094 25.4998 18.3094 25.2998L18.4094 25.1998V25.0998V24.9998C18.4094 24.8998 18.5094 24.7998 18.4094 24.7998C18.4094 24.6998 18.4094 24.6998 18.4094 24.5998C18.4094 24.3998 18.5094 24.1998 18.5094 24.0998C18.5094 23.7998 18.6094 23.5998 18.7094 23.2998L18.8094 23.1998C18.8094 23.1998 18.9094 23.1998 18.9094 23.0998H19.0094C19.2094 23.0998 19.3094 23.0998 19.5094 23.0998C19.7094 23.0998 19.9094 23.0998 20.1094 23.1998C20.2094 23.1998 20.3094 23.2998 20.5094 23.2998H20.6094C20.7094 23.2998 20.8094 23.3998 20.9094 23.4998L21.0094 23.5998C21.2094 23.6998 21.3094 23.8998 21.3094 24.0998C21.3094 24.2998 21.9094 24.1998 21.8094 24.3998ZM22.7094 20.1998V20.3998C22.7094 20.6998 22.6094 20.8998 22.4094 21.1998C22.2094 21.3998 22.0094 21.5998 21.7094 21.6998C21.3094 21.7998 20.9094 21.8998 20.5094 21.8998C20.3094 21.8998 20.0094 21.7998 19.8094 21.6998C19.6094 21.5998 19.5094 21.3998 19.4094 21.1998C19.3094 20.8998 19.5094 20.5998 19.7094 20.1998C19.7094 20.0998 19.8094 20.0998 19.8094 19.9998C20.0094 19.5998 20.2094 19.1998 20.3094 18.7998C20.4094 18.4998 20.5094 18.2998 20.7094 17.9998C20.8094 17.8998 20.8094 17.8998 20.9094 17.8998C20.9094 17.8998 21.0094 17.8998 21.0094 17.7998C21.1094 17.7998 21.1094 17.6998 21.2094 17.6998C21.3094 17.5998 21.5094 17.5998 21.7094 17.5998C22.0094 17.5998 22.3094 17.6998 22.5094 17.8998C22.7094 18.0998 22.8094 18.2998 22.8094 18.5998C22.9094 18.7998 22.8094 19.1998 22.7094 20.1998ZM27.3094 21.4998C27.2094 21.7998 27.0094 21.9998 26.8094 22.2998C26.5094 22.5998 26.0094 22.6998 25.6094 22.6998C25.4094 22.6998 25.2094 22.6998 25.0094 22.5998C24.6094 22.4998 23.9094 22.3998 23.7094 21.7998C23.7094 21.6998 23.6094 21.5998 23.7094 21.4998C23.7094 21.2998 23.7094 21.0998 23.7094 20.8998C23.7094 20.6998 23.7094 20.4998 23.7094 20.2998C23.7094 19.9998 23.8094 19.6998 23.9094 19.3998C23.9094 19.2998 24.0094 19.2998 24.1094 19.2998C24.2094 19.2998 24.2094 19.2998 24.3094 19.2998C24.4094 19.2998 24.4094 19.3998 24.4094 19.4998C24.4094 19.5998 24.4094 19.5998 24.4094 19.6998C24.3094 19.8998 24.3094 20.1998 24.3094 20.3998C24.3094 20.4998 24.3094 20.6998 24.3094 20.7998C24.3094 20.9998 24.3094 21.1998 24.3094 21.4998V21.5998C24.3094 21.6998 24.4094 21.7998 24.5094 21.7998C24.5094 21.7998 24.5094 21.7998 24.6094 21.7998C24.6094 21.7998 24.6094 21.7998 24.7094 21.7998C24.8094 21.7998 24.7094 21.7998 24.7094 21.6998C24.7094 21.6998 24.7094 21.6998 24.7094 21.5998C24.6094 20.9998 24.6094 20.3998 24.8094 19.8998C24.9094 19.7998 25.0094 19.4998 25.1094 19.2998C25.1094 19.2998 25.1094 19.2998 25.1094 19.1998C25.1094 19.0998 25.2094 18.9998 25.2094 18.9998L25.3094 18.8998C25.4094 18.7998 25.3094 18.6998 25.2094 18.6998C25.0094 18.7998 24.9094 18.8998 24.9094 18.8998C24.9094 18.8998 24.8094 18.8998 24.8094 18.9998H24.7094H24.6094C24.6094 18.9998 24.5094 18.9998 24.5094 18.8998V18.7998V18.6998V18.5998L24.6094 18.4998C24.8094 18.2998 25.1094 18.1998 25.3094 18.0998C25.6094 17.9998 25.9094 17.9998 26.1094 18.0998C26.4094 18.0998 26.6094 18.1998 26.9094 18.3998C27.1094 18.5998 27.3094 18.7998 27.5094 18.9998C27.8094 19.3998 27.9094 19.7998 27.9094 20.2998C27.9094 20.4998 27.7094 21.0998 27.3094 21.4998Z" fill="white"/>
<path d="M21.5062 18.1001C21.5062 18.2001 21.4062 18.3001 21.3062 18.5001C21.2062 18.8001 21.0063 19.2001 20.9062 19.4001C20.8062 19.6001 20.7062 19.8001 20.6062 19.9001C20.5062 20.0001 20.4062 20.2001 20.4062 20.3001C20.3063 20.6001 20.3063 20.9001 20.4062 21.2001C20.2063 21.2001 20.0063 21.1001 19.9062 20.9001C19.9062 20.8001 19.9062 20.7001 20.1062 20.3001C20.1062 20.2001 20.2063 20.2001 20.2063 20.1001C20.5063 19.7001 20.6062 19.2001 20.8062 18.8001C20.9062 18.5001 21.0062 18.3001 21.1062 18.2001C21.3062 18.2001 21.4062 18.1001 21.5062 18.1001Z" fill="white"/>
<path d="M21.2125 30.5001C21.0125 30.8001 20.8125 31.1001 20.6125 31.4001C20.4125 30.9001 20.3125 30.3001 20.3125 29.7001C20.3125 29.5001 20.4125 29.4001 20.5125 29.2001C20.5125 29.1001 20.7125 29.1001 20.9125 29.1001C21.0125 29.1001 21.2125 29.1001 21.3125 29.2001C21.4125 29.2001 21.4125 29.3001 21.4125 29.3001C21.4125 29.4001 21.4125 29.4001 21.4125 29.5001C21.4125 29.8001 21.3125 30.2001 21.2125 30.5001Z" fill="white"/>
<path d="M31.6078 26.1C31.7078 26.1 31.7078 26.2 31.6078 26.1C31.6078 26.3 31.5078 26.4 31.4078 26.4C31.3078 26.5 31.2078 26.7 31.1078 26.8C30.9078 27.2 30.9078 27.6 30.9078 28C30.9078 28.5 30.9078 29.1 30.9078 29.6C30.9078 29.9 30.9078 30.1 30.9078 30.4C30.8078 31 30.5078 31.5 30.2078 31.9C29.9078 32.6 29.3078 33.1 28.6078 33.4C28.5078 33.4 28.4078 33.4 28.4078 33.4C28.2078 33.4 28.0078 33.4 27.4078 33.4C26.8078 33.4 26.2078 33.4 25.6078 33.5C25.3078 33.5 25.0078 33.6 24.7078 33.8C24.5078 33.9 24.2078 34 24.0078 34C23.5078 34.1 23.0078 34.1 22.4078 34.1C21.5078 34.1 20.6078 34.1 19.7078 34C18.9078 34 18.2078 33.8 17.5078 33.6C16.5078 33.1 16.2078 32.2 15.5078 30.7H15.6078C15.6078 30.7 15.6078 30.7 15.7078 30.7H15.9078C15.9078 30.8 15.9078 30.8 16.0078 30.9C16.1078 31 16.1078 31 16.1078 31C16.2078 31 16.3078 31.1 16.5078 31.1C16.6078 31.1 16.8078 31.1 16.9078 31.1H17.0078C17.0078 31.1 17.1078 31.1 17.1078 31.2C17.2078 31.5 17.4078 31.7 17.6078 31.7C17.7078 31.7 17.7078 31.7 17.8078 31.6C17.9078 31.6 17.9078 31.6 18.0078 31.6C18.1078 31.6 18.1078 31.6 18.2078 31.7L18.3078 31.8C18.7078 32 19.1078 32.2 19.5078 32.1C19.7078 32.1 19.9078 32.1 20.1078 32C20.3078 31.9 20.3078 31.8 20.3078 31.7C20.3078 31.6 20.3078 31.5 20.3078 31.4C20.3078 31.4 20.3078 31.5 20.4078 31.5C20.5078 31.5 20.7078 31.5 20.8078 31.7C20.8078 31.8 20.8078 31.8 20.9078 31.9C21.0078 32 21.0078 32.1 21.1078 32.1C21.2078 32.1 21.3078 32.2 21.4078 32.2C21.6078 32.2 21.7078 32.2 21.8078 32.1C21.9078 32 22.1078 32 22.2078 31.8C22.2078 31.8 22.3078 31.7 22.4078 31.7C22.5078 31.7 22.5078 31.7 22.6078 31.7C22.6078 31.7 22.7078 31.8 22.8078 31.8C22.9078 31.8 22.9078 31.8 23.0078 31.8H23.1078C23.2078 31.8 23.3078 31.8 23.3078 31.7C23.4078 31.7 23.4078 31.6 23.5078 31.5C23.6078 31.4 23.6078 31.3 23.6078 31.2H23.7078C23.7078 31.2 23.8078 31.3 23.9078 31.3C24.0078 31.3 24.0078 31.3 24.1078 31.3H24.2078C24.3078 31.3 24.5078 31.2 24.6078 31.1C24.7078 31 24.8078 30.9 24.8078 30.7C24.9078 30.8 24.9078 30.8 25.0078 30.9C25.1078 30.9 25.2078 30.9 25.3078 30.9C25.4078 30.9 25.4078 30.9 25.5078 30.9C25.6078 30.9 25.6078 30.8 25.6078 30.8C25.7078 30.7 25.8078 30.5 25.7078 30.3V30.2C25.7078 30.2 25.8078 30.2 25.8078 30.1C26.1078 30 26.3078 29.8 26.5078 29.6C26.5078 29.6 26.5078 29.6 26.6078 29.5C26.6078 29.5 26.6078 29.5 26.7078 29.5C26.8078 29.5 27.0078 29.4 27.1078 29.4C27.2078 29.4 27.3078 29.3 27.4078 29.3C28.6078 29.1 28.8078 29.1 29.1078 28.9C29.3078 28.8 29.4078 28.6 29.4078 28.5C29.5078 28.3 29.5078 28.1 29.5078 28C29.5078 27.6 29.6078 27.3 29.8078 27C29.9078 26.9 30.0078 26.7 30.1078 26.5C30.3078 26.2 30.5078 25.7 30.7078 25.5C30.7078 25.5 30.7078 25.5 30.8078 25.5C30.9078 25.5 30.9078 25.5 30.9078 25.5C31.0078 25.8 31.3078 26 31.6078 26.1Z" fill="white"/>
<path d="M20.0078 29.7C19.9078 30.3 19.9078 30.8 20.0078 31.4C20.0078 31.6 20.0078 31.8 20.1078 32C19.9078 32.1 19.8078 32.1 19.6078 32.1C19.3078 32.1 18.9078 32 18.6078 31.9C18.5078 31.9 18.5078 31.8 18.5078 31.8C18.5078 31.7 18.5078 31.7 18.5078 31.6C18.5078 31.5 18.5078 31.5 18.6078 31.4C18.6078 31.3 18.7078 31.3 18.7078 31.3C18.8078 31.2 18.9078 31.1 18.9078 30.9C19.2078 30.4 19.3078 30.3 19.4078 30.1C19.5078 30 19.6078 29.8 19.7078 29.7C19.8078 29.6 19.9078 29.4 19.9078 29.3C20.0078 29.2 20.1078 29.1 20.1078 29C20.1078 29.1 20.1078 29.2 20.1078 29.3C20.1078 29.3 20.0078 29.5 20.0078 29.7Z" fill="white"/>
<path d="M19.8125 23.3002C19.7125 23.4002 19.7125 23.5002 19.6125 23.6002C19.5125 23.9002 19.4125 24.2002 19.4125 24.5002C19.4125 24.6002 19.4125 24.7002 19.4125 24.8002C19.4125 24.9002 19.3125 25.0002 19.3125 25.0002C19.1125 25.3002 19.0125 25.7002 19.1125 26.1002C19.0125 26.1002 18.9125 26.0002 18.8125 25.9002C18.8125 25.7002 18.8125 25.6002 18.8125 25.4002C18.9125 25.1002 19.0125 24.8002 19.1125 24.5002V24.4002C19.1125 24.2002 19.2125 24.0002 19.2125 23.8002C19.2125 23.6002 19.2125 23.4002 19.3125 23.3002C19.3125 23.3002 19.4125 23.2002 19.5125 23.2002L19.8125 23.3002Z" fill="white"/>
<path d="M19.5078 29.1001C19.5078 29.0001 19.4078 28.8001 19.4078 28.7001C19.3078 28.7001 19.2078 28.6001 19.2078 28.6001H19.1078L19.0078 28.7001C18.9078 28.8001 18.8078 28.9001 18.8078 29.1001C18.7078 29.2001 18.7078 29.3001 18.6078 29.4001C18.6078 29.4001 18.5078 29.5001 18.5078 29.6001H18.6078C18.7078 29.6001 18.8078 29.6001 18.9078 29.6001C19.1078 29.6001 19.4078 29.6001 19.6078 29.6001C19.6078 29.5001 19.7078 29.4001 19.8078 29.3001C19.8078 29.2001 19.9078 29.2001 19.9078 29.1001C19.5078 29.2001 19.5078 29.1001 19.5078 29.1001Z" fill="white"/>
<path d="M18.6109 30C18.5109 30.4 18.3109 30.8 18.1109 31.1C17.8109 31.5 17.7109 31.6 17.7109 31.6C17.6109 31.6 17.5109 31.3 17.4109 31C17.4109 30.9 17.3109 30.8 17.3109 30.7C17.2109 30.5 17.2109 30.2 17.2109 30C17.6109 30.2 18.1109 30.2 18.6109 30.2C18.6109 30 18.6109 30 18.6109 30Z" fill="white"/>
<path d="M18.2094 28.6C18.1094 28.8 18.0094 28.9 17.9094 29.1C17.9094 29.2 17.8094 29.3 17.7094 29.3C17.7094 29.4 17.6094 29.4 17.6094 29.4C17.5094 29.4 17.4094 29.4 17.3094 29.3L17.1094 29.2C17.1094 29.2 17.1094 29.2 17.1094 29.1C17.1094 29 17.2094 29 17.2094 28.9L17.3094 28.6C17.4094 28.4 17.5094 28.3 17.7094 28.1C17.8094 28 17.8094 28 17.9094 28H18.0094C18.1094 28.4 18.2094 28.5 18.2094 28.6Z" fill="white"/>
<path d="M17.3094 28.1001C17.1094 28.3001 16.9094 28.5001 16.8094 28.7001C16.7094 28.8001 16.7094 29.0001 16.6094 29.1001C16.5094 29.1001 16.5094 29.1001 16.4094 29.1001C16.3094 29.1001 16.3094 29.1001 16.2094 29.0001C16.2094 29.0001 16.2094 29.0001 16.1094 29.0001C16.2094 28.9001 16.2094 28.8001 16.3094 28.7001C16.4094 28.5001 16.5094 28.4001 16.6094 28.3001L16.7094 28.2001C16.8094 28.2001 16.8094 28.2001 16.9094 28.2001C17.1094 28.1001 17.1094 28.1001 17.3094 28.1001Z" fill="white"/>
<path d="M17.0109 30.9001H16.5109H16.4109C16.4109 30.8001 16.4109 30.8001 16.4109 30.7001C16.3109 30.3001 16.3109 30.0001 16.4109 29.6001C16.6109 29.7001 16.8109 29.7001 17.0109 29.7001C17.0109 30.0001 17.0109 30.3001 17.1109 30.6001C16.9109 30.7001 16.9109 30.8001 17.0109 30.9001Z" fill="white"/>
<path d="M16.4094 27.9998C16.2094 28.1998 16.1094 28.3998 16.0094 28.5998C15.9094 28.6998 15.9094 28.7998 15.9094 28.8998C15.8094 28.8998 15.8094 28.8998 15.7094 28.7998C15.6094 28.7998 15.6094 28.6998 15.6094 28.6998V28.5998C15.6094 28.4998 15.7094 28.3998 15.7094 28.3998C15.8094 28.2998 15.9094 28.0998 15.9094 27.9998C15.9094 27.8998 16.0094 27.8998 16.0094 27.8998H16.1094C16.2094 27.7998 16.3094 27.8998 16.4094 27.9998Z" fill="white"/>
<path d="M15.1094 28.8999C15.2094 28.8999 15.2094 28.9999 15.3094 28.9999L15.4094 29.0999C15.3094 29.3999 15.3094 29.6999 15.3094 29.8999C15.1094 29.5999 15.1094 29.1999 15.1094 28.8999Z" fill="white"/>
<path d="M15.9094 29.4998C15.9094 29.6998 15.9094 29.9998 15.9094 30.1998C15.9094 30.2998 15.9094 30.4998 15.9094 30.5998H15.8094L15.7094 30.4998C15.6094 30.3998 15.6094 30.2998 15.6094 30.0998C15.6094 29.7998 15.6094 29.5998 15.6094 29.2998H15.7094C15.8094 29.3998 15.8094 29.3998 15.9094 29.4998Z" fill="white"/>
<g opacity="0.8">
<path d="M22.4091 42.1998C21.3091 42.1998 20.2091 42.0998 19.4091 42.0998H19.2091H19.0091C18.9091 42.0998 18.8091 42.0998 18.6091 42.0998C17.2091 41.9998 15.7091 41.5998 14.4091 40.9998L14.1091 40.8998L13.9091 40.7998C11.5091 39.3998 9.60907 37.1998 8.60907 34.5998C8.60907 34.4998 8.50907 34.3998 8.50907 34.2998C8.20907 33.6998 8.00907 33.0998 7.80907 32.3998V32.2998V32.1998C7.30907 30.6998 7.20908 29.0998 7.40908 27.4998C7.60908 25.9998 8.20907 24.4998 9.10907 23.1998L9.60907 22.3998C9.70907 22.1998 9.80907 21.9998 9.80907 21.8998C10.1091 20.4998 10.6091 19.1998 11.4091 18.0998C11.5091 17.2998 11.7091 16.5998 12.0091 15.8998V15.7998V15.6998C12.0091 15.6998 12.0091 15.6998 12.0091 15.5998C12.4091 14.3998 13.0091 13.2998 13.8091 12.2998L14.2091 11.7998L14.6091 11.3998C15.7091 10.3998 17.0091 9.5998 18.5091 9.1998C19.3091 8.9998 20.1091 8.7998 21.0091 8.7998H21.6091C22.1091 8.7998 22.7091 8.7998 23.2091 8.8998C23.5091 8.9998 23.9091 8.8998 24.2091 8.7998C25.1091 8.3998 26.0091 8.1998 27.0091 7.9998C27.1091 7.9998 27.1091 7.9998 27.2091 7.9998C27.3091 7.9998 27.6091 7.9998 27.9091 7.8998C28.4091 7.8998 29.2091 7.7998 30.0091 7.7998C31.5091 7.7998 32.9091 7.9998 34.4091 8.4998H34.5091H34.6091C36.7091 9.1998 38.5091 10.5998 39.9091 12.3998V12.4998L40.0091 12.5998C40.9091 13.2998 41.7091 14.1998 42.3091 15.1998L42.5091 15.4998L42.7091 15.7998C43.6091 17.7998 43.9091 19.9998 43.5091 22.1998C43.4091 22.8998 43.2091 23.5998 42.9091 24.2998C42.8091 24.9998 42.7091 25.5998 42.4091 26.1998C42.0091 27.2998 41.5091 28.3998 40.8091 29.2998C40.4091 29.8998 40.0091 30.3998 39.5091 30.8998C39.3091 31.0998 39.2091 31.2998 39.2091 31.4998L39.1091 31.8998C38.8091 33.3998 38.2091 34.8998 37.4091 36.1998L36.2091 37.8998C34.9091 39.5998 33.1091 40.7998 31.1091 41.3998L30.6091 41.4998L30.1091 41.5998C29.5091 41.6998 28.9091 41.6998 28.3091 41.6998H27.8091C27.6091 41.6998 27.3091 41.6998 27.1091 41.7998C25.4091 42.0998 23.9091 42.1998 22.4091 42.1998Z" stroke="white" stroke-width="0.4" stroke-miterlimit="10"/>
<path d="M22.4109 41.1C21.3109 41.1 20.3109 41 19.5109 41H19.3109H19.1109C19.0109 41 18.8109 41 18.7109 41C17.4109 40.9 16.1109 40.6 15.0109 40L14.8109 39.9L14.6109 39.8C12.4109 38.5 10.8109 36.5 9.91094 34.2C9.91094 34.1 9.81094 34 9.81094 33.9C9.51094 33.3 9.31094 32.8 9.11094 32.2V32.1V32C8.71094 30.7 8.61094 29.3 8.81094 27.9C9.01094 26.6 9.51094 25.3 10.3109 24.2L10.9109 23.2C11.0109 23 11.1109 22.8 11.1109 22.6C11.4109 21.3 11.9109 20.1 12.6109 19V18.9L12.7109 18.7C12.8109 18 13.0109 17.3 13.2109 16.6V16.5V16.4C13.2109 16.4 13.2109 16.4 13.2109 16.3C13.5109 15.3 14.0109 14.3 14.7109 13.4L15.0109 13L15.4109 12.7C16.4109 11.8 17.5109 11.2 18.8109 10.8C19.5109 10.6 20.2109 10.5 21.0109 10.4H21.5109C22.0109 10.3 22.5109 10.3 23.1109 10.4C23.5109 10.5 23.9109 10.4 24.3109 10.3C25.2109 10 26.1109 9.8 27.0109 9.7C27.1109 9.7 27.1109 9.7 27.2109 9.7C27.3109 9.7 27.6109 9.7 27.8109 9.6C28.3109 9.6 29.0109 9.5 29.8109 9.5C31.1109 9.5 32.4109 9.7 33.7109 10.1H33.8109H33.9109C35.8109 10.7 37.4109 11.9 38.6109 13.5C38.6109 13.6 38.7109 13.6 38.7109 13.7L38.9109 13.9C39.7109 14.5 40.4109 15.3 41.0109 16.2L41.1109 16.5L41.2109 16.8C42.0109 18.5 42.2109 20.5 41.9109 22.3C41.8109 23 41.6109 23.6 41.4109 24.3C41.3109 24.9 41.2109 25.5 41.0109 26.1C40.7109 27.1 40.2109 28 39.6109 28.9C39.2109 29.5 38.7109 30 38.2109 30.5C38.0109 30.7 37.8109 31 37.8109 31.4C37.8109 31.6 37.7109 31.9 37.7109 32.1C37.4109 33.5 36.9109 34.8 36.1109 35.9L35.2109 37.3C34.1109 38.8 32.5109 40 30.6109 40.5L30.2109 40.6L29.8109 40.7C29.3109 40.8 28.7109 40.8 28.2109 40.8H27.4109C27.1109 40.8 26.9109 40.8 26.7109 40.9C25.2109 40.9 23.8109 41.1 22.4109 41.1Z" stroke="white" stroke-width="0.4" stroke-miterlimit="10"/>
<path d="M22.4125 39.6999C21.4125 39.6999 20.4125 39.5999 19.6125 39.5999H19.4125H19.2125C19.0125 39.5999 18.9125 39.5999 18.7125 39.5999C17.6125 39.4999 16.4125 39.1999 15.4125 38.7999L15.2125 38.6999L15.1125 38.4999C13.2125 37.3999 11.7125 35.5999 11.0125 33.4999C11.0125 33.3999 10.9125 33.2999 10.8125 33.0999C10.6125 32.5999 10.4125 32.0999 10.2125 31.4999V31.3999V31.2999C9.8125 30.0999 9.7125 28.8999 9.9125 27.6999C10.1125 26.4999 10.6125 25.3999 11.2125 24.4999L11.3125 24.3999L11.4125 24.2999C11.5125 24.1999 11.5125 24.1999 11.6125 24.0999L12.0125 23.3999C12.1125 23.1999 12.2125 22.8999 12.2125 22.6999C12.4125 21.4999 12.9125 20.3999 13.5125 19.4999V19.3999L13.6125 19.2999C13.6125 19.1999 13.7125 19.0999 13.7125 19.0999C13.7125 18.9999 13.8125 18.8999 13.8125 18.6999C13.9125 17.9999 14.0125 17.3999 14.3125 16.6999V16.5999V16.4999C14.3125 16.3999 14.4125 16.3999 14.4125 16.2999C14.7125 15.3999 15.1125 14.5999 15.7125 13.7999L16.0125 13.4999L16.3125 13.1999C17.1125 12.4999 18.1125 11.8999 19.2125 11.5999C19.8125 11.3999 20.5125 11.2999 21.1125 11.2999H21.5125C22.0125 11.2999 22.6125 11.3999 23.1125 11.4999C23.6125 11.5999 24.1125 11.5999 24.5125 11.3999C25.3125 10.9999 26.2125 10.6999 27.2125 10.5999C27.3125 10.5999 27.3125 10.5999 27.4125 10.5999C27.5125 10.5999 27.7125 10.5999 28.0125 10.4999C28.6125 10.3999 29.2125 10.3999 29.9125 10.3999C31.1125 10.3999 32.2125 10.4999 33.4125 10.8999H33.5125H33.6125C35.2125 11.4999 36.7125 12.4999 37.7125 13.8999C37.8125 13.9999 37.9125 14.1999 38.0125 14.2999L38.1125 14.3999C38.8125 14.8999 39.4125 15.5999 39.9125 16.3999L40.0125 16.5999L40.1125 16.7999C40.8125 18.2999 41.0125 19.8999 40.6125 21.4999C40.5125 22.0999 40.3125 22.7999 40.1125 23.3999C40.0125 23.9999 39.9125 24.4999 39.7125 25.0999C39.4125 25.9999 39.0125 26.7999 38.5125 27.4999C38.1125 28.0999 37.5125 28.6999 36.9125 29.1999C36.8125 29.2999 36.6125 29.4999 36.6125 29.5999C36.5125 29.7999 36.5125 29.9999 36.5125 30.0999C36.5125 30.4999 36.4125 30.7999 36.4125 31.1999C36.2125 32.3999 35.7125 33.5999 35.0125 34.5999L34.3125 35.6999C33.3125 37.0999 31.9125 38.0999 30.3125 38.5999L30.0125 38.6999H29.7125C29.3125 38.7999 28.8125 38.7999 28.4125 38.7999H27.8125H27.4125C27.1125 38.7999 26.9125 38.8999 26.6125 38.8999C25.1125 39.5999 23.7125 39.6999 22.4125 39.6999Z" stroke="white" stroke-width="0.4" stroke-miterlimit="10"/>
<path d="M22.4109 38.2998C21.4109 38.2998 20.5109 38.1998 19.7109 38.1998H19.6109H19.5109C19.3109 38.1998 19.2109 38.1998 19.0109 38.1998C18.0109 38.0998 17.0109 37.8998 16.1109 37.4998L16.0109 37.3998L15.9109 37.2998C14.3109 36.2998 13.0109 34.7998 12.3109 32.9998C12.2109 32.8998 12.2109 32.6998 12.1109 32.5998C11.9109 32.0998 11.7109 31.6998 11.6109 31.1998V31.0998V30.9998C11.3109 30.0998 11.2109 29.0998 11.3109 28.0998C11.5109 27.0998 11.8109 26.1998 12.5109 25.3998L12.6109 25.2998L12.7109 25.1998C12.8109 25.0998 12.9109 24.9998 12.9109 24.8998C13.0109 24.7998 13.1109 24.5998 13.3109 24.3998C13.4109 24.2998 13.4109 24.1998 13.5109 24.0998L13.6109 23.6998C13.7109 23.4998 13.7109 23.3998 13.7109 23.1998C13.8109 22.0998 14.2109 21.0998 14.9109 20.1998L15.0109 20.0998L15.1109 19.9998C15.1109 19.8998 15.2109 19.6998 15.3109 19.4998C15.3109 19.3998 15.4109 19.1998 15.5109 18.9998C15.6109 18.3998 15.7109 17.7998 15.9109 17.1998C15.9109 17.0998 16.0109 16.9998 16.0109 16.8998C16.2109 16.1998 16.6109 15.4998 17.1109 14.8998L17.3109 14.5998L17.5109 14.3998C18.6109 13.3998 20.0109 12.8998 21.4109 12.7998H21.8109C22.5109 12.7998 23.2109 12.8998 23.8109 13.1998C23.9109 13.1998 24.0109 13.2998 24.2109 13.2998C24.3109 13.2998 24.4109 13.2998 24.5109 13.1998C25.4109 12.5998 26.5109 12.1998 27.6109 11.9998C27.7109 11.9998 27.7109 11.9998 27.8109 11.9998C27.9109 11.9998 28.1109 11.9998 28.4109 11.8998C29.0109 11.7998 29.6109 11.7998 30.2109 11.7998C31.2109 11.7998 32.2109 11.8998 33.2109 12.1998C34.6109 12.6998 35.8109 13.5998 36.7109 14.7998C36.8109 14.9998 37.0109 15.1998 37.2109 15.2998L37.3109 15.3998L37.4109 15.4998H37.5109C38.1109 15.8998 38.6109 16.4998 39.0109 17.0998L39.1109 17.1998L39.2109 17.3998C39.8109 18.5998 39.9109 19.9998 39.6109 21.2998C39.5109 21.8998 39.3109 22.3998 39.1109 22.9998V23.0998V23.1998C39.0109 23.6998 38.9109 24.1998 38.8109 24.5998C38.6109 25.2998 38.2109 25.9998 37.8109 26.5998C37.4109 27.1998 36.9109 27.6998 36.3109 28.1998C36.1109 28.3998 35.9109 28.5998 35.7109 28.8998C35.6109 29.1998 35.5109 29.4998 35.5109 29.7998C35.5109 30.1998 35.5109 30.5998 35.4109 30.8998C35.2109 31.8998 34.8109 32.8998 34.2109 33.7998L33.7109 34.5998C32.9109 35.7998 31.7109 36.6998 30.3109 37.1998H30.2109C30.1109 37.1998 30.0109 37.2998 29.9109 37.2998H29.8109C29.4109 37.3998 29.0109 37.3998 28.7109 37.3998H28.1109C27.9109 37.3998 27.7109 37.3998 27.5109 37.3998C27.2109 37.3998 27.0109 37.4998 26.7109 37.4998C24.9109 38.1998 23.6109 38.3998 22.4109 38.2998Z" stroke="white" stroke-width="0.4" stroke-miterlimit="10"/>
<path d="M22.4119 36.9997C21.5119 36.9997 20.6119 36.8997 19.8119 36.8997H19.7119C19.5119 36.8997 19.3119 36.8997 19.2119 36.7997C18.4119 36.6997 17.5119 36.4997 16.7119 36.1997H16.6119H16.5119C15.1119 35.2997 14.1119 33.9997 13.5119 32.4997C13.4119 32.3997 13.4119 32.1997 13.3119 32.0997C13.1119 31.6997 13.0119 31.2997 12.8119 30.8997C12.5119 30.1997 12.4119 29.2997 12.6119 28.5997C12.7119 27.7997 13.0119 27.0997 13.5119 26.3997V26.2997V26.1997C13.6119 26.0997 13.7119 25.9997 13.7119 25.8997C14.0119 25.4997 14.3119 25.1997 14.6119 24.7997C14.7119 24.6997 14.7119 24.5997 14.7119 24.4997V24.0997V23.4997C14.8119 22.5997 15.1119 21.6997 15.7119 20.8997L15.8119 20.7997V20.6997V20.5997C15.8119 20.4997 16.0119 20.1997 16.1119 19.7997C16.1119 19.6997 16.2119 19.3997 16.3119 19.1997C16.3119 19.0997 16.3119 19.0997 16.3119 18.9997C16.3119 18.4997 16.5119 17.9997 16.6119 17.4997C16.6119 17.3997 16.7119 17.2997 16.7119 17.1997C16.9119 16.5997 17.2119 16.0997 17.5119 15.5997L17.6119 15.3997L17.7119 15.2997C18.6119 14.4997 19.7119 14.0997 20.8119 13.9997H21.0119C21.7119 14.0997 22.4119 14.1997 23.0119 14.4997C23.1119 14.4997 23.2119 14.5997 23.3119 14.5997C23.4119 14.5997 23.5119 14.5997 23.6119 14.5997C23.9119 14.4997 24.1119 14.3997 24.4119 14.2997C25.2119 13.7997 26.1119 13.4997 27.0119 13.2997C27.1119 13.2997 27.1119 13.2997 27.2119 13.2997C27.3119 13.2997 27.5119 13.2997 27.7119 13.2997C28.2119 13.1997 28.8119 13.1997 29.3119 13.1997C30.2119 13.1997 31.0119 13.2997 31.9119 13.4997C33.1119 13.8997 34.1119 14.5997 34.8119 15.5997C35.0119 15.8997 35.2119 16.0997 35.4119 16.2997L35.5119 16.3997L35.6119 16.4997C35.7119 16.5997 35.7119 16.5997 35.8119 16.6997C36.3119 16.9997 36.7119 17.4997 37.0119 17.9997L37.1119 18.0997V18.1997C37.5119 19.1997 37.6119 20.1997 37.4119 21.2997C37.3119 21.7997 37.2119 22.1997 37.0119 22.6997C36.9119 22.7997 36.9119 22.8997 36.9119 23.0997C36.9119 23.1997 36.9119 23.2997 36.9119 23.2997V23.3997C36.9119 23.7997 36.8119 24.1997 36.6119 24.5997C36.4119 25.1997 36.1119 25.7997 35.7119 26.2997C35.2119 26.9997 34.5119 27.5997 33.7119 27.9997C33.5119 28.0997 33.3119 28.1997 33.2119 28.3997C33.1119 28.5997 33.0119 28.7997 33.0119 28.9997V29.1997C33.1119 29.8997 33.1119 30.4997 33.0119 31.1997C32.8119 32.0997 32.5119 32.8997 31.9119 33.6997C31.1119 34.8997 30.0119 35.7997 28.7119 36.4997H28.5119H28.3119C28.0119 36.4997 27.7119 36.5997 27.4119 36.5997H26.7119C26.1119 36.5997 25.6119 36.5997 25.4119 36.6997C25.3119 36.6997 25.2119 36.6997 25.2119 36.7997C24.8119 36.8997 23.6119 36.9997 22.4119 36.9997Z" stroke="white" stroke-width="0.4" stroke-miterlimit="10"/>
<path d="M22.408 35.5996C21.508 35.5996 20.608 35.5996 19.908 35.4996H19.808L19.208 35.3996C18.508 35.3996 17.808 35.1996 17.208 34.8996C16.108 34.1996 15.208 33.0996 14.808 31.7996C14.708 31.5996 14.708 31.4996 14.608 31.2996C14.408 30.9996 14.308 30.5996 14.208 30.2996C14.008 29.6996 13.908 29.0996 14.008 28.5996C14.108 27.9996 14.308 27.3996 14.708 26.9996C14.808 26.8996 14.908 26.7996 14.908 26.6996C15.308 26.0996 15.808 25.5996 16.308 25.0996C16.408 24.9996 16.408 24.9996 16.408 24.8996C16.408 24.7996 16.408 24.7996 16.408 24.6996L16.308 24.2996C16.308 24.1996 16.308 24.0996 16.308 23.8996V23.6996C16.408 22.9996 16.608 22.3996 17.008 21.7996C17.008 21.6996 17.108 21.6996 17.108 21.5996C17.308 21.2996 17.508 20.8996 17.608 20.4996C17.608 20.3996 17.708 20.0996 17.808 19.8996C17.808 19.6996 17.908 19.5996 17.908 19.3996C18.008 18.9996 18.008 18.5996 18.208 18.1996C18.308 17.9996 18.308 17.8996 18.308 17.7996C18.408 17.3996 18.608 16.9996 18.908 16.5996L19.008 16.4996L19.108 16.3996C19.708 15.7996 20.608 15.4996 21.408 15.4996H21.608C22.108 15.4996 22.608 15.6996 23.108 15.8996H23.208C23.308 15.8996 23.408 15.9996 23.408 15.9996C23.608 16.0996 23.808 16.0996 24.108 16.0996C24.708 15.8996 25.208 15.6996 25.708 15.4996C26.308 15.0996 27.108 14.7996 27.808 14.6996H27.908C28.008 14.6996 28.208 14.6996 28.408 14.6996C28.808 14.6996 29.308 14.5996 29.908 14.5996C30.608 14.5996 31.308 14.6996 32.008 14.8996C32.908 15.1996 33.808 15.7996 34.308 16.5996C34.508 16.8996 34.808 17.1996 35.108 17.4996C35.208 17.5996 35.308 17.6996 35.408 17.7996C35.708 17.9996 36.008 18.3996 36.208 18.6996C36.508 19.3996 36.608 20.1996 36.408 20.9996C36.308 21.3996 36.208 21.6996 36.108 22.0996C36.008 22.2996 35.908 22.4996 35.908 22.6996C35.908 22.7996 35.908 22.8996 35.908 22.9996V23.0996C35.908 23.3996 35.808 23.6996 35.708 23.9996C35.508 24.4996 35.308 24.8996 35.008 25.2996C34.608 25.9996 33.908 26.4996 33.208 26.6996C32.908 26.7996 32.608 26.9996 32.308 27.2996V27.3996L32.208 27.4996C32.008 27.6996 32.108 28.4996 32.108 28.9996C32.208 29.4996 32.108 30.0996 32.108 30.5996C31.908 31.2996 31.608 31.9996 31.208 32.5996C31.208 32.5996 29.908 34.3996 28.808 34.7996H28.708H28.608C28.408 34.7996 28.208 34.8996 27.908 34.7996H27.608C27.508 34.7996 27.308 34.7996 27.208 34.7996C26.708 34.7996 26.208 34.7996 25.708 34.8996C25.508 34.8996 25.308 34.9996 25.208 34.9996C24.408 35.5996 23.408 35.6996 22.408 35.5996Z" stroke="white" stroke-width="0.4" stroke-miterlimit="10"/>
</g>
<defs>
<radialGradient id="paint0_radial_8053_78845" cx="0" cy="0" r="1" gradientUnits="userSpaceOnUse" gradientTransform="translate(229.618 -177.723) rotate(90) scale(17.0474 17.0474)">
<stop offset="0.167" stop-color="#073183"/>
<stop offset="1" stop-color="#0054F9"/>
</radialGradient>
</defs>
</svg>
