<svg width="50" height="50" viewBox="0 0 50 50" fill="none" xmlns="http://www.w3.org/2000/svg">
<rect width="50" height="50" rx="25" fill="white"/>
<path d="M23.1266 36.8999L11.3266 12.7999C11.3266 12.6999 11.2266 12.5999 11.2266 12.4999C11.2266 12.3999 11.2266 12.2999 11.3266 12.1999C11.4266 12.0999 11.4266 12.0999 11.5266 11.9999C11.6266 11.9999 11.7266 11.8999 11.8266 11.8999H15.9266C16.0266 11.8999 16.1266 11.8999 16.2266 11.9999C16.3266 12.0999 16.4266 12.0999 16.4266 12.1999L25.0266 29.5999C25.2266 29.9999 25.4266 30.1999 25.8266 30.4999C26.1266 30.6999 26.5266 30.7999 26.9266 30.7999C27.3266 30.7999 27.7266 30.6999 28.0266 30.4999C28.3266 30.2999 28.6266 29.9999 28.8266 29.5999L37.4266 12.1999C37.4266 12.0999 37.5266 11.9999 37.6266 11.9999C37.7266 11.8999 37.8266 11.8999 37.9266 11.8999H38.4266C38.5266 11.8999 38.5266 11.8999 38.6266 11.9999C38.7266 11.9999 38.7266 12.0999 38.7266 12.0999C38.7266 12.1999 38.8266 12.1999 38.8266 12.2999C38.8266 12.3999 38.8266 12.3999 38.8266 12.4999L26.8266 36.8999C26.6266 37.2999 26.4266 37.4999 26.0266 37.7999C25.7266 37.9999 25.3266 38.0999 24.9266 38.0999C24.5266 38.0999 24.1266 37.9999 23.8266 37.7999C23.5266 37.5999 23.2266 37.2999 23.1266 36.8999Z" fill="url(#paint0_linear_8053_78588)"/>
<path opacity="0.1" d="M23.1266 36.8996L16.4266 12.3996C16.4266 12.2996 16.3266 12.1996 16.2266 12.1996C16.1266 12.0996 16.0266 12.0996 15.9266 12.0996H11.8266C11.7266 12.0996 11.6266 12.0996 11.5266 12.1996C11.4266 12.1996 11.3266 12.2996 11.3266 12.3996C11.2266 12.4996 11.2266 12.5996 11.2266 12.6996C11.2266 12.7996 11.2266 12.8996 11.3266 12.9996L23.1266 36.8996Z" fill="white"/>
<path opacity="0.1" d="M25.0241 29.7995L11.2241 12.8995C11.2241 12.7995 11.1241 12.6995 11.2241 12.5995C11.2241 12.4995 11.2241 12.3995 11.3241 12.2995C11.3241 12.1995 11.4242 12.1995 11.5242 12.0995C11.6242 11.9995 11.7241 11.9995 11.8241 11.9995H16.0242C16.1242 11.9995 16.2241 11.9995 16.3241 12.0995C16.4241 12.1995 16.5242 12.1995 16.5242 12.2995L25.0241 29.7995Z" fill="white"/>
<defs>
<linearGradient id="paint0_linear_8053_78588" x1="11.2444" y1="25.0634" x2="38.828" y2="25.0634" gradientUnits="userSpaceOnUse">
<stop stop-color="#9D4ABE"/>
<stop offset="0.03" stop-color="#9055C4"/>
<stop offset="0.15" stop-color="#6B74D6"/>
<stop offset="0.26" stop-color="#4C8FE5"/>
<stop offset="0.39" stop-color="#34A3F0"/>
<stop offset="0.52" stop-color="#22B2F9"/>
<stop offset="0.66" stop-color="#18BAFD"/>
<stop offset="0.83" stop-color="#15BDFF"/>
<stop offset="1" stop-color="#28BAD5"/>
</linearGradient>
</defs>
</svg>
