<svg width="50" height="50" viewBox="0 0 50 50" fill="none" xmlns="http://www.w3.org/2000/svg">
<rect width="50" height="50" rx="25" fill="white"/>
<path fill-rule="evenodd" clip-rule="evenodd" d="M26.7891 22.6724L26.1891 25.8724L31.8891 26.6724L31.4891 28.1724L25.8891 27.3724C25.4891 28.6724 25.2891 30.0724 24.7891 31.2724C24.2891 32.6724 23.7891 34.0724 23.1891 35.3724C22.7891 36.1724 22.2891 36.9724 21.5891 37.4724C20.8891 38.0724 19.9891 38.3724 19.0891 38.5724C18.5891 38.6724 17.9891 38.6724 17.3891 38.5724C16.7891 38.4724 16.2891 38.2724 15.8891 37.9724C15.6891 37.8724 15.5891 37.7724 15.4891 37.5724C15.3891 37.3724 15.2891 37.2724 15.2891 37.0724C15.2891 36.8724 15.2891 36.6724 15.3891 36.4724C15.4891 36.2724 15.5891 36.0724 15.7891 35.9724C16.0891 35.8724 16.4891 35.9724 16.7891 36.0724C17.0891 36.3724 17.3891 36.7724 17.5891 37.1724C17.6891 37.3724 17.8891 37.4724 17.9891 37.6724C18.1891 37.7724 18.3891 37.8724 18.5891 37.8724C18.7891 37.8724 18.9891 37.8724 19.1891 37.7724C19.3891 37.6724 19.5891 37.5724 19.6891 37.4724C20.4891 36.6724 21.0891 35.5724 21.3891 34.4724C21.9891 32.0724 22.5891 29.7724 23.0891 27.3724V26.9724L17.7891 26.1724L17.9891 24.6724L23.4891 25.4724L24.1891 22.3724L18.4891 21.4724L18.6891 19.8724L24.5891 20.6724C24.7891 20.0724 24.8891 19.5724 25.0891 19.0724C25.489 17.1724 26.1891 15.4724 27.2891 13.8724C27.7891 13.0724 28.4891 12.4724 29.2891 11.9724C30.0891 11.5724 31.0891 11.2724 31.9891 11.3724C32.3891 11.3724 32.8891 11.4724 33.2891 11.5724C33.6891 11.7724 34.0891 11.9724 34.3891 12.3724C34.5891 12.4724 34.6891 12.6724 34.6891 12.8724C34.7891 13.2724 34.5891 13.7724 34.3891 14.0724C34.1891 14.1724 33.9891 14.2724 33.6891 14.2724C33.4891 14.2724 33.1891 14.0724 33.0891 13.8724C32.7891 13.5724 32.5891 13.2724 32.2891 12.9724C32.1891 12.7724 31.9891 12.6724 31.8891 12.4724C31.7891 12.2724 31.4891 12.2724 31.2891 12.2724C31.0891 12.2724 30.8891 12.2724 30.6891 12.3724C30.4891 12.4724 30.2891 12.5724 30.1891 12.7724C29.6891 13.3724 29.1891 13.9724 28.8891 14.6724C28.1891 16.7724 27.6891 18.9724 26.9891 21.1724L32.4891 21.9724L32.0891 23.4724L26.7891 22.6724Z" fill="#0090FF"/>
</svg>
