<svg width="50" height="50" viewBox="0 0 50 50" fill="none" xmlns="http://www.w3.org/2000/svg">
<rect width="50" height="50" rx="25" fill="white"/>
<path d="M42.3516 21.6632C41.2212 21.4385 40.0909 21.4385 38.9606 21.7755C37.8302 22.1125 36.813 22.6742 36.0217 23.4605C35.6826 23.7974 35.3435 24.0221 34.8914 24.1344C34.7784 24.1344 34.7784 24.1344 34.6653 24.2467C34.1002 24.4714 33.535 24.5837 32.9698 24.6961C33.422 23.9098 33.8741 23.1235 34.2132 22.3372C34.3262 21.8879 34.5523 21.4386 34.8914 20.9892C35.2305 20.6523 35.5696 20.3153 36.0217 20.0906C37.039 19.7536 38.1693 19.7536 39.1866 20.2029C39.4127 20.3153 39.6388 20.3153 39.8648 20.2029C40.0909 20.0906 40.317 19.8659 40.317 19.6413C40.43 19.4166 40.43 19.192 40.317 18.9673C40.2039 18.7427 40.0909 18.518 39.7518 18.518C38.6215 18.0687 37.2651 17.9564 36.0217 18.181C36.3608 17.8441 36.6999 17.6194 37.1521 17.5071C37.3781 17.3947 37.6042 17.2824 37.7172 17.0578C37.8303 16.8331 37.8302 16.6084 37.8302 16.3838C37.7172 16.1591 37.6042 15.9345 37.3781 15.8221C37.1521 15.7098 36.926 15.7098 36.6999 15.7098C34.3262 16.4961 33.535 18.518 32.8568 20.4276C32.7438 20.7646 32.6308 21.1016 32.5177 21.4385C32.5177 21.5509 32.4047 21.5509 32.4047 21.6632C31.1613 24.9207 30.031 24.8084 28.5616 24.6961C27.8834 24.5837 27.3182 24.2468 26.8661 23.7974C26.7531 23.5728 26.64 23.2358 26.64 22.8988C26.64 22.5618 26.64 22.3372 26.753 22.0002C26.753 21.8879 26.753 21.8879 26.753 21.7755C26.753 21.6632 26.753 21.6632 26.753 21.5509C26.753 21.5509 26.7531 21.3262 26.8661 21.1016C27.0922 20.0906 27.7704 19.529 28.9007 18.7427C30.144 18.0687 31.1613 17.0577 31.9526 15.8221C32.7438 14.5865 33.0829 13.2386 33.1959 11.8907C33.1959 11.666 33.1959 11.4413 32.9698 11.2167C32.8568 10.992 32.6308 10.8797 32.2917 10.8797C32.0656 10.8797 31.8395 10.8797 31.6135 11.1044C31.3874 11.2167 31.2744 11.4413 31.2744 11.7783C31.2744 12.9016 30.8222 14.0249 30.2571 15.0358C29.6919 16.0468 28.7876 16.8331 27.7704 17.3947C27.4313 17.6194 27.2052 17.844 26.8661 18.0687C26.8661 16.9454 26.64 15.8221 26.1879 14.6989C25.7358 13.6879 26.0749 13.1263 26.64 12.34C27.0922 11.7783 27.4313 10.992 27.4313 10.2057V9.6441C27.4313 9.53177 27.4312 9.41944 27.3182 9.30711C27.3182 9.19478 27.2052 9.08245 27.0922 8.97012C26.8661 8.74546 26.64 8.74548 26.414 8.63315C26.1879 8.63315 25.9618 8.74548 25.7358 8.8578C25.5097 9.08246 25.5097 9.30711 25.3967 9.53176V9.98108C25.2836 10.4304 25.0576 10.7674 24.8315 11.2167C24.6054 11.4413 24.4924 11.7783 24.3794 12.1153C24.0403 11.5537 23.7012 10.992 23.5882 10.3181C23.4751 9.6441 23.4751 8.97013 23.5882 8.29616C23.5882 8.18383 23.5882 8.0715 23.5882 7.95917C23.5882 7.84685 23.5881 7.73452 23.4751 7.62219C23.3621 7.50986 23.3621 7.39753 23.2491 7.2852C23.136 7.17287 23.023 7.17287 22.9099 7.06055C22.7969 7.06055 22.6839 7.06055 22.5708 7.06055C22.4578 7.06055 22.3448 7.06055 22.2317 7.17288C22.1187 7.28521 22.0057 7.28521 21.8927 7.39753C21.7796 7.50986 21.7796 7.62219 21.6666 7.73452C21.4405 8.8578 21.4405 9.98108 21.7796 11.1044C22.1187 12.2276 22.6839 13.2386 23.4751 14.0249C23.8142 14.3619 24.0403 14.6989 24.1533 15.1482C24.1533 15.2605 24.1533 15.2605 24.2663 15.3728C24.4924 15.9345 24.6054 16.4961 24.7185 17.0578C23.9272 16.6084 23.136 16.1591 22.3448 15.8221C21.8927 15.7098 21.4405 15.4852 20.9884 15.1482C20.6493 14.8112 20.3102 14.4742 20.0841 14.0249C19.745 13.0139 19.745 11.8907 20.1972 10.8797C20.1972 10.7674 20.3102 10.6551 20.3102 10.5427C20.3102 10.4304 20.3102 10.3181 20.1972 10.2057C20.1972 10.0934 20.0841 9.98108 19.9711 9.86875C19.8581 9.75642 19.745 9.75642 19.632 9.6441C19.519 9.6441 19.4059 9.53176 19.2929 9.53176C19.1799 9.53176 19.0668 9.53177 18.9538 9.6441C18.8408 9.6441 18.7277 9.75642 18.6147 9.86875C18.5017 9.98108 18.5017 10.0934 18.3886 10.2057C17.9365 11.329 17.8235 12.677 18.0495 13.9126C17.7104 13.5756 17.4844 13.2386 17.3714 12.7893C17.3714 12.677 17.2583 12.5646 17.1453 12.4523C17.0322 12.34 16.9192 12.2276 16.8062 12.2276C16.6932 12.1153 16.5801 12.1153 16.4671 12.1153C16.3541 12.1153 16.241 12.1153 16.128 12.1153C16.015 12.1153 15.9019 12.2276 15.7889 12.34C15.6759 12.4523 15.5628 12.5646 15.5628 12.677C15.4498 12.7893 15.4498 12.9016 15.4498 13.0139C15.4498 13.1263 15.4498 13.2386 15.4498 13.3509C16.241 15.7098 18.2756 16.4961 20.1972 17.1701C20.5363 17.2824 20.8754 17.3947 21.2145 17.5071C21.3275 17.5071 21.3275 17.6194 21.4405 17.6194C24.7185 18.855 24.6054 19.9783 24.4924 21.4385C24.3794 22.1125 24.0403 22.6742 23.5882 23.1235C23.3621 23.2358 23.023 23.3481 22.6839 23.4605C22.3448 23.4605 22.1187 23.4604 21.7796 23.3481C21.6666 23.3481 21.6666 23.3481 21.5536 23.3481C21.4405 23.3481 21.4405 23.3481 21.3275 23.3481C21.3275 23.3481 21.1014 23.3481 20.8754 23.2358C19.8581 23.0111 19.2929 22.3372 18.5017 21.2139C17.8235 19.9783 16.8062 18.9673 15.5628 18.181C14.3195 17.3947 12.9631 17.0577 11.6067 16.9454C11.3806 16.9454 11.1546 16.9454 10.9285 17.1701C10.7024 17.2824 10.5894 17.5071 10.5894 17.8441C10.5894 18.0687 10.5894 18.2934 10.8155 18.518C11.0415 18.7427 11.1546 18.855 11.4937 18.855C12.624 18.9673 13.7543 19.3043 14.7716 19.866C15.7889 20.4276 16.5801 21.3262 17.1453 22.3372C17.3713 22.6742 17.5974 22.8988 17.8235 23.2358C16.6932 23.2358 15.5628 23.4604 14.4325 23.9098C13.4152 24.3591 12.85 24.0221 12.0588 23.4605C11.4937 23.0111 10.7024 22.6742 9.9112 22.6742H9.34603C9.11997 22.6742 8.89391 22.7865 8.66784 22.8988C8.44177 23.1235 8.44177 23.3481 8.32874 23.5728C8.32874 23.7974 8.44178 24.0221 8.55481 24.2467C8.78087 24.4714 9.00694 24.4714 9.233 24.5837H9.68514C10.1373 24.6961 10.4764 24.9207 10.9285 25.1454C11.1546 25.37 11.4937 25.4824 11.8327 25.5947C11.2676 25.9317 10.7024 26.2686 10.0242 26.381C9.34603 26.4933 8.66784 26.4933 7.98965 26.381C7.76358 26.2686 7.53751 26.381 7.31144 26.4933C7.08538 26.6056 6.97235 26.8303 6.85932 27.055C6.74629 27.2796 6.85932 27.5043 6.97235 27.7289C7.08538 27.9536 7.31145 28.0659 7.53751 28.1782C7.98964 28.2906 8.5548 28.4029 9.00693 28.4029C10.8155 28.4029 12.5109 27.7289 13.8673 26.4933C14.2064 26.2687 14.5455 26.044 14.8846 25.8193C14.9977 25.8193 15.1107 25.707 15.1107 25.707C15.6759 25.4824 16.241 25.37 16.8062 25.2577C16.3541 26.044 15.9019 26.8303 15.5628 27.6166C15.4498 28.0659 15.2237 28.5152 14.8846 28.9645C14.5455 29.3015 14.2064 29.6385 13.7543 29.8632C12.737 30.2001 11.6067 30.2001 10.5894 29.7508C10.3633 29.6385 10.1373 29.6385 9.9112 29.7508C9.68513 29.8631 9.45906 30.0878 9.45906 30.3125C9.34603 30.5371 9.34603 30.7618 9.45906 30.9864C9.5721 31.2111 9.68513 31.4357 10.0242 31.4357C10.8155 31.7727 11.6067 31.8851 12.511 31.8851C12.9631 31.8851 13.3022 31.8851 13.7543 31.7727C13.4152 32.1097 13.0761 32.3344 12.624 32.4467C12.3979 32.559 12.1719 32.6714 12.0588 32.896C11.9458 33.1207 11.9458 33.3453 11.9458 33.57C12.0588 33.7946 12.1718 34.0193 12.3979 34.1316C12.624 34.244 12.85 34.2439 13.0761 34.2439C15.4498 33.4576 16.241 31.4357 16.9192 29.5262C17.0322 29.1892 17.1453 28.8522 17.2583 28.5152C17.2583 28.4029 17.3714 28.4029 17.3714 28.2906C18.6147 25.0331 19.745 25.1454 21.2145 25.2577C21.8927 25.37 22.4578 25.707 22.9099 26.1563C23.023 26.381 23.136 26.718 23.2491 27.055C23.2491 27.3919 23.249 27.7289 23.136 27.9536C23.136 28.0659 23.136 28.0659 23.136 28.1782C23.136 28.2906 23.136 28.2906 23.136 28.4029C23.136 28.5152 23.136 28.6276 23.023 28.8522C22.7969 29.8632 22.1187 30.4248 20.9884 31.2111C19.745 31.8851 18.7277 32.896 17.9365 34.1316C17.1453 35.3672 16.8062 36.7152 16.6932 38.0631C16.6932 38.2877 16.6932 38.5124 16.9192 38.7371C17.0322 38.9617 17.2583 39.0741 17.5974 39.0741H17.7104C17.9365 39.0741 18.1626 38.9617 18.3886 38.8494C18.6147 38.7371 18.6147 38.5124 18.7277 38.2878C18.8408 37.1645 19.1799 36.0412 19.745 35.0303C20.3102 34.0193 21.2145 33.233 22.2317 32.6714C22.5708 32.4467 22.7969 32.222 23.136 31.9974C23.136 33.1207 23.3621 34.2439 23.8142 35.3672C24.2663 36.3782 23.9272 36.9398 23.3621 37.7261C22.9099 38.2878 22.5708 39.074 22.5708 39.8603V40.422C22.5708 40.5343 22.5709 40.6467 22.6839 40.759C22.6839 40.8713 22.7969 40.9836 22.9099 41.096C23.023 41.2083 23.136 41.2083 23.2491 41.3206C23.3621 41.3206 23.4751 41.4329 23.5882 41.4329C23.8142 41.4329 24.0403 41.3206 24.2663 41.2083C24.4924 40.9836 24.4924 40.759 24.4924 40.5343V40.085C24.6054 39.6357 24.8315 39.2987 25.0576 38.8494C25.2836 38.6247 25.3967 38.2878 25.5097 37.9508C25.8488 38.5124 26.1879 39.074 26.3009 39.748C26.414 40.422 26.414 41.096 26.3009 41.7699C26.1879 41.9946 26.3009 42.2193 26.414 42.4439C26.527 42.6686 26.7531 42.7809 26.9791 42.8932C27.2052 43.0055 27.4312 42.8932 27.6573 42.7809C27.8834 42.6686 27.9964 42.4439 28.1095 42.2192C28.3355 41.096 28.3355 39.9727 27.9964 38.8494C27.6573 37.7261 27.0922 36.7152 26.3009 35.9289C25.9618 35.5919 25.7358 35.2549 25.6227 34.8056C25.6227 34.6933 25.6227 34.6933 25.5097 34.5809C25.2836 34.0193 25.1706 33.4576 25.0576 32.896C25.8488 33.3453 26.64 33.7946 27.4313 34.1316C27.8834 34.244 28.3355 34.4686 28.7876 34.8056C29.1267 35.1426 29.4658 35.4795 29.6919 35.9289C30.031 36.9398 30.031 38.0631 29.5789 39.0741C29.5789 39.1864 29.4658 39.2987 29.4658 39.411C29.4658 39.5234 29.4658 39.6357 29.5789 39.748C29.5789 39.8603 29.6919 39.9727 29.8049 40.085C29.918 40.1973 30.031 40.1973 30.144 40.3097C30.2571 40.3097 30.3701 40.422 30.4831 40.422C30.5962 40.422 30.7092 40.422 30.8222 40.3097C30.9353 40.3097 31.0483 40.1973 31.1613 40.085C31.2744 39.9727 31.2744 39.8603 31.3874 39.748C31.8395 38.6247 31.9526 37.2768 31.7265 36.0412C32.0656 36.3782 32.2916 36.7152 32.4047 37.1645C32.4047 37.2768 32.5177 37.3891 32.6308 37.5014C32.7438 37.6138 32.8568 37.7261 32.9698 37.7261C33.0829 37.8384 33.1959 37.8385 33.3089 37.8385C33.422 37.8385 33.535 37.8385 33.648 37.8385C33.7611 37.8385 33.8741 37.7261 33.9871 37.6138C34.1002 37.5015 34.2132 37.3891 34.2132 37.2768C34.3262 37.1645 34.3263 37.0522 34.3263 36.9398C34.3263 36.8275 34.3263 36.7152 34.3263 36.6028C33.535 34.2439 31.5004 33.4577 29.5789 32.7837C29.2398 32.6714 28.9007 32.559 28.5616 32.4467C28.4485 32.4467 28.4485 32.3344 28.3355 32.3344C25.0576 31.0988 25.1706 29.9755 25.2836 28.5152C25.3967 27.8412 25.7358 27.2796 26.1879 26.8303C26.414 26.718 26.7531 26.6056 27.0922 26.4933C27.4312 26.4933 27.6573 26.4933 27.9964 26.6056C28.1094 26.6056 28.1094 26.6056 28.2225 26.6056C28.3355 26.6056 28.3355 26.6056 28.4485 26.6056C28.4485 26.6056 28.6746 26.6056 28.9007 26.718C29.918 26.9426 30.4831 27.6166 31.2744 28.7399C31.9526 29.9755 32.9699 30.9864 34.2132 31.7727C35.4566 32.559 36.813 32.896 38.1694 33.0083H38.2824C38.5085 33.0083 38.7345 32.896 38.9606 32.7837C39.1866 32.6714 39.1866 32.4467 39.2997 32.1097C39.2997 31.8851 39.1866 31.6604 39.0736 31.4357C38.9606 31.2111 38.7345 31.0988 38.5085 31.0988C37.3781 30.9864 36.2478 30.6494 35.2305 30.0878C34.2132 29.5262 33.422 28.6275 32.8568 27.6166C32.6308 27.2796 32.4047 27.0549 32.1786 26.718C33.3089 26.718 34.4393 26.4933 35.5696 26.044H35.6826C36.6999 25.707 37.1521 26.044 38.0563 26.4933C38.6215 26.9426 39.4127 27.2796 40.2039 27.2796H40.7691C40.9952 27.2796 41.2212 27.1673 41.4473 27.055C41.6734 26.8303 41.6734 26.6056 41.6734 26.381C41.6734 26.1563 41.5603 25.9317 41.4473 25.707C41.2212 25.4824 40.9952 25.4824 40.7691 25.4824H40.317C39.8648 25.37 39.5257 25.1454 39.0736 24.9207C38.8475 24.6961 38.5084 24.5837 38.1694 24.4714C38.7345 24.1344 39.2997 23.7974 39.9779 23.6851C40.6561 23.5728 41.3343 23.5728 42.0125 23.6851C42.2385 23.7974 42.4646 23.6851 42.6907 23.5728C42.9167 23.4604 43.0297 23.2358 43.1428 23.0111C43.2558 22.7865 43.1428 22.5618 43.0298 22.3372C42.8037 21.8879 42.5776 21.6632 42.3516 21.6632Z" fill="url(#paint0_linear_8053_78582)"/>
<defs>
<linearGradient id="paint0_linear_8053_78582" x1="14.1707" y1="13.8738" x2="35.8294" y2="35.657" gradientUnits="userSpaceOnUse">
<stop stop-color="#D2FFAD"/>
<stop offset="0.098" stop-color="#C8FCAD"/>
<stop offset="0.26" stop-color="#AFF6B0"/>
<stop offset="0.467" stop-color="#85ECB5"/>
<stop offset="0.711" stop-color="#4BDDBB"/>
<stop offset="0.983" stop-color="#03CBC2"/>
<stop offset="0.994" stop-color="#00CBC3"/>
</linearGradient>
</defs>
</svg>
