<svg width="51" height="50" viewBox="0 0 51 50" fill="none" xmlns="http://www.w3.org/2000/svg">
<rect x="0.5" width="50" height="50" rx="25" fill="white"/>
<path fill-rule="evenodd" clip-rule="evenodd" d="M25.4858 10.9956C28.3858 10.9956 31.2858 11.8956 33.6858 13.5956C36.0858 15.2956 37.8858 17.6956 38.7858 20.4956C39.6858 23.2956 39.7858 26.2956 38.8858 29.0956C37.9858 31.8956 36.2858 34.3956 33.9858 36.0956C31.6858 37.8956 28.8858 38.8956 25.8858 38.9956C22.9858 39.0956 20.0858 38.2956 17.6858 36.5956C15.2858 34.9956 13.3858 32.5956 12.3858 29.8956C11.3858 27.1956 11.1858 24.1956 11.9858 21.2956C12.7858 18.2956 14.5858 15.6956 16.9858 13.7956C19.3858 11.9956 22.3858 10.9956 25.4858 10.9956ZM31.7858 28.7956C31.8858 28.0956 31.7858 27.3956 31.4858 26.7956C31.1858 26.1956 30.7858 25.5956 30.2858 25.0956C29.2858 24.2956 28.1858 23.6956 26.9858 23.1956C26.0858 22.7956 25.2858 22.3956 24.4858 21.7956C24.1858 21.5956 23.9858 21.2956 23.7858 20.9956C23.5858 20.6956 23.5858 20.2956 23.5858 19.9956C23.5858 19.7956 23.6858 19.4956 23.8858 19.2956C23.9858 19.0956 24.1858 18.9956 24.3858 18.8956C24.8858 18.6956 25.3858 18.4956 25.8858 18.4956C25.9858 18.4956 25.9858 18.4956 26.0858 18.4956C26.8858 18.5956 27.6858 18.7956 28.3858 19.1956C29.0858 19.5956 29.6858 20.0956 30.1858 20.7956L30.4858 21.1956L30.8858 20.8956L31.3858 20.3956L31.7858 20.0956L31.4858 19.6956C30.8858 18.8956 30.0858 18.1956 29.1858 17.7956C28.2858 17.2956 27.2858 16.9956 26.2858 16.9956C26.1858 16.9956 26.0858 16.9956 25.9858 16.9956C25.8858 16.9956 25.8858 16.9956 25.7858 16.9956H25.6858C24.2858 16.9956 22.8858 17.3956 21.7858 18.1956C21.1858 18.5956 20.6858 18.9956 20.2858 19.5956C19.8858 20.1956 19.6858 20.8956 19.5858 21.5956C19.4858 22.2956 19.6858 22.9956 19.8858 23.6956C20.1858 24.2956 20.5858 24.8956 21.1858 25.3956C22.1858 26.0956 23.2858 26.6956 24.3858 27.0956C25.2858 27.3956 26.0858 27.7956 26.8858 28.2956C27.1858 28.4956 27.3858 28.7956 27.5858 29.0956C27.7858 29.3956 27.7858 29.7956 27.7858 30.0956C27.7858 30.2956 27.6858 30.5956 27.4858 30.7956C27.2858 30.9956 27.0858 31.1956 26.8858 31.1956C26.2858 31.4956 25.6858 31.5956 25.0858 31.6956H24.8858C23.9858 31.6956 23.1858 31.3956 22.3858 31.0956C21.5858 30.6956 20.8858 30.1956 20.3858 29.4956L20.0858 29.1956L19.7858 29.4956L19.2858 29.9956L18.9858 30.2956L19.2858 30.5956C19.9858 31.3956 20.8858 32.0956 21.8858 32.5956C22.8858 33.0956 23.9858 33.2956 25.0858 33.3956H25.1858C26.5858 33.3956 27.9858 32.9956 29.2858 32.3956C29.9858 32.0956 30.4858 31.5956 30.9858 30.9956C31.4858 30.1956 31.7858 29.4956 31.7858 28.7956ZM19.5858 30.2956C20.4858 31.2956 21.5858 31.9956 22.7858 32.3956C21.5858 31.9956 20.4858 31.2956 19.6858 30.3956L19.5858 30.2956ZM19.8858 21.5956C19.7858 24.6956 22.3858 25.6956 24.5858 26.5956C22.3858 25.6956 19.8858 24.5956 19.8858 21.5956ZM23.5858 22.6956C24.4858 23.3956 25.4858 23.8956 26.4858 24.2956C27.4858 24.6956 28.4858 25.2956 29.3858 25.9956C29.7858 26.2956 30.0858 26.6956 30.2858 27.1956C30.4858 27.6956 30.5858 28.1956 30.4858 28.6956C30.3858 29.1956 30.2858 29.5956 29.9858 29.9956C29.6858 30.3956 29.2858 30.6956 28.8858 30.8956C28.9858 30.5956 29.0858 30.2956 29.0858 29.9956C29.0858 29.4956 28.9858 28.8956 28.7858 28.4956C28.5858 27.9956 28.1858 27.5956 27.7858 27.2956C26.8858 26.6956 25.9858 26.1956 24.8858 25.7956C22.7858 24.8956 20.7858 24.0956 20.7858 21.6956C20.7858 21.1956 20.9858 20.6956 21.2858 20.1956C21.5858 19.7956 21.9858 19.3956 22.3858 19.0956L22.4858 18.9956C22.3858 19.2956 22.2858 19.4956 22.2858 19.7956C22.2858 20.2956 22.2858 20.8956 22.5858 21.3956C22.7858 21.8956 23.1858 22.2956 23.5858 22.6956ZM25.7858 17.1956C25.8858 17.1956 25.8858 17.1956 25.9858 17.1956C25.8858 17.1956 25.7858 17.1956 25.7858 17.1956ZM25.3858 36.3956C22.3858 36.2956 19.5858 35.0956 17.4858 32.9956C15.3858 30.8956 14.1858 27.9956 14.1858 25.0956C14.1858 22.0956 15.3858 19.2956 17.4858 17.1956C19.5858 15.0956 22.3858 13.8956 25.3858 13.7956C28.3858 13.7956 31.1858 15.0956 33.2858 17.1956C35.3858 19.2956 36.5858 22.1956 36.5858 25.0956C36.5858 28.0956 35.3858 30.8956 33.2858 32.9956C31.1858 35.0956 28.2858 36.2956 25.3858 36.3956ZM25.3858 12.4956C26.9858 12.4956 28.5858 12.7956 30.1858 13.4956C31.7858 14.1956 33.0858 15.0956 34.1858 16.1956C36.4858 18.5956 37.7858 21.7956 37.7858 25.0956C37.7858 28.3956 36.4858 31.5956 34.1858 33.9956C33.0858 35.1956 31.6858 36.0956 30.1858 36.6956C28.6858 37.2956 27.0858 37.6956 25.3858 37.6956C22.0858 37.5956 18.9858 36.2956 16.5858 33.9956C14.2858 31.5956 12.9858 28.4956 12.9858 25.1956C12.9858 21.8956 14.2858 18.6956 16.5858 16.3956C18.8858 13.8956 22.0858 12.4956 25.3858 12.4956Z" fill="#040506"/>
</svg>
