<svg width="51" height="50" viewBox="0 0 51 50" fill="none" xmlns="http://www.w3.org/2000/svg">
<rect x="0.5" width="50" height="50" rx="25" fill="white"/>
<path d="M36.5547 15.3498L32.8547 17.2498L14.8547 26.4498C14.5547 24.4498 14.8547 22.4498 15.7547 20.6498C16.5547 18.8498 17.8547 17.2498 19.5547 16.1498C21.1547 15.0498 23.1547 14.3498 25.1547 14.3498C27.1547 14.2498 29.1547 14.7498 30.8547 15.6498L32.9547 14.5498L33.2547 14.3498C31.2547 12.9498 28.9547 12.0498 26.5547 11.8498C24.1547 11.6498 21.7547 12.1498 19.5547 13.2498C17.3547 14.3498 15.5547 16.0498 14.3547 18.0498C13.0547 20.1498 12.4547 22.4498 12.4547 24.9498C12.4547 25.2498 12.4547 25.6498 12.4547 25.9498C12.4547 26.4498 12.3547 26.8498 12.1547 27.2498C11.9547 27.6498 11.5547 27.9498 11.1547 28.2498L10.0547 28.8498V31.5498L13.3547 29.8498L14.4547 29.3498L15.5547 28.8498L34.5547 19.1498L36.6547 18.0498L41.0547 15.7498V13.0498L36.5547 15.3498Z" fill="#1C1C1C"/>
<path d="M40.9531 18.5498L16.4531 30.9498L14.3531 32.0498L9.95312 34.2498V36.9498L14.3531 34.7498L18.0531 32.8498L36.1531 23.6498C36.2531 24.1498 36.2531 24.5498 36.2531 25.0498C36.2531 26.9498 35.7531 28.7498 34.8531 30.3498C33.9531 31.9498 32.5531 33.3498 30.9531 34.2498C29.3531 35.1498 27.4531 35.7498 25.6531 35.7498C23.7531 35.7498 21.9531 35.2498 20.2531 34.3498L20.1531 34.4498L17.8531 35.6498C19.8531 37.0498 22.1531 37.9498 24.5531 38.1498C26.9531 38.3498 29.3531 37.8498 31.5531 36.7498C33.7531 35.6498 35.5531 33.9498 36.7531 31.9498C38.0531 29.8498 38.6531 27.5498 38.6531 25.0498C38.6531 24.7498 38.6531 24.3498 38.6531 24.0498C38.6531 23.5498 38.7531 23.1498 38.9531 22.7498C39.1531 22.3498 39.5531 22.0498 39.9531 21.7498L41.0531 21.1498L40.9531 18.5498Z" fill="#1C1C1C"/>
</svg>
