<svg width="51" height="50" viewBox="0 0 51 50" fill="none" xmlns="http://www.w3.org/2000/svg">
<rect x="0.5" width="50" height="50" rx="25" fill="white"/>
<mask id="mask0_8053_78682" style="mask-type:luminance" maskUnits="userSpaceOnUse" x="8" y="8" width="35" height="34">
<path d="M42.375 8.125H8.625V41.875H42.375V8.125Z" fill="white"/>
</mask>
<g mask="url(#mask0_8053_78682)">
<path d="M25.5 41.875C34.8536 41.875 42.375 34.3536 42.375 25C42.375 15.6464 34.8536 8.125 25.5 8.125C16.1464 8.125 8.625 15.6464 8.625 25C8.625 34.3536 16.1464 41.875 25.5 41.875Z" fill="#988430"/>
<path d="M25.4995 41.2965C34.5638 41.2965 41.796 33.9679 41.796 25C41.796 16.0322 34.4674 8.70361 25.4995 8.70361C16.5317 8.70361 9.20312 16.0322 9.20312 25C9.20312 33.9679 16.4353 41.2965 25.4995 41.2965Z" fill="#7A6A2A"/>
<path d="M25.4993 41.007C34.3708 41.007 41.5065 33.8712 41.5065 24.9998C41.5065 16.1284 34.3708 8.99268 25.4993 8.99268C16.6279 8.99268 9.49219 16.1284 9.49219 24.9998C9.49219 33.8712 16.6279 41.007 25.4993 41.007Z" fill="#BA9F33"/>
<path fill-rule="evenodd" clip-rule="evenodd" d="M16.0455 23.1678C15.9491 23.0714 15.8527 22.975 15.7562 22.8785C15.6598 22.7821 15.5634 22.6857 15.467 22.5892L15.1777 22.3L15.0812 22.2035C15.0812 22.2035 14.9848 22.1071 14.8884 22.1071L14.9848 22.2035L15.0812 22.3L15.3705 22.5892C15.467 22.6857 15.5634 22.7821 15.6598 22.8785C15.8527 22.975 15.9491 23.0714 16.0455 23.1678ZM11.0312 23.1678C11.0312 23.1678 12.3813 23.2643 13.0563 23.3607C13.6348 23.4571 15.6598 23.7464 15.6598 23.7464L11.0312 23.1678ZM12.1884 23.2642C12.3812 23.2642 12.5741 23.2643 12.767 23.3607H13.0563C13.1527 23.3607 13.2491 23.3607 13.3455 23.3607L14.5027 23.5535L15.0812 23.65C15.2741 23.65 15.467 23.7464 15.6598 23.7464C15.467 23.7464 15.2741 23.7464 15.0812 23.65L14.5027 23.5535L13.3455 23.3607C13.2491 23.3607 13.1527 23.3607 13.0563 23.3607H12.767C12.5741 23.3607 12.3812 23.3607 12.1884 23.2642ZM15.467 24.1321C15.467 24.1321 14.0205 24.5178 13.5384 24.6143C13.0563 24.7107 11.6098 25.1928 11.6098 25.1928L15.467 24.1321Z" fill="#CFB66C"/>
<path fill-rule="evenodd" clip-rule="evenodd" d="M15.4665 24.1323C15.1772 24.2288 14.7915 24.3252 14.5022 24.4216L13.5379 24.7109C13.2487 24.8073 12.8629 24.9037 12.5737 25.0002L12.0915 25.0966C11.8987 25.0966 11.8022 25.193 11.6094 25.193C11.8022 25.0966 11.8987 25.0966 12.0915 25.0002L12.5737 24.8073C12.8629 24.7109 13.2487 24.6145 13.5379 24.518C13.8272 24.4216 14.2129 24.3252 14.5022 24.2287C14.7915 24.2287 15.0808 24.2288 15.4665 24.1323ZM11.7058 26.1573C11.8987 26.0609 13.7308 25.193 14.1165 25.0002C14.3094 24.9037 14.9844 24.7109 14.9844 24.7109L11.7058 26.1573Z" fill="#CFB66C"/>
<path fill-rule="evenodd" clip-rule="evenodd" d="M11.7109 26.1571C11.8074 26.0607 12.0002 26.0607 12.0967 25.9643L12.4824 25.7714L13.2538 25.3857C13.5431 25.2892 13.8324 25.0964 14.0252 25C14.1217 24.9035 14.3145 24.9035 14.4109 24.8071L14.6038 24.7107C14.7002 24.7107 14.7002 24.7107 14.7966 24.6143C14.5074 24.7107 14.2181 24.8071 13.9288 25C13.6395 25.0964 13.3502 25.2892 13.0609 25.3857L12.1931 25.7714C12.2895 25.8678 12.0002 25.9642 11.7109 26.1571ZM11.9038 26.8321C11.9038 26.8321 13.5431 25.8678 14.1217 25.4821C14.4109 25.2893 15.3752 24.8071 15.3752 24.8071L11.9038 26.8321Z" fill="#CFB66C"/>
<path fill-rule="evenodd" clip-rule="evenodd" d="M11.9062 26.8321C12.1955 26.6393 12.4848 26.4464 12.7741 26.2536L13.1598 25.9643C13.3527 25.8678 13.4491 25.7714 13.642 25.675C13.8348 25.5786 13.9313 25.4821 14.1241 25.3857C14.2205 25.3857 14.317 25.2893 14.317 25.2893L14.5098 25.1928C14.7991 25 15.0884 24.9036 15.4741 24.8071C15.1848 25 14.8955 25.1928 14.6063 25.2893C14.4134 25.3857 14.317 25.4821 14.1241 25.4821C13.9313 25.5786 13.8348 25.675 13.642 25.7714C13.4491 25.8678 13.3527 25.9643 13.1598 26.0607L12.6777 26.35L11.9062 26.8321ZM15.4741 25.0964C15.4741 25.0964 14.4134 25.8678 14.1241 26.1571C13.7384 26.4464 12.7741 27.1214 12.7741 27.1214L15.4741 25.0964Z" fill="#CFB66C"/>
<path fill-rule="evenodd" clip-rule="evenodd" d="M21.4536 31.6537L20.875 30.593L21.1643 29.3395L23.3821 28.4716L22.4179 26.543L22.9 24.6145L23.7679 22.8787L26.4679 22.493L28.4929 20.5645L32.8322 20.8537L33.7 25.4823L32.0607 31.268L31.0964 34.2573L27.3357 34.3537L25.6 33.1002L23.575 32.2323L21.4536 31.6537Z" fill="#E2CC85"/>
<path fill-rule="evenodd" clip-rule="evenodd" d="M28.0018 31.5573C28.0018 31.5573 27.5197 31.7502 26.5554 31.7502C26.2661 31.3645 24.5304 31.268 24.5304 31.268C24.5304 31.268 24.3375 31.1716 23.9518 31.3645C23.5661 31.5573 23.1804 31.4609 22.7946 31.5573C22.4089 31.6537 22.1196 31.1716 21.8304 31.0752C21.5411 30.9787 21.1554 30.6895 21.1554 30.6895L20.3839 30.593L18.8411 29.918L16.4304 27.5073L15.7554 28.568L15.5625 29.8216L16.3339 31.3645L18.2625 33.1966L22.1196 34.1609L24.4339 33.4859L27.2304 32.3288L28.0018 31.5573Z" fill="#F1D789"/>
<path fill-rule="evenodd" clip-rule="evenodd" d="M14.4143 23.0713L14.8964 21.6249L15.475 20.6606L17.3071 20.4678L16.7286 22.1071L15.1857 24.9035L15.8607 27.4106L14.7036 27.9892L14.4143 27.4106L14.125 26.1571V24.8071L14.4143 23.0713Z" fill="#F4ECB4"/>
<path fill-rule="evenodd" clip-rule="evenodd" d="M16.5357 31.4609L16.15 30.9787C16.15 30.9787 16.0536 30.7859 16.15 30.4966C16.2464 30.3037 16.15 30.3037 16.15 30.2073C16.15 30.1108 15.8607 29.8216 15.8607 29.6287C15.8607 29.4359 15.8607 29.3394 16.0536 29.1466C16.2464 28.9537 16.15 28.6644 16.15 28.6644L16.3429 28.8573L16.4393 28.7608C16.4393 28.7608 16.5357 28.8573 16.5357 28.9537C16.5357 28.7609 16.4393 28.0859 16.6321 27.9894C16.825 27.7966 17.1143 28.7608 17.1143 28.7608L16.9214 27.5073L16.4393 26.1573L15.5714 25.0001L15.475 23.6501V23.5537C15.475 23.5537 15.0893 24.2287 14.9929 24.7109C14.8964 25.0966 15.0893 25.4823 15.0893 25.9644C15.0893 26.4466 14.9929 26.4466 15.0893 26.6394C15.1857 26.8323 15.475 27.218 15.3786 27.5073C15.2821 27.7966 14.8964 27.6037 14.8964 27.6037C14.8964 27.6037 14.8 27.7966 14.7036 27.893C14.7036 27.7966 14.6071 27.7001 14.6071 27.6037V27.7001C14.6071 27.7001 14.5107 27.5073 14.5107 27.3144C14.4143 27.0251 14.3179 26.543 14.2214 26.3501C14.2214 26.4466 14.125 26.8323 14.125 26.8323V27.4109L14.3179 28.2787L14.5107 28.8573L14.7036 29.5323L14.8964 30.0144L15.0893 30.4001L15.1857 31.1716L15.7643 31.8466L16.0536 32.0394L16.5357 31.4609Z" fill="#F3E19D"/>
<path fill-rule="evenodd" clip-rule="evenodd" d="M14.7977 21.9142C14.7977 21.9142 14.3156 22.6856 14.2191 23.457C14.1227 24.2285 13.9299 24.9999 14.0263 26.0606C14.1227 27.1213 14.2191 27.7963 14.412 28.1821C14.6048 28.9535 15.1834 30.0142 15.1834 30.0142C15.087 29.8213 14.9906 29.6285 14.9906 29.4356C14.8941 29.1463 14.8941 28.7606 14.7977 28.6642C14.7013 28.4713 14.6048 28.3749 14.6048 28.1821C14.6048 27.9892 14.5084 27.6999 14.412 27.5071C14.3156 27.4106 14.3156 27.2178 14.2191 26.9285C14.2191 26.5428 14.2191 26.157 14.2191 25.8678C14.1227 25.3856 14.1227 24.9999 14.2191 24.7106C14.3156 24.4213 14.6048 23.6499 14.7013 23.0713C14.7977 22.6856 14.7013 22.2999 14.9906 22.0106C15.1834 21.6249 15.3763 21.3356 15.3763 21.1428C15.3763 20.8535 14.7977 21.9142 14.7977 21.9142Z" fill="#F2E8B0"/>
<path fill-rule="evenodd" clip-rule="evenodd" d="M16.9136 21.625C16.9136 21.625 16.7207 21.7214 16.5279 21.8179C16.4315 21.9143 16.335 22.0107 16.2386 22.2036C16.0457 22.3964 16.0458 22.5893 15.9493 22.7821C15.8529 22.975 15.5636 23.3607 15.5636 23.5536C15.5636 23.65 15.4672 24.325 15.3707 24.6143C15.2743 24.9036 15.4672 25.2893 15.4672 25.2893H15.66C15.66 25.2893 15.66 25.4821 15.8529 25.675C16.0457 25.7714 16.0457 25.1929 16.0457 25.1929L16.6243 23.2643L17.4922 22.6857L17.5886 22.2036L16.9136 21.625Z" fill="#F5EEC0"/>
<path fill-rule="evenodd" clip-rule="evenodd" d="M17.3018 22.4927C17.3018 22.4927 16.9161 22.4927 16.7232 22.6855C16.6268 22.782 16.6268 22.782 16.5304 22.8784C16.3375 22.9748 16.2411 23.1677 16.1446 23.2641C16.0482 23.4569 15.9518 23.7462 15.8554 24.2284C15.8554 24.4212 15.8554 24.6141 15.8554 24.807C15.8554 24.9998 15.7589 25.1927 15.8554 25.3855C15.8554 25.6748 16.1446 25.7712 16.1446 26.0605L16.7232 25.7712L17.2054 23.6498L18.3625 22.9748L17.6875 22.2998L17.3018 22.4927Z" fill="#E6DB9D"/>
<path fill-rule="evenodd" clip-rule="evenodd" d="M14.3125 36.4751C14.4089 35.7037 14.4089 35.2215 14.5054 34.8358C14.6018 34.3537 14.6982 34.1608 14.6018 33.968C14.6018 33.6787 14.6018 33.4858 14.6018 33.293C14.6018 33.0037 14.8911 32.618 14.8911 32.4251C14.8911 32.2322 14.7947 32.1358 14.6982 32.0394C14.6018 31.943 14.5054 31.8465 14.5054 31.8465C14.5054 31.8465 15.0839 31.4608 15.0839 29.918L15.3732 30.6894L15.5661 30.8823L16.3375 32.2322L17.3018 33.1001L18.6518 34.0644L19.5197 35.0287L19.6161 37.5358L18.4589 38.9822L18.2661 39.2715C16.9161 38.5965 15.5661 37.6322 14.3125 36.4751Z" fill="#E5CB7A"/>
<path fill-rule="evenodd" clip-rule="evenodd" d="M17.7812 38.8859C17.7812 38.8859 17.7813 38.5966 18.0705 38.4038C18.0705 38.5002 18.167 38.5002 18.167 38.5967C18.167 38.5002 18.5527 38.0181 19.2277 37.8252C19.9991 37.7288 20.0955 37.1502 20.0955 37.1502L21.6384 35.7038L23.4705 34.0645L25.592 33.2931L26.6527 33.0038C26.6527 33.0038 26.6527 33.1002 26.6527 33.1967C26.8455 33.1967 27.2313 33.1002 27.7134 32.9074C27.9063 32.8109 28.0991 32.8109 28.0991 32.9074C28.1955 33.0038 28.292 33.2931 28.292 33.4859C28.4848 33.4859 28.7741 33.1967 28.967 33.2931C29.2563 33.2931 29.5455 33.6788 29.8348 33.6788C30.2205 33.6788 30.4134 33.3895 30.7027 33.1967C30.8955 33.1002 31.0884 32.9074 31.2812 32.8109C31.667 32.5217 35.2348 31.4609 35.2348 31.4609L36.4884 31.5574L36.6813 32.9074L36.5848 36.4752L30.8955 39.4645L22.9884 40.7181C21.2527 40.4288 19.517 39.8502 17.9741 38.9824L17.7812 38.8859Z" fill="#D8C173"/>
<path fill-rule="evenodd" clip-rule="evenodd" d="M14.7969 36.9572C14.8933 36.7644 14.9897 36.5715 14.9897 36.4751C14.9897 36.5715 14.9897 36.9572 15.0862 37.2465C15.0862 37.0537 14.8933 37.0537 14.7969 36.9572Z" fill="#F1D789"/>
<path fill-rule="evenodd" clip-rule="evenodd" d="M20.5781 40.2356L21.6388 39.9463H21.7353C21.7353 39.9463 21.7353 39.9463 21.7353 40.0428C21.8317 39.9463 21.9281 39.9463 22.0246 39.9463C22.0246 40.0428 22.121 40.332 22.3138 40.332C22.5067 40.332 22.6996 40.2356 22.8924 40.1392C23.0853 39.9463 23.2781 39.7535 23.471 39.657C23.5674 39.7535 23.5674 39.8499 23.6639 40.0428C23.8567 39.8499 24.3388 39.0785 24.821 39.1749C25.0138 38.7892 25.3031 38.4999 25.5924 38.2106C26.0746 37.8249 26.4603 37.8249 26.846 37.8249C27.0388 37.632 27.2317 37.4392 27.4246 37.2463C27.521 37.2463 27.7138 37.3427 27.9067 37.2463C28.0996 37.1499 28.3888 36.6678 28.7746 36.6678C28.9674 36.6678 29.1603 36.6677 29.3531 36.7642C29.3531 36.7642 30.4138 35.7035 31.0888 35.4142C31.0888 35.3178 30.9924 35.0285 31.8603 34.3535V34.5463C31.8603 34.5463 32.0531 34.4499 32.3424 34.257C32.6317 34.0642 33.0174 33.7749 33.3067 33.6785C33.6924 33.582 34.1746 33.7749 34.1746 33.7749L34.271 33.6785C34.3674 33.6785 34.4638 33.6785 34.5603 33.582C34.5603 33.6785 34.6567 33.9678 34.5603 34.1606C34.6567 34.257 34.7531 34.257 34.8496 34.257C34.8496 34.3535 34.6567 34.6428 34.5603 34.7392C34.6567 34.8356 34.7531 34.932 34.946 34.932C34.8496 35.0285 34.7531 35.2213 34.6567 35.3177C34.5603 35.4142 34.3674 35.9928 34.271 36.1856C34.1746 36.3785 34.0781 36.7642 33.9817 36.8606C33.8853 36.957 33.6924 37.2463 33.4996 37.4392C33.6924 37.3427 34.3674 37.1499 34.5603 37.0535C34.4638 37.1499 34.0781 37.8249 33.6924 38.4035C31.7638 39.5606 29.546 40.332 27.3281 40.6213C25.1103 41.1035 22.796 40.9106 20.5781 40.2356Z" fill="#E0CD81"/>
<path fill-rule="evenodd" clip-rule="evenodd" d="M17.3987 22.3966C17.3987 22.3966 17.2058 22.3966 17.1094 22.3966C17.1094 22.3966 17.3022 22.493 17.3987 22.493C17.4951 22.493 17.6879 22.6859 17.6879 22.7823C17.6879 22.8787 19.4237 23.5537 19.4237 23.5537L20.5808 23.4573L20.9665 22.8787L20.1951 22.2038L20.7737 20.5645L20.0987 20.6609L18.3629 21.7216L17.4951 22.0109L17.3987 22.3966Z" fill="#DFC57C"/>
<path fill-rule="evenodd" clip-rule="evenodd" d="M19.9062 22.8786C20.0027 22.9751 20.0027 22.9751 19.9062 22.8786C20.0027 22.9751 20.0027 22.975 20.0991 22.975C20.3884 22.975 20.5813 23.0715 20.6777 23.1679C20.8705 23.3608 21.2563 24.0358 21.2563 24.0358L22.317 24.4215L22.4134 23.1679L21.2563 22.3965L19.9062 22.8786Z" fill="#E5CC7C"/>
<path fill-rule="evenodd" clip-rule="evenodd" d="M19.7192 23.3605C19.7192 23.3605 19.9121 23.3605 20.1049 23.2641C20.2978 23.1676 20.7799 22.9748 20.8763 23.0712C21.0692 23.1676 21.0692 23.4569 21.3585 23.7462C21.5513 23.9391 21.8406 23.9391 21.9371 24.1319C22.1299 24.3248 22.6121 24.2283 22.6121 24.2283L22.8049 25.3855L22.1299 26.4462L21.8406 27.7962H20.6835L19.6228 27.4105L19.1406 26.1569L19.4299 24.9033L19.7192 23.3605Z" fill="#D2C281"/>
<path fill-rule="evenodd" clip-rule="evenodd" d="M21.9375 23.4569C22.0339 23.4569 22.0339 23.4569 21.9375 23.4569C22.0339 23.4569 21.9375 23.5533 21.9375 23.7462C21.9375 23.939 22.0339 24.1319 21.9375 24.2283C22.0339 24.3248 22.0339 24.3248 22.0339 24.4212C22.0339 24.5176 22.1304 24.7105 22.4196 24.7105L22.3232 24.8069C22.3232 24.8069 22.5161 24.9998 22.6125 25.1926C22.7089 25.1926 22.9982 25.0962 22.9982 25.0962H23.0946L23.1911 24.9998C23.1911 24.9998 23.0946 24.9998 23.1911 24.614C23.2875 24.3248 23.3839 24.3248 23.3839 24.3248C23.3839 24.3248 23.4803 24.0355 23.4803 23.939C23.4803 23.8426 23.5768 23.3605 23.5768 23.3605L23.4803 22.3962L22.9982 22.1069L22.6125 21.7212L22.2268 22.3962L21.9375 22.6855V23.4569Z" fill="#E2C270"/>
<path fill-rule="evenodd" clip-rule="evenodd" d="M23.1875 22.5895C23.1875 22.5895 23.2839 22.8787 23.2839 23.0716V22.9752C23.2839 22.9752 23.3804 23.3609 23.3804 23.5537H23.4768C23.4768 23.5537 23.5732 23.843 23.5732 24.0359C23.6696 23.843 23.8625 23.6502 24.0554 23.5537C24.1518 23.4573 24.2482 23.4573 24.4411 23.3609C24.6339 23.3609 24.8268 23.4573 25.0196 23.4573C25.5982 23.4573 26.1768 22.9752 26.5625 22.8787C26.8518 22.7823 27.1411 22.6859 27.3339 22.493C27.4303 22.3966 27.6232 22.3002 27.7196 22.0109C27.9125 21.7216 28.1053 21.4323 28.2982 21.3359C28.2018 21.3359 28.1054 21.3359 28.0089 21.3359C28.0089 21.3359 28.1054 21.2395 28.2018 21.2395C28.2982 21.143 28.3946 21.0466 28.5875 21.0466C28.8768 21.0466 29.0696 21.0466 29.2625 21.0466C29.4553 21.0466 29.5518 21.0466 29.5518 21.0466C29.5518 21.0466 29.7446 21.143 30.1304 21.143C30.5161 21.143 30.8053 21.143 30.9982 21.2395C31.1911 21.2395 31.9625 21.143 32.1553 21.143C32.2518 21.143 32.4446 21.143 32.5411 21.2395L31.8661 19.3109L29.4554 17.1895L28.0089 18.2502L25.7911 20.468L23.6696 21.2395L23.1875 21.7216V22.5895Z" fill="#CCB360"/>
<path fill-rule="evenodd" clip-rule="evenodd" d="M27.9121 21.5285C27.9121 21.5285 28.0085 21.4321 28.1049 21.4321C28.2013 21.3357 28.2978 21.2393 28.4906 21.2393C28.7799 21.2393 28.9728 21.2393 29.1656 21.2393C29.3585 21.2393 29.4549 21.2393 29.4549 21.2393C29.4549 21.2393 29.6478 21.3357 30.0335 21.3357C30.4192 21.3357 30.7085 21.3357 30.9013 21.4321C31.0942 21.4321 31.8656 21.3357 32.0585 21.3357C32.1549 21.3357 32.3478 21.3357 32.4442 21.4321L32.1549 20.5643L31.7692 19.8893L30.8049 18.8286L29.5513 18.1535L29.1656 18.0571L28.1049 18.7321L27.1406 21.3357V21.9143L27.8156 22.2036C28.0085 21.9143 28.2013 21.7214 28.2978 21.7214C28.0085 21.5286 27.9121 21.5285 27.9121 21.5285Z" fill="#D5B457"/>
<path fill-rule="evenodd" clip-rule="evenodd" d="M27.9118 21.7217C27.8154 21.7217 27.719 21.7217 27.719 21.6252C27.6225 21.4324 27.5261 21.3359 27.5261 21.3359C27.4297 21.3359 27.3333 21.5288 27.3333 21.5288C27.2368 21.5288 27.2368 21.3359 27.2368 21.3359H27.1404C27.1404 21.3359 26.7547 21.5288 26.5618 21.8181C26.2726 22.1074 25.8868 22.5895 25.694 22.5895C25.5011 22.6859 24.9226 22.6859 24.6333 22.7824C24.4404 22.7824 24.1511 22.9752 24.1511 22.9752L24.2475 23.0717C24.2475 23.0717 24.0547 23.0717 24.0547 23.1681C24.0547 23.1681 24.1511 23.3609 24.1511 23.4574C24.2476 23.4574 24.2475 23.4574 24.344 23.4574C24.5368 23.4574 24.7297 23.5538 24.9225 23.5538C25.5011 23.5538 26.0797 23.0716 26.4654 22.9752C26.7547 22.8788 27.044 22.7824 27.2368 22.5895C27.3333 22.4931 27.5261 22.3967 27.6225 22.1074C27.719 22.0109 27.8154 21.8181 27.9118 21.7217Z" fill="#D2B257"/>
<path fill-rule="evenodd" clip-rule="evenodd" d="M19.2295 35.2212C19.2295 35.2212 19.133 35.0284 18.6509 34.4498C18.5545 34.257 18.458 34.1605 18.3616 34.0641C18.1688 33.8712 17.9759 33.7748 17.783 33.6784C17.3973 33.3891 17.0116 33.3891 16.7223 33.0998C16.433 32.8105 16.0473 32.1355 15.758 31.4605C15.4687 30.7855 15.4688 30.5927 15.4688 30.5927C15.4688 30.5927 15.5652 30.3998 15.6616 30.4962C15.758 30.4962 15.758 30.6891 15.758 30.6891C15.758 30.7855 15.8545 30.7855 15.9509 30.882C16.0473 31.0748 16.2402 31.1712 16.3366 31.4605C16.3366 31.2677 16.2402 30.9784 16.2402 30.9784C16.2402 30.9784 16.7223 31.2677 17.108 31.557C17.4937 31.8462 17.6866 31.9427 17.783 32.232C17.8795 32.5212 18.1688 33.0034 18.3616 33.0998C18.458 33.2927 20.3866 33.8712 20.3866 33.8712L21.2545 34.5462L21.7366 35.5105L21.3509 36.0891L20.6759 36.1855L19.6152 35.7034L19.2295 35.2212Z" fill="#D2B159"/>
<path fill-rule="evenodd" clip-rule="evenodd" d="M16.8203 31.8464C16.8203 31.8464 17.0132 32.2321 17.5917 32.5214C18.0739 32.8107 18.8453 33.1 19.5203 33.2928C19.906 33.3892 20.2917 33.4857 20.6775 33.4857C21.6417 33.4857 22.3167 33.1964 23.0882 33.0999C23.5703 33.0999 24.0525 33.0035 24.631 32.9071C25.4025 32.7142 25.7882 32.5214 26.3667 32.2321C26.7524 32.0392 27.1382 31.8464 27.5239 31.6535C28.006 31.3642 28.2953 31.0749 28.681 30.9785C28.681 31.0749 28.5846 31.3642 28.1989 31.5571C28.3917 31.5571 28.681 31.5571 28.681 31.5571C28.681 31.5571 28.3917 31.75 27.9096 32.0392C27.6203 32.2321 27.2346 32.6178 26.8489 32.9071C26.5596 33.0999 26.3667 33.1964 26.1739 33.2928C25.7882 33.4857 25.5953 33.6785 25.306 33.9678C25.4025 33.9678 25.4024 33.9678 25.4024 33.9678C25.4024 33.9678 25.0167 33.9678 24.8239 34.1607C24.7275 34.1607 24.631 34.1607 24.5346 34.1607C24.4382 34.1607 24.2453 34.2571 24.0525 34.3535C23.7632 34.4499 23.7632 34.3535 23.7632 34.3535V34.4499C23.7632 34.4499 23.4739 34.4499 23.3775 34.4499C23.3775 34.4499 23.3775 34.4499 23.281 34.4499C23.1846 34.4499 23.1846 34.5464 23.0882 34.5464H22.9917C22.9917 34.5464 23.0882 34.7392 23.1846 34.8357L22.5096 35.3178V35.4142C22.5096 35.5107 22.5096 35.6071 22.5096 35.6071C22.5096 35.7035 22.606 35.7035 22.606 35.7035C22.606 35.7035 22.5096 35.7035 22.4132 35.7035C22.3167 35.7035 22.1239 35.7999 22.0274 35.7999C21.931 35.7999 21.931 35.7999 21.8346 35.7999C21.8346 35.8964 22.0275 36.0892 21.7382 36.3785C21.5453 36.6678 21.4489 36.6678 21.3525 36.8607L21.256 36.7642C21.1596 36.7642 21.0632 36.6678 21.0632 36.5714C21.0632 36.6678 20.9667 36.7642 20.9667 36.8607C20.8703 37.0535 20.7739 37.2464 20.7739 37.3428C20.6775 37.2464 20.581 37.0535 20.3882 37.15C20.1953 37.15 20.0025 37.4392 20.0025 37.5357C20.0025 37.6321 19.906 38.2107 19.3275 38.6928C19.3275 38.5964 19.3275 38.3071 19.3275 38.2107C19.231 38.3071 19.231 38.3071 18.8453 38.4999C18.4596 38.6928 18.556 38.8857 18.556 38.8857C18.556 38.8857 18.556 38.5964 18.7489 38.3071C18.9417 38.0178 19.1346 37.9214 19.1346 37.8249C19.1346 37.8249 19.1346 37.8249 19.1346 37.7285L19.0382 37.6321C19.0382 37.6321 19.4239 37.4392 19.4239 37.15C19.4239 36.8607 19.3275 36.6678 19.231 36.5714C19.231 36.5714 19.3275 36.4749 19.3275 36.3785L19.1346 36.1857V36.0892C19.1346 35.9928 19.1346 35.9928 19.1346 35.9928C19.1346 35.8964 19.0382 35.7035 19.0382 35.7035H19.231C19.231 35.7035 19.1346 35.5107 19.1346 35.4142C19.1346 35.3178 19.0382 35.1249 19.0382 35.0285H19.231C19.231 35.0285 19.1346 34.9321 19.1346 34.8357C19.1346 34.8357 19.231 34.8357 19.3275 34.9321C19.3275 34.8357 19.231 34.6428 19.1346 34.6428C19.231 34.6428 19.3275 34.5464 19.5203 34.6428C19.7132 34.7392 19.7132 34.8357 19.7132 34.8357C19.7132 34.8357 19.8096 34.9321 20.0025 35.0285C20.1953 35.1249 20.3882 35.3178 20.7739 35.5107C20.8703 35.5107 21.0632 35.5107 21.1596 35.5107C21.256 35.5107 21.256 35.5107 21.3525 35.4142C21.3525 35.4142 21.3525 35.4142 21.4489 35.4142C21.4489 35.3178 21.3525 35.3178 21.3525 35.2214H21.4489C21.4489 35.2214 21.4489 35.1249 21.3525 35.0285L21.4489 34.9321C21.4489 34.9321 21.3525 34.8357 21.256 34.8357L21.3525 34.7392C21.3525 34.7392 21.256 34.5464 21.1596 34.5464C21.1596 34.5464 21.256 34.5464 21.256 34.4499C21.256 34.4499 21.0632 34.3535 20.9667 34.3535C20.8703 34.2571 20.7739 34.1607 20.6775 34.1607C20.581 34.1607 20.4846 34.1607 20.4846 34.0642C20.4846 34.0642 20.581 34.0642 20.6775 34.0642H20.7739C20.7739 34.0642 20.7739 33.9678 20.8703 33.9678C20.9667 33.9678 20.9667 33.9678 21.0632 33.9678C21.0632 33.9678 20.9667 33.9678 20.8703 33.8714C20.7739 33.7749 20.6774 33.6785 20.581 33.6785C20.4846 33.6785 20.3882 33.6785 20.2917 33.6785C20.1953 33.6785 20.0989 33.5821 20.0989 33.5821C20.0989 33.5821 19.7132 33.5821 18.9417 33.0999C18.2667 32.7142 17.9775 32.3285 17.9775 32.3285C17.881 32.3285 17.881 32.2321 17.7846 32.2321C17.206 32.5214 16.8203 32.2321 16.8203 31.8464Z" fill="#C2A44D"/>
<path fill-rule="evenodd" clip-rule="evenodd" d="M26.8464 15.55C26.9428 15.55 26.9429 15.6465 27.0393 15.6465C27.1357 15.8393 27.2321 16.0322 26.9429 16.4179C27.0393 16.4179 27.1357 16.5143 27.2321 16.4179C27.1357 16.5143 26.9428 16.8036 26.8464 16.9965C26.8464 17.1893 26.9429 17.1893 26.9429 17.1893C26.9429 17.1893 26.75 17.3822 26.75 17.7679C26.8464 17.6715 26.9429 17.575 27.0393 17.4786C27.2321 17.2857 27.5214 17.0929 27.7143 16.9965C27.7143 17.0929 27.7143 17.0929 27.7143 17.0929C27.7143 17.0929 28.1 16.8036 28.3893 16.9C28.4857 16.9965 28.4857 17.1893 28.4857 17.1893C28.4857 17.1893 28.6786 17.0929 28.775 17.2857C28.8714 17.4786 29.0643 17.7679 29.1607 17.8643C29.1607 17.9608 29.3536 18.0572 29.45 18.25C29.6429 18.5393 29.7393 18.7322 29.8357 19.0215C29.8357 18.925 29.8357 18.6358 30.3179 18.8286C30.7036 18.925 31.1857 19.3107 31.5714 19.8893C31.9571 20.4679 32.0536 21.1429 32.2464 21.4322C32.4393 21.7215 32.6321 22.1072 32.6321 22.2036C32.6321 22.3965 32.5357 22.8786 33.0179 24.4215C33.1143 23.9393 33.3071 22.975 33.3071 22.975L33.4036 22.1072L33.5 19.3108L30.6071 16.9L28.2928 15.2607L26.8464 15.3572V15.55Z" fill="#CAA13E"/>
<path fill-rule="evenodd" clip-rule="evenodd" d="M32.2478 19.5998C32.2478 19.5998 32.2478 19.3105 31.4763 18.8284C30.8013 18.3462 30.2228 18.3462 29.7406 17.9605C29.3549 17.6712 28.9692 16.9962 28.6799 16.7069C28.3906 16.5141 28.3906 15.8391 28.3906 15.8391L29.2585 15.1641L30.5121 13.332L31.5728 12.1748L32.0549 12.8498L32.7299 13.7177L33.1156 15.357L33.2121 17.7677L32.2478 19.5998Z" fill="#B59544"/>
<path fill-rule="evenodd" clip-rule="evenodd" d="M33.1187 22.5895C33.1187 22.2038 33.1187 21.818 33.0223 21.5288C32.8295 20.9502 32.4437 19.9859 32.2509 19.6002C32.1544 19.2145 32.2509 19.118 32.3473 19.118C32.4437 19.118 32.733 18.9252 32.9259 18.3466C33.1187 17.7681 33.6009 17.768 33.6009 17.768L33.8902 17.5752L34.3723 18.7323L34.758 19.7931L34.8544 20.5645L34.9509 21.2395L34.6616 22.5895L33.6009 23.5538L33.1187 22.5895Z" fill="#C89D3A"/>
<path fill-rule="evenodd" clip-rule="evenodd" d="M17.6875 38.9823C17.6875 38.8859 17.6875 38.8859 17.6875 38.9823C17.7839 38.8859 17.7839 38.8859 17.7839 38.7894C17.7839 38.7894 17.9768 38.693 17.9768 38.7894C18.0732 38.7894 18.2661 38.8859 18.3625 38.8859C18.5554 38.8859 18.7482 38.693 19.1339 38.7894C19.7125 38.8859 19.8089 39.2716 20.0982 39.4644C20.2911 39.6573 20.5804 39.5609 20.5804 39.5609H20.6768C20.6768 39.5609 20.7732 39.4644 20.8696 39.4644C20.9661 39.4644 20.9661 39.5609 21.0625 39.5609C21.2554 39.5609 21.5447 39.4644 21.7375 39.5609C21.7375 39.5609 21.8339 39.5609 21.8339 39.6573L21.9304 39.7537C21.9304 39.8502 21.9304 39.9466 21.8339 40.043C21.6411 40.2359 21.5447 40.3323 21.4482 40.4287L21.5446 40.5252C20.1946 40.1394 18.8446 39.6573 17.6875 38.9823Z" fill="#CEB052"/>
<path fill-rule="evenodd" clip-rule="evenodd" d="M32.25 33.4859C32.25 33.4859 32.6357 32.9073 32.8286 32.618C33.0214 32.3287 32.3464 28.6644 32.3464 28.6644L33.6 24.6144V23.2644C33.6 23.2644 33.6964 22.0109 33.7929 21.5287C33.9857 21.818 34.4679 22.2037 34.5643 22.3966C34.6607 22.0109 34.7571 21.2394 34.7571 20.3716C34.8536 20.5644 35.1429 22.1073 35.1429 22.1073L35.4321 23.168L35.7214 24.3252L36.1071 25.4823L36.3 26.2537L36.3964 26.4466L36.4929 26.8323L36.5893 27.218L36.8786 28.0859L37.0714 28.7609L37.1679 30.0144C37.1679 30.1109 37.2643 30.2073 37.2643 30.3037C37.2643 30.4002 37.2643 30.4966 37.2643 30.593C37.2643 30.593 37.2643 30.8823 37.2643 31.0752C37.2643 31.268 37.2643 31.4609 37.0714 31.6537C36.8786 31.8466 36.7821 32.7144 36.7821 32.7144L36.4929 32.5216C36.4929 32.5216 36.5893 32.2323 36.3964 32.0394C36.3 31.7502 36.0107 31.7502 35.8179 31.7502C35.625 31.7502 35.3357 31.8466 35.2393 31.943C35.1429 32.0394 34.95 32.3287 34.6607 32.4252C34.3714 32.618 33.9857 32.618 33.6964 32.618C33.5036 32.7144 33.2143 32.8109 32.925 33.0037C32.7321 33.293 32.4429 33.3894 32.25 33.4859Z" fill="#CCA847"/>
<path fill-rule="evenodd" clip-rule="evenodd" d="M32.25 39.4642C34.275 38.5964 36.0107 37.3428 37.4571 35.7035C37.4571 35.125 37.4571 34.5464 37.3607 34.3535C37.3607 33.8714 37.3607 33.4857 37.3607 33.1964C37.3607 32.9071 37.1679 31.8464 37.1679 31.5571C37.0714 31.2678 36.975 31.1714 36.975 31.1714C36.975 31.1714 36.8786 31.6535 36.8786 31.8464C36.8786 31.9428 36.8786 32.3285 36.8786 32.3285V32.2321C36.8786 32.3285 36.7821 32.425 36.7821 32.425V32.3285C36.7821 32.3285 36.6857 32.3285 36.7821 32.2321V32.1357C36.7821 32.1357 36.6857 32.2321 36.6857 32.5214C36.5893 32.8107 36.5893 32.8107 36.5893 32.9071C36.5893 32.9071 36.4929 33.0035 36.4929 33.1C36.4929 33.1964 36.5893 33.2928 36.5893 33.2928C36.5893 33.3893 36.4929 33.6785 36.4929 33.8714C36.4929 34.0642 36.4929 34.3535 36.3964 34.45C36.3964 34.5464 36.3 34.6428 36.2036 34.7393C36.3 34.7393 36.3 34.7393 36.3 34.7393C36.3 34.7393 36.3964 35.125 36.1071 35.5107C36.0107 35.6071 36.0107 35.7035 35.9143 35.8C35.7214 35.9928 35.625 36.1857 35.5286 36.3785V36.2821C35.5286 36.2821 35.2393 36.5714 35.1429 36.7642C34.95 37.0535 34.7571 36.9571 34.7571 37.0535C34.6607 37.15 34.6607 37.2464 34.6607 37.3428C34.5643 37.3428 34.4679 37.3428 34.4679 37.6321C34.4679 37.7285 34.3714 37.825 34.1786 37.9214C34.0821 38.0178 33.8893 38.0178 33.7929 38.0178C33.8893 38.0178 33.8893 38.0178 33.8893 38.0178C33.8893 38.1142 33.6964 38.2107 33.4071 38.3071C33.2143 38.4035 33.1179 38.5964 33.0214 38.7893C32.925 38.8857 32.925 38.9821 32.7321 38.9821C32.8286 38.9821 32.8286 39.0785 32.925 39.0785C32.8286 39.0785 32.7321 39.0785 32.5393 39.2714C32.3464 39.3678 32.3464 39.4642 32.25 39.4642Z" fill="#C39D3C"/>
<path fill-rule="evenodd" clip-rule="evenodd" d="M28.3906 40.718C28.4871 40.6215 28.5835 40.6215 28.7763 40.5251C29.162 40.3323 29.6442 40.3323 29.8371 40.2358C30.0299 40.1394 30.1263 40.1394 30.3192 40.043C30.3192 40.1394 30.3192 40.1394 30.3192 40.1394C29.6442 40.4287 29.0656 40.6215 28.3906 40.718Z" fill="#D2BA6B"/>
<path fill-rule="evenodd" clip-rule="evenodd" d="M36.2989 29.5322C36.2989 29.5322 36.2024 30.0144 36.0096 30.3036C35.8167 30.5929 35.7203 30.9786 35.7203 30.9786C35.7203 30.8822 35.7203 30.7858 35.7203 30.6894C35.5275 30.7858 35.0453 31.0751 34.9489 31.1715C34.8525 31.2679 34.5632 31.4608 34.5632 31.5572C34.6596 31.1715 34.8525 30.8822 34.8525 30.6894C34.6596 30.7858 33.6953 31.5572 33.2132 32.1358L31.7667 33.2929C31.5739 33.3894 31.381 33.4858 31.2846 33.5822C30.9953 33.6786 30.706 33.7751 30.5132 33.8715C30.6096 33.6786 30.706 33.5822 30.8025 33.3894C30.8989 33.2929 31.381 32.8108 31.4775 32.6179C31.5739 32.4251 31.5739 32.2322 31.4775 32.0394C31.381 32.0394 31.1882 32.0393 31.0917 32.1358C30.9953 32.2322 30.8989 32.3286 30.8989 32.3286C30.8989 32.3286 30.9953 31.8465 31.1882 31.3644C31.0917 31.3644 30.8025 31.3644 30.8025 31.3644C30.8025 31.3644 31.1882 30.7858 31.7667 30.4001C31.5739 30.4001 31.381 30.4965 31.2846 30.5929C30.8989 30.6894 30.6096 30.9786 30.3203 31.0751C30.5132 30.8822 31.5739 29.3394 32.2489 27.8929C32.9239 26.4465 33.1167 26.0608 33.3096 25.2894C33.406 24.9036 33.406 24.3251 33.406 23.8429C33.406 23.3608 33.5025 22.8786 33.406 22.5894C33.5989 22.7822 34.1775 23.3608 34.2739 24.7108C34.2739 26.0608 33.6953 27.7965 33.0203 28.7608C33.2132 28.7608 33.5989 28.8572 34.081 28.0858C34.4667 27.3144 34.4667 27.1215 34.6596 26.8322C34.6596 27.0251 34.6596 27.0251 34.6596 27.0251C34.6596 27.0251 35.3346 26.2536 35.6239 25.2894C35.7203 25.6751 35.8167 26.0608 35.6239 26.8322C35.3346 27.5072 35.0453 27.7001 35.0453 27.7001C35.0453 27.7001 35.2382 27.7001 35.431 27.5072C35.431 27.6036 35.431 27.7001 35.5274 27.7965C35.6239 27.7965 35.7203 27.8929 35.7203 27.9894C35.8167 27.8929 35.9132 27.7001 35.9132 27.6036C35.9132 27.7965 35.9132 28.7608 36.0096 29.2429C36.2024 29.2429 36.3953 29.2429 36.5882 28.8572C36.4917 29.2429 36.4917 29.4358 36.5882 29.7251C36.2025 29.6286 36.2989 29.5322 36.2989 29.5322Z" fill="#C0993A"/>
<path fill-rule="evenodd" clip-rule="evenodd" d="M29.1697 14.4895C29.1697 14.4895 28.9768 14.5859 28.5911 14.5859C28.3018 14.5859 28.3983 14.4895 27.9161 14.4895C27.1447 14.4895 24.5411 14.8752 24.059 14.8752C23.7697 14.8752 25.0233 14.9716 25.0233 14.9716H28.3983L29.0732 14.8752L29.3625 14.3931L29.1697 14.4895Z" fill="#A88F33"/>
<path fill-rule="evenodd" clip-rule="evenodd" d="M20.5763 20.9502C20.5763 20.9502 20.1906 21.2394 19.9978 21.5287C19.8049 21.818 19.7085 21.9144 19.5156 22.1073C19.6121 22.1073 19.612 22.1073 19.612 22.1073V22.2037H19.7085H19.8049C19.7085 22.2037 19.6121 22.3966 19.7085 22.5894C19.8049 22.7823 19.9978 22.7823 19.9978 22.7823C19.9978 22.7823 19.9978 22.8787 20.1906 22.8787C20.5763 22.8787 21.0585 22.6859 21.2513 22.6859C21.4442 22.7823 21.6371 22.7823 21.7335 23.0716C21.9263 23.3609 22.0228 23.3609 22.0228 23.3609C22.0228 23.3609 22.1192 23.0716 22.1192 22.7823C22.2156 22.5894 22.2156 22.3966 22.2156 22.2037L22.1192 21.143L21.5406 20.3716L20.7692 20.8537L20.5763 20.9502Z" fill="#E3C571"/>
<path fill-rule="evenodd" clip-rule="evenodd" d="M21.3594 20.8537C21.3594 20.8537 21.4558 20.9501 21.6487 21.0466C21.6487 21.143 21.6487 21.143 21.6487 21.143V21.2394C21.6487 21.2394 21.7451 21.2394 21.7451 21.143C21.7451 21.2394 21.7451 21.3359 21.7451 21.3359V21.4323C21.7451 21.4323 21.8415 21.6251 21.938 21.7216C21.938 21.7216 21.938 21.7216 21.938 21.6251V21.7216C21.938 21.7216 21.9379 22.1073 22.0344 22.3966C22.0344 22.3966 22.0344 22.493 22.0344 22.5894C22.0344 22.6859 22.0344 22.7823 22.0344 22.7823C22.1308 22.7823 22.1308 22.6859 22.2272 22.6859C22.3237 22.6859 22.4201 22.5894 22.5165 22.3001C22.5165 22.2037 22.6129 22.0109 22.6129 21.9144C22.6129 22.0109 22.613 22.0109 22.7094 22.1073C22.7094 22.2037 22.8058 22.1073 22.8058 22.1073V21.818L22.9987 21.143L23.1915 20.7573L23.8665 19.6966L25.1201 18.7323L26.2772 19.0216L27.2415 17.768L25.6022 16.8037H24.0594L22.7094 18.7323L21.5522 20.468L21.3594 20.8537Z" fill="#D8B65B"/>
<path fill-rule="evenodd" clip-rule="evenodd" d="M29.3574 18.0572C29.3574 18.0572 29.2609 18.0572 28.9717 18.25C28.6824 18.3465 28.4895 18.4429 28.3931 18.6357C28.2966 18.8286 28.2966 19.0215 28.2966 19.0215C28.2966 19.0215 28.4895 18.925 28.5859 18.925C28.6824 18.925 28.8752 18.925 28.7788 18.925C28.7788 18.925 28.7788 19.0215 28.6824 19.0215C28.6824 19.0215 28.8752 19.0215 28.8752 19.1179C28.8752 19.2143 28.8752 19.3107 28.7788 19.4072C28.7788 19.5036 28.5859 19.5036 28.5859 19.6C28.5859 19.6965 28.5859 19.6965 28.5859 19.7929C28.5859 19.8893 28.4895 20.0822 28.2002 20.4679C27.9109 20.8536 27.8145 21.0465 27.8145 21.0465C27.8145 21.0465 27.6216 20.7572 27.6216 20.5643C27.5252 20.5643 27.2359 20.7572 27.2359 20.7572L26.5609 18.4429V18.25C26.5609 18.25 26.6574 18.1536 26.6574 18.0572C26.5609 18.0572 26.5609 17.9608 26.3681 17.8643C26.2716 17.7679 26.0788 17.575 25.8859 17.4786C25.8859 17.3822 25.7895 17.3822 25.6931 17.2858C25.5002 17.2858 25.4038 17.1893 25.4038 17.1893C25.4038 17.1893 25.5002 17.1893 25.5002 17.0929C25.4038 17.0929 25.3074 17.0929 25.1145 17.0929C24.9217 17.0929 24.8252 17.0929 24.7288 17.0929C24.6324 17.0929 24.4395 17.1893 24.4395 16.9965C24.3431 16.9965 24.2467 16.9965 24.1502 17.1893C24.0538 17.3822 23.9574 17.4786 23.7645 17.575C23.7645 17.6715 23.7645 17.7679 23.6681 17.8643C23.5717 17.9608 23.4752 18.0572 23.3788 18.25C23.1859 18.4429 23.1859 18.925 22.8966 19.2143C22.6074 19.5036 22.9931 18.3465 22.9931 18.3465L23.4752 17.0929L24.9216 15.6465L27.2359 15.4536L27.4288 16.6108L28.5859 16.9965L29.3574 18.0572Z" fill="#D3AE4D"/>
<path fill-rule="evenodd" clip-rule="evenodd" d="M29.7444 18.25L28.7801 16.9L28.1051 16.4179L27.623 15.55C27.623 15.55 27.1408 15.4536 26.8516 15.4536L26.948 15.55C27.0444 15.55 27.0444 15.6465 27.1409 15.6465C27.2373 15.8393 27.3337 16.0322 27.0444 16.4179C27.1409 16.4179 27.2373 16.5143 27.3337 16.4179C27.2373 16.5143 27.0444 16.8036 26.948 16.9965C26.948 17.1893 27.0444 17.1893 27.0444 17.1893C27.0444 17.1893 26.8516 17.3822 26.8516 17.7679C26.948 17.6715 27.0444 17.575 27.1409 17.4786C27.3337 17.2857 27.623 17.0929 27.8158 16.9965C27.8158 17.0929 27.8158 17.0929 27.8158 17.0929C27.8158 17.0929 28.2016 16.8036 28.4909 16.9C28.5873 16.9965 28.5873 17.1893 28.5873 17.1893C28.5873 17.1893 28.7801 17.0929 28.8766 17.2858C28.973 17.3822 29.1658 17.7679 29.2623 17.8643C29.2623 17.9608 29.4551 18.0572 29.5516 18.25C29.7444 18.5393 29.8409 18.7322 29.9373 19.0215C29.9373 18.925 29.9373 18.7322 30.1301 18.7322L29.7444 18.25Z" fill="#CAA13E"/>
<path fill-rule="evenodd" clip-rule="evenodd" d="M15.2772 22.2034C15.2772 22.2034 15.1808 22.0105 15.2772 21.7213C15.3737 21.432 15.4701 21.2391 15.4701 20.757C15.4701 20.2748 15.8558 19.6963 15.8558 19.6963L16.7237 19.3105L17.3022 19.5034L17.4951 20.3713L16.7237 20.757C16.7237 20.757 16.7237 20.9498 16.4344 21.0462C16.2415 21.2391 15.9522 21.3355 15.8558 21.432C15.8558 21.5284 15.7594 21.6248 15.7594 21.7213C15.7594 21.7213 15.5665 21.7213 15.3737 21.8177C15.2772 22.0105 15.2772 22.107 15.2772 22.2034Z" fill="#F4EFC8"/>
<path fill-rule="evenodd" clip-rule="evenodd" d="M17.0147 22.0106C17.0147 22.0106 16.9183 22.0106 16.9183 22.2035C16.8219 22.1071 16.7254 21.6249 16.7254 21.1428C16.7254 20.6606 16.7255 20.5642 16.8219 20.3713C16.9183 20.1785 17.4005 20.0821 17.304 19.7928C17.2076 19.5035 17.0147 19.4071 16.7254 19.5035C16.5326 19.5999 16.3397 19.9856 16.1469 20.2749C15.954 20.4678 15.7612 20.4678 15.7612 20.5642C15.6647 20.6606 15.7612 20.8535 15.7612 20.9499C15.7612 20.9499 15.6647 21.1428 15.5683 21.3356C15.279 21.7213 14.8933 22.2035 14.7969 22.6856C14.7969 22.3963 14.7969 22.3963 14.8933 22.1071V22.0106L15.1826 21.1428L15.3755 20.3713L15.7612 19.1178L16.4362 17.8642L17.1112 17.0928H17.7862L17.8826 18.1535L18.2683 20.0821L19.1362 21.1428L17.7862 22.0106H17.0147Z" fill="#EBCC73"/>
<path fill-rule="evenodd" clip-rule="evenodd" d="M17.5004 22.3963C17.5004 22.3963 17.404 22.3963 17.3076 22.3963C17.3076 22.3963 17.2111 22.3962 17.2111 22.2998L17.3076 22.2034C17.3076 22.2034 17.3076 22.2034 17.3076 22.107C17.3076 22.107 17.3076 22.107 17.2111 22.107C17.1147 22.107 17.1147 22.107 17.1147 22.107C17.1147 22.107 17.0183 22.107 17.0183 22.0105H17.1147C17.0183 22.0105 16.9219 21.9141 16.9219 21.9141C17.0183 21.9141 17.1147 21.7213 17.2111 21.7213C17.3076 21.7213 17.3076 21.7212 17.3076 21.6248C17.3076 21.6248 17.2112 21.5284 17.1147 21.5284C17.1147 21.5284 17.1147 21.432 17.1147 21.3355C17.0183 21.2391 17.1147 21.1427 17.1147 21.0462C17.1147 21.0462 17.2111 20.9498 17.2111 20.8534C17.2111 20.757 17.3076 20.757 17.3076 20.757C17.3076 20.757 17.404 20.6605 17.5004 20.6605C17.5969 20.6605 17.6933 20.5641 17.6933 20.6605C17.7897 20.6605 17.6933 20.757 17.6933 20.757C17.6933 20.757 17.8862 20.6605 18.079 20.757C18.2719 20.8534 18.6576 20.8534 18.6576 20.8534L18.8504 21.1427L17.8862 22.0105L17.5004 22.3963Z" fill="#E5C66B"/>
<path fill-rule="evenodd" clip-rule="evenodd" d="M18.8449 21.0462C18.8449 21.0462 18.5556 21.2391 18.4591 21.3355C18.4591 21.3355 18.5556 21.3355 18.5556 21.432C18.5556 21.432 18.3627 21.6248 18.1699 21.7213C18.0734 21.8177 17.977 22.0105 17.8806 22.107C17.8806 22.2034 17.4949 22.3963 17.3984 22.3963C17.5913 22.3963 18.0734 22.107 18.2663 22.107C18.2663 22.2034 18.2663 22.2998 18.3627 22.2998C18.4592 22.2998 18.7484 22.3963 19.1341 22.107C19.5199 21.9141 19.4234 21.7213 19.5199 21.6248C19.8091 21.432 19.9056 21.2391 20.0984 21.1427C20.2913 21.0463 20.3877 21.0462 20.3877 21.0462C20.3877 21.0462 20.3877 20.9498 20.4841 20.9498C20.4841 20.9498 20.7734 20.757 21.1591 20.6605C21.1591 20.6605 21.1592 20.757 21.2556 20.8534C21.352 20.8534 21.4484 20.5641 21.4484 20.5641L21.7377 19.7927V19.1177H21.5449L19.9056 19.7927L18.9413 20.8534L18.8449 21.0462Z" fill="#E6BD62"/>
<path fill-rule="evenodd" clip-rule="evenodd" d="M23.4808 17.4785C23.5772 17.4785 23.6737 17.382 23.7701 17.382C23.7701 17.4785 23.7701 17.5749 23.5772 17.7678C23.4808 17.9606 23.3844 17.9606 23.2879 18.2499C23.1915 18.4428 23.1915 18.8285 23.0951 18.9249C23.1915 18.9249 23.1915 18.9249 23.2879 18.9249C23.2879 18.9249 23.1915 19.0213 23.0951 19.1177C23.0951 19.2142 22.9987 19.407 22.8058 19.5999C22.6129 19.6963 22.3237 19.7927 22.0344 20.082C21.7451 20.3713 21.4558 20.757 21.3594 20.8535C21.4558 20.757 21.5522 20.4678 21.5522 20.2749C21.5522 20.082 21.5522 19.8892 21.5522 19.6963C21.5522 19.5035 21.5522 19.3106 21.8415 18.9249C22.0344 18.5392 22.4201 17.1892 22.4201 17.1892L23.2879 16.8999L23.4808 17.4785Z" fill="#B6933F"/>
<path fill-rule="evenodd" clip-rule="evenodd" d="M22.8946 16.9965C22.8946 16.9965 22.6054 17.3822 22.6054 17.6715C22.5089 17.9607 22.6054 17.9607 22.6054 18.1536C22.6054 18.25 22.6054 18.3465 22.6054 18.4429C22.7018 18.3465 22.7982 18.1536 22.9911 18.0572C23.1839 17.9608 23.3768 17.7679 23.5696 17.6715C23.6661 17.575 23.7625 17.2857 24.0518 17.1893C23.9554 17.1893 23.7625 17.0929 23.7625 17.0929C23.8589 16.9965 24.1482 16.8036 24.4375 16.6108C24.7268 16.4179 24.7268 16.3215 25.2089 16.1286C25.0161 16.1286 25.0161 16.1286 24.8232 16.1286C24.9196 16.0322 25.1125 15.9357 25.2089 15.7429C25.4018 15.55 25.1125 15.2607 25.1125 15.2607L23.6661 16.1286L22.8946 16.9965Z" fill="#C49937"/>
<path fill-rule="evenodd" clip-rule="evenodd" d="M19.0391 16.3216V16.0323L19.4248 15.3573L19.8105 14.2002V12.6573V11.693L19.9069 11.1145L20.0033 10.9216L20.0998 10.8252L20.4855 11.018L20.9676 11.693V12.9466L20.4855 14.9716L19.1355 16.4181L19.0391 16.3216Z" fill="#DFC068"/>
<path fill-rule="evenodd" clip-rule="evenodd" d="M20.1058 10.8251C20.1058 10.8251 19.913 10.8251 19.8165 11.6929C19.8165 12.5608 19.7201 13.0429 19.7201 13.5251C19.7201 14.0072 19.6237 14.2001 19.5272 14.4894C19.5272 14.7787 19.4308 15.0679 19.3344 15.3572C19.238 15.4537 19.1415 15.7429 18.8522 16.0322C18.563 16.3215 18.0808 16.5144 17.9844 16.5144C17.8879 16.5144 17.2129 16.6108 17.0201 16.7072C16.9237 16.7072 16.8272 16.8036 16.6344 16.9965C16.3451 17.2858 15.8629 17.8644 15.5737 18.4429C15.0915 19.4072 14.6094 22.1072 14.6094 22.1072L14.7058 21.9144C14.7058 21.9144 14.7058 21.6251 14.9951 21.2394C15.188 20.8537 15.188 20.3715 15.4772 19.5037C15.5737 19.2144 15.7665 18.8286 15.9594 18.4429C16.2487 17.8644 16.6344 17.3822 17.0201 17.0929C17.5987 16.7072 18.3701 16.6108 18.3701 16.6108L19.1415 16.1287C19.1415 16.1287 19.2379 15.8394 19.4308 15.5501C19.6237 15.1644 20.0094 14.6822 20.0094 14.1036C20.1058 13.1394 19.9129 12.5608 19.9129 11.9822C19.9129 11.4037 19.9129 10.9215 20.1058 10.8251Z" fill="#A88F33"/>
<path fill-rule="evenodd" clip-rule="evenodd" d="M20.0964 15.0678C20.0964 15.0678 20.3857 14.2964 20.5786 13.5249C20.5786 13.4285 20.675 13.2357 20.675 13.1392C20.7714 12.4642 20.7714 12.175 20.675 11.7892C20.5786 11.5 20.3857 11.3071 20.1929 11.1142C20.0964 10.9214 20 10.825 20 10.825C20 10.825 20.0964 10.7285 20.1929 10.7285C20.2893 10.7285 20.3857 10.7285 20.4821 10.825C20.5786 10.825 20.675 10.9214 20.7714 11.0178C20.9643 11.3071 21.1571 12.0785 21.1571 12.0785L21.35 13.1392L21.8321 14.4892L20.0964 15.0678Z" fill="#C99E3D"/>
<path fill-rule="evenodd" clip-rule="evenodd" d="M23.0879 14.2966C23.0879 14.2966 22.9915 14.2966 22.8951 14.2966V14.393L22.7987 14.4895C22.7022 14.4895 21.6415 14.4895 21.6415 14.4895C21.6415 14.4895 21.1594 14.3931 20.9665 13.7181C20.8701 13.2359 21.0629 12.6573 20.9665 12.2716C20.8701 11.6931 20.7737 11.5966 20.6772 11.4038C20.6772 11.2109 20.6772 11.2109 20.6772 11.018C20.5808 11.018 20.5808 11.018 20.4844 11.018C20.4844 10.9216 20.4844 10.9216 20.4844 10.8252C20.4844 10.8252 20.7737 10.8252 20.9665 11.1145C21.1594 11.3073 21.1594 11.4038 21.2558 11.4038C21.2558 11.4038 21.6415 11.693 21.7379 11.9823C21.8344 12.2716 22.1237 13.1395 22.2201 13.3323C22.2201 13.4288 22.3165 13.4288 22.4129 13.6216C22.6058 13.9109 22.8951 14.2002 23.0879 14.2966Z" fill="#B58634"/>
<path fill-rule="evenodd" clip-rule="evenodd" d="M21.3594 11.5C21.5522 11.7893 21.6487 12.0786 21.8415 12.3679C22.0344 12.7536 22.1308 13.0429 22.3237 13.2357C22.2272 12.9464 22.0344 12.2714 21.938 12.0786C21.7451 11.8857 21.4558 11.5964 21.3594 11.5Z" fill="#A88F33"/>
<path fill-rule="evenodd" clip-rule="evenodd" d="M19.5206 16.0322C19.5206 16.0322 19.2313 16.1287 18.7492 16.4179C18.5563 16.5144 18.4599 16.6108 18.267 16.6108C17.8813 16.8037 17.3992 16.9965 17.1099 17.0929C17.1099 17.0929 17.1099 17.1894 17.2063 17.2858C17.2063 17.2858 16.6278 17.6715 16.8206 18.9251C16.917 18.9251 17.0135 18.8287 17.1099 18.8287C17.1099 18.8287 17.1099 18.9251 17.2063 18.9251C17.2063 18.9251 17.3992 18.8287 17.4956 18.7322C17.4956 18.8287 17.3992 19.5037 17.8813 20.0822C17.9778 19.9858 18.1706 19.6965 18.1706 19.6965V19.6001C18.1706 19.6001 18.1706 19.2144 18.267 18.9251C18.3635 18.6358 18.6527 18.3465 18.6527 18.3465L19.8099 16.7072L19.5206 16.0322Z" fill="#E6C367"/>
<path fill-rule="evenodd" clip-rule="evenodd" d="M18.3647 18.4431C18.2683 18.4431 18.2683 18.5395 18.1719 18.5395C18.1719 18.4431 18.1719 18.2502 18.2683 17.9609C18.4612 17.6716 18.8469 17.2859 18.9433 16.9966C19.0397 16.8038 18.9433 16.3216 19.6183 15.7431C20.2933 15.1645 20.4862 14.9716 20.4862 14.9716L21.5469 14.3931L22.8969 14.8752L22.2219 17.3824L21.7397 18.5395L19.7147 18.1538L18.3647 18.4431Z" fill="#DCBA5A"/>
<path fill-rule="evenodd" clip-rule="evenodd" d="M19.1406 17.7679L19.4299 17.4787V17.2858C19.4299 17.2858 19.7192 17.1894 20.0085 16.9001C20.2978 16.6108 20.6835 16.0322 21.0692 16.0322C21.4549 16.0322 21.4549 16.8037 21.4549 16.9965C21.4549 17.1894 21.5513 17.6715 21.5513 17.9608C21.6478 18.2501 20.6835 19.2144 20.6835 19.2144L20.0085 19.6965L19.1406 17.7679Z" fill="#E9CE77"/>
<path fill-rule="evenodd" clip-rule="evenodd" d="M19.9062 20.3714C19.9062 20.3714 20.0991 20.0821 20.0027 19.9857C20.0991 19.7928 20.292 19.6 20.292 19.6C20.292 19.6 20.3884 19.3107 20.7741 18.925C21.1598 18.5392 21.3527 18.3464 21.4491 18.1535C21.4491 17.9607 21.5455 17.8642 21.5455 17.6714L21.642 17.7678C21.7384 17.7678 22.0277 18.0571 21.9313 18.5393C21.9313 19.0214 21.7384 19.2142 21.7384 19.2142C21.7384 19.2142 21.5455 19.4071 21.4491 19.5035C21.3527 19.6 21.2562 19.6964 21.0634 19.6964C21.0634 19.6964 21.0634 19.6964 21.1598 19.6964C21.1598 19.6964 20.967 19.6964 20.7741 19.7928C20.6777 19.8893 20.3884 20.275 20.292 20.3714C20.0991 20.275 19.9062 20.3714 19.9062 20.3714Z" fill="#CDAE50"/>
<path fill-rule="evenodd" clip-rule="evenodd" d="M28.975 15.068C28.6857 14.9715 28.3 14.8751 28.0107 14.8751C27.4322 14.8751 26.5643 14.8751 25.7929 14.8751C24.925 14.8751 24.0571 14.5858 22.9964 14.4894C22.8036 14.393 22.3214 13.9108 20.875 14.8751C20.9714 14.8751 21.9357 14.6823 22.225 15.068C22.6107 15.4537 22.5143 16.2251 22.4179 16.3215C22.3214 16.7073 22.0321 17.2858 21.9357 17.6715C21.8393 18.0573 21.8393 18.2501 21.7429 18.5394C21.6464 18.8287 21.4536 18.9251 21.55 19.2144C21.6464 19.118 21.7429 19.118 22.0321 18.6358C22.225 18.0573 22.225 17.768 22.6107 17.2858C22.9964 16.8037 23.6714 16.2251 23.8643 16.0323C24.1536 15.8394 26.0821 14.8751 28.1071 15.8394C28.6857 15.8394 28.975 15.068 28.975 15.068Z" fill="#D2A83E"/>
<path fill-rule="evenodd" clip-rule="evenodd" d="M21.6478 14.6824C21.6478 14.5859 21.5513 14.5859 21.5513 14.4895C21.5513 14.4895 21.0692 14.3931 20.7799 14.3931C20.3942 14.3931 20.0085 14.9716 19.8156 15.2609C19.6228 15.5502 19.4299 15.9359 19.1406 16.1288C19.1406 16.1288 19.1406 16.1288 19.1406 16.0323C19.1406 16.0323 19.1406 16.0324 19.1406 16.1288C19.1406 16.1288 19.5263 15.9359 20.0085 15.4538C20.5871 14.9716 20.9728 14.6823 21.1656 14.5859C21.4549 14.6823 21.5513 14.6824 21.6478 14.6824Z" fill="#C29637"/>
<path fill-rule="evenodd" clip-rule="evenodd" d="M30.9971 12.5605C30.9971 12.5605 30.9007 12.657 30.8042 12.7534C30.5149 13.0427 30.2257 13.332 29.9364 13.6213C29.6471 13.9105 29.3578 14.1034 29.0685 14.4891C28.7792 14.8748 28.3935 15.2605 28.2971 15.357C28.2007 15.4534 28.1042 15.6463 28.1042 15.7427C28.2007 15.8391 28.2971 15.9355 28.2971 16.032C28.3935 16.1284 28.3935 16.2248 28.3935 16.3213C28.3935 16.3213 28.6828 16.3213 28.8757 15.9356C29.1649 15.5498 29.4542 15.0677 29.4542 15.0677L30.0328 14.2963L30.4185 13.6213L30.8042 12.8498L30.9971 12.5605Z" fill="#AC8132"/>
<path fill-rule="evenodd" clip-rule="evenodd" d="M31.571 12.0786C31.571 12.0786 31.2817 12.3679 31.0888 12.4643C30.9924 12.6572 30.7031 13.0429 30.7031 13.0429H30.7996L31.3781 12.5608L31.571 12.175V12.0786Z" fill="#A88F33"/>
<path fill-rule="evenodd" clip-rule="evenodd" d="M31.4844 33.7748C31.4844 33.7748 31.4844 33.5819 31.5808 33.3891C31.6772 33.2926 32.063 33.0998 32.3522 32.3284C32.6415 31.5569 32.7379 31.4605 32.7379 31.4605C32.7379 31.4605 32.1594 31.9426 31.7737 32.0391C31.8701 31.8462 31.8701 31.7498 31.9665 31.6533L31.6772 31.5569C31.7737 31.4605 31.8701 31.1712 32.063 30.9783C32.3522 30.7855 32.8344 30.3998 33.3165 30.0141C33.7987 29.6283 34.4737 28.9533 34.5701 28.6641C34.6665 28.7605 34.6665 28.7605 34.6665 28.7605C34.6665 28.7605 34.2808 29.2426 34.0879 29.6283C33.8951 29.9176 33.8951 30.1105 33.8951 30.1105L34.2808 29.9176C34.2808 29.9176 34.3772 30.3033 33.8951 30.9783C34.0879 30.8819 34.1844 30.9784 34.2808 30.8819C34.088 30.9784 33.7987 31.1712 33.5094 31.6533C33.2201 32.1355 32.9308 32.7141 32.3522 33.0033C31.7737 33.4855 31.4844 33.7748 31.4844 33.7748Z" fill="#A67A2E"/>
<path fill-rule="evenodd" clip-rule="evenodd" d="M29.9357 15.3573C29.9357 15.3573 29.7429 15.8394 29.6464 16.2251C29.6464 16.3216 29.6464 16.418 29.6464 16.5144C29.6464 16.8037 29.6464 17.1894 29.55 17.3823C29.55 17.2859 29.55 17.2859 29.4536 17.2859C29.4536 17.3823 29.3571 17.768 29.2607 17.8644C29.2607 17.768 29.1643 17.4787 29.1643 17.093C29.1643 16.7073 29.1643 16.7073 29.1643 16.6109C29.1643 16.7073 29.0679 16.9001 29.0679 16.9966C29.0679 16.9001 28.9714 16.8037 28.9714 16.7073C28.9714 16.8037 28.875 16.8037 28.875 16.9001C28.875 16.9001 28.875 16.8037 28.875 16.6109C28.875 16.5144 28.875 16.3216 28.875 16.2251C28.875 16.1287 28.9714 15.8394 29.2607 15.5501C29.55 15.2609 29.8393 14.5859 29.9357 14.393C30.0321 14.2001 30.4179 13.4287 30.4179 13.4287H30.7071L30.3214 14.393C30.3214 14.393 30.0321 14.8751 29.9357 15.068C29.8393 15.2609 29.55 15.8394 29.4536 16.0323C29.55 15.9359 29.6464 15.8394 29.7429 15.743C29.7429 15.6466 29.9357 15.3573 29.9357 15.3573Z" fill="#8C6228"/>
<path fill-rule="evenodd" clip-rule="evenodd" d="M31.5774 11.9819C31.5774 12.0784 31.481 12.2712 31.3846 12.3676C31.1917 12.5605 30.806 12.8498 30.7095 13.0426C30.5167 13.2355 30.2274 13.8141 30.3238 14.4891C30.4203 14.2962 30.5167 14.0069 30.7095 13.7177C30.9024 13.4284 31.2881 13.0427 31.3846 12.7534C31.481 12.4641 31.5774 12.1748 31.5774 12.1748L31.6738 12.0784L31.5774 11.9819Z" fill="#CBA94C"/>
<path fill-rule="evenodd" clip-rule="evenodd" d="M37.0728 30.1108C37.0728 30.1108 36.9763 29.8215 36.9763 29.5322C36.9763 29.2429 37.0728 29.2429 36.9763 28.8572C36.8799 28.6643 36.7835 28.6644 36.7835 28.6644C36.7835 28.6644 36.7835 28.3751 36.7835 28.1822C36.7835 27.9894 36.7835 27.7965 36.7835 27.7001C36.7835 27.7001 36.6871 27.6036 36.6871 27.4108C36.5906 27.2179 36.5906 27.1215 36.5906 27.0251C36.5906 26.9286 36.4942 26.9286 36.4942 26.8322C36.4942 26.7358 36.5906 26.6393 36.5906 26.6393C36.5906 26.5429 36.4942 26.6393 36.4942 26.6393C36.4942 26.6393 36.5906 26.4465 36.4942 26.3501L36.3978 26.4465C36.3978 26.4465 36.3013 26.0608 36.3013 25.8679C36.3013 25.6751 36.2049 25.4822 36.2049 25.4822C36.2049 25.3858 35.8192 24.3251 35.7228 24.1322C35.6263 23.9394 35.6263 23.6501 35.5299 23.4572C35.5299 23.3608 35.5299 23.0715 35.4335 23.0715V23.2643C35.4335 23.2643 35.3371 22.7822 35.3371 22.6858C35.3371 22.5894 35.2406 22.3965 35.1442 22.2036C35.1442 22.0108 35.0478 21.5286 35.0478 21.2394C35.0478 20.9501 34.9513 20.7572 34.9513 20.6608C34.9513 20.4679 34.9513 20.2751 34.9513 20.0822C34.8549 19.6965 34.7585 19.3108 34.6621 19.1179C34.4692 18.6358 33.9871 17.4786 33.8906 17.1893C33.8906 17.0929 33.9871 17.1893 33.9871 17.1893C33.9871 17.1893 34.1799 17.7679 34.3728 18.2501C34.5656 18.7322 34.6621 19.1179 34.7585 19.1179C34.7585 19.1179 35.0478 19.6001 35.1442 20.3715C35.2406 21.1429 35.3371 21.8179 35.3371 22.2036C35.3371 22.3965 35.4335 22.6858 35.4335 22.8786C35.5299 23.1679 35.6263 23.3608 35.8192 23.7465C35.9156 24.0358 36.0121 24.3251 36.1085 24.6144C36.2049 24.9036 36.2049 25.1929 36.2049 25.2894C36.2049 25.3858 36.3013 25.6751 36.3978 26.0608C36.4942 26.4465 36.6871 26.9286 36.7835 27.2179C36.9763 27.7965 37.0728 28.2786 37.1692 28.5679C36.9763 28.8572 37.1692 29.8215 37.0728 30.1108Z" fill="#A88F33"/>
<path fill-rule="evenodd" clip-rule="evenodd" d="M31.5732 11.9819C31.5732 11.9819 31.5732 11.9819 31.5732 12.0784C31.5732 12.1748 31.5732 12.2712 31.5732 12.2712C31.5732 12.3677 31.5732 12.4641 31.5732 12.4641C31.5732 12.5605 31.5732 12.7534 31.3804 13.1391C31.2839 13.2355 31.2839 13.3319 31.2839 13.4284C31.1875 13.6212 31.1875 13.6212 31.1875 13.6212C31.2839 13.5248 31.6696 13.3319 31.7661 13.4284C31.6696 13.5248 31.4768 13.6212 31.3804 13.8141C31.3804 13.8141 31.4768 13.8141 31.6696 13.8141C31.9589 13.8141 32.3446 13.6212 32.6339 13.7177C32.9232 13.7177 32.8268 13.3319 32.8268 13.3319L32.4411 12.4641L31.7661 11.9819H31.5732Z" fill="#BE9C44"/>
<path fill-rule="evenodd" clip-rule="evenodd" d="M33.4129 18.1538C33.4129 18.1538 33.1237 17.8645 32.9308 16.7074C32.8344 15.6467 32.8344 14.0074 32.8344 14.0074L32.5451 13.3324C32.5451 13.3324 32.4487 12.9467 32.3522 12.7538C32.2558 12.561 31.9665 12.3681 31.8701 12.1752C31.7737 12.0788 31.5808 11.886 31.4844 11.886C31.4844 11.7895 31.6772 11.4038 32.4487 11.4038C33.1237 11.4038 33.4129 11.7895 33.4129 11.886C33.5094 11.9824 33.7987 12.6574 33.8951 13.8145C33.9915 14.9717 33.9915 15.0681 33.9915 15.4538C33.9915 15.6467 33.8951 16.2252 33.7987 16.7074C33.7987 17.3824 33.7022 17.9609 33.4129 18.1538Z" fill="#A17C34"/>
<path fill-rule="evenodd" clip-rule="evenodd" d="M32.4402 19.1176C32.5366 19.1176 32.633 19.1177 32.7295 19.0212C32.8259 19.0212 33.2116 19.0212 33.5009 18.7319C33.5009 18.8284 33.5973 19.0212 33.4045 19.2141C33.5009 19.1176 33.5973 19.1176 33.5973 19.1176C33.5973 19.2141 33.6937 19.5034 33.308 20.2748C33.4045 20.1784 33.5009 20.1784 33.6937 20.1784C33.6937 20.2748 33.7902 20.7569 33.5973 21.0462C33.5009 21.2391 33.2116 21.1426 33.2116 21.1426V21.0462C33.2116 20.9498 33.2116 20.8534 33.2116 20.8534C33.1152 20.8534 33.0187 20.7569 32.9223 20.6605C32.7295 20.4676 32.3438 20.0819 32.3438 19.7927C32.3438 19.5034 32.633 19.4069 32.633 19.4069C32.633 19.4069 32.633 19.4069 32.5366 19.3105C32.5366 19.2141 32.5366 19.1176 32.4402 19.1176Z" fill="#8C6228"/>
<path fill-rule="evenodd" clip-rule="evenodd" d="M30.323 15.6463C30.2266 15.6463 30.2266 15.5499 30.2266 15.4535C30.2266 15.3571 30.323 15.357 30.323 15.2606C30.323 15.357 30.2266 15.4535 30.2266 15.4535C30.2266 15.4535 30.323 15.2606 30.5159 15.1642C30.6123 15.0678 30.7087 15.0678 30.8051 14.9713C30.9016 14.8749 30.8051 14.8749 30.9016 14.8749C30.9016 14.8749 30.998 14.7785 31.2873 14.4892L31.3837 14.3928C31.3837 14.3928 31.5766 14.2963 31.673 14.2963C31.7694 14.1999 31.9623 14.1035 32.0587 14.1035C32.2516 14.007 32.4444 14.007 32.5409 13.9106C32.6373 13.9106 32.6373 13.7178 32.6373 13.5249C32.7337 13.5249 33.2159 13.9106 33.4087 14.5856C33.5051 15.0678 33.3123 15.8392 33.2159 16.2249C33.1194 16.6106 33.1194 16.8999 32.9266 16.9963C32.7337 17.1892 32.2516 17.5749 32.0587 17.6713C31.9623 17.7678 31.5766 18.1535 31.5766 18.3463C31.5766 18.5392 31.7694 18.6356 31.8659 18.6356C31.8659 18.6356 31.8659 18.732 31.9623 18.732C32.0587 18.732 32.0587 18.6356 32.1551 18.6356C32.1551 18.6356 32.1551 18.6356 32.2516 18.6356C32.2516 18.6356 32.2516 18.9249 31.673 18.9249H31.5766C31.673 18.9249 31.673 18.9249 31.7694 18.8285C31.673 18.8285 31.4801 18.8285 31.3837 18.8285C31.3837 18.8285 31.4801 18.732 31.4801 18.6356C31.3837 18.6356 31.3837 18.7321 31.2873 18.8285C31.1909 18.9249 31.1909 18.9249 31.0944 19.0213C31.0944 18.9249 31.0944 18.732 31.1908 18.5392C31.1908 18.5392 31.0944 18.6356 30.998 18.6356C30.998 18.5392 30.998 18.4428 30.998 18.3463C30.998 18.2499 31.1908 17.9606 31.1908 17.9606L32.0587 16.4178L32.2516 15.2606L30.323 15.6463Z" fill="#92723A"/>
<path fill-rule="evenodd" clip-rule="evenodd" d="M30.3259 15.7427C30.3259 15.8391 30.3259 15.9355 30.3259 15.9355C30.3259 16.032 30.2295 16.0319 30.2295 16.0319C30.2295 16.1284 30.133 16.2248 30.133 16.2248C30.133 16.2248 30.133 16.5141 30.0366 16.7069C30.0366 16.8034 29.9402 16.8998 29.9402 16.8998C29.8438 16.9962 29.8438 17.0927 29.8438 17.1891C29.8438 17.2855 29.8438 17.5748 29.8438 17.5748L29.9402 17.4784C29.9402 17.5748 29.8438 17.5748 29.8438 17.6712C29.8438 17.6712 29.9402 17.5748 30.133 17.4784C30.3259 17.2855 30.7116 16.9962 31.0973 16.7069C31.0009 16.7069 30.9045 16.707 30.808 16.8034C30.9045 16.707 31.483 16.032 31.7723 15.9355V15.8391H31.483L30.9045 15.9355L30.808 15.5498L30.3259 15.7427Z" fill="#B18E3E"/>
<path fill-rule="evenodd" clip-rule="evenodd" d="M31.1908 18.1533C31.1908 18.1533 31.0944 18.2498 31.0944 18.4426C30.998 18.3462 30.998 18.3462 30.998 18.2498C30.9016 18.0569 30.7087 17.864 30.4194 17.9605C30.4194 17.864 30.4194 17.7676 30.4194 17.6712C30.5159 17.6712 30.7087 17.4783 30.8051 17.2855C30.9016 17.0926 31.0944 16.9962 31.0944 16.7069C31.1909 16.7069 31.2873 16.6105 31.3837 16.514C31.5766 16.4176 31.7694 16.2248 31.7694 16.0319C31.673 16.0319 31.4801 16.1283 31.2873 16.1283C31.3837 16.1283 31.5766 16.0319 31.4801 15.839C31.4801 15.839 31.4801 15.839 31.3837 15.839H31.2873H31.1908C31.1908 15.839 30.998 15.9355 30.998 16.0319V15.9355C30.998 15.9355 30.9016 15.9355 30.8051 16.0319C30.6123 16.1283 30.4194 16.2248 30.2266 16.3212V16.2248V16.1283C30.323 16.0319 30.323 15.839 30.4194 15.7426C30.5159 15.6462 30.5159 15.4533 30.5159 15.4533L30.9016 15.2605L32.0587 14.9712H32.8301L32.7337 15.4533L32.2516 16.4176L31.8659 17.2855L31.3837 17.7676L31.1908 18.1533Z" fill="#543E26"/>
<path fill-rule="evenodd" clip-rule="evenodd" d="M33.1194 15.9357C33.1194 15.9357 32.6373 16.5143 32.5409 16.6107C32.6373 16.4178 33.1194 15.3571 33.3123 15.0678C33.3123 15.0678 33.2159 15.0678 33.3123 14.4893C33.2159 14.7785 33.1194 14.875 33.1194 14.9714C33.023 15.0678 33.023 14.9714 32.9266 14.9714C32.9266 14.9714 32.9266 14.9714 32.9266 14.875C32.9266 14.875 32.5409 14.875 32.2516 14.875C31.9623 14.875 31.4801 14.9714 31.1908 15.1643C30.998 15.2607 30.8051 15.2607 30.7087 15.3571C30.6123 15.4535 30.6123 15.4535 30.5159 15.55L30.323 15.6464C30.323 15.7428 30.2266 15.7428 30.2266 15.7428C30.2266 15.7428 30.323 15.6464 30.4194 15.6464C30.6123 15.55 30.8051 15.4535 30.9016 15.3571C31.2873 15.1643 31.3837 15.2607 31.5766 15.1643C31.7694 15.1643 32.0587 15.0678 32.1551 15.0678C32.348 15.0678 32.6373 15.0678 32.7337 15.0678C32.7337 15.0678 32.6373 15.1643 32.7337 15.2607C32.7337 15.2607 32.7337 15.3571 32.6373 15.4536C32.5408 15.6464 32.4444 16.0321 32.348 16.225C32.2516 16.5143 32.0587 16.7071 32.0587 16.8035C31.9623 16.9 31.8658 17.2857 31.673 17.4785C31.4801 17.6714 31.4801 17.7678 31.3837 17.8643C31.2873 17.9607 30.998 18.1535 30.998 18.25C31.0944 18.25 31.4801 18.0571 31.673 17.7678C31.9623 17.4785 31.9623 17.2857 32.2516 17.0928C32.4444 16.9 32.6373 16.6107 32.7337 16.4178C33.023 16.1286 33.023 16.1286 33.1194 15.9357Z" fill="#806031"/>
<path fill-rule="evenodd" clip-rule="evenodd" d="M23.1906 20.1785C23.1906 20.1785 23.0942 20.4677 22.9978 20.5642C22.9013 20.6606 22.6121 20.757 22.6121 20.9499C22.6121 21.1428 22.8049 21.2392 22.8049 21.2392C22.8049 21.2392 22.6121 21.5285 22.6121 21.6249C22.6121 21.8178 22.6121 21.8177 22.6121 22.0106C22.6121 22.0106 22.6121 22.0106 22.5156 22.107C22.5156 22.107 22.5156 22.2999 22.7085 22.3963C22.8049 22.4928 22.9978 22.5892 22.9978 22.5892C22.9978 22.5892 22.9978 22.5892 22.9978 22.6856C22.9978 22.6856 23.0942 22.3963 23.1906 22.2035C23.2871 22.0106 23.2871 22.0106 23.3835 21.7213C23.3835 21.432 23.6728 20.8535 23.6728 20.8535L23.8656 20.3713L23.5763 20.082L23.1906 20.1785Z" fill="#B6903C"/>
<path fill-rule="evenodd" clip-rule="evenodd" d="M23.7687 20.5645C23.6723 20.6609 23.6723 20.6609 23.5759 20.7573C23.4795 20.8538 23.383 20.9502 23.2866 21.0466C23.1902 21.0466 23.0938 21.0466 23.0938 21.2395C23.0938 21.3359 23.1902 21.4323 23.2866 21.5287C23.383 21.6252 23.383 21.7216 23.383 21.818C23.383 21.818 23.4795 21.818 23.5759 21.6252C23.6723 21.4323 24.1545 20.5645 24.1545 20.5645H23.7687Z" fill="#685026"/>
<path fill-rule="evenodd" clip-rule="evenodd" d="M25.6917 18.5393C25.6917 18.5393 25.6917 18.4428 25.6917 18.3464C25.6917 18.25 25.4025 18.25 25.306 18.1535C25.2096 18.0571 25.0167 17.9607 24.9203 18.0571C24.9203 18.0571 25.0167 17.8643 24.9203 17.8643C24.8239 17.8643 24.631 17.9607 24.5346 17.9607C24.4382 17.9607 24.3417 18.0571 24.3417 18.0571L24.2453 18.1535C24.2453 18.1535 24.2453 18.0571 24.1489 18.1535C24.1489 18.1535 23.8596 18.3464 23.8596 18.4428C23.8596 18.5392 23.7632 18.8285 23.4739 19.0214C23.1846 19.3107 23.0882 19.5035 23.1846 19.6C23.281 19.6964 23.281 19.6 23.281 19.6964C23.281 19.7928 23.281 19.8893 23.281 19.9857C23.281 20.0821 23.1846 20.275 23.281 20.275C23.4739 20.3714 23.6667 20.1785 23.6667 20.275C23.7632 20.3714 23.6667 20.6607 23.8596 20.6607C24.0525 20.7571 24.2453 20.6607 24.2453 20.6607L24.9203 20.275L25.5953 19.8892L25.981 19.2143L25.6917 18.5393Z" fill="#D4B968"/>
<path fill-rule="evenodd" clip-rule="evenodd" d="M25.0183 20.1786C25.0183 20.1786 24.9219 19.9857 25.0183 19.7928C25.2112 19.6 25.404 19.6 25.5005 19.5036C25.5005 19.5036 25.5004 19.5036 25.404 19.5036C25.5004 19.4071 25.5005 19.3107 25.5969 19.3107C25.5969 19.3107 25.5004 19.2143 25.404 19.2143C25.3076 19.2143 25.2112 19.3107 25.0183 19.3107C24.9219 19.3107 24.9219 19.2143 24.9219 19.2143C24.9219 19.2143 25.1147 19.2143 25.1147 19.1178C25.1147 19.0214 25.0183 19.0214 25.0183 19.0214C25.0183 19.0214 25.404 18.8286 25.5005 18.7321C25.5969 18.6357 25.5969 18.5393 25.5969 18.5393C25.5969 18.5393 25.8862 18.4428 25.9826 18.4428C26.079 18.5393 25.9826 18.6357 25.9826 18.6357C25.9826 18.6357 26.2719 18.3464 26.4647 18.1535C26.6576 18.1535 26.6576 18.0571 26.754 18.0571C26.8505 18.0571 27.1397 18.25 27.1397 18.6357C27.1397 18.8285 27.2362 19.0214 27.1397 19.4071C27.1397 19.6 27.1397 20.0821 27.2362 20.3714C27.2362 20.5643 27.429 20.5643 27.429 20.5643C27.429 20.6607 27.3326 20.6607 27.3326 20.7571C27.2362 20.8536 27.2362 21.0464 27.2362 21.0464C27.2362 21.1428 27.2362 21.1428 27.2362 21.2393C27.2362 21.2393 27.1397 21.3357 27.1397 21.4321C27.1397 21.5286 27.0433 21.5285 26.9469 21.5285C26.8505 21.5285 26.9469 21.5285 26.8504 21.5285C26.754 21.5285 26.754 21.5285 26.6576 21.5285C26.5612 21.5285 26.5612 21.5286 26.5612 21.3357C26.5612 21.1428 25.8862 20.7571 25.8862 20.7571L25.0183 20.1786Z" fill="#CCA849"/>
<path fill-rule="evenodd" clip-rule="evenodd" d="M23.6719 21.9142C23.6719 21.9142 23.9611 22.2035 24.9254 22.2035C25.4076 22.2035 25.6004 22.2035 25.6969 22.1071C25.7933 22.1071 26.179 21.9142 26.6612 21.4321C27.0469 20.95 26.9504 20.8535 26.9504 20.8535H26.7576L26.0826 20.95L23.9611 21.8178L23.6719 21.9142Z" fill="#585136"/>
<path fill-rule="evenodd" clip-rule="evenodd" d="M24.4382 22.0108C24.4382 22.0108 23.5703 22.2037 23.5703 21.6251C23.5703 21.0466 24.1489 20.468 24.2453 20.3716C24.3417 20.2751 24.7275 20.1787 24.7275 20.1787H25.4989L25.6917 20.5644L25.5953 21.4323L24.4382 22.0108Z" fill="#252211"/>
<path fill-rule="evenodd" clip-rule="evenodd" d="M25.3083 20.3716C25.3083 20.3716 25.1154 20.1787 24.7297 20.468C24.344 20.6609 24.0547 21.143 24.0547 21.5287C24.0547 21.9144 24.344 22.1073 24.8261 22.2037C25.2118 22.2037 25.4047 22.2037 25.5011 22.1073L25.3083 21.9144V20.3716Z" fill="#C3B378"/>
<path fill-rule="evenodd" clip-rule="evenodd" d="M25.1115 20.4678C25.1115 20.4678 25.1115 20.4678 24.9186 20.4678C24.8222 20.5642 24.6293 20.6606 24.5329 20.7571C24.4365 20.8535 24.4365 20.8535 24.3401 20.8535C24.1472 21.0463 24.0508 21.4321 24.1472 21.5285C24.2436 21.7213 24.5329 21.9142 25.2079 21.7213L25.1115 20.4678Z" fill="#E6D89C"/>
<path fill-rule="evenodd" clip-rule="evenodd" d="M24.9223 20.7572C24.9223 20.7572 24.8259 20.9501 24.8259 21.2394C24.8259 21.5286 25.0188 21.9144 25.5973 22.0108C26.0795 22.0108 26.3687 21.3358 26.658 21.1429C26.9473 20.9501 27.0438 20.9501 27.0438 20.9501C27.0438 20.9501 26.7545 20.6608 26.1759 20.3715C25.5009 19.9858 24.8259 19.9858 24.3438 20.4679C24.5366 20.4679 25.1152 20.2751 25.1152 20.2751L25.4045 20.3715L24.9223 20.7572Z" fill="#252211"/>
<path fill-rule="evenodd" clip-rule="evenodd" d="M25.7866 21.1427V21.0463C25.883 21.0463 25.883 21.0463 25.883 21.1427C25.883 21.2391 25.9795 21.2391 25.883 21.2391C25.883 21.2391 25.7866 21.2391 25.7866 21.1427ZM25.5938 20.757C25.5938 20.6606 25.5937 20.5641 25.6902 20.6605C25.7866 20.6605 25.7866 20.757 25.7866 20.757C25.7866 20.757 25.6902 20.8534 25.5938 20.757C25.6902 20.8534 25.5938 20.8534 25.5938 20.757Z" fill="#6F674D"/>
<path fill-rule="evenodd" clip-rule="evenodd" d="M18.2656 20.9499C18.2656 20.9499 18.4585 21.1428 18.7478 21.1428C19.0371 21.1428 19.3263 20.8535 19.4228 20.757C19.5192 20.6606 19.6156 20.5642 19.7121 20.4678C19.8085 20.3713 19.8085 20.3713 19.9049 20.2749C19.9049 20.1785 20.0013 20.082 20.0013 20.082C19.9049 20.082 19.8085 20.1785 19.8085 20.2749C19.7121 20.3713 19.5192 20.4678 19.4228 20.4678C19.3263 20.4678 18.5549 20.8535 18.5549 20.8535L18.2656 20.9499Z" fill="#AC924C"/>
<path fill-rule="evenodd" clip-rule="evenodd" d="M18.5625 18.9248C18.5625 18.9248 18.6589 18.8284 18.9482 18.8284C19.1411 18.7319 19.6232 18.7319 19.6232 18.7319L20.0089 18.9248L20.2018 19.5034L19.9125 20.0819L19.5268 20.2748L19.1411 19.5998L18.5625 18.9248Z" fill="#9F8E57"/>
<path fill-rule="evenodd" clip-rule="evenodd" d="M18.0808 19.4071L17.9844 19.5035C17.9844 19.5035 17.9844 19.4071 18.0808 19.2142C18.0808 19.0214 18.2737 18.5392 18.4665 18.3464C18.6594 18.0571 18.6594 18.0571 18.6594 18.0571C18.6594 18.0571 18.6594 18.0571 18.563 18.0571C18.563 18.0571 18.5629 18.0571 18.4665 18.0571C18.4665 17.9607 18.6594 17.7678 18.8522 17.6714C19.0451 17.5749 19.1415 17.575 19.2379 17.575C19.4308 17.6714 19.4308 17.6714 19.6237 17.6714C19.7201 17.6714 19.9129 17.4785 19.9129 17.4785C19.9129 17.4785 19.913 17.5749 19.8165 17.7678C19.7201 17.9607 19.3344 18.3464 19.3344 18.3464L18.4665 18.9249L18.0808 19.4071Z" fill="#EAC970"/>
<path fill-rule="evenodd" clip-rule="evenodd" d="M18.6562 18.8283C18.6562 18.8283 19.2348 18.9247 19.4277 18.7319C19.4277 18.7319 19.4277 18.7319 19.5241 18.7319H19.6205C19.6205 18.7319 19.6205 18.7319 19.717 18.7319H19.8134V18.8283H19.717C19.717 18.9247 19.717 18.9247 19.717 19.0212C19.8134 19.1176 19.9098 19.214 20.0063 19.214C20.0063 19.214 20.1027 19.4069 19.717 19.889C19.717 19.9855 19.6205 19.9854 19.5241 20.0819C19.5241 20.1783 19.5241 20.1783 19.4277 20.2747C19.4277 20.2747 20.0063 20.0819 20.1991 19.5033C20.392 19.0212 20.392 18.4426 20.392 18.0569C20.392 17.9605 20.392 17.864 20.2955 17.7676C20.1991 17.5747 20.0063 17.6712 19.9098 17.7676C19.8134 17.864 19.5241 18.2497 19.2348 18.4426C18.9455 18.7319 18.9455 18.7319 18.6562 18.8283Z" fill="#D7BC6B"/>
<path fill-rule="evenodd" clip-rule="evenodd" d="M17.9777 19.6001C17.9777 19.6001 17.8812 19.6965 17.7848 19.8894C17.6884 20.1787 17.8812 20.468 17.8812 20.5644C17.9777 20.6608 18.0741 20.9501 18.3634 20.9501C18.4598 20.9501 18.5562 20.9501 18.5562 20.9501C18.6527 20.8537 18.7491 20.8537 18.8455 20.7573C18.942 20.6608 19.1348 20.5644 19.0384 20.5644L18.1705 19.8894L17.8812 19.6001H17.9777Z" fill="#585136"/>
<path fill-rule="evenodd" clip-rule="evenodd" d="M18.7502 20.6606C18.7502 20.6606 18.9431 20.6606 19.0395 20.5642C19.1359 20.4677 18.4609 19.8892 18.4609 19.8892V20.5642L18.7502 20.6606Z" fill="#453A25"/>
<path fill-rule="evenodd" clip-rule="evenodd" d="M18.0808 19.5036L17.9844 19.6965C17.9844 19.7929 17.9844 20.2751 18.0808 20.3715C18.0808 20.4679 18.2737 20.7572 18.563 20.7572C18.6594 20.7572 18.9487 20.6608 18.9487 20.6608C18.9487 20.6608 18.7558 20.5644 18.6594 20.4679C18.6594 20.3715 18.6594 20.2751 18.563 20.1786C18.563 20.0822 18.563 19.9858 18.563 19.9858C18.6594 19.8894 18.6594 19.6965 18.6594 19.6965L18.9487 19.2144H18.563L18.1772 19.5036H18.0808Z" fill="#84754B"/>
<path fill-rule="evenodd" clip-rule="evenodd" d="M17.8828 19.6962C17.8828 19.6962 18.1721 19.3105 18.365 19.2141C18.6542 19.1176 18.7507 19.2141 18.7507 19.2141L18.6542 19.5998L18.4614 19.7927V19.8891C18.4614 19.8891 18.4614 20.1784 18.6542 20.3712C18.8471 20.5641 19.0399 20.5641 19.1364 20.5641C19.2328 20.5641 19.5221 20.4676 19.6185 20.1784C19.7149 19.8891 19.8114 19.5034 19.6185 19.1176C19.4257 18.7319 19.0399 18.7319 18.9435 18.7319C18.7507 18.8284 18.1721 18.9248 17.8828 19.6962Z" fill="#252211"/>
<path fill-rule="evenodd" clip-rule="evenodd" d="M24.8212 20.8535C24.7248 20.8535 24.8212 20.5642 24.9176 20.4678C25.014 20.3713 25.1105 20.2749 25.3998 20.2749C25.4962 20.2749 25.5926 20.2749 25.5926 20.3713C25.5926 20.4678 25.3998 20.6606 25.3033 20.757C25.1105 20.8535 25.0141 20.9499 24.8212 20.8535Z" fill="#F7F7E7"/>
<path fill-rule="evenodd" clip-rule="evenodd" d="M19.4272 19.3105C19.5237 19.3105 19.6201 19.407 19.6201 19.407C19.6201 19.5034 19.6201 19.6963 19.4272 19.6963C19.3308 19.6963 19.2344 19.5998 19.2344 19.5034V19.407C19.2344 19.407 19.2344 19.3105 19.4272 19.3105Z" fill="#F8F6DE"/>
<path fill-rule="evenodd" clip-rule="evenodd" d="M18.3701 19.4072C18.3701 19.4072 18.1772 19.5037 18.0808 19.6965C17.9844 19.7929 17.9844 19.9858 17.9844 20.0822C17.9844 20.1787 18.0808 20.2751 18.0808 20.3715C18.0808 20.4679 18.1772 20.4679 18.2737 20.4679C18.2737 20.4679 18.3701 20.3715 18.3701 20.2751C18.3701 20.1787 18.3701 19.8894 18.4665 19.6965C18.5629 19.6001 18.3701 19.4072 18.3701 19.4072Z" fill="#D4C38B"/>
<path fill-rule="evenodd" clip-rule="evenodd" d="M18.3632 19.4074C18.2667 19.5038 18.4596 19.5038 18.4596 19.6002C18.4596 19.6966 18.4596 19.7931 18.4596 19.7931C18.4596 19.7931 18.556 19.7931 18.556 19.6966C18.6525 19.6002 18.6524 19.5038 18.7489 19.5038H18.8453C18.9417 19.5038 18.9417 19.5038 18.9417 19.4074C18.9417 19.3109 18.8453 19.2145 18.7489 19.3109C18.7489 19.2145 18.7489 19.2145 18.7489 19.1181C18.6524 19.0216 18.4596 19.1181 18.4596 19.2145C18.4596 19.3109 18.3632 19.4074 18.3632 19.4074Z" fill="#E2D59D"/>
<path fill-rule="evenodd" clip-rule="evenodd" d="M22.7045 25.0964L23.0902 25L23.1866 25.0964C23.1866 25.0964 23.283 25.2893 23.3795 25.2893C23.3795 25.3857 23.1866 25.4821 23.283 25.4821C23.3795 25.4821 23.3795 25.5786 23.3795 25.5786C23.3795 25.5786 22.9937 26.1571 23.7652 26.7357C23.5723 26.8321 23.3795 26.9286 23.283 26.9286C23.3795 26.9286 23.5723 27.025 23.5723 27.025C23.6687 27.1214 23.6688 27.1214 23.6688 27.1214C23.7652 27.1214 23.7652 27.2179 23.7652 27.2179C23.7652 27.2179 23.5723 27.1214 23.5723 27.2179C23.5723 27.3143 22.8973 27.2179 22.8973 27.2179L21.8366 27.4107C21.8366 27.4107 21.8366 27.3143 21.7402 27.2179C21.6438 27.1214 21.4509 27.2179 21.258 27.1214C21.0652 26.9286 21.0652 26.7357 20.9688 26.6393C21.0652 26.6393 21.1616 26.5429 21.5473 26.4464C21.5473 26.4464 21.4509 26.35 21.5473 26.2536C21.5473 26.1571 21.7402 26.0607 21.6437 25.9643C21.7402 25.9643 21.7402 25.9643 21.8366 25.7714C21.933 25.5786 22.0295 25.5786 22.2223 25.4821C22.3188 25.4821 22.4152 25.4821 22.608 25.2893C22.7045 25.1929 22.7045 25 22.7045 25C22.7045 25 22.7045 25.2893 22.7045 25.0964Z" fill="#CBAC5A"/>
<path fill-rule="evenodd" clip-rule="evenodd" d="M21.5477 25.1926C21.5477 25.1926 21.5477 25.1926 21.7406 25.1926C21.9334 25.1926 22.8013 25.0962 23.0906 25.0962C23.3799 25.0962 24.2477 25.0962 24.7299 25.1926C25.212 25.289 25.5977 25.3855 25.7906 25.4819C25.9834 25.5783 26.0799 25.5783 26.0799 25.5783C26.0799 25.5783 25.9834 25.6748 25.9834 25.5783C25.9834 25.5783 25.212 25.3855 25.0191 25.289C24.8263 25.289 24.0549 25.0962 23.5727 25.0962C23.187 25.0962 22.9942 25.0962 22.7049 25.0962C22.4156 25.0962 21.837 25.1926 21.6441 25.1926C21.4513 25.1926 21.4513 25.1926 21.5477 25.1926Z" fill="#D6BC6F"/>
<path fill-rule="evenodd" clip-rule="evenodd" d="M23.6667 27.3145C23.6667 27.3145 24.2453 27.6038 24.4382 27.9895C24.631 28.2788 24.3417 28.3752 24.3417 28.3752C24.3417 28.3752 24.631 28.3752 24.631 28.568C24.631 28.6645 24.0525 28.9537 23.7632 29.1466C23.3775 29.3395 23.3775 29.3395 23.281 29.3395C23.0882 29.3395 22.606 29.243 22.5096 29.4359C22.4132 29.5323 22.4132 29.7252 22.5096 29.7252H22.7989C22.7989 29.7252 22.7989 29.8216 22.3167 29.8216C21.8346 29.8216 21.7382 29.8216 21.7382 29.918C21.7382 29.918 21.8346 29.918 22.0274 30.0145C22.2203 30.0145 22.5096 30.1109 22.5096 30.1109C22.5096 30.1109 22.4132 30.2073 22.1239 30.3037C21.8346 30.4002 21.3525 30.4002 21.256 30.4966C21.3525 30.4966 21.4489 30.593 21.4489 30.593C21.3525 30.593 21.1596 30.6895 21.1596 30.6895L21.256 30.7859C21.256 30.7859 21.0632 31.0752 20.8703 31.1716C20.7739 31.268 20.0025 31.5573 19.7132 31.5573C19.0382 31.3645 18.9417 30.6895 18.8453 30.593C18.556 30.4966 18.4596 30.6895 18.2667 30.593C18.3632 30.4966 18.4596 30.4966 18.556 30.4002C18.4596 30.3038 17.881 30.0145 17.881 30.0145C17.7846 29.918 17.7846 29.7252 17.6882 29.6287C17.5917 29.4359 17.3989 29.1466 17.3025 28.9538C17.0132 28.4716 17.0132 28.2788 16.8203 27.9895C16.8203 27.893 17.0132 27.9895 17.0132 27.9895L19.0382 28.6645L22.606 28.7609L23.5703 27.4109L23.6667 27.3145Z" fill="#DFC677"/>
<path fill-rule="evenodd" clip-rule="evenodd" d="M18.4609 29.3393C18.5574 29.4357 18.7502 29.5321 18.7502 29.6286C18.7502 29.6286 18.8467 29.5321 18.9431 29.6286C19.0395 29.725 19.2324 29.6286 19.3288 29.725C19.4252 29.725 19.4252 29.725 19.4252 29.725C19.4252 29.725 19.5216 29.725 19.6181 29.6286C19.7145 29.6286 19.8109 29.6286 19.9074 29.5321C20.0038 29.5321 20.1002 29.5321 20.1967 29.5321C20.2931 29.5321 20.4859 29.8214 21.3538 29.4357C22.1252 29.1464 22.3181 29.05 22.5109 29.1464C22.5109 29.1464 22.5109 29.05 22.7038 29.05C22.7038 28.9536 22.5109 28.6643 22.5109 28.6643L21.5466 28.375H21.0645L19.5217 28.6643L18.6538 29.1464L18.4609 29.3393Z" fill="#C4A859"/>
<path fill-rule="evenodd" clip-rule="evenodd" d="M17.9844 28.7606C17.9844 28.7606 17.9844 28.9535 18.1772 29.0499C18.3701 29.2428 18.4665 29.3392 18.4665 29.3392C18.4665 29.3392 18.4665 29.2428 18.563 29.2428C18.563 29.1464 18.6594 29.1464 18.6594 29.0499C18.7558 29.0499 19.0451 29.0499 19.0451 29.0499C19.0451 29.0499 19.0451 28.9535 19.1415 28.9535C19.2379 28.9535 19.3344 29.0499 19.3344 29.0499C19.3344 29.0499 19.4308 29.0499 19.5272 29.0499C19.5272 29.0499 19.5272 28.7606 19.7201 28.6642C19.9129 28.5678 20.1058 28.5678 20.1058 28.6642C20.1058 28.6642 20.1058 28.7606 20.2022 28.8571C20.2987 28.8571 20.2987 28.8571 20.3951 28.8571C20.4915 28.8571 20.5879 28.8571 20.6844 29.0499C20.6844 29.0499 20.8772 29.0499 20.7808 28.8571C20.8772 28.8571 20.8772 28.7606 20.9737 28.6642C20.9737 28.6642 21.0701 28.5678 21.0701 28.4714C21.1665 28.4714 21.263 28.4714 21.4558 28.5678L21.3594 28.6642L21.4558 28.7606C21.4558 28.8571 21.5522 28.8571 21.5522 28.8571C21.6487 28.8571 21.8415 28.8571 22.0344 28.8571C22.2272 28.8571 22.4201 28.9535 22.5165 28.9535C22.5165 28.9535 22.5165 28.9535 22.6129 28.9535C22.7094 28.9535 22.7094 28.9535 22.6129 28.8571C22.6129 28.8571 22.7094 28.9535 22.7094 28.8571C22.7094 28.8571 22.8058 28.7606 22.9022 28.7606C22.9987 28.7606 23.0951 28.7606 23.0951 28.6642C23.1915 28.4714 22.9022 28.4714 22.9022 28.4714C22.9022 28.4714 22.9987 28.3749 23.0951 28.2785C23.1915 28.1821 23.3844 27.9892 23.3844 27.7964C23.4808 27.4106 23.0951 27.4106 23.0951 27.4106L21.4558 27.8928L19.4308 27.7964L17.9844 28.7606Z" fill="#927D49"/>
<path fill-rule="evenodd" clip-rule="evenodd" d="M16.437 23.9396C16.437 23.9396 16.3406 24.0361 16.3406 24.1325C16.3406 24.3254 16.3406 24.2289 16.3406 24.4218C16.3406 24.5182 15.9549 25.6754 16.1478 26.0611C16.2442 26.4468 16.5335 26.5432 16.6299 26.9289C16.6299 27.0254 16.7263 27.0254 16.7263 27.1218C16.7263 27.3146 16.7263 27.5075 16.8227 27.7004C16.8227 27.7968 16.9192 27.8932 16.9192 27.8932C17.112 28.0861 17.3049 28.1825 17.4977 28.3754C17.6906 28.5682 17.8835 28.8575 18.1727 28.9539C18.3656 28.9539 18.5585 28.9539 18.7513 28.7611C18.9442 28.6646 19.0406 28.4718 19.137 28.4718C19.2335 28.3754 19.4263 28.3754 19.5228 28.3754C19.7156 28.3754 20.0049 28.2789 20.1013 28.3754C20.2942 28.3754 20.7763 28.5682 21.0656 28.5682C21.2585 28.5682 21.4513 28.5682 21.6442 28.4718C22.0299 28.3754 22.512 28.1825 22.8013 28.0861C22.9942 27.9896 23.0906 27.9897 23.2835 27.9897C23.5727 27.8932 23.7656 27.8932 23.862 27.7004C23.7656 27.6039 23.6692 27.4111 23.0906 27.5075C22.512 27.5075 21.7406 27.8932 21.3549 27.8932C20.9692 27.9896 20.8728 27.9896 20.487 27.8932C20.1013 27.7968 20.1013 27.7004 20.1013 27.7004C20.1013 27.7004 19.7156 27.4111 19.5228 26.7361C19.3299 26.0611 19.5228 25.4825 20.0049 25.0004C20.1013 24.9039 20.1013 24.7111 20.1013 24.7111C20.1013 24.7111 20.3906 24.3254 20.2942 23.9396C20.1978 23.5539 19.6192 23.6504 19.6192 23.6504L16.437 23.9396Z" fill="#6E6342"/>
<path fill-rule="evenodd" clip-rule="evenodd" d="M16.9219 25.1929C16.9219 25.1929 16.9219 25.2893 16.9219 25.3857C16.9219 25.4822 16.9219 25.5786 17.2111 25.7714C17.404 25.9643 17.404 26.1572 17.404 26.1572C17.404 26.1572 17.5004 26.1572 17.7897 26.0607C17.9826 25.9643 18.079 26.1572 18.079 26.1572C18.1754 26.1572 18.1754 26.0607 18.2719 26.0607C18.3683 26.0607 18.3683 26.0607 18.4647 25.9643C18.4647 25.9643 18.6576 26.2536 18.9469 26.35C19.1397 26.4464 19.2362 26.5429 19.3326 26.4464C19.429 26.35 19.429 26.2536 19.429 26.2536C19.429 26.1572 19.3326 26.1572 19.3326 26.1572C19.2362 26.0607 19.1397 25.9643 19.1397 25.8679C19.1397 25.675 19.2362 25.4822 19.2362 25.3857C19.2362 25.2893 19.0433 25.2893 18.754 25.3857C18.2719 25.4822 16.9219 25.1929 16.9219 25.1929Z" fill="#39331F"/>
<path fill-rule="evenodd" clip-rule="evenodd" d="M17.5922 26.3498C17.5922 26.3498 17.3993 26.1569 17.4957 25.4819C17.5922 25.4819 17.5922 25.4819 17.6886 25.4819C17.6886 25.5784 17.785 26.0605 17.5922 26.3498Z" fill="#292311"/>
<path fill-rule="evenodd" clip-rule="evenodd" d="M16.5348 23.3609C16.5348 23.3609 16.2455 23.843 16.5348 24.4216C16.7277 25.0966 17.2098 25.4823 17.8848 25.5788C18.4634 25.5788 18.8491 25.2895 19.2348 24.8073C19.4277 24.6145 19.5241 24.4216 19.717 24.2288C19.9098 23.9395 20.1027 23.9395 20.1027 23.6502C20.1027 23.1681 19.6205 22.9752 18.8491 22.7823C18.0777 22.5895 17.4991 22.5895 17.1134 22.7823C16.7277 22.9752 16.6313 23.1681 16.5348 23.3609Z" fill="#252211"/>
<path fill-rule="evenodd" clip-rule="evenodd" d="M18.8438 26.6393C18.9402 26.6393 18.9402 26.35 19.0366 26.4464C19.133 26.4464 19.133 26.5429 19.133 26.6393C19.133 26.6393 19.133 26.7357 19.0366 26.7357C18.8437 26.6393 18.8438 26.6393 18.8438 26.6393Z" fill="#3F3824"/>
<path fill-rule="evenodd" clip-rule="evenodd" d="M18.5625 25.6748H18.6589C18.7553 25.6748 18.9482 25.6748 19.0446 25.6748C19.1411 25.6748 19.1411 25.7712 19.1411 25.7712C19.1411 25.7712 18.8518 25.8677 18.7554 25.7712C18.5625 25.7712 18.5625 25.6748 18.5625 25.6748Z" fill="#2D2815"/>
<path fill-rule="evenodd" clip-rule="evenodd" d="M19.8103 25.7715C19.8103 25.7715 19.6174 25.675 19.521 25.5786C19.521 25.5786 19.521 25.5786 19.4245 25.5786H19.3281C19.3281 25.5786 19.3281 25.5786 19.3281 25.675L19.4245 25.7715C19.4245 25.8679 19.4245 25.8679 19.4245 25.8679C19.4245 25.8679 19.521 25.8679 19.6174 25.8679C19.7138 25.7715 19.8103 25.7715 19.8103 25.7715Z" fill="#82764F"/>
<path fill-rule="evenodd" clip-rule="evenodd" d="M18.4609 26.2534C18.4609 26.2534 18.4609 26.0605 18.6538 26.0605C18.8466 26.0605 18.8467 26.2534 18.8467 26.2534L18.7502 26.3498C18.7502 26.3498 18.6538 26.2534 18.4609 26.2534Z" fill="#2D2816"/>
<path fill-rule="evenodd" clip-rule="evenodd" d="M19.6134 25.4819C19.6134 25.4819 19.517 25.5784 19.3241 25.5784C19.3241 25.5784 19.2277 25.4819 19.3241 25.3855C19.4205 25.2891 19.4205 25.2891 19.517 25.2891C19.517 25.3855 19.517 25.3855 19.6134 25.4819Z" fill="#574F35"/>
<path fill-rule="evenodd" clip-rule="evenodd" d="M20 25.5784C20 25.4819 20.0964 25.4819 20.0964 25.4819C20.0964 25.4819 20.0964 25.4819 20.0964 25.5784C20.0964 25.6748 20.0964 25.6748 20 25.5784C20.0964 25.6748 20.0964 25.6748 20 25.5784C20 25.6748 20 25.6748 20 25.5784ZM20.4821 25.2891C20.5786 25.2891 20.5786 25.2891 20.5786 25.2891V25.3855H20.4821C20.5786 25.4819 20.4821 25.2891 20.4821 25.2891Z" fill="#82764F"/>
<path fill-rule="evenodd" clip-rule="evenodd" d="M19.5156 25.6748C19.5156 25.6748 19.612 25.6748 19.612 25.7712H19.5156C19.5156 25.7712 19.6121 25.7712 19.5156 25.6748Z" fill="#6E6342"/>
<path fill-rule="evenodd" clip-rule="evenodd" d="M19.4219 25.0964C19.5183 25.0964 19.5183 25.0964 19.6147 25.0964C19.6147 25.0964 19.6147 25.0964 19.7112 25.0964H19.8076V25.1928H19.7112L19.8076 25.2892H19.7112L19.4219 25.0964ZM19.8076 24.6142H19.7112C19.7112 24.6142 19.8076 24.8071 19.8076 24.9035C19.904 24.9999 19.904 25.0964 20.0005 25.0964C20.0005 25.0964 20.0005 24.9999 20.0005 24.7107C20.0005 24.5178 20.0005 24.2285 20.0005 24.2285H19.904C19.904 24.3249 19.8076 24.6142 19.8076 24.6142Z" fill="#585136"/>
<path fill-rule="evenodd" clip-rule="evenodd" d="M19.5237 26.0604C19.5237 26.0604 19.4272 25.964 19.3308 26.0604C19.2344 26.0604 19.2344 26.2533 19.2344 26.2533C19.2344 26.2533 19.2344 26.2533 19.3308 26.2533C19.3308 26.2533 19.3308 26.2533 19.4272 26.2533C19.4272 26.1569 19.5237 26.0604 19.5237 26.0604Z" fill="#574F35"/>
<path fill-rule="evenodd" clip-rule="evenodd" d="M19.7147 26.2536C19.7147 26.1571 19.7147 26.1571 19.7147 26.2536C19.6183 26.1571 19.7147 26.1571 19.7147 26.1571C19.7147 26.0607 19.8112 26.1571 19.7147 26.2536C19.8112 26.1571 19.9076 26.2536 19.9076 26.2536L19.8112 26.4464C19.7147 26.4464 19.7147 26.2536 19.7147 26.2536ZM20.2933 26.1571H20.1969C20.1969 26.1571 20.1969 26.1571 20.2933 26.1571C20.2933 26.0607 20.1969 26.0607 20.2933 26.1571C20.2933 26.0607 20.2933 26.0607 20.2933 26.1571C20.3897 26.0607 20.4862 26.0607 20.4862 26.0607V26.1571C20.4862 26.1571 20.3897 26.2536 20.2933 26.2536V26.1571ZM20.8719 26.0607C20.8719 26.1571 20.7754 26.1571 20.679 26.1571C20.5826 26.1571 20.4862 26.1571 20.4862 26.1571L20.5826 26.0607C20.7754 25.9643 20.8719 25.9643 20.8719 26.0607C20.9683 25.9643 20.9683 25.9643 20.8719 26.0607ZM21.0647 25.1929C20.9683 25.2893 20.9683 25.2893 20.9683 25.2893C20.9683 25.1929 20.9683 25.1929 21.0647 25.1929C20.9683 25.1929 20.9683 25.1929 20.9683 25.0964C20.9683 25.0964 20.9683 25 21.0647 25H21.1612H21.2576C21.2576 25.0964 21.1612 25.1929 21.0647 25.1929ZM20.4862 26.8321C20.3897 26.8321 20.3897 26.8321 20.4862 26.8321C20.5826 26.9286 20.5826 26.9286 20.679 26.8321C20.679 26.8321 20.7755 26.8321 20.7755 26.7357C20.7755 26.7357 20.7754 26.6393 20.679 26.6393C20.5826 26.7357 20.5826 26.7357 20.4862 26.8321C20.4862 26.7357 20.4862 26.7357 20.4862 26.8321C20.3897 26.7357 20.3897 26.7357 20.4862 26.8321ZM20.1004 27.1214C20.1004 27.025 20.1969 27.025 20.1004 27.1214C20.1969 27.1214 20.2933 27.2179 20.2933 27.2179H20.1969C20.1969 27.2179 20.1004 27.2179 20.1004 27.1214ZM19.9076 26.7357C19.9076 26.6393 19.9076 26.6393 19.9076 26.7357C20.004 26.6393 20.004 26.6393 19.9076 26.7357C20.004 26.6393 20.004 26.6393 20.004 26.6393H20.1004V26.7357C20.1004 26.7357 20.1004 26.8321 20.004 26.8321C19.9076 26.8321 19.8112 26.8321 19.8112 26.8321C19.8112 26.8321 19.8112 26.8321 19.9076 26.7357Z" fill="#82764F"/>
<path fill-rule="evenodd" clip-rule="evenodd" d="M19.612 26.543H19.7085C19.7085 26.543 19.7085 26.543 19.7085 26.6394L19.612 26.7358C19.5156 26.7358 19.5156 26.7358 19.5156 26.6394C19.5156 26.6394 19.5156 26.6394 19.5156 26.543C19.5156 26.6394 19.5156 26.543 19.612 26.543C19.5156 26.543 19.5156 26.543 19.612 26.543Z" fill="#585136"/>
<path fill-rule="evenodd" clip-rule="evenodd" d="M19.6201 26.6392L19.5237 26.7356L19.3308 26.9284C19.3308 26.9284 19.3308 26.9284 19.3308 26.832C19.2344 26.832 19.2344 26.9285 19.2344 27.0249C19.2344 27.1213 19.4272 27.2177 19.5237 27.2177C19.6201 27.2177 19.7165 27.3142 19.7165 27.3142C19.6201 27.2177 19.6201 27.1213 19.6201 27.0249C19.5237 26.9285 19.5237 26.9284 19.6201 26.832C19.5237 26.7356 19.6201 26.7356 19.6201 26.6392Z" fill="#574F35"/>
<path fill-rule="evenodd" clip-rule="evenodd" d="M16.4375 26.8319C16.5339 26.8319 16.5339 26.8319 16.4375 26.8319C16.5339 26.8319 16.9196 26.6391 17.4018 26.7355C17.6911 26.7355 18.0768 26.8319 18.3661 26.9284C18.9446 27.1212 19.6196 27.4105 20.1018 27.5069C20.1982 27.5069 20.2946 27.6034 20.3911 27.6998C20.7768 27.7962 20.7768 27.7962 20.9696 27.8926C21.1625 27.8926 21.4518 27.8926 21.7411 27.7962C22.0304 27.6998 22.6089 27.6998 23.0911 27.6033C23.2839 27.6033 23.3804 27.5069 23.5732 27.5069C23.5732 27.5069 23.1875 27.8926 22.3196 27.9891C21.9339 28.0855 21.5482 28.0855 21.2589 27.9891C20.9696 27.9891 20.7768 27.8926 20.6804 27.8926C20.4875 27.8926 20.1982 27.6998 19.8125 27.6033C19.5232 27.5069 19.2339 27.5069 18.8482 27.4105C17.7875 27.2176 16.8232 27.0248 16.4375 26.8319Z" fill="#252211"/>
<path fill-rule="evenodd" clip-rule="evenodd" d="M15.4656 25.0962C15.2728 25.289 14.9835 25.4819 14.7906 25.5783L14.1156 26.0605C13.9228 26.2533 13.6335 26.4462 13.4406 26.5426C13.2478 26.7355 12.9585 26.8319 12.7656 27.0248C12.9585 26.8319 13.2478 26.639 13.4406 26.5426C13.6335 26.3498 13.9228 26.2533 14.1156 26.0605L14.7906 25.5783C14.9835 25.4819 15.1763 25.289 15.4656 25.0962ZM14.3085 27.0248C14.3085 27.0248 14.5978 26.8319 14.8871 26.5426C15.2728 26.1569 15.7549 25.7712 15.8513 25.6748L14.3085 27.0248Z" fill="#CFB66C"/>
<path fill-rule="evenodd" clip-rule="evenodd" d="M14.3125 27.0248C14.4089 26.9284 14.6018 26.8319 14.6982 26.6391L14.8911 26.4462C14.9875 26.3498 14.9875 26.3498 15.0839 26.2534C15.1804 26.1569 15.2768 25.9641 15.4697 25.8676C15.3732 25.9641 15.1804 26.0605 15.0839 26.1569C14.9875 26.2534 14.7947 26.3498 14.6982 26.5427C14.5054 26.8319 14.4089 26.9284 14.3125 27.0248ZM15.8554 25.9641C15.8554 25.9641 14.9875 26.8319 14.7946 27.0248L15.8554 25.9641Z" fill="#CFB66C"/>
<path fill-rule="evenodd" clip-rule="evenodd" d="M15.8576 25.9644C15.7612 26.0608 15.6647 26.1572 15.5683 26.2536L15.3755 26.4465C15.279 26.5429 15.1826 26.6394 15.0862 26.7358C14.9897 26.8322 14.8933 26.9286 14.7969 26.9286L15.0862 26.6394C15.1826 26.5429 15.279 26.4465 15.3755 26.3501L15.6647 26.0608C15.7612 26.1572 15.7612 26.0608 15.8576 25.9644ZM15.954 26.4465C15.8576 26.6394 15.7612 26.9286 15.6647 27.1215C15.4719 27.6036 15.0862 28.1822 14.8933 28.4715L15.954 26.4465Z" fill="#CFB66C"/>
<path fill-rule="evenodd" clip-rule="evenodd" d="M15.9487 26.4463C15.9487 26.5427 15.9487 26.6391 15.8522 26.7356C15.8522 26.832 15.7558 26.9284 15.7558 27.0249C15.7558 27.1213 15.6594 27.2177 15.6594 27.3141C15.6594 27.4106 15.5629 27.507 15.5629 27.6034L15.2736 28.0856C15.1772 28.2784 15.0808 28.3749 14.9844 28.5677C15.0808 28.3749 15.1772 28.182 15.2736 28.0856C15.3701 27.8927 15.4665 27.7963 15.5629 27.6034C15.5629 27.507 15.6594 27.4106 15.6594 27.3141C15.6594 27.2177 15.7558 27.1213 15.7558 27.0249C15.7558 26.9284 15.8522 26.832 15.8522 26.7356C15.8522 26.5427 15.8522 26.5427 15.9487 26.4463Z" fill="#CFB66C"/>
<path fill-rule="evenodd" clip-rule="evenodd" d="M16.9143 28.6641C16.9143 28.6641 16.625 29.0498 16.625 29.4355C16.7214 29.2426 16.8179 28.8569 16.9143 28.6641ZM17.2036 29.0498C17.2036 29.0498 17.1071 30.0141 17.0107 30.4962C17.1071 29.9176 17.1071 30.0141 17.2036 29.0498ZM18.9393 30.4962C18.9393 30.4962 18.5536 31.6533 18.5536 32.0391C18.65 31.7498 18.8429 30.9783 18.9393 30.4962Z" fill="#DEC270"/>
<path fill-rule="evenodd" clip-rule="evenodd" d="M19.9062 28.5679C19.9062 28.5679 20.5812 29.6286 21.0634 30.5929C20.8705 30.1107 20.5812 29.2429 19.9062 28.5679Z" fill="#CBAF59"/>
<path fill-rule="evenodd" clip-rule="evenodd" d="M21.6406 30.207C22.0263 30.882 22.3156 31.4606 22.6049 32.1356C22.6049 31.6535 22.4121 30.882 21.6406 30.207Z" fill="#E3C677"/>
<path fill-rule="evenodd" clip-rule="evenodd" d="M26.8518 31.7499C26.9482 31.6535 27.1411 31.2678 27.3339 31.1714C27.5268 31.0749 27.6232 31.0749 27.8161 30.8821C28.0089 30.6892 28.0089 30.5928 28.3946 30.3999C28.8768 30.2071 28.5875 29.9178 28.5875 29.9178C28.6839 29.8214 28.6839 29.8214 28.7803 29.7249C28.8768 29.6285 29.0696 29.5321 29.0696 29.2428C29.0696 28.8571 28.9732 28.3749 28.6839 28.0856C28.9732 27.9892 29.5518 27.9892 29.8411 27.8928C30.2268 27.7964 30.4196 27.6035 30.4196 27.6035C30.4196 27.6035 30.2268 27.2178 30.5161 26.8321C30.9018 26.4464 31.1911 26.1571 31.3839 25.7714C31.0946 25.7714 30.7089 25.5785 29.7446 25.9642C29.8411 25.9642 29.8411 26.0606 29.9375 26.0606C29.9375 26.0606 29.3589 26.2535 29.0696 26.4464C28.6839 26.7356 28.5875 27.0249 28.2018 27.2178C27.8161 27.4106 27.3339 27.4106 27.0446 27.5071C26.6589 27.6999 26.6589 27.7964 26.4661 27.8928V27.9892C26.4661 27.9892 26.2732 28.3749 26.0803 28.3749C26.0803 28.4714 26.2732 28.4714 26.2732 28.4714C26.2732 28.4714 26.1768 28.5678 25.8875 28.5678C26.0803 28.7606 26.1768 28.9535 26.5625 29.1464C26.5625 29.2428 26.3696 29.3392 26.4661 29.4356C26.5625 29.5321 26.6589 29.7249 27.3339 29.9178C27.0446 29.9178 26.6589 30.0142 26.1768 29.9178C25.6946 29.8214 25.5982 29.8214 25.3089 29.9178C25.3089 29.9178 25.4053 29.9178 25.5018 30.0142C25.4053 30.0142 24.9232 29.9178 24.7303 30.2071C24.5375 30.3999 24.4411 30.8821 24.4411 31.0749C24.3446 31.0749 24.2482 31.1714 24.3446 31.3642C24.3446 31.5571 24.6339 31.5571 24.8268 31.6535C25.0196 31.7499 25.0196 31.8464 25.1161 31.7499C25.3089 31.7499 25.5018 31.5571 25.5982 31.5571C25.6946 31.5571 25.7911 31.6535 25.7911 31.6535C25.7911 31.6535 26.1768 31.4606 26.1768 31.5571V31.8464C26.3696 32.1356 26.7553 31.8464 26.8518 31.7499Z" fill="#ECD592"/>
<g opacity="0.8">
<path fill-rule="evenodd" clip-rule="evenodd" d="M34.756 20.8536C33.0203 16.4179 28.8739 15.6465 28.8739 15.6465H16.8203V20.1786H19.231V30.2072H16.8203V34.6429H28.4882C31.2846 34.6429 33.5989 31.8465 33.5989 31.8465C37.2632 26.6393 34.756 20.8536 34.756 20.8536ZM28.5846 28.7608C28.5846 28.7608 27.6203 30.1108 26.656 30.1108H24.631V20.1786H27.2346C27.2346 20.1786 28.3917 20.4679 29.2596 22.7822C29.1632 22.6858 30.3203 26.0608 28.5846 28.7608Z" fill="white"/>
</g>
</g>
</svg>
