<svg width="51" height="50" viewBox="0 0 51 50" fill="none" xmlns="http://www.w3.org/2000/svg">
<rect x="0.5" width="50" height="50" rx="25" fill="white"/>
<mask id="mask0_8053_78664" style="mask-type:luminance" maskUnits="userSpaceOnUse" x="10" y="10" width="31" height="30">
<path d="M40.5 10H10.5V40H40.5V10Z" fill="white"/>
</mask>
<g mask="url(#mask0_8053_78664)">
<path d="M18.9 39.7999C26.4 39.7999 26.4 39.6999 27.7 39.2999C29.4 38.7999 23 34.3999 18.9 34.3999C14.8 34.3999 11.5 35.5999 11.5 37.0999C11.5 38.4999 14.8 39.7999 18.9 39.7999Z" fill="#1C1C1C"/>
<path d="M35.9984 16.8001L36.2984 17.2001L35.9984 17.6001C26.1984 30.9001 20.4984 36.9001 18.0984 36.1001C16.5984 35.6001 15.1984 34.1001 13.6984 32.0001C13.1984 31.2001 12.6984 30.5001 12.2984 29.7001C11.9984 29.2001 11.7984 28.7001 11.5984 28.4001C11.3984 28.1001 11.3984 27.8001 11.2984 27.6001C11.2984 27.5001 11.2984 27.4001 11.2984 27.4001C10.9984 26.3001 10.8984 25.1001 10.8984 24.0001C10.8984 16.6001 16.8984 10.6001 24.2984 10.6001C26.5984 10.6001 28.8984 11.2001 30.7984 12.3001H30.8984C32.4984 13.2001 34.1984 14.8001 35.9984 16.8001ZM30.1984 13.1001C28.3984 12.1001 26.3984 11.6001 24.2984 11.6001C17.5984 11.6001 12.0984 17.1001 12.0984 23.8001C12.0984 24.9001 12.1984 25.9001 12.4984 26.9001C12.4984 27.0001 12.4984 27.1001 12.5984 27.2001C12.5984 27.4001 12.6984 27.5001 12.7984 27.7001C12.8984 27.9001 13.1984 28.4001 13.3984 28.9001C13.7984 29.7001 14.2984 30.4001 14.7984 31.1001C16.0984 33.0001 17.3984 34.4001 18.5984 34.7001C20.0984 35.2001 25.7984 29.2001 34.7984 17.0001C33.0984 15.5001 31.5984 14.1001 30.1984 13.1001Z" fill="#1C1C1C"/>
<path d="M30.2016 13.1001C28.4016 12.1001 26.4016 11.6001 24.3016 11.6001C17.6016 11.6001 12.1016 17.1001 12.1016 23.8001C12.1016 24.9001 12.2016 25.9001 12.5016 26.9001C12.5016 27.0001 12.5016 27.1001 12.6016 27.2001C12.6016 27.4001 12.7016 27.5001 12.8016 27.7001C12.9016 27.9001 13.2016 28.4001 13.4016 28.9001C13.8016 29.7001 14.3016 30.4001 14.8016 31.1001C16.1016 33.0001 17.4016 34.4001 18.6016 34.7001C20.1016 35.2001 25.8016 29.2001 34.8016 17.0001C33.1016 15.5001 31.6016 14.1001 30.2016 13.1001Z" fill="#EC1C79"/>
<path d="M26.6969 39.6003C19.2969 39.6003 13.2969 33.6003 13.2969 26.2003C13.2969 18.8003 19.2969 12.8003 26.6969 12.8003C34.0969 12.8003 40.0969 18.8003 40.0969 26.2003C40.0969 33.6003 34.0969 39.6003 26.6969 39.6003ZM26.6969 38.4003C33.3969 38.4003 38.8969 32.9003 38.8969 26.2003C38.8969 19.5003 33.4969 14.0003 26.6969 14.0003C19.9969 14.0003 14.4969 19.4003 14.4969 26.2003C14.5969 33.0003 19.9969 38.4003 26.6969 38.4003Z" fill="#1C1C1C"/>
<path d="M26.7 38.4C33.4 38.4 38.9 32.9 38.9 26.2C38.9 19.5 33.4 14 26.7 14C20 14 14.5 19.4 14.5 26.2C14.6 33 20 38.4 26.7 38.4Z" fill="white"/>
<path fill-rule="evenodd" clip-rule="evenodd" d="M17.6 28.7003L16 23.8003H17.4L18.2 26.6003L19.1 23.8003H20.2L21.1 26.6003L21.9 23.8003H23.3L21.7 28.7003H20.5L19.5 25.9003L18.5 28.7003H17.6ZM24 28.7003V23.9003H27.9V25.0003H25.3V25.7003H27.6V26.8003H25.3V27.6003H27.9V28.7003H24ZM29.8 28.7003V25.0003H28.4V23.8003H32.6V25.0003H31.2V28.6003H29.8V28.7003ZM33.2 28.7003V23.9003H34.5V25.7003H36.2V23.9003H37.5V28.7003H36.2V26.9003H34.5V28.7003H33.2Z" fill="#1C1C1C"/>
<path d="M11.7008 22.4001C11.4008 22.2001 11.2008 21.8001 11.4008 21.5001C11.6008 21.2001 12.0008 21.0001 12.3008 21.2001L14.3008 22.2001C14.6008 22.4001 14.8008 22.8001 14.6008 23.1001C14.4008 23.4001 14.0008 23.6001 13.7008 23.4001L11.7008 22.4001Z" fill="#1C1C1C"/>
<path d="M11.3962 25.7C11.0962 25.5 10.8961 25.0999 11.0961 24.7999C11.2961 24.4999 11.6961 24.2999 11.9961 24.4999L13.9961 25.3999C14.2961 25.5999 14.4961 25.9999 14.2961 26.2999C14.0961 26.5999 13.6962 26.7999 13.3962 26.5999L11.3962 25.7Z" fill="#1C1C1C"/>
</g>
</svg>
