<svg width="51" height="50" viewBox="0 0 51 50" fill="none" xmlns="http://www.w3.org/2000/svg">
<rect x="0.5" width="50" height="50" rx="25" fill="white"/>
<path fill-rule="evenodd" clip-rule="evenodd" d="M19.8879 35.6338H15.5249C14.8972 35.7174 14.2586 35.6488 13.6629 35.4338C13.4979 35.3271 13.3605 35.1828 13.2618 35.0129C13.1631 34.8429 13.1059 34.6521 13.0949 34.4558C13.0739 34.0878 13.3299 33.6388 13.8429 32.7408L23.3959 16.0038C23.9159 15.0928 24.1759 14.6378 24.5069 14.4678C24.6832 14.3776 24.8784 14.3306 25.0764 14.3306C25.2745 14.3306 25.4697 14.3776 25.6459 14.4678C25.9769 14.6368 26.2379 15.0918 26.7589 16.0018L28.9589 19.8488C29.236 20.2646 29.4554 20.716 29.6109 21.1908C29.7015 21.5709 29.7015 21.9668 29.6109 22.3468C29.4558 22.8219 29.2368 23.2737 28.9599 23.6898L23.2469 33.6838C23.0263 34.14 22.744 34.5636 22.4079 34.9428C22.1216 35.2163 21.7744 35.4178 21.3949 35.5308C20.8997 35.6338 20.3926 35.6684 19.8879 35.6338ZM35.4549 35.6338H30.3969C29.7643 35.7188 29.1205 35.6502 28.5199 35.4338C28.3545 35.3262 28.217 35.181 28.1186 35.0099C28.0202 34.8389 27.9638 34.6469 27.9539 34.4498C27.9359 34.0798 28.1979 33.6288 28.7239 32.7278L31.2449 28.3938C31.7639 27.5038 32.0229 27.0588 32.3519 26.8938C32.5271 26.8051 32.7206 26.7589 32.9169 26.7589C33.1133 26.7589 33.3068 26.8051 33.4819 26.8938C33.8109 27.0598 34.0709 27.5048 34.5909 28.3938L37.1249 32.7258C37.6519 33.6258 37.9159 34.0788 37.8979 34.4488C37.8883 34.6461 37.8319 34.8382 37.7335 35.0095C37.6351 35.1807 37.4975 35.3261 37.3319 35.4338C36.7317 35.6499 36.0873 35.7185 35.4549 35.6338Z" fill="#1C1C1C"/>
</svg>
