<svg width="50" height="50" viewBox="0 0 50 50" fill="none" xmlns="http://www.w3.org/2000/svg">
<rect width="50" height="50" rx="25" fill="white"/>
<path d="M18.8516 24.7999C18.8516 25.2999 18.9516 25.7999 19.3516 26.0999C19.6516 26.4999 20.1516 26.6999 20.6516 26.6999H20.7516C21.1516 26.6999 21.4516 26.5999 21.7516 26.3999C22.0516 26.1999 22.2516 25.8999 22.4516 25.5999C22.5516 25.2999 22.6516 24.8999 22.5516 24.4999C22.4516 24.0999 22.3516 23.7999 22.0516 23.5999C21.7516 23.3999 21.4516 23.1999 21.1516 23.0999C20.7516 22.9999 20.4516 22.9999 20.0516 23.1999C19.7516 23.2999 19.4516 23.4999 19.2516 23.7999C19.0516 24.0999 18.8516 24.4999 18.8516 24.7999Z" fill="#0033AD"/>
<path d="M11.9516 24.2998C11.8516 24.2998 11.6516 24.2998 11.5516 24.3998C11.4516 24.4998 11.3516 24.5998 11.3516 24.6998C11.3516 24.7998 11.3516 24.9998 11.3516 25.0998C11.4516 25.1998 11.5516 25.2998 11.6516 25.3998C11.7516 25.4998 11.9516 25.4998 12.0516 25.3998C12.1516 25.3998 12.3516 25.2998 12.3516 25.1998C12.4516 25.0998 12.4516 24.9998 12.4516 24.7998C12.4516 24.6998 12.3516 24.4998 12.2516 24.3998C12.2516 24.3998 12.1516 24.3998 11.9516 24.2998Z" fill="#0033AD"/>
<path d="M18.7516 14.1C18.8516 14 18.9516 13.9 19.0516 13.8C19.1516 13.7 19.1516 13.5 19.0516 13.4C19.0516 13.3 18.9516 13.2 18.8516 13.1C18.7516 13 18.5516 13 18.4516 13C18.3516 13 18.1516 13.1 18.0516 13.2C17.9516 13.3 17.8516 13.4 17.8516 13.6C17.8516 13.7 17.8516 13.9 17.9516 14C18.0516 14.1 18.1516 14.2 18.2516 14.2C18.3516 14.2 18.4516 14.2 18.4516 14.2C18.4516 14.2 18.6516 14.1 18.7516 14.1Z" fill="#0033AD"/>
<path d="M20.6484 17.3997C20.8484 17.2997 20.9484 17.0997 21.0484 16.9997C21.1484 16.7997 21.1484 16.5997 21.0484 16.3997C20.9484 16.1997 20.8484 15.9997 20.6484 15.8997C20.4484 15.7997 20.2484 15.6997 20.0484 15.6997C19.8484 15.6997 19.6484 15.7997 19.4484 15.9997C19.2484 16.0997 19.1484 16.2997 19.1484 16.5997C19.1484 16.7997 19.1484 16.9997 19.2484 17.1997C19.3484 17.3997 19.5484 17.4997 19.7484 17.5997C20.1484 17.4997 20.3484 17.4997 20.6484 17.3997Z" fill="#0033AD"/>
<path d="M14.3547 19.5998C14.4547 19.6998 14.6547 19.6998 14.7547 19.6998C14.9547 19.6998 15.0547 19.6998 15.1547 19.5998C15.2547 19.4998 15.3547 19.3998 15.4547 19.2998C15.5547 19.1998 15.5547 18.9998 15.4547 18.8998C15.4547 18.7998 15.3547 18.5998 15.2547 18.4998C15.1547 18.3998 15.0547 18.2998 14.8547 18.2998C14.7547 18.2998 14.5547 18.2998 14.4547 18.2998C14.3547 18.3998 14.1547 18.4998 14.1547 18.5998C14.0547 18.7998 14.0547 18.9998 14.0547 19.1998C14.0547 19.2998 14.1547 19.4998 14.3547 19.5998Z" fill="#0033AD"/>
<path d="M15.4492 24C15.2492 24 15.0492 24.1 14.8492 24.2C14.6492 24.3 14.5492 24.5 14.5492 24.7C14.4492 24.9 14.5492 25.1 14.6492 25.3C14.7492 25.5 14.8492 25.6 15.0492 25.7C15.2492 25.8 15.4492 25.8 15.6492 25.8C15.8492 25.7 16.0492 25.6 16.1492 25.5C16.2492 25.3 16.3492 25.1 16.3492 24.9C16.3492 24.7 16.2492 24.5 16.1492 24.3C16.0492 24.2 15.9492 24.1 15.8492 24.1C15.6492 24 15.5492 24 15.4492 24Z" fill="#0033AD"/>
<path d="M14.4547 30.1998C14.3547 30.2998 14.2547 30.3998 14.1547 30.4998C14.0547 30.5998 14.0547 30.7998 14.0547 30.8998C14.0547 30.9998 14.1547 31.1998 14.2547 31.2998C14.3547 31.3998 14.4547 31.4998 14.6547 31.5998C14.7547 31.5998 14.9547 31.6998 15.0547 31.5998C15.1547 31.5998 15.3547 31.4998 15.4547 31.3998C15.5547 31.2998 15.6547 31.0998 15.6547 30.9998C15.6547 30.8998 15.6547 30.6998 15.5547 30.5998C15.5547 30.4998 15.4547 30.3998 15.3547 30.3998C15.2547 30.2998 15.1547 30.2998 15.0547 30.2998C14.9547 30.2998 14.8547 30.2998 14.7547 30.2998C14.6547 30.0998 14.5547 30.1998 14.4547 30.1998Z" fill="#0033AD"/>
<path d="M17.9492 22.1C18.1492 22.2 18.4492 22.3 18.6492 22.3C18.8492 22.3 19.1492 22.2 19.3492 22C19.5492 21.8 19.6492 21.6 19.6492 21.3C19.6492 21.1 19.6492 20.8 19.4492 20.6C19.3492 20.4 19.0492 20.2 18.8492 20.2C18.6492 20.1 18.3492 20.1 18.1492 20.2C17.9492 20.3 17.7492 20.5 17.6492 20.7C17.5492 20.9 17.4492 21.2 17.5492 21.4C17.5492 21.5 17.6492 21.7 17.7492 21.8C17.7492 21.9 17.8492 22 17.9492 22.1Z" fill="#0033AD"/>
<path d="M29.3531 17.3C29.5531 17.4 29.7531 17.5 29.9531 17.4C30.1531 17.4 30.3531 17.3 30.5531 17.1C30.6531 16.9 30.7531 16.7 30.8531 16.5C30.8531 16.3 30.8531 16.1 30.6531 15.9C30.5531 15.7 30.3531 15.6 30.1531 15.5C29.9531 15.4 29.7531 15.5 29.5531 15.5C29.3531 15.6 29.1531 15.7 29.0531 15.9C28.9531 16.1 28.9531 16.3 28.9531 16.5C28.9531 16.6 29.0531 16.7 29.0531 16.8C29.1531 17.1 29.2531 17.2 29.3531 17.3Z" fill="#0033AD"/>
<path d="M31.2516 13.9999C31.3516 14.0999 31.4516 14.0999 31.5516 14.0999C31.6516 14.0999 31.7516 14.0999 31.8516 13.9999C31.9516 13.8999 32.0516 13.7999 32.0516 13.6999C32.0516 13.5999 32.1516 13.4999 32.0516 13.3999C32.0516 13.2999 31.9516 13.1999 31.8516 13.0999C31.7516 12.9999 31.6516 12.9999 31.5516 12.8999C31.4516 12.8999 31.3516 12.8999 31.2516 12.8999C31.1516 12.8999 31.0516 12.9999 30.9516 13.0999C30.8516 13.1999 30.8516 13.3999 30.8516 13.4999C31.0516 13.7999 31.1516 13.9999 31.2516 13.9999Z" fill="#0033AD"/>
<path d="M29.5484 23.1001C29.0484 23.1001 28.5484 23.2001 28.2484 23.6001C27.8484 23.9001 27.6484 24.4001 27.6484 24.9001C27.6484 25.4001 27.7484 25.9001 28.1484 26.2001C28.4484 26.6001 28.9484 26.8001 29.4484 26.8001H29.5484C29.9484 26.8001 30.2484 26.7001 30.5484 26.5001C30.8484 26.3001 31.0484 26.0001 31.2484 25.7001C31.4484 25.4001 31.4484 25.0001 31.3484 24.7001C31.2484 24.3001 31.1484 24.0001 30.9484 23.8001C30.7484 23.6001 30.5484 23.5001 30.3484 23.4001C29.9484 23.1001 29.7484 23.1001 29.5484 23.1001Z" fill="#0033AD"/>
<path d="M21.2547 21.9997C21.4547 22.3997 21.7547 22.6997 22.1547 22.7997C22.5547 22.9997 22.9547 22.9997 23.3547 22.8997C23.7547 22.7997 24.1547 22.5997 24.3547 22.2997C24.6547 21.9997 24.7547 21.5997 24.7547 21.1997C24.7547 20.7997 24.6547 20.3997 24.4547 20.0997C24.2547 19.7997 23.8547 19.4997 23.4547 19.3997C23.0547 19.2997 22.6547 19.2997 22.2547 19.3997C21.8547 19.4997 21.5547 19.7997 21.3547 20.1997C21.1547 20.4997 21.0547 20.7997 21.0547 21.0997C21.0547 21.3997 21.0547 21.6997 21.2547 21.9997Z" fill="#0033AD"/>
<path d="M35.6547 19.5997C35.8547 19.4997 35.9547 19.3997 36.0547 19.1997C36.1547 18.9997 36.1547 18.8997 36.0547 18.6997C36.0547 18.4997 35.8547 18.3997 35.7547 18.2997C35.6547 18.1997 35.4547 18.1997 35.2547 18.1997C35.0547 18.1997 34.9547 18.2997 34.7547 18.3997C34.6547 18.4997 34.5547 18.6997 34.5547 18.8997C34.5547 19.0997 34.5547 19.2997 34.6547 19.3997C34.7547 19.4997 34.8547 19.6997 35.0547 19.6997C35.1547 19.6997 35.2547 19.6997 35.3547 19.6997C35.5547 19.6997 35.6547 19.6997 35.6547 19.5997Z" fill="#0033AD"/>
<path d="M31.0531 20.2C30.8531 20.3 30.6531 20.5 30.5531 20.7C30.4531 20.9 30.4531 21.2 30.4531 21.4C30.4531 21.6 30.6531 21.9 30.8531 22C31.0531 22.1 31.3531 22.2 31.5531 22.2C31.7531 22.2 32.0531 22.1 32.2531 21.9C32.4531 21.7 32.5531 21.5 32.5531 21.2C32.5531 21 32.5531 20.7 32.3531 20.5C32.2531 20.3 32.0531 20.1 31.7531 20.1C31.6531 20.1 31.4531 20 31.3531 20C31.2531 20.1 31.1531 20.1 31.0531 20.2Z" fill="#0033AD"/>
<path d="M24.9484 13.7999C25.0484 13.7999 25.2484 13.7999 25.3484 13.6999C25.4484 13.5999 25.5484 13.4999 25.6484 13.3999C25.7484 13.2999 25.7484 13.0999 25.7484 12.9999C25.7484 12.8999 25.6484 12.6999 25.5484 12.5999C25.4484 12.4999 25.3484 12.3999 25.1484 12.3999C25.0484 12.3999 24.8484 12.3999 24.7484 12.3999C24.6484 12.3999 24.4484 12.4999 24.3484 12.6999C24.2484 12.7999 24.2484 12.9999 24.1484 13.0999C24.1484 13.2999 24.2484 13.4999 24.3484 13.5999C24.5484 13.6999 24.7484 13.7999 24.9484 13.7999Z" fill="#0033AD"/>
<path d="M24.9531 18.4999C25.2531 18.4999 25.4531 18.3999 25.6531 18.2999C25.8531 18.1999 25.9531 17.8999 26.0531 17.6999C26.1531 17.4999 26.0531 17.1999 25.9531 16.9999C25.8531 16.7999 25.6531 16.5999 25.4531 16.4999C25.2531 16.3999 24.9531 16.3999 24.7531 16.3999C24.5531 16.4999 24.2531 16.5999 24.1531 16.7999C23.9531 16.9999 23.9531 17.1999 23.9531 17.4999C23.9531 17.7999 24.0531 17.9999 24.2531 18.1999C24.3531 18.2999 24.4531 18.3999 24.5531 18.4999C24.6531 18.4999 24.8531 18.4999 24.9531 18.4999Z" fill="#0033AD"/>
<path d="M19.0547 29.5999C19.2547 29.4999 19.4547 29.3999 19.5547 29.1999C19.6547 28.9999 19.7547 28.7999 19.6547 28.5999C19.6547 28.3999 19.5547 28.1999 19.4547 27.9999C19.3547 27.7999 19.1547 27.6999 18.9547 27.5999C18.7547 27.4999 18.5547 27.4999 18.3547 27.5999C18.1547 27.6999 17.9547 27.7999 17.8547 27.8999C17.7547 28.0999 17.6547 28.2999 17.5547 28.4999C17.5547 28.6999 17.5547 28.8999 17.6547 29.0999C17.7547 29.1999 17.8547 29.2999 17.9547 29.3999C18.0547 29.4999 18.1547 29.5999 18.3547 29.5999C18.4547 29.5999 18.6547 29.6999 18.7547 29.6999C18.8547 29.6999 18.9547 29.6999 19.0547 29.5999Z" fill="#0033AD"/>
<path d="M25.6516 20.0998C25.4516 20.3998 25.3516 20.8998 25.3516 21.2998C25.3516 21.6998 25.5516 22.0998 25.8516 22.3998C26.1516 22.6998 26.4516 22.8998 26.9516 22.9998C27.4516 23.0998 27.7516 22.9998 28.1516 22.7998C28.5516 22.5998 28.7516 22.2998 28.9516 21.8998C29.1516 21.4998 29.1516 21.0998 29.0516 20.6998C28.9516 20.2998 28.7516 19.8998 28.3516 19.6998C28.0516 19.3998 27.6516 19.2998 27.2516 19.2998C26.9516 19.2998 26.6516 19.3998 26.3516 19.4998C26.0516 19.6998 25.8516 19.8998 25.6516 20.0998Z" fill="#0033AD"/>
<path d="M28.8531 27.7998C28.7531 27.4998 28.4531 27.2998 28.2531 27.0998C27.9531 26.8998 27.6531 26.7998 27.3531 26.7998C27.0531 26.7998 26.6531 26.8998 26.4531 26.9998C26.1531 27.1998 25.9531 27.3998 25.7531 27.6998C25.5531 27.9998 25.4531 28.2998 25.4531 28.5998C25.4531 28.8998 25.5531 29.2998 25.6531 29.4998C25.8531 29.7998 26.0531 29.9998 26.3531 30.1998C26.6531 30.3998 26.9531 30.4998 27.2531 30.4998C27.5531 30.4998 27.8531 30.3998 28.0531 30.2998C28.4531 30.0998 28.8531 29.6998 28.9531 29.1998C29.1531 28.7998 29.1531 28.2998 28.8531 27.7998Z" fill="#0033AD"/>
<path d="M32.1531 27.7C31.9531 27.6 31.7531 27.5 31.5531 27.5C31.3531 27.5 31.1531 27.6 30.9531 27.7C30.7531 27.8 30.6531 28 30.5531 28.2C30.4531 28.4 30.4531 28.6 30.4531 28.8C30.4531 29 30.5531 29.2 30.7531 29.4C30.9531 29.6 31.0531 29.7 31.3531 29.7C31.5531 29.7 31.7531 29.7 31.9531 29.6C32.1531 29.5 32.3531 29.4 32.4531 29.2C32.6531 29 32.6531 28.7 32.6531 28.4C32.5531 28.1 32.3531 27.9 32.1531 27.7Z" fill="#0033AD"/>
<path d="M35.6516 24.8999C35.6516 24.6999 35.5516 24.4999 35.4516 24.2999C35.3516 24.0999 35.1516 23.9999 34.9516 23.9999C34.7516 23.8999 34.5516 23.9999 34.3516 24.0999C34.1516 24.1999 34.0516 24.2999 33.9516 24.4999C33.8516 24.6999 33.8516 24.8999 33.8516 25.0999C33.9516 25.2999 34.0516 25.4999 34.1516 25.5999C34.3516 25.6999 34.5516 25.7999 34.7516 25.7999C34.9516 25.7999 35.1516 25.6999 35.3516 25.5999C35.4516 25.4999 35.5516 25.3999 35.5516 25.2999C35.6516 25.1999 35.6516 25.0999 35.6516 24.8999Z" fill="#0033AD"/>
<path d="M38.1547 24.2998C38.0547 24.2998 37.9547 24.2998 37.8547 24.3998C37.7547 24.4998 37.6547 24.4998 37.6547 24.6998C37.5547 24.7998 37.5547 24.8998 37.5547 24.9998C37.5547 25.0998 37.6547 25.1998 37.6547 25.2998C37.7547 25.3998 37.8547 25.4998 37.9547 25.4998C38.0547 25.4998 38.1547 25.4998 38.2547 25.4998C38.3547 25.4998 38.4547 25.3998 38.5547 25.2998C38.6547 25.1998 38.6547 25.0998 38.6547 24.9998C38.6547 24.7998 38.6547 24.6998 38.4547 24.5998C38.5547 24.3998 38.3547 24.2998 38.1547 24.2998Z" fill="#0033AD"/>
<path d="M35.7531 30.2001C35.6531 30.1001 35.4531 30.1001 35.3531 30.1001C35.2531 30.1001 35.0531 30.1001 34.9531 30.2001C34.8531 30.3001 34.7531 30.4001 34.6531 30.5001C34.5531 30.6001 34.5531 30.8001 34.6531 30.9001C34.6531 31.0001 34.7531 31.2001 34.8531 31.3001C34.9531 31.4001 35.0531 31.5001 35.2531 31.5001C35.4531 31.5001 35.5531 31.5001 35.6531 31.5001C35.7531 31.4001 35.9531 31.3001 35.9531 31.2001C36.0531 31.1001 36.0531 31.0001 36.0531 30.9001C36.0531 30.8001 36.0531 30.7001 36.0531 30.6001C36.0531 30.5001 35.9531 30.4001 35.9531 30.3001C35.9531 30.3001 35.8531 30.3001 35.7531 30.2001Z" fill="#0033AD"/>
<path d="M18.8516 35.7997C18.7516 35.6997 18.5516 35.6997 18.4516 35.6997C18.3516 35.6997 18.1516 35.7997 18.0516 35.8997C17.9516 35.9997 17.8516 36.0997 17.8516 36.2997C17.8516 36.3997 17.8516 36.5997 17.9516 36.6997C18.0516 36.7997 18.1516 36.8997 18.2516 36.8997C18.3516 36.8997 18.5516 36.8997 18.6516 36.8997C18.7516 36.7997 18.8516 36.6997 18.9516 36.5997C19.0516 36.4997 19.0516 36.2997 19.0516 36.1997C19.0516 35.9997 18.9516 35.8997 18.8516 35.7997Z" fill="#0033AD"/>
<path d="M31.3516 35.7001C31.2516 35.8001 31.1516 35.9001 31.0516 36.0001C30.9516 36.1001 30.9516 36.3001 31.0516 36.4001C31.0516 36.5001 31.1516 36.7001 31.2516 36.7001C31.3516 36.8001 31.5516 36.8001 31.6516 36.8001C31.7516 36.8001 31.9516 36.7001 32.0516 36.6001C32.1516 36.5001 32.2516 36.4001 32.2516 36.2001C32.2516 36.1001 32.2516 35.9001 32.1516 35.8001C32.0516 35.7001 31.9516 35.6001 31.8516 35.6001C31.6516 35.6001 31.5516 35.6001 31.3516 35.7001Z" fill="#0033AD"/>
<path d="M24.4501 29.7C24.6501 29.4 24.7501 28.9 24.7501 28.5C24.7501 28.1 24.5501 27.7 24.2501 27.4C23.9501 27.1 23.6501 26.9 23.1501 26.8C22.7501 26.7 22.3501 26.8 21.9501 27C21.5501 27.2 21.3501 27.5 21.1501 27.9C20.9501 28.3 20.9501 28.7 21.0501 29.1C21.1501 29.5 21.3501 29.9 21.7501 30.1C22.0501 30.4 22.4501 30.5 22.8501 30.5C23.1501 30.5 23.4501 30.4 23.7501 30.3C24.0501 30.2 24.2501 29.9 24.4501 29.7Z" fill="#0033AD"/>
<path d="M20.75 32.4999C20.55 32.3999 20.35 32.3999 20.15 32.3999C19.95 32.3999 19.75 32.4999 19.55 32.6999C19.45 32.8999 19.35 33.0999 19.25 33.2999C19.25 33.4999 19.25 33.6999 19.45 33.8999C19.55 34.0999 19.75 34.1999 19.95 34.2999C20.15 34.3999 20.35 34.2999 20.55 34.2999C20.75 34.1999 20.95 34.0999 21.05 33.8999C21.15 33.6999 21.15 33.4999 21.15 33.2999C21.15 33.1999 21.05 33.0999 21.05 32.9999C20.95 32.6999 20.85 32.5999 20.75 32.4999Z" fill="#0033AD"/>
<path d="M25.05 36.1001C24.85 36.1001 24.75 36.1001 24.55 36.2001C24.35 36.3001 24.35 36.5001 24.25 36.6001C24.25 36.8001 24.25 36.9001 24.25 37.1001C24.35 37.3001 24.45 37.4001 24.65 37.5001C24.85 37.6001 24.95 37.6001 25.15 37.6001C25.35 37.6001 25.45 37.5001 25.55 37.3001C25.65 37.2001 25.75 37.0001 25.75 36.8001C25.75 36.6001 25.65 36.5001 25.55 36.3001C25.45 36.2001 25.45 36.2001 25.35 36.1001C25.25 36.1001 25.15 36.1001 25.05 36.1001Z" fill="#0033AD"/>
<path d="M25.0531 31.2998C24.8531 31.2998 24.6531 31.2998 24.4531 31.3998C24.2531 31.4998 24.1531 31.6998 24.0531 31.8998C23.9531 32.0998 23.9531 32.2998 23.9531 32.4998C23.9531 32.6998 24.0531 32.8998 24.2531 33.0998C24.3531 33.2998 24.5531 33.3998 24.7531 33.3998C24.9531 33.4998 25.1531 33.3998 25.3531 33.3998C25.5531 33.2998 25.7531 33.1998 25.8531 32.9998C25.9531 32.7998 26.0531 32.5998 26.0531 32.3998C26.0531 32.0998 25.9531 31.7998 25.7531 31.5998C25.5531 31.3998 25.3531 31.2998 25.0531 31.2998Z" fill="#0033AD"/>
<path d="M29.4516 32.3998C29.2516 32.4998 29.1516 32.6998 29.0516 32.8998C28.9516 33.0998 28.9516 33.2998 29.0516 33.4998C29.1516 33.6998 29.2516 33.8998 29.4516 33.9998C29.6516 34.0998 29.8516 34.1998 30.0516 34.1998C30.2516 34.1998 30.4516 34.0998 30.6516 33.8998C30.8516 33.7998 30.9516 33.5998 30.9516 33.2998C30.9516 33.0998 30.9516 32.8998 30.8516 32.6998C30.7516 32.4998 30.5516 32.3998 30.3516 32.2998C29.9516 32.2998 29.7516 32.2998 29.4516 32.3998Z" fill="#0033AD"/>
</svg>
