<svg width="50" height="50" viewBox="0 0 50 50" fill="none" xmlns="http://www.w3.org/2000/svg">
<rect width="50" height="50" rx="25" fill="white"/>
<path fill-rule="evenodd" clip-rule="evenodd" d="M15.375 14.6196C15.25 14.1196 15.25 13.4946 15.375 12.9946C15.5 12.4946 15.75 11.9946 16.125 11.4946C16.5 10.9946 16.875 10.7446 17.375 10.3696C17.875 10.1196 18.375 9.99463 19 9.86963C19.5 9.86963 20.125 9.86964 20.625 10.1196C21.125 10.2446 21.625 10.6196 22 10.9946C22.375 11.3696 22.75 11.8696 23 12.3696C23.25 12.8696 23.375 13.3696 23.375 13.9946V18.8696C23.875 18.8696 24.5 18.8696 25 18.8696C25.5 18.8696 26.125 18.8696 26.625 18.8696V13.9946C26.625 13.4946 26.75 12.8696 27 12.3696C27.25 11.8696 27.5 11.3696 28 10.9946C28.375 10.6196 28.875 10.3696 29.375 10.1196C29.875 9.99464 30.5 9.86963 31 9.86963C31.5 9.86963 32.125 10.1196 32.625 10.3696C33.125 10.6196 33.5 10.9946 33.875 11.4946C34.25 11.9946 34.5 12.4946 34.625 12.9946C34.75 13.4946 34.75 14.1196 34.625 14.6196L33.5 20.3696C37.25 21.9946 40 24.8696 40 28.3696V30.4946C40 33.3696 38.125 35.8696 35.375 37.4946C32.25 39.2446 28.625 40.2446 25 40.1196C21.375 40.2446 17.75 39.2446 14.625 37.4946C11.875 35.8696 10 33.3696 10 30.4946V28.3696C10 24.8696 12.75 21.9946 16.5 20.3696L15.375 14.6196ZM32.125 21.1196L33.375 14.3696C33.5 13.9946 33.375 13.6196 33.375 13.2446C33.25 12.8696 33.125 12.4946 32.875 12.2446C32.625 11.9946 32.375 11.6196 32 11.4946C31.625 11.3696 31.25 11.2446 30.875 11.1196C30.5 11.1196 30.125 11.1196 29.75 11.2446C29.375 11.3696 29 11.6196 28.75 11.8696C28.5 12.1196 28.25 12.4946 28.125 12.7446C28 13.1196 27.875 13.4946 27.875 13.8696V20.1196C27.5 20.1196 27.125 19.9946 26.625 19.9946C26.125 19.9946 25.5 19.9946 25 19.9946C24.375 19.9946 23.875 19.9946 23.375 20.1196C23 20.1196 22.5 20.2446 22.125 20.2446V13.9946C22.125 13.6196 22 13.2446 21.875 12.8696C21.75 12.4946 21.5 12.2446 21.25 11.9946C21 11.7446 20.625 11.4946 20.25 11.3696C19.875 11.2446 19.5 11.2446 19.125 11.2446C18.75 11.2446 18.375 11.3696 18 11.6196C17.625 11.8696 17.375 12.1196 17.125 12.3696C16.875 12.6196 16.75 12.9946 16.625 13.3696C16.5 13.7446 16.5 14.1196 16.625 14.4946L17.875 21.2446C13.875 22.7446 11.25 25.3696 11.25 28.4946V30.6196C11.25 35.2446 17.375 38.9947 25 38.9947C32.625 38.9947 38.75 35.2446 38.75 30.6196V28.4946C38.75 25.2446 36.125 22.6196 32.125 21.1196Z" fill="#633001"/>
<path d="M38.625 29.4946C38.625 34.6196 32.5 38.7446 25 38.7446C17.5 38.7446 11.375 34.6196 11.375 29.4946V27.1196H38.625V29.4946Z" fill="#FEDC90"/>
<path fill-rule="evenodd" clip-rule="evenodd" d="M16.625 14.3696C16.5 13.9946 16.625 13.6196 16.625 13.2446C16.75 12.8696 16.875 12.4946 17.125 12.2446C17.375 11.9946 17.625 11.7446 18 11.4946C18.375 11.2446 18.75 11.2446 19.125 11.1196C19.5 11.1196 19.875 11.1196 20.25 11.2446C20.625 11.3696 21 11.6196 21.25 11.8696C21.5 12.1196 21.75 12.4946 21.875 12.7446C22 13.1196 22.125 13.4946 22.125 13.8696V19.9946C24 19.7446 25.875 19.7446 27.875 19.9946V13.8696C27.875 13.4946 28 13.1196 28.125 12.7446C28.25 12.3696 28.5 12.1196 28.75 11.8696C29 11.6196 29.375 11.3696 29.75 11.2446C30.125 11.1196 30.5 11.1196 30.875 11.1196C31.25 11.1196 31.625 11.2446 32 11.4946C32.375 11.6196 32.625 11.8696 32.875 12.2446C33.125 12.4946 33.25 12.8696 33.375 13.2446C33.5 13.6196 33.5 13.9946 33.375 14.3696L32.125 20.9946C36.125 22.4946 38.75 25.1196 38.75 28.1196C38.75 32.7446 32.625 36.3696 25.125 36.3696C17.625 36.3696 11.5 32.6196 11.5 28.1196C11.5 25.1196 14.125 22.4946 18.125 20.9946L16.625 14.3696Z" fill="#D1884F"/>
<path d="M21.375 27.7446C21.375 29.1196 20.625 30.2446 19.75 30.2446C18.875 30.2446 18 29.1196 18 27.7446C18 26.3696 18.75 25.2446 19.75 25.2446C20.75 25.2446 21.375 26.2446 21.375 27.7446Z" fill="#633001"/>
<path d="M31.875 27.7446C31.875 29.1196 31.125 30.2446 30.125 30.2446C29.125 30.2446 28.5 29.1196 28.5 27.7446C28.5 26.3696 29.25 25.2446 30.125 25.2446C31 25.2446 31.875 26.2446 31.875 27.7446Z" fill="#633001"/>
</svg>
