<svg width="50" height="50" viewBox="0 0 50 50" fill="none" xmlns="http://www.w3.org/2000/svg">
<rect width="50" height="50" rx="25" fill="white"/>
<path d="M19.6673 12.0497C19.2673 11.9497 19.2673 11.9497 19.4673 11.9497C20.0673 11.9497 20.6673 11.9497 21.2673 12.1497C22.7673 12.5497 24.1673 13.5497 25.1673 14.7497L25.5673 15.1497L26.0673 15.0497C28.1673 14.7497 30.2673 14.9497 32.1673 15.8497C32.6673 16.0497 33.0673 16.3497 33.5673 16.6497C33.6673 16.8497 33.6673 17.0497 33.6673 17.1497C33.8673 17.8497 33.7673 18.5497 33.4673 19.2497C33.3673 19.3497 33.3673 19.4497 33.3673 19.5497C33.3673 19.6497 33.3673 19.7497 33.4673 19.8497C33.4673 19.9497 33.5673 20.0497 33.6673 20.0497C33.7673 20.1497 33.8673 20.1497 33.9673 20.1497C34.3673 20.1497 34.8673 19.4497 35.1673 18.4497L35.2673 18.0497L35.4673 18.2497C36.3673 19.2497 37.0673 20.5497 37.3673 21.8497V22.1497L37.1673 21.9497C36.9673 21.5497 36.6673 21.2497 36.2673 20.9497C35.6673 20.5497 34.9673 20.3497 33.1673 20.2497C31.9673 20.2497 30.7673 20.0497 29.6673 19.7497C28.0673 19.2497 27.2673 18.5497 25.4673 16.1497C24.8673 15.3497 24.2673 14.6497 23.6673 14.0497C22.3673 12.8497 21.0673 12.2497 19.6673 12.0497Z" fill="#FF007A"/>
<path d="M33.7656 14.4498C33.7656 13.8498 33.8656 13.3498 34.0656 12.8498C34.0656 12.7498 34.1656 12.6498 34.2656 12.5498C34.2656 12.6498 34.2656 12.7498 34.1656 12.8498C33.9656 13.3498 33.9656 13.9498 34.0656 14.5498C34.1656 15.4498 34.2656 15.5498 35.1656 16.4498C35.5656 16.8498 36.0656 17.4498 36.2656 17.6498L36.5656 18.0498L36.2656 17.7498C35.7656 17.3498 35.2656 16.9498 34.7656 16.5498C34.6656 16.4498 34.5656 16.4498 34.5656 16.5498C34.4656 16.6498 34.4656 16.7498 34.4656 17.2498C34.4656 17.9498 34.3656 18.5498 34.0656 19.1498C33.8656 19.4498 33.8656 19.3498 34.0656 19.0498C34.1656 18.6498 34.2656 18.2498 34.1656 17.8498C34.1656 16.2498 33.9656 15.8498 32.8656 15.1498C32.5656 14.9498 32.0656 14.7498 31.7656 14.6498C31.5656 14.5498 31.3656 14.4498 31.2656 14.3498C31.7656 14.4498 32.3656 14.6498 32.8656 14.8498C33.5656 15.1498 33.6656 15.1498 33.7656 15.1498C33.7656 15.0498 33.7656 14.8498 33.7656 14.4498Z" fill="#FF007A"/>
<path d="M20.3689 17.25C19.5689 16.05 19.0689 14.65 19.1689 13.15V12.75H19.3689C19.7689 12.85 20.1689 12.95 20.5689 13.15C21.3689 13.65 21.6689 14.25 21.9689 15.75C22.0689 16.25 22.1689 16.75 22.2689 16.85C22.4689 17.35 22.7689 17.75 23.0689 18.25C23.2689 18.55 23.1689 18.75 22.6689 18.65C21.7689 18.55 20.9689 18.05 20.3689 17.25Z" fill="#FF007A"/>
<path d="M32.8656 25.4496C29.0656 23.9496 27.7656 22.6496 27.7656 20.4496C27.7656 20.2496 27.7656 20.0496 27.7656 19.8496C27.8656 19.9496 27.9656 20.0496 28.0656 20.0496C28.8656 20.6496 29.6656 20.9496 32.0656 21.2496C33.0656 21.3496 34.0656 21.5496 34.9656 21.8496C35.9656 22.1496 36.9656 22.6496 37.6656 23.4496C38.3656 24.2496 38.8656 25.2496 39.0656 26.2496C39.1656 27.0496 39.1656 27.8496 38.9656 28.6496C38.8656 29.1496 38.6656 29.6496 38.3656 30.0496C38.3656 30.0496 38.2656 29.9496 38.2656 29.8496C38.2656 29.4496 38.1656 29.0496 37.9656 28.6496C37.7656 28.2496 37.4656 27.9496 37.1656 27.6496C35.8656 26.6496 34.3656 25.9496 32.8656 25.4496Z" fill="#FF007A"/>
<path d="M30.1719 26.0497C30.1719 25.7497 30.0719 25.5497 29.9719 25.2497L29.8719 24.9497L30.0719 25.1497C30.3719 25.4497 30.5719 25.8497 30.6719 26.2497C30.7719 26.5497 30.8719 26.9497 30.7719 27.2497C30.7719 27.5497 30.7719 27.9497 30.6719 28.2497C30.4719 28.7497 30.2719 29.1497 29.8719 29.5497C29.0719 30.2497 28.0719 30.7497 26.9719 30.7497C26.7719 30.7497 26.0719 30.8497 25.5719 30.8497C24.4719 30.8497 23.3719 31.0497 22.3719 31.3497C22.2719 31.3497 22.1719 31.4497 22.1719 31.4497C22.4719 31.2497 22.8719 31.0497 23.1719 30.8497C24.0719 30.4497 25.0719 30.2497 26.0719 30.1497C26.7719 30.0497 27.5719 29.8497 27.7719 29.8497C28.5719 29.6497 29.3719 29.1497 29.7719 28.4497C30.1719 27.7497 30.3719 26.9497 30.1719 26.0497Z" fill="#FF007A"/>
<path d="M31.8672 29.1496C31.3672 28.2496 31.2672 27.1496 31.5672 26.0496C31.5672 25.9496 31.6672 25.8496 31.6672 25.8496C31.7672 25.8496 31.8672 25.9496 31.9672 25.9496C32.1672 26.1496 32.6672 26.3496 33.8672 27.0496C34.9672 27.5496 36.0672 28.3496 36.8672 29.2496C37.3672 29.9496 37.7672 30.6496 37.8672 31.5496C37.9672 32.3496 37.8672 33.0496 37.7672 33.7496C37.5672 34.5496 37.2672 35.2496 36.7672 35.8496C36.2672 36.4496 35.6672 36.9496 34.9672 37.3496C34.8672 37.4496 34.6672 37.4496 34.5672 37.5496C34.5672 37.4496 34.6672 37.2496 34.7672 37.1496C34.9672 36.6496 35.1672 36.2496 35.1672 35.7496C35.1672 35.2496 35.1672 34.7496 34.9672 34.2496C34.5672 33.2496 34.0672 32.3496 33.4672 31.5496C32.8672 30.8496 32.3672 29.9496 31.8672 29.1496Z" fill="#FF007A"/>
<path d="M17.7688 34.9497C19.1688 33.7497 20.7687 33.0497 22.4688 32.6497C23.2688 32.5497 24.0687 32.5497 24.9688 32.7497C25.9688 32.9497 26.7687 33.5497 27.3687 34.2497C27.8687 35.0497 28.1688 35.9496 28.2688 36.8496C28.3688 37.3496 28.4688 37.8497 28.4688 37.9497C28.5688 38.5497 28.8688 39.0497 29.2688 39.4497C29.6688 39.6497 30.0688 39.7496 30.5688 39.8496C31.0688 39.8496 31.4687 39.7497 31.8687 39.5497C31.9687 39.5497 32.0687 39.4497 32.1687 39.4497C31.9687 39.6497 31.6687 39.8497 31.3687 39.9497C30.9687 40.1497 30.4688 40.2497 29.9688 40.2497C29.4688 40.2497 29.0687 40.0496 28.6687 39.8496C28.2687 39.6496 27.9687 39.2496 27.6687 38.8496C27.4687 38.4496 27.2688 38.0497 27.0688 37.6497C26.3688 36.1497 26.0688 35.6497 25.2688 35.1497C24.9688 34.9497 24.5687 34.8497 24.1687 34.7497C23.7687 34.7497 23.3688 34.7497 23.0688 34.9497C22.8688 35.0497 22.6688 35.1496 22.5688 35.3496C22.4688 35.5496 22.3688 35.7497 22.2688 35.9497C22.2688 36.1497 22.2688 36.3497 22.2688 36.6497C22.2688 36.9497 22.4688 37.0497 22.5688 37.2497C22.8688 37.5497 23.2687 37.7496 23.6687 37.8496C23.8687 37.8496 23.9687 37.8496 24.1687 37.8496C24.3687 37.8496 24.4688 37.7497 24.5688 37.6497C24.6688 37.5497 24.7687 37.4497 24.8687 37.2497C24.9687 37.0497 24.9688 36.9497 24.9688 36.7497C24.9688 36.5497 24.9688 36.3497 24.7688 36.1497C24.6688 35.9497 24.4688 35.8497 24.2688 35.7497C23.6688 35.4497 22.9688 35.7496 22.9688 36.3496C22.9688 36.4496 22.9688 36.5497 23.0688 36.6497C23.1688 36.7497 23.2687 36.8496 23.3687 36.8496C23.5687 36.9496 23.5687 36.9497 23.3687 36.9497C23.2687 36.9497 23.1688 36.8497 23.0688 36.7497C22.9688 36.6497 22.8687 36.5497 22.8687 36.4497C22.8687 36.3497 22.8687 36.1497 22.8687 36.0497C22.8687 35.9497 22.9688 35.8497 23.0688 35.7497C23.2688 35.6497 23.3688 35.5497 23.5688 35.5497C23.7688 35.5497 23.9687 35.5497 24.1687 35.5497C24.3687 35.5497 24.5687 35.6497 24.6687 35.7497C24.8687 35.8497 24.9688 36.0497 25.0688 36.1497C25.2688 36.5497 25.2688 37.0497 25.0688 37.4497C24.8688 37.8497 24.5687 38.1496 24.1687 38.3496C23.7687 38.5496 23.2687 38.5497 22.8687 38.4497C22.1687 38.2497 21.6687 37.8496 21.1687 37.3496C20.6687 36.7496 20.1688 36.3497 19.4688 35.9497C18.8687 35.6497 18.0687 35.4496 17.3687 35.3496L16.9688 35.2497L17.7688 34.9497Z" fill="#FF007A"/>
<path fill-rule="evenodd" clip-rule="evenodd" d="M11.4672 10.55C13.8672 13.45 16.4672 16.15 19.2672 18.55C19.5672 18.95 19.4672 19.25 18.9672 19.55C18.6672 19.75 18.2672 19.85 17.8672 19.85C17.7672 19.85 17.5672 19.85 17.4672 19.75C17.2672 19.55 17.1672 19.65 16.2672 17.95C14.9672 15.95 13.8672 14.35 13.8672 14.35C13.7672 14.25 13.7672 14.25 16.1672 18.45C16.2672 18.65 16.3672 18.85 16.3672 19.05C16.3672 19.25 16.3672 19.55 16.2672 19.75C16.2672 19.95 16.1672 20.15 15.8672 20.45C15.2672 21.15 14.9672 22.05 14.9672 22.95C14.7672 24.45 14.2672 25.45 12.7672 27.35C12.2672 27.85 11.8672 28.45 11.5672 29.05C11.2672 29.55 11.1672 30.05 11.1672 30.55C11.1672 31.15 11.1672 31.85 11.3672 32.45C11.5672 33.05 11.8672 33.65 12.2672 34.25C12.5672 34.65 12.8672 35.15 12.9672 35.65C12.9672 35.85 12.9672 35.85 13.6672 35.65C15.0672 35.45 16.3672 34.75 17.3672 33.85C17.5672 33.65 17.7672 33.45 17.8672 33.15C17.9672 32.95 17.9672 32.65 17.9672 32.35C17.9672 32.05 17.9672 31.85 17.8672 31.55C17.5672 31.05 17.0672 30.55 16.5672 30.25C16.1672 30.05 15.8672 29.75 15.5672 29.45C15.2672 29.05 15.0672 28.65 14.9672 28.25C14.8672 27.45 15.0672 26.65 15.5672 25.95C16.0672 25.05 16.3672 24.05 16.3672 22.95C16.4672 22.15 16.5672 21.85 16.7672 21.55C16.8672 21.45 17.0672 21.25 17.2672 21.25C17.4672 21.15 17.6672 21.15 17.8672 21.15C18.6672 21.15 19.3672 20.85 19.9672 20.35C20.1672 20.15 20.3672 19.95 20.4672 19.75C20.5672 19.55 20.6672 19.25 20.6672 18.95V18.55L20.4672 18.25C19.5672 17.25 10.9672 9.75 10.8672 9.75C10.8672 9.75 11.1672 10.15 11.4672 10.55ZM13.5672 31.35C13.6672 31.15 13.6672 30.95 13.6672 30.75C13.6672 30.55 13.4672 30.35 13.3672 30.25C13.0672 30.05 12.5672 30.15 12.5672 30.45C12.5672 30.55 12.5672 30.55 12.7672 30.65C12.9672 30.75 12.9672 30.85 12.8672 31.05C12.7672 31.25 12.7672 31.45 12.8672 31.55C12.9672 31.55 12.9672 31.65 13.0672 31.65C13.1672 31.65 13.2672 31.65 13.2672 31.65C13.3672 31.65 13.4672 31.55 13.4672 31.55C13.4672 31.55 13.5672 31.45 13.5672 31.35Z" fill="#FF007A"/>
<path fill-rule="evenodd" clip-rule="evenodd" d="M21.2688 21.45C21.0688 21.55 20.7688 21.65 20.6688 21.85C20.4688 22.05 20.3688 22.25 20.2688 22.55C20.1688 22.85 20.1688 23.25 20.3688 23.55C20.5688 23.85 20.7688 23.85 21.2688 23.85C22.2688 23.85 23.1688 23.35 23.2688 22.85C23.2688 22.55 23.1688 22.25 23.0688 22.05C22.8688 21.85 22.6688 21.65 22.4688 21.45C22.0688 21.35 21.6688 21.35 21.2688 21.45ZM22.4688 22.35C22.4688 22.25 22.5688 22.25 22.5688 22.15C22.5688 22.05 22.5688 22.05 22.5688 21.95C22.5688 21.85 22.5688 21.85 22.4688 21.75C22.4688 21.75 22.3688 21.65 22.2688 21.65C21.7688 21.35 20.9688 21.55 20.9688 22.05C20.9688 22.25 21.3688 22.55 21.7688 22.55C22.0688 22.65 22.2688 22.55 22.4688 22.35Z" fill="#FF007A"/>
</svg>
