<svg width="50" height="50" viewBox="0 0 50 50" fill="none" xmlns="http://www.w3.org/2000/svg">
<rect width="50" height="50" rx="25" fill="white"/>
<path d="M25.0422 10.2002C26.8422 10.2002 28.3422 16.8002 28.3422 25.0002C28.3422 33.2002 26.8422 39.8002 25.0422 39.8002C23.2422 39.8002 21.7422 33.2002 21.7422 25.0002C21.7422 16.8002 23.1422 10.2002 25.0422 10.2002Z" stroke="#5064FB"/>
<path d="M37.9422 17.5999C38.8422 19.1999 33.8422 23.6999 26.6422 27.7999C19.4422 31.8999 12.9422 33.8999 12.0422 32.2999C11.1422 30.6999 16.1422 26.1999 23.3422 22.0999C30.5422 17.9999 37.0422 16.0999 37.9422 17.5999Z" stroke="#5064FB"/>
<path d="M37.9422 32.4002C37.0422 34.0002 30.4422 31.9002 23.3422 27.9002C16.1422 23.8002 11.1422 19.2002 12.0422 17.7002C12.9422 16.2002 19.5422 18.2002 26.6422 22.2002C33.8422 26.2002 38.9422 30.8002 37.9422 32.4002Z" stroke="#5064FB"/>
<path fill-rule="evenodd" clip-rule="evenodd" d="M14.7406 20.6001C14.9406 20.6001 15.2406 20.7001 15.4406 20.8001C15.6406 20.9001 15.7406 21.1001 15.8406 21.3001C15.9406 21.5001 15.9406 21.8001 15.9406 22.0001C15.9406 22.2001 15.7406 22.4001 15.6406 22.6001C15.4406 22.8001 15.2406 22.9001 15.0406 22.9001C14.8406 22.9001 14.5406 22.9001 14.3406 22.8001C14.1406 22.7001 13.9406 22.6001 13.8406 22.4001C13.7406 22.2001 13.6406 22.0001 13.6406 21.7001C13.6406 21.4001 13.7406 21.1001 14.0406 20.8001C14.1406 20.8001 14.4406 20.6001 14.7406 20.6001Z" fill="#5064FB"/>
<path fill-rule="evenodd" clip-rule="evenodd" d="M22.6391 34.1001C22.8391 34.1001 23.1391 34.2001 23.3391 34.3001C23.5391 34.4001 23.6391 34.6001 23.7391 34.8001C23.8391 35.0001 23.8391 35.3001 23.8391 35.5001C23.8391 35.7001 23.6391 35.9001 23.5391 36.1001C23.3391 36.3001 23.1391 36.4001 22.9391 36.4001C22.7391 36.4001 22.4391 36.4001 22.2391 36.3001C22.0391 36.2001 21.8391 36.1001 21.7391 35.9001C21.6391 35.7001 21.5391 35.5001 21.5391 35.2001C21.5391 34.9001 21.6391 34.6001 21.9391 34.3001C22.0391 34.2001 22.3391 34.1001 22.6391 34.1001Z" fill="#5064FB"/>
<path fill-rule="evenodd" clip-rule="evenodd" d="M32.6391 16.6001C32.8391 16.6001 33.1391 16.7001 33.3391 16.8001C33.5391 16.9001 33.6391 17.1001 33.7391 17.3001C33.8391 17.5001 33.8391 17.8001 33.8391 18.0001C33.8391 18.2001 33.6391 18.4001 33.5391 18.6001C33.3391 18.8001 33.1391 18.9001 32.9391 18.9001C32.7391 18.9001 32.4391 18.9001 32.2391 18.8001C32.0391 18.7001 31.8391 18.6001 31.7391 18.4001C31.6391 18.2001 31.5391 18.0001 31.5391 17.7001C31.5391 17.4001 31.6391 17.1001 31.9391 16.8001C32.0391 16.8001 32.3391 16.6001 32.6391 16.6001Z" fill="#5064FB"/>
<path fill-rule="evenodd" clip-rule="evenodd" d="M25.0422 23.2002C25.4422 23.2002 25.7422 23.3002 26.0422 23.5002C26.3422 23.7002 26.5422 24.0002 26.7422 24.3002C26.8422 24.6002 26.9422 25.0002 26.8422 25.4002C26.7422 25.8002 26.6422 26.1002 26.3422 26.3002C26.0422 26.6002 25.7422 26.7002 25.4422 26.8002C25.0422 26.9002 24.7422 26.8002 24.3422 26.7002C24.0422 26.6002 23.7422 26.3002 23.5422 26.0002C23.3422 25.7002 23.2422 25.3002 23.2422 25.0002C23.2422 24.8002 23.2422 24.5002 23.3422 24.3002C23.4422 24.1002 23.5422 23.9002 23.7422 23.7002C23.9422 23.5002 24.1422 23.4002 24.3422 23.3002C24.5422 23.2002 24.7422 23.2002 25.0422 23.2002Z" fill="#5064FB"/>
</svg>
