<svg width="50" height="50" viewBox="0 0 50 50" fill="none" xmlns="http://www.w3.org/2000/svg">
<rect width="50" height="50" rx="25" fill="white"/>
<path d="M16.2534 29.7929C16.3437 29.7124 16.434 29.6318 16.5244 29.6318C16.6147 29.6318 16.705 29.5513 16.8857 29.5513H37.5716C37.6619 29.5513 37.7522 29.5513 37.8426 29.6318C37.9329 29.6318 37.9329 29.7124 38.0232 29.7929C38.0232 29.8735 38.0232 29.9541 38.0232 30.0346C38.0232 30.1152 37.9329 30.1957 37.9329 30.1957L33.868 33.8207C33.7777 33.9013 33.6873 33.9818 33.597 33.9818C33.5067 33.9818 33.4163 34.0624 33.2357 34.0624H12.4595C12.3691 34.0624 12.2788 34.0624 12.1885 33.9818C12.0981 33.9013 12.0981 33.9013 12.0078 33.8207C12.0078 33.7401 12.0078 33.6596 12.0078 33.579C12.0078 33.4985 12.0981 33.4179 12.0981 33.4179L16.2534 29.7929Z" fill="url(#paint0_linear_8053_78571)"/>
<path d="M16.2545 16.1792C16.4351 16.018 16.6158 15.9375 16.8868 15.9375H37.5727C37.663 15.9375 37.7533 15.9375 37.8436 16.018C37.934 16.0986 37.934 16.0986 38.0243 16.1792C38.0243 16.2597 38.0243 16.3403 38.0243 16.4208C38.0243 16.5014 37.934 16.5819 37.934 16.5819L33.8691 20.2069C33.7787 20.2875 33.6884 20.3681 33.5981 20.3681C33.5077 20.3681 33.4174 20.4486 33.2367 20.4486H12.4606C12.3702 20.4486 12.2799 20.4486 12.1896 20.3681C12.0992 20.3681 12.0992 20.2875 12.0089 20.2069C11.9186 20.1264 12.0089 20.0458 12.0089 19.9653C12.0089 19.8847 12.0992 19.8042 12.0992 19.8042L16.2545 16.1792Z" fill="url(#paint1_linear_8053_78571)"/>
<path d="M33.7776 22.9458C33.6873 22.8652 33.597 22.7847 33.5067 22.7847C33.4163 22.7847 33.326 22.7041 33.1453 22.7041H12.4595C12.3691 22.7041 12.2788 22.7041 12.1885 22.7847C12.0981 22.8652 12.0981 22.8652 12.0078 22.9458C12.0078 23.0263 12.0078 23.1069 12.0078 23.1874C12.0078 23.268 12.0981 23.3485 12.0981 23.3485L16.1631 26.9735C16.2534 27.0541 16.3437 27.1347 16.434 27.1347C16.5244 27.1347 16.6147 27.2152 16.7954 27.2152H37.4812C37.5716 27.2152 37.6619 27.2152 37.7522 27.1347C37.8426 27.0541 37.8426 27.0541 37.9329 26.9735C37.9329 26.893 37.9329 26.8124 37.9329 26.7319C37.9329 26.6513 37.8426 26.5708 37.8426 26.5708L33.7776 22.9458Z" fill="url(#paint2_linear_8053_78571)"/>
<defs>
<linearGradient id="paint0_linear_8053_78571" x1="25.1246" y1="36.6162" x2="24.6863" y2="11.8586" gradientUnits="userSpaceOnUse">
<stop stop-color="#00FFA3"/>
<stop offset="1" stop-color="#DC1FFF"/>
</linearGradient>
<linearGradient id="paint1_linear_8053_78571" x1="25.4961" y1="39.4261" x2="25.0576" y2="14.6696" gradientUnits="userSpaceOnUse">
<stop stop-color="#00FFA3"/>
<stop offset="1" stop-color="#DC1FFF"/>
</linearGradient>
<linearGradient id="paint2_linear_8053_78571" x1="25.3177" y1="38.033" x2="24.8794" y2="13.2715" gradientUnits="userSpaceOnUse">
<stop stop-color="#00FFA3"/>
<stop offset="1" stop-color="#DC1FFF"/>
</linearGradient>
</defs>
</svg>
