<svg width="51" height="50" viewBox="0 0 51 50" fill="none" xmlns="http://www.w3.org/2000/svg">
<rect x="0.5" width="50" height="50" rx="25" fill="white"/>
<g filter="url(#filter0_d_8053_78892)">
<path fill-rule="evenodd" clip-rule="evenodd" d="M27.9187 23.1703C27.9187 24.6703 25.5188 24.4703 24.7188 24.4703V21.7703C25.5188 21.7703 27.9187 21.5703 27.9187 23.1703ZM28.5187 27.3703C28.5187 29.0703 25.6188 28.8703 24.7188 28.8703V25.8703C25.6188 25.8703 28.5187 25.5703 28.5187 27.3703ZM30.4187 22.5703C30.2187 20.9703 28.9187 20.4703 27.1187 20.2703V18.0703H25.8187V20.2703C25.4187 20.2703 25.1188 20.2703 24.7188 20.2703V18.0703H23.4187V20.2703H20.7188V21.6703H21.7188C21.9188 21.6703 22.1187 21.6703 22.2188 21.7703C22.3188 21.8703 22.4187 22.0703 22.5187 22.2703V28.3703C22.5187 28.4703 22.4187 28.5703 22.3187 28.6703C22.2187 28.7703 22.1187 28.7703 22.0187 28.7703H21.0187L20.7188 30.3703H23.4187V32.6703H24.7188V30.4703H25.8187V32.6703H27.1187V30.4703C29.4187 30.3703 31.0188 29.7703 31.2188 27.6703C31.3188 27.3703 31.3188 27.0703 31.2188 26.7703C31.1187 26.4703 31.0187 26.1703 30.8187 25.8703C30.6187 25.5703 30.4187 25.3703 30.1187 25.1703C29.8187 24.9703 29.5188 24.8703 29.2188 24.8703C29.6187 24.6703 30.0188 24.3703 30.2188 23.9703C30.4187 23.4703 30.5187 22.9703 30.4187 22.5703Z" fill="#F09242"/>
<path d="M18.2156 16.9704C19.6156 15.7704 21.2156 14.8704 23.0156 14.4704C24.8156 14.0704 26.7156 14.0704 28.4156 14.5704H28.6156C28.7156 14.5704 28.8156 14.5704 28.8156 14.6704C28.9156 14.6704 29.0156 14.7704 29.1156 14.7704H29.2156C29.3156 14.8704 29.5156 14.8704 29.6156 14.9704C30.7156 15.4704 31.8156 16.0704 32.7156 16.8704L33.3156 16.2704C33.2156 16.1704 33.1156 16.0704 33.1156 16.0704C31.0156 14.2704 28.4156 13.2704 25.7156 13.1704H25.2156C24.3156 13.1704 23.4156 13.2704 22.6156 13.4704H22.4156H22.3156C21.4156 13.6704 20.6156 14.0704 19.8156 14.4704C18.9156 14.9704 18.2156 15.4704 17.5156 16.1704L18.2156 16.9704Z" fill="#222222"/>
<path d="M17.4119 17.6703L16.7119 17.0703C12.3119 21.6703 12.9119 29.2703 16.7119 32.8703L17.4119 32.3703C15.6119 30.3703 14.5119 27.7703 14.5119 25.0703C14.6119 22.3703 15.6119 19.6703 17.4119 17.6703Z" fill="#222222"/>
<path d="M34.5172 17.4704C34.4172 17.3704 34.3172 17.2704 34.2172 17.1704L33.6172 17.7704C35.4172 19.7704 36.4172 22.3704 36.4172 24.9704C36.4172 27.6704 35.5172 30.2704 33.7172 32.2704L34.3172 32.9704C36.2172 30.8704 37.3172 28.0704 37.3172 25.2704C37.3172 22.3704 36.3172 19.5704 34.5172 17.4704Z" fill="#222222"/>
<path d="M32.9172 33.1704C32.5172 33.4704 32.1172 33.7704 31.7172 33.9704C30.3172 34.9704 28.7172 35.5704 27.0172 35.8704C26.1172 35.9704 25.3172 36.0704 24.4172 35.9704C22.2172 35.7704 20.1172 34.8704 18.5172 33.4704L18.2172 33.2704L17.6172 33.7704C19.7172 35.7704 22.6172 36.9704 25.6172 36.8704H25.8172C28.5172 36.7704 31.1172 35.7704 33.1172 34.0704C33.2172 33.9704 33.3172 33.8704 33.4172 33.7704L32.9172 33.1704Z" fill="#222222"/>
<path d="M25.5172 12.1704C28.1172 12.1704 30.6172 12.9704 32.7172 14.3704C34.8172 15.7704 36.5172 17.7704 37.5172 20.1704C38.5172 22.5704 38.7172 25.1704 38.2172 27.6704C37.7172 30.1704 36.5172 32.4704 34.7172 34.2704C32.9172 36.0704 30.6172 37.2704 28.1172 37.7704C25.6172 38.2704 23.0172 37.9704 20.6172 37.0704C18.2172 36.0704 16.2172 34.4704 14.8172 32.2704C13.4172 30.1704 12.6172 27.6704 12.6172 25.0704C12.6172 21.6704 14.0172 18.3704 16.4172 15.9704C18.8172 13.4704 22.1172 12.1704 25.5172 12.1704ZM25.5172 11.1704C22.8172 11.1704 20.1172 11.9704 17.8172 13.4704C15.5172 14.9704 13.7172 17.1704 12.7172 19.6704C11.7172 22.1704 11.4172 24.9704 11.9172 27.6704C12.4172 30.3704 13.8172 32.8704 15.7172 34.7704C17.6172 36.6704 20.1172 38.0704 22.8172 38.5704C25.5172 39.0704 28.3172 38.8704 30.8172 37.7704C33.3172 36.6704 35.5172 34.9704 37.0172 32.6704C38.5172 30.3704 39.3172 27.6704 39.3172 24.9704C39.3172 23.1704 38.9172 21.3704 38.2172 19.6704C37.5172 17.9704 36.5172 16.4704 35.2172 15.1704C33.9172 13.8704 32.4172 12.8704 30.7172 12.1704C29.1172 11.5704 27.3172 11.1704 25.5172 11.1704Z" fill="#222222"/>
</g>
<defs>
<filter id="filter0_d_8053_78892" x="5.67969" y="5.17041" width="39.6406" height="39.6592" filterUnits="userSpaceOnUse" color-interpolation-filters="sRGB">
<feFlood flood-opacity="0" result="BackgroundImageFix"/>
<feColorMatrix in="SourceAlpha" type="matrix" values="0 0 0 0 0 0 0 0 0 0 0 0 0 0 0 0 0 0 127 0" result="hardAlpha"/>
<feOffset/>
<feGaussianBlur stdDeviation="3"/>
<feColorMatrix type="matrix" values="0 0 0 0 0.341176 0 0 0 0 0.392157 0 0 0 0 0.466667 0 0 0 0.102 0"/>
<feBlend mode="normal" in2="BackgroundImageFix" result="effect1_dropShadow_8053_78892"/>
<feBlend mode="normal" in="SourceGraphic" in2="effect1_dropShadow_8053_78892" result="shape"/>
</filter>
</defs>
</svg>
