<svg width="51" height="50" viewBox="0 0 51 50" fill="none" xmlns="http://www.w3.org/2000/svg">
<rect x="0.5" width="50" height="50" rx="25" fill="white"/>
<path d="M25.8537 26.5741H34.5603C34.7476 26.5741 34.8412 26.5741 34.8412 26.2963C34.9348 25.463 34.9348 24.537 34.8412 23.7037C34.8412 23.5185 34.7476 23.4259 34.5603 23.4259H17.2406C17.0534 23.4259 16.9598 23.5185 16.9598 23.7037V26.2037C16.9598 26.4815 16.9598 26.4815 17.3343 26.4815L25.8537 26.5741ZM33.905 20.5556C33.905 20.463 33.905 20.463 33.905 20.3704C33.7178 20.0926 33.6241 19.7222 33.4369 19.4444C33.156 18.9815 32.7815 18.5185 32.4071 18.1482C32.2198 17.8704 32.0326 17.6852 31.7517 17.5C30.5347 16.4815 29.0368 15.7407 27.4452 15.3704C26.6026 15.1852 25.8537 15.0926 25.0111 15.0926H17.3343C17.147 15.0926 17.0534 15.1852 17.0534 15.3704V20.3704C17.0534 20.5556 17.0534 20.6482 17.3343 20.6482H33.905C33.7178 20.7407 33.905 20.6481 33.905 20.5556ZM33.905 29.537C33.6241 29.537 33.4369 29.537 33.156 29.537H17.2406C17.0534 29.537 16.9598 29.537 16.9598 29.8148V34.7222C16.9598 34.9074 16.9598 35 17.2406 35H24.543C24.9175 35 25.1983 35 25.5728 34.9074C26.6026 34.8148 27.7261 34.6296 28.6623 34.2593C29.0367 34.1667 29.4112 33.9815 29.6921 33.7963H29.7857C31.4709 32.963 32.8752 31.5741 33.8114 29.8148C33.905 29.8148 33.9986 29.537 33.905 29.537ZM14.0576 37.5V29.7222C14.0576 29.537 14.0576 29.537 13.8703 29.537H10.7809C10.5936 29.537 10.5 29.537 10.5 29.3518V26.6667H13.7767C13.9639 26.6667 14.0576 26.6667 14.0576 26.3889V23.7037C14.0576 23.5185 14.0576 23.5185 13.8703 23.5185H10.7809C10.5936 23.5185 10.5 23.5185 10.5 23.3333V20.8333C10.5 20.6481 10.5 20.6482 10.6872 20.6482H13.7767C13.9639 20.6482 14.0576 20.6481 14.0576 20.3704V12.7778C14.0576 12.5926 14.0576 12.5 14.3384 12.5H25.1047C25.8537 12.5 26.6963 12.5926 27.4452 12.7778C29.0368 13.0556 30.5347 13.6111 31.939 14.4444C32.8752 15 33.7178 15.6481 34.4667 16.3889C35.0284 16.9444 35.5901 17.5926 35.9646 18.2407C36.4327 18.8889 36.8072 19.6296 37.0881 20.3704C37.0881 20.463 37.1817 20.5556 37.2753 20.6482C37.3689 20.7407 37.4625 20.7407 37.5562 20.7407H40.0839C40.4584 20.7407 40.4584 20.7407 40.4584 21.0185V23.3333C40.4584 23.5185 40.3648 23.6111 40.1775 23.6111H38.2115C38.0243 23.6111 37.9307 23.6111 37.9307 23.8889C38.0243 24.7222 38.0243 25.6482 37.9307 26.4815C37.9307 26.7593 37.9307 26.7593 38.2115 26.7593H40.4584C40.552 26.8518 40.4584 27.037 40.4584 27.1296C40.4584 27.3148 40.4584 27.5 40.4584 27.5926V29.2593C40.4584 29.537 40.3648 29.537 40.1775 29.537H37.4626C37.3689 29.537 37.2753 29.537 37.1817 29.6296C37.0881 29.7222 37.0881 29.7222 36.9945 29.8148C36.3391 31.4815 35.3093 32.963 33.9986 34.0741C33.5305 34.537 32.9688 34.9074 32.5007 35.2778C31.939 35.6482 31.3773 35.9259 30.8155 36.2037C29.6921 36.6667 28.5687 37.037 27.4452 37.2222C26.3218 37.4074 25.1983 37.5 24.0749 37.5H14.0576Z" fill="#F5AC37"/>
</svg>
