<svg width="51" height="50" viewBox="0 0 51 50" fill="none" xmlns="http://www.w3.org/2000/svg">
<rect x="0.5" width="50" height="50" rx="25" fill="white"/>
<path d="M33.3562 17.15C32.1562 14.45 29.3562 13.85 26.0562 14.45L24.9562 10.25L22.3562 10.95L23.4562 15.15C22.7562 15.35 22.0562 15.45 21.4562 15.65L20.3562 11.45L17.7562 12.15L18.8562 16.35C18.3562 16.55 13.6562 17.65 13.6562 17.65L14.3562 20.35L16.2562 19.85C16.5562 19.75 16.9562 19.75 17.2562 19.85C17.5562 19.95 17.8562 20.25 17.9562 20.55L20.9562 32.05C20.9562 32.15 20.9562 32.25 20.9562 32.45C20.9562 32.55 20.8562 32.65 20.8562 32.75C20.7562 32.85 20.6562 32.95 20.5562 33.05C20.4562 33.15 20.3562 33.15 20.2562 33.15L18.3562 33.65L18.6562 36.85C18.6562 36.85 23.2562 35.65 23.8562 35.55L24.9562 39.75L27.5562 39.05L26.4562 34.75C27.1562 34.55 27.8562 34.45 28.5562 34.25L29.6562 38.55L32.2562 37.85L31.1562 33.65C35.0562 32.65 37.8562 30.25 37.2562 26.45C36.8562 24.15 34.3562 22.25 32.3562 22.05C33.0562 21.45 33.5562 20.65 33.7562 19.75C33.7562 18.95 33.7562 18.05 33.3562 17.15ZM32.0562 27.25C32.5562 31.05 27.3562 31.45 25.6562 31.95L24.1562 26.35C25.8562 25.75 31.2562 23.85 32.0562 27.25ZM28.9562 19.55C29.4562 22.85 25.0562 23.25 23.5562 23.65L22.1562 18.55C23.6562 18.15 27.8562 16.45 28.9562 19.55Z" fill="#0AC18E"/>
</svg>
