<svg width="51" height="50" viewBox="0 0 51 50" fill="none" xmlns="http://www.w3.org/2000/svg">
<rect x="0.5" width="50" height="50" rx="25" fill="white"/>
<path d="M20.1745 13.3763V16.7618C17.4583 17.7842 15.1781 19.7125 13.7188 22.2212V12.1182H18.9188C19.0838 12.1183 19.2472 12.151 19.3997 12.2143C19.5521 12.2776 19.6906 12.3703 19.8072 12.4872C19.9238 12.604 20.0163 12.7427 20.0793 12.8952C20.1423 13.0478 20.1747 13.2113 20.1745 13.3763Z" fill="#3E8445"/>
<path d="M29.1485 17.6623V20.9059C29.1485 21.3313 29.0647 21.7524 28.902 22.1454C28.7392 22.5383 28.5006 22.8954 28.1999 23.1961C27.8991 23.4969 27.5421 23.7354 27.1492 23.8982C26.7562 24.0609 26.335 24.1447 25.9097 24.1447H24.854C23.6165 24.1447 22.4295 24.6357 21.5537 25.51C20.6779 26.3842 20.1847 27.5703 20.1825 28.8077V37.8744H14.9703C14.6379 37.8735 14.3194 37.7407 14.0847 37.5053C13.85 37.2699 13.7182 36.9511 13.7182 36.6187V28.9399C13.7109 28.8053 13.7109 28.672 13.7109 28.5362C13.7113 25.6501 14.8579 22.8823 16.8987 20.8416C18.9395 18.8008 21.7073 17.6541 24.5934 17.6538C24.7291 17.6538 24.8625 17.6538 24.9982 17.6611L29.1485 17.6623Z" fill="#3E8445"/>
<path d="M30.8203 36.6173V33.2319C33.5358 32.2107 35.8159 30.2842 37.2761 27.7773V37.8816H32.0761C31.9106 37.8813 31.7467 37.8483 31.594 37.7845C31.4412 37.7208 31.3025 37.6275 31.1858 37.5101C31.0692 37.3926 30.9769 37.2533 30.9141 37.1001C30.8514 36.9469 30.8195 36.7829 30.8203 36.6173Z" fill="#3E8445"/>
<path d="M21.8516 32.3315V29.0879C21.8512 28.2291 22.192 27.4053 22.7989 26.7978C23.4058 26.1902 24.2292 25.8485 25.0879 25.8479H26.1437C27.3816 25.8485 28.5692 25.3578 29.4455 24.4835C30.3219 23.6091 30.8154 22.4227 30.8176 21.1848V12.1182H36.0297C36.3624 12.1191 36.681 12.252 36.9158 12.4877C37.1505 12.7233 37.2822 13.0425 37.2819 13.3751V21.0551C37.2879 21.1885 37.2891 21.323 37.2891 21.46C37.2888 24.3461 36.1422 27.1139 34.1014 29.1547C32.0606 31.1954 29.2928 32.3421 26.4067 32.3424C26.271 32.3424 26.1376 32.3424 26.0019 32.3351H21.8516V32.3315Z" fill="#3E8445"/>
</svg>
