<svg width="51" height="50" viewBox="0 0 51 50" fill="none" xmlns="http://www.w3.org/2000/svg">
<rect x="0.5" width="50" height="50" rx="25" fill="white"/>
<path d="M25.511 33.0827L15.9219 28.9058L25.4976 40.404L26.9389 38.6755V32.4609L25.511 33.0827Z" fill="#708299"/>
<path d="M25.5019 9.59668L14.4922 27.1991H36.5019L25.5019 9.59668Z" fill="#708299"/>
<path d="M36.5097 27.2236L25.5 9.5957V27.2284L36.5097 27.2236Z" fill="#68788E"/>
<path d="M25.5024 22.4129L25.4588 22.3936L14.5 27.2093H14.5097L25.4685 32.0251L25.5121 32.0057L26.9424 31.3826V23.0432L25.5024 22.4129Z" fill="#3C3C47"/>
<path d="M25.5073 33.0829L25.5 40.4041L35.0891 28.8975L25.5073 33.0829Z" fill="#68788E"/>
<path d="M36.4888 27.2141L25.5046 22.4129L25.4609 22.3936L25.4707 32.0238L25.5143 32.0044L36.4973 27.2093L36.4888 27.2141Z" fill="#31313B"/>
</svg>
