<svg width="50" height="50" viewBox="0 0 50 50" fill="none" xmlns="http://www.w3.org/2000/svg">
<rect width="50" height="50" rx="25" fill="white"/>
<path d="M32.8984 16.2998H36.0984L29.3984 22.5998C28.1984 23.6998 26.5984 24.2998 24.9984 24.2998C23.3984 24.2998 21.7984 23.6998 20.5984 22.5998L13.8984 16.2998H17.0984L22.1984 21.0998C22.9984 21.7998 23.9984 22.1998 24.9984 22.1998C25.9984 22.1998 26.9984 21.7998 27.7984 21.0998L32.8984 16.2998Z" fill="#222222"/>
<path d="M17.0984 33.7002H13.8984L20.5984 27.4002C21.7984 26.3002 23.3984 25.7002 24.9984 25.7002C26.5984 25.7002 28.1984 26.3002 29.3984 27.4002L36.0984 33.7002H32.8984L27.7984 28.9002C26.9984 28.2002 25.9984 27.8002 24.9984 27.8002C23.9984 27.8002 22.9984 28.2002 22.1984 28.9002L17.0984 33.7002Z" fill="#222222"/>
</svg>
