<svg width="51" height="50" viewBox="0 0 51 50" fill="none" xmlns="http://www.w3.org/2000/svg">
<rect x="0.5" width="50" height="50" rx="25" fill="white"/>
<g clip-path="url(#clip0_8053_78652)">
<path d="M25.4959 14.841C28.885 14.841 31.6324 13.1977 31.6324 11.1705C31.6324 9.14334 28.885 7.5 25.4959 7.5C22.1068 7.5 19.3594 9.14334 19.3594 11.1705C19.3594 13.1977 22.1068 14.841 25.4959 14.841Z" fill="#E6007A"/>
<path d="M25.4959 42.4977C28.885 42.4977 31.6324 40.8544 31.6324 38.8272C31.6324 36.8001 28.885 35.1567 25.4959 35.1567C22.1068 35.1567 19.3594 36.8001 19.3594 38.8272C19.3594 40.8544 22.1068 42.4977 25.4959 42.4977Z" fill="#E6007A"/>
<path d="M16.9492 19.9219C18.6437 16.9035 18.6327 13.6343 16.9246 12.6201C15.2165 11.6058 12.4581 13.2305 10.7636 16.249C9.06901 19.2674 9.08001 22.5366 10.7881 23.5508C12.4962 24.5651 15.2546 22.9404 16.9492 19.9219Z" fill="#E6007A"/>
<path d="M40.2341 33.7486C41.9286 30.7301 41.9185 27.4615 40.2116 26.4479C38.5046 25.4344 35.7472 27.0596 34.0526 30.0781C32.3581 33.0965 32.3681 36.3651 34.0751 37.3787C35.7821 38.3923 38.5395 36.767 40.2341 33.7486Z" fill="#E6007A"/>
<path d="M16.9246 37.378C18.6327 36.3637 18.6437 33.0945 16.9492 30.0761C15.2546 27.0576 12.4962 25.4329 10.7881 26.4472C9.08001 27.4615 9.06901 30.7306 10.7636 33.7491C12.4581 36.7675 15.2165 38.3922 16.9246 37.378Z" fill="#E6007A"/>
<path d="M40.2116 23.5516C41.9185 22.538 41.9286 19.2694 40.2341 16.2509C38.5395 13.2325 35.7821 11.6072 34.0751 12.6208C32.3681 13.6344 32.3581 16.903 34.0526 19.9214C35.7472 22.9399 38.5046 24.5652 40.2116 23.5516Z" fill="#E6007A"/>
</g>
<defs>
<clipPath id="clip0_8053_78652">
<rect width="32" height="35" fill="white" transform="translate(9.5 7.5)"/>
</clipPath>
</defs>
</svg>
