<svg width="51" height="50" viewBox="0 0 51 50" fill="none" xmlns="http://www.w3.org/2000/svg">
<rect x="0.5" width="50" height="50" rx="25" fill="white"/>
<path d="M25.4016 26.2998L23.5016 32.8998H33.9016C34.0016 32.8998 34.1016 32.8998 34.1016 32.9998C34.2016 32.9998 34.2016 33.0998 34.3016 33.1998C34.3016 33.2998 34.4016 33.2998 34.4016 33.3998C34.4016 33.4998 34.4016 33.5998 34.4016 33.5998L33.5016 36.6998C33.5016 36.7998 33.4016 36.9998 33.2016 37.0998C33.1016 37.1998 32.9016 37.1998 32.8016 37.1998H16.9016L19.6016 28.0998L16.6016 28.9998L17.3016 26.8998L20.3016 25.9998L24.1016 13.2998C24.1016 13.1998 24.2016 12.9998 24.4016 12.8998C24.5016 12.7998 24.7016 12.7998 24.8016 12.7998H28.8016C28.9016 12.7998 29.0016 12.7998 29.0016 12.8998C29.1016 12.8998 29.1016 12.9998 29.2016 13.0998C29.2016 13.1998 29.3016 13.1998 29.3016 13.2998C29.3016 13.3998 29.3016 13.4998 29.3016 13.4998L26.1016 24.2998L29.1016 23.3998L28.5016 25.5998L25.4016 26.2998Z" fill="#345D9D"/>
</svg>
